<?xml version="1.0" encoding="utf-8" standalone="no"?>
<!DOCTYPE svg PUBLIC "-//W3C//DTD SVG 1.1//EN"
  "http://www.w3.org/Graphics/SVG/1.1/DTD/svg11.dtd">
<!-- Created with matplotlib (https://matplotlib.org/) -->
<svg height="515.291094pt" version="1.1" viewBox="0 0 917.265312 515.291094" width="917.265312pt" xmlns="http://www.w3.org/2000/svg" xmlns:xlink="http://www.w3.org/1999/xlink">
 <metadata>
  <rdf:RDF xmlns:cc="http://creativecommons.org/ns#" xmlns:dc="http://purl.org/dc/elements/1.1/" xmlns:rdf="http://www.w3.org/1999/02/22-rdf-syntax-ns#">
   <cc:Work>
    <dc:type rdf:resource="http://purl.org/dc/dcmitype/StillImage"/>
    <dc:date>2021-12-07T18:47:32.178306</dc:date>
    <dc:format>image/svg+xml</dc:format>
    <dc:creator>
     <cc:Agent>
      <dc:title>Matplotlib v3.3.4, https://matplotlib.org/</dc:title>
     </cc:Agent>
    </dc:creator>
   </cc:Work>
  </rdf:RDF>
 </metadata>
 <defs>
  <style type="text/css">*{stroke-linecap:butt;stroke-linejoin:round;}</style>
 </defs>
 <g id="figure_1">
  <g id="patch_1">
   <path d="M 0 515.291094 
L 917.265312 515.291094 
L 917.265312 0 
L 0 0 
z
" style="fill:#ffffff;"/>
  </g>
  <g id="axes_1">
   <g id="patch_2">
    <path d="M 73.065313 450.72 
L 910.065313 450.72 
L 910.065313 7.2 
L 73.065313 7.2 
z
" style="fill:#ffffff;"/>
   </g>
   <g id="matplotlib.axis_1">
    <g id="xtick_1">
     <g id="line2d_1">
      <defs>
       <path d="M 0 0 
L 0 3.5 
" id="m344159f020" style="stroke:#000000;stroke-width:0.8;"/>
      </defs>
      <g>
       <use style="stroke:#000000;stroke-width:0.8;" x="111.110767" xlink:href="#m344159f020" y="450.72"/>
      </g>
     </g>
     <g id="text_1">
      <!-- 0.0 -->
      <g transform="translate(95.485767 475.079375)scale(0.25 -0.25)">
       <defs>
        <path d="M 3.609375 32.71875 
Q 3.609375 44.046875 7.03125 52.21875 
Q 10.453125 60.40625 16.109375 64.40625 
Q 20.515625 67.578125 25.203125 67.578125 
Q 32.8125 67.578125 38.875 59.8125 
Q 46.4375 50.203125 46.4375 33.734375 
Q 46.4375 22.21875 43.109375 14.15625 
Q 39.796875 6.109375 34.640625 2.46875 
Q 29.5 -1.171875 24.703125 -1.171875 
Q 15.234375 -1.171875 8.9375 10.015625 
Q 3.609375 19.4375 3.609375 32.71875 
z
M 13.1875 31.5 
Q 13.1875 17.828125 16.546875 9.1875 
Q 19.34375 1.90625 24.859375 1.90625 
Q 27.484375 1.90625 30.3125 4.265625 
Q 33.15625 6.640625 34.625 12.203125 
Q 36.859375 20.609375 36.859375 35.890625 
Q 36.859375 47.21875 34.515625 54.78125 
Q 32.765625 60.40625 29.984375 62.75 
Q 27.984375 64.359375 25.140625 64.359375 
Q 21.828125 64.359375 19.234375 61.375 
Q 15.71875 57.328125 14.453125 48.625 
Q 13.1875 39.9375 13.1875 31.5 
z
" id="TimesNewRomanPSMT-48"/>
        <path d="M 12.5 9.46875 
Q 14.796875 9.46875 16.359375 7.875 
Q 17.921875 6.296875 17.921875 4.046875 
Q 17.921875 1.8125 16.328125 0.21875 
Q 14.75 -1.375 12.5 -1.375 
Q 10.25 -1.375 8.65625 0.21875 
Q 7.078125 1.8125 7.078125 4.046875 
Q 7.078125 6.34375 8.65625 7.90625 
Q 10.25 9.46875 12.5 9.46875 
z
" id="TimesNewRomanPSMT-46"/>
       </defs>
       <use xlink:href="#TimesNewRomanPSMT-48"/>
       <use x="50" xlink:href="#TimesNewRomanPSMT-46"/>
       <use x="75" xlink:href="#TimesNewRomanPSMT-48"/>
      </g>
     </g>
    </g>
    <g id="xtick_2">
     <g id="line2d_2">
      <g>
       <use style="stroke:#000000;stroke-width:0.8;" x="212.565313" xlink:href="#m344159f020" y="450.72"/>
      </g>
     </g>
     <g id="text_2">
      <!-- 0.2 -->
      <g transform="translate(196.940313 475.079375)scale(0.25 -0.25)">
       <defs>
        <path d="M 45.84375 12.75 
L 41.21875 0 
L 2.15625 0 
L 2.15625 1.8125 
Q 19.390625 17.53125 26.421875 27.484375 
Q 33.453125 37.453125 33.453125 45.703125 
Q 33.453125 52 29.59375 56.046875 
Q 25.734375 60.109375 20.359375 60.109375 
Q 15.484375 60.109375 11.59375 57.25 
Q 7.71875 54.390625 5.859375 48.875 
L 4.046875 48.875 
Q 5.28125 57.90625 10.328125 62.734375 
Q 15.375 67.578125 22.953125 67.578125 
Q 31 67.578125 36.390625 62.40625 
Q 41.796875 57.234375 41.796875 50.203125 
Q 41.796875 45.171875 39.453125 40.140625 
Q 35.84375 32.234375 27.734375 23.390625 
Q 15.578125 10.109375 12.546875 7.375 
L 29.828125 7.375 
Q 35.109375 7.375 37.234375 7.765625 
Q 39.359375 8.15625 41.0625 9.34375 
Q 42.78125 10.546875 44.046875 12.75 
z
" id="TimesNewRomanPSMT-50"/>
       </defs>
       <use xlink:href="#TimesNewRomanPSMT-48"/>
       <use x="50" xlink:href="#TimesNewRomanPSMT-46"/>
       <use x="75" xlink:href="#TimesNewRomanPSMT-50"/>
      </g>
     </g>
    </g>
    <g id="xtick_3">
     <g id="line2d_3">
      <g>
       <use style="stroke:#000000;stroke-width:0.8;" x="314.019858" xlink:href="#m344159f020" y="450.72"/>
      </g>
     </g>
     <g id="text_3">
      <!-- 0.4 -->
      <g transform="translate(298.394858 475.079375)scale(0.25 -0.25)">
       <defs>
        <path d="M 46.53125 24.421875 
L 46.53125 17.484375 
L 37.640625 17.484375 
L 37.640625 0 
L 29.59375 0 
L 29.59375 17.484375 
L 1.5625 17.484375 
L 1.5625 23.734375 
L 32.28125 67.578125 
L 37.640625 67.578125 
L 37.640625 24.421875 
z
M 29.59375 24.421875 
L 29.59375 57.28125 
L 6.34375 24.421875 
z
" id="TimesNewRomanPSMT-52"/>
       </defs>
       <use xlink:href="#TimesNewRomanPSMT-48"/>
       <use x="50" xlink:href="#TimesNewRomanPSMT-46"/>
       <use x="75" xlink:href="#TimesNewRomanPSMT-52"/>
      </g>
     </g>
    </g>
    <g id="xtick_4">
     <g id="line2d_4">
      <g>
       <use style="stroke:#000000;stroke-width:0.8;" x="415.474403" xlink:href="#m344159f020" y="450.72"/>
      </g>
     </g>
     <g id="text_4">
      <!-- 0.6 -->
      <g transform="translate(399.849403 475.079375)scale(0.25 -0.25)">
       <defs>
        <path d="M 44.828125 67.578125 
L 44.828125 65.765625 
Q 38.375 65.140625 34.296875 63.203125 
Q 30.21875 61.28125 26.234375 57.328125 
Q 22.265625 53.375 19.65625 48.515625 
Q 17.046875 43.65625 15.28125 36.96875 
Q 22.3125 41.796875 29.390625 41.796875 
Q 36.1875 41.796875 41.15625 36.328125 
Q 46.140625 30.859375 46.140625 22.265625 
Q 46.140625 13.96875 41.109375 7.125 
Q 35.0625 -1.171875 25.09375 -1.171875 
Q 18.3125 -1.171875 13.578125 3.328125 
Q 4.296875 12.0625 4.296875 25.984375 
Q 4.296875 34.859375 7.859375 42.859375 
Q 11.421875 50.875 18.03125 57.078125 
Q 24.65625 63.28125 30.703125 65.421875 
Q 36.765625 67.578125 42 67.578125 
z
M 14.453125 33.40625 
Q 13.578125 26.8125 13.578125 22.75 
Q 13.578125 18.0625 15.3125 12.5625 
Q 17.046875 7.078125 20.453125 3.859375 
Q 22.953125 1.5625 26.515625 1.5625 
Q 30.765625 1.5625 34.109375 5.5625 
Q 37.453125 9.578125 37.453125 17 
Q 37.453125 25.34375 34.125 31.4375 
Q 30.8125 37.546875 24.703125 37.546875 
Q 22.859375 37.546875 20.734375 36.765625 
Q 18.609375 35.984375 14.453125 33.40625 
z
" id="TimesNewRomanPSMT-54"/>
       </defs>
       <use xlink:href="#TimesNewRomanPSMT-48"/>
       <use x="50" xlink:href="#TimesNewRomanPSMT-46"/>
       <use x="75" xlink:href="#TimesNewRomanPSMT-54"/>
      </g>
     </g>
    </g>
    <g id="xtick_5">
     <g id="line2d_5">
      <g>
       <use style="stroke:#000000;stroke-width:0.8;" x="516.928949" xlink:href="#m344159f020" y="450.72"/>
      </g>
     </g>
     <g id="text_5">
      <!-- 0.8 -->
      <g transform="translate(501.303949 475.079375)scale(0.25 -0.25)">
       <defs>
        <path d="M 19.1875 33.34375 
Q 11.328125 39.796875 9.046875 43.703125 
Q 6.78125 47.609375 6.78125 51.8125 
Q 6.78125 58.25 11.765625 62.90625 
Q 16.75 67.578125 25 67.578125 
Q 33.015625 67.578125 37.890625 63.234375 
Q 42.78125 58.890625 42.78125 53.328125 
Q 42.78125 49.609375 40.140625 45.75 
Q 37.5 41.890625 29.15625 36.671875 
Q 37.75 30.03125 40.53125 26.21875 
Q 44.234375 21.234375 44.234375 15.71875 
Q 44.234375 8.734375 38.90625 3.78125 
Q 33.59375 -1.171875 24.953125 -1.171875 
Q 15.53125 -1.171875 10.25 4.734375 
Q 6.0625 9.46875 6.0625 15.09375 
Q 6.0625 19.484375 9.015625 23.796875 
Q 11.96875 28.125 19.1875 33.34375 
z
M 26.859375 38.578125 
Q 32.71875 43.84375 34.28125 46.890625 
Q 35.84375 49.953125 35.84375 53.8125 
Q 35.84375 58.9375 32.953125 61.84375 
Q 30.078125 64.75 25.09375 64.75 
Q 20.125 64.75 17 61.859375 
Q 13.875 58.984375 13.875 55.125 
Q 13.875 52.59375 15.15625 50.046875 
Q 16.453125 47.515625 18.84375 45.21875 
z
M 21.484375 31.5 
Q 17.4375 28.078125 15.484375 24.046875 
Q 13.53125 20.015625 13.53125 15.328125 
Q 13.53125 9.03125 16.96875 5.25 
Q 20.40625 1.46875 25.734375 1.46875 
Q 31 1.46875 34.171875 4.4375 
Q 37.359375 7.421875 37.359375 11.671875 
Q 37.359375 15.1875 35.5 17.96875 
Q 32.03125 23.140625 21.484375 31.5 
z
" id="TimesNewRomanPSMT-56"/>
       </defs>
       <use xlink:href="#TimesNewRomanPSMT-48"/>
       <use x="50" xlink:href="#TimesNewRomanPSMT-46"/>
       <use x="75" xlink:href="#TimesNewRomanPSMT-56"/>
      </g>
     </g>
    </g>
    <g id="xtick_6">
     <g id="line2d_6">
      <g>
       <use style="stroke:#000000;stroke-width:0.8;" x="618.383494" xlink:href="#m344159f020" y="450.72"/>
      </g>
     </g>
     <g id="text_6">
      <!-- 1.0 -->
      <g transform="translate(602.758494 475.079375)scale(0.25 -0.25)">
       <defs>
        <path d="M 11.71875 59.71875 
L 27.828125 67.578125 
L 29.4375 67.578125 
L 29.4375 11.671875 
Q 29.4375 6.109375 29.90625 4.734375 
Q 30.375 3.375 31.828125 2.640625 
Q 33.296875 1.90625 37.796875 1.8125 
L 37.796875 0 
L 12.890625 0 
L 12.890625 1.8125 
Q 17.578125 1.90625 18.9375 2.609375 
Q 20.3125 3.328125 20.84375 4.515625 
Q 21.390625 5.71875 21.390625 11.671875 
L 21.390625 47.40625 
Q 21.390625 54.640625 20.90625 56.6875 
Q 20.5625 58.25 19.65625 58.984375 
Q 18.75 59.71875 17.484375 59.71875 
Q 15.671875 59.71875 12.453125 58.203125 
z
" id="TimesNewRomanPSMT-49"/>
       </defs>
       <use xlink:href="#TimesNewRomanPSMT-49"/>
       <use x="50" xlink:href="#TimesNewRomanPSMT-46"/>
       <use x="75" xlink:href="#TimesNewRomanPSMT-48"/>
      </g>
     </g>
    </g>
    <g id="xtick_7">
     <g id="line2d_7">
      <g>
       <use style="stroke:#000000;stroke-width:0.8;" x="719.83804" xlink:href="#m344159f020" y="450.72"/>
      </g>
     </g>
     <g id="text_7">
      <!-- 1.2 -->
      <g transform="translate(704.21304 475.079375)scale(0.25 -0.25)">
       <use xlink:href="#TimesNewRomanPSMT-49"/>
       <use x="50" xlink:href="#TimesNewRomanPSMT-46"/>
       <use x="75" xlink:href="#TimesNewRomanPSMT-50"/>
      </g>
     </g>
    </g>
    <g id="xtick_8">
     <g id="line2d_8">
      <g>
       <use style="stroke:#000000;stroke-width:0.8;" x="821.292585" xlink:href="#m344159f020" y="450.72"/>
      </g>
     </g>
     <g id="text_8">
      <!-- 1.4 -->
      <g transform="translate(805.667585 475.079375)scale(0.25 -0.25)">
       <use xlink:href="#TimesNewRomanPSMT-49"/>
       <use x="50" xlink:href="#TimesNewRomanPSMT-46"/>
       <use x="75" xlink:href="#TimesNewRomanPSMT-52"/>
      </g>
     </g>
    </g>
    <g id="text_9">
     <!-- Beam Length [m] -->
     <g transform="translate(399.149531 502.480781)scale(0.26 -0.26)">
      <defs>
       <path d="M 46.1875 33.796875 
Q 53.078125 32.328125 56.5 29.109375 
Q 61.234375 24.609375 61.234375 18.109375 
Q 61.234375 13.1875 58.109375 8.671875 
Q 54.984375 4.15625 49.53125 2.078125 
Q 44.09375 0 32.90625 0 
L 1.65625 0 
L 1.65625 1.8125 
L 4.15625 1.8125 
Q 8.296875 1.8125 10.109375 4.4375 
Q 11.234375 6.15625 11.234375 11.71875 
L 11.234375 54.5 
Q 11.234375 60.640625 9.8125 62.25 
Q 7.90625 64.40625 4.15625 64.40625 
L 1.65625 64.40625 
L 1.65625 66.21875 
L 30.28125 66.21875 
Q 38.28125 66.21875 43.109375 65.046875 
Q 50.4375 63.28125 54.296875 58.8125 
Q 58.15625 54.34375 58.15625 48.53125 
Q 58.15625 43.5625 55.125 39.625 
Q 52.09375 35.6875 46.1875 33.796875 
z
M 20.609375 36.421875 
Q 22.40625 36.078125 24.71875 35.90625 
Q 27.046875 35.75 29.828125 35.75 
Q 36.96875 35.75 40.546875 37.28125 
Q 44.140625 38.8125 46.046875 41.984375 
Q 47.953125 45.171875 47.953125 48.921875 
Q 47.953125 54.734375 43.21875 58.828125 
Q 38.484375 62.9375 29.390625 62.9375 
Q 24.515625 62.9375 20.609375 61.859375 
z
M 20.609375 4.78125 
Q 26.265625 3.46875 31.78125 3.46875 
Q 40.625 3.46875 45.265625 7.4375 
Q 49.90625 11.421875 49.90625 17.28125 
Q 49.90625 21.140625 47.796875 24.703125 
Q 45.703125 28.265625 40.96875 30.3125 
Q 36.234375 32.375 29.25 32.375 
Q 26.21875 32.375 24.0625 32.265625 
Q 21.921875 32.171875 20.609375 31.9375 
z
" id="TimesNewRomanPSMT-66"/>
       <path d="M 10.640625 27.875 
Q 10.59375 17.921875 15.484375 12.25 
Q 20.359375 6.59375 26.953125 6.59375 
Q 31.34375 6.59375 34.59375 9 
Q 37.84375 11.421875 40.046875 17.28125 
L 41.546875 16.3125 
Q 40.53125 9.625 35.59375 4.125 
Q 30.671875 -1.375 23.25 -1.375 
Q 15.1875 -1.375 9.453125 4.90625 
Q 3.71875 11.1875 3.71875 21.78125 
Q 3.71875 33.25 9.59375 39.671875 
Q 15.484375 46.09375 24.359375 46.09375 
Q 31.890625 46.09375 36.71875 41.140625 
Q 41.546875 36.1875 41.546875 27.875 
z
M 10.640625 30.71875 
L 31.34375 30.71875 
Q 31.109375 35.015625 30.328125 36.765625 
Q 29.109375 39.5 26.6875 41.0625 
Q 24.265625 42.625 21.625 42.625 
Q 17.578125 42.625 14.375 39.46875 
Q 11.1875 36.328125 10.640625 30.71875 
z
" id="TimesNewRomanPSMT-101"/>
       <path d="M 28.46875 6.453125 
Q 21.578125 1.125 19.828125 0.296875 
Q 17.1875 -0.921875 14.203125 -0.921875 
Q 9.578125 -0.921875 6.5625 2.25 
Q 3.5625 5.421875 3.5625 10.59375 
Q 3.5625 13.875 5.03125 16.265625 
Q 7.03125 19.578125 11.984375 22.5 
Q 16.9375 25.4375 28.46875 29.640625 
L 28.46875 31.390625 
Q 28.46875 38.09375 26.34375 40.578125 
Q 24.21875 43.0625 20.171875 43.0625 
Q 17.09375 43.0625 15.28125 41.40625 
Q 13.421875 39.75 13.421875 37.59375 
L 13.53125 34.765625 
Q 13.53125 32.515625 12.375 31.296875 
Q 11.234375 30.078125 9.375 30.078125 
Q 7.5625 30.078125 6.421875 31.34375 
Q 5.28125 32.625 5.28125 34.8125 
Q 5.28125 39.015625 9.578125 42.53125 
Q 13.875 46.046875 21.625 46.046875 
Q 27.59375 46.046875 31.390625 44.046875 
Q 34.28125 42.53125 35.640625 39.3125 
Q 36.53125 37.203125 36.53125 30.71875 
L 36.53125 15.53125 
Q 36.53125 9.125 36.765625 7.6875 
Q 37.015625 6.25 37.578125 5.765625 
Q 38.140625 5.28125 38.875 5.28125 
Q 39.65625 5.28125 40.234375 5.609375 
Q 41.265625 6.25 44.1875 9.1875 
L 44.1875 6.453125 
Q 38.71875 -0.875 33.734375 -0.875 
Q 31.34375 -0.875 29.921875 0.78125 
Q 28.515625 2.4375 28.46875 6.453125 
z
M 28.46875 9.625 
L 28.46875 26.65625 
Q 21.09375 23.734375 18.953125 22.515625 
Q 15.09375 20.359375 13.421875 18.015625 
Q 11.765625 15.671875 11.765625 12.890625 
Q 11.765625 9.375 13.859375 7.046875 
Q 15.96875 4.734375 18.703125 4.734375 
Q 22.40625 4.734375 28.46875 9.625 
z
" id="TimesNewRomanPSMT-97"/>
       <path d="M 16.40625 36.53125 
Q 21.296875 41.40625 22.171875 42.140625 
Q 24.359375 44 26.890625 45.015625 
Q 29.4375 46.046875 31.9375 46.046875 
Q 36.140625 46.046875 39.15625 43.59375 
Q 42.1875 41.15625 43.21875 36.53125 
Q 48.25 42.390625 51.703125 44.21875 
Q 55.171875 46.046875 58.84375 46.046875 
Q 62.40625 46.046875 65.15625 44.21875 
Q 67.921875 42.390625 69.53125 38.234375 
Q 70.609375 35.40625 70.609375 29.34375 
L 70.609375 10.109375 
Q 70.609375 5.90625 71.234375 4.34375 
Q 71.734375 3.265625 73.046875 2.515625 
Q 74.359375 1.765625 77.34375 1.765625 
L 77.34375 0 
L 55.28125 0 
L 55.28125 1.765625 
L 56.203125 1.765625 
Q 59.078125 1.765625 60.6875 2.875 
Q 61.8125 3.65625 62.3125 5.375 
Q 62.5 6.203125 62.5 10.109375 
L 62.5 29.34375 
Q 62.5 34.8125 61.1875 37.0625 
Q 59.28125 40.1875 55.078125 40.1875 
Q 52.484375 40.1875 49.875 38.890625 
Q 47.265625 37.59375 43.5625 34.078125 
L 43.453125 33.546875 
L 43.5625 31.453125 
L 43.5625 10.109375 
Q 43.5625 5.515625 44.0625 4.390625 
Q 44.578125 3.265625 45.984375 2.515625 
Q 47.40625 1.765625 50.828125 1.765625 
L 50.828125 0 
L 28.21875 0 
L 28.21875 1.765625 
Q 31.9375 1.765625 33.328125 2.640625 
Q 34.71875 3.515625 35.25 5.28125 
Q 35.5 6.109375 35.5 10.109375 
L 35.5 29.34375 
Q 35.5 34.8125 33.890625 37.203125 
Q 31.734375 40.328125 27.875 40.328125 
Q 25.25 40.328125 22.65625 38.921875 
Q 18.609375 36.765625 16.40625 34.078125 
L 16.40625 10.109375 
Q 16.40625 5.71875 17.015625 4.390625 
Q 17.625 3.078125 18.8125 2.421875 
Q 20.015625 1.765625 23.6875 1.765625 
L 23.6875 0 
L 1.5625 0 
L 1.5625 1.765625 
Q 4.640625 1.765625 5.859375 2.421875 
Q 7.078125 3.078125 7.703125 4.515625 
Q 8.34375 5.953125 8.34375 10.109375 
L 8.34375 27.203125 
Q 8.34375 34.578125 7.90625 36.71875 
Q 7.5625 38.328125 6.828125 38.9375 
Q 6.109375 39.546875 4.828125 39.546875 
Q 3.46875 39.546875 1.5625 38.8125 
L 0.828125 40.578125 
L 14.3125 46.046875 
L 16.40625 46.046875 
z
" id="TimesNewRomanPSMT-109"/>
       <path id="TimesNewRomanPSMT-32"/>
       <path d="M 57.328125 18.3125 
L 58.9375 17.96875 
L 53.265625 0 
L 2 0 
L 2 1.8125 
L 4.5 1.8125 
Q 8.6875 1.8125 10.5 4.546875 
Q 11.53125 6.109375 11.53125 11.765625 
L 11.53125 54.5 
Q 11.53125 60.6875 10.15625 62.25 
Q 8.25 64.40625 4.5 64.40625 
L 2 64.40625 
L 2 66.21875 
L 31.984375 66.21875 
L 31.984375 64.40625 
Q 26.703125 64.453125 24.578125 63.421875 
Q 22.46875 62.40625 21.6875 60.84375 
Q 20.90625 59.28125 20.90625 53.375 
L 20.90625 11.765625 
Q 20.90625 7.71875 21.6875 6.203125 
Q 22.265625 5.171875 23.484375 4.6875 
Q 24.703125 4.203125 31.109375 4.203125 
L 35.9375 4.203125 
Q 43.5625 4.203125 46.625 5.328125 
Q 49.703125 6.453125 52.234375 9.296875 
Q 54.78125 12.15625 57.328125 18.3125 
z
" id="TimesNewRomanPSMT-76"/>
       <path d="M 16.15625 36.578125 
Q 24.03125 46.046875 31.15625 46.046875 
Q 34.8125 46.046875 37.453125 44.21875 
Q 40.09375 42.390625 41.65625 38.1875 
Q 42.71875 35.25 42.71875 29.203125 
L 42.71875 10.109375 
Q 42.71875 5.859375 43.40625 4.34375 
Q 43.953125 3.125 45.140625 2.4375 
Q 46.34375 1.765625 49.5625 1.765625 
L 49.5625 0 
L 27.4375 0 
L 27.4375 1.765625 
L 28.375 1.765625 
Q 31.5 1.765625 32.734375 2.703125 
Q 33.984375 3.65625 34.46875 5.515625 
Q 34.671875 6.25 34.671875 10.109375 
L 34.671875 28.421875 
Q 34.671875 34.515625 33.078125 37.28125 
Q 31.5 40.046875 27.734375 40.046875 
Q 21.921875 40.046875 16.15625 33.6875 
L 16.15625 10.109375 
Q 16.15625 5.5625 16.703125 4.5 
Q 17.390625 3.078125 18.578125 2.421875 
Q 19.78125 1.765625 23.4375 1.765625 
L 23.4375 0 
L 1.3125 0 
L 1.3125 1.765625 
L 2.296875 1.765625 
Q 5.71875 1.765625 6.90625 3.484375 
Q 8.109375 5.21875 8.109375 10.109375 
L 8.109375 26.703125 
Q 8.109375 34.765625 7.734375 36.515625 
Q 7.375 38.28125 6.609375 38.90625 
Q 5.859375 39.546875 4.59375 39.546875 
Q 3.21875 39.546875 1.3125 38.8125 
L 0.59375 40.578125 
L 14.0625 46.046875 
L 16.15625 46.046875 
z
" id="TimesNewRomanPSMT-110"/>
       <path d="M 15.09375 16.3125 
Q 10.984375 18.3125 8.78125 21.890625 
Q 6.59375 25.484375 6.59375 29.828125 
Q 6.59375 36.46875 11.59375 41.25 
Q 16.609375 46.046875 24.421875 46.046875 
Q 30.8125 46.046875 35.5 42.921875 
L 44.96875 42.921875 
Q 47.078125 42.921875 47.40625 42.796875 
Q 47.75 42.671875 47.90625 42.390625 
Q 48.1875 41.9375 48.1875 40.828125 
Q 48.1875 39.546875 47.953125 39.0625 
Q 47.796875 38.8125 47.4375 38.671875 
Q 47.078125 38.53125 44.96875 38.53125 
L 39.15625 38.53125 
Q 41.890625 35.015625 41.890625 29.546875 
Q 41.890625 23.296875 37.109375 18.84375 
Q 32.328125 14.40625 24.265625 14.40625 
Q 20.953125 14.40625 17.484375 15.375 
Q 15.328125 13.53125 14.5625 12.140625 
Q 13.8125 10.75 13.8125 9.765625 
Q 13.8125 8.9375 14.625 8.15625 
Q 15.4375 7.375 17.78125 7.03125 
Q 19.140625 6.84375 24.609375 6.6875 
Q 34.671875 6.453125 37.640625 6 
Q 42.1875 5.375 44.890625 2.640625 
Q 47.609375 -0.09375 47.609375 -4.109375 
Q 47.609375 -9.625 42.4375 -14.453125 
Q 34.8125 -21.578125 22.5625 -21.578125 
Q 13.140625 -21.578125 6.640625 -17.328125 
Q 2.984375 -14.890625 2.984375 -12.25 
Q 2.984375 -11.078125 3.515625 -9.90625 
Q 4.34375 -8.109375 6.9375 -4.890625 
Q 7.28125 -4.4375 11.921875 0.390625 
Q 9.375 1.90625 8.328125 3.09375 
Q 7.28125 4.296875 7.28125 5.8125 
Q 7.28125 7.515625 8.671875 9.8125 
Q 10.0625 12.109375 15.09375 16.3125 
z
M 23.578125 43.703125 
Q 19.96875 43.703125 17.53125 40.8125 
Q 15.09375 37.9375 15.09375 31.984375 
Q 15.09375 24.265625 18.40625 20.015625 
Q 20.953125 16.796875 24.859375 16.796875 
Q 28.5625 16.796875 30.953125 19.578125 
Q 33.34375 22.359375 33.34375 28.328125 
Q 33.34375 36.078125 29.984375 40.484375 
Q 27.484375 43.703125 23.578125 43.703125 
z
M 14.59375 0 
Q 12.3125 -2.484375 11.140625 -4.625 
Q 9.96875 -6.78125 9.96875 -8.59375 
Q 9.96875 -10.9375 12.796875 -12.703125 
Q 17.671875 -15.71875 26.90625 -15.71875 
Q 35.6875 -15.71875 39.859375 -12.609375 
Q 44.046875 -9.515625 44.046875 -6 
Q 44.046875 -3.46875 41.546875 -2.390625 
Q 39.015625 -1.3125 31.5 -1.125 
Q 20.515625 -0.828125 14.59375 0 
z
" id="TimesNewRomanPSMT-103"/>
       <path d="M 16.109375 59.421875 
L 16.109375 44.734375 
L 26.5625 44.734375 
L 26.5625 41.3125 
L 16.109375 41.3125 
L 16.109375 12.3125 
Q 16.109375 7.953125 17.359375 6.4375 
Q 18.609375 4.9375 20.5625 4.9375 
Q 22.171875 4.9375 23.6875 5.9375 
Q 25.203125 6.9375 26.03125 8.890625 
L 27.9375 8.890625 
Q 26.21875 4.109375 23.09375 1.6875 
Q 19.96875 -0.734375 16.65625 -0.734375 
Q 14.40625 -0.734375 12.25 0.515625 
Q 10.109375 1.765625 9.078125 4.078125 
Q 8.0625 6.390625 8.0625 11.234375 
L 8.0625 41.3125 
L 0.984375 41.3125 
L 0.984375 42.921875 
Q 3.65625 44 6.46875 46.5625 
Q 9.28125 49.125 11.46875 52.640625 
Q 12.59375 54.5 14.59375 59.421875 
z
" id="TimesNewRomanPSMT-116"/>
       <path d="M 16.265625 69.4375 
L 16.265625 36.71875 
Q 21.6875 42.671875 24.859375 44.359375 
Q 28.03125 46.046875 31.203125 46.046875 
Q 35.015625 46.046875 37.75 43.9375 
Q 40.484375 41.84375 41.796875 37.359375 
Q 42.71875 34.234375 42.71875 25.921875 
L 42.71875 10.109375 
Q 42.71875 5.859375 43.40625 4.296875 
Q 43.890625 3.125 45.0625 2.4375 
Q 46.234375 1.765625 49.359375 1.765625 
L 49.359375 0 
L 27.390625 0 
L 27.390625 1.765625 
L 28.421875 1.765625 
Q 31.546875 1.765625 32.765625 2.703125 
Q 33.984375 3.65625 34.46875 5.515625 
Q 34.625 6.296875 34.625 10.109375 
L 34.625 25.921875 
Q 34.625 33.25 33.859375 35.546875 
Q 33.109375 37.84375 31.4375 38.984375 
Q 29.78125 40.140625 27.4375 40.140625 
Q 25.046875 40.140625 22.453125 38.859375 
Q 19.875 37.59375 16.265625 33.734375 
L 16.265625 10.109375 
Q 16.265625 5.515625 16.765625 4.390625 
Q 17.28125 3.265625 18.671875 2.515625 
Q 20.0625 1.765625 23.484375 1.765625 
L 23.484375 0 
L 1.3125 0 
L 1.3125 1.765625 
Q 4.296875 1.765625 6 2.6875 
Q 6.984375 3.171875 7.5625 4.53125 
Q 8.15625 5.90625 8.15625 10.109375 
L 8.15625 50.59375 
Q 8.15625 58.25 7.78125 60 
Q 7.421875 61.765625 6.65625 62.390625 
Q 5.90625 63.03125 4.640625 63.03125 
Q 3.609375 63.03125 1.3125 62.25 
L 0.640625 63.96875 
L 14.015625 69.4375 
z
" id="TimesNewRomanPSMT-104"/>
       <path d="M 29.6875 -19.828125 
L 8.203125 -19.828125 
L 8.203125 67.71875 
L 29.6875 67.71875 
L 29.6875 63.875 
L 15.53125 63.875 
L 15.53125 -16.015625 
L 29.6875 -16.015625 
z
" id="TimesNewRomanPSMT-91"/>
       <path d="M 3.65625 67.71875 
L 25.140625 67.71875 
L 25.140625 -19.875 
L 3.65625 -19.875 
L 3.65625 -16.015625 
L 17.828125 -16.015625 
L 17.828125 63.875 
L 3.65625 63.875 
z
" id="TimesNewRomanPSMT-93"/>
      </defs>
      <use xlink:href="#TimesNewRomanPSMT-66"/>
      <use x="66.699219" xlink:href="#TimesNewRomanPSMT-101"/>
      <use x="111.083984" xlink:href="#TimesNewRomanPSMT-97"/>
      <use x="155.46875" xlink:href="#TimesNewRomanPSMT-109"/>
      <use x="233.251953" xlink:href="#TimesNewRomanPSMT-32"/>
      <use x="258.251953" xlink:href="#TimesNewRomanPSMT-76"/>
      <use x="319.335938" xlink:href="#TimesNewRomanPSMT-101"/>
      <use x="363.720703" xlink:href="#TimesNewRomanPSMT-110"/>
      <use x="413.720703" xlink:href="#TimesNewRomanPSMT-103"/>
      <use x="463.720703" xlink:href="#TimesNewRomanPSMT-116"/>
      <use x="491.503906" xlink:href="#TimesNewRomanPSMT-104"/>
      <use x="541.503906" xlink:href="#TimesNewRomanPSMT-32"/>
      <use x="566.503906" xlink:href="#TimesNewRomanPSMT-91"/>
      <use x="599.804688" xlink:href="#TimesNewRomanPSMT-109"/>
      <use x="677.587891" xlink:href="#TimesNewRomanPSMT-93"/>
     </g>
    </g>
   </g>
   <g id="matplotlib.axis_2">
    <g id="ytick_1">
     <g id="line2d_9">
      <defs>
       <path d="M 0 0 
L -3.5 0 
" id="m7134dcee87" style="stroke:#000000;stroke-width:0.8;"/>
      </defs>
      <g>
       <use style="stroke:#000000;stroke-width:0.8;" x="73.065313" xlink:href="#m7134dcee87" y="430.56"/>
      </g>
     </g>
     <g id="text_10">
      <!-- 0.0 -->
      <g transform="translate(34.815313 439.239687)scale(0.25 -0.25)">
       <use xlink:href="#TimesNewRomanPSMT-48"/>
       <use x="50" xlink:href="#TimesNewRomanPSMT-46"/>
       <use x="75" xlink:href="#TimesNewRomanPSMT-48"/>
      </g>
     </g>
    </g>
    <g id="ytick_2">
     <g id="line2d_10">
      <g>
       <use style="stroke:#000000;stroke-width:0.8;" x="73.065313" xlink:href="#m7134dcee87" y="358.8282"/>
      </g>
     </g>
     <g id="text_11">
      <!-- 0.5 -->
      <g transform="translate(34.815313 367.507888)scale(0.25 -0.25)">
       <defs>
        <path d="M 43.40625 66.21875 
L 39.59375 57.90625 
L 19.671875 57.90625 
L 15.328125 49.03125 
Q 28.265625 47.125 35.84375 39.40625 
Q 42.328125 32.765625 42.328125 23.78125 
Q 42.328125 18.5625 40.203125 14.109375 
Q 38.09375 9.671875 34.859375 6.546875 
Q 31.640625 3.421875 27.6875 1.515625 
Q 22.078125 -1.171875 16.15625 -1.171875 
Q 10.203125 -1.171875 7.484375 0.84375 
Q 4.78125 2.875 4.78125 5.328125 
Q 4.78125 6.6875 5.90625 7.734375 
Q 7.03125 8.796875 8.734375 8.796875 
Q 10.015625 8.796875 10.96875 8.40625 
Q 11.921875 8.015625 14.203125 6.390625 
Q 17.875 3.859375 21.625 3.859375 
Q 27.34375 3.859375 31.65625 8.171875 
Q 35.984375 12.5 35.984375 18.703125 
Q 35.984375 24.703125 32.125 29.90625 
Q 28.265625 35.109375 21.484375 37.9375 
Q 16.15625 40.140625 6.984375 40.484375 
L 19.671875 66.21875 
z
" id="TimesNewRomanPSMT-53"/>
       </defs>
       <use xlink:href="#TimesNewRomanPSMT-48"/>
       <use x="50" xlink:href="#TimesNewRomanPSMT-46"/>
       <use x="75" xlink:href="#TimesNewRomanPSMT-53"/>
      </g>
     </g>
    </g>
    <g id="ytick_3">
     <g id="line2d_11">
      <g>
       <use style="stroke:#000000;stroke-width:0.8;" x="73.065313" xlink:href="#m7134dcee87" y="287.0964"/>
      </g>
     </g>
     <g id="text_12">
      <!-- 1.0 -->
      <g transform="translate(34.815313 295.776088)scale(0.25 -0.25)">
       <use xlink:href="#TimesNewRomanPSMT-49"/>
       <use x="50" xlink:href="#TimesNewRomanPSMT-46"/>
       <use x="75" xlink:href="#TimesNewRomanPSMT-48"/>
      </g>
     </g>
    </g>
    <g id="ytick_4">
     <g id="line2d_12">
      <g>
       <use style="stroke:#000000;stroke-width:0.8;" x="73.065313" xlink:href="#m7134dcee87" y="215.3646"/>
      </g>
     </g>
     <g id="text_13">
      <!-- 1.5 -->
      <g transform="translate(34.815313 224.044288)scale(0.25 -0.25)">
       <use xlink:href="#TimesNewRomanPSMT-49"/>
       <use x="50" xlink:href="#TimesNewRomanPSMT-46"/>
       <use x="75" xlink:href="#TimesNewRomanPSMT-53"/>
      </g>
     </g>
    </g>
    <g id="ytick_5">
     <g id="line2d_13">
      <g>
       <use style="stroke:#000000;stroke-width:0.8;" x="73.065313" xlink:href="#m7134dcee87" y="143.6328"/>
      </g>
     </g>
     <g id="text_14">
      <!-- 2.0 -->
      <g transform="translate(34.815313 152.312488)scale(0.25 -0.25)">
       <use xlink:href="#TimesNewRomanPSMT-50"/>
       <use x="50" xlink:href="#TimesNewRomanPSMT-46"/>
       <use x="75" xlink:href="#TimesNewRomanPSMT-48"/>
      </g>
     </g>
    </g>
    <g id="ytick_6">
     <g id="line2d_14">
      <g>
       <use style="stroke:#000000;stroke-width:0.8;" x="73.065313" xlink:href="#m7134dcee87" y="71.901"/>
      </g>
     </g>
     <g id="text_15">
      <!-- 2.5 -->
      <g transform="translate(34.815313 80.580688)scale(0.25 -0.25)">
       <use xlink:href="#TimesNewRomanPSMT-50"/>
       <use x="50" xlink:href="#TimesNewRomanPSMT-46"/>
       <use x="75" xlink:href="#TimesNewRomanPSMT-53"/>
      </g>
     </g>
    </g>
    <g id="text_16">
     <!-- Amplitude -->
     <g transform="translate(25.25375 284.565469)rotate(-90)scale(0.26 -0.26)">
      <defs>
       <path d="M 45.75 22.171875 
L 20.125 22.171875 
L 15.625 11.71875 
Q 13.96875 7.859375 13.96875 5.953125 
Q 13.96875 4.4375 15.40625 3.296875 
Q 16.84375 2.15625 21.625 1.8125 
L 21.625 0 
L 0.78125 0 
L 0.78125 1.8125 
Q 4.9375 2.546875 6.15625 3.71875 
Q 8.640625 6.0625 11.671875 13.234375 
L 34.96875 67.71875 
L 36.671875 67.71875 
L 59.71875 12.640625 
Q 62.5 6 64.765625 4.015625 
Q 67.046875 2.046875 71.09375 1.8125 
L 71.09375 0 
L 44.96875 0 
L 44.96875 1.8125 
Q 48.921875 2 50.3125 3.125 
Q 51.703125 4.25 51.703125 5.859375 
Q 51.703125 8.015625 49.75 12.640625 
z
M 44.390625 25.78125 
L 33.15625 52.546875 
L 21.625 25.78125 
z
" id="TimesNewRomanPSMT-65"/>
       <path d="M -0.09375 40.28125 
L 13.671875 45.84375 
L 15.53125 45.84375 
L 15.53125 35.40625 
Q 19 41.3125 22.484375 43.671875 
Q 25.984375 46.046875 29.828125 46.046875 
Q 36.578125 46.046875 41.0625 40.765625 
Q 46.578125 34.328125 46.578125 23.96875 
Q 46.578125 12.40625 39.9375 4.828125 
Q 34.46875 -1.375 26.171875 -1.375 
Q 22.5625 -1.375 19.921875 -0.34375 
Q 17.96875 0.390625 15.53125 2.59375 
L 15.53125 -11.03125 
Q 15.53125 -15.625 16.09375 -16.859375 
Q 16.65625 -18.109375 18.046875 -18.84375 
Q 19.4375 -19.578125 23.09375 -19.578125 
L 23.09375 -21.390625 
L -0.34375 -21.390625 
L -0.34375 -19.578125 
L 0.875 -19.578125 
Q 3.5625 -19.625 5.46875 -18.5625 
Q 6.390625 -18.015625 6.90625 -16.8125 
Q 7.421875 -15.625 7.421875 -10.75 
L 7.421875 31.546875 
Q 7.421875 35.890625 7.03125 37.0625 
Q 6.640625 38.234375 5.78125 38.8125 
Q 4.9375 39.40625 3.46875 39.40625 
Q 2.296875 39.40625 0.484375 38.71875 
z
M 15.53125 32.515625 
L 15.53125 15.828125 
Q 15.53125 10.40625 15.96875 8.6875 
Q 16.65625 5.859375 19.3125 3.703125 
Q 21.96875 1.5625 26.03125 1.5625 
Q 30.90625 1.5625 33.9375 5.375 
Q 37.890625 10.359375 37.890625 19.390625 
Q 37.890625 29.640625 33.40625 35.15625 
Q 30.28125 38.96875 25.984375 38.96875 
Q 23.640625 38.96875 21.34375 37.796875 
Q 19.578125 36.921875 15.53125 32.515625 
z
" id="TimesNewRomanPSMT-112"/>
       <path d="M 18.5 69.4375 
L 18.5 10.109375 
Q 18.5 5.90625 19.109375 4.53125 
Q 19.734375 3.171875 21 2.46875 
Q 22.265625 1.765625 25.734375 1.765625 
L 25.734375 0 
L 3.8125 0 
L 3.8125 1.765625 
Q 6.890625 1.765625 8 2.390625 
Q 9.125 3.03125 9.765625 4.484375 
Q 10.40625 5.953125 10.40625 10.109375 
L 10.40625 50.734375 
Q 10.40625 58.296875 10.0625 60.03125 
Q 9.71875 61.765625 8.953125 62.390625 
Q 8.203125 63.03125 7.03125 63.03125 
Q 5.765625 63.03125 3.8125 62.25 
L 2.984375 63.96875 
L 16.3125 69.4375 
z
" id="TimesNewRomanPSMT-108"/>
       <path d="M 14.5 69.4375 
Q 16.546875 69.4375 17.984375 67.984375 
Q 19.4375 66.546875 19.4375 64.5 
Q 19.4375 62.453125 17.984375 60.984375 
Q 16.546875 59.515625 14.5 59.515625 
Q 12.453125 59.515625 10.984375 60.984375 
Q 9.515625 62.453125 9.515625 64.5 
Q 9.515625 66.546875 10.953125 67.984375 
Q 12.40625 69.4375 14.5 69.4375 
z
M 18.5625 46.046875 
L 18.5625 10.109375 
Q 18.5625 5.90625 19.171875 4.515625 
Q 19.78125 3.125 20.96875 2.4375 
Q 22.171875 1.765625 25.34375 1.765625 
L 25.34375 0 
L 3.609375 0 
L 3.609375 1.765625 
Q 6.890625 1.765625 8 2.390625 
Q 9.125 3.03125 9.78125 4.484375 
Q 10.453125 5.953125 10.453125 10.109375 
L 10.453125 27.34375 
Q 10.453125 34.625 10.015625 36.765625 
Q 9.671875 38.328125 8.9375 38.9375 
Q 8.203125 39.546875 6.9375 39.546875 
Q 5.5625 39.546875 3.609375 38.8125 
L 2.9375 40.578125 
L 16.40625 46.046875 
z
" id="TimesNewRomanPSMT-105"/>
       <path d="M 42.328125 44.734375 
L 42.328125 17.625 
Q 42.328125 9.859375 42.6875 8.125 
Q 43.0625 6.390625 43.859375 5.703125 
Q 44.671875 5.03125 45.75 5.03125 
Q 47.265625 5.03125 49.171875 5.859375 
L 49.859375 4.15625 
L 36.46875 -1.375 
L 34.28125 -1.375 
L 34.28125 8.109375 
Q 28.515625 1.859375 25.484375 0.234375 
Q 22.46875 -1.375 19.09375 -1.375 
Q 15.328125 -1.375 12.5625 0.796875 
Q 9.8125 2.984375 8.734375 6.390625 
Q 7.671875 9.8125 7.671875 16.0625 
L 7.671875 36.03125 
Q 7.671875 39.203125 6.984375 40.421875 
Q 6.296875 41.65625 4.953125 42.3125 
Q 3.609375 42.96875 0.09375 42.921875 
L 0.09375 44.734375 
L 15.765625 44.734375 
L 15.765625 14.796875 
Q 15.765625 8.546875 17.9375 6.59375 
Q 20.125 4.640625 23.1875 4.640625 
Q 25.296875 4.640625 27.953125 5.953125 
Q 30.609375 7.28125 34.28125 10.984375 
L 34.28125 36.328125 
Q 34.28125 40.140625 32.890625 41.484375 
Q 31.5 42.828125 27.09375 42.921875 
L 27.09375 44.734375 
z
" id="TimesNewRomanPSMT-117"/>
       <path d="M 34.71875 5.03125 
Q 31.453125 1.609375 28.328125 0.109375 
Q 25.203125 -1.375 21.578125 -1.375 
Q 14.265625 -1.375 8.796875 4.75 
Q 3.328125 10.890625 3.328125 20.515625 
Q 3.328125 30.125 9.375 38.109375 
Q 15.4375 46.09375 24.953125 46.09375 
Q 30.859375 46.09375 34.71875 42.328125 
L 34.71875 50.59375 
Q 34.71875 58.25 34.34375 60 
Q 33.984375 61.765625 33.203125 62.390625 
Q 32.421875 63.03125 31.25 63.03125 
Q 29.984375 63.03125 27.875 62.25 
L 27.25 63.96875 
L 40.578125 69.4375 
L 42.78125 69.4375 
L 42.78125 17.71875 
Q 42.78125 9.859375 43.140625 8.125 
Q 43.5 6.390625 44.3125 5.703125 
Q 45.125 5.03125 46.1875 5.03125 
Q 47.515625 5.03125 49.703125 5.859375 
L 50.25 4.15625 
L 36.96875 -1.375 
L 34.71875 -1.375 
z
M 34.71875 8.453125 
L 34.71875 31.5 
Q 34.421875 34.8125 32.953125 37.546875 
Q 31.5 40.28125 29.078125 41.671875 
Q 26.65625 43.0625 24.359375 43.0625 
Q 20.0625 43.0625 16.703125 39.203125 
Q 12.25 34.125 12.25 24.359375 
Q 12.25 14.5 16.546875 9.25 
Q 20.84375 4 26.125 4 
Q 30.5625 4 34.71875 8.453125 
z
" id="TimesNewRomanPSMT-100"/>
      </defs>
      <use xlink:href="#TimesNewRomanPSMT-65"/>
      <use x="72.216797" xlink:href="#TimesNewRomanPSMT-109"/>
      <use x="150" xlink:href="#TimesNewRomanPSMT-112"/>
      <use x="200" xlink:href="#TimesNewRomanPSMT-108"/>
      <use x="227.783203" xlink:href="#TimesNewRomanPSMT-105"/>
      <use x="255.566406" xlink:href="#TimesNewRomanPSMT-116"/>
      <use x="283.349609" xlink:href="#TimesNewRomanPSMT-117"/>
      <use x="333.349609" xlink:href="#TimesNewRomanPSMT-100"/>
      <use x="383.349609" xlink:href="#TimesNewRomanPSMT-101"/>
     </g>
    </g>
   </g>
   <g id="line2d_15">
    <defs>
     <path d="M 0 -3 
L -3 3 
L 3 3 
z
" id="m3ff41e2797" style="stroke:#000000;stroke-linejoin:miter;"/>
    </defs>
    <g clip-path="url(#p116246bb0c)">
     <use style="stroke:#000000;stroke-linejoin:miter;" x="111.110767" xlink:href="#m3ff41e2797" y="430.56"/>
     <use style="stroke:#000000;stroke-linejoin:miter;" x="116.183494" xlink:href="#m3ff41e2797" y="430.028336"/>
     <use style="stroke:#000000;stroke-linejoin:miter;" x="121.256222" xlink:href="#m3ff41e2797" y="428.48523"/>
     <use style="stroke:#000000;stroke-linejoin:miter;" x="126.328949" xlink:href="#m3ff41e2797" y="426.003957"/>
     <use style="stroke:#000000;stroke-linejoin:miter;" x="131.401676" xlink:href="#m3ff41e2797" y="422.658037"/>
     <use style="stroke:#000000;stroke-linejoin:miter;" x="136.474403" xlink:href="#m3ff41e2797" y="418.520811"/>
     <use style="stroke:#000000;stroke-linejoin:miter;" x="141.547131" xlink:href="#m3ff41e2797" y="413.665056"/>
     <use style="stroke:#000000;stroke-linejoin:miter;" x="146.619858" xlink:href="#m3ff41e2797" y="408.162663"/>
     <use style="stroke:#000000;stroke-linejoin:miter;" x="151.692585" xlink:href="#m3ff41e2797" y="402.084301"/>
     <use style="stroke:#000000;stroke-linejoin:miter;" x="156.765313" xlink:href="#m3ff41e2797" y="395.499132"/>
     <use style="stroke:#000000;stroke-linejoin:miter;" x="161.83804" xlink:href="#m3ff41e2797" y="388.474601"/>
     <use style="stroke:#000000;stroke-linejoin:miter;" x="166.910767" xlink:href="#m3ff41e2797" y="381.076187"/>
     <use style="stroke:#000000;stroke-linejoin:miter;" x="171.983494" xlink:href="#m3ff41e2797" y="373.367209"/>
     <use style="stroke:#000000;stroke-linejoin:miter;" x="177.056222" xlink:href="#m3ff41e2797" y="365.408692"/>
     <use style="stroke:#000000;stroke-linejoin:miter;" x="182.128949" xlink:href="#m3ff41e2797" y="357.259226"/>
     <use style="stroke:#000000;stroke-linejoin:miter;" x="187.201676" xlink:href="#m3ff41e2797" y="348.97483"/>
     <use style="stroke:#000000;stroke-linejoin:miter;" x="192.274403" xlink:href="#m3ff41e2797" y="340.608887"/>
     <use style="stroke:#000000;stroke-linejoin:miter;" x="197.347131" xlink:href="#m3ff41e2797" y="332.212031"/>
     <use style="stroke:#000000;stroke-linejoin:miter;" x="202.419858" xlink:href="#m3ff41e2797" y="323.832176"/>
     <use style="stroke:#000000;stroke-linejoin:miter;" x="207.492585" xlink:href="#m3ff41e2797" y="315.51441"/>
     <use style="stroke:#000000;stroke-linejoin:miter;" x="212.565313" xlink:href="#m3ff41e2797" y="307.301002"/>
     <use style="stroke:#000000;stroke-linejoin:miter;" x="217.63804" xlink:href="#m3ff41e2797" y="299.231394"/>
     <use style="stroke:#000000;stroke-linejoin:miter;" x="222.710767" xlink:href="#m3ff41e2797" y="291.342248"/>
     <use style="stroke:#000000;stroke-linejoin:miter;" x="227.783494" xlink:href="#m3ff41e2797" y="283.667386"/>
     <use style="stroke:#000000;stroke-linejoin:miter;" x="232.856222" xlink:href="#m3ff41e2797" y="276.237977"/>
     <use style="stroke:#000000;stroke-linejoin:miter;" x="237.928949" xlink:href="#m3ff41e2797" y="269.082208"/>
     <use style="stroke:#000000;stroke-linejoin:miter;" x="243.001676" xlink:href="#m3ff41e2797" y="262.226012"/>
     <use style="stroke:#000000;stroke-linejoin:miter;" x="248.074403" xlink:href="#m3ff41e2797" y="255.692514"/>
     <use style="stroke:#000000;stroke-linejoin:miter;" x="253.147131" xlink:href="#m3ff41e2797" y="249.502094"/>
     <use style="stroke:#000000;stroke-linejoin:miter;" x="258.219858" xlink:href="#m3ff41e2797" y="243.673113"/>
     <use style="stroke:#000000;stroke-linejoin:miter;" x="263.292585" xlink:href="#m3ff41e2797" y="238.221049"/>
     <use style="stroke:#000000;stroke-linejoin:miter;" x="268.365313" xlink:href="#m3ff41e2797" y="233.159495"/>
     <use style="stroke:#000000;stroke-linejoin:miter;" x="273.43804" xlink:href="#m3ff41e2797" y="228.499467"/>
     <use style="stroke:#000000;stroke-linejoin:miter;" x="278.510767" xlink:href="#m3ff41e2797" y="224.250061"/>
     <use style="stroke:#000000;stroke-linejoin:miter;" x="283.583494" xlink:href="#m3ff41e2797" y="220.418407"/>
     <use style="stroke:#000000;stroke-linejoin:miter;" x="288.656222" xlink:href="#m3ff41e2797" y="217.009267"/>
     <use style="stroke:#000000;stroke-linejoin:miter;" x="293.728949" xlink:href="#m3ff41e2797" y="214.02587"/>
     <use style="stroke:#000000;stroke-linejoin:miter;" x="298.801676" xlink:href="#m3ff41e2797" y="211.469506"/>
     <use style="stroke:#000000;stroke-linejoin:miter;" x="303.874403" xlink:href="#m3ff41e2797" y="209.339789"/>
     <use style="stroke:#000000;stroke-linejoin:miter;" x="308.947131" xlink:href="#m3ff41e2797" y="207.634839"/>
     <use style="stroke:#000000;stroke-linejoin:miter;" x="314.019858" xlink:href="#m3ff41e2797" y="206.350926"/>
     <use style="stroke:#000000;stroke-linejoin:miter;" x="319.092585" xlink:href="#m3ff41e2797" y="205.483287"/>
     <use style="stroke:#000000;stroke-linejoin:miter;" x="324.165313" xlink:href="#m3ff41e2797" y="205.025595"/>
     <use style="stroke:#000000;stroke-linejoin:miter;" x="329.23804" xlink:href="#m3ff41e2797" y="204.970175"/>
     <use style="stroke:#000000;stroke-linejoin:miter;" x="334.310767" xlink:href="#m3ff41e2797" y="205.308505"/>
     <use style="stroke:#000000;stroke-linejoin:miter;" x="339.383494" xlink:href="#m3ff41e2797" y="206.0305"/>
     <use style="stroke:#000000;stroke-linejoin:miter;" x="344.456222" xlink:href="#m3ff41e2797" y="207.125443"/>
     <use style="stroke:#000000;stroke-linejoin:miter;" x="349.528949" xlink:href="#m3ff41e2797" y="208.581641"/>
     <use style="stroke:#000000;stroke-linejoin:miter;" x="354.601676" xlink:href="#m3ff41e2797" y="210.386198"/>
     <use style="stroke:#000000;stroke-linejoin:miter;" x="359.674403" xlink:href="#m3ff41e2797" y="212.525829"/>
     <use style="stroke:#000000;stroke-linejoin:miter;" x="364.747131" xlink:href="#m3ff41e2797" y="214.986344"/>
     <use style="stroke:#000000;stroke-linejoin:miter;" x="369.819858" xlink:href="#m3ff41e2797" y="217.752968"/>
     <use style="stroke:#000000;stroke-linejoin:miter;" x="374.892585" xlink:href="#m3ff41e2797" y="220.810235"/>
     <use style="stroke:#000000;stroke-linejoin:miter;" x="379.965313" xlink:href="#m3ff41e2797" y="224.142335"/>
     <use style="stroke:#000000;stroke-linejoin:miter;" x="385.03804" xlink:href="#m3ff41e2797" y="227.732898"/>
     <use style="stroke:#000000;stroke-linejoin:miter;" x="390.110767" xlink:href="#m3ff41e2797" y="231.565127"/>
     <use style="stroke:#000000;stroke-linejoin:miter;" x="395.183494" xlink:href="#m3ff41e2797" y="235.622062"/>
     <use style="stroke:#000000;stroke-linejoin:miter;" x="400.256222" xlink:href="#m3ff41e2797" y="239.886145"/>
     <use style="stroke:#000000;stroke-linejoin:miter;" x="405.328949" xlink:href="#m3ff41e2797" y="244.34013"/>
     <use style="stroke:#000000;stroke-linejoin:miter;" x="410.401676" xlink:href="#m3ff41e2797" y="248.965999"/>
     <use style="stroke:#000000;stroke-linejoin:miter;" x="415.474403" xlink:href="#m3ff41e2797" y="253.745977"/>
     <use style="stroke:#000000;stroke-linejoin:miter;" x="420.547131" xlink:href="#m3ff41e2797" y="258.66213"/>
     <use style="stroke:#000000;stroke-linejoin:miter;" x="425.619858" xlink:href="#m3ff41e2797" y="263.69644"/>
     <use style="stroke:#000000;stroke-linejoin:miter;" x="430.692585" xlink:href="#m3ff41e2797" y="268.83093"/>
     <use style="stroke:#000000;stroke-linejoin:miter;" x="435.765312" xlink:href="#m3ff41e2797" y="274.04774"/>
     <use style="stroke:#000000;stroke-linejoin:miter;" x="440.83804" xlink:href="#m3ff41e2797" y="279.328951"/>
     <use style="stroke:#000000;stroke-linejoin:miter;" x="445.910767" xlink:href="#m3ff41e2797" y="284.656945"/>
     <use style="stroke:#000000;stroke-linejoin:miter;" x="450.983494" xlink:href="#m3ff41e2797" y="290.01412"/>
     <use style="stroke:#000000;stroke-linejoin:miter;" x="456.056222" xlink:href="#m3ff41e2797" y="295.383145"/>
     <use style="stroke:#000000;stroke-linejoin:miter;" x="461.128949" xlink:href="#m3ff41e2797" y="300.746904"/>
     <use style="stroke:#000000;stroke-linejoin:miter;" x="466.201676" xlink:href="#m3ff41e2797" y="306.088513"/>
     <use style="stroke:#000000;stroke-linejoin:miter;" x="471.274403" xlink:href="#m3ff41e2797" y="311.391401"/>
     <use style="stroke:#000000;stroke-linejoin:miter;" x="476.347131" xlink:href="#m3ff41e2797" y="316.639285"/>
     <use style="stroke:#000000;stroke-linejoin:miter;" x="481.419858" xlink:href="#m3ff41e2797" y="321.816241"/>
     <use style="stroke:#000000;stroke-linejoin:miter;" x="486.492585" xlink:href="#m3ff41e2797" y="326.90666"/>
     <use style="stroke:#000000;stroke-linejoin:miter;" x="491.565313" xlink:href="#m3ff41e2797" y="331.895377"/>
     <use style="stroke:#000000;stroke-linejoin:miter;" x="496.63804" xlink:href="#m3ff41e2797" y="336.767573"/>
     <use style="stroke:#000000;stroke-linejoin:miter;" x="501.710767" xlink:href="#m3ff41e2797" y="341.508901"/>
     <use style="stroke:#000000;stroke-linejoin:miter;" x="506.783494" xlink:href="#m3ff41e2797" y="346.105389"/>
     <use style="stroke:#000000;stroke-linejoin:miter;" x="511.856222" xlink:href="#m3ff41e2797" y="350.543579"/>
     <use style="stroke:#000000;stroke-linejoin:miter;" x="516.928949" xlink:href="#m3ff41e2797" y="354.810476"/>
     <use style="stroke:#000000;stroke-linejoin:miter;" x="522.001676" xlink:href="#m3ff41e2797" y="358.893578"/>
     <use style="stroke:#000000;stroke-linejoin:miter;" x="527.074403" xlink:href="#m3ff41e2797" y="362.780852"/>
     <use style="stroke:#000000;stroke-linejoin:miter;" x="532.147131" xlink:href="#m3ff41e2797" y="366.460814"/>
     <use style="stroke:#000000;stroke-linejoin:miter;" x="537.219858" xlink:href="#m3ff41e2797" y="369.922511"/>
     <use style="stroke:#000000;stroke-linejoin:miter;" x="542.292585" xlink:href="#m3ff41e2797" y="373.155508"/>
     <use style="stroke:#000000;stroke-linejoin:miter;" x="547.365313" xlink:href="#m3ff41e2797" y="376.149909"/>
     <use style="stroke:#000000;stroke-linejoin:miter;" x="552.43804" xlink:href="#m3ff41e2797" y="378.896419"/>
     <use style="stroke:#000000;stroke-linejoin:miter;" x="557.510767" xlink:href="#m3ff41e2797" y="381.386287"/>
     <use style="stroke:#000000;stroke-linejoin:miter;" x="562.583494" xlink:href="#m3ff41e2797" y="383.611307"/>
     <use style="stroke:#000000;stroke-linejoin:miter;" x="567.656222" xlink:href="#m3ff41e2797" y="385.563904"/>
     <use style="stroke:#000000;stroke-linejoin:miter;" x="572.728949" xlink:href="#m3ff41e2797" y="387.237049"/>
     <use style="stroke:#000000;stroke-linejoin:miter;" x="577.801676" xlink:href="#m3ff41e2797" y="388.624299"/>
     <use style="stroke:#000000;stroke-linejoin:miter;" x="582.874403" xlink:href="#m3ff41e2797" y="389.719844"/>
     <use style="stroke:#000000;stroke-linejoin:miter;" x="587.947131" xlink:href="#m3ff41e2797" y="390.51842"/>
     <use style="stroke:#000000;stroke-linejoin:miter;" x="593.019858" xlink:href="#m3ff41e2797" y="391.015406"/>
     <use style="stroke:#000000;stroke-linejoin:miter;" x="598.092585" xlink:href="#m3ff41e2797" y="391.206758"/>
     <use style="stroke:#000000;stroke-linejoin:miter;" x="603.165313" xlink:href="#m3ff41e2797" y="391.089018"/>
     <use style="stroke:#000000;stroke-linejoin:miter;" x="608.23804" xlink:href="#m3ff41e2797" y="390.659358"/>
     <use style="stroke:#000000;stroke-linejoin:miter;" x="613.310767" xlink:href="#m3ff41e2797" y="389.915543"/>
     <use style="stroke:#000000;stroke-linejoin:miter;" x="618.383494" xlink:href="#m3ff41e2797" y="388.855878"/>
     <use style="stroke:#000000;stroke-linejoin:miter;" x="623.456222" xlink:href="#m3ff41e2797" y="387.479344"/>
     <use style="stroke:#000000;stroke-linejoin:miter;" x="628.528949" xlink:href="#m3ff41e2797" y="385.785441"/>
     <use style="stroke:#000000;stroke-linejoin:miter;" x="633.601676" xlink:href="#m3ff41e2797" y="383.774296"/>
     <use style="stroke:#000000;stroke-linejoin:miter;" x="638.674403" xlink:href="#m3ff41e2797" y="381.446599"/>
     <use style="stroke:#000000;stroke-linejoin:miter;" x="643.747131" xlink:href="#m3ff41e2797" y="378.803584"/>
     <use style="stroke:#000000;stroke-linejoin:miter;" x="648.819858" xlink:href="#m3ff41e2797" y="375.8471"/>
     <use style="stroke:#000000;stroke-linejoin:miter;" x="653.892585" xlink:href="#m3ff41e2797" y="372.579473"/>
     <use style="stroke:#000000;stroke-linejoin:miter;" x="658.965312" xlink:href="#m3ff41e2797" y="369.003643"/>
     <use style="stroke:#000000;stroke-linejoin:miter;" x="664.03804" xlink:href="#m3ff41e2797" y="365.123024"/>
     <use style="stroke:#000000;stroke-linejoin:miter;" x="669.110767" xlink:href="#m3ff41e2797" y="360.941634"/>
     <use style="stroke:#000000;stroke-linejoin:miter;" x="674.183494" xlink:href="#m3ff41e2797" y="356.463877"/>
     <use style="stroke:#000000;stroke-linejoin:miter;" x="679.256222" xlink:href="#m3ff41e2797" y="351.694745"/>
     <use style="stroke:#000000;stroke-linejoin:miter;" x="684.328949" xlink:href="#m3ff41e2797" y="346.639647"/>
     <use style="stroke:#000000;stroke-linejoin:miter;" x="689.401676" xlink:href="#m3ff41e2797" y="341.304494"/>
     <use style="stroke:#000000;stroke-linejoin:miter;" x="694.474403" xlink:href="#m3ff41e2797" y="335.695627"/>
     <use style="stroke:#000000;stroke-linejoin:miter;" x="699.547131" xlink:href="#m3ff41e2797" y="329.819783"/>
     <use style="stroke:#000000;stroke-linejoin:miter;" x="704.619858" xlink:href="#m3ff41e2797" y="323.684137"/>
     <use style="stroke:#000000;stroke-linejoin:miter;" x="709.692585" xlink:href="#m3ff41e2797" y="317.296213"/>
     <use style="stroke:#000000;stroke-linejoin:miter;" x="714.765312" xlink:href="#m3ff41e2797" y="310.663916"/>
     <use style="stroke:#000000;stroke-linejoin:miter;" x="719.83804" xlink:href="#m3ff41e2797" y="303.795476"/>
     <use style="stroke:#000000;stroke-linejoin:miter;" x="724.910767" xlink:href="#m3ff41e2797" y="296.699437"/>
     <use style="stroke:#000000;stroke-linejoin:miter;" x="729.983494" xlink:href="#m3ff41e2797" y="289.38463"/>
     <use style="stroke:#000000;stroke-linejoin:miter;" x="735.056222" xlink:href="#m3ff41e2797" y="281.860122"/>
     <use style="stroke:#000000;stroke-linejoin:miter;" x="740.128949" xlink:href="#m3ff41e2797" y="274.135224"/>
     <use style="stroke:#000000;stroke-linejoin:miter;" x="745.201676" xlink:href="#m3ff41e2797" y="266.219462"/>
     <use style="stroke:#000000;stroke-linejoin:miter;" x="750.274403" xlink:href="#m3ff41e2797" y="258.122463"/>
     <use style="stroke:#000000;stroke-linejoin:miter;" x="755.347131" xlink:href="#m3ff41e2797" y="249.854067"/>
     <use style="stroke:#000000;stroke-linejoin:miter;" x="760.419858" xlink:href="#m3ff41e2797" y="241.424161"/>
     <use style="stroke:#000000;stroke-linejoin:miter;" x="765.492585" xlink:href="#m3ff41e2797" y="232.842699"/>
     <use style="stroke:#000000;stroke-linejoin:miter;" x="770.565312" xlink:href="#m3ff41e2797" y="224.119696"/>
     <use style="stroke:#000000;stroke-linejoin:miter;" x="775.63804" xlink:href="#m3ff41e2797" y="215.265137"/>
     <use style="stroke:#000000;stroke-linejoin:miter;" x="780.710767" xlink:href="#m3ff41e2797" y="206.288935"/>
     <use style="stroke:#000000;stroke-linejoin:miter;" x="785.783494" xlink:href="#m3ff41e2797" y="197.200946"/>
     <use style="stroke:#000000;stroke-linejoin:miter;" x="790.856222" xlink:href="#m3ff41e2797" y="188.010912"/>
     <use style="stroke:#000000;stroke-linejoin:miter;" x="795.928949" xlink:href="#m3ff41e2797" y="178.728358"/>
     <use style="stroke:#000000;stroke-linejoin:miter;" x="801.001676" xlink:href="#m3ff41e2797" y="169.362653"/>
     <use style="stroke:#000000;stroke-linejoin:miter;" x="806.074403" xlink:href="#m3ff41e2797" y="159.922863"/>
     <use style="stroke:#000000;stroke-linejoin:miter;" x="811.147131" xlink:href="#m3ff41e2797" y="150.417782"/>
     <use style="stroke:#000000;stroke-linejoin:miter;" x="816.219858" xlink:href="#m3ff41e2797" y="140.855761"/>
     <use style="stroke:#000000;stroke-linejoin:miter;" x="821.292585" xlink:href="#m3ff41e2797" y="131.245077"/>
     <use style="stroke:#000000;stroke-linejoin:miter;" x="826.365313" xlink:href="#m3ff41e2797" y="121.593018"/>
     <use style="stroke:#000000;stroke-linejoin:miter;" x="831.43804" xlink:href="#m3ff41e2797" y="111.907116"/>
     <use style="stroke:#000000;stroke-linejoin:miter;" x="836.510767" xlink:href="#m3ff41e2797" y="102.193339"/>
     <use style="stroke:#000000;stroke-linejoin:miter;" x="841.583494" xlink:href="#m3ff41e2797" y="92.45833"/>
     <use style="stroke:#000000;stroke-linejoin:miter;" x="846.656222" xlink:href="#m3ff41e2797" y="82.706966"/>
     <use style="stroke:#000000;stroke-linejoin:miter;" x="851.728949" xlink:href="#m3ff41e2797" y="72.944411"/>
     <use style="stroke:#000000;stroke-linejoin:miter;" x="856.801676" xlink:href="#m3ff41e2797" y="63.17411"/>
     <use style="stroke:#000000;stroke-linejoin:miter;" x="861.874403" xlink:href="#m3ff41e2797" y="53.399361"/>
     <use style="stroke:#000000;stroke-linejoin:miter;" x="866.947131" xlink:href="#m3ff41e2797" y="43.622603"/>
     <use style="stroke:#000000;stroke-linejoin:miter;" x="872.019858" xlink:href="#m3ff41e2797" y="33.845415"/>
    </g>
   </g>
   <g id="line2d_16">
    <path clip-path="url(#p116246bb0c)" d="M 111.110767 430.56 
L 116.183494 430.033768 
L 121.256222 428.505885 
L 126.328949 426.047656 
L 131.401676 422.730504 
L 136.474403 418.625628 
L 141.547131 413.803677 
L 146.619858 408.334496 
L 151.692585 402.286762 
L 156.765313 395.727904 
L 161.83804 388.7237 
L 166.910767 381.338253 
L 171.983494 373.633707 
L 182.128949 357.505401 
L 192.274403 340.792401 
L 207.492585 315.523986 
L 217.63804 299.077199 
L 222.710767 291.094428 
L 227.783494 283.319688 
L 232.856222 275.785366 
L 237.928949 268.521511 
L 243.001676 261.555168 
L 248.074403 254.911258 
L 253.147131 248.611968 
L 258.219858 242.677176 
L 263.292585 237.124455 
L 268.365313 231.969066 
L 273.43804 227.223684 
L 278.510767 222.899395 
L 283.583494 219.004673 
L 288.656222 215.546283 
L 293.728949 212.528956 
L 298.801676 209.95542 
L 303.874403 207.826779 
L 308.947131 206.142459 
L 314.019858 204.899949 
L 319.092585 204.095778 
L 324.165313 203.724265 
L 329.23804 203.779039 
L 334.310767 204.251695 
L 339.383494 205.133379 
L 344.456222 206.413533 
L 349.528949 208.080709 
L 354.601676 210.12244 
L 359.674403 212.525398 
L 364.747131 215.275108 
L 369.819858 218.35091 
L 374.892585 221.731572 
L 379.965313 225.401572 
L 385.03804 229.344956 
L 390.110767 233.544867 
L 395.183494 237.984635 
L 400.256222 242.646542 
L 405.328949 247.513172 
L 410.401676 252.566419 
L 420.547131 263.159929 
L 430.692585 274.279879 
L 440.83804 285.777855 
L 461.128949 309.31587 
L 476.347131 326.87187 
L 486.492585 338.265978 
L 496.63804 349.255878 
L 506.783494 359.714256 
L 511.856222 364.706163 
L 516.928949 369.520549 
L 522.001676 374.14354 
L 527.074403 378.561729 
L 532.147131 382.76229 
L 537.219858 386.732874 
L 542.292585 390.461766 
L 547.365313 393.937774 
L 552.43804 397.150297 
L 557.510767 400.08935 
L 562.583494 402.745564 
L 567.656222 405.110189 
L 572.728949 407.17506 
L 577.801676 408.932748 
L 582.874403 410.376379 
L 587.947131 411.499799 
L 593.019858 412.297457 
L 598.092585 412.764502 
L 603.165313 412.896719 
L 608.23804 412.690604 
L 613.310767 412.143276 
L 618.383494 411.252554 
L 623.456222 410.012397 
L 628.528949 408.417469 
L 633.601676 406.467613 
L 638.674403 404.1633 
L 643.747131 401.505651 
L 648.819858 398.496474 
L 653.892585 395.138149 
L 658.965312 391.433761 
L 664.03804 387.386954 
L 669.110767 383.002003 
L 674.183494 378.283715 
L 679.256222 373.237541 
L 684.328949 367.869448 
L 689.401676 362.185908 
L 694.474403 356.193964 
L 699.547131 349.90112 
L 704.619858 343.315323 
L 709.692585 336.445041 
L 714.765312 329.299054 
L 719.83804 321.886613 
L 724.910767 314.217309 
L 729.983494 306.301036 
L 735.056222 298.148018 
L 740.128949 289.76874 
L 750.274403 272.374381 
L 760.419858 254.20572 
L 770.565312 235.352365 
L 780.710767 215.904497 
L 790.856222 195.95145 
L 801.001676 175.58025 
L 816.219858 144.419956 
L 836.510767 102.135237 
L 872.019858 27.36 
L 872.019858 27.36 
" style="fill:none;stroke:#0000ff;stroke-linecap:square;stroke-width:3;"/>
   </g>
   <g id="line2d_17">
    <path clip-path="url(#p116246bb0c)" d="M 111.110767 430.56 
L 116.183494 430.025502 
L 121.256222 428.474375 
L 126.328949 425.980517 
L 131.401676 422.618066 
L 136.474403 418.460978 
L 141.547131 413.58264 
L 146.619858 408.055517 
L 151.692585 401.950857 
L 156.765313 395.338358 
L 161.83804 388.286013 
L 166.910767 380.859747 
L 171.983494 373.123404 
L 182.128949 356.963728 
L 197.347131 331.852145 
L 207.492585 315.123855 
L 217.63804 298.822073 
L 222.710767 290.928375 
L 227.783494 283.252373 
L 232.856222 275.825201 
L 237.928949 268.675403 
L 243.001676 261.828443 
L 248.074403 255.307733 
L 253.147131 249.133656 
L 258.219858 243.32429 
L 263.292585 237.895401 
L 268.365313 232.860015 
L 273.43804 228.229555 
L 278.510767 224.012586 
L 283.583494 220.216051 
L 288.656222 216.844915 
L 293.728949 213.901903 
L 298.801676 211.388234 
L 303.874403 209.303478 
L 308.947131 207.645197 
L 314.019858 206.409803 
L 319.092585 205.592118 
L 324.165313 205.185643 
L 329.23804 205.182587 
L 334.310767 205.573855 
L 339.383494 206.349491 
L 344.456222 207.498491 
L 349.528949 209.008589 
L 354.601676 210.867203 
L 359.674403 213.060589 
L 364.747131 215.574129 
L 369.819858 218.390979 
L 374.892585 221.493537 
L 379.965313 224.86618 
L 385.03804 228.49251 
L 390.110767 232.355855 
L 395.183494 236.439417 
L 400.256222 240.725923 
L 405.328949 245.197813 
L 415.474403 254.627216 
L 425.619858 264.585498 
L 435.765312 274.929912 
L 450.983494 290.860541 
L 471.274403 312.147914 
L 481.419858 322.511997 
L 491.565313 332.521222 
L 501.710767 342.056774 
L 506.783494 346.611586 
L 511.856222 351.006477 
L 516.928949 355.228614 
L 522.001676 359.265606 
L 527.074403 363.105612 
L 532.147131 366.737246 
L 537.219858 370.149708 
L 542.292585 373.332729 
L 547.365313 376.276587 
L 552.43804 378.972082 
L 557.510767 381.410633 
L 562.583494 383.584236 
L 567.656222 385.48543 
L 572.728949 387.107386 
L 577.801676 388.443793 
L 582.874403 389.489025 
L 587.947131 390.237992 
L 593.019858 390.686229 
L 598.092585 390.829894 
L 603.165313 390.665714 
L 608.23804 390.191007 
L 613.310767 389.403722 
L 618.383494 388.302381 
L 623.456222 386.885635 
L 628.528949 385.152623 
L 633.601676 383.103661 
L 638.674403 380.739597 
L 643.747131 378.061805 
L 648.819858 375.072268 
L 653.892585 371.77348 
L 658.965312 368.168426 
L 664.03804 364.260679 
L 669.110767 360.054269 
L 674.183494 355.553715 
L 679.256222 350.764082 
L 684.328949 345.690808 
L 689.401676 340.339845 
L 694.474403 334.717555 
L 699.547131 328.830699 
L 704.619858 322.686437 
L 709.692585 316.292311 
L 714.765312 309.656198 
L 719.83804 302.786313 
L 724.910767 295.691147 
L 729.983494 288.379496 
L 740.128949 273.143059 
L 750.274403 257.151673 
L 760.419858 240.482537 
L 770.565312 223.214369 
L 780.710767 205.426217 
L 790.856222 187.196326 
L 801.001676 168.600861 
L 816.219858 140.180033 
L 836.510767 101.641005 
L 872.019858 33.518318 
L 872.019858 33.518318 
" style="fill:none;stroke:#ff0000;stroke-linecap:square;stroke-width:3;"/>
   </g>
   <g id="patch_3">
    <path d="M 73.065313 450.72 
L 73.065313 7.2 
" style="fill:none;stroke:#000000;stroke-linecap:square;stroke-linejoin:miter;stroke-width:0.8;"/>
   </g>
   <g id="patch_4">
    <path d="M 73.065313 450.72 
L 910.065313 450.72 
" style="fill:none;stroke:#000000;stroke-linecap:square;stroke-linejoin:miter;stroke-width:0.8;"/>
   </g>
   <g id="legend_1">
    <g id="patch_5">
     <path d="M 88.465313 118.159062 
L 348.3025 118.159062 
Q 352.7025 118.159062 352.7025 113.759062 
L 352.7025 22.6 
Q 352.7025 18.2 348.3025 18.2 
L 88.465313 18.2 
Q 84.065313 18.2 84.065313 22.6 
L 84.065313 113.759062 
Q 84.065313 118.159062 88.465313 118.159062 
z
" style="fill:#ffffff;opacity:0.8;stroke:#cccccc;stroke-linejoin:miter;"/>
    </g>
    <g id="line2d_18"/>
    <g id="line2d_19">
     <g>
      <use style="stroke:#000000;stroke-linejoin:miter;" x="114.865313" xlink:href="#m3ff41e2797" y="34.7"/>
     </g>
    </g>
    <g id="text_17">
     <!-- Reference FEM -->
     <g transform="translate(154.465313 42.4)scale(0.22 -0.22)">
      <defs>
       <path d="M 67.578125 0 
L 49.90625 0 
L 27.484375 30.953125 
Q 25 30.859375 23.4375 30.859375 
Q 22.796875 30.859375 22.0625 30.875 
Q 21.34375 30.90625 20.5625 30.953125 
L 20.5625 11.71875 
Q 20.5625 5.46875 21.921875 3.953125 
Q 23.78125 1.8125 27.484375 1.8125 
L 30.078125 1.8125 
L 30.078125 0 
L 1.703125 0 
L 1.703125 1.8125 
L 4.203125 1.8125 
Q 8.40625 1.8125 10.203125 4.546875 
Q 11.234375 6.0625 11.234375 11.71875 
L 11.234375 54.5 
Q 11.234375 60.75 9.859375 62.25 
Q 7.953125 64.40625 4.203125 64.40625 
L 1.703125 64.40625 
L 1.703125 66.21875 
L 25.828125 66.21875 
Q 36.375 66.21875 41.375 64.671875 
Q 46.390625 63.140625 49.875 59.015625 
Q 53.375 54.890625 53.375 49.171875 
Q 53.375 43.0625 49.390625 38.5625 
Q 45.40625 34.078125 37.0625 32.234375 
L 50.734375 13.234375 
Q 55.421875 6.6875 58.78125 4.53125 
Q 62.15625 2.390625 67.578125 1.8125 
z
M 20.5625 34.03125 
Q 21.484375 34.03125 22.171875 34 
Q 22.859375 33.984375 23.296875 33.984375 
Q 32.765625 33.984375 37.578125 38.078125 
Q 42.390625 42.1875 42.390625 48.53125 
Q 42.390625 54.734375 38.5 58.609375 
Q 34.625 62.5 28.21875 62.5 
Q 25.390625 62.5 20.5625 61.578125 
z
" id="TimesNewRomanPSMT-82"/>
       <path d="M 20.609375 41.21875 
L 20.609375 11.8125 
Q 20.609375 5.5625 21.96875 3.90625 
Q 23.78125 1.765625 26.8125 1.765625 
L 30.859375 1.765625 
L 30.859375 0 
L 4.15625 0 
L 4.15625 1.765625 
L 6.15625 1.765625 
Q 8.109375 1.765625 9.71875 2.734375 
Q 11.328125 3.71875 11.9375 5.375 
Q 12.546875 7.03125 12.546875 11.8125 
L 12.546875 41.21875 
L 3.859375 41.21875 
L 3.859375 44.734375 
L 12.546875 44.734375 
L 12.546875 47.65625 
Q 12.546875 54.34375 14.6875 58.984375 
Q 16.84375 63.625 21.265625 66.484375 
Q 25.6875 69.34375 31.203125 69.34375 
Q 36.328125 69.34375 40.625 66.015625 
Q 43.453125 63.8125 43.453125 61.078125 
Q 43.453125 59.625 42.1875 58.328125 
Q 40.921875 57.03125 39.453125 57.03125 
Q 38.328125 57.03125 37.078125 57.828125 
Q 35.84375 58.640625 34.03125 61.296875 
Q 32.234375 63.96875 30.71875 64.890625 
Q 29.203125 65.828125 27.34375 65.828125 
Q 25.09375 65.828125 23.53125 64.625 
Q 21.96875 63.421875 21.28125 60.90625 
Q 20.609375 58.40625 20.609375 47.953125 
L 20.609375 44.734375 
L 32.125 44.734375 
L 32.125 41.21875 
z
" id="TimesNewRomanPSMT-102"/>
       <path d="M 16.21875 46.046875 
L 16.21875 35.984375 
Q 21.828125 46.046875 27.734375 46.046875 
Q 30.421875 46.046875 32.171875 44.40625 
Q 33.9375 42.78125 33.9375 40.625 
Q 33.9375 38.71875 32.65625 37.390625 
Q 31.390625 36.078125 29.640625 36.078125 
Q 27.9375 36.078125 25.8125 37.765625 
Q 23.6875 39.453125 22.65625 39.453125 
Q 21.78125 39.453125 20.75 38.484375 
Q 18.5625 36.46875 16.21875 31.890625 
L 16.21875 10.453125 
Q 16.21875 6.734375 17.140625 4.828125 
Q 17.78125 3.515625 19.390625 2.640625 
Q 21 1.765625 24.03125 1.765625 
L 24.03125 0 
L 1.125 0 
L 1.125 1.765625 
Q 4.546875 1.765625 6.203125 2.828125 
Q 7.421875 3.609375 7.90625 5.328125 
Q 8.15625 6.15625 8.15625 10.0625 
L 8.15625 27.390625 
Q 8.15625 35.203125 7.828125 36.6875 
Q 7.515625 38.1875 6.65625 38.859375 
Q 5.8125 39.546875 4.546875 39.546875 
Q 3.03125 39.546875 1.125 38.8125 
L 0.640625 40.578125 
L 14.15625 46.046875 
z
" id="TimesNewRomanPSMT-114"/>
       <path d="M 41.109375 17 
Q 39.3125 8.15625 34.03125 3.390625 
Q 28.765625 -1.375 22.359375 -1.375 
Q 14.75 -1.375 9.078125 5.015625 
Q 3.421875 11.421875 3.421875 22.3125 
Q 3.421875 32.859375 9.6875 39.453125 
Q 15.96875 46.046875 24.75 46.046875 
Q 31.34375 46.046875 35.59375 42.546875 
Q 39.84375 39.0625 39.84375 35.296875 
Q 39.84375 33.453125 38.640625 32.296875 
Q 37.453125 31.15625 35.296875 31.15625 
Q 32.421875 31.15625 30.953125 33.015625 
Q 30.125 34.03125 29.859375 36.90625 
Q 29.59375 39.796875 27.875 41.3125 
Q 26.171875 42.78125 23.140625 42.78125 
Q 18.265625 42.78125 15.28125 39.15625 
Q 11.328125 34.375 11.328125 26.515625 
Q 11.328125 18.5 15.25 12.375 
Q 19.1875 6.25 25.875 6.25 
Q 30.671875 6.25 34.46875 9.515625 
Q 37.15625 11.765625 39.703125 17.671875 
z
" id="TimesNewRomanPSMT-99"/>
       <path d="M 20.453125 62.59375 
L 20.453125 36.578125 
L 32.515625 36.578125 
Q 36.671875 36.578125 38.59375 38.40625 
Q 40.53125 40.234375 41.15625 45.65625 
L 42.96875 45.65625 
L 42.96875 23.25 
L 41.15625 23.25 
Q 41.109375 27.09375 40.15625 28.90625 
Q 39.203125 30.71875 37.515625 31.609375 
Q 35.84375 32.515625 32.515625 32.515625 
L 20.453125 32.515625 
L 20.453125 11.71875 
Q 20.453125 6.6875 21.09375 5.078125 
Q 21.578125 3.859375 23.140625 2.984375 
Q 25.296875 1.8125 27.640625 1.8125 
L 30.03125 1.8125 
L 30.03125 0 
L 1.609375 0 
L 1.609375 1.8125 
L 3.953125 1.8125 
Q 8.0625 1.8125 9.90625 4.203125 
Q 11.078125 5.765625 11.078125 11.71875 
L 11.078125 54.5 
Q 11.078125 59.515625 10.453125 61.140625 
Q 9.96875 62.359375 8.453125 63.234375 
Q 6.34375 64.40625 3.953125 64.40625 
L 1.609375 64.40625 
L 1.609375 66.21875 
L 50.875 66.21875 
L 51.515625 51.65625 
L 49.8125 51.65625 
Q 48.53125 56.296875 46.84375 58.46875 
Q 45.171875 60.640625 42.703125 61.609375 
Q 40.234375 62.59375 35.0625 62.59375 
z
" id="TimesNewRomanPSMT-70"/>
       <path d="M 20.90625 62.59375 
L 20.90625 36.421875 
L 35.453125 36.421875 
Q 41.109375 36.421875 43.015625 38.140625 
Q 45.5625 40.375 45.84375 46.046875 
L 47.65625 46.046875 
L 47.65625 23 
L 45.84375 23 
Q 45.171875 27.828125 44.484375 29.203125 
Q 43.609375 30.90625 41.59375 31.875 
Q 39.59375 32.859375 35.453125 32.859375 
L 20.90625 32.859375 
L 20.90625 11.03125 
Q 20.90625 6.640625 21.296875 5.6875 
Q 21.6875 4.734375 22.65625 4.171875 
Q 23.640625 3.609375 26.375 3.609375 
L 37.59375 3.609375 
Q 43.21875 3.609375 45.75 4.390625 
Q 48.296875 5.171875 50.640625 7.46875 
Q 53.65625 10.5 56.84375 16.609375 
L 58.796875 16.609375 
L 53.078125 0 
L 2.046875 0 
L 2.046875 1.8125 
L 4.390625 1.8125 
Q 6.734375 1.8125 8.84375 2.9375 
Q 10.40625 3.71875 10.96875 5.28125 
Q 11.53125 6.84375 11.53125 11.671875 
L 11.53125 54.6875 
Q 11.53125 60.984375 10.25 62.453125 
Q 8.5 64.40625 4.390625 64.40625 
L 2.046875 64.40625 
L 2.046875 66.21875 
L 53.078125 66.21875 
L 53.8125 51.703125 
L 51.90625 51.703125 
Q 50.875 56.9375 49.625 58.890625 
Q 48.390625 60.84375 45.953125 61.859375 
Q 44 62.59375 39.0625 62.59375 
z
" id="TimesNewRomanPSMT-69"/>
       <path d="M 40.921875 0 
L 15.328125 55.71875 
L 15.328125 11.46875 
Q 15.328125 5.375 16.65625 3.859375 
Q 18.453125 1.8125 22.359375 1.8125 
L 24.703125 1.8125 
L 24.703125 0 
L 1.65625 0 
L 1.65625 1.8125 
L 4 1.8125 
Q 8.203125 1.8125 9.96875 4.34375 
Q 11.03125 5.90625 11.03125 11.46875 
L 11.03125 54.734375 
Q 11.03125 59.125 10.0625 61.078125 
Q 9.375 62.5 7.546875 63.453125 
Q 5.71875 64.40625 1.65625 64.40625 
L 1.65625 66.21875 
L 20.40625 66.21875 
L 44.4375 14.40625 
L 68.0625 66.21875 
L 86.8125 66.21875 
L 86.8125 64.40625 
L 84.515625 64.40625 
Q 80.28125 64.40625 78.515625 61.859375 
Q 77.4375 60.296875 77.4375 54.734375 
L 77.4375 11.46875 
Q 77.4375 5.375 78.8125 3.859375 
Q 80.609375 1.8125 84.515625 1.8125 
L 86.8125 1.8125 
L 86.8125 0 
L 58.6875 0 
L 58.6875 1.8125 
L 61.03125 1.8125 
Q 65.28125 1.8125 67 4.34375 
Q 68.0625 5.90625 68.0625 11.46875 
L 68.0625 55.71875 
L 42.53125 0 
z
" id="TimesNewRomanPSMT-77"/>
      </defs>
      <use xlink:href="#TimesNewRomanPSMT-82"/>
      <use x="66.699219" xlink:href="#TimesNewRomanPSMT-101"/>
      <use x="111.083984" xlink:href="#TimesNewRomanPSMT-102"/>
      <use x="144.384766" xlink:href="#TimesNewRomanPSMT-101"/>
      <use x="188.769531" xlink:href="#TimesNewRomanPSMT-114"/>
      <use x="222.070312" xlink:href="#TimesNewRomanPSMT-101"/>
      <use x="266.455078" xlink:href="#TimesNewRomanPSMT-110"/>
      <use x="316.455078" xlink:href="#TimesNewRomanPSMT-99"/>
      <use x="360.839844" xlink:href="#TimesNewRomanPSMT-101"/>
      <use x="405.224609" xlink:href="#TimesNewRomanPSMT-32"/>
      <use x="430.224609" xlink:href="#TimesNewRomanPSMT-70"/>
      <use x="485.839844" xlink:href="#TimesNewRomanPSMT-69"/>
      <use x="546.923828" xlink:href="#TimesNewRomanPSMT-77"/>
     </g>
    </g>
    <g id="line2d_20">
     <path d="M 92.865313 65.805937 
L 136.865313 65.805937 
" style="fill:none;stroke:#0000ff;stroke-linecap:square;stroke-width:3;"/>
    </g>
    <g id="line2d_21"/>
    <g id="text_18">
     <!-- Initial mistuned FEM -->
     <g transform="translate(154.465313 73.505937)scale(0.22 -0.22)">
      <defs>
       <path d="M 30.859375 1.8125 
L 30.859375 0 
L 2.484375 0 
L 2.484375 1.8125 
L 4.828125 1.8125 
Q 8.9375 1.8125 10.796875 4.203125 
Q 11.96875 5.765625 11.96875 11.71875 
L 11.96875 54.5 
Q 11.96875 59.515625 11.328125 61.140625 
Q 10.84375 62.359375 9.328125 63.234375 
Q 7.171875 64.40625 4.828125 64.40625 
L 2.484375 64.40625 
L 2.484375 66.21875 
L 30.859375 66.21875 
L 30.859375 64.40625 
L 28.46875 64.40625 
Q 24.421875 64.40625 22.5625 62.015625 
Q 21.34375 60.453125 21.34375 54.5 
L 21.34375 11.71875 
Q 21.34375 6.6875 21.96875 5.078125 
Q 22.46875 3.859375 24.03125 2.984375 
Q 26.125 1.8125 28.46875 1.8125 
z
" id="TimesNewRomanPSMT-73"/>
       <path d="M 32.03125 46.046875 
L 32.03125 30.8125 
L 30.421875 30.8125 
Q 28.5625 37.984375 25.65625 40.578125 
Q 22.75 43.171875 18.265625 43.171875 
Q 14.84375 43.171875 12.734375 41.359375 
Q 10.640625 39.546875 10.640625 37.359375 
Q 10.640625 34.625 12.203125 32.671875 
Q 13.71875 30.671875 18.359375 28.421875 
L 25.484375 24.953125 
Q 35.40625 20.125 35.40625 12.203125 
Q 35.40625 6.109375 30.78125 2.359375 
Q 26.171875 -1.375 20.453125 -1.375 
Q 16.359375 -1.375 11.078125 0.09375 
Q 9.46875 0.59375 8.453125 0.59375 
Q 7.328125 0.59375 6.6875 -0.6875 
L 5.078125 -0.6875 
L 5.078125 15.28125 
L 6.6875 15.28125 
Q 8.0625 8.453125 11.90625 4.984375 
Q 15.765625 1.515625 20.5625 1.515625 
Q 23.921875 1.515625 26.046875 3.484375 
Q 28.171875 5.46875 28.171875 8.25 
Q 28.171875 11.625 25.796875 13.921875 
Q 23.4375 16.21875 16.359375 19.734375 
Q 9.28125 23.25 7.078125 26.078125 
Q 4.890625 28.859375 4.890625 33.109375 
Q 4.890625 38.625 8.671875 42.328125 
Q 12.453125 46.046875 18.453125 46.046875 
Q 21.09375 46.046875 24.859375 44.921875 
Q 27.34375 44.1875 28.171875 44.1875 
Q 28.953125 44.1875 29.390625 44.53125 
Q 29.828125 44.875 30.421875 46.046875 
z
" id="TimesNewRomanPSMT-115"/>
      </defs>
      <use xlink:href="#TimesNewRomanPSMT-73"/>
      <use x="33.300781" xlink:href="#TimesNewRomanPSMT-110"/>
      <use x="83.300781" xlink:href="#TimesNewRomanPSMT-105"/>
      <use x="111.083984" xlink:href="#TimesNewRomanPSMT-116"/>
      <use x="138.867188" xlink:href="#TimesNewRomanPSMT-105"/>
      <use x="166.650391" xlink:href="#TimesNewRomanPSMT-97"/>
      <use x="211.035156" xlink:href="#TimesNewRomanPSMT-108"/>
      <use x="238.818359" xlink:href="#TimesNewRomanPSMT-32"/>
      <use x="263.818359" xlink:href="#TimesNewRomanPSMT-109"/>
      <use x="341.601562" xlink:href="#TimesNewRomanPSMT-105"/>
      <use x="369.384766" xlink:href="#TimesNewRomanPSMT-115"/>
      <use x="408.300781" xlink:href="#TimesNewRomanPSMT-116"/>
      <use x="436.083984" xlink:href="#TimesNewRomanPSMT-117"/>
      <use x="486.083984" xlink:href="#TimesNewRomanPSMT-110"/>
      <use x="536.083984" xlink:href="#TimesNewRomanPSMT-101"/>
      <use x="580.46875" xlink:href="#TimesNewRomanPSMT-100"/>
      <use x="630.46875" xlink:href="#TimesNewRomanPSMT-32"/>
      <use x="655.46875" xlink:href="#TimesNewRomanPSMT-70"/>
      <use x="711.083984" xlink:href="#TimesNewRomanPSMT-69"/>
      <use x="772.167969" xlink:href="#TimesNewRomanPSMT-77"/>
     </g>
    </g>
    <g id="line2d_22">
     <path d="M 92.865313 96.911875 
L 136.865313 96.911875 
" style="fill:none;stroke:#ff0000;stroke-linecap:square;stroke-width:3;"/>
    </g>
    <g id="line2d_23"/>
    <g id="text_19">
     <!-- Converged FEM -->
     <g transform="translate(154.465313 104.611875)scale(0.22 -0.22)">
      <defs>
       <path d="M 60.203125 67.71875 
L 61.71875 45.21875 
L 60.203125 45.21875 
Q 57.171875 55.328125 51.5625 59.765625 
Q 45.953125 64.203125 38.09375 64.203125 
Q 31.5 64.203125 26.171875 60.859375 
Q 20.84375 57.515625 17.796875 50.1875 
Q 14.75 42.875 14.75 31.984375 
Q 14.75 23 17.625 16.40625 
Q 20.515625 9.8125 26.296875 6.296875 
Q 32.078125 2.78125 39.5 2.78125 
Q 45.953125 2.78125 50.875 5.53125 
Q 55.8125 8.296875 61.71875 16.5 
L 63.234375 15.53125 
Q 58.25 6.6875 51.609375 2.578125 
Q 44.96875 -1.515625 35.84375 -1.515625 
Q 19.390625 -1.515625 10.359375 10.6875 
Q 3.609375 19.78125 3.609375 32.078125 
Q 3.609375 42 8.046875 50.296875 
Q 12.5 58.59375 20.28125 63.15625 
Q 28.078125 67.71875 37.3125 67.71875 
Q 44.484375 67.71875 51.46875 64.203125 
Q 53.515625 63.140625 54.390625 63.140625 
Q 55.71875 63.140625 56.6875 64.0625 
Q 57.953125 65.375 58.5 67.71875 
z
" id="TimesNewRomanPSMT-67"/>
       <path d="M 25 46.046875 
Q 35.15625 46.046875 41.3125 38.328125 
Q 46.53125 31.734375 46.53125 23.1875 
Q 46.53125 17.1875 43.640625 11.03125 
Q 40.765625 4.890625 35.71875 1.75 
Q 30.671875 -1.375 24.46875 -1.375 
Q 14.359375 -1.375 8.40625 6.6875 
Q 3.375 13.484375 3.375 21.921875 
Q 3.375 28.078125 6.421875 34.15625 
Q 9.46875 40.234375 14.453125 43.140625 
Q 19.4375 46.046875 25 46.046875 
z
M 23.484375 42.875 
Q 20.90625 42.875 18.28125 41.328125 
Q 15.671875 39.796875 14.0625 35.9375 
Q 12.453125 32.078125 12.453125 26.03125 
Q 12.453125 16.265625 16.328125 9.171875 
Q 20.21875 2.09375 26.5625 2.09375 
Q 31.296875 2.09375 34.375 6 
Q 37.453125 9.90625 37.453125 19.4375 
Q 37.453125 31.34375 32.328125 38.1875 
Q 28.859375 42.875 23.484375 42.875 
z
" id="TimesNewRomanPSMT-111"/>
       <path d="M 0.828125 44.734375 
L 21.875 44.734375 
L 21.875 42.921875 
L 20.515625 42.921875 
Q 18.609375 42.921875 17.609375 41.984375 
Q 16.609375 41.0625 16.609375 39.5 
Q 16.609375 37.796875 17.625 35.453125 
L 28.03125 10.75 
L 38.484375 36.375 
Q 39.59375 39.109375 39.59375 40.53125 
Q 39.59375 41.21875 39.203125 41.65625 
Q 38.671875 42.390625 37.84375 42.65625 
Q 37.015625 42.921875 34.46875 42.921875 
L 34.46875 44.734375 
L 49.078125 44.734375 
L 49.078125 42.921875 
Q 46.53125 42.71875 45.5625 41.890625 
Q 43.84375 40.4375 42.484375 37.015625 
L 26.609375 -1.375 
L 24.609375 -1.375 
L 8.640625 36.375 
Q 7.5625 39.015625 6.578125 40.15625 
Q 5.609375 41.3125 4.109375 42.09375 
Q 3.265625 42.53125 0.828125 42.921875 
z
" id="TimesNewRomanPSMT-118"/>
      </defs>
      <use xlink:href="#TimesNewRomanPSMT-67"/>
      <use x="66.699219" xlink:href="#TimesNewRomanPSMT-111"/>
      <use x="116.699219" xlink:href="#TimesNewRomanPSMT-110"/>
      <use x="166.699219" xlink:href="#TimesNewRomanPSMT-118"/>
      <use x="216.699219" xlink:href="#TimesNewRomanPSMT-101"/>
      <use x="261.083984" xlink:href="#TimesNewRomanPSMT-114"/>
      <use x="292.634766" xlink:href="#TimesNewRomanPSMT-103"/>
      <use x="342.634766" xlink:href="#TimesNewRomanPSMT-101"/>
      <use x="387.019531" xlink:href="#TimesNewRomanPSMT-100"/>
      <use x="437.019531" xlink:href="#TimesNewRomanPSMT-32"/>
      <use x="462.019531" xlink:href="#TimesNewRomanPSMT-70"/>
      <use x="517.634766" xlink:href="#TimesNewRomanPSMT-69"/>
      <use x="578.71875" xlink:href="#TimesNewRomanPSMT-77"/>
     </g>
    </g>
   </g>
  </g>
 </g>
 <defs>
  <clipPath id="p116246bb0c">
   <rect height="443.52" width="837" x="73.065313" y="7.2"/>
  </clipPath>
 </defs>
</svg>
