<?xml version="1.0" encoding="utf-8" standalone="no"?>
<!DOCTYPE svg PUBLIC "-//W3C//DTD SVG 1.1//EN"
  "http://www.w3.org/Graphics/SVG/1.1/DTD/svg11.dtd">
<svg height="506.651094pt" version="1.1" viewBox="0 0 931.362969 506.651094" width="931.362969pt" xmlns="http://www.w3.org/2000/svg" xmlns:xlink="http://www.w3.org/1999/xlink">
 <metadata>
  <rdf:RDF xmlns:cc="http://creativecommons.org/ns#" xmlns:dc="http://purl.org/dc/elements/1.1/" xmlns:rdf="http://www.w3.org/1999/02/22-rdf-syntax-ns#">
   <cc:Work>
    <dc:type rdf:resource="http://purl.org/dc/dcmitype/StillImage"/>
    <dc:date>2022-07-24T12:23:58.624238</dc:date>
    <dc:format>image/svg+xml</dc:format>
    <dc:creator>
     <cc:Agent>
      <dc:title>Matplotlib v3.4.3, https://matplotlib.org/</dc:title>
     </cc:Agent>
    </dc:creator>
   </cc:Work>
  </rdf:RDF>
 </metadata>
 <defs>
  <style type="text/css">*{stroke-linecap:butt;stroke-linejoin:round;}</style>
 </defs>
 <g id="figure_1">
  <g id="patch_1">
   <path d="M 0 506.651094 
L 931.362969 506.651094 
L 931.362969 0 
L 0 0 
z
" style="fill:#ffffff;"/>
  </g>
  <g id="axes_1">
   <g id="patch_2">
    <path d="M 87.162969 442.08 
L 924.162969 442.08 
L 924.162969 7.2 
L 87.162969 7.2 
z
" style="fill:#ffffff;"/>
   </g>
   <g id="matplotlib.axis_1">
    <g id="xtick_1">
     <g id="line2d_1">
      <defs>
       <path d="M 0 0 
L 0 3.5 
" id="m511069cf57" style="stroke:#000000;stroke-width:0.8;"/>
      </defs>
      <g>
       <use style="stroke:#000000;stroke-width:0.8;" x="125.208423" xlink:href="#m511069cf57" y="442.08"/>
      </g>
     </g>
     <g id="text_1">
      <!-- 0.0 -->
      <g transform="translate(109.583423 466.439375)scale(0.25 -0.25)">
       <defs>
        <path d="M 231 2094 
Q 231 2819 450 3342 
Q 669 3866 1031 4122 
Q 1313 4325 1613 4325 
Q 2100 4325 2488 3828 
Q 2972 3213 2972 2159 
Q 2972 1422 2759 906 
Q 2547 391 2217 158 
Q 1888 -75 1581 -75 
Q 975 -75 572 641 
Q 231 1244 231 2094 
z
M 844 2016 
Q 844 1141 1059 588 
Q 1238 122 1591 122 
Q 1759 122 1940 273 
Q 2122 425 2216 781 
Q 2359 1319 2359 2297 
Q 2359 3022 2209 3506 
Q 2097 3866 1919 4016 
Q 1791 4119 1609 4119 
Q 1397 4119 1231 3928 
Q 1006 3669 925 3112 
Q 844 2556 844 2016 
z
" id="TimesNewRomanPSMT-30" transform="scale(0.015625)"/>
        <path d="M 800 606 
Q 947 606 1047 504 
Q 1147 403 1147 259 
Q 1147 116 1045 14 
Q 944 -88 800 -88 
Q 656 -88 554 14 
Q 453 116 453 259 
Q 453 406 554 506 
Q 656 606 800 606 
z
" id="TimesNewRomanPSMT-2e" transform="scale(0.015625)"/>
       </defs>
       <use xlink:href="#TimesNewRomanPSMT-30"/>
       <use x="50" xlink:href="#TimesNewRomanPSMT-2e"/>
       <use x="75" xlink:href="#TimesNewRomanPSMT-30"/>
      </g>
     </g>
    </g>
    <g id="xtick_2">
     <g id="line2d_2">
      <g>
       <use style="stroke:#000000;stroke-width:0.8;" x="226.662969" xlink:href="#m511069cf57" y="442.08"/>
      </g>
     </g>
     <g id="text_2">
      <!-- 0.2 -->
      <g transform="translate(211.037969 466.439375)scale(0.25 -0.25)">
       <defs>
        <path d="M 2934 816 
L 2638 0 
L 138 0 
L 138 116 
Q 1241 1122 1691 1759 
Q 2141 2397 2141 2925 
Q 2141 3328 1894 3587 
Q 1647 3847 1303 3847 
Q 991 3847 742 3664 
Q 494 3481 375 3128 
L 259 3128 
Q 338 3706 661 4015 
Q 984 4325 1469 4325 
Q 1984 4325 2329 3994 
Q 2675 3663 2675 3213 
Q 2675 2891 2525 2569 
Q 2294 2063 1775 1497 
Q 997 647 803 472 
L 1909 472 
Q 2247 472 2383 497 
Q 2519 522 2628 598 
Q 2738 675 2819 816 
L 2934 816 
z
" id="TimesNewRomanPSMT-32" transform="scale(0.015625)"/>
       </defs>
       <use xlink:href="#TimesNewRomanPSMT-30"/>
       <use x="50" xlink:href="#TimesNewRomanPSMT-2e"/>
       <use x="75" xlink:href="#TimesNewRomanPSMT-32"/>
      </g>
     </g>
    </g>
    <g id="xtick_3">
     <g id="line2d_3">
      <g>
       <use style="stroke:#000000;stroke-width:0.8;" x="328.117514" xlink:href="#m511069cf57" y="442.08"/>
      </g>
     </g>
     <g id="text_3">
      <!-- 0.4 -->
      <g transform="translate(312.492514 466.439375)scale(0.25 -0.25)">
       <defs>
        <path d="M 2978 1563 
L 2978 1119 
L 2409 1119 
L 2409 0 
L 1894 0 
L 1894 1119 
L 100 1119 
L 100 1519 
L 2066 4325 
L 2409 4325 
L 2409 1563 
L 2978 1563 
z
M 1894 1563 
L 1894 3666 
L 406 1563 
L 1894 1563 
z
" id="TimesNewRomanPSMT-34" transform="scale(0.015625)"/>
       </defs>
       <use xlink:href="#TimesNewRomanPSMT-30"/>
       <use x="50" xlink:href="#TimesNewRomanPSMT-2e"/>
       <use x="75" xlink:href="#TimesNewRomanPSMT-34"/>
      </g>
     </g>
    </g>
    <g id="xtick_4">
     <g id="line2d_4">
      <g>
       <use style="stroke:#000000;stroke-width:0.8;" x="429.57206" xlink:href="#m511069cf57" y="442.08"/>
      </g>
     </g>
     <g id="text_4">
      <!-- 0.6 -->
      <g transform="translate(413.94706 466.439375)scale(0.25 -0.25)">
       <defs>
        <path d="M 2869 4325 
L 2869 4209 
Q 2456 4169 2195 4045 
Q 1934 3922 1679 3669 
Q 1425 3416 1258 3105 
Q 1091 2794 978 2366 
Q 1428 2675 1881 2675 
Q 2316 2675 2634 2325 
Q 2953 1975 2953 1425 
Q 2953 894 2631 456 
Q 2244 -75 1606 -75 
Q 1172 -75 869 213 
Q 275 772 275 1663 
Q 275 2231 503 2743 
Q 731 3256 1154 3653 
Q 1578 4050 1965 4187 
Q 2353 4325 2688 4325 
L 2869 4325 
z
M 925 2138 
Q 869 1716 869 1456 
Q 869 1156 980 804 
Q 1091 453 1309 247 
Q 1469 100 1697 100 
Q 1969 100 2183 356 
Q 2397 613 2397 1088 
Q 2397 1622 2184 2012 
Q 1972 2403 1581 2403 
Q 1463 2403 1327 2353 
Q 1191 2303 925 2138 
z
" id="TimesNewRomanPSMT-36" transform="scale(0.015625)"/>
       </defs>
       <use xlink:href="#TimesNewRomanPSMT-30"/>
       <use x="50" xlink:href="#TimesNewRomanPSMT-2e"/>
       <use x="75" xlink:href="#TimesNewRomanPSMT-36"/>
      </g>
     </g>
    </g>
    <g id="xtick_5">
     <g id="line2d_5">
      <g>
       <use style="stroke:#000000;stroke-width:0.8;" x="531.026605" xlink:href="#m511069cf57" y="442.08"/>
      </g>
     </g>
     <g id="text_5">
      <!-- 0.8 -->
      <g transform="translate(515.401605 466.439375)scale(0.25 -0.25)">
       <defs>
        <path d="M 1228 2134 
Q 725 2547 579 2797 
Q 434 3047 434 3316 
Q 434 3728 753 4026 
Q 1072 4325 1600 4325 
Q 2113 4325 2425 4047 
Q 2738 3769 2738 3413 
Q 2738 3175 2569 2928 
Q 2400 2681 1866 2347 
Q 2416 1922 2594 1678 
Q 2831 1359 2831 1006 
Q 2831 559 2490 242 
Q 2150 -75 1597 -75 
Q 994 -75 656 303 
Q 388 606 388 966 
Q 388 1247 577 1523 
Q 766 1800 1228 2134 
z
M 1719 2469 
Q 2094 2806 2194 3001 
Q 2294 3197 2294 3444 
Q 2294 3772 2109 3958 
Q 1925 4144 1606 4144 
Q 1288 4144 1088 3959 
Q 888 3775 888 3528 
Q 888 3366 970 3203 
Q 1053 3041 1206 2894 
L 1719 2469 
z
M 1375 2016 
Q 1116 1797 991 1539 
Q 866 1281 866 981 
Q 866 578 1086 336 
Q 1306 94 1647 94 
Q 1984 94 2187 284 
Q 2391 475 2391 747 
Q 2391 972 2272 1150 
Q 2050 1481 1375 2016 
z
" id="TimesNewRomanPSMT-38" transform="scale(0.015625)"/>
       </defs>
       <use xlink:href="#TimesNewRomanPSMT-30"/>
       <use x="50" xlink:href="#TimesNewRomanPSMT-2e"/>
       <use x="75" xlink:href="#TimesNewRomanPSMT-38"/>
      </g>
     </g>
    </g>
    <g id="xtick_6">
     <g id="line2d_6">
      <g>
       <use style="stroke:#000000;stroke-width:0.8;" x="632.481151" xlink:href="#m511069cf57" y="442.08"/>
      </g>
     </g>
     <g id="text_6">
      <!-- 1.0 -->
      <g transform="translate(616.856151 466.439375)scale(0.25 -0.25)">
       <defs>
        <path d="M 750 3822 
L 1781 4325 
L 1884 4325 
L 1884 747 
Q 1884 391 1914 303 
Q 1944 216 2037 169 
Q 2131 122 2419 116 
L 2419 0 
L 825 0 
L 825 116 
Q 1125 122 1212 167 
Q 1300 213 1334 289 
Q 1369 366 1369 747 
L 1369 3034 
Q 1369 3497 1338 3628 
Q 1316 3728 1258 3775 
Q 1200 3822 1119 3822 
Q 1003 3822 797 3725 
L 750 3822 
z
" id="TimesNewRomanPSMT-31" transform="scale(0.015625)"/>
       </defs>
       <use xlink:href="#TimesNewRomanPSMT-31"/>
       <use x="50" xlink:href="#TimesNewRomanPSMT-2e"/>
       <use x="75" xlink:href="#TimesNewRomanPSMT-30"/>
      </g>
     </g>
    </g>
    <g id="xtick_7">
     <g id="line2d_7">
      <g>
       <use style="stroke:#000000;stroke-width:0.8;" x="733.935696" xlink:href="#m511069cf57" y="442.08"/>
      </g>
     </g>
     <g id="text_7">
      <!-- 1.2 -->
      <g transform="translate(718.310696 466.439375)scale(0.25 -0.25)">
       <use xlink:href="#TimesNewRomanPSMT-31"/>
       <use x="50" xlink:href="#TimesNewRomanPSMT-2e"/>
       <use x="75" xlink:href="#TimesNewRomanPSMT-32"/>
      </g>
     </g>
    </g>
    <g id="xtick_8">
     <g id="line2d_8">
      <g>
       <use style="stroke:#000000;stroke-width:0.8;" x="835.390241" xlink:href="#m511069cf57" y="442.08"/>
      </g>
     </g>
     <g id="text_8">
      <!-- 1.4 -->
      <g transform="translate(819.765241 466.439375)scale(0.25 -0.25)">
       <use xlink:href="#TimesNewRomanPSMT-31"/>
       <use x="50" xlink:href="#TimesNewRomanPSMT-2e"/>
       <use x="75" xlink:href="#TimesNewRomanPSMT-34"/>
      </g>
     </g>
    </g>
    <g id="text_9">
     <!-- Beam Length [m] -->
     <g transform="translate(413.247187 493.840781)scale(0.26 -0.26)">
      <defs>
       <path d="M 2956 2163 
Q 3397 2069 3616 1863 
Q 3919 1575 3919 1159 
Q 3919 844 3719 555 
Q 3519 266 3170 133 
Q 2822 0 2106 0 
L 106 0 
L 106 116 
L 266 116 
Q 531 116 647 284 
Q 719 394 719 750 
L 719 3488 
Q 719 3881 628 3984 
Q 506 4122 266 4122 
L 106 4122 
L 106 4238 
L 1938 4238 
Q 2450 4238 2759 4163 
Q 3228 4050 3475 3764 
Q 3722 3478 3722 3106 
Q 3722 2788 3528 2536 
Q 3334 2284 2956 2163 
z
M 1319 2331 
Q 1434 2309 1582 2298 
Q 1731 2288 1909 2288 
Q 2366 2288 2595 2386 
Q 2825 2484 2947 2687 
Q 3069 2891 3069 3131 
Q 3069 3503 2766 3765 
Q 2463 4028 1881 4028 
Q 1569 4028 1319 3959 
L 1319 2331 
z
M 1319 306 
Q 1681 222 2034 222 
Q 2600 222 2897 476 
Q 3194 731 3194 1106 
Q 3194 1353 3059 1581 
Q 2925 1809 2622 1940 
Q 2319 2072 1872 2072 
Q 1678 2072 1540 2065 
Q 1403 2059 1319 2044 
L 1319 306 
z
" id="TimesNewRomanPSMT-42" transform="scale(0.015625)"/>
       <path d="M 681 1784 
Q 678 1147 991 784 
Q 1303 422 1725 422 
Q 2006 422 2214 576 
Q 2422 731 2563 1106 
L 2659 1044 
Q 2594 616 2278 264 
Q 1963 -88 1488 -88 
Q 972 -88 605 314 
Q 238 716 238 1394 
Q 238 2128 614 2539 
Q 991 2950 1559 2950 
Q 2041 2950 2350 2633 
Q 2659 2316 2659 1784 
L 681 1784 
z
M 681 1966 
L 2006 1966 
Q 1991 2241 1941 2353 
Q 1863 2528 1708 2628 
Q 1553 2728 1384 2728 
Q 1125 2728 920 2526 
Q 716 2325 681 1966 
z
" id="TimesNewRomanPSMT-65" transform="scale(0.015625)"/>
       <path d="M 1822 413 
Q 1381 72 1269 19 
Q 1100 -59 909 -59 
Q 613 -59 420 144 
Q 228 347 228 678 
Q 228 888 322 1041 
Q 450 1253 767 1440 
Q 1084 1628 1822 1897 
L 1822 2009 
Q 1822 2438 1686 2597 
Q 1550 2756 1291 2756 
Q 1094 2756 978 2650 
Q 859 2544 859 2406 
L 866 2225 
Q 866 2081 792 2003 
Q 719 1925 600 1925 
Q 484 1925 411 2006 
Q 338 2088 338 2228 
Q 338 2497 613 2722 
Q 888 2947 1384 2947 
Q 1766 2947 2009 2819 
Q 2194 2722 2281 2516 
Q 2338 2381 2338 1966 
L 2338 994 
Q 2338 584 2353 492 
Q 2369 400 2405 369 
Q 2441 338 2488 338 
Q 2538 338 2575 359 
Q 2641 400 2828 588 
L 2828 413 
Q 2478 -56 2159 -56 
Q 2006 -56 1915 50 
Q 1825 156 1822 413 
z
M 1822 616 
L 1822 1706 
Q 1350 1519 1213 1441 
Q 966 1303 859 1153 
Q 753 1003 753 825 
Q 753 600 887 451 
Q 1022 303 1197 303 
Q 1434 303 1822 616 
z
" id="TimesNewRomanPSMT-61" transform="scale(0.015625)"/>
       <path d="M 1050 2338 
Q 1363 2650 1419 2697 
Q 1559 2816 1721 2881 
Q 1884 2947 2044 2947 
Q 2313 2947 2506 2790 
Q 2700 2634 2766 2338 
Q 3088 2713 3309 2830 
Q 3531 2947 3766 2947 
Q 3994 2947 4170 2830 
Q 4347 2713 4450 2447 
Q 4519 2266 4519 1878 
L 4519 647 
Q 4519 378 4559 278 
Q 4591 209 4675 161 
Q 4759 113 4950 113 
L 4950 0 
L 3538 0 
L 3538 113 
L 3597 113 
Q 3781 113 3884 184 
Q 3956 234 3988 344 
Q 4000 397 4000 647 
L 4000 1878 
Q 4000 2228 3916 2372 
Q 3794 2572 3525 2572 
Q 3359 2572 3192 2489 
Q 3025 2406 2788 2181 
L 2781 2147 
L 2788 2013 
L 2788 647 
Q 2788 353 2820 281 
Q 2853 209 2943 161 
Q 3034 113 3253 113 
L 3253 0 
L 1806 0 
L 1806 113 
Q 2044 113 2133 169 
Q 2222 225 2256 338 
Q 2272 391 2272 647 
L 2272 1878 
Q 2272 2228 2169 2381 
Q 2031 2581 1784 2581 
Q 1616 2581 1450 2491 
Q 1191 2353 1050 2181 
L 1050 647 
Q 1050 366 1089 281 
Q 1128 197 1204 155 
Q 1281 113 1516 113 
L 1516 0 
L 100 0 
L 100 113 
Q 297 113 375 155 
Q 453 197 493 289 
Q 534 381 534 647 
L 534 1741 
Q 534 2213 506 2350 
Q 484 2453 437 2492 
Q 391 2531 309 2531 
Q 222 2531 100 2484 
L 53 2597 
L 916 2947 
L 1050 2947 
L 1050 2338 
z
" id="TimesNewRomanPSMT-6d" transform="scale(0.015625)"/>
       <path id="TimesNewRomanPSMT-20" transform="scale(0.015625)"/>
       <path d="M 3669 1172 
L 3772 1150 
L 3409 0 
L 128 0 
L 128 116 
L 288 116 
Q 556 116 672 291 
Q 738 391 738 753 
L 738 3488 
Q 738 3884 650 3984 
Q 528 4122 288 4122 
L 128 4122 
L 128 4238 
L 2047 4238 
L 2047 4122 
Q 1709 4125 1573 4059 
Q 1438 3994 1388 3894 
Q 1338 3794 1338 3416 
L 1338 753 
Q 1338 494 1388 397 
Q 1425 331 1503 300 
Q 1581 269 1991 269 
L 2300 269 
Q 2788 269 2984 341 
Q 3181 413 3343 595 
Q 3506 778 3669 1172 
z
" id="TimesNewRomanPSMT-4c" transform="scale(0.015625)"/>
       <path d="M 1034 2341 
Q 1538 2947 1994 2947 
Q 2228 2947 2397 2830 
Q 2566 2713 2666 2444 
Q 2734 2256 2734 1869 
L 2734 647 
Q 2734 375 2778 278 
Q 2813 200 2889 156 
Q 2966 113 3172 113 
L 3172 0 
L 1756 0 
L 1756 113 
L 1816 113 
Q 2016 113 2095 173 
Q 2175 234 2206 353 
Q 2219 400 2219 647 
L 2219 1819 
Q 2219 2209 2117 2386 
Q 2016 2563 1775 2563 
Q 1403 2563 1034 2156 
L 1034 647 
Q 1034 356 1069 288 
Q 1113 197 1189 155 
Q 1266 113 1500 113 
L 1500 0 
L 84 0 
L 84 113 
L 147 113 
Q 366 113 442 223 
Q 519 334 519 647 
L 519 1709 
Q 519 2225 495 2337 
Q 472 2450 423 2490 
Q 375 2531 294 2531 
Q 206 2531 84 2484 
L 38 2597 
L 900 2947 
L 1034 2947 
L 1034 2341 
z
" id="TimesNewRomanPSMT-6e" transform="scale(0.015625)"/>
       <path d="M 966 1044 
Q 703 1172 562 1401 
Q 422 1631 422 1909 
Q 422 2334 742 2640 
Q 1063 2947 1563 2947 
Q 1972 2947 2272 2747 
L 2878 2747 
Q 3013 2747 3034 2739 
Q 3056 2731 3066 2713 
Q 3084 2684 3084 2613 
Q 3084 2531 3069 2500 
Q 3059 2484 3036 2475 
Q 3013 2466 2878 2466 
L 2506 2466 
Q 2681 2241 2681 1891 
Q 2681 1491 2375 1206 
Q 2069 922 1553 922 
Q 1341 922 1119 984 
Q 981 866 932 777 
Q 884 688 884 625 
Q 884 572 936 522 
Q 988 472 1138 450 
Q 1225 438 1575 428 
Q 2219 413 2409 384 
Q 2700 344 2873 169 
Q 3047 -6 3047 -263 
Q 3047 -616 2716 -925 
Q 2228 -1381 1444 -1381 
Q 841 -1381 425 -1109 
Q 191 -953 191 -784 
Q 191 -709 225 -634 
Q 278 -519 444 -313 
Q 466 -284 763 25 
Q 600 122 533 198 
Q 466 275 466 372 
Q 466 481 555 628 
Q 644 775 966 1044 
z
M 1509 2797 
Q 1278 2797 1122 2612 
Q 966 2428 966 2047 
Q 966 1553 1178 1281 
Q 1341 1075 1591 1075 
Q 1828 1075 1981 1253 
Q 2134 1431 2134 1813 
Q 2134 2309 1919 2591 
Q 1759 2797 1509 2797 
z
M 934 0 
Q 788 -159 713 -296 
Q 638 -434 638 -550 
Q 638 -700 819 -813 
Q 1131 -1006 1722 -1006 
Q 2284 -1006 2551 -807 
Q 2819 -609 2819 -384 
Q 2819 -222 2659 -153 
Q 2497 -84 2016 -72 
Q 1313 -53 934 0 
z
" id="TimesNewRomanPSMT-67" transform="scale(0.015625)"/>
       <path d="M 1031 3803 
L 1031 2863 
L 1700 2863 
L 1700 2644 
L 1031 2644 
L 1031 788 
Q 1031 509 1111 412 
Q 1191 316 1316 316 
Q 1419 316 1516 380 
Q 1613 444 1666 569 
L 1788 569 
Q 1678 263 1478 108 
Q 1278 -47 1066 -47 
Q 922 -47 784 33 
Q 647 113 581 261 
Q 516 409 516 719 
L 516 2644 
L 63 2644 
L 63 2747 
Q 234 2816 414 2980 
Q 594 3144 734 3369 
Q 806 3488 934 3803 
L 1031 3803 
z
" id="TimesNewRomanPSMT-74" transform="scale(0.015625)"/>
       <path d="M 1041 4444 
L 1041 2350 
Q 1388 2731 1591 2839 
Q 1794 2947 1997 2947 
Q 2241 2947 2416 2812 
Q 2591 2678 2675 2391 
Q 2734 2191 2734 1659 
L 2734 647 
Q 2734 375 2778 275 
Q 2809 200 2884 156 
Q 2959 113 3159 113 
L 3159 0 
L 1753 0 
L 1753 113 
L 1819 113 
Q 2019 113 2097 173 
Q 2175 234 2206 353 
Q 2216 403 2216 647 
L 2216 1659 
Q 2216 2128 2167 2275 
Q 2119 2422 2012 2495 
Q 1906 2569 1756 2569 
Q 1603 2569 1437 2487 
Q 1272 2406 1041 2159 
L 1041 647 
Q 1041 353 1073 281 
Q 1106 209 1195 161 
Q 1284 113 1503 113 
L 1503 0 
L 84 0 
L 84 113 
Q 275 113 384 172 
Q 447 203 484 290 
Q 522 378 522 647 
L 522 3238 
Q 522 3728 498 3840 
Q 475 3953 426 3993 
Q 378 4034 297 4034 
Q 231 4034 84 3984 
L 41 4094 
L 897 4444 
L 1041 4444 
z
" id="TimesNewRomanPSMT-68" transform="scale(0.015625)"/>
       <path d="M 1900 -1269 
L 525 -1269 
L 525 4334 
L 1900 4334 
L 1900 4088 
L 994 4088 
L 994 -1025 
L 1900 -1025 
L 1900 -1269 
z
" id="TimesNewRomanPSMT-5b" transform="scale(0.015625)"/>
       <path d="M 234 4334 
L 1609 4334 
L 1609 -1272 
L 234 -1272 
L 234 -1025 
L 1141 -1025 
L 1141 4088 
L 234 4088 
L 234 4334 
z
" id="TimesNewRomanPSMT-5d" transform="scale(0.015625)"/>
      </defs>
      <use xlink:href="#TimesNewRomanPSMT-42"/>
      <use x="66.699219" xlink:href="#TimesNewRomanPSMT-65"/>
      <use x="111.083984" xlink:href="#TimesNewRomanPSMT-61"/>
      <use x="155.46875" xlink:href="#TimesNewRomanPSMT-6d"/>
      <use x="233.251953" xlink:href="#TimesNewRomanPSMT-20"/>
      <use x="258.251953" xlink:href="#TimesNewRomanPSMT-4c"/>
      <use x="319.335938" xlink:href="#TimesNewRomanPSMT-65"/>
      <use x="363.720703" xlink:href="#TimesNewRomanPSMT-6e"/>
      <use x="413.720703" xlink:href="#TimesNewRomanPSMT-67"/>
      <use x="463.720703" xlink:href="#TimesNewRomanPSMT-74"/>
      <use x="491.503906" xlink:href="#TimesNewRomanPSMT-68"/>
      <use x="541.503906" xlink:href="#TimesNewRomanPSMT-20"/>
      <use x="566.503906" xlink:href="#TimesNewRomanPSMT-5b"/>
      <use x="599.804688" xlink:href="#TimesNewRomanPSMT-6d"/>
      <use x="677.587891" xlink:href="#TimesNewRomanPSMT-5d"/>
     </g>
    </g>
   </g>
   <g id="matplotlib.axis_2">
    <g id="ytick_1">
     <g id="line2d_9">
      <defs>
       <path d="M 0 0 
L -3.5 0 
" id="maf8e54b986" style="stroke:#000000;stroke-width:0.8;"/>
      </defs>
      <g>
       <use style="stroke:#000000;stroke-width:0.8;" x="87.162969" xlink:href="#maf8e54b986" y="407.407482"/>
      </g>
     </g>
     <g id="text_10">
      <!-- −1.0 -->
      <g transform="translate(34.815313 416.087169)scale(0.25 -0.25)">
       <defs>
        <path d="M 3484 2000 
L 116 2000 
L 116 2256 
L 3484 2256 
L 3484 2000 
z
" id="TimesNewRomanPSMT-2212" transform="scale(0.015625)"/>
       </defs>
       <use xlink:href="#TimesNewRomanPSMT-2212"/>
       <use x="56.396484" xlink:href="#TimesNewRomanPSMT-31"/>
       <use x="106.396484" xlink:href="#TimesNewRomanPSMT-2e"/>
       <use x="131.396484" xlink:href="#TimesNewRomanPSMT-30"/>
      </g>
     </g>
    </g>
    <g id="ytick_2">
     <g id="line2d_10">
      <g>
       <use style="stroke:#000000;stroke-width:0.8;" x="87.162969" xlink:href="#maf8e54b986" y="337.012124"/>
      </g>
     </g>
     <g id="text_11">
      <!-- −0.5 -->
      <g transform="translate(34.815313 345.691811)scale(0.25 -0.25)">
       <defs>
        <path d="M 2778 4238 
L 2534 3706 
L 1259 3706 
L 981 3138 
Q 1809 3016 2294 2522 
Q 2709 2097 2709 1522 
Q 2709 1188 2573 903 
Q 2438 619 2231 419 
Q 2025 219 1772 97 
Q 1413 -75 1034 -75 
Q 653 -75 479 54 
Q 306 184 306 341 
Q 306 428 378 495 
Q 450 563 559 563 
Q 641 563 702 538 
Q 763 513 909 409 
Q 1144 247 1384 247 
Q 1750 247 2026 523 
Q 2303 800 2303 1197 
Q 2303 1581 2056 1914 
Q 1809 2247 1375 2428 
Q 1034 2569 447 2591 
L 1259 4238 
L 2778 4238 
z
" id="TimesNewRomanPSMT-35" transform="scale(0.015625)"/>
       </defs>
       <use xlink:href="#TimesNewRomanPSMT-2212"/>
       <use x="56.396484" xlink:href="#TimesNewRomanPSMT-30"/>
       <use x="106.396484" xlink:href="#TimesNewRomanPSMT-2e"/>
       <use x="131.396484" xlink:href="#TimesNewRomanPSMT-35"/>
      </g>
     </g>
    </g>
    <g id="ytick_3">
     <g id="line2d_11">
      <g>
       <use style="stroke:#000000;stroke-width:0.8;" x="87.162969" xlink:href="#maf8e54b986" y="266.616766"/>
      </g>
     </g>
     <g id="text_12">
      <!-- 0.0 -->
      <g transform="translate(48.912969 275.296453)scale(0.25 -0.25)">
       <use xlink:href="#TimesNewRomanPSMT-30"/>
       <use x="50" xlink:href="#TimesNewRomanPSMT-2e"/>
       <use x="75" xlink:href="#TimesNewRomanPSMT-30"/>
      </g>
     </g>
    </g>
    <g id="ytick_4">
     <g id="line2d_12">
      <g>
       <use style="stroke:#000000;stroke-width:0.8;" x="87.162969" xlink:href="#maf8e54b986" y="196.221408"/>
      </g>
     </g>
     <g id="text_13">
      <!-- 0.5 -->
      <g transform="translate(48.912969 204.901096)scale(0.25 -0.25)">
       <use xlink:href="#TimesNewRomanPSMT-30"/>
       <use x="50" xlink:href="#TimesNewRomanPSMT-2e"/>
       <use x="75" xlink:href="#TimesNewRomanPSMT-35"/>
      </g>
     </g>
    </g>
    <g id="ytick_5">
     <g id="line2d_13">
      <g>
       <use style="stroke:#000000;stroke-width:0.8;" x="87.162969" xlink:href="#maf8e54b986" y="125.82605"/>
      </g>
     </g>
     <g id="text_14">
      <!-- 1.0 -->
      <g transform="translate(48.912969 134.505738)scale(0.25 -0.25)">
       <use xlink:href="#TimesNewRomanPSMT-31"/>
       <use x="50" xlink:href="#TimesNewRomanPSMT-2e"/>
       <use x="75" xlink:href="#TimesNewRomanPSMT-30"/>
      </g>
     </g>
    </g>
    <g id="ytick_6">
     <g id="line2d_14">
      <g>
       <use style="stroke:#000000;stroke-width:0.8;" x="87.162969" xlink:href="#maf8e54b986" y="55.430692"/>
      </g>
     </g>
     <g id="text_15">
      <!-- 1.5 -->
      <g transform="translate(48.912969 64.11038)scale(0.25 -0.25)">
       <use xlink:href="#TimesNewRomanPSMT-31"/>
       <use x="50" xlink:href="#TimesNewRomanPSMT-2e"/>
       <use x="75" xlink:href="#TimesNewRomanPSMT-35"/>
      </g>
     </g>
    </g>
    <g id="text_16">
     <!-- Amplitude -->
     <g transform="translate(25.25375 280.245469)rotate(-90)scale(0.26 -0.26)">
      <defs>
       <path d="M 2928 1419 
L 1288 1419 
L 1000 750 
Q 894 503 894 381 
Q 894 284 986 211 
Q 1078 138 1384 116 
L 1384 0 
L 50 0 
L 50 116 
Q 316 163 394 238 
Q 553 388 747 847 
L 2238 4334 
L 2347 4334 
L 3822 809 
Q 4000 384 4145 257 
Q 4291 131 4550 116 
L 4550 0 
L 2878 0 
L 2878 116 
Q 3131 128 3220 200 
Q 3309 272 3309 375 
Q 3309 513 3184 809 
L 2928 1419 
z
M 2841 1650 
L 2122 3363 
L 1384 1650 
L 2841 1650 
z
" id="TimesNewRomanPSMT-41" transform="scale(0.015625)"/>
       <path d="M -6 2578 
L 875 2934 
L 994 2934 
L 994 2266 
Q 1216 2644 1439 2795 
Q 1663 2947 1909 2947 
Q 2341 2947 2628 2609 
Q 2981 2197 2981 1534 
Q 2981 794 2556 309 
Q 2206 -88 1675 -88 
Q 1444 -88 1275 -22 
Q 1150 25 994 166 
L 994 -706 
Q 994 -1000 1030 -1079 
Q 1066 -1159 1155 -1206 
Q 1244 -1253 1478 -1253 
L 1478 -1369 
L -22 -1369 
L -22 -1253 
L 56 -1253 
Q 228 -1256 350 -1188 
Q 409 -1153 442 -1076 
Q 475 -1000 475 -688 
L 475 2019 
Q 475 2297 450 2372 
Q 425 2447 370 2484 
Q 316 2522 222 2522 
Q 147 2522 31 2478 
L -6 2578 
z
M 994 2081 
L 994 1013 
Q 994 666 1022 556 
Q 1066 375 1236 237 
Q 1406 100 1666 100 
Q 1978 100 2172 344 
Q 2425 663 2425 1241 
Q 2425 1897 2138 2250 
Q 1938 2494 1663 2494 
Q 1513 2494 1366 2419 
Q 1253 2363 994 2081 
z
" id="TimesNewRomanPSMT-70" transform="scale(0.015625)"/>
       <path d="M 1184 4444 
L 1184 647 
Q 1184 378 1223 290 
Q 1263 203 1344 158 
Q 1425 113 1647 113 
L 1647 0 
L 244 0 
L 244 113 
Q 441 113 512 153 
Q 584 194 625 287 
Q 666 381 666 647 
L 666 3247 
Q 666 3731 644 3842 
Q 622 3953 573 3993 
Q 525 4034 450 4034 
Q 369 4034 244 3984 
L 191 4094 
L 1044 4444 
L 1184 4444 
z
" id="TimesNewRomanPSMT-6c" transform="scale(0.015625)"/>
       <path d="M 928 4444 
Q 1059 4444 1151 4351 
Q 1244 4259 1244 4128 
Q 1244 3997 1151 3903 
Q 1059 3809 928 3809 
Q 797 3809 703 3903 
Q 609 3997 609 4128 
Q 609 4259 701 4351 
Q 794 4444 928 4444 
z
M 1188 2947 
L 1188 647 
Q 1188 378 1227 289 
Q 1266 200 1342 156 
Q 1419 113 1622 113 
L 1622 0 
L 231 0 
L 231 113 
Q 441 113 512 153 
Q 584 194 626 287 
Q 669 381 669 647 
L 669 1750 
Q 669 2216 641 2353 
Q 619 2453 572 2492 
Q 525 2531 444 2531 
Q 356 2531 231 2484 
L 188 2597 
L 1050 2947 
L 1188 2947 
z
" id="TimesNewRomanPSMT-69" transform="scale(0.015625)"/>
       <path d="M 2709 2863 
L 2709 1128 
Q 2709 631 2732 520 
Q 2756 409 2807 365 
Q 2859 322 2928 322 
Q 3025 322 3147 375 
L 3191 266 
L 2334 -88 
L 2194 -88 
L 2194 519 
Q 1825 119 1631 15 
Q 1438 -88 1222 -88 
Q 981 -88 804 51 
Q 628 191 559 409 
Q 491 628 491 1028 
L 491 2306 
Q 491 2509 447 2587 
Q 403 2666 317 2708 
Q 231 2750 6 2747 
L 6 2863 
L 1009 2863 
L 1009 947 
Q 1009 547 1148 422 
Q 1288 297 1484 297 
Q 1619 297 1789 381 
Q 1959 466 2194 703 
L 2194 2325 
Q 2194 2569 2105 2655 
Q 2016 2741 1734 2747 
L 1734 2863 
L 2709 2863 
z
" id="TimesNewRomanPSMT-75" transform="scale(0.015625)"/>
       <path d="M 2222 322 
Q 2013 103 1813 7 
Q 1613 -88 1381 -88 
Q 913 -88 563 304 
Q 213 697 213 1313 
Q 213 1928 600 2439 
Q 988 2950 1597 2950 
Q 1975 2950 2222 2709 
L 2222 3238 
Q 2222 3728 2198 3840 
Q 2175 3953 2125 3993 
Q 2075 4034 2000 4034 
Q 1919 4034 1784 3984 
L 1744 4094 
L 2597 4444 
L 2738 4444 
L 2738 1134 
Q 2738 631 2761 520 
Q 2784 409 2836 365 
Q 2888 322 2956 322 
Q 3041 322 3181 375 
L 3216 266 
L 2366 -88 
L 2222 -88 
L 2222 322 
z
M 2222 541 
L 2222 2016 
Q 2203 2228 2109 2403 
Q 2016 2578 1861 2667 
Q 1706 2756 1559 2756 
Q 1284 2756 1069 2509 
Q 784 2184 784 1559 
Q 784 928 1059 592 
Q 1334 256 1672 256 
Q 1956 256 2222 541 
z
" id="TimesNewRomanPSMT-64" transform="scale(0.015625)"/>
      </defs>
      <use xlink:href="#TimesNewRomanPSMT-41"/>
      <use x="72.216797" xlink:href="#TimesNewRomanPSMT-6d"/>
      <use x="150" xlink:href="#TimesNewRomanPSMT-70"/>
      <use x="200" xlink:href="#TimesNewRomanPSMT-6c"/>
      <use x="227.783203" xlink:href="#TimesNewRomanPSMT-69"/>
      <use x="255.566406" xlink:href="#TimesNewRomanPSMT-74"/>
      <use x="283.349609" xlink:href="#TimesNewRomanPSMT-75"/>
      <use x="333.349609" xlink:href="#TimesNewRomanPSMT-64"/>
      <use x="383.349609" xlink:href="#TimesNewRomanPSMT-65"/>
     </g>
    </g>
   </g>
   <g id="line2d_15">
    <defs>
     <path d="M 0 -3 
L -3 3 
L 3 3 
z
" id="m9a68a0a183" style="stroke:#000000;stroke-linejoin:miter;"/>
    </defs>
    <g clip-path="url(#pebebb3acf2)">
     <use style="stroke:#000000;stroke-linejoin:miter;" x="125.208423" xlink:href="#m9a68a0a183" y="266.616766"/>
     <use style="stroke:#000000;stroke-linejoin:miter;" x="130.281151" xlink:href="#m9a68a0a183" y="266.786432"/>
     <use style="stroke:#000000;stroke-linejoin:miter;" x="135.353878" xlink:href="#m9a68a0a183" y="267.28538"/>
     <use style="stroke:#000000;stroke-linejoin:miter;" x="140.426605" xlink:href="#m9a68a0a183" y="268.099013"/>
     <use style="stroke:#000000;stroke-linejoin:miter;" x="145.499332" xlink:href="#m9a68a0a183" y="269.212214"/>
     <use style="stroke:#000000;stroke-linejoin:miter;" x="150.57206" xlink:href="#m9a68a0a183" y="270.60945"/>
     <use style="stroke:#000000;stroke-linejoin:miter;" x="155.644787" xlink:href="#m9a68a0a183" y="272.274884"/>
     <use style="stroke:#000000;stroke-linejoin:miter;" x="160.717514" xlink:href="#m9a68a0a183" y="274.192468"/>
     <use style="stroke:#000000;stroke-linejoin:miter;" x="165.790241" xlink:href="#m9a68a0a183" y="276.346039"/>
     <use style="stroke:#000000;stroke-linejoin:miter;" x="170.862969" xlink:href="#m9a68a0a183" y="278.719391"/>
     <use style="stroke:#000000;stroke-linejoin:miter;" x="175.935696" xlink:href="#m9a68a0a183" y="281.296359"/>
     <use style="stroke:#000000;stroke-linejoin:miter;" x="181.008423" xlink:href="#m9a68a0a183" y="284.060872"/>
     <use style="stroke:#000000;stroke-linejoin:miter;" x="186.081151" xlink:href="#m9a68a0a183" y="286.997044"/>
     <use style="stroke:#000000;stroke-linejoin:miter;" x="191.153878" xlink:href="#m9a68a0a183" y="290.089186"/>
     <use style="stroke:#000000;stroke-linejoin:miter;" x="196.226605" xlink:href="#m9a68a0a183" y="293.32188"/>
     <use style="stroke:#000000;stroke-linejoin:miter;" x="201.299332" xlink:href="#m9a68a0a183" y="296.680044"/>
     <use style="stroke:#000000;stroke-linejoin:miter;" x="206.37206" xlink:href="#m9a68a0a183" y="300.148923"/>
     <use style="stroke:#000000;stroke-linejoin:miter;" x="211.444787" xlink:href="#m9a68a0a183" y="303.714121"/>
     <use style="stroke:#000000;stroke-linejoin:miter;" x="216.517514" xlink:href="#m9a68a0a183" y="307.361668"/>
     <use style="stroke:#000000;stroke-linejoin:miter;" x="221.590241" xlink:href="#m9a68a0a183" y="311.078032"/>
     <use style="stroke:#000000;stroke-linejoin:miter;" x="226.662969" xlink:href="#m9a68a0a183" y="314.850108"/>
     <use style="stroke:#000000;stroke-linejoin:miter;" x="231.735696" xlink:href="#m9a68a0a183" y="318.665259"/>
     <use style="stroke:#000000;stroke-linejoin:miter;" x="236.808423" xlink:href="#m9a68a0a183" y="322.5113"/>
     <use style="stroke:#000000;stroke-linejoin:miter;" x="241.881151" xlink:href="#m9a68a0a183" y="326.37655"/>
     <use style="stroke:#000000;stroke-linejoin:miter;" x="246.953878" xlink:href="#m9a68a0a183" y="330.249798"/>
     <use style="stroke:#000000;stroke-linejoin:miter;" x="252.026605" xlink:href="#m9a68a0a183" y="334.120326"/>
     <use style="stroke:#000000;stroke-linejoin:miter;" x="257.099332" xlink:href="#m9a68a0a183" y="337.977895"/>
     <use style="stroke:#000000;stroke-linejoin:miter;" x="262.17206" xlink:href="#m9a68a0a183" y="341.812758"/>
     <use style="stroke:#000000;stroke-linejoin:miter;" x="267.244787" xlink:href="#m9a68a0a183" y="345.615619"/>
     <use style="stroke:#000000;stroke-linejoin:miter;" x="272.317514" xlink:href="#m9a68a0a183" y="349.377691"/>
     <use style="stroke:#000000;stroke-linejoin:miter;" x="277.390241" xlink:href="#m9a68a0a183" y="353.090635"/>
     <use style="stroke:#000000;stroke-linejoin:miter;" x="282.462969" xlink:href="#m9a68a0a183" y="356.746575"/>
     <use style="stroke:#000000;stroke-linejoin:miter;" x="287.535696" xlink:href="#m9a68a0a183" y="360.33809"/>
     <use style="stroke:#000000;stroke-linejoin:miter;" x="292.608423" xlink:href="#m9a68a0a183" y="363.858168"/>
     <use style="stroke:#000000;stroke-linejoin:miter;" x="297.681151" xlink:href="#m9a68a0a183" y="367.300276"/>
     <use style="stroke:#000000;stroke-linejoin:miter;" x="302.753878" xlink:href="#m9a68a0a183" y="370.658219"/>
     <use style="stroke:#000000;stroke-linejoin:miter;" x="307.826605" xlink:href="#m9a68a0a183" y="373.926309"/>
     <use style="stroke:#000000;stroke-linejoin:miter;" x="312.899332" xlink:href="#m9a68a0a183" y="377.099155"/>
     <use style="stroke:#000000;stroke-linejoin:miter;" x="317.97206" xlink:href="#m9a68a0a183" y="380.171799"/>
     <use style="stroke:#000000;stroke-linejoin:miter;" x="323.044787" xlink:href="#m9a68a0a183" y="383.139611"/>
     <use style="stroke:#000000;stroke-linejoin:miter;" x="328.117514" xlink:href="#m9a68a0a183" y="385.998282"/>
     <use style="stroke:#000000;stroke-linejoin:miter;" x="333.190241" xlink:href="#m9a68a0a183" y="388.744011"/>
     <use style="stroke:#000000;stroke-linejoin:miter;" x="338.262969" xlink:href="#m9a68a0a183" y="391.373235"/>
     <use style="stroke:#000000;stroke-linejoin:miter;" x="343.335696" xlink:href="#m9a68a0a183" y="393.882506"/>
     <use style="stroke:#000000;stroke-linejoin:miter;" x="348.408423" xlink:href="#m9a68a0a183" y="396.26881"/>
     <use style="stroke:#000000;stroke-linejoin:miter;" x="353.481151" xlink:href="#m9a68a0a183" y="398.529571"/>
     <use style="stroke:#000000;stroke-linejoin:miter;" x="358.553878" xlink:href="#m9a68a0a183" y="400.662438"/>
     <use style="stroke:#000000;stroke-linejoin:miter;" x="363.626605" xlink:href="#m9a68a0a183" y="402.665087"/>
     <use style="stroke:#000000;stroke-linejoin:miter;" x="368.699332" xlink:href="#m9a68a0a183" y="404.535562"/>
     <use style="stroke:#000000;stroke-linejoin:miter;" x="373.77206" xlink:href="#m9a68a0a183" y="406.272371"/>
     <use style="stroke:#000000;stroke-linejoin:miter;" x="378.844787" xlink:href="#m9a68a0a183" y="407.873837"/>
     <use style="stroke:#000000;stroke-linejoin:miter;" x="383.917514" xlink:href="#m9a68a0a183" y="409.338975"/>
     <use style="stroke:#000000;stroke-linejoin:miter;" x="388.990241" xlink:href="#m9a68a0a183" y="410.666547"/>
     <use style="stroke:#000000;stroke-linejoin:miter;" x="394.062969" xlink:href="#m9a68a0a183" y="411.855821"/>
     <use style="stroke:#000000;stroke-linejoin:miter;" x="399.135696" xlink:href="#m9a68a0a183" y="412.906077"/>
     <use style="stroke:#000000;stroke-linejoin:miter;" x="404.208423" xlink:href="#m9a68a0a183" y="413.81674"/>
     <use style="stroke:#000000;stroke-linejoin:miter;" x="409.281151" xlink:href="#m9a68a0a183" y="414.587639"/>
     <use style="stroke:#000000;stroke-linejoin:miter;" x="414.353878" xlink:href="#m9a68a0a183" y="415.218579"/>
     <use style="stroke:#000000;stroke-linejoin:miter;" x="419.426605" xlink:href="#m9a68a0a183" y="415.709389"/>
     <use style="stroke:#000000;stroke-linejoin:miter;" x="424.499332" xlink:href="#m9a68a0a183" y="416.060282"/>
     <use style="stroke:#000000;stroke-linejoin:miter;" x="429.57206" xlink:href="#m9a68a0a183" y="416.271623"/>
     <use style="stroke:#000000;stroke-linejoin:miter;" x="434.644787" xlink:href="#m9a68a0a183" y="416.343637"/>
     <use style="stroke:#000000;stroke-linejoin:miter;" x="439.717514" xlink:href="#m9a68a0a183" y="416.27679"/>
     <use style="stroke:#000000;stroke-linejoin:miter;" x="444.790241" xlink:href="#m9a68a0a183" y="416.071559"/>
     <use style="stroke:#000000;stroke-linejoin:miter;" x="449.862969" xlink:href="#m9a68a0a183" y="415.729016"/>
     <use style="stroke:#000000;stroke-linejoin:miter;" x="454.935696" xlink:href="#m9a68a0a183" y="415.24944"/>
     <use style="stroke:#000000;stroke-linejoin:miter;" x="460.008423" xlink:href="#m9a68a0a183" y="414.634185"/>
     <use style="stroke:#000000;stroke-linejoin:miter;" x="465.081151" xlink:href="#m9a68a0a183" y="413.883812"/>
     <use style="stroke:#000000;stroke-linejoin:miter;" x="470.153878" xlink:href="#m9a68a0a183" y="412.999633"/>
     <use style="stroke:#000000;stroke-linejoin:miter;" x="475.226605" xlink:href="#m9a68a0a183" y="411.982518"/>
     <use style="stroke:#000000;stroke-linejoin:miter;" x="480.299332" xlink:href="#m9a68a0a183" y="410.833877"/>
     <use style="stroke:#000000;stroke-linejoin:miter;" x="485.37206" xlink:href="#m9a68a0a183" y="409.554723"/>
     <use style="stroke:#000000;stroke-linejoin:miter;" x="490.444787" xlink:href="#m9a68a0a183" y="408.146605"/>
     <use style="stroke:#000000;stroke-linejoin:miter;" x="495.517514" xlink:href="#m9a68a0a183" y="406.610663"/>
     <use style="stroke:#000000;stroke-linejoin:miter;" x="500.590241" xlink:href="#m9a68a0a183" y="404.948417"/>
     <use style="stroke:#000000;stroke-linejoin:miter;" x="505.662969" xlink:href="#m9a68a0a183" y="403.161163"/>
     <use style="stroke:#000000;stroke-linejoin:miter;" x="510.735696" xlink:href="#m9a68a0a183" y="401.25069"/>
     <use style="stroke:#000000;stroke-linejoin:miter;" x="515.808423" xlink:href="#m9a68a0a183" y="399.218277"/>
     <use style="stroke:#000000;stroke-linejoin:miter;" x="520.881151" xlink:href="#m9a68a0a183" y="397.065573"/>
     <use style="stroke:#000000;stroke-linejoin:miter;" x="525.953878" xlink:href="#m9a68a0a183" y="394.794253"/>
     <use style="stroke:#000000;stroke-linejoin:miter;" x="531.026605" xlink:href="#m9a68a0a183" y="392.405978"/>
     <use style="stroke:#000000;stroke-linejoin:miter;" x="536.099332" xlink:href="#m9a68a0a183" y="389.902423"/>
     <use style="stroke:#000000;stroke-linejoin:miter;" x="541.17206" xlink:href="#m9a68a0a183" y="387.285222"/>
     <use style="stroke:#000000;stroke-linejoin:miter;" x="546.244787" xlink:href="#m9a68a0a183" y="384.556177"/>
     <use style="stroke:#000000;stroke-linejoin:miter;" x="551.317514" xlink:href="#m9a68a0a183" y="381.71709"/>
     <use style="stroke:#000000;stroke-linejoin:miter;" x="556.390241" xlink:href="#m9a68a0a183" y="378.769594"/>
     <use style="stroke:#000000;stroke-linejoin:miter;" x="561.462969" xlink:href="#m9a68a0a183" y="375.715759"/>
     <use style="stroke:#000000;stroke-linejoin:miter;" x="566.535696" xlink:href="#m9a68a0a183" y="372.557218"/>
     <use style="stroke:#000000;stroke-linejoin:miter;" x="571.608423" xlink:href="#m9a68a0a183" y="369.296054"/>
     <use style="stroke:#000000;stroke-linejoin:miter;" x="576.681151" xlink:href="#m9a68a0a183" y="365.933874"/>
     <use style="stroke:#000000;stroke-linejoin:miter;" x="581.753878" xlink:href="#m9a68a0a183" y="362.472618"/>
     <use style="stroke:#000000;stroke-linejoin:miter;" x="586.826605" xlink:href="#m9a68a0a183" y="358.914316"/>
     <use style="stroke:#000000;stroke-linejoin:miter;" x="591.899332" xlink:href="#m9a68a0a183" y="355.260881"/>
     <use style="stroke:#000000;stroke-linejoin:miter;" x="596.97206" xlink:href="#m9a68a0a183" y="351.514243"/>
     <use style="stroke:#000000;stroke-linejoin:miter;" x="602.044787" xlink:href="#m9a68a0a183" y="347.676274"/>
     <use style="stroke:#000000;stroke-linejoin:miter;" x="607.117514" xlink:href="#m9a68a0a183" y="343.748889"/>
     <use style="stroke:#000000;stroke-linejoin:miter;" x="612.190241" xlink:href="#m9a68a0a183" y="339.734284"/>
     <use style="stroke:#000000;stroke-linejoin:miter;" x="617.262969" xlink:href="#m9a68a0a183" y="335.634191"/>
     <use style="stroke:#000000;stroke-linejoin:miter;" x="622.335696" xlink:href="#m9a68a0a183" y="331.450806"/>
     <use style="stroke:#000000;stroke-linejoin:miter;" x="627.408423" xlink:href="#m9a68a0a183" y="327.186157"/>
     <use style="stroke:#000000;stroke-linejoin:miter;" x="632.481151" xlink:href="#m9a68a0a183" y="322.841989"/>
     <use style="stroke:#000000;stroke-linejoin:miter;" x="637.553878" xlink:href="#m9a68a0a183" y="318.420485"/>
     <use style="stroke:#000000;stroke-linejoin:miter;" x="642.626605" xlink:href="#m9a68a0a183" y="313.923756"/>
     <use style="stroke:#000000;stroke-linejoin:miter;" x="647.699332" xlink:href="#m9a68a0a183" y="309.353703"/>
     <use style="stroke:#000000;stroke-linejoin:miter;" x="652.77206" xlink:href="#m9a68a0a183" y="304.712397"/>
     <use style="stroke:#000000;stroke-linejoin:miter;" x="657.844787" xlink:href="#m9a68a0a183" y="300.001877"/>
     <use style="stroke:#000000;stroke-linejoin:miter;" x="662.917514" xlink:href="#m9a68a0a183" y="295.2242"/>
     <use style="stroke:#000000;stroke-linejoin:miter;" x="667.990241" xlink:href="#m9a68a0a183" y="290.38138"/>
     <use style="stroke:#000000;stroke-linejoin:miter;" x="673.062969" xlink:href="#m9a68a0a183" y="285.475485"/>
     <use style="stroke:#000000;stroke-linejoin:miter;" x="678.135696" xlink:href="#m9a68a0a183" y="280.508558"/>
     <use style="stroke:#000000;stroke-linejoin:miter;" x="683.208423" xlink:href="#m9a68a0a183" y="275.482639"/>
     <use style="stroke:#000000;stroke-linejoin:miter;" x="688.281151" xlink:href="#m9a68a0a183" y="270.39977"/>
     <use style="stroke:#000000;stroke-linejoin:miter;" x="693.353878" xlink:href="#m9a68a0a183" y="265.262007"/>
     <use style="stroke:#000000;stroke-linejoin:miter;" x="698.426605" xlink:href="#m9a68a0a183" y="260.071349"/>
     <use style="stroke:#000000;stroke-linejoin:miter;" x="703.499332" xlink:href="#m9a68a0a183" y="254.829866"/>
     <use style="stroke:#000000;stroke-linejoin:miter;" x="708.57206" xlink:href="#m9a68a0a183" y="249.539556"/>
     <use style="stroke:#000000;stroke-linejoin:miter;" x="713.644787" xlink:href="#m9a68a0a183" y="244.202433"/>
     <use style="stroke:#000000;stroke-linejoin:miter;" x="718.717514" xlink:href="#m9a68a0a183" y="238.820511"/>
     <use style="stroke:#000000;stroke-linejoin:miter;" x="723.790241" xlink:href="#m9a68a0a183" y="233.395775"/>
     <use style="stroke:#000000;stroke-linejoin:miter;" x="728.862969" xlink:href="#m9a68a0a183" y="227.930209"/>
     <use style="stroke:#000000;stroke-linejoin:miter;" x="733.935696" xlink:href="#m9a68a0a183" y="222.42577"/>
     <use style="stroke:#000000;stroke-linejoin:miter;" x="739.008423" xlink:href="#m9a68a0a183" y="216.884417"/>
     <use style="stroke:#000000;stroke-linejoin:miter;" x="744.081151" xlink:href="#m9a68a0a183" y="211.308048"/>
     <use style="stroke:#000000;stroke-linejoin:miter;" x="749.153878" xlink:href="#m9a68a0a183" y="205.698608"/>
     <use style="stroke:#000000;stroke-linejoin:miter;" x="754.226605" xlink:href="#m9a68a0a183" y="200.057941"/>
     <use style="stroke:#000000;stroke-linejoin:miter;" x="759.299332" xlink:href="#m9a68a0a183" y="194.387947"/>
     <use style="stroke:#000000;stroke-linejoin:miter;" x="764.37206" xlink:href="#m9a68a0a183" y="188.690414"/>
     <use style="stroke:#000000;stroke-linejoin:miter;" x="769.444787" xlink:href="#m9a68a0a183" y="182.967159"/>
     <use style="stroke:#000000;stroke-linejoin:miter;" x="774.517514" xlink:href="#m9a68a0a183" y="177.219941"/>
     <use style="stroke:#000000;stroke-linejoin:miter;" x="779.590241" xlink:href="#m9a68a0a183" y="171.450478"/>
     <use style="stroke:#000000;stroke-linejoin:miter;" x="784.662969" xlink:href="#m9a68a0a183" y="165.660502"/>
     <use style="stroke:#000000;stroke-linejoin:miter;" x="789.735696" xlink:href="#m9a68a0a183" y="159.851618"/>
     <use style="stroke:#000000;stroke-linejoin:miter;" x="794.808423" xlink:href="#m9a68a0a183" y="154.025445"/>
     <use style="stroke:#000000;stroke-linejoin:miter;" x="799.881151" xlink:href="#m9a68a0a183" y="148.18354"/>
     <use style="stroke:#000000;stroke-linejoin:miter;" x="804.953878" xlink:href="#m9a68a0a183" y="142.327404"/>
     <use style="stroke:#000000;stroke-linejoin:miter;" x="810.026605" xlink:href="#m9a68a0a183" y="136.458485"/>
     <use style="stroke:#000000;stroke-linejoin:miter;" x="815.099332" xlink:href="#m9a68a0a183" y="130.578176"/>
     <use style="stroke:#000000;stroke-linejoin:miter;" x="820.17206" xlink:href="#m9a68a0a183" y="124.687821"/>
     <use style="stroke:#000000;stroke-linejoin:miter;" x="825.244787" xlink:href="#m9a68a0a183" y="118.788673"/>
     <use style="stroke:#000000;stroke-linejoin:miter;" x="830.317514" xlink:href="#m9a68a0a183" y="112.881921"/>
     <use style="stroke:#000000;stroke-linejoin:miter;" x="835.390241" xlink:href="#m9a68a0a183" y="106.968711"/>
     <use style="stroke:#000000;stroke-linejoin:miter;" x="840.462969" xlink:href="#m9a68a0a183" y="101.05008"/>
     <use style="stroke:#000000;stroke-linejoin:miter;" x="845.535696" xlink:href="#m9a68a0a183" y="95.127043"/>
     <use style="stroke:#000000;stroke-linejoin:miter;" x="850.608423" xlink:href="#m9a68a0a183" y="89.200303"/>
     <use style="stroke:#000000;stroke-linejoin:miter;" x="855.681151" xlink:href="#m9a68a0a183" y="83.270944"/>
     <use style="stroke:#000000;stroke-linejoin:miter;" x="860.753878" xlink:href="#m9a68a0a183" y="77.339403"/>
     <use style="stroke:#000000;stroke-linejoin:miter;" x="865.826605" xlink:href="#m9a68a0a183" y="71.406553"/>
     <use style="stroke:#000000;stroke-linejoin:miter;" x="870.899332" xlink:href="#m9a68a0a183" y="65.472618"/>
     <use style="stroke:#000000;stroke-linejoin:miter;" x="875.97206" xlink:href="#m9a68a0a183" y="59.538135"/>
     <use style="stroke:#000000;stroke-linejoin:miter;" x="881.044787" xlink:href="#m9a68a0a183" y="53.603384"/>
     <use style="stroke:#000000;stroke-linejoin:miter;" x="886.117514" xlink:href="#m9a68a0a183" y="47.668703"/>
    </g>
   </g>
   <g id="line2d_16">
    <path clip-path="url(#pebebb3acf2)" d="M 125.208423 266.616766 
L 130.281151 266.786313 
L 135.353878 267.28501 
L 140.426605 268.098554 
L 145.499332 269.212206 
L 150.57206 270.610882 
L 155.644787 272.279241 
L 160.717514 274.201762 
L 165.790241 276.362826 
L 170.862969 278.746772 
L 175.935696 281.33798 
L 181.008423 284.120893 
L 186.081151 287.080125 
L 191.153878 290.200437 
L 201.299332 296.864626 
L 211.444787 303.996869 
L 221.590241 311.485769 
L 236.808423 323.158795 
L 272.317514 350.819009 
L 282.462969 358.466449 
L 292.608423 365.874108 
L 302.753878 372.983955 
L 312.899332 379.744331 
L 323.044787 386.109521 
L 333.190241 392.03957 
L 343.335696 397.499743 
L 348.408423 400.044198 
L 353.481151 402.460406 
L 358.553878 404.745467 
L 363.626605 406.896594 
L 368.699332 408.911408 
L 373.77206 410.787529 
L 378.844787 412.523281 
L 383.917514 414.119088 
L 388.990241 415.576356 
L 394.062969 416.89365 
L 399.135696 418.069816 
L 404.208423 419.103656 
L 409.281151 419.994721 
L 414.353878 420.742094 
L 419.426605 421.345298 
L 424.499332 421.804248 
L 429.57206 422.118464 
L 434.644787 422.28785 
L 439.717514 422.312727 
L 444.790241 422.193027 
L 449.862969 421.929073 
L 454.935696 421.5213 
L 460.008423 420.970302 
L 465.081151 420.276556 
L 470.153878 419.440892 
L 475.226605 418.464058 
L 480.299332 417.346757 
L 485.37206 416.09013 
L 490.444787 414.695147 
L 495.517514 413.162964 
L 500.590241 411.494664 
L 505.662969 409.691529 
L 510.735696 407.754953 
L 515.808423 405.686174 
L 520.881151 403.486742 
L 525.953878 401.158021 
L 531.026605 398.701533 
L 541.17206 393.411913 
L 551.317514 387.630976 
L 561.462969 381.372617 
L 571.608423 374.651381 
L 581.753878 367.482346 
L 591.899332 359.880957 
L 602.044787 351.863348 
L 612.190241 343.44602 
L 622.335696 334.645868 
L 632.481151 325.479914 
L 642.626605 315.961251 
L 652.77206 306.10362 
L 662.917514 295.925479 
L 673.062969 285.445469 
L 683.208423 274.682342 
L 693.353878 263.654867 
L 703.499332 252.381881 
L 718.717514 235.052994 
L 733.935696 217.276463 
L 749.153878 199.113841 
L 764.37206 180.624908 
L 784.662969 155.56412 
L 804.953878 130.151782 
L 835.390241 91.617496 
L 886.117514 26.967273 
L 886.117514 26.967273 
" style="fill:none;stroke:#0000ff;stroke-linecap:square;stroke-width:3;"/>
   </g>
   <g id="line2d_17">
    <path clip-path="url(#pebebb3acf2)" d="M 125.208423 266.616766 
L 130.281151 266.78676 
L 135.353878 267.286634 
L 140.426605 268.101714 
L 145.499332 269.216802 
L 150.57206 270.616279 
L 155.644787 272.284222 
L 160.717514 274.204495 
L 165.790241 276.360843 
L 170.862969 278.736967 
L 175.935696 281.316613 
L 181.008423 284.083628 
L 186.081151 287.022032 
L 191.153878 290.116064 
L 201.299332 296.709323 
L 211.444787 303.743441 
L 221.590241 311.10451 
L 236.808423 322.527016 
L 267.244787 345.581751 
L 277.390241 353.030911 
L 287.535696 360.247548 
L 297.681151 367.173846 
L 307.826605 373.758909 
L 317.97206 379.95829 
L 328.117514 385.733652 
L 338.262969 391.052317 
L 343.335696 393.531599 
L 348.408423 395.886648 
L 353.481151 398.115154 
L 358.553878 400.214202 
L 363.626605 402.182175 
L 368.699332 404.01672 
L 373.77206 405.716458 
L 378.844787 407.279714 
L 383.917514 408.706431 
L 388.990241 409.99651 
L 394.062969 411.149122 
L 399.135696 412.163378 
L 404.208423 413.03911 
L 409.281151 413.775882 
L 414.353878 414.373356 
L 419.426605 414.831756 
L 424.499332 415.151027 
L 429.57206 415.331394 
L 434.644787 415.373336 
L 439.717514 415.27719 
L 444.790241 415.043604 
L 449.862969 414.673296 
L 454.935696 414.1669 
L 460.008423 413.52543 
L 465.081151 412.749743 
L 470.153878 411.840869 
L 475.226605 410.79982 
L 480.299332 409.627991 
L 485.37206 408.326409 
L 490.444787 406.896468 
L 495.517514 405.339449 
L 500.590241 403.656747 
L 505.662969 401.849754 
L 510.735696 399.920175 
L 520.881151 395.698749 
L 531.026605 391.005377 
L 541.17206 385.853226 
L 551.317514 380.256048 
L 561.462969 374.228052 
L 571.608423 367.783864 
L 581.753878 360.938436 
L 591.899332 353.706636 
L 602.044787 346.104262 
L 612.190241 338.146686 
L 622.335696 329.849804 
L 632.481151 321.229456 
L 642.626605 312.301551 
L 652.77206 303.081618 
L 662.917514 293.586016 
L 673.062969 283.831148 
L 683.208423 273.83336 
L 693.353878 263.608955 
L 708.57206 247.883069 
L 723.790241 231.738386 
L 739.008423 215.22845 
L 754.226605 198.405551 
L 774.517514 175.575125 
L 794.808423 152.390921 
L 820.17206 123.068867 
L 860.753878 75.748778 
L 886.117514 46.096465 
L 886.117514 46.096465 
" style="fill:none;stroke:#ff0000;stroke-linecap:square;stroke-width:3;"/>
   </g>
   <g id="patch_3">
    <path d="M 87.162969 442.08 
L 87.162969 7.2 
" style="fill:none;stroke:#000000;stroke-linecap:square;stroke-linejoin:miter;stroke-width:0.8;"/>
   </g>
   <g id="patch_4">
    <path d="M 87.162969 442.08 
L 924.162969 442.08 
" style="fill:none;stroke:#000000;stroke-linecap:square;stroke-linejoin:miter;stroke-width:0.8;"/>
   </g>
  </g>
 </g>
 <defs>
  <clipPath id="pebebb3acf2">
   <rect height="434.88" width="837" x="87.162969" y="7.2"/>
  </clipPath>
 </defs>
</svg>
