<?xml version="1.0" encoding="utf-8" standalone="no"?>
<!DOCTYPE svg PUBLIC "-//W3C//DTD SVG 1.1//EN"
  "http://www.w3.org/Graphics/SVG/1.1/DTD/svg11.dtd">
<svg height="506.651094pt" version="1.1" viewBox="0 0 917.265312 506.651094" width="917.265312pt" xmlns="http://www.w3.org/2000/svg" xmlns:xlink="http://www.w3.org/1999/xlink">
 <metadata>
  <rdf:RDF xmlns:cc="http://creativecommons.org/ns#" xmlns:dc="http://purl.org/dc/elements/1.1/" xmlns:rdf="http://www.w3.org/1999/02/22-rdf-syntax-ns#">
   <cc:Work>
    <dc:type rdf:resource="http://purl.org/dc/dcmitype/StillImage"/>
    <dc:date>2022-07-24T12:24:12.612676</dc:date>
    <dc:format>image/svg+xml</dc:format>
    <dc:creator>
     <cc:Agent>
      <dc:title>Matplotlib v3.4.3, https://matplotlib.org/</dc:title>
     </cc:Agent>
    </dc:creator>
   </cc:Work>
  </rdf:RDF>
 </metadata>
 <defs>
  <style type="text/css">*{stroke-linecap:butt;stroke-linejoin:round;}</style>
 </defs>
 <g id="figure_1">
  <g id="patch_1">
   <path d="M 0 506.651094 
L 917.265312 506.651094 
L 917.265312 0 
L 0 0 
z
" style="fill:#ffffff;"/>
  </g>
  <g id="axes_1">
   <g id="patch_2">
    <path d="M 73.065313 442.08 
L 910.065313 442.08 
L 910.065313 7.2 
L 73.065313 7.2 
z
" style="fill:#ffffff;"/>
   </g>
   <g id="matplotlib.axis_1">
    <g id="xtick_1">
     <g id="line2d_1">
      <defs>
       <path d="M 0 0 
L 0 3.5 
" id="mec74046a91" style="stroke:#000000;stroke-width:0.8;"/>
      </defs>
      <g>
       <use style="stroke:#000000;stroke-width:0.8;" x="111.110767" xlink:href="#mec74046a91" y="442.08"/>
      </g>
     </g>
     <g id="text_1">
      <!-- 0.0 -->
      <g transform="translate(95.485767 466.439375)scale(0.25 -0.25)">
       <defs>
        <path d="M 231 2094 
Q 231 2819 450 3342 
Q 669 3866 1031 4122 
Q 1313 4325 1613 4325 
Q 2100 4325 2488 3828 
Q 2972 3213 2972 2159 
Q 2972 1422 2759 906 
Q 2547 391 2217 158 
Q 1888 -75 1581 -75 
Q 975 -75 572 641 
Q 231 1244 231 2094 
z
M 844 2016 
Q 844 1141 1059 588 
Q 1238 122 1591 122 
Q 1759 122 1940 273 
Q 2122 425 2216 781 
Q 2359 1319 2359 2297 
Q 2359 3022 2209 3506 
Q 2097 3866 1919 4016 
Q 1791 4119 1609 4119 
Q 1397 4119 1231 3928 
Q 1006 3669 925 3112 
Q 844 2556 844 2016 
z
" id="TimesNewRomanPSMT-30" transform="scale(0.015625)"/>
        <path d="M 800 606 
Q 947 606 1047 504 
Q 1147 403 1147 259 
Q 1147 116 1045 14 
Q 944 -88 800 -88 
Q 656 -88 554 14 
Q 453 116 453 259 
Q 453 406 554 506 
Q 656 606 800 606 
z
" id="TimesNewRomanPSMT-2e" transform="scale(0.015625)"/>
       </defs>
       <use xlink:href="#TimesNewRomanPSMT-30"/>
       <use x="50" xlink:href="#TimesNewRomanPSMT-2e"/>
       <use x="75" xlink:href="#TimesNewRomanPSMT-30"/>
      </g>
     </g>
    </g>
    <g id="xtick_2">
     <g id="line2d_2">
      <g>
       <use style="stroke:#000000;stroke-width:0.8;" x="212.565313" xlink:href="#mec74046a91" y="442.08"/>
      </g>
     </g>
     <g id="text_2">
      <!-- 0.2 -->
      <g transform="translate(196.940313 466.439375)scale(0.25 -0.25)">
       <defs>
        <path d="M 2934 816 
L 2638 0 
L 138 0 
L 138 116 
Q 1241 1122 1691 1759 
Q 2141 2397 2141 2925 
Q 2141 3328 1894 3587 
Q 1647 3847 1303 3847 
Q 991 3847 742 3664 
Q 494 3481 375 3128 
L 259 3128 
Q 338 3706 661 4015 
Q 984 4325 1469 4325 
Q 1984 4325 2329 3994 
Q 2675 3663 2675 3213 
Q 2675 2891 2525 2569 
Q 2294 2063 1775 1497 
Q 997 647 803 472 
L 1909 472 
Q 2247 472 2383 497 
Q 2519 522 2628 598 
Q 2738 675 2819 816 
L 2934 816 
z
" id="TimesNewRomanPSMT-32" transform="scale(0.015625)"/>
       </defs>
       <use xlink:href="#TimesNewRomanPSMT-30"/>
       <use x="50" xlink:href="#TimesNewRomanPSMT-2e"/>
       <use x="75" xlink:href="#TimesNewRomanPSMT-32"/>
      </g>
     </g>
    </g>
    <g id="xtick_3">
     <g id="line2d_3">
      <g>
       <use style="stroke:#000000;stroke-width:0.8;" x="314.019858" xlink:href="#mec74046a91" y="442.08"/>
      </g>
     </g>
     <g id="text_3">
      <!-- 0.4 -->
      <g transform="translate(298.394858 466.439375)scale(0.25 -0.25)">
       <defs>
        <path d="M 2978 1563 
L 2978 1119 
L 2409 1119 
L 2409 0 
L 1894 0 
L 1894 1119 
L 100 1119 
L 100 1519 
L 2066 4325 
L 2409 4325 
L 2409 1563 
L 2978 1563 
z
M 1894 1563 
L 1894 3666 
L 406 1563 
L 1894 1563 
z
" id="TimesNewRomanPSMT-34" transform="scale(0.015625)"/>
       </defs>
       <use xlink:href="#TimesNewRomanPSMT-30"/>
       <use x="50" xlink:href="#TimesNewRomanPSMT-2e"/>
       <use x="75" xlink:href="#TimesNewRomanPSMT-34"/>
      </g>
     </g>
    </g>
    <g id="xtick_4">
     <g id="line2d_4">
      <g>
       <use style="stroke:#000000;stroke-width:0.8;" x="415.474403" xlink:href="#mec74046a91" y="442.08"/>
      </g>
     </g>
     <g id="text_4">
      <!-- 0.6 -->
      <g transform="translate(399.849403 466.439375)scale(0.25 -0.25)">
       <defs>
        <path d="M 2869 4325 
L 2869 4209 
Q 2456 4169 2195 4045 
Q 1934 3922 1679 3669 
Q 1425 3416 1258 3105 
Q 1091 2794 978 2366 
Q 1428 2675 1881 2675 
Q 2316 2675 2634 2325 
Q 2953 1975 2953 1425 
Q 2953 894 2631 456 
Q 2244 -75 1606 -75 
Q 1172 -75 869 213 
Q 275 772 275 1663 
Q 275 2231 503 2743 
Q 731 3256 1154 3653 
Q 1578 4050 1965 4187 
Q 2353 4325 2688 4325 
L 2869 4325 
z
M 925 2138 
Q 869 1716 869 1456 
Q 869 1156 980 804 
Q 1091 453 1309 247 
Q 1469 100 1697 100 
Q 1969 100 2183 356 
Q 2397 613 2397 1088 
Q 2397 1622 2184 2012 
Q 1972 2403 1581 2403 
Q 1463 2403 1327 2353 
Q 1191 2303 925 2138 
z
" id="TimesNewRomanPSMT-36" transform="scale(0.015625)"/>
       </defs>
       <use xlink:href="#TimesNewRomanPSMT-30"/>
       <use x="50" xlink:href="#TimesNewRomanPSMT-2e"/>
       <use x="75" xlink:href="#TimesNewRomanPSMT-36"/>
      </g>
     </g>
    </g>
    <g id="xtick_5">
     <g id="line2d_5">
      <g>
       <use style="stroke:#000000;stroke-width:0.8;" x="516.928949" xlink:href="#mec74046a91" y="442.08"/>
      </g>
     </g>
     <g id="text_5">
      <!-- 0.8 -->
      <g transform="translate(501.303949 466.439375)scale(0.25 -0.25)">
       <defs>
        <path d="M 1228 2134 
Q 725 2547 579 2797 
Q 434 3047 434 3316 
Q 434 3728 753 4026 
Q 1072 4325 1600 4325 
Q 2113 4325 2425 4047 
Q 2738 3769 2738 3413 
Q 2738 3175 2569 2928 
Q 2400 2681 1866 2347 
Q 2416 1922 2594 1678 
Q 2831 1359 2831 1006 
Q 2831 559 2490 242 
Q 2150 -75 1597 -75 
Q 994 -75 656 303 
Q 388 606 388 966 
Q 388 1247 577 1523 
Q 766 1800 1228 2134 
z
M 1719 2469 
Q 2094 2806 2194 3001 
Q 2294 3197 2294 3444 
Q 2294 3772 2109 3958 
Q 1925 4144 1606 4144 
Q 1288 4144 1088 3959 
Q 888 3775 888 3528 
Q 888 3366 970 3203 
Q 1053 3041 1206 2894 
L 1719 2469 
z
M 1375 2016 
Q 1116 1797 991 1539 
Q 866 1281 866 981 
Q 866 578 1086 336 
Q 1306 94 1647 94 
Q 1984 94 2187 284 
Q 2391 475 2391 747 
Q 2391 972 2272 1150 
Q 2050 1481 1375 2016 
z
" id="TimesNewRomanPSMT-38" transform="scale(0.015625)"/>
       </defs>
       <use xlink:href="#TimesNewRomanPSMT-30"/>
       <use x="50" xlink:href="#TimesNewRomanPSMT-2e"/>
       <use x="75" xlink:href="#TimesNewRomanPSMT-38"/>
      </g>
     </g>
    </g>
    <g id="xtick_6">
     <g id="line2d_6">
      <g>
       <use style="stroke:#000000;stroke-width:0.8;" x="618.383494" xlink:href="#mec74046a91" y="442.08"/>
      </g>
     </g>
     <g id="text_6">
      <!-- 1.0 -->
      <g transform="translate(602.758494 466.439375)scale(0.25 -0.25)">
       <defs>
        <path d="M 750 3822 
L 1781 4325 
L 1884 4325 
L 1884 747 
Q 1884 391 1914 303 
Q 1944 216 2037 169 
Q 2131 122 2419 116 
L 2419 0 
L 825 0 
L 825 116 
Q 1125 122 1212 167 
Q 1300 213 1334 289 
Q 1369 366 1369 747 
L 1369 3034 
Q 1369 3497 1338 3628 
Q 1316 3728 1258 3775 
Q 1200 3822 1119 3822 
Q 1003 3822 797 3725 
L 750 3822 
z
" id="TimesNewRomanPSMT-31" transform="scale(0.015625)"/>
       </defs>
       <use xlink:href="#TimesNewRomanPSMT-31"/>
       <use x="50" xlink:href="#TimesNewRomanPSMT-2e"/>
       <use x="75" xlink:href="#TimesNewRomanPSMT-30"/>
      </g>
     </g>
    </g>
    <g id="xtick_7">
     <g id="line2d_7">
      <g>
       <use style="stroke:#000000;stroke-width:0.8;" x="719.83804" xlink:href="#mec74046a91" y="442.08"/>
      </g>
     </g>
     <g id="text_7">
      <!-- 1.2 -->
      <g transform="translate(704.21304 466.439375)scale(0.25 -0.25)">
       <use xlink:href="#TimesNewRomanPSMT-31"/>
       <use x="50" xlink:href="#TimesNewRomanPSMT-2e"/>
       <use x="75" xlink:href="#TimesNewRomanPSMT-32"/>
      </g>
     </g>
    </g>
    <g id="xtick_8">
     <g id="line2d_8">
      <g>
       <use style="stroke:#000000;stroke-width:0.8;" x="821.292585" xlink:href="#mec74046a91" y="442.08"/>
      </g>
     </g>
     <g id="text_8">
      <!-- 1.4 -->
      <g transform="translate(805.667585 466.439375)scale(0.25 -0.25)">
       <use xlink:href="#TimesNewRomanPSMT-31"/>
       <use x="50" xlink:href="#TimesNewRomanPSMT-2e"/>
       <use x="75" xlink:href="#TimesNewRomanPSMT-34"/>
      </g>
     </g>
    </g>
    <g id="text_9">
     <!-- Beam Length [m] -->
     <g transform="translate(399.149531 493.840781)scale(0.26 -0.26)">
      <defs>
       <path d="M 2956 2163 
Q 3397 2069 3616 1863 
Q 3919 1575 3919 1159 
Q 3919 844 3719 555 
Q 3519 266 3170 133 
Q 2822 0 2106 0 
L 106 0 
L 106 116 
L 266 116 
Q 531 116 647 284 
Q 719 394 719 750 
L 719 3488 
Q 719 3881 628 3984 
Q 506 4122 266 4122 
L 106 4122 
L 106 4238 
L 1938 4238 
Q 2450 4238 2759 4163 
Q 3228 4050 3475 3764 
Q 3722 3478 3722 3106 
Q 3722 2788 3528 2536 
Q 3334 2284 2956 2163 
z
M 1319 2331 
Q 1434 2309 1582 2298 
Q 1731 2288 1909 2288 
Q 2366 2288 2595 2386 
Q 2825 2484 2947 2687 
Q 3069 2891 3069 3131 
Q 3069 3503 2766 3765 
Q 2463 4028 1881 4028 
Q 1569 4028 1319 3959 
L 1319 2331 
z
M 1319 306 
Q 1681 222 2034 222 
Q 2600 222 2897 476 
Q 3194 731 3194 1106 
Q 3194 1353 3059 1581 
Q 2925 1809 2622 1940 
Q 2319 2072 1872 2072 
Q 1678 2072 1540 2065 
Q 1403 2059 1319 2044 
L 1319 306 
z
" id="TimesNewRomanPSMT-42" transform="scale(0.015625)"/>
       <path d="M 681 1784 
Q 678 1147 991 784 
Q 1303 422 1725 422 
Q 2006 422 2214 576 
Q 2422 731 2563 1106 
L 2659 1044 
Q 2594 616 2278 264 
Q 1963 -88 1488 -88 
Q 972 -88 605 314 
Q 238 716 238 1394 
Q 238 2128 614 2539 
Q 991 2950 1559 2950 
Q 2041 2950 2350 2633 
Q 2659 2316 2659 1784 
L 681 1784 
z
M 681 1966 
L 2006 1966 
Q 1991 2241 1941 2353 
Q 1863 2528 1708 2628 
Q 1553 2728 1384 2728 
Q 1125 2728 920 2526 
Q 716 2325 681 1966 
z
" id="TimesNewRomanPSMT-65" transform="scale(0.015625)"/>
       <path d="M 1822 413 
Q 1381 72 1269 19 
Q 1100 -59 909 -59 
Q 613 -59 420 144 
Q 228 347 228 678 
Q 228 888 322 1041 
Q 450 1253 767 1440 
Q 1084 1628 1822 1897 
L 1822 2009 
Q 1822 2438 1686 2597 
Q 1550 2756 1291 2756 
Q 1094 2756 978 2650 
Q 859 2544 859 2406 
L 866 2225 
Q 866 2081 792 2003 
Q 719 1925 600 1925 
Q 484 1925 411 2006 
Q 338 2088 338 2228 
Q 338 2497 613 2722 
Q 888 2947 1384 2947 
Q 1766 2947 2009 2819 
Q 2194 2722 2281 2516 
Q 2338 2381 2338 1966 
L 2338 994 
Q 2338 584 2353 492 
Q 2369 400 2405 369 
Q 2441 338 2488 338 
Q 2538 338 2575 359 
Q 2641 400 2828 588 
L 2828 413 
Q 2478 -56 2159 -56 
Q 2006 -56 1915 50 
Q 1825 156 1822 413 
z
M 1822 616 
L 1822 1706 
Q 1350 1519 1213 1441 
Q 966 1303 859 1153 
Q 753 1003 753 825 
Q 753 600 887 451 
Q 1022 303 1197 303 
Q 1434 303 1822 616 
z
" id="TimesNewRomanPSMT-61" transform="scale(0.015625)"/>
       <path d="M 1050 2338 
Q 1363 2650 1419 2697 
Q 1559 2816 1721 2881 
Q 1884 2947 2044 2947 
Q 2313 2947 2506 2790 
Q 2700 2634 2766 2338 
Q 3088 2713 3309 2830 
Q 3531 2947 3766 2947 
Q 3994 2947 4170 2830 
Q 4347 2713 4450 2447 
Q 4519 2266 4519 1878 
L 4519 647 
Q 4519 378 4559 278 
Q 4591 209 4675 161 
Q 4759 113 4950 113 
L 4950 0 
L 3538 0 
L 3538 113 
L 3597 113 
Q 3781 113 3884 184 
Q 3956 234 3988 344 
Q 4000 397 4000 647 
L 4000 1878 
Q 4000 2228 3916 2372 
Q 3794 2572 3525 2572 
Q 3359 2572 3192 2489 
Q 3025 2406 2788 2181 
L 2781 2147 
L 2788 2013 
L 2788 647 
Q 2788 353 2820 281 
Q 2853 209 2943 161 
Q 3034 113 3253 113 
L 3253 0 
L 1806 0 
L 1806 113 
Q 2044 113 2133 169 
Q 2222 225 2256 338 
Q 2272 391 2272 647 
L 2272 1878 
Q 2272 2228 2169 2381 
Q 2031 2581 1784 2581 
Q 1616 2581 1450 2491 
Q 1191 2353 1050 2181 
L 1050 647 
Q 1050 366 1089 281 
Q 1128 197 1204 155 
Q 1281 113 1516 113 
L 1516 0 
L 100 0 
L 100 113 
Q 297 113 375 155 
Q 453 197 493 289 
Q 534 381 534 647 
L 534 1741 
Q 534 2213 506 2350 
Q 484 2453 437 2492 
Q 391 2531 309 2531 
Q 222 2531 100 2484 
L 53 2597 
L 916 2947 
L 1050 2947 
L 1050 2338 
z
" id="TimesNewRomanPSMT-6d" transform="scale(0.015625)"/>
       <path id="TimesNewRomanPSMT-20" transform="scale(0.015625)"/>
       <path d="M 3669 1172 
L 3772 1150 
L 3409 0 
L 128 0 
L 128 116 
L 288 116 
Q 556 116 672 291 
Q 738 391 738 753 
L 738 3488 
Q 738 3884 650 3984 
Q 528 4122 288 4122 
L 128 4122 
L 128 4238 
L 2047 4238 
L 2047 4122 
Q 1709 4125 1573 4059 
Q 1438 3994 1388 3894 
Q 1338 3794 1338 3416 
L 1338 753 
Q 1338 494 1388 397 
Q 1425 331 1503 300 
Q 1581 269 1991 269 
L 2300 269 
Q 2788 269 2984 341 
Q 3181 413 3343 595 
Q 3506 778 3669 1172 
z
" id="TimesNewRomanPSMT-4c" transform="scale(0.015625)"/>
       <path d="M 1034 2341 
Q 1538 2947 1994 2947 
Q 2228 2947 2397 2830 
Q 2566 2713 2666 2444 
Q 2734 2256 2734 1869 
L 2734 647 
Q 2734 375 2778 278 
Q 2813 200 2889 156 
Q 2966 113 3172 113 
L 3172 0 
L 1756 0 
L 1756 113 
L 1816 113 
Q 2016 113 2095 173 
Q 2175 234 2206 353 
Q 2219 400 2219 647 
L 2219 1819 
Q 2219 2209 2117 2386 
Q 2016 2563 1775 2563 
Q 1403 2563 1034 2156 
L 1034 647 
Q 1034 356 1069 288 
Q 1113 197 1189 155 
Q 1266 113 1500 113 
L 1500 0 
L 84 0 
L 84 113 
L 147 113 
Q 366 113 442 223 
Q 519 334 519 647 
L 519 1709 
Q 519 2225 495 2337 
Q 472 2450 423 2490 
Q 375 2531 294 2531 
Q 206 2531 84 2484 
L 38 2597 
L 900 2947 
L 1034 2947 
L 1034 2341 
z
" id="TimesNewRomanPSMT-6e" transform="scale(0.015625)"/>
       <path d="M 966 1044 
Q 703 1172 562 1401 
Q 422 1631 422 1909 
Q 422 2334 742 2640 
Q 1063 2947 1563 2947 
Q 1972 2947 2272 2747 
L 2878 2747 
Q 3013 2747 3034 2739 
Q 3056 2731 3066 2713 
Q 3084 2684 3084 2613 
Q 3084 2531 3069 2500 
Q 3059 2484 3036 2475 
Q 3013 2466 2878 2466 
L 2506 2466 
Q 2681 2241 2681 1891 
Q 2681 1491 2375 1206 
Q 2069 922 1553 922 
Q 1341 922 1119 984 
Q 981 866 932 777 
Q 884 688 884 625 
Q 884 572 936 522 
Q 988 472 1138 450 
Q 1225 438 1575 428 
Q 2219 413 2409 384 
Q 2700 344 2873 169 
Q 3047 -6 3047 -263 
Q 3047 -616 2716 -925 
Q 2228 -1381 1444 -1381 
Q 841 -1381 425 -1109 
Q 191 -953 191 -784 
Q 191 -709 225 -634 
Q 278 -519 444 -313 
Q 466 -284 763 25 
Q 600 122 533 198 
Q 466 275 466 372 
Q 466 481 555 628 
Q 644 775 966 1044 
z
M 1509 2797 
Q 1278 2797 1122 2612 
Q 966 2428 966 2047 
Q 966 1553 1178 1281 
Q 1341 1075 1591 1075 
Q 1828 1075 1981 1253 
Q 2134 1431 2134 1813 
Q 2134 2309 1919 2591 
Q 1759 2797 1509 2797 
z
M 934 0 
Q 788 -159 713 -296 
Q 638 -434 638 -550 
Q 638 -700 819 -813 
Q 1131 -1006 1722 -1006 
Q 2284 -1006 2551 -807 
Q 2819 -609 2819 -384 
Q 2819 -222 2659 -153 
Q 2497 -84 2016 -72 
Q 1313 -53 934 0 
z
" id="TimesNewRomanPSMT-67" transform="scale(0.015625)"/>
       <path d="M 1031 3803 
L 1031 2863 
L 1700 2863 
L 1700 2644 
L 1031 2644 
L 1031 788 
Q 1031 509 1111 412 
Q 1191 316 1316 316 
Q 1419 316 1516 380 
Q 1613 444 1666 569 
L 1788 569 
Q 1678 263 1478 108 
Q 1278 -47 1066 -47 
Q 922 -47 784 33 
Q 647 113 581 261 
Q 516 409 516 719 
L 516 2644 
L 63 2644 
L 63 2747 
Q 234 2816 414 2980 
Q 594 3144 734 3369 
Q 806 3488 934 3803 
L 1031 3803 
z
" id="TimesNewRomanPSMT-74" transform="scale(0.015625)"/>
       <path d="M 1041 4444 
L 1041 2350 
Q 1388 2731 1591 2839 
Q 1794 2947 1997 2947 
Q 2241 2947 2416 2812 
Q 2591 2678 2675 2391 
Q 2734 2191 2734 1659 
L 2734 647 
Q 2734 375 2778 275 
Q 2809 200 2884 156 
Q 2959 113 3159 113 
L 3159 0 
L 1753 0 
L 1753 113 
L 1819 113 
Q 2019 113 2097 173 
Q 2175 234 2206 353 
Q 2216 403 2216 647 
L 2216 1659 
Q 2216 2128 2167 2275 
Q 2119 2422 2012 2495 
Q 1906 2569 1756 2569 
Q 1603 2569 1437 2487 
Q 1272 2406 1041 2159 
L 1041 647 
Q 1041 353 1073 281 
Q 1106 209 1195 161 
Q 1284 113 1503 113 
L 1503 0 
L 84 0 
L 84 113 
Q 275 113 384 172 
Q 447 203 484 290 
Q 522 378 522 647 
L 522 3238 
Q 522 3728 498 3840 
Q 475 3953 426 3993 
Q 378 4034 297 4034 
Q 231 4034 84 3984 
L 41 4094 
L 897 4444 
L 1041 4444 
z
" id="TimesNewRomanPSMT-68" transform="scale(0.015625)"/>
       <path d="M 1900 -1269 
L 525 -1269 
L 525 4334 
L 1900 4334 
L 1900 4088 
L 994 4088 
L 994 -1025 
L 1900 -1025 
L 1900 -1269 
z
" id="TimesNewRomanPSMT-5b" transform="scale(0.015625)"/>
       <path d="M 234 4334 
L 1609 4334 
L 1609 -1272 
L 234 -1272 
L 234 -1025 
L 1141 -1025 
L 1141 4088 
L 234 4088 
L 234 4334 
z
" id="TimesNewRomanPSMT-5d" transform="scale(0.015625)"/>
      </defs>
      <use xlink:href="#TimesNewRomanPSMT-42"/>
      <use x="66.699219" xlink:href="#TimesNewRomanPSMT-65"/>
      <use x="111.083984" xlink:href="#TimesNewRomanPSMT-61"/>
      <use x="155.46875" xlink:href="#TimesNewRomanPSMT-6d"/>
      <use x="233.251953" xlink:href="#TimesNewRomanPSMT-20"/>
      <use x="258.251953" xlink:href="#TimesNewRomanPSMT-4c"/>
      <use x="319.335938" xlink:href="#TimesNewRomanPSMT-65"/>
      <use x="363.720703" xlink:href="#TimesNewRomanPSMT-6e"/>
      <use x="413.720703" xlink:href="#TimesNewRomanPSMT-67"/>
      <use x="463.720703" xlink:href="#TimesNewRomanPSMT-74"/>
      <use x="491.503906" xlink:href="#TimesNewRomanPSMT-68"/>
      <use x="541.503906" xlink:href="#TimesNewRomanPSMT-20"/>
      <use x="566.503906" xlink:href="#TimesNewRomanPSMT-5b"/>
      <use x="599.804688" xlink:href="#TimesNewRomanPSMT-6d"/>
      <use x="677.587891" xlink:href="#TimesNewRomanPSMT-5d"/>
     </g>
    </g>
   </g>
   <g id="matplotlib.axis_2">
    <g id="ytick_1">
     <g id="line2d_9">
      <defs>
       <path d="M 0 0 
L -3.5 0 
" id="mfc391f2de3" style="stroke:#000000;stroke-width:0.8;"/>
      </defs>
      <g>
       <use style="stroke:#000000;stroke-width:0.8;" x="73.065313" xlink:href="#mfc391f2de3" y="422.312727"/>
      </g>
     </g>
     <g id="text_10">
      <!-- 0.0 -->
      <g transform="translate(34.815313 430.992415)scale(0.25 -0.25)">
       <use xlink:href="#TimesNewRomanPSMT-30"/>
       <use x="50" xlink:href="#TimesNewRomanPSMT-2e"/>
       <use x="75" xlink:href="#TimesNewRomanPSMT-30"/>
      </g>
     </g>
    </g>
    <g id="ytick_2">
     <g id="line2d_10">
      <g>
       <use style="stroke:#000000;stroke-width:0.8;" x="73.065313" xlink:href="#mfc391f2de3" y="348.830969"/>
      </g>
     </g>
     <g id="text_11">
      <!-- 0.2 -->
      <g transform="translate(34.815313 357.510656)scale(0.25 -0.25)">
       <use xlink:href="#TimesNewRomanPSMT-30"/>
       <use x="50" xlink:href="#TimesNewRomanPSMT-2e"/>
       <use x="75" xlink:href="#TimesNewRomanPSMT-32"/>
      </g>
     </g>
    </g>
    <g id="ytick_3">
     <g id="line2d_11">
      <g>
       <use style="stroke:#000000;stroke-width:0.8;" x="73.065313" xlink:href="#mfc391f2de3" y="275.34921"/>
      </g>
     </g>
     <g id="text_12">
      <!-- 0.4 -->
      <g transform="translate(34.815313 284.028898)scale(0.25 -0.25)">
       <use xlink:href="#TimesNewRomanPSMT-30"/>
       <use x="50" xlink:href="#TimesNewRomanPSMT-2e"/>
       <use x="75" xlink:href="#TimesNewRomanPSMT-34"/>
      </g>
     </g>
    </g>
    <g id="ytick_4">
     <g id="line2d_12">
      <g>
       <use style="stroke:#000000;stroke-width:0.8;" x="73.065313" xlink:href="#mfc391f2de3" y="201.867452"/>
      </g>
     </g>
     <g id="text_13">
      <!-- 0.6 -->
      <g transform="translate(34.815313 210.547139)scale(0.25 -0.25)">
       <use xlink:href="#TimesNewRomanPSMT-30"/>
       <use x="50" xlink:href="#TimesNewRomanPSMT-2e"/>
       <use x="75" xlink:href="#TimesNewRomanPSMT-36"/>
      </g>
     </g>
    </g>
    <g id="ytick_5">
     <g id="line2d_13">
      <g>
       <use style="stroke:#000000;stroke-width:0.8;" x="73.065313" xlink:href="#mfc391f2de3" y="128.385693"/>
      </g>
     </g>
     <g id="text_14">
      <!-- 0.8 -->
      <g transform="translate(34.815313 137.065381)scale(0.25 -0.25)">
       <use xlink:href="#TimesNewRomanPSMT-30"/>
       <use x="50" xlink:href="#TimesNewRomanPSMT-2e"/>
       <use x="75" xlink:href="#TimesNewRomanPSMT-38"/>
      </g>
     </g>
    </g>
    <g id="ytick_6">
     <g id="line2d_14">
      <g>
       <use style="stroke:#000000;stroke-width:0.8;" x="73.065313" xlink:href="#mfc391f2de3" y="54.903935"/>
      </g>
     </g>
     <g id="text_15">
      <!-- 1.0 -->
      <g transform="translate(34.815313 63.583623)scale(0.25 -0.25)">
       <use xlink:href="#TimesNewRomanPSMT-31"/>
       <use x="50" xlink:href="#TimesNewRomanPSMT-2e"/>
       <use x="75" xlink:href="#TimesNewRomanPSMT-30"/>
      </g>
     </g>
    </g>
    <g id="text_16">
     <!-- Amplitude -->
     <g transform="translate(25.25375 280.245469)rotate(-90)scale(0.26 -0.26)">
      <defs>
       <path d="M 2928 1419 
L 1288 1419 
L 1000 750 
Q 894 503 894 381 
Q 894 284 986 211 
Q 1078 138 1384 116 
L 1384 0 
L 50 0 
L 50 116 
Q 316 163 394 238 
Q 553 388 747 847 
L 2238 4334 
L 2347 4334 
L 3822 809 
Q 4000 384 4145 257 
Q 4291 131 4550 116 
L 4550 0 
L 2878 0 
L 2878 116 
Q 3131 128 3220 200 
Q 3309 272 3309 375 
Q 3309 513 3184 809 
L 2928 1419 
z
M 2841 1650 
L 2122 3363 
L 1384 1650 
L 2841 1650 
z
" id="TimesNewRomanPSMT-41" transform="scale(0.015625)"/>
       <path d="M -6 2578 
L 875 2934 
L 994 2934 
L 994 2266 
Q 1216 2644 1439 2795 
Q 1663 2947 1909 2947 
Q 2341 2947 2628 2609 
Q 2981 2197 2981 1534 
Q 2981 794 2556 309 
Q 2206 -88 1675 -88 
Q 1444 -88 1275 -22 
Q 1150 25 994 166 
L 994 -706 
Q 994 -1000 1030 -1079 
Q 1066 -1159 1155 -1206 
Q 1244 -1253 1478 -1253 
L 1478 -1369 
L -22 -1369 
L -22 -1253 
L 56 -1253 
Q 228 -1256 350 -1188 
Q 409 -1153 442 -1076 
Q 475 -1000 475 -688 
L 475 2019 
Q 475 2297 450 2372 
Q 425 2447 370 2484 
Q 316 2522 222 2522 
Q 147 2522 31 2478 
L -6 2578 
z
M 994 2081 
L 994 1013 
Q 994 666 1022 556 
Q 1066 375 1236 237 
Q 1406 100 1666 100 
Q 1978 100 2172 344 
Q 2425 663 2425 1241 
Q 2425 1897 2138 2250 
Q 1938 2494 1663 2494 
Q 1513 2494 1366 2419 
Q 1253 2363 994 2081 
z
" id="TimesNewRomanPSMT-70" transform="scale(0.015625)"/>
       <path d="M 1184 4444 
L 1184 647 
Q 1184 378 1223 290 
Q 1263 203 1344 158 
Q 1425 113 1647 113 
L 1647 0 
L 244 0 
L 244 113 
Q 441 113 512 153 
Q 584 194 625 287 
Q 666 381 666 647 
L 666 3247 
Q 666 3731 644 3842 
Q 622 3953 573 3993 
Q 525 4034 450 4034 
Q 369 4034 244 3984 
L 191 4094 
L 1044 4444 
L 1184 4444 
z
" id="TimesNewRomanPSMT-6c" transform="scale(0.015625)"/>
       <path d="M 928 4444 
Q 1059 4444 1151 4351 
Q 1244 4259 1244 4128 
Q 1244 3997 1151 3903 
Q 1059 3809 928 3809 
Q 797 3809 703 3903 
Q 609 3997 609 4128 
Q 609 4259 701 4351 
Q 794 4444 928 4444 
z
M 1188 2947 
L 1188 647 
Q 1188 378 1227 289 
Q 1266 200 1342 156 
Q 1419 113 1622 113 
L 1622 0 
L 231 0 
L 231 113 
Q 441 113 512 153 
Q 584 194 626 287 
Q 669 381 669 647 
L 669 1750 
Q 669 2216 641 2353 
Q 619 2453 572 2492 
Q 525 2531 444 2531 
Q 356 2531 231 2484 
L 188 2597 
L 1050 2947 
L 1188 2947 
z
" id="TimesNewRomanPSMT-69" transform="scale(0.015625)"/>
       <path d="M 2709 2863 
L 2709 1128 
Q 2709 631 2732 520 
Q 2756 409 2807 365 
Q 2859 322 2928 322 
Q 3025 322 3147 375 
L 3191 266 
L 2334 -88 
L 2194 -88 
L 2194 519 
Q 1825 119 1631 15 
Q 1438 -88 1222 -88 
Q 981 -88 804 51 
Q 628 191 559 409 
Q 491 628 491 1028 
L 491 2306 
Q 491 2509 447 2587 
Q 403 2666 317 2708 
Q 231 2750 6 2747 
L 6 2863 
L 1009 2863 
L 1009 947 
Q 1009 547 1148 422 
Q 1288 297 1484 297 
Q 1619 297 1789 381 
Q 1959 466 2194 703 
L 2194 2325 
Q 2194 2569 2105 2655 
Q 2016 2741 1734 2747 
L 1734 2863 
L 2709 2863 
z
" id="TimesNewRomanPSMT-75" transform="scale(0.015625)"/>
       <path d="M 2222 322 
Q 2013 103 1813 7 
Q 1613 -88 1381 -88 
Q 913 -88 563 304 
Q 213 697 213 1313 
Q 213 1928 600 2439 
Q 988 2950 1597 2950 
Q 1975 2950 2222 2709 
L 2222 3238 
Q 2222 3728 2198 3840 
Q 2175 3953 2125 3993 
Q 2075 4034 2000 4034 
Q 1919 4034 1784 3984 
L 1744 4094 
L 2597 4444 
L 2738 4444 
L 2738 1134 
Q 2738 631 2761 520 
Q 2784 409 2836 365 
Q 2888 322 2956 322 
Q 3041 322 3181 375 
L 3216 266 
L 2366 -88 
L 2222 -88 
L 2222 322 
z
M 2222 541 
L 2222 2016 
Q 2203 2228 2109 2403 
Q 2016 2578 1861 2667 
Q 1706 2756 1559 2756 
Q 1284 2756 1069 2509 
Q 784 2184 784 1559 
Q 784 928 1059 592 
Q 1334 256 1672 256 
Q 1956 256 2222 541 
z
" id="TimesNewRomanPSMT-64" transform="scale(0.015625)"/>
      </defs>
      <use xlink:href="#TimesNewRomanPSMT-41"/>
      <use x="72.216797" xlink:href="#TimesNewRomanPSMT-6d"/>
      <use x="150" xlink:href="#TimesNewRomanPSMT-70"/>
      <use x="200" xlink:href="#TimesNewRomanPSMT-6c"/>
      <use x="227.783203" xlink:href="#TimesNewRomanPSMT-69"/>
      <use x="255.566406" xlink:href="#TimesNewRomanPSMT-74"/>
      <use x="283.349609" xlink:href="#TimesNewRomanPSMT-75"/>
      <use x="333.349609" xlink:href="#TimesNewRomanPSMT-64"/>
      <use x="383.349609" xlink:href="#TimesNewRomanPSMT-65"/>
     </g>
    </g>
   </g>
   <g id="line2d_15">
    <defs>
     <path d="M 0 -3 
L -3 3 
L 3 3 
z
" id="m2bcf9fe70f" style="stroke:#000000;stroke-linejoin:miter;"/>
    </defs>
    <g clip-path="url(#pa920e76a7f)">
     <use style="stroke:#000000;stroke-linejoin:miter;" x="111.110767" xlink:href="#m2bcf9fe70f" y="422.312727"/>
     <use style="stroke:#000000;stroke-linejoin:miter;" x="116.183494" xlink:href="#m2bcf9fe70f" y="422.264978"/>
     <use style="stroke:#000000;stroke-linejoin:miter;" x="121.256222" xlink:href="#m2bcf9fe70f" y="422.123002"/>
     <use style="stroke:#000000;stroke-linejoin:miter;" x="126.328949" xlink:href="#m2bcf9fe70f" y="421.88862"/>
     <use style="stroke:#000000;stroke-linejoin:miter;" x="131.401676" xlink:href="#m2bcf9fe70f" y="421.56369"/>
     <use style="stroke:#000000;stroke-linejoin:miter;" x="136.474403" xlink:href="#m2bcf9fe70f" y="421.150102"/>
     <use style="stroke:#000000;stroke-linejoin:miter;" x="141.547131" xlink:href="#m2bcf9fe70f" y="420.64977"/>
     <use style="stroke:#000000;stroke-linejoin:miter;" x="146.619858" xlink:href="#m2bcf9fe70f" y="420.064626"/>
     <use style="stroke:#000000;stroke-linejoin:miter;" x="151.692585" xlink:href="#m2bcf9fe70f" y="419.396612"/>
     <use style="stroke:#000000;stroke-linejoin:miter;" x="156.765313" xlink:href="#m2bcf9fe70f" y="418.647679"/>
     <use style="stroke:#000000;stroke-linejoin:miter;" x="161.83804" xlink:href="#m2bcf9fe70f" y="417.819777"/>
     <use style="stroke:#000000;stroke-linejoin:miter;" x="166.910767" xlink:href="#m2bcf9fe70f" y="416.914856"/>
     <use style="stroke:#000000;stroke-linejoin:miter;" x="171.983494" xlink:href="#m2bcf9fe70f" y="415.934856"/>
     <use style="stroke:#000000;stroke-linejoin:miter;" x="177.056222" xlink:href="#m2bcf9fe70f" y="414.881708"/>
     <use style="stroke:#000000;stroke-linejoin:miter;" x="182.128949" xlink:href="#m2bcf9fe70f" y="413.757323"/>
     <use style="stroke:#000000;stroke-linejoin:miter;" x="187.201676" xlink:href="#m2bcf9fe70f" y="412.563601"/>
     <use style="stroke:#000000;stroke-linejoin:miter;" x="192.274403" xlink:href="#m2bcf9fe70f" y="411.302415"/>
     <use style="stroke:#000000;stroke-linejoin:miter;" x="197.347131" xlink:href="#m2bcf9fe70f" y="409.975621"/>
     <use style="stroke:#000000;stroke-linejoin:miter;" x="202.419858" xlink:href="#m2bcf9fe70f" y="408.585045"/>
     <use style="stroke:#000000;stroke-linejoin:miter;" x="207.492585" xlink:href="#m2bcf9fe70f" y="407.132483"/>
     <use style="stroke:#000000;stroke-linejoin:miter;" x="212.565313" xlink:href="#m2bcf9fe70f" y="405.619707"/>
     <use style="stroke:#000000;stroke-linejoin:miter;" x="217.63804" xlink:href="#m2bcf9fe70f" y="404.048458"/>
     <use style="stroke:#000000;stroke-linejoin:miter;" x="222.710767" xlink:href="#m2bcf9fe70f" y="402.420444"/>
     <use style="stroke:#000000;stroke-linejoin:miter;" x="227.783494" xlink:href="#m2bcf9fe70f" y="400.737333"/>
     <use style="stroke:#000000;stroke-linejoin:miter;" x="232.856222" xlink:href="#m2bcf9fe70f" y="399.000768"/>
     <use style="stroke:#000000;stroke-linejoin:miter;" x="237.928949" xlink:href="#m2bcf9fe70f" y="397.212354"/>
     <use style="stroke:#000000;stroke-linejoin:miter;" x="243.001676" xlink:href="#m2bcf9fe70f" y="395.373661"/>
     <use style="stroke:#000000;stroke-linejoin:miter;" x="248.074403" xlink:href="#m2bcf9fe70f" y="393.486223"/>
     <use style="stroke:#000000;stroke-linejoin:miter;" x="253.147131" xlink:href="#m2bcf9fe70f" y="391.551536"/>
     <use style="stroke:#000000;stroke-linejoin:miter;" x="258.219858" xlink:href="#m2bcf9fe70f" y="389.571063"/>
     <use style="stroke:#000000;stroke-linejoin:miter;" x="263.292585" xlink:href="#m2bcf9fe70f" y="387.54623"/>
     <use style="stroke:#000000;stroke-linejoin:miter;" x="268.365313" xlink:href="#m2bcf9fe70f" y="385.478416"/>
     <use style="stroke:#000000;stroke-linejoin:miter;" x="273.43804" xlink:href="#m2bcf9fe70f" y="383.369012"/>
     <use style="stroke:#000000;stroke-linejoin:miter;" x="278.510767" xlink:href="#m2bcf9fe70f" y="381.219266"/>
     <use style="stroke:#000000;stroke-linejoin:miter;" x="283.583494" xlink:href="#m2bcf9fe70f" y="379.030539"/>
     <use style="stroke:#000000;stroke-linejoin:miter;" x="288.656222" xlink:href="#m2bcf9fe70f" y="376.804004"/>
     <use style="stroke:#000000;stroke-linejoin:miter;" x="293.728949" xlink:href="#m2bcf9fe70f" y="374.54095"/>
     <use style="stroke:#000000;stroke-linejoin:miter;" x="298.801676" xlink:href="#m2bcf9fe70f" y="372.242477"/>
     <use style="stroke:#000000;stroke-linejoin:miter;" x="303.874403" xlink:href="#m2bcf9fe70f" y="369.909799"/>
     <use style="stroke:#000000;stroke-linejoin:miter;" x="308.947131" xlink:href="#m2bcf9fe70f" y="367.54398"/>
     <use style="stroke:#000000;stroke-linejoin:miter;" x="314.019858" xlink:href="#m2bcf9fe70f" y="365.146124"/>
     <use style="stroke:#000000;stroke-linejoin:miter;" x="319.092585" xlink:href="#m2bcf9fe70f" y="362.717258"/>
     <use style="stroke:#000000;stroke-linejoin:miter;" x="324.165313" xlink:href="#m2bcf9fe70f" y="360.258448"/>
     <use style="stroke:#000000;stroke-linejoin:miter;" x="329.23804" xlink:href="#m2bcf9fe70f" y="357.770613"/>
     <use style="stroke:#000000;stroke-linejoin:miter;" x="334.310767" xlink:href="#m2bcf9fe70f" y="355.254708"/>
     <use style="stroke:#000000;stroke-linejoin:miter;" x="339.383494" xlink:href="#m2bcf9fe70f" y="352.711724"/>
     <use style="stroke:#000000;stroke-linejoin:miter;" x="344.456222" xlink:href="#m2bcf9fe70f" y="350.142508"/>
     <use style="stroke:#000000;stroke-linejoin:miter;" x="349.528949" xlink:href="#m2bcf9fe70f" y="347.547977"/>
     <use style="stroke:#000000;stroke-linejoin:miter;" x="354.601676" xlink:href="#m2bcf9fe70f" y="344.928904"/>
     <use style="stroke:#000000;stroke-linejoin:miter;" x="359.674403" xlink:href="#m2bcf9fe70f" y="342.286169"/>
     <use style="stroke:#000000;stroke-linejoin:miter;" x="364.747131" xlink:href="#m2bcf9fe70f" y="339.620545"/>
     <use style="stroke:#000000;stroke-linejoin:miter;" x="369.819858" xlink:href="#m2bcf9fe70f" y="336.932766"/>
     <use style="stroke:#000000;stroke-linejoin:miter;" x="374.892585" xlink:href="#m2bcf9fe70f" y="334.22364"/>
     <use style="stroke:#000000;stroke-linejoin:miter;" x="379.965313" xlink:href="#m2bcf9fe70f" y="331.49383"/>
     <use style="stroke:#000000;stroke-linejoin:miter;" x="385.03804" xlink:href="#m2bcf9fe70f" y="328.744032"/>
     <use style="stroke:#000000;stroke-linejoin:miter;" x="390.110767" xlink:href="#m2bcf9fe70f" y="325.974946"/>
     <use style="stroke:#000000;stroke-linejoin:miter;" x="395.183494" xlink:href="#m2bcf9fe70f" y="323.187231"/>
     <use style="stroke:#000000;stroke-linejoin:miter;" x="400.256222" xlink:href="#m2bcf9fe70f" y="320.381477"/>
     <use style="stroke:#000000;stroke-linejoin:miter;" x="405.328949" xlink:href="#m2bcf9fe70f" y="317.558345"/>
     <use style="stroke:#000000;stroke-linejoin:miter;" x="410.401676" xlink:href="#m2bcf9fe70f" y="314.718385"/>
     <use style="stroke:#000000;stroke-linejoin:miter;" x="415.474403" xlink:href="#m2bcf9fe70f" y="311.862186"/>
     <use style="stroke:#000000;stroke-linejoin:miter;" x="420.547131" xlink:href="#m2bcf9fe70f" y="308.990335"/>
     <use style="stroke:#000000;stroke-linejoin:miter;" x="425.619858" xlink:href="#m2bcf9fe70f" y="306.10331"/>
     <use style="stroke:#000000;stroke-linejoin:miter;" x="430.692585" xlink:href="#m2bcf9fe70f" y="303.201626"/>
     <use style="stroke:#000000;stroke-linejoin:miter;" x="435.765312" xlink:href="#m2bcf9fe70f" y="300.28587"/>
     <use style="stroke:#000000;stroke-linejoin:miter;" x="440.83804" xlink:href="#m2bcf9fe70f" y="297.356409"/>
     <use style="stroke:#000000;stroke-linejoin:miter;" x="445.910767" xlink:href="#m2bcf9fe70f" y="294.413832"/>
     <use style="stroke:#000000;stroke-linejoin:miter;" x="450.983494" xlink:href="#m2bcf9fe70f" y="291.458506"/>
     <use style="stroke:#000000;stroke-linejoin:miter;" x="456.056222" xlink:href="#m2bcf9fe70f" y="288.490909"/>
     <use style="stroke:#000000;stroke-linejoin:miter;" x="461.128949" xlink:href="#m2bcf9fe70f" y="285.51148"/>
     <use style="stroke:#000000;stroke-linejoin:miter;" x="466.201676" xlink:href="#m2bcf9fe70f" y="282.520589"/>
     <use style="stroke:#000000;stroke-linejoin:miter;" x="471.274403" xlink:href="#m2bcf9fe70f" y="279.518676"/>
     <use style="stroke:#000000;stroke-linejoin:miter;" x="476.347131" xlink:href="#m2bcf9fe70f" y="276.506107"/>
     <use style="stroke:#000000;stroke-linejoin:miter;" x="481.419858" xlink:href="#m2bcf9fe70f" y="273.483288"/>
     <use style="stroke:#000000;stroke-linejoin:miter;" x="486.492585" xlink:href="#m2bcf9fe70f" y="270.450512"/>
     <use style="stroke:#000000;stroke-linejoin:miter;" x="491.565313" xlink:href="#m2bcf9fe70f" y="267.408221"/>
     <use style="stroke:#000000;stroke-linejoin:miter;" x="496.63804" xlink:href="#m2bcf9fe70f" y="264.35667"/>
     <use style="stroke:#000000;stroke-linejoin:miter;" x="501.710767" xlink:href="#m2bcf9fe70f" y="261.296265"/>
     <use style="stroke:#000000;stroke-linejoin:miter;" x="506.783494" xlink:href="#m2bcf9fe70f" y="258.227263"/>
     <use style="stroke:#000000;stroke-linejoin:miter;" x="511.856222" xlink:href="#m2bcf9fe70f" y="255.149993"/>
     <use style="stroke:#000000;stroke-linejoin:miter;" x="516.928949" xlink:href="#m2bcf9fe70f" y="252.064752"/>
     <use style="stroke:#000000;stroke-linejoin:miter;" x="522.001676" xlink:href="#m2bcf9fe70f" y="248.971868"/>
     <use style="stroke:#000000;stroke-linejoin:miter;" x="527.074403" xlink:href="#m2bcf9fe70f" y="245.871562"/>
     <use style="stroke:#000000;stroke-linejoin:miter;" x="532.147131" xlink:href="#m2bcf9fe70f" y="242.764129"/>
     <use style="stroke:#000000;stroke-linejoin:miter;" x="537.219858" xlink:href="#m2bcf9fe70f" y="239.649862"/>
     <use style="stroke:#000000;stroke-linejoin:miter;" x="542.292585" xlink:href="#m2bcf9fe70f" y="236.528981"/>
     <use style="stroke:#000000;stroke-linejoin:miter;" x="547.365313" xlink:href="#m2bcf9fe70f" y="233.401745"/>
     <use style="stroke:#000000;stroke-linejoin:miter;" x="552.43804" xlink:href="#m2bcf9fe70f" y="230.268372"/>
     <use style="stroke:#000000;stroke-linejoin:miter;" x="557.510767" xlink:href="#m2bcf9fe70f" y="227.129158"/>
     <use style="stroke:#000000;stroke-linejoin:miter;" x="562.583494" xlink:href="#m2bcf9fe70f" y="223.984249"/>
     <use style="stroke:#000000;stroke-linejoin:miter;" x="567.656222" xlink:href="#m2bcf9fe70f" y="220.833939"/>
     <use style="stroke:#000000;stroke-linejoin:miter;" x="572.728949" xlink:href="#m2bcf9fe70f" y="217.678375"/>
     <use style="stroke:#000000;stroke-linejoin:miter;" x="577.801676" xlink:href="#m2bcf9fe70f" y="214.517777"/>
     <use style="stroke:#000000;stroke-linejoin:miter;" x="582.874403" xlink:href="#m2bcf9fe70f" y="211.352404"/>
     <use style="stroke:#000000;stroke-linejoin:miter;" x="587.947131" xlink:href="#m2bcf9fe70f" y="208.182364"/>
     <use style="stroke:#000000;stroke-linejoin:miter;" x="593.019858" xlink:href="#m2bcf9fe70f" y="205.007879"/>
     <use style="stroke:#000000;stroke-linejoin:miter;" x="598.092585" xlink:href="#m2bcf9fe70f" y="201.829168"/>
     <use style="stroke:#000000;stroke-linejoin:miter;" x="603.165313" xlink:href="#m2bcf9fe70f" y="198.646342"/>
     <use style="stroke:#000000;stroke-linejoin:miter;" x="608.23804" xlink:href="#m2bcf9fe70f" y="195.459622"/>
     <use style="stroke:#000000;stroke-linejoin:miter;" x="613.310767" xlink:href="#m2bcf9fe70f" y="192.269155"/>
     <use style="stroke:#000000;stroke-linejoin:miter;" x="618.383494" xlink:href="#m2bcf9fe70f" y="189.075086"/>
     <use style="stroke:#000000;stroke-linejoin:miter;" x="623.456222" xlink:href="#m2bcf9fe70f" y="185.877601"/>
     <use style="stroke:#000000;stroke-linejoin:miter;" x="628.528949" xlink:href="#m2bcf9fe70f" y="182.676809"/>
     <use style="stroke:#000000;stroke-linejoin:miter;" x="633.601676" xlink:href="#m2bcf9fe70f" y="179.472894"/>
     <use style="stroke:#000000;stroke-linejoin:miter;" x="638.674403" xlink:href="#m2bcf9fe70f" y="176.266003"/>
     <use style="stroke:#000000;stroke-linejoin:miter;" x="643.747131" xlink:href="#m2bcf9fe70f" y="173.056246"/>
     <use style="stroke:#000000;stroke-linejoin:miter;" x="648.819858" xlink:href="#m2bcf9fe70f" y="169.843808"/>
     <use style="stroke:#000000;stroke-linejoin:miter;" x="653.892585" xlink:href="#m2bcf9fe70f" y="166.628724"/>
     <use style="stroke:#000000;stroke-linejoin:miter;" x="658.965312" xlink:href="#m2bcf9fe70f" y="163.411215"/>
     <use style="stroke:#000000;stroke-linejoin:miter;" x="664.03804" xlink:href="#m2bcf9fe70f" y="160.191317"/>
     <use style="stroke:#000000;stroke-linejoin:miter;" x="669.110767" xlink:href="#m2bcf9fe70f" y="156.969252"/>
     <use style="stroke:#000000;stroke-linejoin:miter;" x="674.183494" xlink:href="#m2bcf9fe70f" y="153.74502"/>
     <use style="stroke:#000000;stroke-linejoin:miter;" x="679.256222" xlink:href="#m2bcf9fe70f" y="150.51884"/>
     <use style="stroke:#000000;stroke-linejoin:miter;" x="684.328949" xlink:href="#m2bcf9fe70f" y="147.290713"/>
     <use style="stroke:#000000;stroke-linejoin:miter;" x="689.401676" xlink:href="#m2bcf9fe70f" y="144.060822"/>
     <use style="stroke:#000000;stroke-linejoin:miter;" x="694.474403" xlink:href="#m2bcf9fe70f" y="140.829241"/>
     <use style="stroke:#000000;stroke-linejoin:miter;" x="699.547131" xlink:href="#m2bcf9fe70f" y="137.596044"/>
     <use style="stroke:#000000;stroke-linejoin:miter;" x="704.619858" xlink:href="#m2bcf9fe70f" y="134.361377"/>
     <use style="stroke:#000000;stroke-linejoin:miter;" x="709.692585" xlink:href="#m2bcf9fe70f" y="131.125277"/>
     <use style="stroke:#000000;stroke-linejoin:miter;" x="714.765312" xlink:href="#m2bcf9fe70f" y="127.887855"/>
     <use style="stroke:#000000;stroke-linejoin:miter;" x="719.83804" xlink:href="#m2bcf9fe70f" y="124.649183"/>
     <use style="stroke:#000000;stroke-linejoin:miter;" x="724.910767" xlink:href="#m2bcf9fe70f" y="121.409372"/>
     <use style="stroke:#000000;stroke-linejoin:miter;" x="729.983494" xlink:href="#m2bcf9fe70f" y="118.168459"/>
     <use style="stroke:#000000;stroke-linejoin:miter;" x="735.056222" xlink:href="#m2bcf9fe70f" y="114.926554"/>
     <use style="stroke:#000000;stroke-linejoin:miter;" x="740.128949" xlink:href="#m2bcf9fe70f" y="111.683694"/>
     <use style="stroke:#000000;stroke-linejoin:miter;" x="745.201676" xlink:href="#m2bcf9fe70f" y="108.439989"/>
     <use style="stroke:#000000;stroke-linejoin:miter;" x="750.274403" xlink:href="#m2bcf9fe70f" y="105.195475"/>
     <use style="stroke:#000000;stroke-linejoin:miter;" x="755.347131" xlink:href="#m2bcf9fe70f" y="101.950227"/>
     <use style="stroke:#000000;stroke-linejoin:miter;" x="760.419858" xlink:href="#m2bcf9fe70f" y="98.704317"/>
     <use style="stroke:#000000;stroke-linejoin:miter;" x="765.492585" xlink:href="#m2bcf9fe70f" y="95.457746"/>
     <use style="stroke:#000000;stroke-linejoin:miter;" x="770.565312" xlink:href="#m2bcf9fe70f" y="92.210661"/>
     <use style="stroke:#000000;stroke-linejoin:miter;" x="775.63804" xlink:href="#m2bcf9fe70f" y="88.963061"/>
     <use style="stroke:#000000;stroke-linejoin:miter;" x="780.710767" xlink:href="#m2bcf9fe70f" y="85.714983"/>
     <use style="stroke:#000000;stroke-linejoin:miter;" x="785.783494" xlink:href="#m2bcf9fe70f" y="82.466502"/>
     <use style="stroke:#000000;stroke-linejoin:miter;" x="790.856222" xlink:href="#m2bcf9fe70f" y="79.217653"/>
     <use style="stroke:#000000;stroke-linejoin:miter;" x="795.928949" xlink:href="#m2bcf9fe70f" y="75.968473"/>
     <use style="stroke:#000000;stroke-linejoin:miter;" x="801.001676" xlink:href="#m2bcf9fe70f" y="72.718999"/>
     <use style="stroke:#000000;stroke-linejoin:miter;" x="806.074403" xlink:href="#m2bcf9fe70f" y="69.469305"/>
     <use style="stroke:#000000;stroke-linejoin:miter;" x="811.147131" xlink:href="#m2bcf9fe70f" y="66.219391"/>
     <use style="stroke:#000000;stroke-linejoin:miter;" x="816.219858" xlink:href="#m2bcf9fe70f" y="62.969256"/>
     <use style="stroke:#000000;stroke-linejoin:miter;" x="821.292585" xlink:href="#m2bcf9fe70f" y="59.719011"/>
     <use style="stroke:#000000;stroke-linejoin:miter;" x="826.365313" xlink:href="#m2bcf9fe70f" y="56.468619"/>
     <use style="stroke:#000000;stroke-linejoin:miter;" x="831.43804" xlink:href="#m2bcf9fe70f" y="53.218264"/>
     <use style="stroke:#000000;stroke-linejoin:miter;" x="836.510767" xlink:href="#m2bcf9fe70f" y="49.967431"/>
     <use style="stroke:#000000;stroke-linejoin:miter;" x="841.583494" xlink:href="#m2bcf9fe70f" y="46.716965"/>
     <use style="stroke:#000000;stroke-linejoin:miter;" x="846.656222" xlink:href="#m2bcf9fe70f" y="43.466132"/>
     <use style="stroke:#000000;stroke-linejoin:miter;" x="851.728949" xlink:href="#m2bcf9fe70f" y="40.215666"/>
     <use style="stroke:#000000;stroke-linejoin:miter;" x="856.801676" xlink:href="#m2bcf9fe70f" y="36.964833"/>
     <use style="stroke:#000000;stroke-linejoin:miter;" x="861.874403" xlink:href="#m2bcf9fe70f" y="33.714"/>
     <use style="stroke:#000000;stroke-linejoin:miter;" x="866.947131" xlink:href="#m2bcf9fe70f" y="30.463167"/>
     <use style="stroke:#000000;stroke-linejoin:miter;" x="872.019858" xlink:href="#m2bcf9fe70f" y="27.212702"/>
    </g>
   </g>
   <g id="line2d_16">
    <path clip-path="url(#pa920e76a7f)" d="M 111.110767 422.312727 
L 121.256222 422.138355 
L 131.401676 421.623887 
L 141.547131 420.782386 
L 151.692585 419.627211 
L 161.83804 418.171872 
L 171.983494 416.429903 
L 182.128949 414.414743 
L 192.274403 412.139655 
L 202.419858 409.617662 
L 212.565313 406.86145 
L 222.710767 403.883352 
L 232.856222 400.695298 
L 243.001676 397.308781 
L 253.147131 393.734848 
L 263.292585 389.984093 
L 273.43804 386.066626 
L 288.656222 379.898836 
L 303.874403 373.408155 
L 319.092585 366.622997 
L 334.310767 359.569409 
L 349.528949 352.271495 
L 364.747131 344.751335 
L 385.03804 334.419653 
L 405.328949 323.783132 
L 425.619858 312.878586 
L 445.910767 301.738788 
L 471.274403 287.527195 
L 496.63804 273.042985 
L 527.074403 255.362209 
L 557.510767 237.413848 
L 593.019858 216.206499 
L 633.601676 191.701104 
L 684.328949 160.78336 
L 750.274403 120.306595 
L 872.019858 45.284438 
L 872.019858 45.284438 
" style="fill:none;stroke:#0000ff;stroke-linecap:square;stroke-width:3;"/>
   </g>
   <g id="line2d_17">
    <path clip-path="url(#pa920e76a7f)" d="M 111.110767 422.312727 
L 121.256222 422.122443 
L 131.401676 421.561498 
L 141.547131 420.644931 
L 151.692585 419.388177 
L 161.83804 417.806866 
L 171.983494 415.916662 
L 182.128949 413.733096 
L 192.274403 411.271483 
L 202.419858 408.546794 
L 212.565313 405.573594 
L 222.710767 402.365968 
L 232.856222 398.937493 
L 243.001676 395.3012 
L 253.147131 391.469546 
L 263.292585 387.454414 
L 273.43804 383.267093 
L 288.656222 376.686581 
L 303.874403 369.776393 
L 319.092585 362.567576 
L 334.310767 355.088492 
L 349.528949 347.365008 
L 364.747131 339.420711 
L 385.03804 328.523881 
L 405.328949 317.321881 
L 425.619858 305.853877 
L 445.910767 294.154368 
L 471.274403 279.249953 
L 496.63804 264.081738 
L 527.074403 245.592295 
L 557.510767 226.8482 
L 593.019858 204.727546 
L 633.601676 179.195647 
L 684.328949 147.019014 
L 755.347131 101.687934 
L 872.019858 26.967273 
L 872.019858 26.967273 
" style="fill:none;stroke:#ff0000;stroke-linecap:square;stroke-width:3;"/>
   </g>
   <g id="patch_3">
    <path d="M 73.065313 442.08 
L 73.065313 7.2 
" style="fill:none;stroke:#000000;stroke-linecap:square;stroke-linejoin:miter;stroke-width:0.8;"/>
   </g>
   <g id="patch_4">
    <path d="M 73.065313 442.08 
L 910.065313 442.08 
" style="fill:none;stroke:#000000;stroke-linecap:square;stroke-linejoin:miter;stroke-width:0.8;"/>
   </g>
   <g id="legend_1">
    <g id="line2d_18"/>
    <g id="line2d_19">
     <g>
      <use style="stroke:#000000;stroke-linejoin:miter;" x="114.865313" xlink:href="#m2bcf9fe70f" y="34.7"/>
     </g>
    </g>
    <g id="text_17">
     <!-- Reference FEM -->
     <g transform="translate(154.465313 42.4)scale(0.22 -0.22)">
      <defs>
       <path d="M 4325 0 
L 3194 0 
L 1759 1981 
Q 1600 1975 1500 1975 
Q 1459 1975 1412 1976 
Q 1366 1978 1316 1981 
L 1316 750 
Q 1316 350 1403 253 
Q 1522 116 1759 116 
L 1925 116 
L 1925 0 
L 109 0 
L 109 116 
L 269 116 
Q 538 116 653 291 
Q 719 388 719 750 
L 719 3488 
Q 719 3888 631 3984 
Q 509 4122 269 4122 
L 109 4122 
L 109 4238 
L 1653 4238 
Q 2328 4238 2648 4139 
Q 2969 4041 3192 3777 
Q 3416 3513 3416 3147 
Q 3416 2756 3161 2468 
Q 2906 2181 2372 2063 
L 3247 847 
Q 3547 428 3762 290 
Q 3978 153 4325 116 
L 4325 0 
z
M 1316 2178 
Q 1375 2178 1419 2176 
Q 1463 2175 1491 2175 
Q 2097 2175 2405 2437 
Q 2713 2700 2713 3106 
Q 2713 3503 2464 3751 
Q 2216 4000 1806 4000 
Q 1625 4000 1316 3941 
L 1316 2178 
z
" id="TimesNewRomanPSMT-52" transform="scale(0.015625)"/>
       <path d="M 1319 2638 
L 1319 756 
Q 1319 356 1406 250 
Q 1522 113 1716 113 
L 1975 113 
L 1975 0 
L 266 0 
L 266 113 
L 394 113 
Q 519 113 622 175 
Q 725 238 764 344 
Q 803 450 803 756 
L 803 2638 
L 247 2638 
L 247 2863 
L 803 2863 
L 803 3050 
Q 803 3478 940 3775 
Q 1078 4072 1361 4255 
Q 1644 4438 1997 4438 
Q 2325 4438 2600 4225 
Q 2781 4084 2781 3909 
Q 2781 3816 2700 3733 
Q 2619 3650 2525 3650 
Q 2453 3650 2373 3701 
Q 2294 3753 2178 3923 
Q 2063 4094 1966 4153 
Q 1869 4213 1750 4213 
Q 1606 4213 1506 4136 
Q 1406 4059 1362 3898 
Q 1319 3738 1319 3069 
L 1319 2863 
L 2056 2863 
L 2056 2638 
L 1319 2638 
z
" id="TimesNewRomanPSMT-66" transform="scale(0.015625)"/>
       <path d="M 1038 2947 
L 1038 2303 
Q 1397 2947 1775 2947 
Q 1947 2947 2059 2842 
Q 2172 2738 2172 2600 
Q 2172 2478 2090 2393 
Q 2009 2309 1897 2309 
Q 1788 2309 1652 2417 
Q 1516 2525 1450 2525 
Q 1394 2525 1328 2463 
Q 1188 2334 1038 2041 
L 1038 669 
Q 1038 431 1097 309 
Q 1138 225 1241 169 
Q 1344 113 1538 113 
L 1538 0 
L 72 0 
L 72 113 
Q 291 113 397 181 
Q 475 231 506 341 
Q 522 394 522 644 
L 522 1753 
Q 522 2253 501 2348 
Q 481 2444 426 2487 
Q 372 2531 291 2531 
Q 194 2531 72 2484 
L 41 2597 
L 906 2947 
L 1038 2947 
z
" id="TimesNewRomanPSMT-72" transform="scale(0.015625)"/>
       <path d="M 2631 1088 
Q 2516 522 2178 217 
Q 1841 -88 1431 -88 
Q 944 -88 581 321 
Q 219 731 219 1428 
Q 219 2103 620 2525 
Q 1022 2947 1584 2947 
Q 2006 2947 2278 2723 
Q 2550 2500 2550 2259 
Q 2550 2141 2473 2067 
Q 2397 1994 2259 1994 
Q 2075 1994 1981 2113 
Q 1928 2178 1911 2362 
Q 1894 2547 1784 2644 
Q 1675 2738 1481 2738 
Q 1169 2738 978 2506 
Q 725 2200 725 1697 
Q 725 1184 976 792 
Q 1228 400 1656 400 
Q 1963 400 2206 609 
Q 2378 753 2541 1131 
L 2631 1088 
z
" id="TimesNewRomanPSMT-63" transform="scale(0.015625)"/>
       <path d="M 1309 4006 
L 1309 2341 
L 2081 2341 
Q 2347 2341 2470 2458 
Q 2594 2575 2634 2922 
L 2750 2922 
L 2750 1488 
L 2634 1488 
Q 2631 1734 2570 1850 
Q 2509 1966 2401 2023 
Q 2294 2081 2081 2081 
L 1309 2081 
L 1309 750 
Q 1309 428 1350 325 
Q 1381 247 1481 191 
Q 1619 116 1769 116 
L 1922 116 
L 1922 0 
L 103 0 
L 103 116 
L 253 116 
Q 516 116 634 269 
Q 709 369 709 750 
L 709 3488 
Q 709 3809 669 3913 
Q 638 3991 541 4047 
Q 406 4122 253 4122 
L 103 4122 
L 103 4238 
L 3256 4238 
L 3297 3306 
L 3188 3306 
Q 3106 3603 2998 3742 
Q 2891 3881 2733 3943 
Q 2575 4006 2244 4006 
L 1309 4006 
z
" id="TimesNewRomanPSMT-46" transform="scale(0.015625)"/>
       <path d="M 1338 4006 
L 1338 2331 
L 2269 2331 
Q 2631 2331 2753 2441 
Q 2916 2584 2934 2947 
L 3050 2947 
L 3050 1472 
L 2934 1472 
Q 2891 1781 2847 1869 
Q 2791 1978 2662 2040 
Q 2534 2103 2269 2103 
L 1338 2103 
L 1338 706 
Q 1338 425 1363 364 
Q 1388 303 1450 267 
Q 1513 231 1688 231 
L 2406 231 
Q 2766 231 2928 281 
Q 3091 331 3241 478 
Q 3434 672 3638 1063 
L 3763 1063 
L 3397 0 
L 131 0 
L 131 116 
L 281 116 
Q 431 116 566 188 
Q 666 238 702 338 
Q 738 438 738 747 
L 738 3500 
Q 738 3903 656 3997 
Q 544 4122 281 4122 
L 131 4122 
L 131 4238 
L 3397 4238 
L 3444 3309 
L 3322 3309 
Q 3256 3644 3176 3769 
Q 3097 3894 2941 3959 
Q 2816 4006 2500 4006 
L 1338 4006 
z
" id="TimesNewRomanPSMT-45" transform="scale(0.015625)"/>
       <path d="M 2619 0 
L 981 3566 
L 981 734 
Q 981 344 1066 247 
Q 1181 116 1431 116 
L 1581 116 
L 1581 0 
L 106 0 
L 106 116 
L 256 116 
Q 525 116 638 278 
Q 706 378 706 734 
L 706 3503 
Q 706 3784 644 3909 
Q 600 4000 483 4061 
Q 366 4122 106 4122 
L 106 4238 
L 1306 4238 
L 2844 922 
L 4356 4238 
L 5556 4238 
L 5556 4122 
L 5409 4122 
Q 5138 4122 5025 3959 
Q 4956 3859 4956 3503 
L 4956 734 
Q 4956 344 5044 247 
Q 5159 116 5409 116 
L 5556 116 
L 5556 0 
L 3756 0 
L 3756 116 
L 3906 116 
Q 4178 116 4288 278 
Q 4356 378 4356 734 
L 4356 3566 
L 2722 0 
L 2619 0 
z
" id="TimesNewRomanPSMT-4d" transform="scale(0.015625)"/>
      </defs>
      <use xlink:href="#TimesNewRomanPSMT-52"/>
      <use x="66.699219" xlink:href="#TimesNewRomanPSMT-65"/>
      <use x="111.083984" xlink:href="#TimesNewRomanPSMT-66"/>
      <use x="144.384766" xlink:href="#TimesNewRomanPSMT-65"/>
      <use x="188.769531" xlink:href="#TimesNewRomanPSMT-72"/>
      <use x="222.070312" xlink:href="#TimesNewRomanPSMT-65"/>
      <use x="266.455078" xlink:href="#TimesNewRomanPSMT-6e"/>
      <use x="316.455078" xlink:href="#TimesNewRomanPSMT-63"/>
      <use x="360.839844" xlink:href="#TimesNewRomanPSMT-65"/>
      <use x="405.224609" xlink:href="#TimesNewRomanPSMT-20"/>
      <use x="430.224609" xlink:href="#TimesNewRomanPSMT-46"/>
      <use x="485.839844" xlink:href="#TimesNewRomanPSMT-45"/>
      <use x="546.923828" xlink:href="#TimesNewRomanPSMT-4d"/>
     </g>
    </g>
    <g id="line2d_20">
     <path d="M 92.865313 65.805938 
L 136.865313 65.805938 
" style="fill:none;stroke:#0000ff;stroke-linecap:square;stroke-width:3;"/>
    </g>
    <g id="line2d_21"/>
    <g id="text_18">
     <!-- Initial mistuned FEM -->
     <g transform="translate(154.465313 73.505938)scale(0.22 -0.22)">
      <defs>
       <path d="M 1975 116 
L 1975 0 
L 159 0 
L 159 116 
L 309 116 
Q 572 116 691 269 
Q 766 369 766 750 
L 766 3488 
Q 766 3809 725 3913 
Q 694 3991 597 4047 
Q 459 4122 309 4122 
L 159 4122 
L 159 4238 
L 1975 4238 
L 1975 4122 
L 1822 4122 
Q 1563 4122 1444 3969 
Q 1366 3869 1366 3488 
L 1366 750 
Q 1366 428 1406 325 
Q 1438 247 1538 191 
Q 1672 116 1822 116 
L 1975 116 
z
" id="TimesNewRomanPSMT-49" transform="scale(0.015625)"/>
       <path d="M 2050 2947 
L 2050 1972 
L 1947 1972 
Q 1828 2431 1642 2597 
Q 1456 2763 1169 2763 
Q 950 2763 815 2647 
Q 681 2531 681 2391 
Q 681 2216 781 2091 
Q 878 1963 1175 1819 
L 1631 1597 
Q 2266 1288 2266 781 
Q 2266 391 1970 151 
Q 1675 -88 1309 -88 
Q 1047 -88 709 6 
Q 606 38 541 38 
Q 469 38 428 -44 
L 325 -44 
L 325 978 
L 428 978 
Q 516 541 762 319 
Q 1009 97 1316 97 
Q 1531 97 1667 223 
Q 1803 350 1803 528 
Q 1803 744 1651 891 
Q 1500 1038 1047 1263 
Q 594 1488 453 1669 
Q 313 1847 313 2119 
Q 313 2472 555 2709 
Q 797 2947 1181 2947 
Q 1350 2947 1591 2875 
Q 1750 2828 1803 2828 
Q 1853 2828 1881 2850 
Q 1909 2872 1947 2947 
L 2050 2947 
z
" id="TimesNewRomanPSMT-73" transform="scale(0.015625)"/>
      </defs>
      <use xlink:href="#TimesNewRomanPSMT-49"/>
      <use x="33.300781" xlink:href="#TimesNewRomanPSMT-6e"/>
      <use x="83.300781" xlink:href="#TimesNewRomanPSMT-69"/>
      <use x="111.083984" xlink:href="#TimesNewRomanPSMT-74"/>
      <use x="138.867188" xlink:href="#TimesNewRomanPSMT-69"/>
      <use x="166.650391" xlink:href="#TimesNewRomanPSMT-61"/>
      <use x="211.035156" xlink:href="#TimesNewRomanPSMT-6c"/>
      <use x="238.818359" xlink:href="#TimesNewRomanPSMT-20"/>
      <use x="263.818359" xlink:href="#TimesNewRomanPSMT-6d"/>
      <use x="341.601562" xlink:href="#TimesNewRomanPSMT-69"/>
      <use x="369.384766" xlink:href="#TimesNewRomanPSMT-73"/>
      <use x="408.300781" xlink:href="#TimesNewRomanPSMT-74"/>
      <use x="436.083984" xlink:href="#TimesNewRomanPSMT-75"/>
      <use x="486.083984" xlink:href="#TimesNewRomanPSMT-6e"/>
      <use x="536.083984" xlink:href="#TimesNewRomanPSMT-65"/>
      <use x="580.46875" xlink:href="#TimesNewRomanPSMT-64"/>
      <use x="630.46875" xlink:href="#TimesNewRomanPSMT-20"/>
      <use x="655.46875" xlink:href="#TimesNewRomanPSMT-46"/>
      <use x="711.083984" xlink:href="#TimesNewRomanPSMT-45"/>
      <use x="772.167969" xlink:href="#TimesNewRomanPSMT-4d"/>
     </g>
    </g>
    <g id="line2d_22">
     <path d="M 92.865313 96.911875 
L 136.865313 96.911875 
" style="fill:none;stroke:#ff0000;stroke-linecap:square;stroke-width:3;"/>
    </g>
    <g id="line2d_23"/>
    <g id="text_19">
     <!-- Converged FEM -->
     <g transform="translate(154.465313 104.611875)scale(0.22 -0.22)">
      <defs>
       <path d="M 3853 4334 
L 3950 2894 
L 3853 2894 
Q 3659 3541 3300 3825 
Q 2941 4109 2438 4109 
Q 2016 4109 1675 3895 
Q 1334 3681 1139 3212 
Q 944 2744 944 2047 
Q 944 1472 1128 1050 
Q 1313 628 1683 403 
Q 2053 178 2528 178 
Q 2941 178 3256 354 
Q 3572 531 3950 1056 
L 4047 994 
Q 3728 428 3303 165 
Q 2878 -97 2294 -97 
Q 1241 -97 663 684 
Q 231 1266 231 2053 
Q 231 2688 515 3219 
Q 800 3750 1298 4042 
Q 1797 4334 2388 4334 
Q 2847 4334 3294 4109 
Q 3425 4041 3481 4041 
Q 3566 4041 3628 4100 
Q 3709 4184 3744 4334 
L 3853 4334 
z
" id="TimesNewRomanPSMT-43" transform="scale(0.015625)"/>
       <path d="M 1600 2947 
Q 2250 2947 2644 2453 
Q 2978 2031 2978 1484 
Q 2978 1100 2793 706 
Q 2609 313 2286 112 
Q 1963 -88 1566 -88 
Q 919 -88 538 428 
Q 216 863 216 1403 
Q 216 1797 411 2186 
Q 606 2575 925 2761 
Q 1244 2947 1600 2947 
z
M 1503 2744 
Q 1338 2744 1170 2645 
Q 1003 2547 900 2300 
Q 797 2053 797 1666 
Q 797 1041 1045 587 
Q 1294 134 1700 134 
Q 2003 134 2200 384 
Q 2397 634 2397 1244 
Q 2397 2006 2069 2444 
Q 1847 2744 1503 2744 
z
" id="TimesNewRomanPSMT-6f" transform="scale(0.015625)"/>
       <path d="M 53 2863 
L 1400 2863 
L 1400 2747 
L 1313 2747 
Q 1191 2747 1127 2687 
Q 1063 2628 1063 2528 
Q 1063 2419 1128 2269 
L 1794 688 
L 2463 2328 
Q 2534 2503 2534 2594 
Q 2534 2638 2509 2666 
Q 2475 2713 2422 2730 
Q 2369 2747 2206 2747 
L 2206 2863 
L 3141 2863 
L 3141 2747 
Q 2978 2734 2916 2681 
Q 2806 2588 2719 2369 
L 1703 -88 
L 1575 -88 
L 553 2328 
Q 484 2497 421 2570 
Q 359 2644 263 2694 
Q 209 2722 53 2747 
L 53 2863 
z
" id="TimesNewRomanPSMT-76" transform="scale(0.015625)"/>
      </defs>
      <use xlink:href="#TimesNewRomanPSMT-43"/>
      <use x="66.699219" xlink:href="#TimesNewRomanPSMT-6f"/>
      <use x="116.699219" xlink:href="#TimesNewRomanPSMT-6e"/>
      <use x="166.699219" xlink:href="#TimesNewRomanPSMT-76"/>
      <use x="216.699219" xlink:href="#TimesNewRomanPSMT-65"/>
      <use x="261.083984" xlink:href="#TimesNewRomanPSMT-72"/>
      <use x="292.634766" xlink:href="#TimesNewRomanPSMT-67"/>
      <use x="342.634766" xlink:href="#TimesNewRomanPSMT-65"/>
      <use x="387.019531" xlink:href="#TimesNewRomanPSMT-64"/>
      <use x="437.019531" xlink:href="#TimesNewRomanPSMT-20"/>
      <use x="462.019531" xlink:href="#TimesNewRomanPSMT-46"/>
      <use x="517.634766" xlink:href="#TimesNewRomanPSMT-45"/>
      <use x="578.71875" xlink:href="#TimesNewRomanPSMT-4d"/>
     </g>
    </g>
   </g>
  </g>
 </g>
 <defs>
  <clipPath id="pa920e76a7f">
   <rect height="434.88" width="837" x="73.065313" y="7.2"/>
  </clipPath>
 </defs>
</svg>
