<?xml version="1.0" encoding="utf-8" standalone="no"?>
<!DOCTYPE svg PUBLIC "-//W3C//DTD SVG 1.1//EN"
  "http://www.w3.org/Graphics/SVG/1.1/DTD/svg11.dtd">
<!-- Created with matplotlib (https://matplotlib.org/) -->
<svg height="515.291094pt" version="1.1" viewBox="0 0 931.362969 515.291094" width="931.362969pt" xmlns="http://www.w3.org/2000/svg" xmlns:xlink="http://www.w3.org/1999/xlink">
 <metadata>
  <rdf:RDF xmlns:cc="http://creativecommons.org/ns#" xmlns:dc="http://purl.org/dc/elements/1.1/" xmlns:rdf="http://www.w3.org/1999/02/22-rdf-syntax-ns#">
   <cc:Work>
    <dc:type rdf:resource="http://purl.org/dc/dcmitype/StillImage"/>
    <dc:date>2021-12-07T18:45:51.704913</dc:date>
    <dc:format>image/svg+xml</dc:format>
    <dc:creator>
     <cc:Agent>
      <dc:title>Matplotlib v3.3.4, https://matplotlib.org/</dc:title>
     </cc:Agent>
    </dc:creator>
   </cc:Work>
  </rdf:RDF>
 </metadata>
 <defs>
  <style type="text/css">*{stroke-linecap:butt;stroke-linejoin:round;}</style>
 </defs>
 <g id="figure_1">
  <g id="patch_1">
   <path d="M 0 515.291094 
L 931.362969 515.291094 
L 931.362969 0 
L 0 0 
z
" style="fill:#ffffff;"/>
  </g>
  <g id="axes_1">
   <g id="patch_2">
    <path d="M 87.162969 450.72 
L 924.162969 450.72 
L 924.162969 7.2 
L 87.162969 7.2 
z
" style="fill:#ffffff;"/>
   </g>
   <g id="matplotlib.axis_1">
    <g id="xtick_1">
     <g id="line2d_1">
      <defs>
       <path d="M 0 0 
L 0 3.5 
" id="m4649fe8be0" style="stroke:#000000;stroke-width:0.8;"/>
      </defs>
      <g>
       <use style="stroke:#000000;stroke-width:0.8;" x="125.208423" xlink:href="#m4649fe8be0" y="450.72"/>
      </g>
     </g>
     <g id="text_1">
      <!-- 0.0 -->
      <g transform="translate(109.583423 475.079375)scale(0.25 -0.25)">
       <defs>
        <path d="M 3.609375 32.71875 
Q 3.609375 44.046875 7.03125 52.21875 
Q 10.453125 60.40625 16.109375 64.40625 
Q 20.515625 67.578125 25.203125 67.578125 
Q 32.8125 67.578125 38.875 59.8125 
Q 46.4375 50.203125 46.4375 33.734375 
Q 46.4375 22.21875 43.109375 14.15625 
Q 39.796875 6.109375 34.640625 2.46875 
Q 29.5 -1.171875 24.703125 -1.171875 
Q 15.234375 -1.171875 8.9375 10.015625 
Q 3.609375 19.4375 3.609375 32.71875 
z
M 13.1875 31.5 
Q 13.1875 17.828125 16.546875 9.1875 
Q 19.34375 1.90625 24.859375 1.90625 
Q 27.484375 1.90625 30.3125 4.265625 
Q 33.15625 6.640625 34.625 12.203125 
Q 36.859375 20.609375 36.859375 35.890625 
Q 36.859375 47.21875 34.515625 54.78125 
Q 32.765625 60.40625 29.984375 62.75 
Q 27.984375 64.359375 25.140625 64.359375 
Q 21.828125 64.359375 19.234375 61.375 
Q 15.71875 57.328125 14.453125 48.625 
Q 13.1875 39.9375 13.1875 31.5 
z
" id="TimesNewRomanPSMT-48"/>
        <path d="M 12.5 9.46875 
Q 14.796875 9.46875 16.359375 7.875 
Q 17.921875 6.296875 17.921875 4.046875 
Q 17.921875 1.8125 16.328125 0.21875 
Q 14.75 -1.375 12.5 -1.375 
Q 10.25 -1.375 8.65625 0.21875 
Q 7.078125 1.8125 7.078125 4.046875 
Q 7.078125 6.34375 8.65625 7.90625 
Q 10.25 9.46875 12.5 9.46875 
z
" id="TimesNewRomanPSMT-46"/>
       </defs>
       <use xlink:href="#TimesNewRomanPSMT-48"/>
       <use x="50" xlink:href="#TimesNewRomanPSMT-46"/>
       <use x="75" xlink:href="#TimesNewRomanPSMT-48"/>
      </g>
     </g>
    </g>
    <g id="xtick_2">
     <g id="line2d_2">
      <g>
       <use style="stroke:#000000;stroke-width:0.8;" x="226.662969" xlink:href="#m4649fe8be0" y="450.72"/>
      </g>
     </g>
     <g id="text_2">
      <!-- 0.2 -->
      <g transform="translate(211.037969 475.079375)scale(0.25 -0.25)">
       <defs>
        <path d="M 45.84375 12.75 
L 41.21875 0 
L 2.15625 0 
L 2.15625 1.8125 
Q 19.390625 17.53125 26.421875 27.484375 
Q 33.453125 37.453125 33.453125 45.703125 
Q 33.453125 52 29.59375 56.046875 
Q 25.734375 60.109375 20.359375 60.109375 
Q 15.484375 60.109375 11.59375 57.25 
Q 7.71875 54.390625 5.859375 48.875 
L 4.046875 48.875 
Q 5.28125 57.90625 10.328125 62.734375 
Q 15.375 67.578125 22.953125 67.578125 
Q 31 67.578125 36.390625 62.40625 
Q 41.796875 57.234375 41.796875 50.203125 
Q 41.796875 45.171875 39.453125 40.140625 
Q 35.84375 32.234375 27.734375 23.390625 
Q 15.578125 10.109375 12.546875 7.375 
L 29.828125 7.375 
Q 35.109375 7.375 37.234375 7.765625 
Q 39.359375 8.15625 41.0625 9.34375 
Q 42.78125 10.546875 44.046875 12.75 
z
" id="TimesNewRomanPSMT-50"/>
       </defs>
       <use xlink:href="#TimesNewRomanPSMT-48"/>
       <use x="50" xlink:href="#TimesNewRomanPSMT-46"/>
       <use x="75" xlink:href="#TimesNewRomanPSMT-50"/>
      </g>
     </g>
    </g>
    <g id="xtick_3">
     <g id="line2d_3">
      <g>
       <use style="stroke:#000000;stroke-width:0.8;" x="328.117514" xlink:href="#m4649fe8be0" y="450.72"/>
      </g>
     </g>
     <g id="text_3">
      <!-- 0.4 -->
      <g transform="translate(312.492514 475.079375)scale(0.25 -0.25)">
       <defs>
        <path d="M 46.53125 24.421875 
L 46.53125 17.484375 
L 37.640625 17.484375 
L 37.640625 0 
L 29.59375 0 
L 29.59375 17.484375 
L 1.5625 17.484375 
L 1.5625 23.734375 
L 32.28125 67.578125 
L 37.640625 67.578125 
L 37.640625 24.421875 
z
M 29.59375 24.421875 
L 29.59375 57.28125 
L 6.34375 24.421875 
z
" id="TimesNewRomanPSMT-52"/>
       </defs>
       <use xlink:href="#TimesNewRomanPSMT-48"/>
       <use x="50" xlink:href="#TimesNewRomanPSMT-46"/>
       <use x="75" xlink:href="#TimesNewRomanPSMT-52"/>
      </g>
     </g>
    </g>
    <g id="xtick_4">
     <g id="line2d_4">
      <g>
       <use style="stroke:#000000;stroke-width:0.8;" x="429.57206" xlink:href="#m4649fe8be0" y="450.72"/>
      </g>
     </g>
     <g id="text_4">
      <!-- 0.6 -->
      <g transform="translate(413.94706 475.079375)scale(0.25 -0.25)">
       <defs>
        <path d="M 44.828125 67.578125 
L 44.828125 65.765625 
Q 38.375 65.140625 34.296875 63.203125 
Q 30.21875 61.28125 26.234375 57.328125 
Q 22.265625 53.375 19.65625 48.515625 
Q 17.046875 43.65625 15.28125 36.96875 
Q 22.3125 41.796875 29.390625 41.796875 
Q 36.1875 41.796875 41.15625 36.328125 
Q 46.140625 30.859375 46.140625 22.265625 
Q 46.140625 13.96875 41.109375 7.125 
Q 35.0625 -1.171875 25.09375 -1.171875 
Q 18.3125 -1.171875 13.578125 3.328125 
Q 4.296875 12.0625 4.296875 25.984375 
Q 4.296875 34.859375 7.859375 42.859375 
Q 11.421875 50.875 18.03125 57.078125 
Q 24.65625 63.28125 30.703125 65.421875 
Q 36.765625 67.578125 42 67.578125 
z
M 14.453125 33.40625 
Q 13.578125 26.8125 13.578125 22.75 
Q 13.578125 18.0625 15.3125 12.5625 
Q 17.046875 7.078125 20.453125 3.859375 
Q 22.953125 1.5625 26.515625 1.5625 
Q 30.765625 1.5625 34.109375 5.5625 
Q 37.453125 9.578125 37.453125 17 
Q 37.453125 25.34375 34.125 31.4375 
Q 30.8125 37.546875 24.703125 37.546875 
Q 22.859375 37.546875 20.734375 36.765625 
Q 18.609375 35.984375 14.453125 33.40625 
z
" id="TimesNewRomanPSMT-54"/>
       </defs>
       <use xlink:href="#TimesNewRomanPSMT-48"/>
       <use x="50" xlink:href="#TimesNewRomanPSMT-46"/>
       <use x="75" xlink:href="#TimesNewRomanPSMT-54"/>
      </g>
     </g>
    </g>
    <g id="xtick_5">
     <g id="line2d_5">
      <g>
       <use style="stroke:#000000;stroke-width:0.8;" x="531.026605" xlink:href="#m4649fe8be0" y="450.72"/>
      </g>
     </g>
     <g id="text_5">
      <!-- 0.8 -->
      <g transform="translate(515.401605 475.079375)scale(0.25 -0.25)">
       <defs>
        <path d="M 19.1875 33.34375 
Q 11.328125 39.796875 9.046875 43.703125 
Q 6.78125 47.609375 6.78125 51.8125 
Q 6.78125 58.25 11.765625 62.90625 
Q 16.75 67.578125 25 67.578125 
Q 33.015625 67.578125 37.890625 63.234375 
Q 42.78125 58.890625 42.78125 53.328125 
Q 42.78125 49.609375 40.140625 45.75 
Q 37.5 41.890625 29.15625 36.671875 
Q 37.75 30.03125 40.53125 26.21875 
Q 44.234375 21.234375 44.234375 15.71875 
Q 44.234375 8.734375 38.90625 3.78125 
Q 33.59375 -1.171875 24.953125 -1.171875 
Q 15.53125 -1.171875 10.25 4.734375 
Q 6.0625 9.46875 6.0625 15.09375 
Q 6.0625 19.484375 9.015625 23.796875 
Q 11.96875 28.125 19.1875 33.34375 
z
M 26.859375 38.578125 
Q 32.71875 43.84375 34.28125 46.890625 
Q 35.84375 49.953125 35.84375 53.8125 
Q 35.84375 58.9375 32.953125 61.84375 
Q 30.078125 64.75 25.09375 64.75 
Q 20.125 64.75 17 61.859375 
Q 13.875 58.984375 13.875 55.125 
Q 13.875 52.59375 15.15625 50.046875 
Q 16.453125 47.515625 18.84375 45.21875 
z
M 21.484375 31.5 
Q 17.4375 28.078125 15.484375 24.046875 
Q 13.53125 20.015625 13.53125 15.328125 
Q 13.53125 9.03125 16.96875 5.25 
Q 20.40625 1.46875 25.734375 1.46875 
Q 31 1.46875 34.171875 4.4375 
Q 37.359375 7.421875 37.359375 11.671875 
Q 37.359375 15.1875 35.5 17.96875 
Q 32.03125 23.140625 21.484375 31.5 
z
" id="TimesNewRomanPSMT-56"/>
       </defs>
       <use xlink:href="#TimesNewRomanPSMT-48"/>
       <use x="50" xlink:href="#TimesNewRomanPSMT-46"/>
       <use x="75" xlink:href="#TimesNewRomanPSMT-56"/>
      </g>
     </g>
    </g>
    <g id="xtick_6">
     <g id="line2d_6">
      <g>
       <use style="stroke:#000000;stroke-width:0.8;" x="632.481151" xlink:href="#m4649fe8be0" y="450.72"/>
      </g>
     </g>
     <g id="text_6">
      <!-- 1.0 -->
      <g transform="translate(616.856151 475.079375)scale(0.25 -0.25)">
       <defs>
        <path d="M 11.71875 59.71875 
L 27.828125 67.578125 
L 29.4375 67.578125 
L 29.4375 11.671875 
Q 29.4375 6.109375 29.90625 4.734375 
Q 30.375 3.375 31.828125 2.640625 
Q 33.296875 1.90625 37.796875 1.8125 
L 37.796875 0 
L 12.890625 0 
L 12.890625 1.8125 
Q 17.578125 1.90625 18.9375 2.609375 
Q 20.3125 3.328125 20.84375 4.515625 
Q 21.390625 5.71875 21.390625 11.671875 
L 21.390625 47.40625 
Q 21.390625 54.640625 20.90625 56.6875 
Q 20.5625 58.25 19.65625 58.984375 
Q 18.75 59.71875 17.484375 59.71875 
Q 15.671875 59.71875 12.453125 58.203125 
z
" id="TimesNewRomanPSMT-49"/>
       </defs>
       <use xlink:href="#TimesNewRomanPSMT-49"/>
       <use x="50" xlink:href="#TimesNewRomanPSMT-46"/>
       <use x="75" xlink:href="#TimesNewRomanPSMT-48"/>
      </g>
     </g>
    </g>
    <g id="xtick_7">
     <g id="line2d_7">
      <g>
       <use style="stroke:#000000;stroke-width:0.8;" x="733.935696" xlink:href="#m4649fe8be0" y="450.72"/>
      </g>
     </g>
     <g id="text_7">
      <!-- 1.2 -->
      <g transform="translate(718.310696 475.079375)scale(0.25 -0.25)">
       <use xlink:href="#TimesNewRomanPSMT-49"/>
       <use x="50" xlink:href="#TimesNewRomanPSMT-46"/>
       <use x="75" xlink:href="#TimesNewRomanPSMT-50"/>
      </g>
     </g>
    </g>
    <g id="xtick_8">
     <g id="line2d_8">
      <g>
       <use style="stroke:#000000;stroke-width:0.8;" x="835.390241" xlink:href="#m4649fe8be0" y="450.72"/>
      </g>
     </g>
     <g id="text_8">
      <!-- 1.4 -->
      <g transform="translate(819.765241 475.079375)scale(0.25 -0.25)">
       <use xlink:href="#TimesNewRomanPSMT-49"/>
       <use x="50" xlink:href="#TimesNewRomanPSMT-46"/>
       <use x="75" xlink:href="#TimesNewRomanPSMT-52"/>
      </g>
     </g>
    </g>
    <g id="text_9">
     <!-- Beam Length [m] -->
     <g transform="translate(413.247187 502.480781)scale(0.26 -0.26)">
      <defs>
       <path d="M 46.1875 33.796875 
Q 53.078125 32.328125 56.5 29.109375 
Q 61.234375 24.609375 61.234375 18.109375 
Q 61.234375 13.1875 58.109375 8.671875 
Q 54.984375 4.15625 49.53125 2.078125 
Q 44.09375 0 32.90625 0 
L 1.65625 0 
L 1.65625 1.8125 
L 4.15625 1.8125 
Q 8.296875 1.8125 10.109375 4.4375 
Q 11.234375 6.15625 11.234375 11.71875 
L 11.234375 54.5 
Q 11.234375 60.640625 9.8125 62.25 
Q 7.90625 64.40625 4.15625 64.40625 
L 1.65625 64.40625 
L 1.65625 66.21875 
L 30.28125 66.21875 
Q 38.28125 66.21875 43.109375 65.046875 
Q 50.4375 63.28125 54.296875 58.8125 
Q 58.15625 54.34375 58.15625 48.53125 
Q 58.15625 43.5625 55.125 39.625 
Q 52.09375 35.6875 46.1875 33.796875 
z
M 20.609375 36.421875 
Q 22.40625 36.078125 24.71875 35.90625 
Q 27.046875 35.75 29.828125 35.75 
Q 36.96875 35.75 40.546875 37.28125 
Q 44.140625 38.8125 46.046875 41.984375 
Q 47.953125 45.171875 47.953125 48.921875 
Q 47.953125 54.734375 43.21875 58.828125 
Q 38.484375 62.9375 29.390625 62.9375 
Q 24.515625 62.9375 20.609375 61.859375 
z
M 20.609375 4.78125 
Q 26.265625 3.46875 31.78125 3.46875 
Q 40.625 3.46875 45.265625 7.4375 
Q 49.90625 11.421875 49.90625 17.28125 
Q 49.90625 21.140625 47.796875 24.703125 
Q 45.703125 28.265625 40.96875 30.3125 
Q 36.234375 32.375 29.25 32.375 
Q 26.21875 32.375 24.0625 32.265625 
Q 21.921875 32.171875 20.609375 31.9375 
z
" id="TimesNewRomanPSMT-66"/>
       <path d="M 10.640625 27.875 
Q 10.59375 17.921875 15.484375 12.25 
Q 20.359375 6.59375 26.953125 6.59375 
Q 31.34375 6.59375 34.59375 9 
Q 37.84375 11.421875 40.046875 17.28125 
L 41.546875 16.3125 
Q 40.53125 9.625 35.59375 4.125 
Q 30.671875 -1.375 23.25 -1.375 
Q 15.1875 -1.375 9.453125 4.90625 
Q 3.71875 11.1875 3.71875 21.78125 
Q 3.71875 33.25 9.59375 39.671875 
Q 15.484375 46.09375 24.359375 46.09375 
Q 31.890625 46.09375 36.71875 41.140625 
Q 41.546875 36.1875 41.546875 27.875 
z
M 10.640625 30.71875 
L 31.34375 30.71875 
Q 31.109375 35.015625 30.328125 36.765625 
Q 29.109375 39.5 26.6875 41.0625 
Q 24.265625 42.625 21.625 42.625 
Q 17.578125 42.625 14.375 39.46875 
Q 11.1875 36.328125 10.640625 30.71875 
z
" id="TimesNewRomanPSMT-101"/>
       <path d="M 28.46875 6.453125 
Q 21.578125 1.125 19.828125 0.296875 
Q 17.1875 -0.921875 14.203125 -0.921875 
Q 9.578125 -0.921875 6.5625 2.25 
Q 3.5625 5.421875 3.5625 10.59375 
Q 3.5625 13.875 5.03125 16.265625 
Q 7.03125 19.578125 11.984375 22.5 
Q 16.9375 25.4375 28.46875 29.640625 
L 28.46875 31.390625 
Q 28.46875 38.09375 26.34375 40.578125 
Q 24.21875 43.0625 20.171875 43.0625 
Q 17.09375 43.0625 15.28125 41.40625 
Q 13.421875 39.75 13.421875 37.59375 
L 13.53125 34.765625 
Q 13.53125 32.515625 12.375 31.296875 
Q 11.234375 30.078125 9.375 30.078125 
Q 7.5625 30.078125 6.421875 31.34375 
Q 5.28125 32.625 5.28125 34.8125 
Q 5.28125 39.015625 9.578125 42.53125 
Q 13.875 46.046875 21.625 46.046875 
Q 27.59375 46.046875 31.390625 44.046875 
Q 34.28125 42.53125 35.640625 39.3125 
Q 36.53125 37.203125 36.53125 30.71875 
L 36.53125 15.53125 
Q 36.53125 9.125 36.765625 7.6875 
Q 37.015625 6.25 37.578125 5.765625 
Q 38.140625 5.28125 38.875 5.28125 
Q 39.65625 5.28125 40.234375 5.609375 
Q 41.265625 6.25 44.1875 9.1875 
L 44.1875 6.453125 
Q 38.71875 -0.875 33.734375 -0.875 
Q 31.34375 -0.875 29.921875 0.78125 
Q 28.515625 2.4375 28.46875 6.453125 
z
M 28.46875 9.625 
L 28.46875 26.65625 
Q 21.09375 23.734375 18.953125 22.515625 
Q 15.09375 20.359375 13.421875 18.015625 
Q 11.765625 15.671875 11.765625 12.890625 
Q 11.765625 9.375 13.859375 7.046875 
Q 15.96875 4.734375 18.703125 4.734375 
Q 22.40625 4.734375 28.46875 9.625 
z
" id="TimesNewRomanPSMT-97"/>
       <path d="M 16.40625 36.53125 
Q 21.296875 41.40625 22.171875 42.140625 
Q 24.359375 44 26.890625 45.015625 
Q 29.4375 46.046875 31.9375 46.046875 
Q 36.140625 46.046875 39.15625 43.59375 
Q 42.1875 41.15625 43.21875 36.53125 
Q 48.25 42.390625 51.703125 44.21875 
Q 55.171875 46.046875 58.84375 46.046875 
Q 62.40625 46.046875 65.15625 44.21875 
Q 67.921875 42.390625 69.53125 38.234375 
Q 70.609375 35.40625 70.609375 29.34375 
L 70.609375 10.109375 
Q 70.609375 5.90625 71.234375 4.34375 
Q 71.734375 3.265625 73.046875 2.515625 
Q 74.359375 1.765625 77.34375 1.765625 
L 77.34375 0 
L 55.28125 0 
L 55.28125 1.765625 
L 56.203125 1.765625 
Q 59.078125 1.765625 60.6875 2.875 
Q 61.8125 3.65625 62.3125 5.375 
Q 62.5 6.203125 62.5 10.109375 
L 62.5 29.34375 
Q 62.5 34.8125 61.1875 37.0625 
Q 59.28125 40.1875 55.078125 40.1875 
Q 52.484375 40.1875 49.875 38.890625 
Q 47.265625 37.59375 43.5625 34.078125 
L 43.453125 33.546875 
L 43.5625 31.453125 
L 43.5625 10.109375 
Q 43.5625 5.515625 44.0625 4.390625 
Q 44.578125 3.265625 45.984375 2.515625 
Q 47.40625 1.765625 50.828125 1.765625 
L 50.828125 0 
L 28.21875 0 
L 28.21875 1.765625 
Q 31.9375 1.765625 33.328125 2.640625 
Q 34.71875 3.515625 35.25 5.28125 
Q 35.5 6.109375 35.5 10.109375 
L 35.5 29.34375 
Q 35.5 34.8125 33.890625 37.203125 
Q 31.734375 40.328125 27.875 40.328125 
Q 25.25 40.328125 22.65625 38.921875 
Q 18.609375 36.765625 16.40625 34.078125 
L 16.40625 10.109375 
Q 16.40625 5.71875 17.015625 4.390625 
Q 17.625 3.078125 18.8125 2.421875 
Q 20.015625 1.765625 23.6875 1.765625 
L 23.6875 0 
L 1.5625 0 
L 1.5625 1.765625 
Q 4.640625 1.765625 5.859375 2.421875 
Q 7.078125 3.078125 7.703125 4.515625 
Q 8.34375 5.953125 8.34375 10.109375 
L 8.34375 27.203125 
Q 8.34375 34.578125 7.90625 36.71875 
Q 7.5625 38.328125 6.828125 38.9375 
Q 6.109375 39.546875 4.828125 39.546875 
Q 3.46875 39.546875 1.5625 38.8125 
L 0.828125 40.578125 
L 14.3125 46.046875 
L 16.40625 46.046875 
z
" id="TimesNewRomanPSMT-109"/>
       <path id="TimesNewRomanPSMT-32"/>
       <path d="M 57.328125 18.3125 
L 58.9375 17.96875 
L 53.265625 0 
L 2 0 
L 2 1.8125 
L 4.5 1.8125 
Q 8.6875 1.8125 10.5 4.546875 
Q 11.53125 6.109375 11.53125 11.765625 
L 11.53125 54.5 
Q 11.53125 60.6875 10.15625 62.25 
Q 8.25 64.40625 4.5 64.40625 
L 2 64.40625 
L 2 66.21875 
L 31.984375 66.21875 
L 31.984375 64.40625 
Q 26.703125 64.453125 24.578125 63.421875 
Q 22.46875 62.40625 21.6875 60.84375 
Q 20.90625 59.28125 20.90625 53.375 
L 20.90625 11.765625 
Q 20.90625 7.71875 21.6875 6.203125 
Q 22.265625 5.171875 23.484375 4.6875 
Q 24.703125 4.203125 31.109375 4.203125 
L 35.9375 4.203125 
Q 43.5625 4.203125 46.625 5.328125 
Q 49.703125 6.453125 52.234375 9.296875 
Q 54.78125 12.15625 57.328125 18.3125 
z
" id="TimesNewRomanPSMT-76"/>
       <path d="M 16.15625 36.578125 
Q 24.03125 46.046875 31.15625 46.046875 
Q 34.8125 46.046875 37.453125 44.21875 
Q 40.09375 42.390625 41.65625 38.1875 
Q 42.71875 35.25 42.71875 29.203125 
L 42.71875 10.109375 
Q 42.71875 5.859375 43.40625 4.34375 
Q 43.953125 3.125 45.140625 2.4375 
Q 46.34375 1.765625 49.5625 1.765625 
L 49.5625 0 
L 27.4375 0 
L 27.4375 1.765625 
L 28.375 1.765625 
Q 31.5 1.765625 32.734375 2.703125 
Q 33.984375 3.65625 34.46875 5.515625 
Q 34.671875 6.25 34.671875 10.109375 
L 34.671875 28.421875 
Q 34.671875 34.515625 33.078125 37.28125 
Q 31.5 40.046875 27.734375 40.046875 
Q 21.921875 40.046875 16.15625 33.6875 
L 16.15625 10.109375 
Q 16.15625 5.5625 16.703125 4.5 
Q 17.390625 3.078125 18.578125 2.421875 
Q 19.78125 1.765625 23.4375 1.765625 
L 23.4375 0 
L 1.3125 0 
L 1.3125 1.765625 
L 2.296875 1.765625 
Q 5.71875 1.765625 6.90625 3.484375 
Q 8.109375 5.21875 8.109375 10.109375 
L 8.109375 26.703125 
Q 8.109375 34.765625 7.734375 36.515625 
Q 7.375 38.28125 6.609375 38.90625 
Q 5.859375 39.546875 4.59375 39.546875 
Q 3.21875 39.546875 1.3125 38.8125 
L 0.59375 40.578125 
L 14.0625 46.046875 
L 16.15625 46.046875 
z
" id="TimesNewRomanPSMT-110"/>
       <path d="M 15.09375 16.3125 
Q 10.984375 18.3125 8.78125 21.890625 
Q 6.59375 25.484375 6.59375 29.828125 
Q 6.59375 36.46875 11.59375 41.25 
Q 16.609375 46.046875 24.421875 46.046875 
Q 30.8125 46.046875 35.5 42.921875 
L 44.96875 42.921875 
Q 47.078125 42.921875 47.40625 42.796875 
Q 47.75 42.671875 47.90625 42.390625 
Q 48.1875 41.9375 48.1875 40.828125 
Q 48.1875 39.546875 47.953125 39.0625 
Q 47.796875 38.8125 47.4375 38.671875 
Q 47.078125 38.53125 44.96875 38.53125 
L 39.15625 38.53125 
Q 41.890625 35.015625 41.890625 29.546875 
Q 41.890625 23.296875 37.109375 18.84375 
Q 32.328125 14.40625 24.265625 14.40625 
Q 20.953125 14.40625 17.484375 15.375 
Q 15.328125 13.53125 14.5625 12.140625 
Q 13.8125 10.75 13.8125 9.765625 
Q 13.8125 8.9375 14.625 8.15625 
Q 15.4375 7.375 17.78125 7.03125 
Q 19.140625 6.84375 24.609375 6.6875 
Q 34.671875 6.453125 37.640625 6 
Q 42.1875 5.375 44.890625 2.640625 
Q 47.609375 -0.09375 47.609375 -4.109375 
Q 47.609375 -9.625 42.4375 -14.453125 
Q 34.8125 -21.578125 22.5625 -21.578125 
Q 13.140625 -21.578125 6.640625 -17.328125 
Q 2.984375 -14.890625 2.984375 -12.25 
Q 2.984375 -11.078125 3.515625 -9.90625 
Q 4.34375 -8.109375 6.9375 -4.890625 
Q 7.28125 -4.4375 11.921875 0.390625 
Q 9.375 1.90625 8.328125 3.09375 
Q 7.28125 4.296875 7.28125 5.8125 
Q 7.28125 7.515625 8.671875 9.8125 
Q 10.0625 12.109375 15.09375 16.3125 
z
M 23.578125 43.703125 
Q 19.96875 43.703125 17.53125 40.8125 
Q 15.09375 37.9375 15.09375 31.984375 
Q 15.09375 24.265625 18.40625 20.015625 
Q 20.953125 16.796875 24.859375 16.796875 
Q 28.5625 16.796875 30.953125 19.578125 
Q 33.34375 22.359375 33.34375 28.328125 
Q 33.34375 36.078125 29.984375 40.484375 
Q 27.484375 43.703125 23.578125 43.703125 
z
M 14.59375 0 
Q 12.3125 -2.484375 11.140625 -4.625 
Q 9.96875 -6.78125 9.96875 -8.59375 
Q 9.96875 -10.9375 12.796875 -12.703125 
Q 17.671875 -15.71875 26.90625 -15.71875 
Q 35.6875 -15.71875 39.859375 -12.609375 
Q 44.046875 -9.515625 44.046875 -6 
Q 44.046875 -3.46875 41.546875 -2.390625 
Q 39.015625 -1.3125 31.5 -1.125 
Q 20.515625 -0.828125 14.59375 0 
z
" id="TimesNewRomanPSMT-103"/>
       <path d="M 16.109375 59.421875 
L 16.109375 44.734375 
L 26.5625 44.734375 
L 26.5625 41.3125 
L 16.109375 41.3125 
L 16.109375 12.3125 
Q 16.109375 7.953125 17.359375 6.4375 
Q 18.609375 4.9375 20.5625 4.9375 
Q 22.171875 4.9375 23.6875 5.9375 
Q 25.203125 6.9375 26.03125 8.890625 
L 27.9375 8.890625 
Q 26.21875 4.109375 23.09375 1.6875 
Q 19.96875 -0.734375 16.65625 -0.734375 
Q 14.40625 -0.734375 12.25 0.515625 
Q 10.109375 1.765625 9.078125 4.078125 
Q 8.0625 6.390625 8.0625 11.234375 
L 8.0625 41.3125 
L 0.984375 41.3125 
L 0.984375 42.921875 
Q 3.65625 44 6.46875 46.5625 
Q 9.28125 49.125 11.46875 52.640625 
Q 12.59375 54.5 14.59375 59.421875 
z
" id="TimesNewRomanPSMT-116"/>
       <path d="M 16.265625 69.4375 
L 16.265625 36.71875 
Q 21.6875 42.671875 24.859375 44.359375 
Q 28.03125 46.046875 31.203125 46.046875 
Q 35.015625 46.046875 37.75 43.9375 
Q 40.484375 41.84375 41.796875 37.359375 
Q 42.71875 34.234375 42.71875 25.921875 
L 42.71875 10.109375 
Q 42.71875 5.859375 43.40625 4.296875 
Q 43.890625 3.125 45.0625 2.4375 
Q 46.234375 1.765625 49.359375 1.765625 
L 49.359375 0 
L 27.390625 0 
L 27.390625 1.765625 
L 28.421875 1.765625 
Q 31.546875 1.765625 32.765625 2.703125 
Q 33.984375 3.65625 34.46875 5.515625 
Q 34.625 6.296875 34.625 10.109375 
L 34.625 25.921875 
Q 34.625 33.25 33.859375 35.546875 
Q 33.109375 37.84375 31.4375 38.984375 
Q 29.78125 40.140625 27.4375 40.140625 
Q 25.046875 40.140625 22.453125 38.859375 
Q 19.875 37.59375 16.265625 33.734375 
L 16.265625 10.109375 
Q 16.265625 5.515625 16.765625 4.390625 
Q 17.28125 3.265625 18.671875 2.515625 
Q 20.0625 1.765625 23.484375 1.765625 
L 23.484375 0 
L 1.3125 0 
L 1.3125 1.765625 
Q 4.296875 1.765625 6 2.6875 
Q 6.984375 3.171875 7.5625 4.53125 
Q 8.15625 5.90625 8.15625 10.109375 
L 8.15625 50.59375 
Q 8.15625 58.25 7.78125 60 
Q 7.421875 61.765625 6.65625 62.390625 
Q 5.90625 63.03125 4.640625 63.03125 
Q 3.609375 63.03125 1.3125 62.25 
L 0.640625 63.96875 
L 14.015625 69.4375 
z
" id="TimesNewRomanPSMT-104"/>
       <path d="M 29.6875 -19.828125 
L 8.203125 -19.828125 
L 8.203125 67.71875 
L 29.6875 67.71875 
L 29.6875 63.875 
L 15.53125 63.875 
L 15.53125 -16.015625 
L 29.6875 -16.015625 
z
" id="TimesNewRomanPSMT-91"/>
       <path d="M 3.65625 67.71875 
L 25.140625 67.71875 
L 25.140625 -19.875 
L 3.65625 -19.875 
L 3.65625 -16.015625 
L 17.828125 -16.015625 
L 17.828125 63.875 
L 3.65625 63.875 
z
" id="TimesNewRomanPSMT-93"/>
      </defs>
      <use xlink:href="#TimesNewRomanPSMT-66"/>
      <use x="66.699219" xlink:href="#TimesNewRomanPSMT-101"/>
      <use x="111.083984" xlink:href="#TimesNewRomanPSMT-97"/>
      <use x="155.46875" xlink:href="#TimesNewRomanPSMT-109"/>
      <use x="233.251953" xlink:href="#TimesNewRomanPSMT-32"/>
      <use x="258.251953" xlink:href="#TimesNewRomanPSMT-76"/>
      <use x="319.335938" xlink:href="#TimesNewRomanPSMT-101"/>
      <use x="363.720703" xlink:href="#TimesNewRomanPSMT-110"/>
      <use x="413.720703" xlink:href="#TimesNewRomanPSMT-103"/>
      <use x="463.720703" xlink:href="#TimesNewRomanPSMT-116"/>
      <use x="491.503906" xlink:href="#TimesNewRomanPSMT-104"/>
      <use x="541.503906" xlink:href="#TimesNewRomanPSMT-32"/>
      <use x="566.503906" xlink:href="#TimesNewRomanPSMT-91"/>
      <use x="599.804688" xlink:href="#TimesNewRomanPSMT-109"/>
      <use x="677.587891" xlink:href="#TimesNewRomanPSMT-93"/>
     </g>
    </g>
   </g>
   <g id="matplotlib.axis_2">
    <g id="ytick_1">
     <g id="line2d_9">
      <defs>
       <path d="M 0 0 
L -3.5 0 
" id="m710c13536a" style="stroke:#000000;stroke-width:0.8;"/>
      </defs>
      <g>
       <use style="stroke:#000000;stroke-width:0.8;" x="87.162969" xlink:href="#m710c13536a" y="415.358624"/>
      </g>
     </g>
     <g id="text_10">
      <!-- −1.0 -->
      <g transform="translate(34.815313 424.038311)scale(0.25 -0.25)">
       <defs>
        <path d="M 54.4375 31.25 
L 1.8125 31.25 
L 1.8125 35.25 
L 54.4375 35.25 
z
" id="TimesNewRomanPSMT-8722"/>
       </defs>
       <use xlink:href="#TimesNewRomanPSMT-8722"/>
       <use x="56.396484" xlink:href="#TimesNewRomanPSMT-49"/>
       <use x="106.396484" xlink:href="#TimesNewRomanPSMT-46"/>
       <use x="131.396484" xlink:href="#TimesNewRomanPSMT-48"/>
      </g>
     </g>
    </g>
    <g id="ytick_2">
     <g id="line2d_10">
      <g>
       <use style="stroke:#000000;stroke-width:0.8;" x="87.162969" xlink:href="#m710c13536a" y="343.564683"/>
      </g>
     </g>
     <g id="text_11">
      <!-- −0.5 -->
      <g transform="translate(34.815313 352.24437)scale(0.25 -0.25)">
       <defs>
        <path d="M 43.40625 66.21875 
L 39.59375 57.90625 
L 19.671875 57.90625 
L 15.328125 49.03125 
Q 28.265625 47.125 35.84375 39.40625 
Q 42.328125 32.765625 42.328125 23.78125 
Q 42.328125 18.5625 40.203125 14.109375 
Q 38.09375 9.671875 34.859375 6.546875 
Q 31.640625 3.421875 27.6875 1.515625 
Q 22.078125 -1.171875 16.15625 -1.171875 
Q 10.203125 -1.171875 7.484375 0.84375 
Q 4.78125 2.875 4.78125 5.328125 
Q 4.78125 6.6875 5.90625 7.734375 
Q 7.03125 8.796875 8.734375 8.796875 
Q 10.015625 8.796875 10.96875 8.40625 
Q 11.921875 8.015625 14.203125 6.390625 
Q 17.875 3.859375 21.625 3.859375 
Q 27.34375 3.859375 31.65625 8.171875 
Q 35.984375 12.5 35.984375 18.703125 
Q 35.984375 24.703125 32.125 29.90625 
Q 28.265625 35.109375 21.484375 37.9375 
Q 16.15625 40.140625 6.984375 40.484375 
L 19.671875 66.21875 
z
" id="TimesNewRomanPSMT-53"/>
       </defs>
       <use xlink:href="#TimesNewRomanPSMT-8722"/>
       <use x="56.396484" xlink:href="#TimesNewRomanPSMT-48"/>
       <use x="106.396484" xlink:href="#TimesNewRomanPSMT-46"/>
       <use x="131.396484" xlink:href="#TimesNewRomanPSMT-53"/>
      </g>
     </g>
    </g>
    <g id="ytick_3">
     <g id="line2d_11">
      <g>
       <use style="stroke:#000000;stroke-width:0.8;" x="87.162969" xlink:href="#m710c13536a" y="271.770741"/>
      </g>
     </g>
     <g id="text_12">
      <!-- 0.0 -->
      <g transform="translate(48.912969 280.450429)scale(0.25 -0.25)">
       <use xlink:href="#TimesNewRomanPSMT-48"/>
       <use x="50" xlink:href="#TimesNewRomanPSMT-46"/>
       <use x="75" xlink:href="#TimesNewRomanPSMT-48"/>
      </g>
     </g>
    </g>
    <g id="ytick_4">
     <g id="line2d_12">
      <g>
       <use style="stroke:#000000;stroke-width:0.8;" x="87.162969" xlink:href="#m710c13536a" y="199.9768"/>
      </g>
     </g>
     <g id="text_13">
      <!-- 0.5 -->
      <g transform="translate(48.912969 208.656488)scale(0.25 -0.25)">
       <use xlink:href="#TimesNewRomanPSMT-48"/>
       <use x="50" xlink:href="#TimesNewRomanPSMT-46"/>
       <use x="75" xlink:href="#TimesNewRomanPSMT-53"/>
      </g>
     </g>
    </g>
    <g id="ytick_5">
     <g id="line2d_13">
      <g>
       <use style="stroke:#000000;stroke-width:0.8;" x="87.162969" xlink:href="#m710c13536a" y="128.182859"/>
      </g>
     </g>
     <g id="text_14">
      <!-- 1.0 -->
      <g transform="translate(48.912969 136.862547)scale(0.25 -0.25)">
       <use xlink:href="#TimesNewRomanPSMT-49"/>
       <use x="50" xlink:href="#TimesNewRomanPSMT-46"/>
       <use x="75" xlink:href="#TimesNewRomanPSMT-48"/>
      </g>
     </g>
    </g>
    <g id="ytick_6">
     <g id="line2d_14">
      <g>
       <use style="stroke:#000000;stroke-width:0.8;" x="87.162969" xlink:href="#m710c13536a" y="56.388918"/>
      </g>
     </g>
     <g id="text_15">
      <!-- 1.5 -->
      <g transform="translate(48.912969 65.068606)scale(0.25 -0.25)">
       <use xlink:href="#TimesNewRomanPSMT-49"/>
       <use x="50" xlink:href="#TimesNewRomanPSMT-46"/>
       <use x="75" xlink:href="#TimesNewRomanPSMT-53"/>
      </g>
     </g>
    </g>
    <g id="text_16">
     <!-- Amplitude -->
     <g transform="translate(25.25375 284.565469)rotate(-90)scale(0.26 -0.26)">
      <defs>
       <path d="M 45.75 22.171875 
L 20.125 22.171875 
L 15.625 11.71875 
Q 13.96875 7.859375 13.96875 5.953125 
Q 13.96875 4.4375 15.40625 3.296875 
Q 16.84375 2.15625 21.625 1.8125 
L 21.625 0 
L 0.78125 0 
L 0.78125 1.8125 
Q 4.9375 2.546875 6.15625 3.71875 
Q 8.640625 6.0625 11.671875 13.234375 
L 34.96875 67.71875 
L 36.671875 67.71875 
L 59.71875 12.640625 
Q 62.5 6 64.765625 4.015625 
Q 67.046875 2.046875 71.09375 1.8125 
L 71.09375 0 
L 44.96875 0 
L 44.96875 1.8125 
Q 48.921875 2 50.3125 3.125 
Q 51.703125 4.25 51.703125 5.859375 
Q 51.703125 8.015625 49.75 12.640625 
z
M 44.390625 25.78125 
L 33.15625 52.546875 
L 21.625 25.78125 
z
" id="TimesNewRomanPSMT-65"/>
       <path d="M -0.09375 40.28125 
L 13.671875 45.84375 
L 15.53125 45.84375 
L 15.53125 35.40625 
Q 19 41.3125 22.484375 43.671875 
Q 25.984375 46.046875 29.828125 46.046875 
Q 36.578125 46.046875 41.0625 40.765625 
Q 46.578125 34.328125 46.578125 23.96875 
Q 46.578125 12.40625 39.9375 4.828125 
Q 34.46875 -1.375 26.171875 -1.375 
Q 22.5625 -1.375 19.921875 -0.34375 
Q 17.96875 0.390625 15.53125 2.59375 
L 15.53125 -11.03125 
Q 15.53125 -15.625 16.09375 -16.859375 
Q 16.65625 -18.109375 18.046875 -18.84375 
Q 19.4375 -19.578125 23.09375 -19.578125 
L 23.09375 -21.390625 
L -0.34375 -21.390625 
L -0.34375 -19.578125 
L 0.875 -19.578125 
Q 3.5625 -19.625 5.46875 -18.5625 
Q 6.390625 -18.015625 6.90625 -16.8125 
Q 7.421875 -15.625 7.421875 -10.75 
L 7.421875 31.546875 
Q 7.421875 35.890625 7.03125 37.0625 
Q 6.640625 38.234375 5.78125 38.8125 
Q 4.9375 39.40625 3.46875 39.40625 
Q 2.296875 39.40625 0.484375 38.71875 
z
M 15.53125 32.515625 
L 15.53125 15.828125 
Q 15.53125 10.40625 15.96875 8.6875 
Q 16.65625 5.859375 19.3125 3.703125 
Q 21.96875 1.5625 26.03125 1.5625 
Q 30.90625 1.5625 33.9375 5.375 
Q 37.890625 10.359375 37.890625 19.390625 
Q 37.890625 29.640625 33.40625 35.15625 
Q 30.28125 38.96875 25.984375 38.96875 
Q 23.640625 38.96875 21.34375 37.796875 
Q 19.578125 36.921875 15.53125 32.515625 
z
" id="TimesNewRomanPSMT-112"/>
       <path d="M 18.5 69.4375 
L 18.5 10.109375 
Q 18.5 5.90625 19.109375 4.53125 
Q 19.734375 3.171875 21 2.46875 
Q 22.265625 1.765625 25.734375 1.765625 
L 25.734375 0 
L 3.8125 0 
L 3.8125 1.765625 
Q 6.890625 1.765625 8 2.390625 
Q 9.125 3.03125 9.765625 4.484375 
Q 10.40625 5.953125 10.40625 10.109375 
L 10.40625 50.734375 
Q 10.40625 58.296875 10.0625 60.03125 
Q 9.71875 61.765625 8.953125 62.390625 
Q 8.203125 63.03125 7.03125 63.03125 
Q 5.765625 63.03125 3.8125 62.25 
L 2.984375 63.96875 
L 16.3125 69.4375 
z
" id="TimesNewRomanPSMT-108"/>
       <path d="M 14.5 69.4375 
Q 16.546875 69.4375 17.984375 67.984375 
Q 19.4375 66.546875 19.4375 64.5 
Q 19.4375 62.453125 17.984375 60.984375 
Q 16.546875 59.515625 14.5 59.515625 
Q 12.453125 59.515625 10.984375 60.984375 
Q 9.515625 62.453125 9.515625 64.5 
Q 9.515625 66.546875 10.953125 67.984375 
Q 12.40625 69.4375 14.5 69.4375 
z
M 18.5625 46.046875 
L 18.5625 10.109375 
Q 18.5625 5.90625 19.171875 4.515625 
Q 19.78125 3.125 20.96875 2.4375 
Q 22.171875 1.765625 25.34375 1.765625 
L 25.34375 0 
L 3.609375 0 
L 3.609375 1.765625 
Q 6.890625 1.765625 8 2.390625 
Q 9.125 3.03125 9.78125 4.484375 
Q 10.453125 5.953125 10.453125 10.109375 
L 10.453125 27.34375 
Q 10.453125 34.625 10.015625 36.765625 
Q 9.671875 38.328125 8.9375 38.9375 
Q 8.203125 39.546875 6.9375 39.546875 
Q 5.5625 39.546875 3.609375 38.8125 
L 2.9375 40.578125 
L 16.40625 46.046875 
z
" id="TimesNewRomanPSMT-105"/>
       <path d="M 42.328125 44.734375 
L 42.328125 17.625 
Q 42.328125 9.859375 42.6875 8.125 
Q 43.0625 6.390625 43.859375 5.703125 
Q 44.671875 5.03125 45.75 5.03125 
Q 47.265625 5.03125 49.171875 5.859375 
L 49.859375 4.15625 
L 36.46875 -1.375 
L 34.28125 -1.375 
L 34.28125 8.109375 
Q 28.515625 1.859375 25.484375 0.234375 
Q 22.46875 -1.375 19.09375 -1.375 
Q 15.328125 -1.375 12.5625 0.796875 
Q 9.8125 2.984375 8.734375 6.390625 
Q 7.671875 9.8125 7.671875 16.0625 
L 7.671875 36.03125 
Q 7.671875 39.203125 6.984375 40.421875 
Q 6.296875 41.65625 4.953125 42.3125 
Q 3.609375 42.96875 0.09375 42.921875 
L 0.09375 44.734375 
L 15.765625 44.734375 
L 15.765625 14.796875 
Q 15.765625 8.546875 17.9375 6.59375 
Q 20.125 4.640625 23.1875 4.640625 
Q 25.296875 4.640625 27.953125 5.953125 
Q 30.609375 7.28125 34.28125 10.984375 
L 34.28125 36.328125 
Q 34.28125 40.140625 32.890625 41.484375 
Q 31.5 42.828125 27.09375 42.921875 
L 27.09375 44.734375 
z
" id="TimesNewRomanPSMT-117"/>
       <path d="M 34.71875 5.03125 
Q 31.453125 1.609375 28.328125 0.109375 
Q 25.203125 -1.375 21.578125 -1.375 
Q 14.265625 -1.375 8.796875 4.75 
Q 3.328125 10.890625 3.328125 20.515625 
Q 3.328125 30.125 9.375 38.109375 
Q 15.4375 46.09375 24.953125 46.09375 
Q 30.859375 46.09375 34.71875 42.328125 
L 34.71875 50.59375 
Q 34.71875 58.25 34.34375 60 
Q 33.984375 61.765625 33.203125 62.390625 
Q 32.421875 63.03125 31.25 63.03125 
Q 29.984375 63.03125 27.875 62.25 
L 27.25 63.96875 
L 40.578125 69.4375 
L 42.78125 69.4375 
L 42.78125 17.71875 
Q 42.78125 9.859375 43.140625 8.125 
Q 43.5 6.390625 44.3125 5.703125 
Q 45.125 5.03125 46.1875 5.03125 
Q 47.515625 5.03125 49.703125 5.859375 
L 50.25 4.15625 
L 36.96875 -1.375 
L 34.71875 -1.375 
z
M 34.71875 8.453125 
L 34.71875 31.5 
Q 34.421875 34.8125 32.953125 37.546875 
Q 31.5 40.28125 29.078125 41.671875 
Q 26.65625 43.0625 24.359375 43.0625 
Q 20.0625 43.0625 16.703125 39.203125 
Q 12.25 34.125 12.25 24.359375 
Q 12.25 14.5 16.546875 9.25 
Q 20.84375 4 26.125 4 
Q 30.5625 4 34.71875 8.453125 
z
" id="TimesNewRomanPSMT-100"/>
      </defs>
      <use xlink:href="#TimesNewRomanPSMT-65"/>
      <use x="72.216797" xlink:href="#TimesNewRomanPSMT-109"/>
      <use x="150" xlink:href="#TimesNewRomanPSMT-112"/>
      <use x="200" xlink:href="#TimesNewRomanPSMT-108"/>
      <use x="227.783203" xlink:href="#TimesNewRomanPSMT-105"/>
      <use x="255.566406" xlink:href="#TimesNewRomanPSMT-116"/>
      <use x="283.349609" xlink:href="#TimesNewRomanPSMT-117"/>
      <use x="333.349609" xlink:href="#TimesNewRomanPSMT-100"/>
      <use x="383.349609" xlink:href="#TimesNewRomanPSMT-101"/>
     </g>
    </g>
   </g>
   <g id="line2d_15">
    <defs>
     <path d="M 0 -3 
L -3 3 
L 3 3 
z
" id="m5790e739d2" style="stroke:#000000;stroke-linejoin:miter;"/>
    </defs>
    <g clip-path="url(#p4e16f02cf2)">
     <use style="stroke:#000000;stroke-linejoin:miter;" x="125.208423" xlink:href="#m5790e739d2" y="271.770741"/>
     <use style="stroke:#000000;stroke-linejoin:miter;" x="130.281151" xlink:href="#m5790e739d2" y="271.943778"/>
     <use style="stroke:#000000;stroke-linejoin:miter;" x="135.353878" xlink:href="#m5790e739d2" y="272.452639"/>
     <use style="stroke:#000000;stroke-linejoin:miter;" x="140.426605" xlink:href="#m5790e739d2" y="273.282437"/>
     <use style="stroke:#000000;stroke-linejoin:miter;" x="145.499332" xlink:href="#m5790e739d2" y="274.417755"/>
     <use style="stroke:#000000;stroke-linejoin:miter;" x="150.57206" xlink:href="#m5790e739d2" y="275.84275"/>
     <use style="stroke:#000000;stroke-linejoin:miter;" x="155.644787" xlink:href="#m5790e739d2" y="277.541272"/>
     <use style="stroke:#000000;stroke-linejoin:miter;" x="160.717514" xlink:href="#m5790e739d2" y="279.496954"/>
     <use style="stroke:#000000;stroke-linejoin:miter;" x="165.790241" xlink:href="#m5790e739d2" y="281.693311"/>
     <use style="stroke:#000000;stroke-linejoin:miter;" x="170.862969" xlink:href="#m5790e739d2" y="284.113816"/>
     <use style="stroke:#000000;stroke-linejoin:miter;" x="175.935696" xlink:href="#m5790e739d2" y="286.741982"/>
     <use style="stroke:#000000;stroke-linejoin:miter;" x="181.008423" xlink:href="#m5790e739d2" y="289.561419"/>
     <use style="stroke:#000000;stroke-linejoin:miter;" x="186.081151" xlink:href="#m5790e739d2" y="292.555926"/>
     <use style="stroke:#000000;stroke-linejoin:miter;" x="191.153878" xlink:href="#m5790e739d2" y="295.709501"/>
     <use style="stroke:#000000;stroke-linejoin:miter;" x="196.226605" xlink:href="#m5790e739d2" y="299.006421"/>
     <use style="stroke:#000000;stroke-linejoin:miter;" x="201.299332" xlink:href="#m5790e739d2" y="302.431303"/>
     <use style="stroke:#000000;stroke-linejoin:miter;" x="206.37206" xlink:href="#m5790e739d2" y="305.9691"/>
     <use style="stroke:#000000;stroke-linejoin:miter;" x="211.444787" xlink:href="#m5790e739d2" y="309.60513"/>
     <use style="stroke:#000000;stroke-linejoin:miter;" x="216.517514" xlink:href="#m5790e739d2" y="313.325145"/>
     <use style="stroke:#000000;stroke-linejoin:miter;" x="221.590241" xlink:href="#m5790e739d2" y="317.115344"/>
     <use style="stroke:#000000;stroke-linejoin:miter;" x="226.662969" xlink:href="#m5790e739d2" y="320.962362"/>
     <use style="stroke:#000000;stroke-linejoin:miter;" x="231.735696" xlink:href="#m5790e739d2" y="324.853311"/>
     <use style="stroke:#000000;stroke-linejoin:miter;" x="236.808423" xlink:href="#m5790e739d2" y="328.775763"/>
     <use style="stroke:#000000;stroke-linejoin:miter;" x="241.881151" xlink:href="#m5790e739d2" y="332.717806"/>
     <use style="stroke:#000000;stroke-linejoin:miter;" x="246.953878" xlink:href="#m5790e739d2" y="336.668006"/>
     <use style="stroke:#000000;stroke-linejoin:miter;" x="252.026605" xlink:href="#m5790e739d2" y="340.615432"/>
     <use style="stroke:#000000;stroke-linejoin:miter;" x="257.099332" xlink:href="#m5790e739d2" y="344.549641"/>
     <use style="stroke:#000000;stroke-linejoin:miter;" x="262.17206" xlink:href="#m5790e739d2" y="348.460693"/>
     <use style="stroke:#000000;stroke-linejoin:miter;" x="267.244787" xlink:href="#m5790e739d2" y="352.339108"/>
     <use style="stroke:#000000;stroke-linejoin:miter;" x="272.317514" xlink:href="#m5790e739d2" y="356.175923"/>
     <use style="stroke:#000000;stroke-linejoin:miter;" x="277.390241" xlink:href="#m5790e739d2" y="359.962634"/>
     <use style="stroke:#000000;stroke-linejoin:miter;" x="282.462969" xlink:href="#m5790e739d2" y="363.691209"/>
     <use style="stroke:#000000;stroke-linejoin:miter;" x="287.535696" xlink:href="#m5790e739d2" y="367.354079"/>
     <use style="stroke:#000000;stroke-linejoin:miter;" x="292.608423" xlink:href="#m5790e739d2" y="370.944092"/>
     <use style="stroke:#000000;stroke-linejoin:miter;" x="297.681151" xlink:href="#m5790e739d2" y="374.454586"/>
     <use style="stroke:#000000;stroke-linejoin:miter;" x="302.753878" xlink:href="#m5790e739d2" y="377.879243"/>
     <use style="stroke:#000000;stroke-linejoin:miter;" x="307.826605" xlink:href="#m5790e739d2" y="381.212262"/>
     <use style="stroke:#000000;stroke-linejoin:miter;" x="312.899332" xlink:href="#m5790e739d2" y="384.448144"/>
     <use style="stroke:#000000;stroke-linejoin:miter;" x="317.97206" xlink:href="#m5790e739d2" y="387.581835"/>
     <use style="stroke:#000000;stroke-linejoin:miter;" x="323.044787" xlink:href="#m5790e739d2" y="390.60861"/>
     <use style="stroke:#000000;stroke-linejoin:miter;" x="328.117514" xlink:href="#m5790e739d2" y="393.524076"/>
     <use style="stroke:#000000;stroke-linejoin:miter;" x="333.190241" xlink:href="#m5790e739d2" y="396.324356"/>
     <use style="stroke:#000000;stroke-linejoin:miter;" x="338.262969" xlink:href="#m5790e739d2" y="399.005816"/>
     <use style="stroke:#000000;stroke-linejoin:miter;" x="343.335696" xlink:href="#m5790e739d2" y="401.56494"/>
     <use style="stroke:#000000;stroke-linejoin:miter;" x="348.408423" xlink:href="#m5790e739d2" y="403.998654"/>
     <use style="stroke:#000000;stroke-linejoin:miter;" x="353.481151" xlink:href="#m5790e739d2" y="406.304331"/>
     <use style="stroke:#000000;stroke-linejoin:miter;" x="358.553878" xlink:href="#m5790e739d2" y="408.479572"/>
     <use style="stroke:#000000;stroke-linejoin:miter;" x="363.626605" xlink:href="#m5790e739d2" y="410.522009"/>
     <use style="stroke:#000000;stroke-linejoin:miter;" x="368.699332" xlink:href="#m5790e739d2" y="412.429646"/>
     <use style="stroke:#000000;stroke-linejoin:miter;" x="373.77206" xlink:href="#m5790e739d2" y="414.200961"/>
     <use style="stroke:#000000;stroke-linejoin:miter;" x="378.844787" xlink:href="#m5790e739d2" y="415.834244"/>
     <use style="stroke:#000000;stroke-linejoin:miter;" x="383.917514" xlink:href="#m5790e739d2" y="417.328492"/>
     <use style="stroke:#000000;stroke-linejoin:miter;" x="388.990241" xlink:href="#m5790e739d2" y="418.682439"/>
     <use style="stroke:#000000;stroke-linejoin:miter;" x="394.062969" xlink:href="#m5790e739d2" y="419.89534"/>
     <use style="stroke:#000000;stroke-linejoin:miter;" x="399.135696" xlink:href="#m5790e739d2" y="420.966463"/>
     <use style="stroke:#000000;stroke-linejoin:miter;" x="404.208423" xlink:href="#m5790e739d2" y="421.895218"/>
     <use style="stroke:#000000;stroke-linejoin:miter;" x="409.281151" xlink:href="#m5790e739d2" y="422.681433"/>
     <use style="stroke:#000000;stroke-linejoin:miter;" x="414.353878" xlink:href="#m5790e739d2" y="423.324908"/>
     <use style="stroke:#000000;stroke-linejoin:miter;" x="419.426605" xlink:href="#m5790e739d2" y="423.82547"/>
     <use style="stroke:#000000;stroke-linejoin:miter;" x="424.499332" xlink:href="#m5790e739d2" y="424.183334"/>
     <use style="stroke:#000000;stroke-linejoin:miter;" x="429.57206" xlink:href="#m5790e739d2" y="424.398874"/>
     <use style="stroke:#000000;stroke-linejoin:miter;" x="434.644787" xlink:href="#m5790e739d2" y="424.472319"/>
     <use style="stroke:#000000;stroke-linejoin:miter;" x="439.717514" xlink:href="#m5790e739d2" y="424.404143"/>
     <use style="stroke:#000000;stroke-linejoin:miter;" x="444.790241" xlink:href="#m5790e739d2" y="424.194835"/>
     <use style="stroke:#000000;stroke-linejoin:miter;" x="449.862969" xlink:href="#m5790e739d2" y="423.845486"/>
     <use style="stroke:#000000;stroke-linejoin:miter;" x="454.935696" xlink:href="#m5790e739d2" y="423.356383"/>
     <use style="stroke:#000000;stroke-linejoin:miter;" x="460.008423" xlink:href="#m5790e739d2" y="422.728904"/>
     <use style="stroke:#000000;stroke-linejoin:miter;" x="465.081151" xlink:href="#m5790e739d2" y="421.963623"/>
     <use style="stroke:#000000;stroke-linejoin:miter;" x="470.153878" xlink:href="#m5790e739d2" y="421.061877"/>
     <use style="stroke:#000000;stroke-linejoin:miter;" x="475.226605" xlink:href="#m5790e739d2" y="420.024555"/>
     <use style="stroke:#000000;stroke-linejoin:miter;" x="480.299332" xlink:href="#m5790e739d2" y="418.853093"/>
     <use style="stroke:#000000;stroke-linejoin:miter;" x="485.37206" xlink:href="#m5790e739d2" y="417.548526"/>
     <use style="stroke:#000000;stroke-linejoin:miter;" x="490.444787" xlink:href="#m5790e739d2" y="416.112431"/>
     <use style="stroke:#000000;stroke-linejoin:miter;" x="495.517514" xlink:href="#m5790e739d2" y="414.545974"/>
     <use style="stroke:#000000;stroke-linejoin:miter;" x="500.590241" xlink:href="#m5790e739d2" y="412.850703"/>
     <use style="stroke:#000000;stroke-linejoin:miter;" x="505.662969" xlink:href="#m5790e739d2" y="411.027941"/>
     <use style="stroke:#000000;stroke-linejoin:miter;" x="510.735696" xlink:href="#m5790e739d2" y="409.079511"/>
     <use style="stroke:#000000;stroke-linejoin:miter;" x="515.808423" xlink:href="#m5790e739d2" y="407.00672"/>
     <use style="stroke:#000000;stroke-linejoin:miter;" x="520.881151" xlink:href="#m5790e739d2" y="404.811247"/>
     <use style="stroke:#000000;stroke-linejoin:miter;" x="525.953878" xlink:href="#m5790e739d2" y="402.494801"/>
     <use style="stroke:#000000;stroke-linejoin:miter;" x="531.026605" xlink:href="#m5790e739d2" y="400.059076"/>
     <use style="stroke:#000000;stroke-linejoin:miter;" x="536.099332" xlink:href="#m5790e739d2" y="397.505782"/>
     <use style="stroke:#000000;stroke-linejoin:miter;" x="541.17206" xlink:href="#m5790e739d2" y="394.836584"/>
     <use style="stroke:#000000;stroke-linejoin:miter;" x="546.244787" xlink:href="#m5790e739d2" y="392.05332"/>
     <use style="stroke:#000000;stroke-linejoin:miter;" x="551.317514" xlink:href="#m5790e739d2" y="389.157827"/>
     <use style="stroke:#000000;stroke-linejoin:miter;" x="556.390241" xlink:href="#m5790e739d2" y="386.151772"/>
     <use style="stroke:#000000;stroke-linejoin:miter;" x="561.462969" xlink:href="#m5790e739d2" y="383.037264"/>
     <use style="stroke:#000000;stroke-linejoin:miter;" x="566.535696" xlink:href="#m5790e739d2" y="379.815971"/>
     <use style="stroke:#000000;stroke-linejoin:miter;" x="571.608423" xlink:href="#m5790e739d2" y="376.490016"/>
     <use style="stroke:#000000;stroke-linejoin:miter;" x="576.681151" xlink:href="#m5790e739d2" y="373.061037"/>
     <use style="stroke:#000000;stroke-linejoin:miter;" x="581.753878" xlink:href="#m5790e739d2" y="369.531015"/>
     <use style="stroke:#000000;stroke-linejoin:miter;" x="586.826605" xlink:href="#m5790e739d2" y="365.902018"/>
     <use style="stroke:#000000;stroke-linejoin:miter;" x="591.899332" xlink:href="#m5790e739d2" y="362.175998"/>
     <use style="stroke:#000000;stroke-linejoin:miter;" x="596.97206" xlink:href="#m5790e739d2" y="358.354924"/>
     <use style="stroke:#000000;stroke-linejoin:miter;" x="602.044787" xlink:href="#m5790e739d2" y="354.440704"/>
     <use style="stroke:#000000;stroke-linejoin:miter;" x="607.117514" xlink:href="#m5790e739d2" y="350.435291"/>
     <use style="stroke:#000000;stroke-linejoin:miter;" x="612.190241" xlink:href="#m5790e739d2" y="346.340926"/>
     <use style="stroke:#000000;stroke-linejoin:miter;" x="617.262969" xlink:href="#m5790e739d2" y="342.159374"/>
     <use style="stroke:#000000;stroke-linejoin:miter;" x="622.335696" xlink:href="#m5790e739d2" y="337.892875"/>
     <use style="stroke:#000000;stroke-linejoin:miter;" x="627.408423" xlink:href="#m5790e739d2" y="333.543498"/>
     <use style="stroke:#000000;stroke-linejoin:miter;" x="632.481151" xlink:href="#m5790e739d2" y="329.113022"/>
     <use style="stroke:#000000;stroke-linejoin:miter;" x="637.553878" xlink:href="#m5790e739d2" y="324.603673"/>
     <use style="stroke:#000000;stroke-linejoin:miter;" x="642.626605" xlink:href="#m5790e739d2" y="320.017605"/>
     <use style="stroke:#000000;stroke-linejoin:miter;" x="647.699332" xlink:href="#m5790e739d2" y="315.356757"/>
     <use style="stroke:#000000;stroke-linejoin:miter;" x="652.77206" xlink:href="#m5790e739d2" y="310.623239"/>
     <use style="stroke:#000000;stroke-linejoin:miter;" x="657.844787" xlink:href="#m5790e739d2" y="305.819133"/>
     <use style="stroke:#000000;stroke-linejoin:miter;" x="662.917514" xlink:href="#m5790e739d2" y="300.946536"/>
     <use style="stroke:#000000;stroke-linejoin:miter;" x="667.990241" xlink:href="#m5790e739d2" y="296.0075"/>
     <use style="stroke:#000000;stroke-linejoin:miter;" x="673.062969" xlink:href="#m5790e739d2" y="291.004137"/>
     <use style="stroke:#000000;stroke-linejoin:miter;" x="678.135696" xlink:href="#m5790e739d2" y="285.938529"/>
     <use style="stroke:#000000;stroke-linejoin:miter;" x="683.208423" xlink:href="#m5790e739d2" y="280.812758"/>
     <use style="stroke:#000000;stroke-linejoin:miter;" x="688.281151" xlink:href="#m5790e739d2" y="275.628905"/>
     <use style="stroke:#000000;stroke-linejoin:miter;" x="693.353878" xlink:href="#m5790e739d2" y="270.389067"/>
     <use style="stroke:#000000;stroke-linejoin:miter;" x="698.426605" xlink:href="#m5790e739d2" y="265.095283"/>
     <use style="stroke:#000000;stroke-linejoin:miter;" x="703.499332" xlink:href="#m5790e739d2" y="259.749664"/>
     <use style="stroke:#000000;stroke-linejoin:miter;" x="708.57206" xlink:href="#m5790e739d2" y="254.354249"/>
     <use style="stroke:#000000;stroke-linejoin:miter;" x="713.644787" xlink:href="#m5790e739d2" y="248.911091"/>
     <use style="stroke:#000000;stroke-linejoin:miter;" x="718.717514" xlink:href="#m5790e739d2" y="243.422243"/>
     <use style="stroke:#000000;stroke-linejoin:miter;" x="723.790241" xlink:href="#m5790e739d2" y="237.88973"/>
     <use style="stroke:#000000;stroke-linejoin:miter;" x="728.862969" xlink:href="#m5790e739d2" y="232.315577"/>
     <use style="stroke:#000000;stroke-linejoin:miter;" x="733.935696" xlink:href="#m5790e739d2" y="226.701779"/>
     <use style="stroke:#000000;stroke-linejoin:miter;" x="739.008423" xlink:href="#m5790e739d2" y="221.050332"/>
     <use style="stroke:#000000;stroke-linejoin:miter;" x="744.081151" xlink:href="#m5790e739d2" y="215.363175"/>
     <use style="stroke:#000000;stroke-linejoin:miter;" x="749.153878" xlink:href="#m5790e739d2" y="209.642289"/>
     <use style="stroke:#000000;stroke-linejoin:miter;" x="754.226605" xlink:href="#m5790e739d2" y="203.889556"/>
     <use style="stroke:#000000;stroke-linejoin:miter;" x="759.299332" xlink:href="#m5790e739d2" y="198.106913"/>
     <use style="stroke:#000000;stroke-linejoin:miter;" x="764.37206" xlink:href="#m5790e739d2" y="192.296184"/>
     <use style="stroke:#000000;stroke-linejoin:miter;" x="769.444787" xlink:href="#m5790e739d2" y="186.459222"/>
     <use style="stroke:#000000;stroke-linejoin:miter;" x="774.517514" xlink:href="#m5790e739d2" y="180.597821"/>
     <use style="stroke:#000000;stroke-linejoin:miter;" x="779.590241" xlink:href="#m5790e739d2" y="174.713733"/>
     <use style="stroke:#000000;stroke-linejoin:miter;" x="784.662969" xlink:href="#m5790e739d2" y="168.808724"/>
     <use style="stroke:#000000;stroke-linejoin:miter;" x="789.735696" xlink:href="#m5790e739d2" y="162.884432"/>
     <use style="stroke:#000000;stroke-linejoin:miter;" x="794.808423" xlink:href="#m5790e739d2" y="156.942507"/>
     <use style="stroke:#000000;stroke-linejoin:miter;" x="799.881151" xlink:href="#m5790e739d2" y="150.984537"/>
     <use style="stroke:#000000;stroke-linejoin:miter;" x="804.953878" xlink:href="#m5790e739d2" y="145.012054"/>
     <use style="stroke:#000000;stroke-linejoin:miter;" x="810.026605" xlink:href="#m5790e739d2" y="139.026534"/>
     <use style="stroke:#000000;stroke-linejoin:miter;" x="815.099332" xlink:href="#m5790e739d2" y="133.029398"/>
     <use style="stroke:#000000;stroke-linejoin:miter;" x="820.17206" xlink:href="#m5790e739d2" y="127.022016"/>
     <use style="stroke:#000000;stroke-linejoin:miter;" x="825.244787" xlink:href="#m5790e739d2" y="121.005666"/>
     <use style="stroke:#000000;stroke-linejoin:miter;" x="830.317514" xlink:href="#m5790e739d2" y="114.981562"/>
     <use style="stroke:#000000;stroke-linejoin:miter;" x="835.390241" xlink:href="#m5790e739d2" y="108.950871"/>
     <use style="stroke:#000000;stroke-linejoin:miter;" x="840.462969" xlink:href="#m5790e739d2" y="102.914651"/>
     <use style="stroke:#000000;stroke-linejoin:miter;" x="845.535696" xlink:href="#m5790e739d2" y="96.873938"/>
     <use style="stroke:#000000;stroke-linejoin:miter;" x="850.608423" xlink:href="#m5790e739d2" y="90.829448"/>
     <use style="stroke:#000000;stroke-linejoin:miter;" x="855.681151" xlink:href="#m5790e739d2" y="84.782287"/>
     <use style="stroke:#000000;stroke-linejoin:miter;" x="860.753878" xlink:href="#m5790e739d2" y="78.732901"/>
     <use style="stroke:#000000;stroke-linejoin:miter;" x="865.826605" xlink:href="#m5790e739d2" y="72.68218"/>
     <use style="stroke:#000000;stroke-linejoin:miter;" x="870.899332" xlink:href="#m5790e739d2" y="66.630352"/>
     <use style="stroke:#000000;stroke-linejoin:miter;" x="875.97206" xlink:href="#m5790e739d2" y="60.577965"/>
     <use style="stroke:#000000;stroke-linejoin:miter;" x="881.044787" xlink:href="#m5790e739d2" y="54.525305"/>
     <use style="stroke:#000000;stroke-linejoin:miter;" x="886.117514" xlink:href="#m5790e739d2" y="48.472717"/>
    </g>
   </g>
   <g id="line2d_16">
    <path clip-path="url(#p4e16f02cf2)" d="M 125.208423 271.770741 
L 130.281151 271.943657 
L 135.353878 272.452262 
L 140.426605 273.281969 
L 145.499332 274.417747 
L 150.57206 275.84421 
L 155.644787 277.545716 
L 160.717514 279.506433 
L 165.790241 281.710432 
L 170.862969 284.141741 
L 175.935696 286.78443 
L 181.008423 289.622632 
L 186.081151 292.640657 
L 191.153878 295.822962 
L 196.226605 299.154264 
L 206.37206 306.204092 
L 216.517514 313.673739 
L 226.662969 321.452532 
L 241.881151 333.473925 
L 267.244787 353.674786 
L 277.390241 361.572167 
L 287.535696 369.257088 
L 297.681151 376.667045 
L 307.826605 383.746129 
L 317.97206 390.444748 
L 328.117514 396.719208 
L 338.262969 402.531645 
L 343.335696 405.254043 
L 348.408423 407.849049 
L 353.481151 410.313261 
L 358.553878 412.643721 
L 363.626605 414.837586 
L 368.699332 416.892429 
L 373.77206 418.805824 
L 378.844787 420.576062 
L 383.917514 422.203573 
L 388.990241 423.689794 
L 394.062969 425.033259 
L 399.135696 426.232793 
L 404.208423 427.287173 
L 409.281151 428.19594 
L 414.353878 428.958162 
L 419.426605 429.57335 
L 424.499332 430.041418 
L 429.57206 430.361877 
L 434.644787 430.534628 
L 439.717514 430.56 
L 444.790241 430.437922 
L 449.862969 430.168723 
L 454.935696 429.752849 
L 460.008423 429.190904 
L 465.081151 428.483375 
L 470.153878 427.631109 
L 475.226605 426.634867 
L 480.299332 425.495368 
L 485.37206 424.213775 
L 490.444787 422.791077 
L 495.517514 421.228453 
L 500.590241 419.527009 
L 505.662969 417.68805 
L 510.735696 415.712999 
L 515.808423 413.603118 
L 520.881151 411.359988 
L 525.953878 408.985002 
L 531.026605 406.479709 
L 536.099332 403.845819 
L 546.244787 398.198953 
L 556.390241 392.057886 
L 566.535696 385.437192 
L 576.681151 378.352107 
L 586.826605 370.818151 
L 596.97206 362.851479 
L 607.117514 354.468675 
L 617.262969 345.686667 
L 627.408423 336.52286 
L 637.553878 326.993837 
L 647.699332 317.110884 
L 657.844787 306.891605 
L 667.990241 296.354925 
L 678.135696 285.519942 
L 688.281151 274.40578 
L 698.426605 263.031638 
L 708.57206 251.416642 
L 723.790241 233.584248 
L 739.008423 215.31638 
L 754.226605 196.675299 
L 769.444787 177.721253 
L 789.735696 152.061277 
L 815.099332 119.538251 
L 850.608423 73.539744 
L 886.117514 27.36 
L 886.117514 27.36 
" style="fill:none;stroke:#0000ff;stroke-linecap:square;stroke-width:3;"/>
   </g>
   <g id="line2d_17">
    <path clip-path="url(#p4e16f02cf2)" d="M 125.208423 271.770741 
L 130.281151 271.944113 
L 135.353878 272.453918 
L 140.426605 273.285192 
L 145.499332 274.422434 
L 150.57206 275.849715 
L 155.644787 277.550796 
L 160.717514 279.50922 
L 165.790241 281.708409 
L 170.862969 284.131741 
L 175.935696 286.762639 
L 181.008423 289.584627 
L 186.081151 292.58141 
L 191.153878 295.736913 
L 201.299332 302.461164 
L 211.444787 309.635033 
L 221.590241 317.142348 
L 236.808423 328.791791 
L 267.244787 352.304567 
L 277.390241 359.901724 
L 287.535696 367.261737 
L 297.681151 374.325644 
L 307.826605 381.041536 
L 317.97206 387.364084 
L 328.117514 393.254188 
L 338.262969 398.678522 
L 343.335696 401.207062 
L 348.408423 403.608899 
L 353.481151 405.88168 
L 358.553878 408.022432 
L 363.626605 410.029503 
L 368.699332 411.900496 
L 373.77206 413.634004 
L 378.844787 415.228318 
L 383.917514 416.68338 
L 388.990241 417.99909 
L 394.062969 419.174601 
L 399.135696 420.209008 
L 404.208423 421.102139 
L 409.281151 421.853549 
L 414.353878 422.462893 
L 419.426605 422.9304 
L 424.499332 423.256015 
L 429.57206 423.439965 
L 434.644787 423.48274 
L 439.717514 423.384684 
L 444.790241 423.146457 
L 449.862969 422.768792 
L 454.935696 422.252335 
L 460.008423 421.59812 
L 465.081151 420.807023 
L 470.153878 419.880091 
L 475.226605 418.818359 
L 480.299332 417.623249 
L 485.37206 416.295807 
L 490.444787 414.837457 
L 495.517514 413.249504 
L 500.590241 411.533371 
L 505.662969 409.690478 
L 510.735696 407.722563 
L 515.808423 405.630875 
L 525.953878 401.083289 
L 536.099332 396.06103 
L 546.244787 390.577768 
L 556.390241 384.647947 
L 566.535696 378.285999 
L 576.681151 371.507301 
L 586.826605 364.326902 
L 596.97206 356.760509 
L 607.117514 348.823804 
L 617.262969 340.533183 
L 627.408423 331.904514 
L 637.553878 322.954107 
L 647.699332 313.6978 
L 657.844787 304.152035 
L 667.990241 294.333495 
L 678.135696 284.258852 
L 688.281151 273.944777 
L 703.499332 258.061143 
L 718.717514 241.731955 
L 733.935696 225.01218 
L 749.153878 207.95562 
L 764.37206 190.61444 
L 784.662969 167.136184 
L 810.026605 137.368767 
L 845.535696 95.240611 
L 886.117514 46.869242 
L 886.117514 46.869242 
" style="fill:none;stroke:#ff0000;stroke-linecap:square;stroke-width:3;"/>
   </g>
   <g id="patch_3">
    <path d="M 87.162969 450.72 
L 87.162969 7.2 
" style="fill:none;stroke:#000000;stroke-linecap:square;stroke-linejoin:miter;stroke-width:0.8;"/>
   </g>
   <g id="patch_4">
    <path d="M 87.162969 450.72 
L 924.162969 450.72 
" style="fill:none;stroke:#000000;stroke-linecap:square;stroke-linejoin:miter;stroke-width:0.8;"/>
   </g>
   <g id="legend_1">
    <g id="patch_5">
     <path d="M 102.562969 118.159062 
L 362.400156 118.159062 
Q 366.800156 118.159062 366.800156 113.759062 
L 366.800156 22.6 
Q 366.800156 18.2 362.400156 18.2 
L 102.562969 18.2 
Q 98.162969 18.2 98.162969 22.6 
L 98.162969 113.759062 
Q 98.162969 118.159062 102.562969 118.159062 
z
" style="fill:#ffffff;opacity:0.8;stroke:#cccccc;stroke-linejoin:miter;"/>
    </g>
    <g id="line2d_18"/>
    <g id="line2d_19">
     <g>
      <use style="stroke:#000000;stroke-linejoin:miter;" x="128.962969" xlink:href="#m5790e739d2" y="34.7"/>
     </g>
    </g>
    <g id="text_17">
     <!-- Reference FEM -->
     <g transform="translate(168.562969 42.4)scale(0.22 -0.22)">
      <defs>
       <path d="M 67.578125 0 
L 49.90625 0 
L 27.484375 30.953125 
Q 25 30.859375 23.4375 30.859375 
Q 22.796875 30.859375 22.0625 30.875 
Q 21.34375 30.90625 20.5625 30.953125 
L 20.5625 11.71875 
Q 20.5625 5.46875 21.921875 3.953125 
Q 23.78125 1.8125 27.484375 1.8125 
L 30.078125 1.8125 
L 30.078125 0 
L 1.703125 0 
L 1.703125 1.8125 
L 4.203125 1.8125 
Q 8.40625 1.8125 10.203125 4.546875 
Q 11.234375 6.0625 11.234375 11.71875 
L 11.234375 54.5 
Q 11.234375 60.75 9.859375 62.25 
Q 7.953125 64.40625 4.203125 64.40625 
L 1.703125 64.40625 
L 1.703125 66.21875 
L 25.828125 66.21875 
Q 36.375 66.21875 41.375 64.671875 
Q 46.390625 63.140625 49.875 59.015625 
Q 53.375 54.890625 53.375 49.171875 
Q 53.375 43.0625 49.390625 38.5625 
Q 45.40625 34.078125 37.0625 32.234375 
L 50.734375 13.234375 
Q 55.421875 6.6875 58.78125 4.53125 
Q 62.15625 2.390625 67.578125 1.8125 
z
M 20.5625 34.03125 
Q 21.484375 34.03125 22.171875 34 
Q 22.859375 33.984375 23.296875 33.984375 
Q 32.765625 33.984375 37.578125 38.078125 
Q 42.390625 42.1875 42.390625 48.53125 
Q 42.390625 54.734375 38.5 58.609375 
Q 34.625 62.5 28.21875 62.5 
Q 25.390625 62.5 20.5625 61.578125 
z
" id="TimesNewRomanPSMT-82"/>
       <path d="M 20.609375 41.21875 
L 20.609375 11.8125 
Q 20.609375 5.5625 21.96875 3.90625 
Q 23.78125 1.765625 26.8125 1.765625 
L 30.859375 1.765625 
L 30.859375 0 
L 4.15625 0 
L 4.15625 1.765625 
L 6.15625 1.765625 
Q 8.109375 1.765625 9.71875 2.734375 
Q 11.328125 3.71875 11.9375 5.375 
Q 12.546875 7.03125 12.546875 11.8125 
L 12.546875 41.21875 
L 3.859375 41.21875 
L 3.859375 44.734375 
L 12.546875 44.734375 
L 12.546875 47.65625 
Q 12.546875 54.34375 14.6875 58.984375 
Q 16.84375 63.625 21.265625 66.484375 
Q 25.6875 69.34375 31.203125 69.34375 
Q 36.328125 69.34375 40.625 66.015625 
Q 43.453125 63.8125 43.453125 61.078125 
Q 43.453125 59.625 42.1875 58.328125 
Q 40.921875 57.03125 39.453125 57.03125 
Q 38.328125 57.03125 37.078125 57.828125 
Q 35.84375 58.640625 34.03125 61.296875 
Q 32.234375 63.96875 30.71875 64.890625 
Q 29.203125 65.828125 27.34375 65.828125 
Q 25.09375 65.828125 23.53125 64.625 
Q 21.96875 63.421875 21.28125 60.90625 
Q 20.609375 58.40625 20.609375 47.953125 
L 20.609375 44.734375 
L 32.125 44.734375 
L 32.125 41.21875 
z
" id="TimesNewRomanPSMT-102"/>
       <path d="M 16.21875 46.046875 
L 16.21875 35.984375 
Q 21.828125 46.046875 27.734375 46.046875 
Q 30.421875 46.046875 32.171875 44.40625 
Q 33.9375 42.78125 33.9375 40.625 
Q 33.9375 38.71875 32.65625 37.390625 
Q 31.390625 36.078125 29.640625 36.078125 
Q 27.9375 36.078125 25.8125 37.765625 
Q 23.6875 39.453125 22.65625 39.453125 
Q 21.78125 39.453125 20.75 38.484375 
Q 18.5625 36.46875 16.21875 31.890625 
L 16.21875 10.453125 
Q 16.21875 6.734375 17.140625 4.828125 
Q 17.78125 3.515625 19.390625 2.640625 
Q 21 1.765625 24.03125 1.765625 
L 24.03125 0 
L 1.125 0 
L 1.125 1.765625 
Q 4.546875 1.765625 6.203125 2.828125 
Q 7.421875 3.609375 7.90625 5.328125 
Q 8.15625 6.15625 8.15625 10.0625 
L 8.15625 27.390625 
Q 8.15625 35.203125 7.828125 36.6875 
Q 7.515625 38.1875 6.65625 38.859375 
Q 5.8125 39.546875 4.546875 39.546875 
Q 3.03125 39.546875 1.125 38.8125 
L 0.640625 40.578125 
L 14.15625 46.046875 
z
" id="TimesNewRomanPSMT-114"/>
       <path d="M 41.109375 17 
Q 39.3125 8.15625 34.03125 3.390625 
Q 28.765625 -1.375 22.359375 -1.375 
Q 14.75 -1.375 9.078125 5.015625 
Q 3.421875 11.421875 3.421875 22.3125 
Q 3.421875 32.859375 9.6875 39.453125 
Q 15.96875 46.046875 24.75 46.046875 
Q 31.34375 46.046875 35.59375 42.546875 
Q 39.84375 39.0625 39.84375 35.296875 
Q 39.84375 33.453125 38.640625 32.296875 
Q 37.453125 31.15625 35.296875 31.15625 
Q 32.421875 31.15625 30.953125 33.015625 
Q 30.125 34.03125 29.859375 36.90625 
Q 29.59375 39.796875 27.875 41.3125 
Q 26.171875 42.78125 23.140625 42.78125 
Q 18.265625 42.78125 15.28125 39.15625 
Q 11.328125 34.375 11.328125 26.515625 
Q 11.328125 18.5 15.25 12.375 
Q 19.1875 6.25 25.875 6.25 
Q 30.671875 6.25 34.46875 9.515625 
Q 37.15625 11.765625 39.703125 17.671875 
z
" id="TimesNewRomanPSMT-99"/>
       <path d="M 20.453125 62.59375 
L 20.453125 36.578125 
L 32.515625 36.578125 
Q 36.671875 36.578125 38.59375 38.40625 
Q 40.53125 40.234375 41.15625 45.65625 
L 42.96875 45.65625 
L 42.96875 23.25 
L 41.15625 23.25 
Q 41.109375 27.09375 40.15625 28.90625 
Q 39.203125 30.71875 37.515625 31.609375 
Q 35.84375 32.515625 32.515625 32.515625 
L 20.453125 32.515625 
L 20.453125 11.71875 
Q 20.453125 6.6875 21.09375 5.078125 
Q 21.578125 3.859375 23.140625 2.984375 
Q 25.296875 1.8125 27.640625 1.8125 
L 30.03125 1.8125 
L 30.03125 0 
L 1.609375 0 
L 1.609375 1.8125 
L 3.953125 1.8125 
Q 8.0625 1.8125 9.90625 4.203125 
Q 11.078125 5.765625 11.078125 11.71875 
L 11.078125 54.5 
Q 11.078125 59.515625 10.453125 61.140625 
Q 9.96875 62.359375 8.453125 63.234375 
Q 6.34375 64.40625 3.953125 64.40625 
L 1.609375 64.40625 
L 1.609375 66.21875 
L 50.875 66.21875 
L 51.515625 51.65625 
L 49.8125 51.65625 
Q 48.53125 56.296875 46.84375 58.46875 
Q 45.171875 60.640625 42.703125 61.609375 
Q 40.234375 62.59375 35.0625 62.59375 
z
" id="TimesNewRomanPSMT-70"/>
       <path d="M 20.90625 62.59375 
L 20.90625 36.421875 
L 35.453125 36.421875 
Q 41.109375 36.421875 43.015625 38.140625 
Q 45.5625 40.375 45.84375 46.046875 
L 47.65625 46.046875 
L 47.65625 23 
L 45.84375 23 
Q 45.171875 27.828125 44.484375 29.203125 
Q 43.609375 30.90625 41.59375 31.875 
Q 39.59375 32.859375 35.453125 32.859375 
L 20.90625 32.859375 
L 20.90625 11.03125 
Q 20.90625 6.640625 21.296875 5.6875 
Q 21.6875 4.734375 22.65625 4.171875 
Q 23.640625 3.609375 26.375 3.609375 
L 37.59375 3.609375 
Q 43.21875 3.609375 45.75 4.390625 
Q 48.296875 5.171875 50.640625 7.46875 
Q 53.65625 10.5 56.84375 16.609375 
L 58.796875 16.609375 
L 53.078125 0 
L 2.046875 0 
L 2.046875 1.8125 
L 4.390625 1.8125 
Q 6.734375 1.8125 8.84375 2.9375 
Q 10.40625 3.71875 10.96875 5.28125 
Q 11.53125 6.84375 11.53125 11.671875 
L 11.53125 54.6875 
Q 11.53125 60.984375 10.25 62.453125 
Q 8.5 64.40625 4.390625 64.40625 
L 2.046875 64.40625 
L 2.046875 66.21875 
L 53.078125 66.21875 
L 53.8125 51.703125 
L 51.90625 51.703125 
Q 50.875 56.9375 49.625 58.890625 
Q 48.390625 60.84375 45.953125 61.859375 
Q 44 62.59375 39.0625 62.59375 
z
" id="TimesNewRomanPSMT-69"/>
       <path d="M 40.921875 0 
L 15.328125 55.71875 
L 15.328125 11.46875 
Q 15.328125 5.375 16.65625 3.859375 
Q 18.453125 1.8125 22.359375 1.8125 
L 24.703125 1.8125 
L 24.703125 0 
L 1.65625 0 
L 1.65625 1.8125 
L 4 1.8125 
Q 8.203125 1.8125 9.96875 4.34375 
Q 11.03125 5.90625 11.03125 11.46875 
L 11.03125 54.734375 
Q 11.03125 59.125 10.0625 61.078125 
Q 9.375 62.5 7.546875 63.453125 
Q 5.71875 64.40625 1.65625 64.40625 
L 1.65625 66.21875 
L 20.40625 66.21875 
L 44.4375 14.40625 
L 68.0625 66.21875 
L 86.8125 66.21875 
L 86.8125 64.40625 
L 84.515625 64.40625 
Q 80.28125 64.40625 78.515625 61.859375 
Q 77.4375 60.296875 77.4375 54.734375 
L 77.4375 11.46875 
Q 77.4375 5.375 78.8125 3.859375 
Q 80.609375 1.8125 84.515625 1.8125 
L 86.8125 1.8125 
L 86.8125 0 
L 58.6875 0 
L 58.6875 1.8125 
L 61.03125 1.8125 
Q 65.28125 1.8125 67 4.34375 
Q 68.0625 5.90625 68.0625 11.46875 
L 68.0625 55.71875 
L 42.53125 0 
z
" id="TimesNewRomanPSMT-77"/>
      </defs>
      <use xlink:href="#TimesNewRomanPSMT-82"/>
      <use x="66.699219" xlink:href="#TimesNewRomanPSMT-101"/>
      <use x="111.083984" xlink:href="#TimesNewRomanPSMT-102"/>
      <use x="144.384766" xlink:href="#TimesNewRomanPSMT-101"/>
      <use x="188.769531" xlink:href="#TimesNewRomanPSMT-114"/>
      <use x="222.070312" xlink:href="#TimesNewRomanPSMT-101"/>
      <use x="266.455078" xlink:href="#TimesNewRomanPSMT-110"/>
      <use x="316.455078" xlink:href="#TimesNewRomanPSMT-99"/>
      <use x="360.839844" xlink:href="#TimesNewRomanPSMT-101"/>
      <use x="405.224609" xlink:href="#TimesNewRomanPSMT-32"/>
      <use x="430.224609" xlink:href="#TimesNewRomanPSMT-70"/>
      <use x="485.839844" xlink:href="#TimesNewRomanPSMT-69"/>
      <use x="546.923828" xlink:href="#TimesNewRomanPSMT-77"/>
     </g>
    </g>
    <g id="line2d_20">
     <path d="M 106.962969 65.805937 
L 150.962969 65.805937 
" style="fill:none;stroke:#0000ff;stroke-linecap:square;stroke-width:3;"/>
    </g>
    <g id="line2d_21"/>
    <g id="text_18">
     <!-- Initial mistuned FEM -->
     <g transform="translate(168.562969 73.505937)scale(0.22 -0.22)">
      <defs>
       <path d="M 30.859375 1.8125 
L 30.859375 0 
L 2.484375 0 
L 2.484375 1.8125 
L 4.828125 1.8125 
Q 8.9375 1.8125 10.796875 4.203125 
Q 11.96875 5.765625 11.96875 11.71875 
L 11.96875 54.5 
Q 11.96875 59.515625 11.328125 61.140625 
Q 10.84375 62.359375 9.328125 63.234375 
Q 7.171875 64.40625 4.828125 64.40625 
L 2.484375 64.40625 
L 2.484375 66.21875 
L 30.859375 66.21875 
L 30.859375 64.40625 
L 28.46875 64.40625 
Q 24.421875 64.40625 22.5625 62.015625 
Q 21.34375 60.453125 21.34375 54.5 
L 21.34375 11.71875 
Q 21.34375 6.6875 21.96875 5.078125 
Q 22.46875 3.859375 24.03125 2.984375 
Q 26.125 1.8125 28.46875 1.8125 
z
" id="TimesNewRomanPSMT-73"/>
       <path d="M 32.03125 46.046875 
L 32.03125 30.8125 
L 30.421875 30.8125 
Q 28.5625 37.984375 25.65625 40.578125 
Q 22.75 43.171875 18.265625 43.171875 
Q 14.84375 43.171875 12.734375 41.359375 
Q 10.640625 39.546875 10.640625 37.359375 
Q 10.640625 34.625 12.203125 32.671875 
Q 13.71875 30.671875 18.359375 28.421875 
L 25.484375 24.953125 
Q 35.40625 20.125 35.40625 12.203125 
Q 35.40625 6.109375 30.78125 2.359375 
Q 26.171875 -1.375 20.453125 -1.375 
Q 16.359375 -1.375 11.078125 0.09375 
Q 9.46875 0.59375 8.453125 0.59375 
Q 7.328125 0.59375 6.6875 -0.6875 
L 5.078125 -0.6875 
L 5.078125 15.28125 
L 6.6875 15.28125 
Q 8.0625 8.453125 11.90625 4.984375 
Q 15.765625 1.515625 20.5625 1.515625 
Q 23.921875 1.515625 26.046875 3.484375 
Q 28.171875 5.46875 28.171875 8.25 
Q 28.171875 11.625 25.796875 13.921875 
Q 23.4375 16.21875 16.359375 19.734375 
Q 9.28125 23.25 7.078125 26.078125 
Q 4.890625 28.859375 4.890625 33.109375 
Q 4.890625 38.625 8.671875 42.328125 
Q 12.453125 46.046875 18.453125 46.046875 
Q 21.09375 46.046875 24.859375 44.921875 
Q 27.34375 44.1875 28.171875 44.1875 
Q 28.953125 44.1875 29.390625 44.53125 
Q 29.828125 44.875 30.421875 46.046875 
z
" id="TimesNewRomanPSMT-115"/>
      </defs>
      <use xlink:href="#TimesNewRomanPSMT-73"/>
      <use x="33.300781" xlink:href="#TimesNewRomanPSMT-110"/>
      <use x="83.300781" xlink:href="#TimesNewRomanPSMT-105"/>
      <use x="111.083984" xlink:href="#TimesNewRomanPSMT-116"/>
      <use x="138.867188" xlink:href="#TimesNewRomanPSMT-105"/>
      <use x="166.650391" xlink:href="#TimesNewRomanPSMT-97"/>
      <use x="211.035156" xlink:href="#TimesNewRomanPSMT-108"/>
      <use x="238.818359" xlink:href="#TimesNewRomanPSMT-32"/>
      <use x="263.818359" xlink:href="#TimesNewRomanPSMT-109"/>
      <use x="341.601562" xlink:href="#TimesNewRomanPSMT-105"/>
      <use x="369.384766" xlink:href="#TimesNewRomanPSMT-115"/>
      <use x="408.300781" xlink:href="#TimesNewRomanPSMT-116"/>
      <use x="436.083984" xlink:href="#TimesNewRomanPSMT-117"/>
      <use x="486.083984" xlink:href="#TimesNewRomanPSMT-110"/>
      <use x="536.083984" xlink:href="#TimesNewRomanPSMT-101"/>
      <use x="580.46875" xlink:href="#TimesNewRomanPSMT-100"/>
      <use x="630.46875" xlink:href="#TimesNewRomanPSMT-32"/>
      <use x="655.46875" xlink:href="#TimesNewRomanPSMT-70"/>
      <use x="711.083984" xlink:href="#TimesNewRomanPSMT-69"/>
      <use x="772.167969" xlink:href="#TimesNewRomanPSMT-77"/>
     </g>
    </g>
    <g id="line2d_22">
     <path d="M 106.962969 96.911875 
L 150.962969 96.911875 
" style="fill:none;stroke:#ff0000;stroke-linecap:square;stroke-width:3;"/>
    </g>
    <g id="line2d_23"/>
    <g id="text_19">
     <!-- Converged FEM -->
     <g transform="translate(168.562969 104.611875)scale(0.22 -0.22)">
      <defs>
       <path d="M 60.203125 67.71875 
L 61.71875 45.21875 
L 60.203125 45.21875 
Q 57.171875 55.328125 51.5625 59.765625 
Q 45.953125 64.203125 38.09375 64.203125 
Q 31.5 64.203125 26.171875 60.859375 
Q 20.84375 57.515625 17.796875 50.1875 
Q 14.75 42.875 14.75 31.984375 
Q 14.75 23 17.625 16.40625 
Q 20.515625 9.8125 26.296875 6.296875 
Q 32.078125 2.78125 39.5 2.78125 
Q 45.953125 2.78125 50.875 5.53125 
Q 55.8125 8.296875 61.71875 16.5 
L 63.234375 15.53125 
Q 58.25 6.6875 51.609375 2.578125 
Q 44.96875 -1.515625 35.84375 -1.515625 
Q 19.390625 -1.515625 10.359375 10.6875 
Q 3.609375 19.78125 3.609375 32.078125 
Q 3.609375 42 8.046875 50.296875 
Q 12.5 58.59375 20.28125 63.15625 
Q 28.078125 67.71875 37.3125 67.71875 
Q 44.484375 67.71875 51.46875 64.203125 
Q 53.515625 63.140625 54.390625 63.140625 
Q 55.71875 63.140625 56.6875 64.0625 
Q 57.953125 65.375 58.5 67.71875 
z
" id="TimesNewRomanPSMT-67"/>
       <path d="M 25 46.046875 
Q 35.15625 46.046875 41.3125 38.328125 
Q 46.53125 31.734375 46.53125 23.1875 
Q 46.53125 17.1875 43.640625 11.03125 
Q 40.765625 4.890625 35.71875 1.75 
Q 30.671875 -1.375 24.46875 -1.375 
Q 14.359375 -1.375 8.40625 6.6875 
Q 3.375 13.484375 3.375 21.921875 
Q 3.375 28.078125 6.421875 34.15625 
Q 9.46875 40.234375 14.453125 43.140625 
Q 19.4375 46.046875 25 46.046875 
z
M 23.484375 42.875 
Q 20.90625 42.875 18.28125 41.328125 
Q 15.671875 39.796875 14.0625 35.9375 
Q 12.453125 32.078125 12.453125 26.03125 
Q 12.453125 16.265625 16.328125 9.171875 
Q 20.21875 2.09375 26.5625 2.09375 
Q 31.296875 2.09375 34.375 6 
Q 37.453125 9.90625 37.453125 19.4375 
Q 37.453125 31.34375 32.328125 38.1875 
Q 28.859375 42.875 23.484375 42.875 
z
" id="TimesNewRomanPSMT-111"/>
       <path d="M 0.828125 44.734375 
L 21.875 44.734375 
L 21.875 42.921875 
L 20.515625 42.921875 
Q 18.609375 42.921875 17.609375 41.984375 
Q 16.609375 41.0625 16.609375 39.5 
Q 16.609375 37.796875 17.625 35.453125 
L 28.03125 10.75 
L 38.484375 36.375 
Q 39.59375 39.109375 39.59375 40.53125 
Q 39.59375 41.21875 39.203125 41.65625 
Q 38.671875 42.390625 37.84375 42.65625 
Q 37.015625 42.921875 34.46875 42.921875 
L 34.46875 44.734375 
L 49.078125 44.734375 
L 49.078125 42.921875 
Q 46.53125 42.71875 45.5625 41.890625 
Q 43.84375 40.4375 42.484375 37.015625 
L 26.609375 -1.375 
L 24.609375 -1.375 
L 8.640625 36.375 
Q 7.5625 39.015625 6.578125 40.15625 
Q 5.609375 41.3125 4.109375 42.09375 
Q 3.265625 42.53125 0.828125 42.921875 
z
" id="TimesNewRomanPSMT-118"/>
      </defs>
      <use xlink:href="#TimesNewRomanPSMT-67"/>
      <use x="66.699219" xlink:href="#TimesNewRomanPSMT-111"/>
      <use x="116.699219" xlink:href="#TimesNewRomanPSMT-110"/>
      <use x="166.699219" xlink:href="#TimesNewRomanPSMT-118"/>
      <use x="216.699219" xlink:href="#TimesNewRomanPSMT-101"/>
      <use x="261.083984" xlink:href="#TimesNewRomanPSMT-114"/>
      <use x="292.634766" xlink:href="#TimesNewRomanPSMT-103"/>
      <use x="342.634766" xlink:href="#TimesNewRomanPSMT-101"/>
      <use x="387.019531" xlink:href="#TimesNewRomanPSMT-100"/>
      <use x="437.019531" xlink:href="#TimesNewRomanPSMT-32"/>
      <use x="462.019531" xlink:href="#TimesNewRomanPSMT-70"/>
      <use x="517.634766" xlink:href="#TimesNewRomanPSMT-69"/>
      <use x="578.71875" xlink:href="#TimesNewRomanPSMT-77"/>
     </g>
    </g>
   </g>
  </g>
 </g>
 <defs>
  <clipPath id="p4e16f02cf2">
   <rect height="443.52" width="837" x="87.162969" y="7.2"/>
  </clipPath>
 </defs>
</svg>
