<?xml version="1.0" encoding="utf-8" standalone="no"?>
<!DOCTYPE svg PUBLIC "-//W3C//DTD SVG 1.1//EN"
  "http://www.w3.org/Graphics/SVG/1.1/DTD/svg11.dtd">
<svg height="506.651094pt" version="1.1" viewBox="0 0 917.265312 506.651094" width="917.265312pt" xmlns="http://www.w3.org/2000/svg" xmlns:xlink="http://www.w3.org/1999/xlink">
 <metadata>
  <rdf:RDF xmlns:cc="http://creativecommons.org/ns#" xmlns:dc="http://purl.org/dc/elements/1.1/" xmlns:rdf="http://www.w3.org/1999/02/22-rdf-syntax-ns#">
   <cc:Work>
    <dc:type rdf:resource="http://purl.org/dc/dcmitype/StillImage"/>
    <dc:date>2022-07-24T12:23:46.454182</dc:date>
    <dc:format>image/svg+xml</dc:format>
    <dc:creator>
     <cc:Agent>
      <dc:title>Matplotlib v3.4.3, https://matplotlib.org/</dc:title>
     </cc:Agent>
    </dc:creator>
   </cc:Work>
  </rdf:RDF>
 </metadata>
 <defs>
  <style type="text/css">*{stroke-linecap:butt;stroke-linejoin:round;}</style>
 </defs>
 <g id="figure_1">
  <g id="patch_1">
   <path d="M 0 506.651094 
L 917.265312 506.651094 
L 917.265312 0 
L 0 0 
z
" style="fill:#ffffff;"/>
  </g>
  <g id="axes_1">
   <g id="patch_2">
    <path d="M 73.065313 442.08 
L 910.065313 442.08 
L 910.065313 7.2 
L 73.065313 7.2 
z
" style="fill:#ffffff;"/>
   </g>
   <g id="matplotlib.axis_1">
    <g id="xtick_1">
     <g id="line2d_1">
      <defs>
       <path d="M 0 0 
L 0 3.5 
" id="mb35c8cce7e" style="stroke:#000000;stroke-width:0.8;"/>
      </defs>
      <g>
       <use style="stroke:#000000;stroke-width:0.8;" x="111.110767" xlink:href="#mb35c8cce7e" y="442.08"/>
      </g>
     </g>
     <g id="text_1">
      <!-- 0.0 -->
      <g transform="translate(95.485767 466.439375)scale(0.25 -0.25)">
       <defs>
        <path d="M 231 2094 
Q 231 2819 450 3342 
Q 669 3866 1031 4122 
Q 1313 4325 1613 4325 
Q 2100 4325 2488 3828 
Q 2972 3213 2972 2159 
Q 2972 1422 2759 906 
Q 2547 391 2217 158 
Q 1888 -75 1581 -75 
Q 975 -75 572 641 
Q 231 1244 231 2094 
z
M 844 2016 
Q 844 1141 1059 588 
Q 1238 122 1591 122 
Q 1759 122 1940 273 
Q 2122 425 2216 781 
Q 2359 1319 2359 2297 
Q 2359 3022 2209 3506 
Q 2097 3866 1919 4016 
Q 1791 4119 1609 4119 
Q 1397 4119 1231 3928 
Q 1006 3669 925 3112 
Q 844 2556 844 2016 
z
" id="TimesNewRomanPSMT-30" transform="scale(0.015625)"/>
        <path d="M 800 606 
Q 947 606 1047 504 
Q 1147 403 1147 259 
Q 1147 116 1045 14 
Q 944 -88 800 -88 
Q 656 -88 554 14 
Q 453 116 453 259 
Q 453 406 554 506 
Q 656 606 800 606 
z
" id="TimesNewRomanPSMT-2e" transform="scale(0.015625)"/>
       </defs>
       <use xlink:href="#TimesNewRomanPSMT-30"/>
       <use x="50" xlink:href="#TimesNewRomanPSMT-2e"/>
       <use x="75" xlink:href="#TimesNewRomanPSMT-30"/>
      </g>
     </g>
    </g>
    <g id="xtick_2">
     <g id="line2d_2">
      <g>
       <use style="stroke:#000000;stroke-width:0.8;" x="212.565313" xlink:href="#mb35c8cce7e" y="442.08"/>
      </g>
     </g>
     <g id="text_2">
      <!-- 0.2 -->
      <g transform="translate(196.940313 466.439375)scale(0.25 -0.25)">
       <defs>
        <path d="M 2934 816 
L 2638 0 
L 138 0 
L 138 116 
Q 1241 1122 1691 1759 
Q 2141 2397 2141 2925 
Q 2141 3328 1894 3587 
Q 1647 3847 1303 3847 
Q 991 3847 742 3664 
Q 494 3481 375 3128 
L 259 3128 
Q 338 3706 661 4015 
Q 984 4325 1469 4325 
Q 1984 4325 2329 3994 
Q 2675 3663 2675 3213 
Q 2675 2891 2525 2569 
Q 2294 2063 1775 1497 
Q 997 647 803 472 
L 1909 472 
Q 2247 472 2383 497 
Q 2519 522 2628 598 
Q 2738 675 2819 816 
L 2934 816 
z
" id="TimesNewRomanPSMT-32" transform="scale(0.015625)"/>
       </defs>
       <use xlink:href="#TimesNewRomanPSMT-30"/>
       <use x="50" xlink:href="#TimesNewRomanPSMT-2e"/>
       <use x="75" xlink:href="#TimesNewRomanPSMT-32"/>
      </g>
     </g>
    </g>
    <g id="xtick_3">
     <g id="line2d_3">
      <g>
       <use style="stroke:#000000;stroke-width:0.8;" x="314.019858" xlink:href="#mb35c8cce7e" y="442.08"/>
      </g>
     </g>
     <g id="text_3">
      <!-- 0.4 -->
      <g transform="translate(298.394858 466.439375)scale(0.25 -0.25)">
       <defs>
        <path d="M 2978 1563 
L 2978 1119 
L 2409 1119 
L 2409 0 
L 1894 0 
L 1894 1119 
L 100 1119 
L 100 1519 
L 2066 4325 
L 2409 4325 
L 2409 1563 
L 2978 1563 
z
M 1894 1563 
L 1894 3666 
L 406 1563 
L 1894 1563 
z
" id="TimesNewRomanPSMT-34" transform="scale(0.015625)"/>
       </defs>
       <use xlink:href="#TimesNewRomanPSMT-30"/>
       <use x="50" xlink:href="#TimesNewRomanPSMT-2e"/>
       <use x="75" xlink:href="#TimesNewRomanPSMT-34"/>
      </g>
     </g>
    </g>
    <g id="xtick_4">
     <g id="line2d_4">
      <g>
       <use style="stroke:#000000;stroke-width:0.8;" x="415.474403" xlink:href="#mb35c8cce7e" y="442.08"/>
      </g>
     </g>
     <g id="text_4">
      <!-- 0.6 -->
      <g transform="translate(399.849403 466.439375)scale(0.25 -0.25)">
       <defs>
        <path d="M 2869 4325 
L 2869 4209 
Q 2456 4169 2195 4045 
Q 1934 3922 1679 3669 
Q 1425 3416 1258 3105 
Q 1091 2794 978 2366 
Q 1428 2675 1881 2675 
Q 2316 2675 2634 2325 
Q 2953 1975 2953 1425 
Q 2953 894 2631 456 
Q 2244 -75 1606 -75 
Q 1172 -75 869 213 
Q 275 772 275 1663 
Q 275 2231 503 2743 
Q 731 3256 1154 3653 
Q 1578 4050 1965 4187 
Q 2353 4325 2688 4325 
L 2869 4325 
z
M 925 2138 
Q 869 1716 869 1456 
Q 869 1156 980 804 
Q 1091 453 1309 247 
Q 1469 100 1697 100 
Q 1969 100 2183 356 
Q 2397 613 2397 1088 
Q 2397 1622 2184 2012 
Q 1972 2403 1581 2403 
Q 1463 2403 1327 2353 
Q 1191 2303 925 2138 
z
" id="TimesNewRomanPSMT-36" transform="scale(0.015625)"/>
       </defs>
       <use xlink:href="#TimesNewRomanPSMT-30"/>
       <use x="50" xlink:href="#TimesNewRomanPSMT-2e"/>
       <use x="75" xlink:href="#TimesNewRomanPSMT-36"/>
      </g>
     </g>
    </g>
    <g id="xtick_5">
     <g id="line2d_5">
      <g>
       <use style="stroke:#000000;stroke-width:0.8;" x="516.928949" xlink:href="#mb35c8cce7e" y="442.08"/>
      </g>
     </g>
     <g id="text_5">
      <!-- 0.8 -->
      <g transform="translate(501.303949 466.439375)scale(0.25 -0.25)">
       <defs>
        <path d="M 1228 2134 
Q 725 2547 579 2797 
Q 434 3047 434 3316 
Q 434 3728 753 4026 
Q 1072 4325 1600 4325 
Q 2113 4325 2425 4047 
Q 2738 3769 2738 3413 
Q 2738 3175 2569 2928 
Q 2400 2681 1866 2347 
Q 2416 1922 2594 1678 
Q 2831 1359 2831 1006 
Q 2831 559 2490 242 
Q 2150 -75 1597 -75 
Q 994 -75 656 303 
Q 388 606 388 966 
Q 388 1247 577 1523 
Q 766 1800 1228 2134 
z
M 1719 2469 
Q 2094 2806 2194 3001 
Q 2294 3197 2294 3444 
Q 2294 3772 2109 3958 
Q 1925 4144 1606 4144 
Q 1288 4144 1088 3959 
Q 888 3775 888 3528 
Q 888 3366 970 3203 
Q 1053 3041 1206 2894 
L 1719 2469 
z
M 1375 2016 
Q 1116 1797 991 1539 
Q 866 1281 866 981 
Q 866 578 1086 336 
Q 1306 94 1647 94 
Q 1984 94 2187 284 
Q 2391 475 2391 747 
Q 2391 972 2272 1150 
Q 2050 1481 1375 2016 
z
" id="TimesNewRomanPSMT-38" transform="scale(0.015625)"/>
       </defs>
       <use xlink:href="#TimesNewRomanPSMT-30"/>
       <use x="50" xlink:href="#TimesNewRomanPSMT-2e"/>
       <use x="75" xlink:href="#TimesNewRomanPSMT-38"/>
      </g>
     </g>
    </g>
    <g id="xtick_6">
     <g id="line2d_6">
      <g>
       <use style="stroke:#000000;stroke-width:0.8;" x="618.383494" xlink:href="#mb35c8cce7e" y="442.08"/>
      </g>
     </g>
     <g id="text_6">
      <!-- 1.0 -->
      <g transform="translate(602.758494 466.439375)scale(0.25 -0.25)">
       <defs>
        <path d="M 750 3822 
L 1781 4325 
L 1884 4325 
L 1884 747 
Q 1884 391 1914 303 
Q 1944 216 2037 169 
Q 2131 122 2419 116 
L 2419 0 
L 825 0 
L 825 116 
Q 1125 122 1212 167 
Q 1300 213 1334 289 
Q 1369 366 1369 747 
L 1369 3034 
Q 1369 3497 1338 3628 
Q 1316 3728 1258 3775 
Q 1200 3822 1119 3822 
Q 1003 3822 797 3725 
L 750 3822 
z
" id="TimesNewRomanPSMT-31" transform="scale(0.015625)"/>
       </defs>
       <use xlink:href="#TimesNewRomanPSMT-31"/>
       <use x="50" xlink:href="#TimesNewRomanPSMT-2e"/>
       <use x="75" xlink:href="#TimesNewRomanPSMT-30"/>
      </g>
     </g>
    </g>
    <g id="xtick_7">
     <g id="line2d_7">
      <g>
       <use style="stroke:#000000;stroke-width:0.8;" x="719.83804" xlink:href="#mb35c8cce7e" y="442.08"/>
      </g>
     </g>
     <g id="text_7">
      <!-- 1.2 -->
      <g transform="translate(704.21304 466.439375)scale(0.25 -0.25)">
       <use xlink:href="#TimesNewRomanPSMT-31"/>
       <use x="50" xlink:href="#TimesNewRomanPSMT-2e"/>
       <use x="75" xlink:href="#TimesNewRomanPSMT-32"/>
      </g>
     </g>
    </g>
    <g id="xtick_8">
     <g id="line2d_8">
      <g>
       <use style="stroke:#000000;stroke-width:0.8;" x="821.292585" xlink:href="#mb35c8cce7e" y="442.08"/>
      </g>
     </g>
     <g id="text_8">
      <!-- 1.4 -->
      <g transform="translate(805.667585 466.439375)scale(0.25 -0.25)">
       <use xlink:href="#TimesNewRomanPSMT-31"/>
       <use x="50" xlink:href="#TimesNewRomanPSMT-2e"/>
       <use x="75" xlink:href="#TimesNewRomanPSMT-34"/>
      </g>
     </g>
    </g>
    <g id="text_9">
     <!-- Beam Length [m] -->
     <g transform="translate(399.149531 493.840781)scale(0.26 -0.26)">
      <defs>
       <path d="M 2956 2163 
Q 3397 2069 3616 1863 
Q 3919 1575 3919 1159 
Q 3919 844 3719 555 
Q 3519 266 3170 133 
Q 2822 0 2106 0 
L 106 0 
L 106 116 
L 266 116 
Q 531 116 647 284 
Q 719 394 719 750 
L 719 3488 
Q 719 3881 628 3984 
Q 506 4122 266 4122 
L 106 4122 
L 106 4238 
L 1938 4238 
Q 2450 4238 2759 4163 
Q 3228 4050 3475 3764 
Q 3722 3478 3722 3106 
Q 3722 2788 3528 2536 
Q 3334 2284 2956 2163 
z
M 1319 2331 
Q 1434 2309 1582 2298 
Q 1731 2288 1909 2288 
Q 2366 2288 2595 2386 
Q 2825 2484 2947 2687 
Q 3069 2891 3069 3131 
Q 3069 3503 2766 3765 
Q 2463 4028 1881 4028 
Q 1569 4028 1319 3959 
L 1319 2331 
z
M 1319 306 
Q 1681 222 2034 222 
Q 2600 222 2897 476 
Q 3194 731 3194 1106 
Q 3194 1353 3059 1581 
Q 2925 1809 2622 1940 
Q 2319 2072 1872 2072 
Q 1678 2072 1540 2065 
Q 1403 2059 1319 2044 
L 1319 306 
z
" id="TimesNewRomanPSMT-42" transform="scale(0.015625)"/>
       <path d="M 681 1784 
Q 678 1147 991 784 
Q 1303 422 1725 422 
Q 2006 422 2214 576 
Q 2422 731 2563 1106 
L 2659 1044 
Q 2594 616 2278 264 
Q 1963 -88 1488 -88 
Q 972 -88 605 314 
Q 238 716 238 1394 
Q 238 2128 614 2539 
Q 991 2950 1559 2950 
Q 2041 2950 2350 2633 
Q 2659 2316 2659 1784 
L 681 1784 
z
M 681 1966 
L 2006 1966 
Q 1991 2241 1941 2353 
Q 1863 2528 1708 2628 
Q 1553 2728 1384 2728 
Q 1125 2728 920 2526 
Q 716 2325 681 1966 
z
" id="TimesNewRomanPSMT-65" transform="scale(0.015625)"/>
       <path d="M 1822 413 
Q 1381 72 1269 19 
Q 1100 -59 909 -59 
Q 613 -59 420 144 
Q 228 347 228 678 
Q 228 888 322 1041 
Q 450 1253 767 1440 
Q 1084 1628 1822 1897 
L 1822 2009 
Q 1822 2438 1686 2597 
Q 1550 2756 1291 2756 
Q 1094 2756 978 2650 
Q 859 2544 859 2406 
L 866 2225 
Q 866 2081 792 2003 
Q 719 1925 600 1925 
Q 484 1925 411 2006 
Q 338 2088 338 2228 
Q 338 2497 613 2722 
Q 888 2947 1384 2947 
Q 1766 2947 2009 2819 
Q 2194 2722 2281 2516 
Q 2338 2381 2338 1966 
L 2338 994 
Q 2338 584 2353 492 
Q 2369 400 2405 369 
Q 2441 338 2488 338 
Q 2538 338 2575 359 
Q 2641 400 2828 588 
L 2828 413 
Q 2478 -56 2159 -56 
Q 2006 -56 1915 50 
Q 1825 156 1822 413 
z
M 1822 616 
L 1822 1706 
Q 1350 1519 1213 1441 
Q 966 1303 859 1153 
Q 753 1003 753 825 
Q 753 600 887 451 
Q 1022 303 1197 303 
Q 1434 303 1822 616 
z
" id="TimesNewRomanPSMT-61" transform="scale(0.015625)"/>
       <path d="M 1050 2338 
Q 1363 2650 1419 2697 
Q 1559 2816 1721 2881 
Q 1884 2947 2044 2947 
Q 2313 2947 2506 2790 
Q 2700 2634 2766 2338 
Q 3088 2713 3309 2830 
Q 3531 2947 3766 2947 
Q 3994 2947 4170 2830 
Q 4347 2713 4450 2447 
Q 4519 2266 4519 1878 
L 4519 647 
Q 4519 378 4559 278 
Q 4591 209 4675 161 
Q 4759 113 4950 113 
L 4950 0 
L 3538 0 
L 3538 113 
L 3597 113 
Q 3781 113 3884 184 
Q 3956 234 3988 344 
Q 4000 397 4000 647 
L 4000 1878 
Q 4000 2228 3916 2372 
Q 3794 2572 3525 2572 
Q 3359 2572 3192 2489 
Q 3025 2406 2788 2181 
L 2781 2147 
L 2788 2013 
L 2788 647 
Q 2788 353 2820 281 
Q 2853 209 2943 161 
Q 3034 113 3253 113 
L 3253 0 
L 1806 0 
L 1806 113 
Q 2044 113 2133 169 
Q 2222 225 2256 338 
Q 2272 391 2272 647 
L 2272 1878 
Q 2272 2228 2169 2381 
Q 2031 2581 1784 2581 
Q 1616 2581 1450 2491 
Q 1191 2353 1050 2181 
L 1050 647 
Q 1050 366 1089 281 
Q 1128 197 1204 155 
Q 1281 113 1516 113 
L 1516 0 
L 100 0 
L 100 113 
Q 297 113 375 155 
Q 453 197 493 289 
Q 534 381 534 647 
L 534 1741 
Q 534 2213 506 2350 
Q 484 2453 437 2492 
Q 391 2531 309 2531 
Q 222 2531 100 2484 
L 53 2597 
L 916 2947 
L 1050 2947 
L 1050 2338 
z
" id="TimesNewRomanPSMT-6d" transform="scale(0.015625)"/>
       <path id="TimesNewRomanPSMT-20" transform="scale(0.015625)"/>
       <path d="M 3669 1172 
L 3772 1150 
L 3409 0 
L 128 0 
L 128 116 
L 288 116 
Q 556 116 672 291 
Q 738 391 738 753 
L 738 3488 
Q 738 3884 650 3984 
Q 528 4122 288 4122 
L 128 4122 
L 128 4238 
L 2047 4238 
L 2047 4122 
Q 1709 4125 1573 4059 
Q 1438 3994 1388 3894 
Q 1338 3794 1338 3416 
L 1338 753 
Q 1338 494 1388 397 
Q 1425 331 1503 300 
Q 1581 269 1991 269 
L 2300 269 
Q 2788 269 2984 341 
Q 3181 413 3343 595 
Q 3506 778 3669 1172 
z
" id="TimesNewRomanPSMT-4c" transform="scale(0.015625)"/>
       <path d="M 1034 2341 
Q 1538 2947 1994 2947 
Q 2228 2947 2397 2830 
Q 2566 2713 2666 2444 
Q 2734 2256 2734 1869 
L 2734 647 
Q 2734 375 2778 278 
Q 2813 200 2889 156 
Q 2966 113 3172 113 
L 3172 0 
L 1756 0 
L 1756 113 
L 1816 113 
Q 2016 113 2095 173 
Q 2175 234 2206 353 
Q 2219 400 2219 647 
L 2219 1819 
Q 2219 2209 2117 2386 
Q 2016 2563 1775 2563 
Q 1403 2563 1034 2156 
L 1034 647 
Q 1034 356 1069 288 
Q 1113 197 1189 155 
Q 1266 113 1500 113 
L 1500 0 
L 84 0 
L 84 113 
L 147 113 
Q 366 113 442 223 
Q 519 334 519 647 
L 519 1709 
Q 519 2225 495 2337 
Q 472 2450 423 2490 
Q 375 2531 294 2531 
Q 206 2531 84 2484 
L 38 2597 
L 900 2947 
L 1034 2947 
L 1034 2341 
z
" id="TimesNewRomanPSMT-6e" transform="scale(0.015625)"/>
       <path d="M 966 1044 
Q 703 1172 562 1401 
Q 422 1631 422 1909 
Q 422 2334 742 2640 
Q 1063 2947 1563 2947 
Q 1972 2947 2272 2747 
L 2878 2747 
Q 3013 2747 3034 2739 
Q 3056 2731 3066 2713 
Q 3084 2684 3084 2613 
Q 3084 2531 3069 2500 
Q 3059 2484 3036 2475 
Q 3013 2466 2878 2466 
L 2506 2466 
Q 2681 2241 2681 1891 
Q 2681 1491 2375 1206 
Q 2069 922 1553 922 
Q 1341 922 1119 984 
Q 981 866 932 777 
Q 884 688 884 625 
Q 884 572 936 522 
Q 988 472 1138 450 
Q 1225 438 1575 428 
Q 2219 413 2409 384 
Q 2700 344 2873 169 
Q 3047 -6 3047 -263 
Q 3047 -616 2716 -925 
Q 2228 -1381 1444 -1381 
Q 841 -1381 425 -1109 
Q 191 -953 191 -784 
Q 191 -709 225 -634 
Q 278 -519 444 -313 
Q 466 -284 763 25 
Q 600 122 533 198 
Q 466 275 466 372 
Q 466 481 555 628 
Q 644 775 966 1044 
z
M 1509 2797 
Q 1278 2797 1122 2612 
Q 966 2428 966 2047 
Q 966 1553 1178 1281 
Q 1341 1075 1591 1075 
Q 1828 1075 1981 1253 
Q 2134 1431 2134 1813 
Q 2134 2309 1919 2591 
Q 1759 2797 1509 2797 
z
M 934 0 
Q 788 -159 713 -296 
Q 638 -434 638 -550 
Q 638 -700 819 -813 
Q 1131 -1006 1722 -1006 
Q 2284 -1006 2551 -807 
Q 2819 -609 2819 -384 
Q 2819 -222 2659 -153 
Q 2497 -84 2016 -72 
Q 1313 -53 934 0 
z
" id="TimesNewRomanPSMT-67" transform="scale(0.015625)"/>
       <path d="M 1031 3803 
L 1031 2863 
L 1700 2863 
L 1700 2644 
L 1031 2644 
L 1031 788 
Q 1031 509 1111 412 
Q 1191 316 1316 316 
Q 1419 316 1516 380 
Q 1613 444 1666 569 
L 1788 569 
Q 1678 263 1478 108 
Q 1278 -47 1066 -47 
Q 922 -47 784 33 
Q 647 113 581 261 
Q 516 409 516 719 
L 516 2644 
L 63 2644 
L 63 2747 
Q 234 2816 414 2980 
Q 594 3144 734 3369 
Q 806 3488 934 3803 
L 1031 3803 
z
" id="TimesNewRomanPSMT-74" transform="scale(0.015625)"/>
       <path d="M 1041 4444 
L 1041 2350 
Q 1388 2731 1591 2839 
Q 1794 2947 1997 2947 
Q 2241 2947 2416 2812 
Q 2591 2678 2675 2391 
Q 2734 2191 2734 1659 
L 2734 647 
Q 2734 375 2778 275 
Q 2809 200 2884 156 
Q 2959 113 3159 113 
L 3159 0 
L 1753 0 
L 1753 113 
L 1819 113 
Q 2019 113 2097 173 
Q 2175 234 2206 353 
Q 2216 403 2216 647 
L 2216 1659 
Q 2216 2128 2167 2275 
Q 2119 2422 2012 2495 
Q 1906 2569 1756 2569 
Q 1603 2569 1437 2487 
Q 1272 2406 1041 2159 
L 1041 647 
Q 1041 353 1073 281 
Q 1106 209 1195 161 
Q 1284 113 1503 113 
L 1503 0 
L 84 0 
L 84 113 
Q 275 113 384 172 
Q 447 203 484 290 
Q 522 378 522 647 
L 522 3238 
Q 522 3728 498 3840 
Q 475 3953 426 3993 
Q 378 4034 297 4034 
Q 231 4034 84 3984 
L 41 4094 
L 897 4444 
L 1041 4444 
z
" id="TimesNewRomanPSMT-68" transform="scale(0.015625)"/>
       <path d="M 1900 -1269 
L 525 -1269 
L 525 4334 
L 1900 4334 
L 1900 4088 
L 994 4088 
L 994 -1025 
L 1900 -1025 
L 1900 -1269 
z
" id="TimesNewRomanPSMT-5b" transform="scale(0.015625)"/>
       <path d="M 234 4334 
L 1609 4334 
L 1609 -1272 
L 234 -1272 
L 234 -1025 
L 1141 -1025 
L 1141 4088 
L 234 4088 
L 234 4334 
z
" id="TimesNewRomanPSMT-5d" transform="scale(0.015625)"/>
      </defs>
      <use xlink:href="#TimesNewRomanPSMT-42"/>
      <use x="66.699219" xlink:href="#TimesNewRomanPSMT-65"/>
      <use x="111.083984" xlink:href="#TimesNewRomanPSMT-61"/>
      <use x="155.46875" xlink:href="#TimesNewRomanPSMT-6d"/>
      <use x="233.251953" xlink:href="#TimesNewRomanPSMT-20"/>
      <use x="258.251953" xlink:href="#TimesNewRomanPSMT-4c"/>
      <use x="319.335938" xlink:href="#TimesNewRomanPSMT-65"/>
      <use x="363.720703" xlink:href="#TimesNewRomanPSMT-6e"/>
      <use x="413.720703" xlink:href="#TimesNewRomanPSMT-67"/>
      <use x="463.720703" xlink:href="#TimesNewRomanPSMT-74"/>
      <use x="491.503906" xlink:href="#TimesNewRomanPSMT-68"/>
      <use x="541.503906" xlink:href="#TimesNewRomanPSMT-20"/>
      <use x="566.503906" xlink:href="#TimesNewRomanPSMT-5b"/>
      <use x="599.804688" xlink:href="#TimesNewRomanPSMT-6d"/>
      <use x="677.587891" xlink:href="#TimesNewRomanPSMT-5d"/>
     </g>
    </g>
   </g>
   <g id="matplotlib.axis_2">
    <g id="ytick_1">
     <g id="line2d_9">
      <defs>
       <path d="M 0 0 
L -3.5 0 
" id="mf9422d934c" style="stroke:#000000;stroke-width:0.8;"/>
      </defs>
      <g>
       <use style="stroke:#000000;stroke-width:0.8;" x="73.065313" xlink:href="#mf9422d934c" y="422.312727"/>
      </g>
     </g>
     <g id="text_10">
      <!-- 0.0 -->
      <g transform="translate(34.815313 430.992415)scale(0.25 -0.25)">
       <use xlink:href="#TimesNewRomanPSMT-30"/>
       <use x="50" xlink:href="#TimesNewRomanPSMT-2e"/>
       <use x="75" xlink:href="#TimesNewRomanPSMT-30"/>
      </g>
     </g>
    </g>
    <g id="ytick_2">
     <g id="line2d_10">
      <g>
       <use style="stroke:#000000;stroke-width:0.8;" x="73.065313" xlink:href="#mf9422d934c" y="351.9783"/>
      </g>
     </g>
     <g id="text_11">
      <!-- 0.5 -->
      <g transform="translate(34.815313 360.657988)scale(0.25 -0.25)">
       <defs>
        <path d="M 2778 4238 
L 2534 3706 
L 1259 3706 
L 981 3138 
Q 1809 3016 2294 2522 
Q 2709 2097 2709 1522 
Q 2709 1188 2573 903 
Q 2438 619 2231 419 
Q 2025 219 1772 97 
Q 1413 -75 1034 -75 
Q 653 -75 479 54 
Q 306 184 306 341 
Q 306 428 378 495 
Q 450 563 559 563 
Q 641 563 702 538 
Q 763 513 909 409 
Q 1144 247 1384 247 
Q 1750 247 2026 523 
Q 2303 800 2303 1197 
Q 2303 1581 2056 1914 
Q 1809 2247 1375 2428 
Q 1034 2569 447 2591 
L 1259 4238 
L 2778 4238 
z
" id="TimesNewRomanPSMT-35" transform="scale(0.015625)"/>
       </defs>
       <use xlink:href="#TimesNewRomanPSMT-30"/>
       <use x="50" xlink:href="#TimesNewRomanPSMT-2e"/>
       <use x="75" xlink:href="#TimesNewRomanPSMT-35"/>
      </g>
     </g>
    </g>
    <g id="ytick_3">
     <g id="line2d_11">
      <g>
       <use style="stroke:#000000;stroke-width:0.8;" x="73.065313" xlink:href="#mf9422d934c" y="281.643873"/>
      </g>
     </g>
     <g id="text_12">
      <!-- 1.0 -->
      <g transform="translate(34.815313 290.32356)scale(0.25 -0.25)">
       <use xlink:href="#TimesNewRomanPSMT-31"/>
       <use x="50" xlink:href="#TimesNewRomanPSMT-2e"/>
       <use x="75" xlink:href="#TimesNewRomanPSMT-30"/>
      </g>
     </g>
    </g>
    <g id="ytick_4">
     <g id="line2d_12">
      <g>
       <use style="stroke:#000000;stroke-width:0.8;" x="73.065313" xlink:href="#mf9422d934c" y="211.309446"/>
      </g>
     </g>
     <g id="text_13">
      <!-- 1.5 -->
      <g transform="translate(34.815313 219.989133)scale(0.25 -0.25)">
       <use xlink:href="#TimesNewRomanPSMT-31"/>
       <use x="50" xlink:href="#TimesNewRomanPSMT-2e"/>
       <use x="75" xlink:href="#TimesNewRomanPSMT-35"/>
      </g>
     </g>
    </g>
    <g id="ytick_5">
     <g id="line2d_13">
      <g>
       <use style="stroke:#000000;stroke-width:0.8;" x="73.065313" xlink:href="#mf9422d934c" y="140.975018"/>
      </g>
     </g>
     <g id="text_14">
      <!-- 2.0 -->
      <g transform="translate(34.815313 149.654706)scale(0.25 -0.25)">
       <use xlink:href="#TimesNewRomanPSMT-32"/>
       <use x="50" xlink:href="#TimesNewRomanPSMT-2e"/>
       <use x="75" xlink:href="#TimesNewRomanPSMT-30"/>
      </g>
     </g>
    </g>
    <g id="ytick_6">
     <g id="line2d_14">
      <g>
       <use style="stroke:#000000;stroke-width:0.8;" x="73.065313" xlink:href="#mf9422d934c" y="70.640591"/>
      </g>
     </g>
     <g id="text_15">
      <!-- 2.5 -->
      <g transform="translate(34.815313 79.320279)scale(0.25 -0.25)">
       <use xlink:href="#TimesNewRomanPSMT-32"/>
       <use x="50" xlink:href="#TimesNewRomanPSMT-2e"/>
       <use x="75" xlink:href="#TimesNewRomanPSMT-35"/>
      </g>
     </g>
    </g>
    <g id="text_16">
     <!-- Amplitude -->
     <g transform="translate(25.25375 280.245469)rotate(-90)scale(0.26 -0.26)">
      <defs>
       <path d="M 2928 1419 
L 1288 1419 
L 1000 750 
Q 894 503 894 381 
Q 894 284 986 211 
Q 1078 138 1384 116 
L 1384 0 
L 50 0 
L 50 116 
Q 316 163 394 238 
Q 553 388 747 847 
L 2238 4334 
L 2347 4334 
L 3822 809 
Q 4000 384 4145 257 
Q 4291 131 4550 116 
L 4550 0 
L 2878 0 
L 2878 116 
Q 3131 128 3220 200 
Q 3309 272 3309 375 
Q 3309 513 3184 809 
L 2928 1419 
z
M 2841 1650 
L 2122 3363 
L 1384 1650 
L 2841 1650 
z
" id="TimesNewRomanPSMT-41" transform="scale(0.015625)"/>
       <path d="M -6 2578 
L 875 2934 
L 994 2934 
L 994 2266 
Q 1216 2644 1439 2795 
Q 1663 2947 1909 2947 
Q 2341 2947 2628 2609 
Q 2981 2197 2981 1534 
Q 2981 794 2556 309 
Q 2206 -88 1675 -88 
Q 1444 -88 1275 -22 
Q 1150 25 994 166 
L 994 -706 
Q 994 -1000 1030 -1079 
Q 1066 -1159 1155 -1206 
Q 1244 -1253 1478 -1253 
L 1478 -1369 
L -22 -1369 
L -22 -1253 
L 56 -1253 
Q 228 -1256 350 -1188 
Q 409 -1153 442 -1076 
Q 475 -1000 475 -688 
L 475 2019 
Q 475 2297 450 2372 
Q 425 2447 370 2484 
Q 316 2522 222 2522 
Q 147 2522 31 2478 
L -6 2578 
z
M 994 2081 
L 994 1013 
Q 994 666 1022 556 
Q 1066 375 1236 237 
Q 1406 100 1666 100 
Q 1978 100 2172 344 
Q 2425 663 2425 1241 
Q 2425 1897 2138 2250 
Q 1938 2494 1663 2494 
Q 1513 2494 1366 2419 
Q 1253 2363 994 2081 
z
" id="TimesNewRomanPSMT-70" transform="scale(0.015625)"/>
       <path d="M 1184 4444 
L 1184 647 
Q 1184 378 1223 290 
Q 1263 203 1344 158 
Q 1425 113 1647 113 
L 1647 0 
L 244 0 
L 244 113 
Q 441 113 512 153 
Q 584 194 625 287 
Q 666 381 666 647 
L 666 3247 
Q 666 3731 644 3842 
Q 622 3953 573 3993 
Q 525 4034 450 4034 
Q 369 4034 244 3984 
L 191 4094 
L 1044 4444 
L 1184 4444 
z
" id="TimesNewRomanPSMT-6c" transform="scale(0.015625)"/>
       <path d="M 928 4444 
Q 1059 4444 1151 4351 
Q 1244 4259 1244 4128 
Q 1244 3997 1151 3903 
Q 1059 3809 928 3809 
Q 797 3809 703 3903 
Q 609 3997 609 4128 
Q 609 4259 701 4351 
Q 794 4444 928 4444 
z
M 1188 2947 
L 1188 647 
Q 1188 378 1227 289 
Q 1266 200 1342 156 
Q 1419 113 1622 113 
L 1622 0 
L 231 0 
L 231 113 
Q 441 113 512 153 
Q 584 194 626 287 
Q 669 381 669 647 
L 669 1750 
Q 669 2216 641 2353 
Q 619 2453 572 2492 
Q 525 2531 444 2531 
Q 356 2531 231 2484 
L 188 2597 
L 1050 2947 
L 1188 2947 
z
" id="TimesNewRomanPSMT-69" transform="scale(0.015625)"/>
       <path d="M 2709 2863 
L 2709 1128 
Q 2709 631 2732 520 
Q 2756 409 2807 365 
Q 2859 322 2928 322 
Q 3025 322 3147 375 
L 3191 266 
L 2334 -88 
L 2194 -88 
L 2194 519 
Q 1825 119 1631 15 
Q 1438 -88 1222 -88 
Q 981 -88 804 51 
Q 628 191 559 409 
Q 491 628 491 1028 
L 491 2306 
Q 491 2509 447 2587 
Q 403 2666 317 2708 
Q 231 2750 6 2747 
L 6 2863 
L 1009 2863 
L 1009 947 
Q 1009 547 1148 422 
Q 1288 297 1484 297 
Q 1619 297 1789 381 
Q 1959 466 2194 703 
L 2194 2325 
Q 2194 2569 2105 2655 
Q 2016 2741 1734 2747 
L 1734 2863 
L 2709 2863 
z
" id="TimesNewRomanPSMT-75" transform="scale(0.015625)"/>
       <path d="M 2222 322 
Q 2013 103 1813 7 
Q 1613 -88 1381 -88 
Q 913 -88 563 304 
Q 213 697 213 1313 
Q 213 1928 600 2439 
Q 988 2950 1597 2950 
Q 1975 2950 2222 2709 
L 2222 3238 
Q 2222 3728 2198 3840 
Q 2175 3953 2125 3993 
Q 2075 4034 2000 4034 
Q 1919 4034 1784 3984 
L 1744 4094 
L 2597 4444 
L 2738 4444 
L 2738 1134 
Q 2738 631 2761 520 
Q 2784 409 2836 365 
Q 2888 322 2956 322 
Q 3041 322 3181 375 
L 3216 266 
L 2366 -88 
L 2222 -88 
L 2222 322 
z
M 2222 541 
L 2222 2016 
Q 2203 2228 2109 2403 
Q 2016 2578 1861 2667 
Q 1706 2756 1559 2756 
Q 1284 2756 1069 2509 
Q 784 2184 784 1559 
Q 784 928 1059 592 
Q 1334 256 1672 256 
Q 1956 256 2222 541 
z
" id="TimesNewRomanPSMT-64" transform="scale(0.015625)"/>
      </defs>
      <use xlink:href="#TimesNewRomanPSMT-41"/>
      <use x="72.216797" xlink:href="#TimesNewRomanPSMT-6d"/>
      <use x="150" xlink:href="#TimesNewRomanPSMT-70"/>
      <use x="200" xlink:href="#TimesNewRomanPSMT-6c"/>
      <use x="227.783203" xlink:href="#TimesNewRomanPSMT-69"/>
      <use x="255.566406" xlink:href="#TimesNewRomanPSMT-74"/>
      <use x="283.349609" xlink:href="#TimesNewRomanPSMT-75"/>
      <use x="333.349609" xlink:href="#TimesNewRomanPSMT-64"/>
      <use x="383.349609" xlink:href="#TimesNewRomanPSMT-65"/>
     </g>
    </g>
   </g>
   <g id="line2d_15">
    <defs>
     <path d="M 0 -3 
L -3 3 
L 3 3 
z
" id="md2a04a2b37" style="stroke:#000000;stroke-linejoin:miter;"/>
    </defs>
    <g clip-path="url(#pf5e99d7ddc)">
     <use style="stroke:#000000;stroke-linejoin:miter;" x="111.110767" xlink:href="#md2a04a2b37" y="422.312727"/>
     <use style="stroke:#000000;stroke-linejoin:miter;" x="116.183494" xlink:href="#md2a04a2b37" y="421.79142"/>
     <use style="stroke:#000000;stroke-linejoin:miter;" x="121.256222" xlink:href="#md2a04a2b37" y="420.278375"/>
     <use style="stroke:#000000;stroke-linejoin:miter;" x="126.328949" xlink:href="#md2a04a2b37" y="417.845439"/>
     <use style="stroke:#000000;stroke-linejoin:miter;" x="131.401676" xlink:href="#md2a04a2b37" y="414.564699"/>
     <use style="stroke:#000000;stroke-linejoin:miter;" x="136.474403" xlink:href="#md2a04a2b37" y="410.508068"/>
     <use style="stroke:#000000;stroke-linejoin:miter;" x="141.547131" xlink:href="#md2a04a2b37" y="405.746905"/>
     <use style="stroke:#000000;stroke-linejoin:miter;" x="146.619858" xlink:href="#md2a04a2b37" y="400.351703"/>
     <use style="stroke:#000000;stroke-linejoin:miter;" x="151.692585" xlink:href="#md2a04a2b37" y="394.39175"/>
     <use style="stroke:#000000;stroke-linejoin:miter;" x="156.765313" xlink:href="#md2a04a2b37" y="387.934863"/>
     <use style="stroke:#000000;stroke-linejoin:miter;" x="161.83804" xlink:href="#md2a04a2b37" y="381.047174"/>
     <use style="stroke:#000000;stroke-linejoin:miter;" x="166.910767" xlink:href="#md2a04a2b37" y="373.792884"/>
     <use style="stroke:#000000;stroke-linejoin:miter;" x="171.983494" xlink:href="#md2a04a2b37" y="366.234081"/>
     <use style="stroke:#000000;stroke-linejoin:miter;" x="177.056222" xlink:href="#md2a04a2b37" y="358.4306"/>
     <use style="stroke:#000000;stroke-linejoin:miter;" x="182.128949" xlink:href="#md2a04a2b37" y="350.439891"/>
     <use style="stroke:#000000;stroke-linejoin:miter;" x="187.201676" xlink:href="#md2a04a2b37" y="342.316879"/>
     <use style="stroke:#000000;stroke-linejoin:miter;" x="192.274403" xlink:href="#md2a04a2b37" y="334.113908"/>
     <use style="stroke:#000000;stroke-linejoin:miter;" x="197.347131" xlink:href="#md2a04a2b37" y="325.880628"/>
     <use style="stroke:#000000;stroke-linejoin:miter;" x="202.419858" xlink:href="#md2a04a2b37" y="317.664017"/>
     <use style="stroke:#000000;stroke-linejoin:miter;" x="207.492585" xlink:href="#md2a04a2b37" y="309.508285"/>
     <use style="stroke:#000000;stroke-linejoin:miter;" x="212.565313" xlink:href="#md2a04a2b37" y="301.454878"/>
     <use style="stroke:#000000;stroke-linejoin:miter;" x="217.63804" xlink:href="#md2a04a2b37" y="293.54247"/>
     <use style="stroke:#000000;stroke-linejoin:miter;" x="222.710767" xlink:href="#md2a04a2b37" y="285.80701"/>
     <use style="stroke:#000000;stroke-linejoin:miter;" x="227.783494" xlink:href="#md2a04a2b37" y="278.281658"/>
     <use style="stroke:#000000;stroke-linejoin:miter;" x="232.856222" xlink:href="#md2a04a2b37" y="270.996978"/>
     <use style="stroke:#000000;stroke-linejoin:miter;" x="237.928949" xlink:href="#md2a04a2b37" y="263.980607"/>
     <use style="stroke:#000000;stroke-linejoin:miter;" x="243.001676" xlink:href="#md2a04a2b37" y="257.257973"/>
     <use style="stroke:#000000;stroke-linejoin:miter;" x="248.074403" xlink:href="#md2a04a2b37" y="250.85175"/>
     <use style="stroke:#000000;stroke-linejoin:miter;" x="253.147131" xlink:href="#md2a04a2b37" y="244.781923"/>
     <use style="stroke:#000000;stroke-linejoin:miter;" x="258.219858" xlink:href="#md2a04a2b37" y="239.066494"/>
     <use style="stroke:#000000;stroke-linejoin:miter;" x="263.292585" xlink:href="#md2a04a2b37" y="233.720639"/>
     <use style="stroke:#000000;stroke-linejoin:miter;" x="268.365313" xlink:href="#md2a04a2b37" y="228.757687"/>
     <use style="stroke:#000000;stroke-linejoin:miter;" x="273.43804" xlink:href="#md2a04a2b37" y="224.188439"/>
     <use style="stroke:#000000;stroke-linejoin:miter;" x="278.510767" xlink:href="#md2a04a2b37" y="220.021813"/>
     <use style="stroke:#000000;stroke-linejoin:miter;" x="283.583494" xlink:href="#md2a04a2b37" y="216.264801"/>
     <use style="stroke:#000000;stroke-linejoin:miter;" x="288.656222" xlink:href="#md2a04a2b37" y="212.922073"/>
     <use style="stroke:#000000;stroke-linejoin:miter;" x="293.728949" xlink:href="#md2a04a2b37" y="209.996794"/>
     <use style="stroke:#000000;stroke-linejoin:miter;" x="298.801676" xlink:href="#md2a04a2b37" y="207.49023"/>
     <use style="stroke:#000000;stroke-linejoin:miter;" x="303.874403" xlink:href="#md2a04a2b37" y="205.402001"/>
     <use style="stroke:#000000;stroke-linejoin:miter;" x="308.947131" xlink:href="#md2a04a2b37" y="203.730264"/>
     <use style="stroke:#000000;stroke-linejoin:miter;" x="314.019858" xlink:href="#md2a04a2b37" y="202.471362"/>
     <use style="stroke:#000000;stroke-linejoin:miter;" x="319.092585" xlink:href="#md2a04a2b37" y="201.620625"/>
     <use style="stroke:#000000;stroke-linejoin:miter;" x="324.165313" xlink:href="#md2a04a2b37" y="201.171849"/>
     <use style="stroke:#000000;stroke-linejoin:miter;" x="329.23804" xlink:href="#md2a04a2b37" y="201.117509"/>
     <use style="stroke:#000000;stroke-linejoin:miter;" x="334.310767" xlink:href="#md2a04a2b37" y="201.449248"/>
     <use style="stroke:#000000;stroke-linejoin:miter;" x="339.383494" xlink:href="#md2a04a2b37" y="202.157178"/>
     <use style="stroke:#000000;stroke-linejoin:miter;" x="344.456222" xlink:href="#md2a04a2b37" y="203.230791"/>
     <use style="stroke:#000000;stroke-linejoin:miter;" x="349.528949" xlink:href="#md2a04a2b37" y="204.658622"/>
     <use style="stroke:#000000;stroke-linejoin:miter;" x="354.601676" xlink:href="#md2a04a2b37" y="206.428025"/>
     <use style="stroke:#000000;stroke-linejoin:miter;" x="359.674403" xlink:href="#md2a04a2b37" y="208.525975"/>
     <use style="stroke:#000000;stroke-linejoin:miter;" x="364.747131" xlink:href="#md2a04a2b37" y="210.938558"/>
     <use style="stroke:#000000;stroke-linejoin:miter;" x="369.819858" xlink:href="#md2a04a2b37" y="213.651287"/>
     <use style="stroke:#000000;stroke-linejoin:miter;" x="374.892585" xlink:href="#md2a04a2b37" y="216.648996"/>
     <use style="stroke:#000000;stroke-linejoin:miter;" x="379.965313" xlink:href="#md2a04a2b37" y="219.916185"/>
     <use style="stroke:#000000;stroke-linejoin:miter;" x="385.03804" xlink:href="#md2a04a2b37" y="223.436803"/>
     <use style="stroke:#000000;stroke-linejoin:miter;" x="390.110767" xlink:href="#md2a04a2b37" y="227.194378"/>
     <use style="stroke:#000000;stroke-linejoin:miter;" x="395.183494" xlink:href="#md2a04a2b37" y="231.172282"/>
     <use style="stroke:#000000;stroke-linejoin:miter;" x="400.256222" xlink:href="#md2a04a2b37" y="235.353298"/>
     <use style="stroke:#000000;stroke-linejoin:miter;" x="405.328949" xlink:href="#md2a04a2b37" y="239.720517"/>
     <use style="stroke:#000000;stroke-linejoin:miter;" x="410.401676" xlink:href="#md2a04a2b37" y="244.256272"/>
     <use style="stroke:#000000;stroke-linejoin:miter;" x="415.474403" xlink:href="#md2a04a2b37" y="248.943133"/>
     <use style="stroke:#000000;stroke-linejoin:miter;" x="420.547131" xlink:href="#md2a04a2b37" y="253.763517"/>
     <use style="stroke:#000000;stroke-linejoin:miter;" x="425.619858" xlink:href="#md2a04a2b37" y="258.699756"/>
     <use style="stroke:#000000;stroke-linejoin:miter;" x="430.692585" xlink:href="#md2a04a2b37" y="263.734224"/>
     <use style="stroke:#000000;stroke-linejoin:miter;" x="435.765312" xlink:href="#md2a04a2b37" y="268.849408"/>
     <use style="stroke:#000000;stroke-linejoin:miter;" x="440.83804" xlink:href="#md2a04a2b37" y="274.027738"/>
     <use style="stroke:#000000;stroke-linejoin:miter;" x="445.910767" xlink:href="#md2a04a2b37" y="279.25194"/>
     <use style="stroke:#000000;stroke-linejoin:miter;" x="450.983494" xlink:href="#md2a04a2b37" y="284.504754"/>
     <use style="stroke:#000000;stroke-linejoin:miter;" x="456.056222" xlink:href="#md2a04a2b37" y="289.769187"/>
     <use style="stroke:#000000;stroke-linejoin:miter;" x="461.128949" xlink:href="#md2a04a2b37" y="295.028458"/>
     <use style="stroke:#000000;stroke-linejoin:miter;" x="466.201676" xlink:href="#md2a04a2b37" y="300.26601"/>
     <use style="stroke:#000000;stroke-linejoin:miter;" x="471.274403" xlink:href="#md2a04a2b37" y="305.465595"/>
     <use style="stroke:#000000;stroke-linejoin:miter;" x="476.347131" xlink:href="#md2a04a2b37" y="310.611247"/>
     <use style="stroke:#000000;stroke-linejoin:miter;" x="481.419858" xlink:href="#md2a04a2b37" y="315.687353"/>
     <use style="stroke:#000000;stroke-linejoin:miter;" x="486.492585" xlink:href="#md2a04a2b37" y="320.678608"/>
     <use style="stroke:#000000;stroke-linejoin:miter;" x="491.565313" xlink:href="#md2a04a2b37" y="325.570142"/>
     <use style="stroke:#000000;stroke-linejoin:miter;" x="496.63804" xlink:href="#md2a04a2b37" y="330.347425"/>
     <use style="stroke:#000000;stroke-linejoin:miter;" x="501.710767" xlink:href="#md2a04a2b37" y="334.99639"/>
     <use style="stroke:#000000;stroke-linejoin:miter;" x="506.783494" xlink:href="#md2a04a2b37" y="339.503336"/>
     <use style="stroke:#000000;stroke-linejoin:miter;" x="511.856222" xlink:href="#md2a04a2b37" y="343.855068"/>
     <use style="stroke:#000000;stroke-linejoin:miter;" x="516.928949" xlink:href="#md2a04a2b37" y="348.038843"/>
     <use style="stroke:#000000;stroke-linejoin:miter;" x="522.001676" xlink:href="#md2a04a2b37" y="352.042404"/>
     <use style="stroke:#000000;stroke-linejoin:miter;" x="527.074403" xlink:href="#md2a04a2b37" y="355.853952"/>
     <use style="stroke:#000000;stroke-linejoin:miter;" x="532.147131" xlink:href="#md2a04a2b37" y="359.462226"/>
     <use style="stroke:#000000;stroke-linejoin:miter;" x="537.219858" xlink:href="#md2a04a2b37" y="362.856488"/>
     <use style="stroke:#000000;stroke-linejoin:miter;" x="542.292585" xlink:href="#md2a04a2b37" y="366.026505"/>
     <use style="stroke:#000000;stroke-linejoin:miter;" x="547.365313" xlink:href="#md2a04a2b37" y="368.962573"/>
     <use style="stroke:#000000;stroke-linejoin:miter;" x="552.43804" xlink:href="#md2a04a2b37" y="371.65558"/>
     <use style="stroke:#000000;stroke-linejoin:miter;" x="557.510767" xlink:href="#md2a04a2b37" y="374.096944"/>
     <use style="stroke:#000000;stroke-linejoin:miter;" x="562.583494" xlink:href="#md2a04a2b37" y="376.27862"/>
     <use style="stroke:#000000;stroke-linejoin:miter;" x="567.656222" xlink:href="#md2a04a2b37" y="378.193179"/>
     <use style="stroke:#000000;stroke-linejoin:miter;" x="572.728949" xlink:href="#md2a04a2b37" y="379.833729"/>
     <use style="stroke:#000000;stroke-linejoin:miter;" x="577.801676" xlink:href="#md2a04a2b37" y="381.193955"/>
     <use style="stroke:#000000;stroke-linejoin:miter;" x="582.874403" xlink:href="#md2a04a2b37" y="382.268159"/>
     <use style="stroke:#000000;stroke-linejoin:miter;" x="587.947131" xlink:href="#md2a04a2b37" y="383.051178"/>
     <use style="stroke:#000000;stroke-linejoin:miter;" x="593.019858" xlink:href="#md2a04a2b37" y="383.538483"/>
     <use style="stroke:#000000;stroke-linejoin:miter;" x="598.092585" xlink:href="#md2a04a2b37" y="383.726107"/>
     <use style="stroke:#000000;stroke-linejoin:miter;" x="603.165313" xlink:href="#md2a04a2b37" y="383.61066"/>
     <use style="stroke:#000000;stroke-linejoin:miter;" x="608.23804" xlink:href="#md2a04a2b37" y="383.189371"/>
     <use style="stroke:#000000;stroke-linejoin:miter;" x="613.310767" xlink:href="#md2a04a2b37" y="382.460045"/>
     <use style="stroke:#000000;stroke-linejoin:miter;" x="618.383494" xlink:href="#md2a04a2b37" y="381.421023"/>
     <use style="stroke:#000000;stroke-linejoin:miter;" x="623.456222" xlink:href="#md2a04a2b37" y="380.071305"/>
     <use style="stroke:#000000;stroke-linejoin:miter;" x="628.528949" xlink:href="#md2a04a2b37" y="378.4104"/>
     <use style="stroke:#000000;stroke-linejoin:miter;" x="633.601676" xlink:href="#md2a04a2b37" y="376.438433"/>
     <use style="stroke:#000000;stroke-linejoin:miter;" x="638.674403" xlink:href="#md2a04a2b37" y="374.156081"/>
     <use style="stroke:#000000;stroke-linejoin:miter;" x="643.747131" xlink:href="#md2a04a2b37" y="371.564553"/>
     <use style="stroke:#000000;stroke-linejoin:miter;" x="648.819858" xlink:href="#md2a04a2b37" y="368.665663"/>
     <use style="stroke:#000000;stroke-linejoin:miter;" x="653.892585" xlink:href="#md2a04a2b37" y="365.461691"/>
     <use style="stroke:#000000;stroke-linejoin:miter;" x="658.965312" xlink:href="#md2a04a2b37" y="361.95552"/>
     <use style="stroke:#000000;stroke-linejoin:miter;" x="664.03804" xlink:href="#md2a04a2b37" y="358.150498"/>
     <use style="stroke:#000000;stroke-linejoin:miter;" x="669.110767" xlink:href="#md2a04a2b37" y="354.050563"/>
     <use style="stroke:#000000;stroke-linejoin:miter;" x="674.183494" xlink:href="#md2a04a2b37" y="349.660035"/>
     <use style="stroke:#000000;stroke-linejoin:miter;" x="679.256222" xlink:href="#md2a04a2b37" y="344.983809"/>
     <use style="stroke:#000000;stroke-linejoin:miter;" x="684.328949" xlink:href="#md2a04a2b37" y="340.027187"/>
     <use style="stroke:#000000;stroke-linejoin:miter;" x="689.401676" xlink:href="#md2a04a2b37" y="334.795965"/>
     <use style="stroke:#000000;stroke-linejoin:miter;" x="694.474403" xlink:href="#md2a04a2b37" y="329.296362"/>
     <use style="stroke:#000000;stroke-linejoin:miter;" x="699.547131" xlink:href="#md2a04a2b37" y="323.534982"/>
     <use style="stroke:#000000;stroke-linejoin:miter;" x="704.619858" xlink:href="#md2a04a2b37" y="317.518862"/>
     <use style="stroke:#000000;stroke-linejoin:miter;" x="709.692585" xlink:href="#md2a04a2b37" y="311.255378"/>
     <use style="stroke:#000000;stroke-linejoin:miter;" x="714.765312" xlink:href="#md2a04a2b37" y="304.752281"/>
     <use style="stroke:#000000;stroke-linejoin:miter;" x="719.83804" xlink:href="#md2a04a2b37" y="298.017642"/>
     <use style="stroke:#000000;stroke-linejoin:miter;" x="724.910767" xlink:href="#md2a04a2b37" y="291.059838"/>
     <use style="stroke:#000000;stroke-linejoin:miter;" x="729.983494" xlink:href="#md2a04a2b37" y="283.887527"/>
     <use style="stroke:#000000;stroke-linejoin:miter;" x="735.056222" xlink:href="#md2a04a2b37" y="276.5096"/>
     <use style="stroke:#000000;stroke-linejoin:miter;" x="740.128949" xlink:href="#md2a04a2b37" y="268.935187"/>
     <use style="stroke:#000000;stroke-linejoin:miter;" x="745.201676" xlink:href="#md2a04a2b37" y="261.173629"/>
     <use style="stroke:#000000;stroke-linejoin:miter;" x="750.274403" xlink:href="#md2a04a2b37" y="253.234363"/>
     <use style="stroke:#000000;stroke-linejoin:miter;" x="755.347131" xlink:href="#md2a04a2b37" y="245.12704"/>
     <use style="stroke:#000000;stroke-linejoin:miter;" x="760.419858" xlink:href="#md2a04a2b37" y="236.861352"/>
     <use style="stroke:#000000;stroke-linejoin:miter;" x="765.492585" xlink:href="#md2a04a2b37" y="228.447062"/>
     <use style="stroke:#000000;stroke-linejoin:miter;" x="770.565312" xlink:href="#md2a04a2b37" y="219.893988"/>
     <use style="stroke:#000000;stroke-linejoin:miter;" x="775.63804" xlink:href="#md2a04a2b37" y="211.21192"/>
     <use style="stroke:#000000;stroke-linejoin:miter;" x="780.710767" xlink:href="#md2a04a2b37" y="202.410579"/>
     <use style="stroke:#000000;stroke-linejoin:miter;" x="785.783494" xlink:href="#md2a04a2b37" y="193.499629"/>
     <use style="stroke:#000000;stroke-linejoin:miter;" x="790.856222" xlink:href="#md2a04a2b37" y="184.488622"/>
     <use style="stroke:#000000;stroke-linejoin:miter;" x="795.928949" xlink:href="#md2a04a2b37" y="175.386897"/>
     <use style="stroke:#000000;stroke-linejoin:miter;" x="801.001676" xlink:href="#md2a04a2b37" y="166.20364"/>
     <use style="stroke:#000000;stroke-linejoin:miter;" x="806.074403" xlink:href="#md2a04a2b37" y="156.947742"/>
     <use style="stroke:#000000;stroke-linejoin:miter;" x="811.147131" xlink:href="#md2a04a2b37" y="147.627825"/>
     <use style="stroke:#000000;stroke-linejoin:miter;" x="816.219858" xlink:href="#md2a04a2b37" y="138.252077"/>
     <use style="stroke:#000000;stroke-linejoin:miter;" x="821.292585" xlink:href="#md2a04a2b37" y="128.828615"/>
     <use style="stroke:#000000;stroke-linejoin:miter;" x="826.365313" xlink:href="#md2a04a2b37" y="119.364583"/>
     <use style="stroke:#000000;stroke-linejoin:miter;" x="831.43804" xlink:href="#md2a04a2b37" y="109.867367"/>
     <use style="stroke:#000000;stroke-linejoin:miter;" x="836.510767" xlink:href="#md2a04a2b37" y="100.34282"/>
     <use style="stroke:#000000;stroke-linejoin:miter;" x="841.583494" xlink:href="#md2a04a2b37" y="90.797453"/>
     <use style="stroke:#000000;stroke-linejoin:miter;" x="846.656222" xlink:href="#md2a04a2b37" y="81.236051"/>
     <use style="stroke:#000000;stroke-linejoin:miter;" x="851.728949" xlink:href="#md2a04a2b37" y="71.663676"/>
     <use style="stroke:#000000;stroke-linejoin:miter;" x="856.801676" xlink:href="#md2a04a2b37" y="62.083705"/>
     <use style="stroke:#000000;stroke-linejoin:miter;" x="861.874403" xlink:href="#md2a04a2b37" y="52.499373"/>
     <use style="stroke:#000000;stroke-linejoin:miter;" x="866.947131" xlink:href="#md2a04a2b37" y="42.913072"/>
     <use style="stroke:#000000;stroke-linejoin:miter;" x="872.019858" xlink:href="#md2a04a2b37" y="33.326349"/>
    </g>
   </g>
   <g id="line2d_16">
    <path clip-path="url(#pf5e99d7ddc)" d="M 111.110767 422.312727 
L 116.183494 421.796746 
L 121.256222 420.298628 
L 126.328949 417.888287 
L 131.401676 414.635754 
L 136.474403 410.610843 
L 141.547131 405.882826 
L 146.619858 400.520188 
L 151.692585 394.590266 
L 156.765313 388.159178 
L 161.83804 381.29142 
L 166.910767 374.049845 
L 171.983494 366.495388 
L 182.128949 350.68127 
L 192.274403 334.293848 
L 207.492585 309.517675 
L 217.63804 293.391279 
L 227.783494 277.940733 
L 232.856222 270.553183 
L 237.928949 263.430832 
L 243.001676 256.600197 
L 248.074403 250.085714 
L 253.147131 243.909138 
L 258.219858 238.089958 
L 263.292585 232.645407 
L 268.365313 227.590448 
L 273.43804 222.937509 
L 278.510767 218.697458 
L 283.583494 214.878608 
L 288.656222 211.487589 
L 293.728949 208.529041 
L 298.801676 206.005639 
L 303.874403 203.918465 
L 308.947131 202.266956 
L 314.019858 201.048651 
L 319.092585 200.260146 
L 324.165313 199.89587 
L 329.23804 199.949578 
L 334.310767 200.413025 
L 339.383494 201.277534 
L 344.456222 202.53275 
L 349.528949 204.167449 
L 354.601676 206.169406 
L 359.674403 208.525553 
L 364.747131 211.221696 
L 369.819858 214.23758 
L 374.892585 217.552386 
L 379.965313 221.150892 
L 385.03804 225.017457 
L 390.110767 229.135552 
L 395.183494 233.488831 
L 400.256222 238.059921 
L 405.328949 242.831746 
L 410.401676 247.786554 
L 420.547131 258.173697 
L 430.692585 269.077024 
L 440.83804 280.351014 
L 461.128949 303.430496 
L 476.347131 320.644496 
L 486.492585 331.816641 
L 496.63804 342.592452 
L 506.783494 352.847095 
L 511.856222 357.741758 
L 516.928949 362.462357 
L 522.001676 366.99529 
L 527.074403 371.327409 
L 532.147131 375.446141 
L 537.219858 379.339377 
L 542.292585 382.995628 
L 547.365313 386.403922 
L 552.43804 389.553863 
L 557.510767 392.435661 
L 562.583494 395.040131 
L 567.656222 397.358691 
L 572.728949 399.383338 
L 577.801676 401.106785 
L 582.874403 402.522293 
L 587.947131 403.623829 
L 593.019858 404.405948 
L 598.092585 404.863895 
L 603.165313 404.993536 
L 608.23804 404.791437 
L 613.310767 404.254771 
L 618.383494 403.3814 
L 623.456222 402.165402 
L 628.528949 400.601545 
L 633.601676 398.689672 
L 638.674403 396.430249 
L 643.747131 393.824372 
L 648.819858 390.873815 
L 653.892585 387.580912 
L 658.965312 383.948687 
L 664.03804 379.980714 
L 669.110767 375.681185 
L 674.183494 371.054811 
L 679.256222 366.106939 
L 684.328949 360.84342 
L 689.401676 355.270598 
L 694.474403 349.395381 
L 699.547131 343.225124 
L 704.619858 336.767622 
L 709.692585 330.031176 
L 714.765312 323.024397 
L 719.83804 315.756354 
L 724.910767 308.236452 
L 729.983494 300.474392 
L 735.056222 292.4802 
L 745.201676 275.836739 
L 755.347131 258.39072 
L 765.492585 240.229274 
L 775.63804 221.440684 
L 785.783494 202.113163 
L 795.928949 182.333336 
L 811.147131 151.997295 
L 826.365313 121.092123 
L 851.728949 68.911138 
L 872.019858 26.967273 
L 872.019858 26.967273 
" style="fill:none;stroke:#0000ff;stroke-linecap:square;stroke-width:3;"/>
   </g>
   <g id="line2d_17">
    <path clip-path="url(#pf5e99d7ddc)" d="M 111.110767 422.312727 
L 116.183494 421.788642 
L 121.256222 420.267732 
L 126.328949 417.822455 
L 131.401676 414.525506 
L 136.474403 410.4494 
L 141.547131 405.666095 
L 146.619858 400.246643 
L 151.692585 394.260905 
L 156.765313 387.777221 
L 161.83804 380.862259 
L 166.910767 373.580661 
L 171.983494 365.995026 
L 182.128949 350.150149 
L 197.347131 325.527753 
L 207.492585 309.125338 
L 217.63804 293.141124 
L 222.710767 285.401198 
L 227.783494 277.87473 
L 232.856222 270.592243 
L 237.928949 263.581726 
L 243.001676 256.868149 
L 248.074403 250.474465 
L 253.147131 244.420663 
L 258.219858 238.724466 
L 263.292585 233.401335 
L 268.365313 228.464041 
L 273.43804 223.923785 
L 278.510767 219.788964 
L 283.583494 216.066388 
L 288.656222 212.760923 
L 293.728949 209.875242 
L 298.801676 207.410541 
L 303.874403 205.366398 
L 308.947131 203.74042 
L 314.019858 202.529093 
L 319.092585 201.727337 
L 324.165313 201.328779 
L 329.23804 201.325783 
L 334.310767 201.709429 
L 339.383494 202.469956 
L 344.456222 203.596572 
L 349.528949 205.077253 
L 354.601676 206.89966 
L 359.674403 209.050318 
L 364.747131 211.514893 
L 369.819858 214.276869 
L 374.892585 217.318988 
L 379.965313 220.62593 
L 385.03804 224.181616 
L 390.110767 227.969702 
L 395.183494 231.973714 
L 400.256222 236.176717 
L 405.328949 240.561492 
L 415.474403 249.807205 
L 425.619858 259.571495 
L 435.765312 269.714394 
L 450.983494 285.334686 
L 471.274403 306.20737 
L 481.419858 316.369555 
L 491.565313 326.183796 
L 501.710767 335.533591 
L 506.783494 339.999672 
L 511.856222 344.308948 
L 516.928949 348.448836 
L 522.001676 352.407185 
L 527.074403 356.172386 
L 532.147131 359.733274 
L 537.219858 363.079259 
L 542.292585 366.200273 
L 547.365313 369.086784 
L 552.43804 371.729769 
L 557.510767 374.120816 
L 562.583494 376.252075 
L 567.656222 378.116233 
L 572.728949 379.706593 
L 577.801676 381.016966 
L 582.874403 382.041837 
L 587.947131 382.776212 
L 593.019858 383.215718 
L 598.092585 383.356584 
L 603.165313 383.195603 
L 608.23804 382.730143 
L 613.310767 381.958195 
L 618.383494 380.878308 
L 623.456222 379.489161 
L 628.528949 377.78991 
L 633.601676 375.780863 
L 638.674403 373.462851 
L 643.747131 370.837225 
L 648.819858 367.905925 
L 653.892585 364.671399 
L 658.965312 361.136574 
L 664.03804 357.304951 
L 669.110767 353.180484 
L 674.183494 348.767604 
L 679.256222 344.071276 
L 684.328949 339.096831 
L 689.401676 333.850108 
L 694.474403 328.337343 
L 699.547131 322.565166 
L 704.619858 316.540597 
L 709.692585 310.271032 
L 714.765312 303.764194 
L 719.83804 297.028138 
L 724.910767 290.071189 
L 729.983494 282.901973 
L 740.128949 267.96235 
L 750.274403 252.282485 
L 760.419858 235.938072 
L 770.565312 219.006297 
L 780.710767 201.564667 
L 790.856222 183.689904 
L 801.001676 165.456688 
L 816.219858 137.589513 
L 836.510767 99.801245 
L 872.019858 33.005624 
L 872.019858 33.005624 
" style="fill:none;stroke:#ff0000;stroke-linecap:square;stroke-width:3;"/>
   </g>
   <g id="patch_3">
    <path d="M 73.065313 442.08 
L 73.065313 7.2 
" style="fill:none;stroke:#000000;stroke-linecap:square;stroke-linejoin:miter;stroke-width:0.8;"/>
   </g>
   <g id="patch_4">
    <path d="M 73.065313 442.08 
L 910.065313 442.08 
" style="fill:none;stroke:#000000;stroke-linecap:square;stroke-linejoin:miter;stroke-width:0.8;"/>
   </g>
  </g>
 </g>
 <defs>
  <clipPath id="pf5e99d7ddc">
   <rect height="434.88" width="837" x="73.065313" y="7.2"/>
  </clipPath>
 </defs>
</svg>
