<?xml version="1.0" encoding="utf-8" standalone="no"?>
<!DOCTYPE svg PUBLIC "-//W3C//DTD SVG 1.1//EN"
  "http://www.w3.org/Graphics/SVG/1.1/DTD/svg11.dtd">
<!-- Created with matplotlib (https://matplotlib.org/) -->
<svg height="518.278437pt" version="1.1" viewBox="0 0 927.320938 518.278437" width="927.320938pt" xmlns="http://www.w3.org/2000/svg" xmlns:xlink="http://www.w3.org/1999/xlink">
 <metadata>
  <rdf:RDF xmlns:cc="http://creativecommons.org/ns#" xmlns:dc="http://purl.org/dc/elements/1.1/" xmlns:rdf="http://www.w3.org/1999/02/22-rdf-syntax-ns#">
   <cc:Work>
    <dc:type rdf:resource="http://purl.org/dc/dcmitype/StillImage"/>
    <dc:date>2021-12-02T19:26:01.097119</dc:date>
    <dc:format>image/svg+xml</dc:format>
    <dc:creator>
     <cc:Agent>
      <dc:title>Matplotlib v3.3.4, https://matplotlib.org/</dc:title>
     </cc:Agent>
    </dc:creator>
   </cc:Work>
  </rdf:RDF>
 </metadata>
 <defs>
  <style type="text/css">*{stroke-linecap:butt;stroke-linejoin:round;}</style>
 </defs>
 <g id="figure_1">
  <g id="patch_1">
   <path d="M 0 518.278437 
L 927.320938 518.278437 
L 927.320938 0 
L 0 0 
z
" style="fill:#ffffff;"/>
  </g>
  <g id="axes_1">
   <g id="patch_2">
    <path d="M 83.120938 450.72 
L 920.120937 450.72 
L 920.120937 7.2 
L 83.120938 7.2 
z
" style="fill:#ffffff;"/>
   </g>
   <g id="matplotlib.axis_1">
    <g id="xtick_1">
     <g id="line2d_1">
      <defs>
       <path d="M 0 0 
L 0 3.5 
" id="mf461699a0d" style="stroke:#000000;stroke-width:0.8;"/>
      </defs>
      <g>
       <use style="stroke:#000000;stroke-width:0.8;" x="121.166392" xlink:href="#mf461699a0d" y="450.72"/>
      </g>
     </g>
     <g id="text_1">
      <!-- 0.0 -->
      <g transform="translate(101.287486 476.716094)scale(0.25 -0.25)">
       <defs>
        <path d="M 31.78125 66.40625 
Q 24.171875 66.40625 20.328125 58.90625 
Q 16.5 51.421875 16.5 36.375 
Q 16.5 21.390625 20.328125 13.890625 
Q 24.171875 6.390625 31.78125 6.390625 
Q 39.453125 6.390625 43.28125 13.890625 
Q 47.125 21.390625 47.125 36.375 
Q 47.125 51.421875 43.28125 58.90625 
Q 39.453125 66.40625 31.78125 66.40625 
z
M 31.78125 74.21875 
Q 44.046875 74.21875 50.515625 64.515625 
Q 56.984375 54.828125 56.984375 36.375 
Q 56.984375 17.96875 50.515625 8.265625 
Q 44.046875 -1.421875 31.78125 -1.421875 
Q 19.53125 -1.421875 13.0625 8.265625 
Q 6.59375 17.96875 6.59375 36.375 
Q 6.59375 54.828125 13.0625 64.515625 
Q 19.53125 74.21875 31.78125 74.21875 
z
" id="DejaVuSans-48"/>
        <path d="M 10.6875 12.40625 
L 21 12.40625 
L 21 0 
L 10.6875 0 
z
" id="DejaVuSans-46"/>
       </defs>
       <use xlink:href="#DejaVuSans-48"/>
       <use x="63.623047" xlink:href="#DejaVuSans-46"/>
       <use x="95.410156" xlink:href="#DejaVuSans-48"/>
      </g>
     </g>
    </g>
    <g id="xtick_2">
     <g id="line2d_2">
      <g>
       <use style="stroke:#000000;stroke-width:0.8;" x="222.620938" xlink:href="#mf461699a0d" y="450.72"/>
      </g>
     </g>
     <g id="text_2">
      <!-- 0.2 -->
      <g transform="translate(202.742031 476.716094)scale(0.25 -0.25)">
       <defs>
        <path d="M 19.1875 8.296875 
L 53.609375 8.296875 
L 53.609375 0 
L 7.328125 0 
L 7.328125 8.296875 
Q 12.9375 14.109375 22.625 23.890625 
Q 32.328125 33.6875 34.8125 36.53125 
Q 39.546875 41.84375 41.421875 45.53125 
Q 43.3125 49.21875 43.3125 52.78125 
Q 43.3125 58.59375 39.234375 62.25 
Q 35.15625 65.921875 28.609375 65.921875 
Q 23.96875 65.921875 18.8125 64.3125 
Q 13.671875 62.703125 7.8125 59.421875 
L 7.8125 69.390625 
Q 13.765625 71.78125 18.9375 73 
Q 24.125 74.21875 28.421875 74.21875 
Q 39.75 74.21875 46.484375 68.546875 
Q 53.21875 62.890625 53.21875 53.421875 
Q 53.21875 48.921875 51.53125 44.890625 
Q 49.859375 40.875 45.40625 35.40625 
Q 44.1875 33.984375 37.640625 27.21875 
Q 31.109375 20.453125 19.1875 8.296875 
z
" id="DejaVuSans-50"/>
       </defs>
       <use xlink:href="#DejaVuSans-48"/>
       <use x="63.623047" xlink:href="#DejaVuSans-46"/>
       <use x="95.410156" xlink:href="#DejaVuSans-50"/>
      </g>
     </g>
    </g>
    <g id="xtick_3">
     <g id="line2d_3">
      <g>
       <use style="stroke:#000000;stroke-width:0.8;" x="324.075483" xlink:href="#mf461699a0d" y="450.72"/>
      </g>
     </g>
     <g id="text_3">
      <!-- 0.4 -->
      <g transform="translate(304.196577 476.716094)scale(0.25 -0.25)">
       <defs>
        <path d="M 37.796875 64.3125 
L 12.890625 25.390625 
L 37.796875 25.390625 
z
M 35.203125 72.90625 
L 47.609375 72.90625 
L 47.609375 25.390625 
L 58.015625 25.390625 
L 58.015625 17.1875 
L 47.609375 17.1875 
L 47.609375 0 
L 37.796875 0 
L 37.796875 17.1875 
L 4.890625 17.1875 
L 4.890625 26.703125 
z
" id="DejaVuSans-52"/>
       </defs>
       <use xlink:href="#DejaVuSans-48"/>
       <use x="63.623047" xlink:href="#DejaVuSans-46"/>
       <use x="95.410156" xlink:href="#DejaVuSans-52"/>
      </g>
     </g>
    </g>
    <g id="xtick_4">
     <g id="line2d_4">
      <g>
       <use style="stroke:#000000;stroke-width:0.8;" x="425.530028" xlink:href="#mf461699a0d" y="450.72"/>
      </g>
     </g>
     <g id="text_4">
      <!-- 0.6 -->
      <g transform="translate(405.651122 476.716094)scale(0.25 -0.25)">
       <defs>
        <path d="M 33.015625 40.375 
Q 26.375 40.375 22.484375 35.828125 
Q 18.609375 31.296875 18.609375 23.390625 
Q 18.609375 15.53125 22.484375 10.953125 
Q 26.375 6.390625 33.015625 6.390625 
Q 39.65625 6.390625 43.53125 10.953125 
Q 47.40625 15.53125 47.40625 23.390625 
Q 47.40625 31.296875 43.53125 35.828125 
Q 39.65625 40.375 33.015625 40.375 
z
M 52.59375 71.296875 
L 52.59375 62.3125 
Q 48.875 64.0625 45.09375 64.984375 
Q 41.3125 65.921875 37.59375 65.921875 
Q 27.828125 65.921875 22.671875 59.328125 
Q 17.53125 52.734375 16.796875 39.40625 
Q 19.671875 43.65625 24.015625 45.921875 
Q 28.375 48.1875 33.59375 48.1875 
Q 44.578125 48.1875 50.953125 41.515625 
Q 57.328125 34.859375 57.328125 23.390625 
Q 57.328125 12.15625 50.6875 5.359375 
Q 44.046875 -1.421875 33.015625 -1.421875 
Q 20.359375 -1.421875 13.671875 8.265625 
Q 6.984375 17.96875 6.984375 36.375 
Q 6.984375 53.65625 15.1875 63.9375 
Q 23.390625 74.21875 37.203125 74.21875 
Q 40.921875 74.21875 44.703125 73.484375 
Q 48.484375 72.75 52.59375 71.296875 
z
" id="DejaVuSans-54"/>
       </defs>
       <use xlink:href="#DejaVuSans-48"/>
       <use x="63.623047" xlink:href="#DejaVuSans-46"/>
       <use x="95.410156" xlink:href="#DejaVuSans-54"/>
      </g>
     </g>
    </g>
    <g id="xtick_5">
     <g id="line2d_5">
      <g>
       <use style="stroke:#000000;stroke-width:0.8;" x="526.984574" xlink:href="#mf461699a0d" y="450.72"/>
      </g>
     </g>
     <g id="text_5">
      <!-- 0.8 -->
      <g transform="translate(507.105668 476.716094)scale(0.25 -0.25)">
       <defs>
        <path d="M 31.78125 34.625 
Q 24.75 34.625 20.71875 30.859375 
Q 16.703125 27.09375 16.703125 20.515625 
Q 16.703125 13.921875 20.71875 10.15625 
Q 24.75 6.390625 31.78125 6.390625 
Q 38.8125 6.390625 42.859375 10.171875 
Q 46.921875 13.96875 46.921875 20.515625 
Q 46.921875 27.09375 42.890625 30.859375 
Q 38.875 34.625 31.78125 34.625 
z
M 21.921875 38.8125 
Q 15.578125 40.375 12.03125 44.71875 
Q 8.5 49.078125 8.5 55.328125 
Q 8.5 64.0625 14.71875 69.140625 
Q 20.953125 74.21875 31.78125 74.21875 
Q 42.671875 74.21875 48.875 69.140625 
Q 55.078125 64.0625 55.078125 55.328125 
Q 55.078125 49.078125 51.53125 44.71875 
Q 48 40.375 41.703125 38.8125 
Q 48.828125 37.15625 52.796875 32.3125 
Q 56.78125 27.484375 56.78125 20.515625 
Q 56.78125 9.90625 50.3125 4.234375 
Q 43.84375 -1.421875 31.78125 -1.421875 
Q 19.734375 -1.421875 13.25 4.234375 
Q 6.78125 9.90625 6.78125 20.515625 
Q 6.78125 27.484375 10.78125 32.3125 
Q 14.796875 37.15625 21.921875 38.8125 
z
M 18.3125 54.390625 
Q 18.3125 48.734375 21.84375 45.5625 
Q 25.390625 42.390625 31.78125 42.390625 
Q 38.140625 42.390625 41.71875 45.5625 
Q 45.3125 48.734375 45.3125 54.390625 
Q 45.3125 60.0625 41.71875 63.234375 
Q 38.140625 66.40625 31.78125 66.40625 
Q 25.390625 66.40625 21.84375 63.234375 
Q 18.3125 60.0625 18.3125 54.390625 
z
" id="DejaVuSans-56"/>
       </defs>
       <use xlink:href="#DejaVuSans-48"/>
       <use x="63.623047" xlink:href="#DejaVuSans-46"/>
       <use x="95.410156" xlink:href="#DejaVuSans-56"/>
      </g>
     </g>
    </g>
    <g id="xtick_6">
     <g id="line2d_6">
      <g>
       <use style="stroke:#000000;stroke-width:0.8;" x="628.439119" xlink:href="#mf461699a0d" y="450.72"/>
      </g>
     </g>
     <g id="text_6">
      <!-- 1.0 -->
      <g transform="translate(608.560213 476.716094)scale(0.25 -0.25)">
       <defs>
        <path d="M 12.40625 8.296875 
L 28.515625 8.296875 
L 28.515625 63.921875 
L 10.984375 60.40625 
L 10.984375 69.390625 
L 28.421875 72.90625 
L 38.28125 72.90625 
L 38.28125 8.296875 
L 54.390625 8.296875 
L 54.390625 0 
L 12.40625 0 
z
" id="DejaVuSans-49"/>
       </defs>
       <use xlink:href="#DejaVuSans-49"/>
       <use x="63.623047" xlink:href="#DejaVuSans-46"/>
       <use x="95.410156" xlink:href="#DejaVuSans-48"/>
      </g>
     </g>
    </g>
    <g id="xtick_7">
     <g id="line2d_7">
      <g>
       <use style="stroke:#000000;stroke-width:0.8;" x="729.893665" xlink:href="#mf461699a0d" y="450.72"/>
      </g>
     </g>
     <g id="text_7">
      <!-- 1.2 -->
      <g transform="translate(710.014759 476.716094)scale(0.25 -0.25)">
       <use xlink:href="#DejaVuSans-49"/>
       <use x="63.623047" xlink:href="#DejaVuSans-46"/>
       <use x="95.410156" xlink:href="#DejaVuSans-50"/>
      </g>
     </g>
    </g>
    <g id="xtick_8">
     <g id="line2d_8">
      <g>
       <use style="stroke:#000000;stroke-width:0.8;" x="831.34821" xlink:href="#mf461699a0d" y="450.72"/>
      </g>
     </g>
     <g id="text_8">
      <!-- 1.4 -->
      <g transform="translate(811.469304 476.716094)scale(0.25 -0.25)">
       <use xlink:href="#DejaVuSans-49"/>
       <use x="63.623047" xlink:href="#DejaVuSans-46"/>
       <use x="95.410156" xlink:href="#DejaVuSans-52"/>
      </g>
     </g>
    </g>
    <g id="text_9">
     <!-- Beam Length [m] -->
     <g transform="translate(388.161406 505.67125)scale(0.26 -0.26)">
      <defs>
       <path d="M 19.671875 34.8125 
L 19.671875 8.109375 
L 35.5 8.109375 
Q 43.453125 8.109375 47.28125 11.40625 
Q 51.125 14.703125 51.125 21.484375 
Q 51.125 28.328125 47.28125 31.5625 
Q 43.453125 34.8125 35.5 34.8125 
z
M 19.671875 64.796875 
L 19.671875 42.828125 
L 34.28125 42.828125 
Q 41.5 42.828125 45.03125 45.53125 
Q 48.578125 48.25 48.578125 53.8125 
Q 48.578125 59.328125 45.03125 62.0625 
Q 41.5 64.796875 34.28125 64.796875 
z
M 9.8125 72.90625 
L 35.015625 72.90625 
Q 46.296875 72.90625 52.390625 68.21875 
Q 58.5 63.53125 58.5 54.890625 
Q 58.5 48.1875 55.375 44.234375 
Q 52.25 40.28125 46.1875 39.3125 
Q 53.46875 37.75 57.5 32.78125 
Q 61.53125 27.828125 61.53125 20.40625 
Q 61.53125 10.640625 54.890625 5.3125 
Q 48.25 0 35.984375 0 
L 9.8125 0 
z
" id="DejaVuSans-66"/>
       <path d="M 56.203125 29.59375 
L 56.203125 25.203125 
L 14.890625 25.203125 
Q 15.484375 15.921875 20.484375 11.0625 
Q 25.484375 6.203125 34.421875 6.203125 
Q 39.59375 6.203125 44.453125 7.46875 
Q 49.3125 8.734375 54.109375 11.28125 
L 54.109375 2.78125 
Q 49.265625 0.734375 44.1875 -0.34375 
Q 39.109375 -1.421875 33.890625 -1.421875 
Q 20.796875 -1.421875 13.15625 6.1875 
Q 5.515625 13.8125 5.515625 26.8125 
Q 5.515625 40.234375 12.765625 48.109375 
Q 20.015625 56 32.328125 56 
Q 43.359375 56 49.78125 48.890625 
Q 56.203125 41.796875 56.203125 29.59375 
z
M 47.21875 32.234375 
Q 47.125 39.59375 43.09375 43.984375 
Q 39.0625 48.390625 32.421875 48.390625 
Q 24.90625 48.390625 20.390625 44.140625 
Q 15.875 39.890625 15.1875 32.171875 
z
" id="DejaVuSans-101"/>
       <path d="M 34.28125 27.484375 
Q 23.390625 27.484375 19.1875 25 
Q 14.984375 22.515625 14.984375 16.5 
Q 14.984375 11.71875 18.140625 8.90625 
Q 21.296875 6.109375 26.703125 6.109375 
Q 34.1875 6.109375 38.703125 11.40625 
Q 43.21875 16.703125 43.21875 25.484375 
L 43.21875 27.484375 
z
M 52.203125 31.203125 
L 52.203125 0 
L 43.21875 0 
L 43.21875 8.296875 
Q 40.140625 3.328125 35.546875 0.953125 
Q 30.953125 -1.421875 24.3125 -1.421875 
Q 15.921875 -1.421875 10.953125 3.296875 
Q 6 8.015625 6 15.921875 
Q 6 25.140625 12.171875 29.828125 
Q 18.359375 34.515625 30.609375 34.515625 
L 43.21875 34.515625 
L 43.21875 35.40625 
Q 43.21875 41.609375 39.140625 45 
Q 35.0625 48.390625 27.6875 48.390625 
Q 23 48.390625 18.546875 47.265625 
Q 14.109375 46.140625 10.015625 43.890625 
L 10.015625 52.203125 
Q 14.9375 54.109375 19.578125 55.046875 
Q 24.21875 56 28.609375 56 
Q 40.484375 56 46.34375 49.84375 
Q 52.203125 43.703125 52.203125 31.203125 
z
" id="DejaVuSans-97"/>
       <path d="M 52 44.1875 
Q 55.375 50.25 60.0625 53.125 
Q 64.75 56 71.09375 56 
Q 79.640625 56 84.28125 50.015625 
Q 88.921875 44.046875 88.921875 33.015625 
L 88.921875 0 
L 79.890625 0 
L 79.890625 32.71875 
Q 79.890625 40.578125 77.09375 44.375 
Q 74.3125 48.1875 68.609375 48.1875 
Q 61.625 48.1875 57.5625 43.546875 
Q 53.515625 38.921875 53.515625 30.90625 
L 53.515625 0 
L 44.484375 0 
L 44.484375 32.71875 
Q 44.484375 40.625 41.703125 44.40625 
Q 38.921875 48.1875 33.109375 48.1875 
Q 26.21875 48.1875 22.15625 43.53125 
Q 18.109375 38.875 18.109375 30.90625 
L 18.109375 0 
L 9.078125 0 
L 9.078125 54.6875 
L 18.109375 54.6875 
L 18.109375 46.1875 
Q 21.1875 51.21875 25.484375 53.609375 
Q 29.78125 56 35.6875 56 
Q 41.65625 56 45.828125 52.96875 
Q 50 49.953125 52 44.1875 
z
" id="DejaVuSans-109"/>
       <path id="DejaVuSans-32"/>
       <path d="M 9.8125 72.90625 
L 19.671875 72.90625 
L 19.671875 8.296875 
L 55.171875 8.296875 
L 55.171875 0 
L 9.8125 0 
z
" id="DejaVuSans-76"/>
       <path d="M 54.890625 33.015625 
L 54.890625 0 
L 45.90625 0 
L 45.90625 32.71875 
Q 45.90625 40.484375 42.875 44.328125 
Q 39.84375 48.1875 33.796875 48.1875 
Q 26.515625 48.1875 22.3125 43.546875 
Q 18.109375 38.921875 18.109375 30.90625 
L 18.109375 0 
L 9.078125 0 
L 9.078125 54.6875 
L 18.109375 54.6875 
L 18.109375 46.1875 
Q 21.34375 51.125 25.703125 53.5625 
Q 30.078125 56 35.796875 56 
Q 45.21875 56 50.046875 50.171875 
Q 54.890625 44.34375 54.890625 33.015625 
z
" id="DejaVuSans-110"/>
       <path d="M 45.40625 27.984375 
Q 45.40625 37.75 41.375 43.109375 
Q 37.359375 48.484375 30.078125 48.484375 
Q 22.859375 48.484375 18.828125 43.109375 
Q 14.796875 37.75 14.796875 27.984375 
Q 14.796875 18.265625 18.828125 12.890625 
Q 22.859375 7.515625 30.078125 7.515625 
Q 37.359375 7.515625 41.375 12.890625 
Q 45.40625 18.265625 45.40625 27.984375 
z
M 54.390625 6.78125 
Q 54.390625 -7.171875 48.1875 -13.984375 
Q 42 -20.796875 29.203125 -20.796875 
Q 24.46875 -20.796875 20.265625 -20.09375 
Q 16.0625 -19.390625 12.109375 -17.921875 
L 12.109375 -9.1875 
Q 16.0625 -11.328125 19.921875 -12.34375 
Q 23.78125 -13.375 27.78125 -13.375 
Q 36.625 -13.375 41.015625 -8.765625 
Q 45.40625 -4.15625 45.40625 5.171875 
L 45.40625 9.625 
Q 42.625 4.78125 38.28125 2.390625 
Q 33.9375 0 27.875 0 
Q 17.828125 0 11.671875 7.65625 
Q 5.515625 15.328125 5.515625 27.984375 
Q 5.515625 40.671875 11.671875 48.328125 
Q 17.828125 56 27.875 56 
Q 33.9375 56 38.28125 53.609375 
Q 42.625 51.21875 45.40625 46.390625 
L 45.40625 54.6875 
L 54.390625 54.6875 
z
" id="DejaVuSans-103"/>
       <path d="M 18.3125 70.21875 
L 18.3125 54.6875 
L 36.8125 54.6875 
L 36.8125 47.703125 
L 18.3125 47.703125 
L 18.3125 18.015625 
Q 18.3125 11.328125 20.140625 9.421875 
Q 21.96875 7.515625 27.59375 7.515625 
L 36.8125 7.515625 
L 36.8125 0 
L 27.59375 0 
Q 17.1875 0 13.234375 3.875 
Q 9.28125 7.765625 9.28125 18.015625 
L 9.28125 47.703125 
L 2.6875 47.703125 
L 2.6875 54.6875 
L 9.28125 54.6875 
L 9.28125 70.21875 
z
" id="DejaVuSans-116"/>
       <path d="M 54.890625 33.015625 
L 54.890625 0 
L 45.90625 0 
L 45.90625 32.71875 
Q 45.90625 40.484375 42.875 44.328125 
Q 39.84375 48.1875 33.796875 48.1875 
Q 26.515625 48.1875 22.3125 43.546875 
Q 18.109375 38.921875 18.109375 30.90625 
L 18.109375 0 
L 9.078125 0 
L 9.078125 75.984375 
L 18.109375 75.984375 
L 18.109375 46.1875 
Q 21.34375 51.125 25.703125 53.5625 
Q 30.078125 56 35.796875 56 
Q 45.21875 56 50.046875 50.171875 
Q 54.890625 44.34375 54.890625 33.015625 
z
" id="DejaVuSans-104"/>
       <path d="M 8.59375 75.984375 
L 29.296875 75.984375 
L 29.296875 69 
L 17.578125 69 
L 17.578125 -6.203125 
L 29.296875 -6.203125 
L 29.296875 -13.1875 
L 8.59375 -13.1875 
z
" id="DejaVuSans-91"/>
       <path d="M 30.421875 75.984375 
L 30.421875 -13.1875 
L 9.71875 -13.1875 
L 9.71875 -6.203125 
L 21.390625 -6.203125 
L 21.390625 69 
L 9.71875 69 
L 9.71875 75.984375 
z
" id="DejaVuSans-93"/>
      </defs>
      <use xlink:href="#DejaVuSans-66"/>
      <use x="68.603516" xlink:href="#DejaVuSans-101"/>
      <use x="130.126953" xlink:href="#DejaVuSans-97"/>
      <use x="191.40625" xlink:href="#DejaVuSans-109"/>
      <use x="288.818359" xlink:href="#DejaVuSans-32"/>
      <use x="320.605469" xlink:href="#DejaVuSans-76"/>
      <use x="374.568359" xlink:href="#DejaVuSans-101"/>
      <use x="436.091797" xlink:href="#DejaVuSans-110"/>
      <use x="499.470703" xlink:href="#DejaVuSans-103"/>
      <use x="562.947266" xlink:href="#DejaVuSans-116"/>
      <use x="602.15625" xlink:href="#DejaVuSans-104"/>
      <use x="665.535156" xlink:href="#DejaVuSans-32"/>
      <use x="697.322266" xlink:href="#DejaVuSans-91"/>
      <use x="736.335938" xlink:href="#DejaVuSans-109"/>
      <use x="833.748047" xlink:href="#DejaVuSans-93"/>
     </g>
    </g>
   </g>
   <g id="matplotlib.axis_2">
    <g id="ytick_1">
     <g id="line2d_9">
      <defs>
       <path d="M 0 0 
L -3.5 0 
" id="m7ca1e2cd1c" style="stroke:#000000;stroke-width:0.8;"/>
      </defs>
      <g>
       <use style="stroke:#000000;stroke-width:0.8;" x="83.120938" xlink:href="#m7ca1e2cd1c" y="430.56"/>
      </g>
     </g>
     <g id="text_10">
      <!-- 0.0 -->
      <g transform="translate(36.363125 440.058047)scale(0.25 -0.25)">
       <use xlink:href="#DejaVuSans-48"/>
       <use x="63.623047" xlink:href="#DejaVuSans-46"/>
       <use x="95.410156" xlink:href="#DejaVuSans-48"/>
      </g>
     </g>
    </g>
    <g id="ytick_2">
     <g id="line2d_10">
      <g>
       <use style="stroke:#000000;stroke-width:0.8;" x="83.120938" xlink:href="#m7ca1e2cd1c" y="358.8282"/>
      </g>
     </g>
     <g id="text_11">
      <!-- 0.5 -->
      <g transform="translate(36.363125 368.326247)scale(0.25 -0.25)">
       <defs>
        <path d="M 10.796875 72.90625 
L 49.515625 72.90625 
L 49.515625 64.59375 
L 19.828125 64.59375 
L 19.828125 46.734375 
Q 21.96875 47.46875 24.109375 47.828125 
Q 26.265625 48.1875 28.421875 48.1875 
Q 40.625 48.1875 47.75 41.5 
Q 54.890625 34.8125 54.890625 23.390625 
Q 54.890625 11.625 47.5625 5.09375 
Q 40.234375 -1.421875 26.90625 -1.421875 
Q 22.3125 -1.421875 17.546875 -0.640625 
Q 12.796875 0.140625 7.71875 1.703125 
L 7.71875 11.625 
Q 12.109375 9.234375 16.796875 8.0625 
Q 21.484375 6.890625 26.703125 6.890625 
Q 35.15625 6.890625 40.078125 11.328125 
Q 45.015625 15.765625 45.015625 23.390625 
Q 45.015625 31 40.078125 35.4375 
Q 35.15625 39.890625 26.703125 39.890625 
Q 22.75 39.890625 18.8125 39.015625 
Q 14.890625 38.140625 10.796875 36.28125 
z
" id="DejaVuSans-53"/>
       </defs>
       <use xlink:href="#DejaVuSans-48"/>
       <use x="63.623047" xlink:href="#DejaVuSans-46"/>
       <use x="95.410156" xlink:href="#DejaVuSans-53"/>
      </g>
     </g>
    </g>
    <g id="ytick_3">
     <g id="line2d_11">
      <g>
       <use style="stroke:#000000;stroke-width:0.8;" x="83.120938" xlink:href="#m7ca1e2cd1c" y="287.0964"/>
      </g>
     </g>
     <g id="text_12">
      <!-- 1.0 -->
      <g transform="translate(36.363125 296.594447)scale(0.25 -0.25)">
       <use xlink:href="#DejaVuSans-49"/>
       <use x="63.623047" xlink:href="#DejaVuSans-46"/>
       <use x="95.410156" xlink:href="#DejaVuSans-48"/>
      </g>
     </g>
    </g>
    <g id="ytick_4">
     <g id="line2d_12">
      <g>
       <use style="stroke:#000000;stroke-width:0.8;" x="83.120938" xlink:href="#m7ca1e2cd1c" y="215.3646"/>
      </g>
     </g>
     <g id="text_13">
      <!-- 1.5 -->
      <g transform="translate(36.363125 224.862647)scale(0.25 -0.25)">
       <use xlink:href="#DejaVuSans-49"/>
       <use x="63.623047" xlink:href="#DejaVuSans-46"/>
       <use x="95.410156" xlink:href="#DejaVuSans-53"/>
      </g>
     </g>
    </g>
    <g id="ytick_5">
     <g id="line2d_13">
      <g>
       <use style="stroke:#000000;stroke-width:0.8;" x="83.120938" xlink:href="#m7ca1e2cd1c" y="143.6328"/>
      </g>
     </g>
     <g id="text_14">
      <!-- 2.0 -->
      <g transform="translate(36.363125 153.130847)scale(0.25 -0.25)">
       <use xlink:href="#DejaVuSans-50"/>
       <use x="63.623047" xlink:href="#DejaVuSans-46"/>
       <use x="95.410156" xlink:href="#DejaVuSans-48"/>
      </g>
     </g>
    </g>
    <g id="ytick_6">
     <g id="line2d_14">
      <g>
       <use style="stroke:#000000;stroke-width:0.8;" x="83.120938" xlink:href="#m7ca1e2cd1c" y="71.901"/>
      </g>
     </g>
     <g id="text_15">
      <!-- 2.5 -->
      <g transform="translate(36.363125 81.399047)scale(0.25 -0.25)">
       <use xlink:href="#DejaVuSans-50"/>
       <use x="63.623047" xlink:href="#DejaVuSans-46"/>
       <use x="95.410156" xlink:href="#DejaVuSans-53"/>
      </g>
     </g>
    </g>
    <g id="text_16">
     <!-- Amplitude -->
     <g transform="translate(26.955938 295.578906)rotate(-90)scale(0.26 -0.26)">
      <defs>
       <path d="M 34.1875 63.1875 
L 20.796875 26.90625 
L 47.609375 26.90625 
z
M 28.609375 72.90625 
L 39.796875 72.90625 
L 67.578125 0 
L 57.328125 0 
L 50.6875 18.703125 
L 17.828125 18.703125 
L 11.1875 0 
L 0.78125 0 
z
" id="DejaVuSans-65"/>
       <path d="M 18.109375 8.203125 
L 18.109375 -20.796875 
L 9.078125 -20.796875 
L 9.078125 54.6875 
L 18.109375 54.6875 
L 18.109375 46.390625 
Q 20.953125 51.265625 25.265625 53.625 
Q 29.59375 56 35.59375 56 
Q 45.5625 56 51.78125 48.09375 
Q 58.015625 40.1875 58.015625 27.296875 
Q 58.015625 14.40625 51.78125 6.484375 
Q 45.5625 -1.421875 35.59375 -1.421875 
Q 29.59375 -1.421875 25.265625 0.953125 
Q 20.953125 3.328125 18.109375 8.203125 
z
M 48.6875 27.296875 
Q 48.6875 37.203125 44.609375 42.84375 
Q 40.53125 48.484375 33.40625 48.484375 
Q 26.265625 48.484375 22.1875 42.84375 
Q 18.109375 37.203125 18.109375 27.296875 
Q 18.109375 17.390625 22.1875 11.75 
Q 26.265625 6.109375 33.40625 6.109375 
Q 40.53125 6.109375 44.609375 11.75 
Q 48.6875 17.390625 48.6875 27.296875 
z
" id="DejaVuSans-112"/>
       <path d="M 9.421875 75.984375 
L 18.40625 75.984375 
L 18.40625 0 
L 9.421875 0 
z
" id="DejaVuSans-108"/>
       <path d="M 9.421875 54.6875 
L 18.40625 54.6875 
L 18.40625 0 
L 9.421875 0 
z
M 9.421875 75.984375 
L 18.40625 75.984375 
L 18.40625 64.59375 
L 9.421875 64.59375 
z
" id="DejaVuSans-105"/>
       <path d="M 8.5 21.578125 
L 8.5 54.6875 
L 17.484375 54.6875 
L 17.484375 21.921875 
Q 17.484375 14.15625 20.5 10.265625 
Q 23.53125 6.390625 29.59375 6.390625 
Q 36.859375 6.390625 41.078125 11.03125 
Q 45.3125 15.671875 45.3125 23.6875 
L 45.3125 54.6875 
L 54.296875 54.6875 
L 54.296875 0 
L 45.3125 0 
L 45.3125 8.40625 
Q 42.046875 3.421875 37.71875 1 
Q 33.40625 -1.421875 27.6875 -1.421875 
Q 18.265625 -1.421875 13.375 4.4375 
Q 8.5 10.296875 8.5 21.578125 
z
M 31.109375 56 
z
" id="DejaVuSans-117"/>
       <path d="M 45.40625 46.390625 
L 45.40625 75.984375 
L 54.390625 75.984375 
L 54.390625 0 
L 45.40625 0 
L 45.40625 8.203125 
Q 42.578125 3.328125 38.25 0.953125 
Q 33.9375 -1.421875 27.875 -1.421875 
Q 17.96875 -1.421875 11.734375 6.484375 
Q 5.515625 14.40625 5.515625 27.296875 
Q 5.515625 40.1875 11.734375 48.09375 
Q 17.96875 56 27.875 56 
Q 33.9375 56 38.25 53.625 
Q 42.578125 51.265625 45.40625 46.390625 
z
M 14.796875 27.296875 
Q 14.796875 17.390625 18.875 11.75 
Q 22.953125 6.109375 30.078125 6.109375 
Q 37.203125 6.109375 41.296875 11.75 
Q 45.40625 17.390625 45.40625 27.296875 
Q 45.40625 37.203125 41.296875 42.84375 
Q 37.203125 48.484375 30.078125 48.484375 
Q 22.953125 48.484375 18.875 42.84375 
Q 14.796875 37.203125 14.796875 27.296875 
z
" id="DejaVuSans-100"/>
      </defs>
      <use xlink:href="#DejaVuSans-65"/>
      <use x="68.408203" xlink:href="#DejaVuSans-109"/>
      <use x="165.820312" xlink:href="#DejaVuSans-112"/>
      <use x="229.296875" xlink:href="#DejaVuSans-108"/>
      <use x="257.080078" xlink:href="#DejaVuSans-105"/>
      <use x="284.863281" xlink:href="#DejaVuSans-116"/>
      <use x="324.072266" xlink:href="#DejaVuSans-117"/>
      <use x="387.451172" xlink:href="#DejaVuSans-100"/>
      <use x="450.927734" xlink:href="#DejaVuSans-101"/>
     </g>
    </g>
   </g>
   <g id="line2d_15">
    <defs>
     <path d="M 0 -3 
L -3 3 
L 3 3 
z
" id="mfdd7bf9a54" style="stroke:#000000;stroke-linejoin:miter;"/>
    </defs>
    <g clip-path="url(#pea444b68f2)">
     <use style="stroke:#000000;stroke-linejoin:miter;" x="121.166392" xlink:href="#mfdd7bf9a54" y="430.56"/>
     <use style="stroke:#000000;stroke-linejoin:miter;" x="126.239119" xlink:href="#mfdd7bf9a54" y="430.028336"/>
     <use style="stroke:#000000;stroke-linejoin:miter;" x="131.311847" xlink:href="#mfdd7bf9a54" y="428.48523"/>
     <use style="stroke:#000000;stroke-linejoin:miter;" x="136.384574" xlink:href="#mfdd7bf9a54" y="426.003957"/>
     <use style="stroke:#000000;stroke-linejoin:miter;" x="141.457301" xlink:href="#mfdd7bf9a54" y="422.658037"/>
     <use style="stroke:#000000;stroke-linejoin:miter;" x="146.530028" xlink:href="#mfdd7bf9a54" y="418.520811"/>
     <use style="stroke:#000000;stroke-linejoin:miter;" x="151.602756" xlink:href="#mfdd7bf9a54" y="413.665056"/>
     <use style="stroke:#000000;stroke-linejoin:miter;" x="156.675483" xlink:href="#mfdd7bf9a54" y="408.162663"/>
     <use style="stroke:#000000;stroke-linejoin:miter;" x="161.74821" xlink:href="#mfdd7bf9a54" y="402.084301"/>
     <use style="stroke:#000000;stroke-linejoin:miter;" x="166.820938" xlink:href="#mfdd7bf9a54" y="395.499132"/>
     <use style="stroke:#000000;stroke-linejoin:miter;" x="171.893665" xlink:href="#mfdd7bf9a54" y="388.474601"/>
     <use style="stroke:#000000;stroke-linejoin:miter;" x="176.966392" xlink:href="#mfdd7bf9a54" y="381.076187"/>
     <use style="stroke:#000000;stroke-linejoin:miter;" x="182.039119" xlink:href="#mfdd7bf9a54" y="373.367209"/>
     <use style="stroke:#000000;stroke-linejoin:miter;" x="187.111847" xlink:href="#mfdd7bf9a54" y="365.408692"/>
     <use style="stroke:#000000;stroke-linejoin:miter;" x="192.184574" xlink:href="#mfdd7bf9a54" y="357.259226"/>
     <use style="stroke:#000000;stroke-linejoin:miter;" x="197.257301" xlink:href="#mfdd7bf9a54" y="348.97483"/>
     <use style="stroke:#000000;stroke-linejoin:miter;" x="202.330028" xlink:href="#mfdd7bf9a54" y="340.608887"/>
     <use style="stroke:#000000;stroke-linejoin:miter;" x="207.402756" xlink:href="#mfdd7bf9a54" y="332.212031"/>
     <use style="stroke:#000000;stroke-linejoin:miter;" x="212.475483" xlink:href="#mfdd7bf9a54" y="323.832176"/>
     <use style="stroke:#000000;stroke-linejoin:miter;" x="217.54821" xlink:href="#mfdd7bf9a54" y="315.51441"/>
     <use style="stroke:#000000;stroke-linejoin:miter;" x="222.620937" xlink:href="#mfdd7bf9a54" y="307.301002"/>
     <use style="stroke:#000000;stroke-linejoin:miter;" x="227.693665" xlink:href="#mfdd7bf9a54" y="299.231394"/>
     <use style="stroke:#000000;stroke-linejoin:miter;" x="232.766392" xlink:href="#mfdd7bf9a54" y="291.342248"/>
     <use style="stroke:#000000;stroke-linejoin:miter;" x="237.839119" xlink:href="#mfdd7bf9a54" y="283.667386"/>
     <use style="stroke:#000000;stroke-linejoin:miter;" x="242.911847" xlink:href="#mfdd7bf9a54" y="276.237977"/>
     <use style="stroke:#000000;stroke-linejoin:miter;" x="247.984574" xlink:href="#mfdd7bf9a54" y="269.082208"/>
     <use style="stroke:#000000;stroke-linejoin:miter;" x="253.057301" xlink:href="#mfdd7bf9a54" y="262.226012"/>
     <use style="stroke:#000000;stroke-linejoin:miter;" x="258.130028" xlink:href="#mfdd7bf9a54" y="255.692514"/>
     <use style="stroke:#000000;stroke-linejoin:miter;" x="263.202756" xlink:href="#mfdd7bf9a54" y="249.502094"/>
     <use style="stroke:#000000;stroke-linejoin:miter;" x="268.275483" xlink:href="#mfdd7bf9a54" y="243.673113"/>
     <use style="stroke:#000000;stroke-linejoin:miter;" x="273.34821" xlink:href="#mfdd7bf9a54" y="238.221049"/>
     <use style="stroke:#000000;stroke-linejoin:miter;" x="278.420938" xlink:href="#mfdd7bf9a54" y="233.159495"/>
     <use style="stroke:#000000;stroke-linejoin:miter;" x="283.493665" xlink:href="#mfdd7bf9a54" y="228.499467"/>
     <use style="stroke:#000000;stroke-linejoin:miter;" x="288.566392" xlink:href="#mfdd7bf9a54" y="224.250061"/>
     <use style="stroke:#000000;stroke-linejoin:miter;" x="293.639119" xlink:href="#mfdd7bf9a54" y="220.418407"/>
     <use style="stroke:#000000;stroke-linejoin:miter;" x="298.711847" xlink:href="#mfdd7bf9a54" y="217.009267"/>
     <use style="stroke:#000000;stroke-linejoin:miter;" x="303.784574" xlink:href="#mfdd7bf9a54" y="214.02587"/>
     <use style="stroke:#000000;stroke-linejoin:miter;" x="308.857301" xlink:href="#mfdd7bf9a54" y="211.469506"/>
     <use style="stroke:#000000;stroke-linejoin:miter;" x="313.930028" xlink:href="#mfdd7bf9a54" y="209.339789"/>
     <use style="stroke:#000000;stroke-linejoin:miter;" x="319.002756" xlink:href="#mfdd7bf9a54" y="207.634839"/>
     <use style="stroke:#000000;stroke-linejoin:miter;" x="324.075483" xlink:href="#mfdd7bf9a54" y="206.350926"/>
     <use style="stroke:#000000;stroke-linejoin:miter;" x="329.14821" xlink:href="#mfdd7bf9a54" y="205.483287"/>
     <use style="stroke:#000000;stroke-linejoin:miter;" x="334.220937" xlink:href="#mfdd7bf9a54" y="205.025595"/>
     <use style="stroke:#000000;stroke-linejoin:miter;" x="339.293665" xlink:href="#mfdd7bf9a54" y="204.970175"/>
     <use style="stroke:#000000;stroke-linejoin:miter;" x="344.366392" xlink:href="#mfdd7bf9a54" y="205.308505"/>
     <use style="stroke:#000000;stroke-linejoin:miter;" x="349.439119" xlink:href="#mfdd7bf9a54" y="206.0305"/>
     <use style="stroke:#000000;stroke-linejoin:miter;" x="354.511847" xlink:href="#mfdd7bf9a54" y="207.125443"/>
     <use style="stroke:#000000;stroke-linejoin:miter;" x="359.584574" xlink:href="#mfdd7bf9a54" y="208.581641"/>
     <use style="stroke:#000000;stroke-linejoin:miter;" x="364.657301" xlink:href="#mfdd7bf9a54" y="210.386198"/>
     <use style="stroke:#000000;stroke-linejoin:miter;" x="369.730028" xlink:href="#mfdd7bf9a54" y="212.525829"/>
     <use style="stroke:#000000;stroke-linejoin:miter;" x="374.802756" xlink:href="#mfdd7bf9a54" y="214.986344"/>
     <use style="stroke:#000000;stroke-linejoin:miter;" x="379.875483" xlink:href="#mfdd7bf9a54" y="217.752968"/>
     <use style="stroke:#000000;stroke-linejoin:miter;" x="384.94821" xlink:href="#mfdd7bf9a54" y="220.810235"/>
     <use style="stroke:#000000;stroke-linejoin:miter;" x="390.020938" xlink:href="#mfdd7bf9a54" y="224.142335"/>
     <use style="stroke:#000000;stroke-linejoin:miter;" x="395.093665" xlink:href="#mfdd7bf9a54" y="227.732898"/>
     <use style="stroke:#000000;stroke-linejoin:miter;" x="400.166392" xlink:href="#mfdd7bf9a54" y="231.565127"/>
     <use style="stroke:#000000;stroke-linejoin:miter;" x="405.239119" xlink:href="#mfdd7bf9a54" y="235.622062"/>
     <use style="stroke:#000000;stroke-linejoin:miter;" x="410.311847" xlink:href="#mfdd7bf9a54" y="239.886145"/>
     <use style="stroke:#000000;stroke-linejoin:miter;" x="415.384574" xlink:href="#mfdd7bf9a54" y="244.34013"/>
     <use style="stroke:#000000;stroke-linejoin:miter;" x="420.457301" xlink:href="#mfdd7bf9a54" y="248.965999"/>
     <use style="stroke:#000000;stroke-linejoin:miter;" x="425.530028" xlink:href="#mfdd7bf9a54" y="253.745977"/>
     <use style="stroke:#000000;stroke-linejoin:miter;" x="430.602756" xlink:href="#mfdd7bf9a54" y="258.66213"/>
     <use style="stroke:#000000;stroke-linejoin:miter;" x="435.675483" xlink:href="#mfdd7bf9a54" y="263.69644"/>
     <use style="stroke:#000000;stroke-linejoin:miter;" x="440.74821" xlink:href="#mfdd7bf9a54" y="268.83093"/>
     <use style="stroke:#000000;stroke-linejoin:miter;" x="445.820938" xlink:href="#mfdd7bf9a54" y="274.04774"/>
     <use style="stroke:#000000;stroke-linejoin:miter;" x="450.893665" xlink:href="#mfdd7bf9a54" y="279.328951"/>
     <use style="stroke:#000000;stroke-linejoin:miter;" x="455.966392" xlink:href="#mfdd7bf9a54" y="284.656945"/>
     <use style="stroke:#000000;stroke-linejoin:miter;" x="461.039119" xlink:href="#mfdd7bf9a54" y="290.01412"/>
     <use style="stroke:#000000;stroke-linejoin:miter;" x="466.111847" xlink:href="#mfdd7bf9a54" y="295.383145"/>
     <use style="stroke:#000000;stroke-linejoin:miter;" x="471.184574" xlink:href="#mfdd7bf9a54" y="300.746904"/>
     <use style="stroke:#000000;stroke-linejoin:miter;" x="476.257301" xlink:href="#mfdd7bf9a54" y="306.088513"/>
     <use style="stroke:#000000;stroke-linejoin:miter;" x="481.330028" xlink:href="#mfdd7bf9a54" y="311.391401"/>
     <use style="stroke:#000000;stroke-linejoin:miter;" x="486.402756" xlink:href="#mfdd7bf9a54" y="316.639285"/>
     <use style="stroke:#000000;stroke-linejoin:miter;" x="491.475483" xlink:href="#mfdd7bf9a54" y="321.816241"/>
     <use style="stroke:#000000;stroke-linejoin:miter;" x="496.54821" xlink:href="#mfdd7bf9a54" y="326.90666"/>
     <use style="stroke:#000000;stroke-linejoin:miter;" x="501.620938" xlink:href="#mfdd7bf9a54" y="331.895377"/>
     <use style="stroke:#000000;stroke-linejoin:miter;" x="506.693665" xlink:href="#mfdd7bf9a54" y="336.767573"/>
     <use style="stroke:#000000;stroke-linejoin:miter;" x="511.766392" xlink:href="#mfdd7bf9a54" y="341.508901"/>
     <use style="stroke:#000000;stroke-linejoin:miter;" x="516.839119" xlink:href="#mfdd7bf9a54" y="346.105389"/>
     <use style="stroke:#000000;stroke-linejoin:miter;" x="521.911847" xlink:href="#mfdd7bf9a54" y="350.543579"/>
     <use style="stroke:#000000;stroke-linejoin:miter;" x="526.984574" xlink:href="#mfdd7bf9a54" y="354.810476"/>
     <use style="stroke:#000000;stroke-linejoin:miter;" x="532.057301" xlink:href="#mfdd7bf9a54" y="358.893578"/>
     <use style="stroke:#000000;stroke-linejoin:miter;" x="537.130028" xlink:href="#mfdd7bf9a54" y="362.780852"/>
     <use style="stroke:#000000;stroke-linejoin:miter;" x="542.202756" xlink:href="#mfdd7bf9a54" y="366.460814"/>
     <use style="stroke:#000000;stroke-linejoin:miter;" x="547.275483" xlink:href="#mfdd7bf9a54" y="369.922511"/>
     <use style="stroke:#000000;stroke-linejoin:miter;" x="552.34821" xlink:href="#mfdd7bf9a54" y="373.155508"/>
     <use style="stroke:#000000;stroke-linejoin:miter;" x="557.420938" xlink:href="#mfdd7bf9a54" y="376.149909"/>
     <use style="stroke:#000000;stroke-linejoin:miter;" x="562.493665" xlink:href="#mfdd7bf9a54" y="378.896419"/>
     <use style="stroke:#000000;stroke-linejoin:miter;" x="567.566392" xlink:href="#mfdd7bf9a54" y="381.386287"/>
     <use style="stroke:#000000;stroke-linejoin:miter;" x="572.639119" xlink:href="#mfdd7bf9a54" y="383.611307"/>
     <use style="stroke:#000000;stroke-linejoin:miter;" x="577.711847" xlink:href="#mfdd7bf9a54" y="385.563904"/>
     <use style="stroke:#000000;stroke-linejoin:miter;" x="582.784574" xlink:href="#mfdd7bf9a54" y="387.237049"/>
     <use style="stroke:#000000;stroke-linejoin:miter;" x="587.857301" xlink:href="#mfdd7bf9a54" y="388.624299"/>
     <use style="stroke:#000000;stroke-linejoin:miter;" x="592.930028" xlink:href="#mfdd7bf9a54" y="389.719844"/>
     <use style="stroke:#000000;stroke-linejoin:miter;" x="598.002756" xlink:href="#mfdd7bf9a54" y="390.51842"/>
     <use style="stroke:#000000;stroke-linejoin:miter;" x="603.075483" xlink:href="#mfdd7bf9a54" y="391.015406"/>
     <use style="stroke:#000000;stroke-linejoin:miter;" x="608.14821" xlink:href="#mfdd7bf9a54" y="391.206758"/>
     <use style="stroke:#000000;stroke-linejoin:miter;" x="613.220937" xlink:href="#mfdd7bf9a54" y="391.089018"/>
     <use style="stroke:#000000;stroke-linejoin:miter;" x="618.293665" xlink:href="#mfdd7bf9a54" y="390.659358"/>
     <use style="stroke:#000000;stroke-linejoin:miter;" x="623.366392" xlink:href="#mfdd7bf9a54" y="389.915543"/>
     <use style="stroke:#000000;stroke-linejoin:miter;" x="628.439119" xlink:href="#mfdd7bf9a54" y="388.855878"/>
     <use style="stroke:#000000;stroke-linejoin:miter;" x="633.511847" xlink:href="#mfdd7bf9a54" y="387.479344"/>
     <use style="stroke:#000000;stroke-linejoin:miter;" x="638.584574" xlink:href="#mfdd7bf9a54" y="385.785441"/>
     <use style="stroke:#000000;stroke-linejoin:miter;" x="643.657301" xlink:href="#mfdd7bf9a54" y="383.774296"/>
     <use style="stroke:#000000;stroke-linejoin:miter;" x="648.730028" xlink:href="#mfdd7bf9a54" y="381.446599"/>
     <use style="stroke:#000000;stroke-linejoin:miter;" x="653.802756" xlink:href="#mfdd7bf9a54" y="378.803584"/>
     <use style="stroke:#000000;stroke-linejoin:miter;" x="658.875483" xlink:href="#mfdd7bf9a54" y="375.8471"/>
     <use style="stroke:#000000;stroke-linejoin:miter;" x="663.94821" xlink:href="#mfdd7bf9a54" y="372.579473"/>
     <use style="stroke:#000000;stroke-linejoin:miter;" x="669.020938" xlink:href="#mfdd7bf9a54" y="369.003643"/>
     <use style="stroke:#000000;stroke-linejoin:miter;" x="674.093665" xlink:href="#mfdd7bf9a54" y="365.123024"/>
     <use style="stroke:#000000;stroke-linejoin:miter;" x="679.166392" xlink:href="#mfdd7bf9a54" y="360.941634"/>
     <use style="stroke:#000000;stroke-linejoin:miter;" x="684.239119" xlink:href="#mfdd7bf9a54" y="356.463877"/>
     <use style="stroke:#000000;stroke-linejoin:miter;" x="689.311847" xlink:href="#mfdd7bf9a54" y="351.694745"/>
     <use style="stroke:#000000;stroke-linejoin:miter;" x="694.384574" xlink:href="#mfdd7bf9a54" y="346.639647"/>
     <use style="stroke:#000000;stroke-linejoin:miter;" x="699.457301" xlink:href="#mfdd7bf9a54" y="341.304494"/>
     <use style="stroke:#000000;stroke-linejoin:miter;" x="704.530028" xlink:href="#mfdd7bf9a54" y="335.695627"/>
     <use style="stroke:#000000;stroke-linejoin:miter;" x="709.602756" xlink:href="#mfdd7bf9a54" y="329.819783"/>
     <use style="stroke:#000000;stroke-linejoin:miter;" x="714.675483" xlink:href="#mfdd7bf9a54" y="323.684137"/>
     <use style="stroke:#000000;stroke-linejoin:miter;" x="719.74821" xlink:href="#mfdd7bf9a54" y="317.296213"/>
     <use style="stroke:#000000;stroke-linejoin:miter;" x="724.820938" xlink:href="#mfdd7bf9a54" y="310.663916"/>
     <use style="stroke:#000000;stroke-linejoin:miter;" x="729.893665" xlink:href="#mfdd7bf9a54" y="303.795476"/>
     <use style="stroke:#000000;stroke-linejoin:miter;" x="734.966392" xlink:href="#mfdd7bf9a54" y="296.699437"/>
     <use style="stroke:#000000;stroke-linejoin:miter;" x="740.039119" xlink:href="#mfdd7bf9a54" y="289.38463"/>
     <use style="stroke:#000000;stroke-linejoin:miter;" x="745.111847" xlink:href="#mfdd7bf9a54" y="281.860122"/>
     <use style="stroke:#000000;stroke-linejoin:miter;" x="750.184574" xlink:href="#mfdd7bf9a54" y="274.135224"/>
     <use style="stroke:#000000;stroke-linejoin:miter;" x="755.257301" xlink:href="#mfdd7bf9a54" y="266.219462"/>
     <use style="stroke:#000000;stroke-linejoin:miter;" x="760.330028" xlink:href="#mfdd7bf9a54" y="258.122463"/>
     <use style="stroke:#000000;stroke-linejoin:miter;" x="765.402756" xlink:href="#mfdd7bf9a54" y="249.854067"/>
     <use style="stroke:#000000;stroke-linejoin:miter;" x="770.475483" xlink:href="#mfdd7bf9a54" y="241.424161"/>
     <use style="stroke:#000000;stroke-linejoin:miter;" x="775.54821" xlink:href="#mfdd7bf9a54" y="232.842699"/>
     <use style="stroke:#000000;stroke-linejoin:miter;" x="780.620937" xlink:href="#mfdd7bf9a54" y="224.119696"/>
     <use style="stroke:#000000;stroke-linejoin:miter;" x="785.693665" xlink:href="#mfdd7bf9a54" y="215.265137"/>
     <use style="stroke:#000000;stroke-linejoin:miter;" x="790.766392" xlink:href="#mfdd7bf9a54" y="206.288935"/>
     <use style="stroke:#000000;stroke-linejoin:miter;" x="795.839119" xlink:href="#mfdd7bf9a54" y="197.200946"/>
     <use style="stroke:#000000;stroke-linejoin:miter;" x="800.911847" xlink:href="#mfdd7bf9a54" y="188.010912"/>
     <use style="stroke:#000000;stroke-linejoin:miter;" x="805.984574" xlink:href="#mfdd7bf9a54" y="178.728358"/>
     <use style="stroke:#000000;stroke-linejoin:miter;" x="811.057301" xlink:href="#mfdd7bf9a54" y="169.362653"/>
     <use style="stroke:#000000;stroke-linejoin:miter;" x="816.130028" xlink:href="#mfdd7bf9a54" y="159.922863"/>
     <use style="stroke:#000000;stroke-linejoin:miter;" x="821.202756" xlink:href="#mfdd7bf9a54" y="150.417782"/>
     <use style="stroke:#000000;stroke-linejoin:miter;" x="826.275483" xlink:href="#mfdd7bf9a54" y="140.855761"/>
     <use style="stroke:#000000;stroke-linejoin:miter;" x="831.34821" xlink:href="#mfdd7bf9a54" y="131.245077"/>
     <use style="stroke:#000000;stroke-linejoin:miter;" x="836.420938" xlink:href="#mfdd7bf9a54" y="121.593018"/>
     <use style="stroke:#000000;stroke-linejoin:miter;" x="841.493665" xlink:href="#mfdd7bf9a54" y="111.907116"/>
     <use style="stroke:#000000;stroke-linejoin:miter;" x="846.566392" xlink:href="#mfdd7bf9a54" y="102.193339"/>
     <use style="stroke:#000000;stroke-linejoin:miter;" x="851.639119" xlink:href="#mfdd7bf9a54" y="92.45833"/>
     <use style="stroke:#000000;stroke-linejoin:miter;" x="856.711847" xlink:href="#mfdd7bf9a54" y="82.706966"/>
     <use style="stroke:#000000;stroke-linejoin:miter;" x="861.784574" xlink:href="#mfdd7bf9a54" y="72.944411"/>
     <use style="stroke:#000000;stroke-linejoin:miter;" x="866.857301" xlink:href="#mfdd7bf9a54" y="63.17411"/>
     <use style="stroke:#000000;stroke-linejoin:miter;" x="871.930028" xlink:href="#mfdd7bf9a54" y="53.399361"/>
     <use style="stroke:#000000;stroke-linejoin:miter;" x="877.002756" xlink:href="#mfdd7bf9a54" y="43.622603"/>
     <use style="stroke:#000000;stroke-linejoin:miter;" x="882.075483" xlink:href="#mfdd7bf9a54" y="33.845415"/>
    </g>
   </g>
   <g id="line2d_16">
    <path clip-path="url(#pea444b68f2)" d="M 121.166392 430.56 
L 126.239119 430.033768 
L 131.311847 428.505885 
L 136.384574 426.047656 
L 141.457301 422.730504 
L 146.530028 418.625628 
L 151.602756 413.803677 
L 156.675483 408.334496 
L 161.74821 402.286762 
L 166.820938 395.727904 
L 171.893665 388.7237 
L 176.966392 381.338253 
L 182.039119 373.633707 
L 192.184574 357.505401 
L 202.330028 340.792401 
L 217.54821 315.523986 
L 227.693665 299.077199 
L 232.766392 291.094428 
L 237.839119 283.319688 
L 242.911847 275.785366 
L 247.984574 268.521511 
L 253.057301 261.555168 
L 258.130028 254.911258 
L 263.202756 248.611968 
L 268.275483 242.677176 
L 273.34821 237.124455 
L 278.420938 231.969066 
L 283.493665 227.223684 
L 288.566392 222.899395 
L 293.639119 219.004673 
L 298.711847 215.546283 
L 303.784574 212.528956 
L 308.857301 209.95542 
L 313.930028 207.826779 
L 319.002756 206.142459 
L 324.075483 204.899949 
L 329.14821 204.095778 
L 334.220937 203.724265 
L 339.293665 203.779039 
L 344.366392 204.251695 
L 349.439119 205.133379 
L 354.511847 206.413533 
L 359.584574 208.080709 
L 364.657301 210.12244 
L 369.730028 212.525398 
L 374.802756 215.275108 
L 379.875483 218.35091 
L 384.94821 221.731572 
L 390.020938 225.401572 
L 395.093665 229.344956 
L 400.166392 233.544867 
L 405.239119 237.984635 
L 410.311847 242.646542 
L 415.384574 247.513172 
L 420.457301 252.566419 
L 430.602756 263.159929 
L 440.74821 274.279879 
L 450.893665 285.777855 
L 471.184574 309.31587 
L 486.402756 326.87187 
L 496.54821 338.265978 
L 506.693665 349.255878 
L 516.839119 359.714256 
L 521.911847 364.706163 
L 526.984574 369.520549 
L 532.057301 374.14354 
L 537.130028 378.561729 
L 542.202756 382.76229 
L 547.275483 386.732874 
L 552.34821 390.461766 
L 557.420938 393.937774 
L 562.493665 397.150297 
L 567.566392 400.08935 
L 572.639119 402.745564 
L 577.711847 405.110189 
L 582.784574 407.17506 
L 587.857301 408.932748 
L 592.930028 410.376379 
L 598.002756 411.499799 
L 603.075483 412.297457 
L 608.14821 412.764502 
L 613.220937 412.896719 
L 618.293665 412.690604 
L 623.366392 412.143276 
L 628.439119 411.252554 
L 633.511847 410.012397 
L 638.584574 408.417469 
L 643.657301 406.467613 
L 648.730028 404.1633 
L 653.802756 401.505651 
L 658.875483 398.496474 
L 663.94821 395.138149 
L 669.020938 391.433761 
L 674.093665 387.386954 
L 679.166392 383.002003 
L 684.239119 378.283715 
L 689.311847 373.237541 
L 694.384574 367.869448 
L 699.457301 362.185908 
L 704.530028 356.193964 
L 709.602756 349.90112 
L 714.675483 343.315323 
L 719.74821 336.445041 
L 724.820938 329.299054 
L 729.893665 321.886613 
L 734.966392 314.217309 
L 740.039119 306.301036 
L 745.111847 298.148018 
L 750.184574 289.76874 
L 760.330028 272.374381 
L 770.475483 254.20572 
L 780.620937 235.352365 
L 790.766392 215.904497 
L 800.911847 195.95145 
L 811.057301 175.58025 
L 826.275483 144.419956 
L 846.566392 102.135237 
L 882.075483 27.36 
L 882.075483 27.36 
" style="fill:none;stroke:#0000ff;stroke-linecap:square;stroke-width:3;"/>
   </g>
   <g id="line2d_17">
    <path clip-path="url(#pea444b68f2)" d="M 121.166392 430.56 
L 126.239119 430.025502 
L 131.311847 428.474375 
L 136.384574 425.980517 
L 141.457301 422.618066 
L 146.530028 418.460978 
L 151.602756 413.58264 
L 156.675483 408.055517 
L 161.74821 401.950857 
L 166.820938 395.338358 
L 171.893665 388.286013 
L 176.966392 380.859747 
L 182.039119 373.123404 
L 192.184574 356.963728 
L 207.402756 331.852145 
L 217.54821 315.123855 
L 227.693665 298.822073 
L 232.766392 290.928375 
L 237.839119 283.252373 
L 242.911847 275.825201 
L 247.984574 268.675403 
L 253.057301 261.828443 
L 258.130028 255.307733 
L 263.202756 249.133656 
L 268.275483 243.32429 
L 273.34821 237.895401 
L 278.420938 232.860015 
L 283.493665 228.229555 
L 288.566392 224.012586 
L 293.639119 220.216051 
L 298.711847 216.844915 
L 303.784574 213.901903 
L 308.857301 211.388234 
L 313.930028 209.303478 
L 319.002756 207.645197 
L 324.075483 206.409803 
L 329.14821 205.592118 
L 334.220937 205.185643 
L 339.293665 205.182587 
L 344.366392 205.573855 
L 349.439119 206.349491 
L 354.511847 207.498491 
L 359.584574 209.008589 
L 364.657301 210.867203 
L 369.730028 213.060589 
L 374.802756 215.574129 
L 379.875483 218.390979 
L 384.94821 221.493537 
L 390.020938 224.86618 
L 395.093665 228.49251 
L 400.166392 232.355855 
L 405.239119 236.439417 
L 410.311847 240.725923 
L 415.384574 245.197813 
L 425.530028 254.627216 
L 435.675483 264.585498 
L 445.820938 274.929912 
L 461.039119 290.860541 
L 481.330028 312.147914 
L 491.475483 322.511997 
L 501.620938 332.521222 
L 511.766392 342.056774 
L 516.839119 346.611586 
L 521.911847 351.006477 
L 526.984574 355.228614 
L 532.057301 359.265606 
L 537.130028 363.105612 
L 542.202756 366.737246 
L 547.275483 370.149708 
L 552.34821 373.332729 
L 557.420938 376.276587 
L 562.493665 378.972082 
L 567.566392 381.410633 
L 572.639119 383.584236 
L 577.711847 385.48543 
L 582.784574 387.107386 
L 587.857301 388.443793 
L 592.930028 389.489025 
L 598.002756 390.237992 
L 603.075483 390.686229 
L 608.14821 390.829894 
L 613.220937 390.665714 
L 618.293665 390.191007 
L 623.366392 389.403722 
L 628.439119 388.302381 
L 633.511847 386.885635 
L 638.584574 385.152623 
L 643.657301 383.103661 
L 648.730028 380.739597 
L 653.802756 378.061805 
L 658.875483 375.072268 
L 663.94821 371.77348 
L 669.020938 368.168426 
L 674.093665 364.260679 
L 679.166392 360.054269 
L 684.239119 355.553715 
L 689.311847 350.764082 
L 694.384574 345.690808 
L 699.457301 340.339845 
L 704.530028 334.717555 
L 709.602756 328.830699 
L 714.675483 322.686437 
L 719.74821 316.292311 
L 724.820938 309.656198 
L 729.893665 302.786313 
L 734.966392 295.691147 
L 740.039119 288.379496 
L 750.184574 273.143059 
L 760.330028 257.151673 
L 770.475483 240.482537 
L 780.620937 223.214369 
L 790.766392 205.426217 
L 800.911847 187.196326 
L 811.057301 168.600861 
L 826.275483 140.180033 
L 846.566392 101.641005 
L 882.075483 33.518318 
L 882.075483 33.518318 
" style="fill:none;stroke:#ff0000;stroke-linecap:square;stroke-width:3;"/>
   </g>
   <g id="legend_1">
    <g id="patch_3">
     <path d="M 98.520938 121.675625 
L 392.330938 121.675625 
Q 396.730938 121.675625 396.730938 117.275625 
L 396.730938 22.6 
Q 396.730938 18.2 392.330938 18.2 
L 98.520938 18.2 
Q 94.120938 18.2 94.120938 22.6 
L 94.120938 117.275625 
Q 94.120938 121.675625 98.520938 121.675625 
z
" style="fill:#ffffff;opacity:0.8;stroke:#cccccc;stroke-linejoin:miter;"/>
    </g>
    <g id="line2d_18"/>
    <g id="line2d_19">
     <g>
      <use style="stroke:#000000;stroke-linejoin:miter;" x="124.920938" xlink:href="#mfdd7bf9a54" y="36.016563"/>
     </g>
    </g>
    <g id="text_17">
     <!-- Reference FEM -->
     <g transform="translate(164.520938 43.716563)scale(0.22 -0.22)">
      <defs>
       <path d="M 44.390625 34.1875 
Q 47.5625 33.109375 50.5625 29.59375 
Q 53.5625 26.078125 56.59375 19.921875 
L 66.609375 0 
L 56 0 
L 46.6875 18.703125 
Q 43.0625 26.03125 39.671875 28.421875 
Q 36.28125 30.8125 30.421875 30.8125 
L 19.671875 30.8125 
L 19.671875 0 
L 9.8125 0 
L 9.8125 72.90625 
L 32.078125 72.90625 
Q 44.578125 72.90625 50.734375 67.671875 
Q 56.890625 62.453125 56.890625 51.90625 
Q 56.890625 45.015625 53.6875 40.46875 
Q 50.484375 35.9375 44.390625 34.1875 
z
M 19.671875 64.796875 
L 19.671875 38.921875 
L 32.078125 38.921875 
Q 39.203125 38.921875 42.84375 42.21875 
Q 46.484375 45.515625 46.484375 51.90625 
Q 46.484375 58.296875 42.84375 61.546875 
Q 39.203125 64.796875 32.078125 64.796875 
z
" id="DejaVuSans-82"/>
       <path d="M 37.109375 75.984375 
L 37.109375 68.5 
L 28.515625 68.5 
Q 23.6875 68.5 21.796875 66.546875 
Q 19.921875 64.59375 19.921875 59.515625 
L 19.921875 54.6875 
L 34.71875 54.6875 
L 34.71875 47.703125 
L 19.921875 47.703125 
L 19.921875 0 
L 10.890625 0 
L 10.890625 47.703125 
L 2.296875 47.703125 
L 2.296875 54.6875 
L 10.890625 54.6875 
L 10.890625 58.5 
Q 10.890625 67.625 15.140625 71.796875 
Q 19.390625 75.984375 28.609375 75.984375 
z
" id="DejaVuSans-102"/>
       <path d="M 41.109375 46.296875 
Q 39.59375 47.171875 37.8125 47.578125 
Q 36.03125 48 33.890625 48 
Q 26.265625 48 22.1875 43.046875 
Q 18.109375 38.09375 18.109375 28.8125 
L 18.109375 0 
L 9.078125 0 
L 9.078125 54.6875 
L 18.109375 54.6875 
L 18.109375 46.1875 
Q 20.953125 51.171875 25.484375 53.578125 
Q 30.03125 56 36.53125 56 
Q 37.453125 56 38.578125 55.875 
Q 39.703125 55.765625 41.0625 55.515625 
z
" id="DejaVuSans-114"/>
       <path d="M 48.78125 52.59375 
L 48.78125 44.1875 
Q 44.96875 46.296875 41.140625 47.34375 
Q 37.3125 48.390625 33.40625 48.390625 
Q 24.65625 48.390625 19.8125 42.84375 
Q 14.984375 37.3125 14.984375 27.296875 
Q 14.984375 17.28125 19.8125 11.734375 
Q 24.65625 6.203125 33.40625 6.203125 
Q 37.3125 6.203125 41.140625 7.25 
Q 44.96875 8.296875 48.78125 10.40625 
L 48.78125 2.09375 
Q 45.015625 0.34375 40.984375 -0.53125 
Q 36.96875 -1.421875 32.421875 -1.421875 
Q 20.0625 -1.421875 12.78125 6.34375 
Q 5.515625 14.109375 5.515625 27.296875 
Q 5.515625 40.671875 12.859375 48.328125 
Q 20.21875 56 33.015625 56 
Q 37.15625 56 41.109375 55.140625 
Q 45.0625 54.296875 48.78125 52.59375 
z
" id="DejaVuSans-99"/>
       <path d="M 9.8125 72.90625 
L 51.703125 72.90625 
L 51.703125 64.59375 
L 19.671875 64.59375 
L 19.671875 43.109375 
L 48.578125 43.109375 
L 48.578125 34.8125 
L 19.671875 34.8125 
L 19.671875 0 
L 9.8125 0 
z
" id="DejaVuSans-70"/>
       <path d="M 9.8125 72.90625 
L 55.90625 72.90625 
L 55.90625 64.59375 
L 19.671875 64.59375 
L 19.671875 43.015625 
L 54.390625 43.015625 
L 54.390625 34.71875 
L 19.671875 34.71875 
L 19.671875 8.296875 
L 56.78125 8.296875 
L 56.78125 0 
L 9.8125 0 
z
" id="DejaVuSans-69"/>
       <path d="M 9.8125 72.90625 
L 24.515625 72.90625 
L 43.109375 23.296875 
L 61.8125 72.90625 
L 76.515625 72.90625 
L 76.515625 0 
L 66.890625 0 
L 66.890625 64.015625 
L 48.09375 14.015625 
L 38.1875 14.015625 
L 19.390625 64.015625 
L 19.390625 0 
L 9.8125 0 
z
" id="DejaVuSans-77"/>
      </defs>
      <use xlink:href="#DejaVuSans-82"/>
      <use x="64.982422" xlink:href="#DejaVuSans-101"/>
      <use x="126.505859" xlink:href="#DejaVuSans-102"/>
      <use x="161.710938" xlink:href="#DejaVuSans-101"/>
      <use x="223.234375" xlink:href="#DejaVuSans-114"/>
      <use x="262.097656" xlink:href="#DejaVuSans-101"/>
      <use x="323.621094" xlink:href="#DejaVuSans-110"/>
      <use x="387" xlink:href="#DejaVuSans-99"/>
      <use x="441.980469" xlink:href="#DejaVuSans-101"/>
      <use x="503.503906" xlink:href="#DejaVuSans-32"/>
      <use x="535.291016" xlink:href="#DejaVuSans-70"/>
      <use x="592.810547" xlink:href="#DejaVuSans-69"/>
      <use x="655.994141" xlink:href="#DejaVuSans-77"/>
     </g>
    </g>
    <g id="line2d_20">
     <path d="M 102.920938 68.308438 
L 146.920938 68.308438 
" style="fill:none;stroke:#0000ff;stroke-linecap:square;stroke-width:3;"/>
    </g>
    <g id="line2d_21"/>
    <g id="text_18">
     <!-- Initial mistuned FEM -->
     <g transform="translate(164.520938 76.008438)scale(0.22 -0.22)">
      <defs>
       <path d="M 9.8125 72.90625 
L 19.671875 72.90625 
L 19.671875 0 
L 9.8125 0 
z
" id="DejaVuSans-73"/>
       <path d="M 44.28125 53.078125 
L 44.28125 44.578125 
Q 40.484375 46.53125 36.375 47.5 
Q 32.28125 48.484375 27.875 48.484375 
Q 21.1875 48.484375 17.84375 46.4375 
Q 14.5 44.390625 14.5 40.28125 
Q 14.5 37.15625 16.890625 35.375 
Q 19.28125 33.59375 26.515625 31.984375 
L 29.59375 31.296875 
Q 39.15625 29.25 43.1875 25.515625 
Q 47.21875 21.78125 47.21875 15.09375 
Q 47.21875 7.46875 41.1875 3.015625 
Q 35.15625 -1.421875 24.609375 -1.421875 
Q 20.21875 -1.421875 15.453125 -0.5625 
Q 10.6875 0.296875 5.421875 2 
L 5.421875 11.28125 
Q 10.40625 8.6875 15.234375 7.390625 
Q 20.0625 6.109375 24.8125 6.109375 
Q 31.15625 6.109375 34.5625 8.28125 
Q 37.984375 10.453125 37.984375 14.40625 
Q 37.984375 18.0625 35.515625 20.015625 
Q 33.0625 21.96875 24.703125 23.78125 
L 21.578125 24.515625 
Q 13.234375 26.265625 9.515625 29.90625 
Q 5.8125 33.546875 5.8125 39.890625 
Q 5.8125 47.609375 11.28125 51.796875 
Q 16.75 56 26.8125 56 
Q 31.78125 56 36.171875 55.265625 
Q 40.578125 54.546875 44.28125 53.078125 
z
" id="DejaVuSans-115"/>
      </defs>
      <use xlink:href="#DejaVuSans-73"/>
      <use x="29.492188" xlink:href="#DejaVuSans-110"/>
      <use x="92.871094" xlink:href="#DejaVuSans-105"/>
      <use x="120.654297" xlink:href="#DejaVuSans-116"/>
      <use x="159.863281" xlink:href="#DejaVuSans-105"/>
      <use x="187.646484" xlink:href="#DejaVuSans-97"/>
      <use x="248.925781" xlink:href="#DejaVuSans-108"/>
      <use x="276.708984" xlink:href="#DejaVuSans-32"/>
      <use x="308.496094" xlink:href="#DejaVuSans-109"/>
      <use x="405.908203" xlink:href="#DejaVuSans-105"/>
      <use x="433.691406" xlink:href="#DejaVuSans-115"/>
      <use x="485.791016" xlink:href="#DejaVuSans-116"/>
      <use x="525" xlink:href="#DejaVuSans-117"/>
      <use x="588.378906" xlink:href="#DejaVuSans-110"/>
      <use x="651.757812" xlink:href="#DejaVuSans-101"/>
      <use x="713.28125" xlink:href="#DejaVuSans-100"/>
      <use x="776.757812" xlink:href="#DejaVuSans-32"/>
      <use x="808.544922" xlink:href="#DejaVuSans-70"/>
      <use x="866.064453" xlink:href="#DejaVuSans-69"/>
      <use x="929.248047" xlink:href="#DejaVuSans-77"/>
     </g>
    </g>
    <g id="line2d_22">
     <path d="M 102.920938 100.600313 
L 146.920938 100.600313 
" style="fill:none;stroke:#ff0000;stroke-linecap:square;stroke-width:3;"/>
    </g>
    <g id="line2d_23"/>
    <g id="text_19">
     <!-- Converged FEM -->
     <g transform="translate(164.520938 108.300313)scale(0.22 -0.22)">
      <defs>
       <path d="M 64.40625 67.28125 
L 64.40625 56.890625 
Q 59.421875 61.53125 53.78125 63.8125 
Q 48.140625 66.109375 41.796875 66.109375 
Q 29.296875 66.109375 22.65625 58.46875 
Q 16.015625 50.828125 16.015625 36.375 
Q 16.015625 21.96875 22.65625 14.328125 
Q 29.296875 6.6875 41.796875 6.6875 
Q 48.140625 6.6875 53.78125 8.984375 
Q 59.421875 11.28125 64.40625 15.921875 
L 64.40625 5.609375 
Q 59.234375 2.09375 53.4375 0.328125 
Q 47.65625 -1.421875 41.21875 -1.421875 
Q 24.65625 -1.421875 15.125 8.703125 
Q 5.609375 18.84375 5.609375 36.375 
Q 5.609375 53.953125 15.125 64.078125 
Q 24.65625 74.21875 41.21875 74.21875 
Q 47.75 74.21875 53.53125 72.484375 
Q 59.328125 70.75 64.40625 67.28125 
z
" id="DejaVuSans-67"/>
       <path d="M 30.609375 48.390625 
Q 23.390625 48.390625 19.1875 42.75 
Q 14.984375 37.109375 14.984375 27.296875 
Q 14.984375 17.484375 19.15625 11.84375 
Q 23.34375 6.203125 30.609375 6.203125 
Q 37.796875 6.203125 41.984375 11.859375 
Q 46.1875 17.53125 46.1875 27.296875 
Q 46.1875 37.015625 41.984375 42.703125 
Q 37.796875 48.390625 30.609375 48.390625 
z
M 30.609375 56 
Q 42.328125 56 49.015625 48.375 
Q 55.71875 40.765625 55.71875 27.296875 
Q 55.71875 13.875 49.015625 6.21875 
Q 42.328125 -1.421875 30.609375 -1.421875 
Q 18.84375 -1.421875 12.171875 6.21875 
Q 5.515625 13.875 5.515625 27.296875 
Q 5.515625 40.765625 12.171875 48.375 
Q 18.84375 56 30.609375 56 
z
" id="DejaVuSans-111"/>
       <path d="M 2.984375 54.6875 
L 12.5 54.6875 
L 29.59375 8.796875 
L 46.6875 54.6875 
L 56.203125 54.6875 
L 35.6875 0 
L 23.484375 0 
z
" id="DejaVuSans-118"/>
      </defs>
      <use xlink:href="#DejaVuSans-67"/>
      <use x="69.824219" xlink:href="#DejaVuSans-111"/>
      <use x="131.005859" xlink:href="#DejaVuSans-110"/>
      <use x="194.384766" xlink:href="#DejaVuSans-118"/>
      <use x="253.564453" xlink:href="#DejaVuSans-101"/>
      <use x="315.087891" xlink:href="#DejaVuSans-114"/>
      <use x="354.451172" xlink:href="#DejaVuSans-103"/>
      <use x="417.927734" xlink:href="#DejaVuSans-101"/>
      <use x="479.451172" xlink:href="#DejaVuSans-100"/>
      <use x="542.927734" xlink:href="#DejaVuSans-32"/>
      <use x="574.714844" xlink:href="#DejaVuSans-70"/>
      <use x="632.234375" xlink:href="#DejaVuSans-69"/>
      <use x="695.417969" xlink:href="#DejaVuSans-77"/>
     </g>
    </g>
   </g>
  </g>
 </g>
 <defs>
  <clipPath id="pea444b68f2">
   <rect height="443.52" width="837" x="83.120938" y="7.2"/>
  </clipPath>
 </defs>
</svg>
