<?xml version="1.0" encoding="utf-8" standalone="no"?>
<!DOCTYPE svg PUBLIC "-//W3C//DTD SVG 1.1//EN"
  "http://www.w3.org/Graphics/SVG/1.1/DTD/svg11.dtd">
<!-- Created with matplotlib (https://matplotlib.org/) -->
<svg height="518.278437pt" version="1.1" viewBox="0 0 924.418594 518.278437" width="924.418594pt" xmlns="http://www.w3.org/2000/svg" xmlns:xlink="http://www.w3.org/1999/xlink">
 <metadata>
  <rdf:RDF xmlns:cc="http://creativecommons.org/ns#" xmlns:dc="http://purl.org/dc/elements/1.1/" xmlns:rdf="http://www.w3.org/1999/02/22-rdf-syntax-ns#">
   <cc:Work>
    <dc:type rdf:resource="http://purl.org/dc/dcmitype/StillImage"/>
    <dc:date>2021-12-02T19:24:09.473759</dc:date>
    <dc:format>image/svg+xml</dc:format>
    <dc:creator>
     <cc:Agent>
      <dc:title>Matplotlib v3.3.4, https://matplotlib.org/</dc:title>
     </cc:Agent>
    </dc:creator>
   </cc:Work>
  </rdf:RDF>
 </metadata>
 <defs>
  <style type="text/css">*{stroke-linecap:butt;stroke-linejoin:round;}</style>
 </defs>
 <g id="figure_1">
  <g id="patch_1">
   <path d="M 0 518.278437 
L 924.418594 518.278437 
L 924.418594 0 
L 0 0 
z
" style="fill:#ffffff;"/>
  </g>
  <g id="axes_1">
   <g id="patch_2">
    <path d="M 80.218594 450.72 
L 917.218594 450.72 
L 917.218594 7.2 
L 80.218594 7.2 
z
" style="fill:#ffffff;"/>
   </g>
   <g id="matplotlib.axis_1">
    <g id="xtick_1">
     <g id="line2d_1">
      <defs>
       <path d="M 0 0 
L 0 3.5 
" id="m4453b53b31" style="stroke:#000000;stroke-width:0.8;"/>
      </defs>
      <g>
       <use style="stroke:#000000;stroke-width:0.8;" x="118.264048" xlink:href="#m4453b53b31" y="450.72"/>
      </g>
     </g>
     <g id="text_1">
      <!-- 0.0 -->
      <g transform="translate(98.385142 476.716094)scale(0.25 -0.25)">
       <defs>
        <path d="M 31.78125 66.40625 
Q 24.171875 66.40625 20.328125 58.90625 
Q 16.5 51.421875 16.5 36.375 
Q 16.5 21.390625 20.328125 13.890625 
Q 24.171875 6.390625 31.78125 6.390625 
Q 39.453125 6.390625 43.28125 13.890625 
Q 47.125 21.390625 47.125 36.375 
Q 47.125 51.421875 43.28125 58.90625 
Q 39.453125 66.40625 31.78125 66.40625 
z
M 31.78125 74.21875 
Q 44.046875 74.21875 50.515625 64.515625 
Q 56.984375 54.828125 56.984375 36.375 
Q 56.984375 17.96875 50.515625 8.265625 
Q 44.046875 -1.421875 31.78125 -1.421875 
Q 19.53125 -1.421875 13.0625 8.265625 
Q 6.59375 17.96875 6.59375 36.375 
Q 6.59375 54.828125 13.0625 64.515625 
Q 19.53125 74.21875 31.78125 74.21875 
z
" id="DejaVuSans-48"/>
        <path d="M 10.6875 12.40625 
L 21 12.40625 
L 21 0 
L 10.6875 0 
z
" id="DejaVuSans-46"/>
       </defs>
       <use xlink:href="#DejaVuSans-48"/>
       <use x="63.623047" xlink:href="#DejaVuSans-46"/>
       <use x="95.410156" xlink:href="#DejaVuSans-48"/>
      </g>
     </g>
    </g>
    <g id="xtick_2">
     <g id="line2d_2">
      <g>
       <use style="stroke:#000000;stroke-width:0.8;" x="219.718594" xlink:href="#m4453b53b31" y="450.72"/>
      </g>
     </g>
     <g id="text_2">
      <!-- 0.2 -->
      <g transform="translate(199.839688 476.716094)scale(0.25 -0.25)">
       <defs>
        <path d="M 19.1875 8.296875 
L 53.609375 8.296875 
L 53.609375 0 
L 7.328125 0 
L 7.328125 8.296875 
Q 12.9375 14.109375 22.625 23.890625 
Q 32.328125 33.6875 34.8125 36.53125 
Q 39.546875 41.84375 41.421875 45.53125 
Q 43.3125 49.21875 43.3125 52.78125 
Q 43.3125 58.59375 39.234375 62.25 
Q 35.15625 65.921875 28.609375 65.921875 
Q 23.96875 65.921875 18.8125 64.3125 
Q 13.671875 62.703125 7.8125 59.421875 
L 7.8125 69.390625 
Q 13.765625 71.78125 18.9375 73 
Q 24.125 74.21875 28.421875 74.21875 
Q 39.75 74.21875 46.484375 68.546875 
Q 53.21875 62.890625 53.21875 53.421875 
Q 53.21875 48.921875 51.53125 44.890625 
Q 49.859375 40.875 45.40625 35.40625 
Q 44.1875 33.984375 37.640625 27.21875 
Q 31.109375 20.453125 19.1875 8.296875 
z
" id="DejaVuSans-50"/>
       </defs>
       <use xlink:href="#DejaVuSans-48"/>
       <use x="63.623047" xlink:href="#DejaVuSans-46"/>
       <use x="95.410156" xlink:href="#DejaVuSans-50"/>
      </g>
     </g>
    </g>
    <g id="xtick_3">
     <g id="line2d_3">
      <g>
       <use style="stroke:#000000;stroke-width:0.8;" x="321.173139" xlink:href="#m4453b53b31" y="450.72"/>
      </g>
     </g>
     <g id="text_3">
      <!-- 0.4 -->
      <g transform="translate(301.294233 476.716094)scale(0.25 -0.25)">
       <defs>
        <path d="M 37.796875 64.3125 
L 12.890625 25.390625 
L 37.796875 25.390625 
z
M 35.203125 72.90625 
L 47.609375 72.90625 
L 47.609375 25.390625 
L 58.015625 25.390625 
L 58.015625 17.1875 
L 47.609375 17.1875 
L 47.609375 0 
L 37.796875 0 
L 37.796875 17.1875 
L 4.890625 17.1875 
L 4.890625 26.703125 
z
" id="DejaVuSans-52"/>
       </defs>
       <use xlink:href="#DejaVuSans-48"/>
       <use x="63.623047" xlink:href="#DejaVuSans-46"/>
       <use x="95.410156" xlink:href="#DejaVuSans-52"/>
      </g>
     </g>
    </g>
    <g id="xtick_4">
     <g id="line2d_4">
      <g>
       <use style="stroke:#000000;stroke-width:0.8;" x="422.627685" xlink:href="#m4453b53b31" y="450.72"/>
      </g>
     </g>
     <g id="text_4">
      <!-- 0.6 -->
      <g transform="translate(402.748778 476.716094)scale(0.25 -0.25)">
       <defs>
        <path d="M 33.015625 40.375 
Q 26.375 40.375 22.484375 35.828125 
Q 18.609375 31.296875 18.609375 23.390625 
Q 18.609375 15.53125 22.484375 10.953125 
Q 26.375 6.390625 33.015625 6.390625 
Q 39.65625 6.390625 43.53125 10.953125 
Q 47.40625 15.53125 47.40625 23.390625 
Q 47.40625 31.296875 43.53125 35.828125 
Q 39.65625 40.375 33.015625 40.375 
z
M 52.59375 71.296875 
L 52.59375 62.3125 
Q 48.875 64.0625 45.09375 64.984375 
Q 41.3125 65.921875 37.59375 65.921875 
Q 27.828125 65.921875 22.671875 59.328125 
Q 17.53125 52.734375 16.796875 39.40625 
Q 19.671875 43.65625 24.015625 45.921875 
Q 28.375 48.1875 33.59375 48.1875 
Q 44.578125 48.1875 50.953125 41.515625 
Q 57.328125 34.859375 57.328125 23.390625 
Q 57.328125 12.15625 50.6875 5.359375 
Q 44.046875 -1.421875 33.015625 -1.421875 
Q 20.359375 -1.421875 13.671875 8.265625 
Q 6.984375 17.96875 6.984375 36.375 
Q 6.984375 53.65625 15.1875 63.9375 
Q 23.390625 74.21875 37.203125 74.21875 
Q 40.921875 74.21875 44.703125 73.484375 
Q 48.484375 72.75 52.59375 71.296875 
z
" id="DejaVuSans-54"/>
       </defs>
       <use xlink:href="#DejaVuSans-48"/>
       <use x="63.623047" xlink:href="#DejaVuSans-46"/>
       <use x="95.410156" xlink:href="#DejaVuSans-54"/>
      </g>
     </g>
    </g>
    <g id="xtick_5">
     <g id="line2d_5">
      <g>
       <use style="stroke:#000000;stroke-width:0.8;" x="524.08223" xlink:href="#m4453b53b31" y="450.72"/>
      </g>
     </g>
     <g id="text_5">
      <!-- 0.8 -->
      <g transform="translate(504.203324 476.716094)scale(0.25 -0.25)">
       <defs>
        <path d="M 31.78125 34.625 
Q 24.75 34.625 20.71875 30.859375 
Q 16.703125 27.09375 16.703125 20.515625 
Q 16.703125 13.921875 20.71875 10.15625 
Q 24.75 6.390625 31.78125 6.390625 
Q 38.8125 6.390625 42.859375 10.171875 
Q 46.921875 13.96875 46.921875 20.515625 
Q 46.921875 27.09375 42.890625 30.859375 
Q 38.875 34.625 31.78125 34.625 
z
M 21.921875 38.8125 
Q 15.578125 40.375 12.03125 44.71875 
Q 8.5 49.078125 8.5 55.328125 
Q 8.5 64.0625 14.71875 69.140625 
Q 20.953125 74.21875 31.78125 74.21875 
Q 42.671875 74.21875 48.875 69.140625 
Q 55.078125 64.0625 55.078125 55.328125 
Q 55.078125 49.078125 51.53125 44.71875 
Q 48 40.375 41.703125 38.8125 
Q 48.828125 37.15625 52.796875 32.3125 
Q 56.78125 27.484375 56.78125 20.515625 
Q 56.78125 9.90625 50.3125 4.234375 
Q 43.84375 -1.421875 31.78125 -1.421875 
Q 19.734375 -1.421875 13.25 4.234375 
Q 6.78125 9.90625 6.78125 20.515625 
Q 6.78125 27.484375 10.78125 32.3125 
Q 14.796875 37.15625 21.921875 38.8125 
z
M 18.3125 54.390625 
Q 18.3125 48.734375 21.84375 45.5625 
Q 25.390625 42.390625 31.78125 42.390625 
Q 38.140625 42.390625 41.71875 45.5625 
Q 45.3125 48.734375 45.3125 54.390625 
Q 45.3125 60.0625 41.71875 63.234375 
Q 38.140625 66.40625 31.78125 66.40625 
Q 25.390625 66.40625 21.84375 63.234375 
Q 18.3125 60.0625 18.3125 54.390625 
z
" id="DejaVuSans-56"/>
       </defs>
       <use xlink:href="#DejaVuSans-48"/>
       <use x="63.623047" xlink:href="#DejaVuSans-46"/>
       <use x="95.410156" xlink:href="#DejaVuSans-56"/>
      </g>
     </g>
    </g>
    <g id="xtick_6">
     <g id="line2d_6">
      <g>
       <use style="stroke:#000000;stroke-width:0.8;" x="625.536776" xlink:href="#m4453b53b31" y="450.72"/>
      </g>
     </g>
     <g id="text_6">
      <!-- 1.0 -->
      <g transform="translate(605.657869 476.716094)scale(0.25 -0.25)">
       <defs>
        <path d="M 12.40625 8.296875 
L 28.515625 8.296875 
L 28.515625 63.921875 
L 10.984375 60.40625 
L 10.984375 69.390625 
L 28.421875 72.90625 
L 38.28125 72.90625 
L 38.28125 8.296875 
L 54.390625 8.296875 
L 54.390625 0 
L 12.40625 0 
z
" id="DejaVuSans-49"/>
       </defs>
       <use xlink:href="#DejaVuSans-49"/>
       <use x="63.623047" xlink:href="#DejaVuSans-46"/>
       <use x="95.410156" xlink:href="#DejaVuSans-48"/>
      </g>
     </g>
    </g>
    <g id="xtick_7">
     <g id="line2d_7">
      <g>
       <use style="stroke:#000000;stroke-width:0.8;" x="726.991321" xlink:href="#m4453b53b31" y="450.72"/>
      </g>
     </g>
     <g id="text_7">
      <!-- 1.2 -->
      <g transform="translate(707.112415 476.716094)scale(0.25 -0.25)">
       <use xlink:href="#DejaVuSans-49"/>
       <use x="63.623047" xlink:href="#DejaVuSans-46"/>
       <use x="95.410156" xlink:href="#DejaVuSans-50"/>
      </g>
     </g>
    </g>
    <g id="xtick_8">
     <g id="line2d_8">
      <g>
       <use style="stroke:#000000;stroke-width:0.8;" x="828.445866" xlink:href="#m4453b53b31" y="450.72"/>
      </g>
     </g>
     <g id="text_8">
      <!-- 1.4 -->
      <g transform="translate(808.56696 476.716094)scale(0.25 -0.25)">
       <use xlink:href="#DejaVuSans-49"/>
       <use x="63.623047" xlink:href="#DejaVuSans-46"/>
       <use x="95.410156" xlink:href="#DejaVuSans-52"/>
      </g>
     </g>
    </g>
    <g id="text_9">
     <!-- Beam Length [m] -->
     <g transform="translate(385.259063 505.67125)scale(0.26 -0.26)">
      <defs>
       <path d="M 19.671875 34.8125 
L 19.671875 8.109375 
L 35.5 8.109375 
Q 43.453125 8.109375 47.28125 11.40625 
Q 51.125 14.703125 51.125 21.484375 
Q 51.125 28.328125 47.28125 31.5625 
Q 43.453125 34.8125 35.5 34.8125 
z
M 19.671875 64.796875 
L 19.671875 42.828125 
L 34.28125 42.828125 
Q 41.5 42.828125 45.03125 45.53125 
Q 48.578125 48.25 48.578125 53.8125 
Q 48.578125 59.328125 45.03125 62.0625 
Q 41.5 64.796875 34.28125 64.796875 
z
M 9.8125 72.90625 
L 35.015625 72.90625 
Q 46.296875 72.90625 52.390625 68.21875 
Q 58.5 63.53125 58.5 54.890625 
Q 58.5 48.1875 55.375 44.234375 
Q 52.25 40.28125 46.1875 39.3125 
Q 53.46875 37.75 57.5 32.78125 
Q 61.53125 27.828125 61.53125 20.40625 
Q 61.53125 10.640625 54.890625 5.3125 
Q 48.25 0 35.984375 0 
L 9.8125 0 
z
" id="DejaVuSans-66"/>
       <path d="M 56.203125 29.59375 
L 56.203125 25.203125 
L 14.890625 25.203125 
Q 15.484375 15.921875 20.484375 11.0625 
Q 25.484375 6.203125 34.421875 6.203125 
Q 39.59375 6.203125 44.453125 7.46875 
Q 49.3125 8.734375 54.109375 11.28125 
L 54.109375 2.78125 
Q 49.265625 0.734375 44.1875 -0.34375 
Q 39.109375 -1.421875 33.890625 -1.421875 
Q 20.796875 -1.421875 13.15625 6.1875 
Q 5.515625 13.8125 5.515625 26.8125 
Q 5.515625 40.234375 12.765625 48.109375 
Q 20.015625 56 32.328125 56 
Q 43.359375 56 49.78125 48.890625 
Q 56.203125 41.796875 56.203125 29.59375 
z
M 47.21875 32.234375 
Q 47.125 39.59375 43.09375 43.984375 
Q 39.0625 48.390625 32.421875 48.390625 
Q 24.90625 48.390625 20.390625 44.140625 
Q 15.875 39.890625 15.1875 32.171875 
z
" id="DejaVuSans-101"/>
       <path d="M 34.28125 27.484375 
Q 23.390625 27.484375 19.1875 25 
Q 14.984375 22.515625 14.984375 16.5 
Q 14.984375 11.71875 18.140625 8.90625 
Q 21.296875 6.109375 26.703125 6.109375 
Q 34.1875 6.109375 38.703125 11.40625 
Q 43.21875 16.703125 43.21875 25.484375 
L 43.21875 27.484375 
z
M 52.203125 31.203125 
L 52.203125 0 
L 43.21875 0 
L 43.21875 8.296875 
Q 40.140625 3.328125 35.546875 0.953125 
Q 30.953125 -1.421875 24.3125 -1.421875 
Q 15.921875 -1.421875 10.953125 3.296875 
Q 6 8.015625 6 15.921875 
Q 6 25.140625 12.171875 29.828125 
Q 18.359375 34.515625 30.609375 34.515625 
L 43.21875 34.515625 
L 43.21875 35.40625 
Q 43.21875 41.609375 39.140625 45 
Q 35.0625 48.390625 27.6875 48.390625 
Q 23 48.390625 18.546875 47.265625 
Q 14.109375 46.140625 10.015625 43.890625 
L 10.015625 52.203125 
Q 14.9375 54.109375 19.578125 55.046875 
Q 24.21875 56 28.609375 56 
Q 40.484375 56 46.34375 49.84375 
Q 52.203125 43.703125 52.203125 31.203125 
z
" id="DejaVuSans-97"/>
       <path d="M 52 44.1875 
Q 55.375 50.25 60.0625 53.125 
Q 64.75 56 71.09375 56 
Q 79.640625 56 84.28125 50.015625 
Q 88.921875 44.046875 88.921875 33.015625 
L 88.921875 0 
L 79.890625 0 
L 79.890625 32.71875 
Q 79.890625 40.578125 77.09375 44.375 
Q 74.3125 48.1875 68.609375 48.1875 
Q 61.625 48.1875 57.5625 43.546875 
Q 53.515625 38.921875 53.515625 30.90625 
L 53.515625 0 
L 44.484375 0 
L 44.484375 32.71875 
Q 44.484375 40.625 41.703125 44.40625 
Q 38.921875 48.1875 33.109375 48.1875 
Q 26.21875 48.1875 22.15625 43.53125 
Q 18.109375 38.875 18.109375 30.90625 
L 18.109375 0 
L 9.078125 0 
L 9.078125 54.6875 
L 18.109375 54.6875 
L 18.109375 46.1875 
Q 21.1875 51.21875 25.484375 53.609375 
Q 29.78125 56 35.6875 56 
Q 41.65625 56 45.828125 52.96875 
Q 50 49.953125 52 44.1875 
z
" id="DejaVuSans-109"/>
       <path id="DejaVuSans-32"/>
       <path d="M 9.8125 72.90625 
L 19.671875 72.90625 
L 19.671875 8.296875 
L 55.171875 8.296875 
L 55.171875 0 
L 9.8125 0 
z
" id="DejaVuSans-76"/>
       <path d="M 54.890625 33.015625 
L 54.890625 0 
L 45.90625 0 
L 45.90625 32.71875 
Q 45.90625 40.484375 42.875 44.328125 
Q 39.84375 48.1875 33.796875 48.1875 
Q 26.515625 48.1875 22.3125 43.546875 
Q 18.109375 38.921875 18.109375 30.90625 
L 18.109375 0 
L 9.078125 0 
L 9.078125 54.6875 
L 18.109375 54.6875 
L 18.109375 46.1875 
Q 21.34375 51.125 25.703125 53.5625 
Q 30.078125 56 35.796875 56 
Q 45.21875 56 50.046875 50.171875 
Q 54.890625 44.34375 54.890625 33.015625 
z
" id="DejaVuSans-110"/>
       <path d="M 45.40625 27.984375 
Q 45.40625 37.75 41.375 43.109375 
Q 37.359375 48.484375 30.078125 48.484375 
Q 22.859375 48.484375 18.828125 43.109375 
Q 14.796875 37.75 14.796875 27.984375 
Q 14.796875 18.265625 18.828125 12.890625 
Q 22.859375 7.515625 30.078125 7.515625 
Q 37.359375 7.515625 41.375 12.890625 
Q 45.40625 18.265625 45.40625 27.984375 
z
M 54.390625 6.78125 
Q 54.390625 -7.171875 48.1875 -13.984375 
Q 42 -20.796875 29.203125 -20.796875 
Q 24.46875 -20.796875 20.265625 -20.09375 
Q 16.0625 -19.390625 12.109375 -17.921875 
L 12.109375 -9.1875 
Q 16.0625 -11.328125 19.921875 -12.34375 
Q 23.78125 -13.375 27.78125 -13.375 
Q 36.625 -13.375 41.015625 -8.765625 
Q 45.40625 -4.15625 45.40625 5.171875 
L 45.40625 9.625 
Q 42.625 4.78125 38.28125 2.390625 
Q 33.9375 0 27.875 0 
Q 17.828125 0 11.671875 7.65625 
Q 5.515625 15.328125 5.515625 27.984375 
Q 5.515625 40.671875 11.671875 48.328125 
Q 17.828125 56 27.875 56 
Q 33.9375 56 38.28125 53.609375 
Q 42.625 51.21875 45.40625 46.390625 
L 45.40625 54.6875 
L 54.390625 54.6875 
z
" id="DejaVuSans-103"/>
       <path d="M 18.3125 70.21875 
L 18.3125 54.6875 
L 36.8125 54.6875 
L 36.8125 47.703125 
L 18.3125 47.703125 
L 18.3125 18.015625 
Q 18.3125 11.328125 20.140625 9.421875 
Q 21.96875 7.515625 27.59375 7.515625 
L 36.8125 7.515625 
L 36.8125 0 
L 27.59375 0 
Q 17.1875 0 13.234375 3.875 
Q 9.28125 7.765625 9.28125 18.015625 
L 9.28125 47.703125 
L 2.6875 47.703125 
L 2.6875 54.6875 
L 9.28125 54.6875 
L 9.28125 70.21875 
z
" id="DejaVuSans-116"/>
       <path d="M 54.890625 33.015625 
L 54.890625 0 
L 45.90625 0 
L 45.90625 32.71875 
Q 45.90625 40.484375 42.875 44.328125 
Q 39.84375 48.1875 33.796875 48.1875 
Q 26.515625 48.1875 22.3125 43.546875 
Q 18.109375 38.921875 18.109375 30.90625 
L 18.109375 0 
L 9.078125 0 
L 9.078125 75.984375 
L 18.109375 75.984375 
L 18.109375 46.1875 
Q 21.34375 51.125 25.703125 53.5625 
Q 30.078125 56 35.796875 56 
Q 45.21875 56 50.046875 50.171875 
Q 54.890625 44.34375 54.890625 33.015625 
z
" id="DejaVuSans-104"/>
       <path d="M 8.59375 75.984375 
L 29.296875 75.984375 
L 29.296875 69 
L 17.578125 69 
L 17.578125 -6.203125 
L 29.296875 -6.203125 
L 29.296875 -13.1875 
L 8.59375 -13.1875 
z
" id="DejaVuSans-91"/>
       <path d="M 30.421875 75.984375 
L 30.421875 -13.1875 
L 9.71875 -13.1875 
L 9.71875 -6.203125 
L 21.390625 -6.203125 
L 21.390625 69 
L 9.71875 69 
L 9.71875 75.984375 
z
" id="DejaVuSans-93"/>
      </defs>
      <use xlink:href="#DejaVuSans-66"/>
      <use x="68.603516" xlink:href="#DejaVuSans-101"/>
      <use x="130.126953" xlink:href="#DejaVuSans-97"/>
      <use x="191.40625" xlink:href="#DejaVuSans-109"/>
      <use x="288.818359" xlink:href="#DejaVuSans-32"/>
      <use x="320.605469" xlink:href="#DejaVuSans-76"/>
      <use x="374.568359" xlink:href="#DejaVuSans-101"/>
      <use x="436.091797" xlink:href="#DejaVuSans-110"/>
      <use x="499.470703" xlink:href="#DejaVuSans-103"/>
      <use x="562.947266" xlink:href="#DejaVuSans-116"/>
      <use x="602.15625" xlink:href="#DejaVuSans-104"/>
      <use x="665.535156" xlink:href="#DejaVuSans-32"/>
      <use x="697.322266" xlink:href="#DejaVuSans-91"/>
      <use x="736.335938" xlink:href="#DejaVuSans-109"/>
      <use x="833.748047" xlink:href="#DejaVuSans-93"/>
     </g>
    </g>
   </g>
   <g id="matplotlib.axis_2">
    <g id="ytick_1">
     <g id="line2d_9">
      <defs>
       <path d="M 0 0 
L -3.5 0 
" id="m5263d16456" style="stroke:#000000;stroke-width:0.8;"/>
      </defs>
      <g>
       <use style="stroke:#000000;stroke-width:0.8;" x="80.218594" xlink:href="#m5263d16456" y="445.835255"/>
      </g>
     </g>
     <g id="text_10">
      <!-- −3 -->
      <g transform="translate(36.363125 455.333302)scale(0.25 -0.25)">
       <defs>
        <path d="M 10.59375 35.5 
L 73.1875 35.5 
L 73.1875 27.203125 
L 10.59375 27.203125 
z
" id="DejaVuSans-8722"/>
        <path d="M 40.578125 39.3125 
Q 47.65625 37.796875 51.625 33 
Q 55.609375 28.21875 55.609375 21.1875 
Q 55.609375 10.40625 48.1875 4.484375 
Q 40.765625 -1.421875 27.09375 -1.421875 
Q 22.515625 -1.421875 17.65625 -0.515625 
Q 12.796875 0.390625 7.625 2.203125 
L 7.625 11.71875 
Q 11.71875 9.328125 16.59375 8.109375 
Q 21.484375 6.890625 26.8125 6.890625 
Q 36.078125 6.890625 40.9375 10.546875 
Q 45.796875 14.203125 45.796875 21.1875 
Q 45.796875 27.640625 41.28125 31.265625 
Q 36.765625 34.90625 28.71875 34.90625 
L 20.21875 34.90625 
L 20.21875 43.015625 
L 29.109375 43.015625 
Q 36.375 43.015625 40.234375 45.921875 
Q 44.09375 48.828125 44.09375 54.296875 
Q 44.09375 59.90625 40.109375 62.90625 
Q 36.140625 65.921875 28.71875 65.921875 
Q 24.65625 65.921875 20.015625 65.03125 
Q 15.375 64.15625 9.8125 62.3125 
L 9.8125 71.09375 
Q 15.4375 72.65625 20.34375 73.4375 
Q 25.25 74.21875 29.59375 74.21875 
Q 40.828125 74.21875 47.359375 69.109375 
Q 53.90625 64.015625 53.90625 55.328125 
Q 53.90625 49.265625 50.4375 45.09375 
Q 46.96875 40.921875 40.578125 39.3125 
z
" id="DejaVuSans-51"/>
       </defs>
       <use xlink:href="#DejaVuSans-8722"/>
       <use x="83.789062" xlink:href="#DejaVuSans-51"/>
      </g>
     </g>
    </g>
    <g id="ytick_2">
     <g id="line2d_10">
      <g>
       <use style="stroke:#000000;stroke-width:0.8;" x="80.218594" xlink:href="#m5263d16456" y="365.413908"/>
      </g>
     </g>
     <g id="text_11">
      <!-- −2 -->
      <g transform="translate(36.363125 374.911954)scale(0.25 -0.25)">
       <use xlink:href="#DejaVuSans-8722"/>
       <use x="83.789062" xlink:href="#DejaVuSans-50"/>
      </g>
     </g>
    </g>
    <g id="ytick_3">
     <g id="line2d_11">
      <g>
       <use style="stroke:#000000;stroke-width:0.8;" x="80.218594" xlink:href="#m5263d16456" y="284.99256"/>
      </g>
     </g>
     <g id="text_12">
      <!-- −1 -->
      <g transform="translate(36.363125 294.490607)scale(0.25 -0.25)">
       <use xlink:href="#DejaVuSans-8722"/>
       <use x="83.789062" xlink:href="#DejaVuSans-49"/>
      </g>
     </g>
    </g>
    <g id="ytick_4">
     <g id="line2d_12">
      <g>
       <use style="stroke:#000000;stroke-width:0.8;" x="80.218594" xlink:href="#m5263d16456" y="204.571213"/>
      </g>
     </g>
     <g id="text_13">
      <!-- 0 -->
      <g transform="translate(57.312344 214.06926)scale(0.25 -0.25)">
       <use xlink:href="#DejaVuSans-48"/>
      </g>
     </g>
    </g>
    <g id="ytick_5">
     <g id="line2d_13">
      <g>
       <use style="stroke:#000000;stroke-width:0.8;" x="80.218594" xlink:href="#m5263d16456" y="124.149866"/>
      </g>
     </g>
     <g id="text_14">
      <!-- 1 -->
      <g transform="translate(57.312344 133.647913)scale(0.25 -0.25)">
       <use xlink:href="#DejaVuSans-49"/>
      </g>
     </g>
    </g>
    <g id="ytick_6">
     <g id="line2d_14">
      <g>
       <use style="stroke:#000000;stroke-width:0.8;" x="80.218594" xlink:href="#m5263d16456" y="43.728519"/>
      </g>
     </g>
     <g id="text_15">
      <!-- 2 -->
      <g transform="translate(57.312344 53.226566)scale(0.25 -0.25)">
       <use xlink:href="#DejaVuSans-50"/>
      </g>
     </g>
    </g>
    <g id="text_16">
     <!-- Amplitude -->
     <g transform="translate(26.955938 295.578906)rotate(-90)scale(0.26 -0.26)">
      <defs>
       <path d="M 34.1875 63.1875 
L 20.796875 26.90625 
L 47.609375 26.90625 
z
M 28.609375 72.90625 
L 39.796875 72.90625 
L 67.578125 0 
L 57.328125 0 
L 50.6875 18.703125 
L 17.828125 18.703125 
L 11.1875 0 
L 0.78125 0 
z
" id="DejaVuSans-65"/>
       <path d="M 18.109375 8.203125 
L 18.109375 -20.796875 
L 9.078125 -20.796875 
L 9.078125 54.6875 
L 18.109375 54.6875 
L 18.109375 46.390625 
Q 20.953125 51.265625 25.265625 53.625 
Q 29.59375 56 35.59375 56 
Q 45.5625 56 51.78125 48.09375 
Q 58.015625 40.1875 58.015625 27.296875 
Q 58.015625 14.40625 51.78125 6.484375 
Q 45.5625 -1.421875 35.59375 -1.421875 
Q 29.59375 -1.421875 25.265625 0.953125 
Q 20.953125 3.328125 18.109375 8.203125 
z
M 48.6875 27.296875 
Q 48.6875 37.203125 44.609375 42.84375 
Q 40.53125 48.484375 33.40625 48.484375 
Q 26.265625 48.484375 22.1875 42.84375 
Q 18.109375 37.203125 18.109375 27.296875 
Q 18.109375 17.390625 22.1875 11.75 
Q 26.265625 6.109375 33.40625 6.109375 
Q 40.53125 6.109375 44.609375 11.75 
Q 48.6875 17.390625 48.6875 27.296875 
z
" id="DejaVuSans-112"/>
       <path d="M 9.421875 75.984375 
L 18.40625 75.984375 
L 18.40625 0 
L 9.421875 0 
z
" id="DejaVuSans-108"/>
       <path d="M 9.421875 54.6875 
L 18.40625 54.6875 
L 18.40625 0 
L 9.421875 0 
z
M 9.421875 75.984375 
L 18.40625 75.984375 
L 18.40625 64.59375 
L 9.421875 64.59375 
z
" id="DejaVuSans-105"/>
       <path d="M 8.5 21.578125 
L 8.5 54.6875 
L 17.484375 54.6875 
L 17.484375 21.921875 
Q 17.484375 14.15625 20.5 10.265625 
Q 23.53125 6.390625 29.59375 6.390625 
Q 36.859375 6.390625 41.078125 11.03125 
Q 45.3125 15.671875 45.3125 23.6875 
L 45.3125 54.6875 
L 54.296875 54.6875 
L 54.296875 0 
L 45.3125 0 
L 45.3125 8.40625 
Q 42.046875 3.421875 37.71875 1 
Q 33.40625 -1.421875 27.6875 -1.421875 
Q 18.265625 -1.421875 13.375 4.4375 
Q 8.5 10.296875 8.5 21.578125 
z
M 31.109375 56 
z
" id="DejaVuSans-117"/>
       <path d="M 45.40625 46.390625 
L 45.40625 75.984375 
L 54.390625 75.984375 
L 54.390625 0 
L 45.40625 0 
L 45.40625 8.203125 
Q 42.578125 3.328125 38.25 0.953125 
Q 33.9375 -1.421875 27.875 -1.421875 
Q 17.96875 -1.421875 11.734375 6.484375 
Q 5.515625 14.40625 5.515625 27.296875 
Q 5.515625 40.1875 11.734375 48.09375 
Q 17.96875 56 27.875 56 
Q 33.9375 56 38.25 53.625 
Q 42.578125 51.265625 45.40625 46.390625 
z
M 14.796875 27.296875 
Q 14.796875 17.390625 18.875 11.75 
Q 22.953125 6.109375 30.078125 6.109375 
Q 37.203125 6.109375 41.296875 11.75 
Q 45.40625 17.390625 45.40625 27.296875 
Q 45.40625 37.203125 41.296875 42.84375 
Q 37.203125 48.484375 30.078125 48.484375 
Q 22.953125 48.484375 18.875 42.84375 
Q 14.796875 37.203125 14.796875 27.296875 
z
" id="DejaVuSans-100"/>
      </defs>
      <use xlink:href="#DejaVuSans-65"/>
      <use x="68.408203" xlink:href="#DejaVuSans-109"/>
      <use x="165.820312" xlink:href="#DejaVuSans-112"/>
      <use x="229.296875" xlink:href="#DejaVuSans-108"/>
      <use x="257.080078" xlink:href="#DejaVuSans-105"/>
      <use x="284.863281" xlink:href="#DejaVuSans-116"/>
      <use x="324.072266" xlink:href="#DejaVuSans-117"/>
      <use x="387.451172" xlink:href="#DejaVuSans-100"/>
      <use x="450.927734" xlink:href="#DejaVuSans-101"/>
     </g>
    </g>
   </g>
   <g id="line2d_15">
    <defs>
     <path d="M 0 -3 
L -3 3 
L 3 3 
z
" id="m2cfffd7f62" style="stroke:#000000;stroke-linejoin:miter;"/>
    </defs>
    <g clip-path="url(#pc07500a041)">
     <use style="stroke:#000000;stroke-linejoin:miter;" x="118.264048" xlink:href="#m2cfffd7f62" y="204.571213"/>
     <use style="stroke:#000000;stroke-linejoin:miter;" x="123.336776" xlink:href="#m2cfffd7f62" y="205.466126"/>
     <use style="stroke:#000000;stroke-linejoin:miter;" x="128.409503" xlink:href="#m2cfffd7f62" y="208.024242"/>
     <use style="stroke:#000000;stroke-linejoin:miter;" x="133.48223" xlink:href="#m2cfffd7f62" y="212.068349"/>
     <use style="stroke:#000000;stroke-linejoin:miter;" x="138.554957" xlink:href="#m2cfffd7f62" y="217.421973"/>
     <use style="stroke:#000000;stroke-linejoin:miter;" x="143.627685" xlink:href="#m2cfffd7f62" y="223.909724"/>
     <use style="stroke:#000000;stroke-linejoin:miter;" x="148.700412" xlink:href="#m2cfffd7f62" y="231.357726"/>
     <use style="stroke:#000000;stroke-linejoin:miter;" x="153.773139" xlink:href="#m2cfffd7f62" y="239.594179"/>
     <use style="stroke:#000000;stroke-linejoin:miter;" x="158.845866" xlink:href="#m2cfffd7f62" y="248.449931"/>
     <use style="stroke:#000000;stroke-linejoin:miter;" x="163.918594" xlink:href="#m2cfffd7f62" y="257.759158"/>
     <use style="stroke:#000000;stroke-linejoin:miter;" x="168.991321" xlink:href="#m2cfffd7f62" y="267.360059"/>
     <use style="stroke:#000000;stroke-linejoin:miter;" x="174.064048" xlink:href="#m2cfffd7f62" y="277.095595"/>
     <use style="stroke:#000000;stroke-linejoin:miter;" x="179.136776" xlink:href="#m2cfffd7f62" y="286.814249"/>
     <use style="stroke:#000000;stroke-linejoin:miter;" x="184.209503" xlink:href="#m2cfffd7f62" y="296.370748"/>
     <use style="stroke:#000000;stroke-linejoin:miter;" x="189.28223" xlink:href="#m2cfffd7f62" y="305.626976"/>
     <use style="stroke:#000000;stroke-linejoin:miter;" x="194.354957" xlink:href="#m2cfffd7f62" y="314.452353"/>
     <use style="stroke:#000000;stroke-linejoin:miter;" x="199.427685" xlink:href="#m2cfffd7f62" y="322.725065"/>
     <use style="stroke:#000000;stroke-linejoin:miter;" x="204.500412" xlink:href="#m2cfffd7f62" y="330.332225"/>
     <use style="stroke:#000000;stroke-linejoin:miter;" x="209.573139" xlink:href="#m2cfffd7f62" y="337.17084"/>
     <use style="stroke:#000000;stroke-linejoin:miter;" x="214.645866" xlink:href="#m2cfffd7f62" y="343.148288"/>
     <use style="stroke:#000000;stroke-linejoin:miter;" x="219.718594" xlink:href="#m2cfffd7f62" y="348.182728"/>
     <use style="stroke:#000000;stroke-linejoin:miter;" x="224.791321" xlink:href="#m2cfffd7f62" y="352.203657"/>
     <use style="stroke:#000000;stroke-linejoin:miter;" x="229.864048" xlink:href="#m2cfffd7f62" y="355.152233"/>
     <use style="stroke:#000000;stroke-linejoin:miter;" x="234.936776" xlink:href="#m2cfffd7f62" y="356.981598"/>
     <use style="stroke:#000000;stroke-linejoin:miter;" x="240.009503" xlink:href="#m2cfffd7f62" y="357.656878"/>
     <use style="stroke:#000000;stroke-linejoin:miter;" x="245.08223" xlink:href="#m2cfffd7f62" y="357.155501"/>
     <use style="stroke:#000000;stroke-linejoin:miter;" x="250.154957" xlink:href="#m2cfffd7f62" y="355.467284"/>
     <use style="stroke:#000000;stroke-linejoin:miter;" x="255.227685" xlink:href="#m2cfffd7f62" y="352.593863"/>
     <use style="stroke:#000000;stroke-linejoin:miter;" x="260.300412" xlink:href="#m2cfffd7f62" y="348.549182"/>
     <use style="stroke:#000000;stroke-linejoin:miter;" x="265.373139" xlink:href="#m2cfffd7f62" y="343.358684"/>
     <use style="stroke:#000000;stroke-linejoin:miter;" x="270.445866" xlink:href="#m2cfffd7f62" y="337.059313"/>
     <use style="stroke:#000000;stroke-linejoin:miter;" x="275.518594" xlink:href="#m2cfffd7f62" y="329.698709"/>
     <use style="stroke:#000000;stroke-linejoin:miter;" x="280.591321" xlink:href="#m2cfffd7f62" y="321.335048"/>
     <use style="stroke:#000000;stroke-linejoin:miter;" x="285.664048" xlink:href="#m2cfffd7f62" y="312.036158"/>
     <use style="stroke:#000000;stroke-linejoin:miter;" x="290.736776" xlink:href="#m2cfffd7f62" y="301.878874"/>
     <use style="stroke:#000000;stroke-linejoin:miter;" x="295.809503" xlink:href="#m2cfffd7f62" y="290.948474"/>
     <use style="stroke:#000000;stroke-linejoin:miter;" x="300.88223" xlink:href="#m2cfffd7f62" y="279.337501"/>
     <use style="stroke:#000000;stroke-linejoin:miter;" x="305.954957" xlink:href="#m2cfffd7f62" y="267.145116"/>
     <use style="stroke:#000000;stroke-linejoin:miter;" x="311.027685" xlink:href="#m2cfffd7f62" y="254.476085"/>
     <use style="stroke:#000000;stroke-linejoin:miter;" x="316.100412" xlink:href="#m2cfffd7f62" y="241.439802"/>
     <use style="stroke:#000000;stroke-linejoin:miter;" x="321.173139" xlink:href="#m2cfffd7f62" y="228.14926"/>
     <use style="stroke:#000000;stroke-linejoin:miter;" x="326.245866" xlink:href="#m2cfffd7f62" y="214.720016"/>
     <use style="stroke:#000000;stroke-linejoin:miter;" x="331.318594" xlink:href="#m2cfffd7f62" y="201.269114"/>
     <use style="stroke:#000000;stroke-linejoin:miter;" x="336.391321" xlink:href="#m2cfffd7f62" y="187.91403"/>
     <use style="stroke:#000000;stroke-linejoin:miter;" x="341.464048" xlink:href="#m2cfffd7f62" y="174.771598"/>
     <use style="stroke:#000000;stroke-linejoin:miter;" x="346.536776" xlink:href="#m2cfffd7f62" y="161.956938"/>
     <use style="stroke:#000000;stroke-linejoin:miter;" x="351.609503" xlink:href="#m2cfffd7f62" y="149.582421"/>
     <use style="stroke:#000000;stroke-linejoin:miter;" x="356.68223" xlink:href="#m2cfffd7f62" y="137.756687"/>
     <use style="stroke:#000000;stroke-linejoin:miter;" x="361.754957" xlink:href="#m2cfffd7f62" y="126.583582"/>
     <use style="stroke:#000000;stroke-linejoin:miter;" x="366.827685" xlink:href="#m2cfffd7f62" y="116.161429"/>
     <use style="stroke:#000000;stroke-linejoin:miter;" x="371.900412" xlink:href="#m2cfffd7f62" y="106.58181"/>
     <use style="stroke:#000000;stroke-linejoin:miter;" x="376.973139" xlink:href="#m2cfffd7f62" y="97.929128"/>
     <use style="stroke:#000000;stroke-linejoin:miter;" x="382.045866" xlink:href="#m2cfffd7f62" y="90.279503"/>
     <use style="stroke:#000000;stroke-linejoin:miter;" x="387.118594" xlink:href="#m2cfffd7f62" y="83.700449"/>
     <use style="stroke:#000000;stroke-linejoin:miter;" x="392.191321" xlink:href="#m2cfffd7f62" y="78.249991"/>
     <use style="stroke:#000000;stroke-linejoin:miter;" x="397.264048" xlink:href="#m2cfffd7f62" y="73.976264"/>
     <use style="stroke:#000000;stroke-linejoin:miter;" x="402.336776" xlink:href="#m2cfffd7f62" y="70.917187"/>
     <use style="stroke:#000000;stroke-linejoin:miter;" x="407.409503" xlink:href="#m2cfffd7f62" y="69.099906"/>
     <use style="stroke:#000000;stroke-linejoin:miter;" x="412.48223" xlink:href="#m2cfffd7f62" y="68.540631"/>
     <use style="stroke:#000000;stroke-linejoin:miter;" x="417.554957" xlink:href="#m2cfffd7f62" y="69.244791"/>
     <use style="stroke:#000000;stroke-linejoin:miter;" x="422.627685" xlink:href="#m2cfffd7f62" y="71.206561"/>
     <use style="stroke:#000000;stroke-linejoin:miter;" x="427.700412" xlink:href="#m2cfffd7f62" y="74.409097"/>
     <use style="stroke:#000000;stroke-linejoin:miter;" x="432.773139" xlink:href="#m2cfffd7f62" y="78.824859"/>
     <use style="stroke:#000000;stroke-linejoin:miter;" x="437.845866" xlink:href="#m2cfffd7f62" y="84.415373"/>
     <use style="stroke:#000000;stroke-linejoin:miter;" x="442.918594" xlink:href="#m2cfffd7f62" y="91.132268"/>
     <use style="stroke:#000000;stroke-linejoin:miter;" x="447.991321" xlink:href="#m2cfffd7f62" y="98.917127"/>
     <use style="stroke:#000000;stroke-linejoin:miter;" x="453.064048" xlink:href="#m2cfffd7f62" y="107.7022"/>
     <use style="stroke:#000000;stroke-linejoin:miter;" x="458.136776" xlink:href="#m2cfffd7f62" y="117.411215"/>
     <use style="stroke:#000000;stroke-linejoin:miter;" x="463.209503" xlink:href="#m2cfffd7f62" y="127.959617"/>
     <use style="stroke:#000000;stroke-linejoin:miter;" x="468.28223" xlink:href="#m2cfffd7f62" y="139.255716"/>
     <use style="stroke:#000000;stroke-linejoin:miter;" x="473.354957" xlink:href="#m2cfffd7f62" y="151.201264"/>
     <use style="stroke:#000000;stroke-linejoin:miter;" x="478.427685" xlink:href="#m2cfffd7f62" y="163.692439"/>
     <use style="stroke:#000000;stroke-linejoin:miter;" x="483.500412" xlink:href="#m2cfffd7f62" y="176.620702"/>
     <use style="stroke:#000000;stroke-linejoin:miter;" x="488.573139" xlink:href="#m2cfffd7f62" y="189.873778"/>
     <use style="stroke:#000000;stroke-linejoin:miter;" x="493.645866" xlink:href="#m2cfffd7f62" y="203.336641"/>
     <use style="stroke:#000000;stroke-linejoin:miter;" x="498.718594" xlink:href="#m2cfffd7f62" y="216.892517"/>
     <use style="stroke:#000000;stroke-linejoin:miter;" x="503.791321" xlink:href="#m2cfffd7f62" y="230.42391"/>
     <use style="stroke:#000000;stroke-linejoin:miter;" x="508.864048" xlink:href="#m2cfffd7f62" y="243.813662"/>
     <use style="stroke:#000000;stroke-linejoin:miter;" x="513.936776" xlink:href="#m2cfffd7f62" y="256.945953"/>
     <use style="stroke:#000000;stroke-linejoin:miter;" x="519.009503" xlink:href="#m2cfffd7f62" y="269.707341"/>
     <use style="stroke:#000000;stroke-linejoin:miter;" x="524.08223" xlink:href="#m2cfffd7f62" y="281.987729"/>
     <use style="stroke:#000000;stroke-linejoin:miter;" x="529.154957" xlink:href="#m2cfffd7f62" y="293.681355"/>
     <use style="stroke:#000000;stroke-linejoin:miter;" x="534.227685" xlink:href="#m2cfffd7f62" y="304.687764"/>
     <use style="stroke:#000000;stroke-linejoin:miter;" x="539.300412" xlink:href="#m2cfffd7f62" y="314.912494"/>
     <use style="stroke:#000000;stroke-linejoin:miter;" x="544.373139" xlink:href="#m2cfffd7f62" y="324.268231"/>
     <use style="stroke:#000000;stroke-linejoin:miter;" x="549.445866" xlink:href="#m2cfffd7f62" y="332.675262"/>
     <use style="stroke:#000000;stroke-linejoin:miter;" x="554.518594" xlink:href="#m2cfffd7f62" y="340.062389"/>
     <use style="stroke:#000000;stroke-linejoin:miter;" x="559.591321" xlink:href="#m2cfffd7f62" y="346.367414"/>
     <use style="stroke:#000000;stroke-linejoin:miter;" x="564.664048" xlink:href="#m2cfffd7f62" y="351.537799"/>
     <use style="stroke:#000000;stroke-linejoin:miter;" x="569.736776" xlink:href="#m2cfffd7f62" y="355.530985"/>
     <use style="stroke:#000000;stroke-linejoin:miter;" x="574.809503" xlink:href="#m2cfffd7f62" y="358.31493"/>
     <use style="stroke:#000000;stroke-linejoin:miter;" x="579.88223" xlink:href="#m2cfffd7f62" y="359.868228"/>
     <use style="stroke:#000000;stroke-linejoin:miter;" x="584.954957" xlink:href="#m2cfffd7f62" y="360.1804"/>
     <use style="stroke:#000000;stroke-linejoin:miter;" x="590.027685" xlink:href="#m2cfffd7f62" y="359.251984"/>
     <use style="stroke:#000000;stroke-linejoin:miter;" x="595.100412" xlink:href="#m2cfffd7f62" y="357.094456"/>
     <use style="stroke:#000000;stroke-linejoin:miter;" x="600.173139" xlink:href="#m2cfffd7f62" y="353.730318"/>
     <use style="stroke:#000000;stroke-linejoin:miter;" x="605.245866" xlink:href="#m2cfffd7f62" y="349.192673"/>
     <use style="stroke:#000000;stroke-linejoin:miter;" x="610.318594" xlink:href="#m2cfffd7f62" y="343.524938"/>
     <use style="stroke:#000000;stroke-linejoin:miter;" x="615.391321" xlink:href="#m2cfffd7f62" y="336.780812"/>
     <use style="stroke:#000000;stroke-linejoin:miter;" x="620.464048" xlink:href="#m2cfffd7f62" y="329.023328"/>
     <use style="stroke:#000000;stroke-linejoin:miter;" x="625.536776" xlink:href="#m2cfffd7f62" y="320.324594"/>
     <use style="stroke:#000000;stroke-linejoin:miter;" x="630.609503" xlink:href="#m2cfffd7f62" y="310.765181"/>
     <use style="stroke:#000000;stroke-linejoin:miter;" x="635.68223" xlink:href="#m2cfffd7f62" y="300.433379"/>
     <use style="stroke:#000000;stroke-linejoin:miter;" x="640.754957" xlink:href="#m2cfffd7f62" y="289.424219"/>
     <use style="stroke:#000000;stroke-linejoin:miter;" x="645.827685" xlink:href="#m2cfffd7f62" y="277.839082"/>
     <use style="stroke:#000000;stroke-linejoin:miter;" x="650.900412" xlink:href="#m2cfffd7f62" y="265.784436"/>
     <use style="stroke:#000000;stroke-linejoin:miter;" x="655.973139" xlink:href="#m2cfffd7f62" y="253.371096"/>
     <use style="stroke:#000000;stroke-linejoin:miter;" x="661.045866" xlink:href="#m2cfffd7f62" y="240.713218"/>
     <use style="stroke:#000000;stroke-linejoin:miter;" x="666.118594" xlink:href="#m2cfffd7f62" y="227.92736"/>
     <use style="stroke:#000000;stroke-linejoin:miter;" x="671.191321" xlink:href="#m2cfffd7f62" y="215.13142"/>
     <use style="stroke:#000000;stroke-linejoin:miter;" x="676.264048" xlink:href="#m2cfffd7f62" y="202.443699"/>
     <use style="stroke:#000000;stroke-linejoin:miter;" x="681.336776" xlink:href="#m2cfffd7f62" y="189.981784"/>
     <use style="stroke:#000000;stroke-linejoin:miter;" x="686.409503" xlink:href="#m2cfffd7f62" y="177.861683"/>
     <use style="stroke:#000000;stroke-linejoin:miter;" x="691.48223" xlink:href="#m2cfffd7f62" y="166.196696"/>
     <use style="stroke:#000000;stroke-linejoin:miter;" x="696.554957" xlink:href="#m2cfffd7f62" y="155.096571"/>
     <use style="stroke:#000000;stroke-linejoin:miter;" x="701.627685" xlink:href="#m2cfffd7f62" y="144.66651"/>
     <use style="stroke:#000000;stroke-linejoin:miter;" x="706.700412" xlink:href="#m2cfffd7f62" y="135.006346"/>
     <use style="stroke:#000000;stroke-linejoin:miter;" x="711.773139" xlink:href="#m2cfffd7f62" y="126.209674"/>
     <use style="stroke:#000000;stroke-linejoin:miter;" x="716.845866" xlink:href="#m2cfffd7f62" y="118.362987"/>
     <use style="stroke:#000000;stroke-linejoin:miter;" x="721.918594" xlink:href="#m2cfffd7f62" y="111.545316"/>
     <use style="stroke:#000000;stroke-linejoin:miter;" x="726.991321" xlink:href="#m2cfffd7f62" y="105.827269"/>
     <use style="stroke:#000000;stroke-linejoin:miter;" x="732.064048" xlink:href="#m2cfffd7f62" y="101.270435"/>
     <use style="stroke:#000000;stroke-linejoin:miter;" x="737.136776" xlink:href="#m2cfffd7f62" y="97.92732"/>
     <use style="stroke:#000000;stroke-linejoin:miter;" x="742.209503" xlink:href="#m2cfffd7f62" y="95.840611"/>
     <use style="stroke:#000000;stroke-linejoin:miter;" x="747.28223" xlink:href="#m2cfffd7f62" y="95.042952"/>
     <use style="stroke:#000000;stroke-linejoin:miter;" x="752.354957" xlink:href="#m2cfffd7f62" y="95.557093"/>
     <use style="stroke:#000000;stroke-linejoin:miter;" x="757.427685" xlink:href="#m2cfffd7f62" y="97.395324"/>
     <use style="stroke:#000000;stroke-linejoin:miter;" x="762.500412" xlink:href="#m2cfffd7f62" y="100.559735"/>
     <use style="stroke:#000000;stroke-linejoin:miter;" x="767.573139" xlink:href="#m2cfffd7f62" y="105.04259"/>
     <use style="stroke:#000000;stroke-linejoin:miter;" x="772.645866" xlink:href="#m2cfffd7f62" y="110.825955"/>
     <use style="stroke:#000000;stroke-linejoin:miter;" x="777.718594" xlink:href="#m2cfffd7f62" y="117.882622"/>
     <use style="stroke:#000000;stroke-linejoin:miter;" x="782.791321" xlink:href="#m2cfffd7f62" y="126.176259"/>
     <use style="stroke:#000000;stroke-linejoin:miter;" x="787.864048" xlink:href="#m2cfffd7f62" y="135.661957"/>
     <use style="stroke:#000000;stroke-linejoin:miter;" x="792.936776" xlink:href="#m2cfffd7f62" y="146.286919"/>
     <use style="stroke:#000000;stroke-linejoin:miter;" x="798.009503" xlink:href="#m2cfffd7f62" y="157.991113"/>
     <use style="stroke:#000000;stroke-linejoin:miter;" x="803.08223" xlink:href="#m2cfffd7f62" y="170.708148"/>
     <use style="stroke:#000000;stroke-linejoin:miter;" x="808.154957" xlink:href="#m2cfffd7f62" y="184.366146"/>
     <use style="stroke:#000000;stroke-linejoin:miter;" x="813.227685" xlink:href="#m2cfffd7f62" y="198.888673"/>
     <use style="stroke:#000000;stroke-linejoin:miter;" x="818.300412" xlink:href="#m2cfffd7f62" y="214.195879"/>
     <use style="stroke:#000000;stroke-linejoin:miter;" x="823.373139" xlink:href="#m2cfffd7f62" y="230.205517"/>
     <use style="stroke:#000000;stroke-linejoin:miter;" x="828.445866" xlink:href="#m2cfffd7f62" y="246.834183"/>
     <use style="stroke:#000000;stroke-linejoin:miter;" x="833.518594" xlink:href="#m2cfffd7f62" y="263.998511"/>
     <use style="stroke:#000000;stroke-linejoin:miter;" x="838.591321" xlink:href="#m2cfffd7f62" y="281.616464"/>
     <use style="stroke:#000000;stroke-linejoin:miter;" x="843.664048" xlink:href="#m2cfffd7f62" y="299.608666"/>
     <use style="stroke:#000000;stroke-linejoin:miter;" x="848.736776" xlink:href="#m2cfffd7f62" y="317.899769"/>
     <use style="stroke:#000000;stroke-linejoin:miter;" x="853.809503" xlink:href="#m2cfffd7f62" y="336.419672"/>
     <use style="stroke:#000000;stroke-linejoin:miter;" x="858.88223" xlink:href="#m2cfffd7f62" y="355.105403"/>
     <use style="stroke:#000000;stroke-linejoin:miter;" x="863.954957" xlink:href="#m2cfffd7f62" y="373.901802"/>
     <use style="stroke:#000000;stroke-linejoin:miter;" x="869.027685" xlink:href="#m2cfffd7f62" y="392.763736"/>
     <use style="stroke:#000000;stroke-linejoin:miter;" x="874.100412" xlink:href="#m2cfffd7f62" y="411.656962"/>
     <use style="stroke:#000000;stroke-linejoin:miter;" x="879.173139" xlink:href="#m2cfffd7f62" y="430.56"/>
    </g>
   </g>
   <g id="line2d_16">
    <path clip-path="url(#pc07500a041)" d="M 118.264048 204.571213 
L 123.336776 203.683576 
L 128.409503 201.148023 
L 133.48223 197.142038 
L 138.554957 191.842436 
L 143.627685 185.425008 
L 148.700412 178.064074 
L 153.773139 169.931932 
L 158.845866 161.198225 
L 163.918594 152.029276 
L 184.209503 114.169771 
L 189.28223 105.150824 
L 194.354957 96.582589 
L 199.427685 88.586774 
L 204.500412 81.275919 
L 209.573139 74.75235 
L 214.645866 69.1081 
L 219.718594 64.423943 
L 224.791321 60.769152 
L 229.864048 58.201103 
L 234.936776 56.764941 
L 240.009503 56.493674 
L 245.08223 57.40768 
L 250.154957 59.514794 
L 255.227685 62.810709 
L 260.300412 67.27881 
L 265.373139 72.890744 
L 270.445866 79.606496 
L 275.518594 87.375276 
L 280.591321 96.135678 
L 285.664048 105.816646 
L 290.736776 116.337957 
L 295.809503 127.611383 
L 300.88223 139.541071 
L 305.954957 152.024915 
L 311.027685 164.9553 
L 321.173139 191.704311 
L 336.391321 232.290488 
L 341.464048 245.468704 
L 346.536776 258.277235 
L 351.609503 270.603571 
L 356.68223 282.339405 
L 361.754957 293.381662 
L 366.827685 303.633421 
L 371.900412 313.004832 
L 376.973139 321.431731 
L 382.045866 328.860087 
L 387.118594 335.227862 
L 392.191321 340.481783 
L 397.264048 344.57863 
L 402.336776 347.484996 
L 407.409503 349.177927 
L 412.48223 349.644926 
L 417.554957 348.884191 
L 422.627685 346.904537 
L 427.700412 343.725477 
L 432.773139 339.376732 
L 437.845866 333.898246 
L 442.918594 327.339766 
L 447.991321 319.760454 
L 453.064048 311.228155 
L 458.136776 301.819161 
L 463.209503 291.617018 
L 468.28223 280.712437 
L 473.354957 269.202006 
L 478.427685 257.187561 
L 488.573139 232.074652 
L 508.864048 180.644994 
L 513.936776 168.197193 
L 519.009503 156.135269 
L 524.08223 144.565243 
L 529.154957 133.588815 
L 534.227685 123.302426 
L 539.300412 113.796478 
L 544.373139 105.154513 
L 549.445866 97.4526 
L 554.518594 90.758271 
L 559.591321 85.130602 
L 564.664048 80.619118 
L 569.736776 77.263609 
L 574.809503 75.093809 
L 579.88223 74.128994 
L 584.954957 74.378075 
L 590.027685 75.839026 
L 595.100412 78.499589 
L 600.173139 82.336765 
L 605.245866 87.317307 
L 610.318594 93.397933 
L 615.391321 100.525798 
L 620.464048 108.638703 
L 625.536776 117.665943 
L 630.609503 127.53924 
L 635.68223 138.181364 
L 640.754957 149.49709 
L 645.827685 161.385223 
L 650.900412 173.73951 
L 661.045866 199.401415 
L 676.264048 238.543723 
L 681.336776 251.295767 
L 686.409503 263.706928 
L 691.48223 275.664722 
L 696.554957 287.060274 
L 701.627685 297.789253 
L 706.700412 307.75271 
L 711.773139 316.857822 
L 716.845866 325.018973 
L 721.918594 332.157815 
L 726.991321 338.204704 
L 732.064048 343.098496 
L 737.136776 346.787407 
L 742.209503 349.229192 
L 747.28223 350.391674 
L 752.354957 350.252578 
L 757.427685 348.799822 
L 762.500412 346.03147 
L 767.573139 341.955475 
L 772.645866 336.589602 
L 777.718594 329.961114 
L 782.791321 322.106184 
L 787.864048 313.069366 
L 792.936776 302.903102 
L 798.009503 291.66705 
L 803.08223 279.427106 
L 808.154957 266.254571 
L 813.227685 252.225244 
L 818.300412 237.418339 
L 823.373139 221.915396 
L 828.445866 205.799102 
L 833.518594 189.152085 
L 843.664048 154.588501 
L 853.809503 118.835334 
L 869.027685 64.088912 
L 879.173139 27.36 
L 879.173139 27.36 
" style="fill:none;stroke:#0000ff;stroke-linecap:square;stroke-width:3;"/>
   </g>
   <g id="line2d_17">
    <path clip-path="url(#pc07500a041)" d="M 118.264048 204.571213 
L 123.336776 203.678063 
L 128.409503 201.125923 
L 133.48223 197.092813 
L 138.554957 191.75601 
L 143.627685 185.29168 
L 148.700412 177.87446 
L 153.773139 169.67689 
L 158.845866 160.868817 
L 163.918594 151.616728 
L 184.209503 113.339815 
L 189.28223 104.196124 
L 194.354957 95.495456 
L 199.427685 87.359913 
L 204.500412 79.902432 
L 209.573139 73.226058 
L 214.645866 67.423381 
L 219.718594 62.575974 
L 224.791321 58.754071 
L 229.864048 56.016083 
L 234.936776 54.408605 
L 240.009503 53.965759 
L 245.08223 54.70945 
L 250.154957 56.649275 
L 255.227685 59.782611 
L 260.300412 64.094688 
L 265.373139 69.559078 
L 270.445866 76.137771 
L 275.518594 83.782144 
L 280.591321 92.432796 
L 285.664048 102.020756 
L 290.736776 112.468049 
L 295.809503 123.688255 
L 300.88223 135.587546 
L 305.954957 148.06567 
L 311.027685 161.016691 
L 321.173139 187.891838 
L 336.391321 228.895237 
L 341.464048 242.275649 
L 346.536776 255.317971 
L 351.609503 267.909188 
L 356.68223 279.940132 
L 361.754957 291.306487 
L 366.827685 301.909591 
L 371.900412 311.657458 
L 376.973139 320.472507 
L 382.045866 328.285684 
L 387.118594 335.030763 
L 392.191321 340.650686 
L 397.264048 345.09853 
L 402.336776 348.337506 
L 407.409503 350.341518 
L 412.48223 351.095492 
L 417.554957 350.59521 
L 422.627685 348.847631 
L 427.700412 345.870574 
L 432.773139 341.692716 
L 437.845866 336.353427 
L 442.918594 329.902052 
L 447.991321 322.397909 
L 453.064048 313.909322 
L 458.136776 304.513383 
L 463.209503 294.295226 
L 468.28223 283.34694 
L 473.354957 271.767133 
L 478.427685 259.659876 
L 483.500412 247.133801 
L 493.645866 221.27687 
L 508.864048 182.220633 
L 513.936776 169.595149 
L 519.009503 157.355945 
L 524.08223 145.612176 
L 529.154957 134.468544 
L 534.227685 124.024417 
L 539.300412 114.372914 
L 544.373139 105.599966 
L 549.445866 97.783888 
L 554.518594 90.994364 
L 559.591321 85.292008 
L 564.664048 80.727799 
L 569.736776 77.34247 
L 574.809503 75.166414 
L 579.88223 74.219372 
L 584.954957 74.510103 
L 590.027685 76.036251 
L 595.100412 78.784755 
L 600.173139 82.731561 
L 605.245866 87.841976 
L 610.318594 94.070955 
L 615.391321 101.363619 
L 620.464048 109.655543 
L 625.536776 118.873349 
L 630.609503 128.936931 
L 635.68223 139.758186 
L 640.754957 151.241212 
L 645.827685 163.284132 
L 650.900412 175.780113 
L 661.045866 201.684642 
L 676.264048 241.08651 
L 681.336776 253.897437 
L 686.409503 266.354077 
L 691.48223 278.344329 
L 696.554957 289.759801 
L 701.627685 300.496718 
L 706.700412 310.456701 
L 711.773139 319.54778 
L 716.845866 327.684852 
L 721.918594 334.790552 
L 726.991321 340.795783 
L 732.064048 345.640381 
L 737.136776 349.273263 
L 742.209503 351.653011 
L 747.28223 352.748317 
L 752.354957 352.537541 
L 757.427685 351.009343 
L 762.500412 348.162499 
L 767.573139 344.005697 
L 772.645866 338.557247 
L 777.718594 331.844903 
L 782.791321 323.905241 
L 787.864048 314.78345 
L 792.936776 304.532221 
L 798.009503 293.211542 
L 803.08223 280.887541 
L 808.154957 267.631723 
L 813.227685 253.520012 
L 818.300412 238.631704 
L 823.373139 223.04837 
L 828.445866 206.852694 
L 833.518594 190.127266 
L 843.664048 155.409386 
L 853.809503 119.504536 
L 869.027685 64.533368 
L 879.173139 27.655259 
L 879.173139 27.655259 
" style="fill:none;stroke:#ff0000;stroke-linecap:square;stroke-width:3;"/>
   </g>
   <g id="patch_3">
    <path d="M 80.218594 450.72 
L 80.218594 7.2 
" style="fill:none;stroke:#000000;stroke-linecap:square;stroke-linejoin:miter;stroke-width:0.8;"/>
   </g>
   <g id="patch_4">
    <path d="M 917.218594 450.72 
L 917.218594 7.2 
" style="fill:none;stroke:#000000;stroke-linecap:square;stroke-linejoin:miter;stroke-width:0.8;"/>
   </g>
   <g id="patch_5">
    <path d="M 80.218594 450.72 
L 917.218594 450.72 
" style="fill:none;stroke:#000000;stroke-linecap:square;stroke-linejoin:miter;stroke-width:0.8;"/>
   </g>
   <g id="patch_6">
    <path d="M 80.218594 7.2 
L 917.218594 7.2 
" style="fill:none;stroke:#000000;stroke-linecap:square;stroke-linejoin:miter;stroke-width:0.8;"/>
   </g>
   <g id="legend_1">
    <g id="patch_7">
     <path d="M 95.618594 439.72 
L 389.428594 439.72 
Q 393.828594 439.72 393.828594 435.32 
L 393.828594 340.644375 
Q 393.828594 336.244375 389.428594 336.244375 
L 95.618594 336.244375 
Q 91.218594 336.244375 91.218594 340.644375 
L 91.218594 435.32 
Q 91.218594 439.72 95.618594 439.72 
z
" style="fill:#ffffff;opacity:0.8;stroke:#cccccc;stroke-linejoin:miter;"/>
    </g>
    <g id="line2d_18"/>
    <g id="line2d_19">
     <g>
      <use style="stroke:#000000;stroke-linejoin:miter;" x="122.018594" xlink:href="#m2cfffd7f62" y="354.060938"/>
     </g>
    </g>
    <g id="text_17">
     <!-- Reference FEM -->
     <g transform="translate(161.618594 361.760938)scale(0.22 -0.22)">
      <defs>
       <path d="M 44.390625 34.1875 
Q 47.5625 33.109375 50.5625 29.59375 
Q 53.5625 26.078125 56.59375 19.921875 
L 66.609375 0 
L 56 0 
L 46.6875 18.703125 
Q 43.0625 26.03125 39.671875 28.421875 
Q 36.28125 30.8125 30.421875 30.8125 
L 19.671875 30.8125 
L 19.671875 0 
L 9.8125 0 
L 9.8125 72.90625 
L 32.078125 72.90625 
Q 44.578125 72.90625 50.734375 67.671875 
Q 56.890625 62.453125 56.890625 51.90625 
Q 56.890625 45.015625 53.6875 40.46875 
Q 50.484375 35.9375 44.390625 34.1875 
z
M 19.671875 64.796875 
L 19.671875 38.921875 
L 32.078125 38.921875 
Q 39.203125 38.921875 42.84375 42.21875 
Q 46.484375 45.515625 46.484375 51.90625 
Q 46.484375 58.296875 42.84375 61.546875 
Q 39.203125 64.796875 32.078125 64.796875 
z
" id="DejaVuSans-82"/>
       <path d="M 37.109375 75.984375 
L 37.109375 68.5 
L 28.515625 68.5 
Q 23.6875 68.5 21.796875 66.546875 
Q 19.921875 64.59375 19.921875 59.515625 
L 19.921875 54.6875 
L 34.71875 54.6875 
L 34.71875 47.703125 
L 19.921875 47.703125 
L 19.921875 0 
L 10.890625 0 
L 10.890625 47.703125 
L 2.296875 47.703125 
L 2.296875 54.6875 
L 10.890625 54.6875 
L 10.890625 58.5 
Q 10.890625 67.625 15.140625 71.796875 
Q 19.390625 75.984375 28.609375 75.984375 
z
" id="DejaVuSans-102"/>
       <path d="M 41.109375 46.296875 
Q 39.59375 47.171875 37.8125 47.578125 
Q 36.03125 48 33.890625 48 
Q 26.265625 48 22.1875 43.046875 
Q 18.109375 38.09375 18.109375 28.8125 
L 18.109375 0 
L 9.078125 0 
L 9.078125 54.6875 
L 18.109375 54.6875 
L 18.109375 46.1875 
Q 20.953125 51.171875 25.484375 53.578125 
Q 30.03125 56 36.53125 56 
Q 37.453125 56 38.578125 55.875 
Q 39.703125 55.765625 41.0625 55.515625 
z
" id="DejaVuSans-114"/>
       <path d="M 48.78125 52.59375 
L 48.78125 44.1875 
Q 44.96875 46.296875 41.140625 47.34375 
Q 37.3125 48.390625 33.40625 48.390625 
Q 24.65625 48.390625 19.8125 42.84375 
Q 14.984375 37.3125 14.984375 27.296875 
Q 14.984375 17.28125 19.8125 11.734375 
Q 24.65625 6.203125 33.40625 6.203125 
Q 37.3125 6.203125 41.140625 7.25 
Q 44.96875 8.296875 48.78125 10.40625 
L 48.78125 2.09375 
Q 45.015625 0.34375 40.984375 -0.53125 
Q 36.96875 -1.421875 32.421875 -1.421875 
Q 20.0625 -1.421875 12.78125 6.34375 
Q 5.515625 14.109375 5.515625 27.296875 
Q 5.515625 40.671875 12.859375 48.328125 
Q 20.21875 56 33.015625 56 
Q 37.15625 56 41.109375 55.140625 
Q 45.0625 54.296875 48.78125 52.59375 
z
" id="DejaVuSans-99"/>
       <path d="M 9.8125 72.90625 
L 51.703125 72.90625 
L 51.703125 64.59375 
L 19.671875 64.59375 
L 19.671875 43.109375 
L 48.578125 43.109375 
L 48.578125 34.8125 
L 19.671875 34.8125 
L 19.671875 0 
L 9.8125 0 
z
" id="DejaVuSans-70"/>
       <path d="M 9.8125 72.90625 
L 55.90625 72.90625 
L 55.90625 64.59375 
L 19.671875 64.59375 
L 19.671875 43.015625 
L 54.390625 43.015625 
L 54.390625 34.71875 
L 19.671875 34.71875 
L 19.671875 8.296875 
L 56.78125 8.296875 
L 56.78125 0 
L 9.8125 0 
z
" id="DejaVuSans-69"/>
       <path d="M 9.8125 72.90625 
L 24.515625 72.90625 
L 43.109375 23.296875 
L 61.8125 72.90625 
L 76.515625 72.90625 
L 76.515625 0 
L 66.890625 0 
L 66.890625 64.015625 
L 48.09375 14.015625 
L 38.1875 14.015625 
L 19.390625 64.015625 
L 19.390625 0 
L 9.8125 0 
z
" id="DejaVuSans-77"/>
      </defs>
      <use xlink:href="#DejaVuSans-82"/>
      <use x="64.982422" xlink:href="#DejaVuSans-101"/>
      <use x="126.505859" xlink:href="#DejaVuSans-102"/>
      <use x="161.710938" xlink:href="#DejaVuSans-101"/>
      <use x="223.234375" xlink:href="#DejaVuSans-114"/>
      <use x="262.097656" xlink:href="#DejaVuSans-101"/>
      <use x="323.621094" xlink:href="#DejaVuSans-110"/>
      <use x="387" xlink:href="#DejaVuSans-99"/>
      <use x="441.980469" xlink:href="#DejaVuSans-101"/>
      <use x="503.503906" xlink:href="#DejaVuSans-32"/>
      <use x="535.291016" xlink:href="#DejaVuSans-70"/>
      <use x="592.810547" xlink:href="#DejaVuSans-69"/>
      <use x="655.994141" xlink:href="#DejaVuSans-77"/>
     </g>
    </g>
    <g id="line2d_20">
     <path d="M 100.018594 386.352813 
L 144.018594 386.352813 
" style="fill:none;stroke:#0000ff;stroke-linecap:square;stroke-width:3;"/>
    </g>
    <g id="line2d_21"/>
    <g id="text_18">
     <!-- Initial mistuned FEM -->
     <g transform="translate(161.618594 394.052813)scale(0.22 -0.22)">
      <defs>
       <path d="M 9.8125 72.90625 
L 19.671875 72.90625 
L 19.671875 0 
L 9.8125 0 
z
" id="DejaVuSans-73"/>
       <path d="M 44.28125 53.078125 
L 44.28125 44.578125 
Q 40.484375 46.53125 36.375 47.5 
Q 32.28125 48.484375 27.875 48.484375 
Q 21.1875 48.484375 17.84375 46.4375 
Q 14.5 44.390625 14.5 40.28125 
Q 14.5 37.15625 16.890625 35.375 
Q 19.28125 33.59375 26.515625 31.984375 
L 29.59375 31.296875 
Q 39.15625 29.25 43.1875 25.515625 
Q 47.21875 21.78125 47.21875 15.09375 
Q 47.21875 7.46875 41.1875 3.015625 
Q 35.15625 -1.421875 24.609375 -1.421875 
Q 20.21875 -1.421875 15.453125 -0.5625 
Q 10.6875 0.296875 5.421875 2 
L 5.421875 11.28125 
Q 10.40625 8.6875 15.234375 7.390625 
Q 20.0625 6.109375 24.8125 6.109375 
Q 31.15625 6.109375 34.5625 8.28125 
Q 37.984375 10.453125 37.984375 14.40625 
Q 37.984375 18.0625 35.515625 20.015625 
Q 33.0625 21.96875 24.703125 23.78125 
L 21.578125 24.515625 
Q 13.234375 26.265625 9.515625 29.90625 
Q 5.8125 33.546875 5.8125 39.890625 
Q 5.8125 47.609375 11.28125 51.796875 
Q 16.75 56 26.8125 56 
Q 31.78125 56 36.171875 55.265625 
Q 40.578125 54.546875 44.28125 53.078125 
z
" id="DejaVuSans-115"/>
      </defs>
      <use xlink:href="#DejaVuSans-73"/>
      <use x="29.492188" xlink:href="#DejaVuSans-110"/>
      <use x="92.871094" xlink:href="#DejaVuSans-105"/>
      <use x="120.654297" xlink:href="#DejaVuSans-116"/>
      <use x="159.863281" xlink:href="#DejaVuSans-105"/>
      <use x="187.646484" xlink:href="#DejaVuSans-97"/>
      <use x="248.925781" xlink:href="#DejaVuSans-108"/>
      <use x="276.708984" xlink:href="#DejaVuSans-32"/>
      <use x="308.496094" xlink:href="#DejaVuSans-109"/>
      <use x="405.908203" xlink:href="#DejaVuSans-105"/>
      <use x="433.691406" xlink:href="#DejaVuSans-115"/>
      <use x="485.791016" xlink:href="#DejaVuSans-116"/>
      <use x="525" xlink:href="#DejaVuSans-117"/>
      <use x="588.378906" xlink:href="#DejaVuSans-110"/>
      <use x="651.757812" xlink:href="#DejaVuSans-101"/>
      <use x="713.28125" xlink:href="#DejaVuSans-100"/>
      <use x="776.757812" xlink:href="#DejaVuSans-32"/>
      <use x="808.544922" xlink:href="#DejaVuSans-70"/>
      <use x="866.064453" xlink:href="#DejaVuSans-69"/>
      <use x="929.248047" xlink:href="#DejaVuSans-77"/>
     </g>
    </g>
    <g id="line2d_22">
     <path d="M 100.018594 418.644688 
L 144.018594 418.644688 
" style="fill:none;stroke:#ff0000;stroke-linecap:square;stroke-width:3;"/>
    </g>
    <g id="line2d_23"/>
    <g id="text_19">
     <!-- Converged FEM -->
     <g transform="translate(161.618594 426.344688)scale(0.22 -0.22)">
      <defs>
       <path d="M 64.40625 67.28125 
L 64.40625 56.890625 
Q 59.421875 61.53125 53.78125 63.8125 
Q 48.140625 66.109375 41.796875 66.109375 
Q 29.296875 66.109375 22.65625 58.46875 
Q 16.015625 50.828125 16.015625 36.375 
Q 16.015625 21.96875 22.65625 14.328125 
Q 29.296875 6.6875 41.796875 6.6875 
Q 48.140625 6.6875 53.78125 8.984375 
Q 59.421875 11.28125 64.40625 15.921875 
L 64.40625 5.609375 
Q 59.234375 2.09375 53.4375 0.328125 
Q 47.65625 -1.421875 41.21875 -1.421875 
Q 24.65625 -1.421875 15.125 8.703125 
Q 5.609375 18.84375 5.609375 36.375 
Q 5.609375 53.953125 15.125 64.078125 
Q 24.65625 74.21875 41.21875 74.21875 
Q 47.75 74.21875 53.53125 72.484375 
Q 59.328125 70.75 64.40625 67.28125 
z
" id="DejaVuSans-67"/>
       <path d="M 30.609375 48.390625 
Q 23.390625 48.390625 19.1875 42.75 
Q 14.984375 37.109375 14.984375 27.296875 
Q 14.984375 17.484375 19.15625 11.84375 
Q 23.34375 6.203125 30.609375 6.203125 
Q 37.796875 6.203125 41.984375 11.859375 
Q 46.1875 17.53125 46.1875 27.296875 
Q 46.1875 37.015625 41.984375 42.703125 
Q 37.796875 48.390625 30.609375 48.390625 
z
M 30.609375 56 
Q 42.328125 56 49.015625 48.375 
Q 55.71875 40.765625 55.71875 27.296875 
Q 55.71875 13.875 49.015625 6.21875 
Q 42.328125 -1.421875 30.609375 -1.421875 
Q 18.84375 -1.421875 12.171875 6.21875 
Q 5.515625 13.875 5.515625 27.296875 
Q 5.515625 40.765625 12.171875 48.375 
Q 18.84375 56 30.609375 56 
z
" id="DejaVuSans-111"/>
       <path d="M 2.984375 54.6875 
L 12.5 54.6875 
L 29.59375 8.796875 
L 46.6875 54.6875 
L 56.203125 54.6875 
L 35.6875 0 
L 23.484375 0 
z
" id="DejaVuSans-118"/>
      </defs>
      <use xlink:href="#DejaVuSans-67"/>
      <use x="69.824219" xlink:href="#DejaVuSans-111"/>
      <use x="131.005859" xlink:href="#DejaVuSans-110"/>
      <use x="194.384766" xlink:href="#DejaVuSans-118"/>
      <use x="253.564453" xlink:href="#DejaVuSans-101"/>
      <use x="315.087891" xlink:href="#DejaVuSans-114"/>
      <use x="354.451172" xlink:href="#DejaVuSans-103"/>
      <use x="417.927734" xlink:href="#DejaVuSans-101"/>
      <use x="479.451172" xlink:href="#DejaVuSans-100"/>
      <use x="542.927734" xlink:href="#DejaVuSans-32"/>
      <use x="574.714844" xlink:href="#DejaVuSans-70"/>
      <use x="632.234375" xlink:href="#DejaVuSans-69"/>
      <use x="695.417969" xlink:href="#DejaVuSans-77"/>
     </g>
    </g>
   </g>
  </g>
 </g>
 <defs>
  <clipPath id="pc07500a041">
   <rect height="443.52" width="837" x="80.218594" y="7.2"/>
  </clipPath>
 </defs>
</svg>
