<?xml version="1.0" encoding="utf-8" standalone="no"?>
<!DOCTYPE svg PUBLIC "-//W3C//DTD SVG 1.1//EN"
  "http://www.w3.org/Graphics/SVG/1.1/DTD/svg11.dtd">
<!-- Created with matplotlib (https://matplotlib.org/) -->
<svg height="518.278438pt" version="1.1" viewBox="0 0 964.176406 518.278438" width="964.176406pt" xmlns="http://www.w3.org/2000/svg" xmlns:xlink="http://www.w3.org/1999/xlink">
 <metadata>
  <rdf:RDF xmlns:cc="http://creativecommons.org/ns#" xmlns:dc="http://purl.org/dc/elements/1.1/" xmlns:rdf="http://www.w3.org/1999/02/22-rdf-syntax-ns#">
   <cc:Work>
    <dc:type rdf:resource="http://purl.org/dc/dcmitype/StillImage"/>
    <dc:date>2021-12-02T19:24:10.928950</dc:date>
    <dc:format>image/svg+xml</dc:format>
    <dc:creator>
     <cc:Agent>
      <dc:title>Matplotlib v3.3.4, https://matplotlib.org/</dc:title>
     </cc:Agent>
    </dc:creator>
   </cc:Work>
  </rdf:RDF>
 </metadata>
 <defs>
  <style type="text/css">*{stroke-linecap:butt;stroke-linejoin:round;}</style>
 </defs>
 <g id="figure_1">
  <g id="patch_1">
   <path d="M 0 518.278438 
L 964.176406 518.278438 
L 964.176406 0 
L 0 0 
z
" style="fill:#ffffff;"/>
  </g>
  <g id="axes_1">
   <g id="patch_2">
    <path d="M 119.976406 450.72 
L 956.976406 450.72 
L 956.976406 7.2 
L 119.976406 7.2 
z
" style="fill:#ffffff;"/>
   </g>
   <g id="matplotlib.axis_1">
    <g id="xtick_1">
     <g id="line2d_1">
      <defs>
       <path d="M 0 0 
L 0 3.5 
" id="m37098f1f35" style="stroke:#000000;stroke-width:0.8;"/>
      </defs>
      <g>
       <use style="stroke:#000000;stroke-width:0.8;" x="158.021861" xlink:href="#m37098f1f35" y="450.72"/>
      </g>
     </g>
     <g id="text_1">
      <!-- 0.0 -->
      <g transform="translate(138.142955 476.716094)scale(0.25 -0.25)">
       <defs>
        <path d="M 31.78125 66.40625 
Q 24.171875 66.40625 20.328125 58.90625 
Q 16.5 51.421875 16.5 36.375 
Q 16.5 21.390625 20.328125 13.890625 
Q 24.171875 6.390625 31.78125 6.390625 
Q 39.453125 6.390625 43.28125 13.890625 
Q 47.125 21.390625 47.125 36.375 
Q 47.125 51.421875 43.28125 58.90625 
Q 39.453125 66.40625 31.78125 66.40625 
z
M 31.78125 74.21875 
Q 44.046875 74.21875 50.515625 64.515625 
Q 56.984375 54.828125 56.984375 36.375 
Q 56.984375 17.96875 50.515625 8.265625 
Q 44.046875 -1.421875 31.78125 -1.421875 
Q 19.53125 -1.421875 13.0625 8.265625 
Q 6.59375 17.96875 6.59375 36.375 
Q 6.59375 54.828125 13.0625 64.515625 
Q 19.53125 74.21875 31.78125 74.21875 
z
" id="DejaVuSans-48"/>
        <path d="M 10.6875 12.40625 
L 21 12.40625 
L 21 0 
L 10.6875 0 
z
" id="DejaVuSans-46"/>
       </defs>
       <use xlink:href="#DejaVuSans-48"/>
       <use x="63.623047" xlink:href="#DejaVuSans-46"/>
       <use x="95.410156" xlink:href="#DejaVuSans-48"/>
      </g>
     </g>
    </g>
    <g id="xtick_2">
     <g id="line2d_2">
      <g>
       <use style="stroke:#000000;stroke-width:0.8;" x="259.476406" xlink:href="#m37098f1f35" y="450.72"/>
      </g>
     </g>
     <g id="text_2">
      <!-- 0.2 -->
      <g transform="translate(239.5975 476.716094)scale(0.25 -0.25)">
       <defs>
        <path d="M 19.1875 8.296875 
L 53.609375 8.296875 
L 53.609375 0 
L 7.328125 0 
L 7.328125 8.296875 
Q 12.9375 14.109375 22.625 23.890625 
Q 32.328125 33.6875 34.8125 36.53125 
Q 39.546875 41.84375 41.421875 45.53125 
Q 43.3125 49.21875 43.3125 52.78125 
Q 43.3125 58.59375 39.234375 62.25 
Q 35.15625 65.921875 28.609375 65.921875 
Q 23.96875 65.921875 18.8125 64.3125 
Q 13.671875 62.703125 7.8125 59.421875 
L 7.8125 69.390625 
Q 13.765625 71.78125 18.9375 73 
Q 24.125 74.21875 28.421875 74.21875 
Q 39.75 74.21875 46.484375 68.546875 
Q 53.21875 62.890625 53.21875 53.421875 
Q 53.21875 48.921875 51.53125 44.890625 
Q 49.859375 40.875 45.40625 35.40625 
Q 44.1875 33.984375 37.640625 27.21875 
Q 31.109375 20.453125 19.1875 8.296875 
z
" id="DejaVuSans-50"/>
       </defs>
       <use xlink:href="#DejaVuSans-48"/>
       <use x="63.623047" xlink:href="#DejaVuSans-46"/>
       <use x="95.410156" xlink:href="#DejaVuSans-50"/>
      </g>
     </g>
    </g>
    <g id="xtick_3">
     <g id="line2d_3">
      <g>
       <use style="stroke:#000000;stroke-width:0.8;" x="360.930952" xlink:href="#m37098f1f35" y="450.72"/>
      </g>
     </g>
     <g id="text_3">
      <!-- 0.4 -->
      <g transform="translate(341.052045 476.716094)scale(0.25 -0.25)">
       <defs>
        <path d="M 37.796875 64.3125 
L 12.890625 25.390625 
L 37.796875 25.390625 
z
M 35.203125 72.90625 
L 47.609375 72.90625 
L 47.609375 25.390625 
L 58.015625 25.390625 
L 58.015625 17.1875 
L 47.609375 17.1875 
L 47.609375 0 
L 37.796875 0 
L 37.796875 17.1875 
L 4.890625 17.1875 
L 4.890625 26.703125 
z
" id="DejaVuSans-52"/>
       </defs>
       <use xlink:href="#DejaVuSans-48"/>
       <use x="63.623047" xlink:href="#DejaVuSans-46"/>
       <use x="95.410156" xlink:href="#DejaVuSans-52"/>
      </g>
     </g>
    </g>
    <g id="xtick_4">
     <g id="line2d_4">
      <g>
       <use style="stroke:#000000;stroke-width:0.8;" x="462.385497" xlink:href="#m37098f1f35" y="450.72"/>
      </g>
     </g>
     <g id="text_4">
      <!-- 0.6 -->
      <g transform="translate(442.506591 476.716094)scale(0.25 -0.25)">
       <defs>
        <path d="M 33.015625 40.375 
Q 26.375 40.375 22.484375 35.828125 
Q 18.609375 31.296875 18.609375 23.390625 
Q 18.609375 15.53125 22.484375 10.953125 
Q 26.375 6.390625 33.015625 6.390625 
Q 39.65625 6.390625 43.53125 10.953125 
Q 47.40625 15.53125 47.40625 23.390625 
Q 47.40625 31.296875 43.53125 35.828125 
Q 39.65625 40.375 33.015625 40.375 
z
M 52.59375 71.296875 
L 52.59375 62.3125 
Q 48.875 64.0625 45.09375 64.984375 
Q 41.3125 65.921875 37.59375 65.921875 
Q 27.828125 65.921875 22.671875 59.328125 
Q 17.53125 52.734375 16.796875 39.40625 
Q 19.671875 43.65625 24.015625 45.921875 
Q 28.375 48.1875 33.59375 48.1875 
Q 44.578125 48.1875 50.953125 41.515625 
Q 57.328125 34.859375 57.328125 23.390625 
Q 57.328125 12.15625 50.6875 5.359375 
Q 44.046875 -1.421875 33.015625 -1.421875 
Q 20.359375 -1.421875 13.671875 8.265625 
Q 6.984375 17.96875 6.984375 36.375 
Q 6.984375 53.65625 15.1875 63.9375 
Q 23.390625 74.21875 37.203125 74.21875 
Q 40.921875 74.21875 44.703125 73.484375 
Q 48.484375 72.75 52.59375 71.296875 
z
" id="DejaVuSans-54"/>
       </defs>
       <use xlink:href="#DejaVuSans-48"/>
       <use x="63.623047" xlink:href="#DejaVuSans-46"/>
       <use x="95.410156" xlink:href="#DejaVuSans-54"/>
      </g>
     </g>
    </g>
    <g id="xtick_5">
     <g id="line2d_5">
      <g>
       <use style="stroke:#000000;stroke-width:0.8;" x="563.840043" xlink:href="#m37098f1f35" y="450.72"/>
      </g>
     </g>
     <g id="text_5">
      <!-- 0.8 -->
      <g transform="translate(543.961136 476.716094)scale(0.25 -0.25)">
       <defs>
        <path d="M 31.78125 34.625 
Q 24.75 34.625 20.71875 30.859375 
Q 16.703125 27.09375 16.703125 20.515625 
Q 16.703125 13.921875 20.71875 10.15625 
Q 24.75 6.390625 31.78125 6.390625 
Q 38.8125 6.390625 42.859375 10.171875 
Q 46.921875 13.96875 46.921875 20.515625 
Q 46.921875 27.09375 42.890625 30.859375 
Q 38.875 34.625 31.78125 34.625 
z
M 21.921875 38.8125 
Q 15.578125 40.375 12.03125 44.71875 
Q 8.5 49.078125 8.5 55.328125 
Q 8.5 64.0625 14.71875 69.140625 
Q 20.953125 74.21875 31.78125 74.21875 
Q 42.671875 74.21875 48.875 69.140625 
Q 55.078125 64.0625 55.078125 55.328125 
Q 55.078125 49.078125 51.53125 44.71875 
Q 48 40.375 41.703125 38.8125 
Q 48.828125 37.15625 52.796875 32.3125 
Q 56.78125 27.484375 56.78125 20.515625 
Q 56.78125 9.90625 50.3125 4.234375 
Q 43.84375 -1.421875 31.78125 -1.421875 
Q 19.734375 -1.421875 13.25 4.234375 
Q 6.78125 9.90625 6.78125 20.515625 
Q 6.78125 27.484375 10.78125 32.3125 
Q 14.796875 37.15625 21.921875 38.8125 
z
M 18.3125 54.390625 
Q 18.3125 48.734375 21.84375 45.5625 
Q 25.390625 42.390625 31.78125 42.390625 
Q 38.140625 42.390625 41.71875 45.5625 
Q 45.3125 48.734375 45.3125 54.390625 
Q 45.3125 60.0625 41.71875 63.234375 
Q 38.140625 66.40625 31.78125 66.40625 
Q 25.390625 66.40625 21.84375 63.234375 
Q 18.3125 60.0625 18.3125 54.390625 
z
" id="DejaVuSans-56"/>
       </defs>
       <use xlink:href="#DejaVuSans-48"/>
       <use x="63.623047" xlink:href="#DejaVuSans-46"/>
       <use x="95.410156" xlink:href="#DejaVuSans-56"/>
      </g>
     </g>
    </g>
    <g id="xtick_6">
     <g id="line2d_6">
      <g>
       <use style="stroke:#000000;stroke-width:0.8;" x="665.294588" xlink:href="#m37098f1f35" y="450.72"/>
      </g>
     </g>
     <g id="text_6">
      <!-- 1.0 -->
      <g transform="translate(645.415682 476.716094)scale(0.25 -0.25)">
       <defs>
        <path d="M 12.40625 8.296875 
L 28.515625 8.296875 
L 28.515625 63.921875 
L 10.984375 60.40625 
L 10.984375 69.390625 
L 28.421875 72.90625 
L 38.28125 72.90625 
L 38.28125 8.296875 
L 54.390625 8.296875 
L 54.390625 0 
L 12.40625 0 
z
" id="DejaVuSans-49"/>
       </defs>
       <use xlink:href="#DejaVuSans-49"/>
       <use x="63.623047" xlink:href="#DejaVuSans-46"/>
       <use x="95.410156" xlink:href="#DejaVuSans-48"/>
      </g>
     </g>
    </g>
    <g id="xtick_7">
     <g id="line2d_7">
      <g>
       <use style="stroke:#000000;stroke-width:0.8;" x="766.749134" xlink:href="#m37098f1f35" y="450.72"/>
      </g>
     </g>
     <g id="text_7">
      <!-- 1.2 -->
      <g transform="translate(746.870227 476.716094)scale(0.25 -0.25)">
       <use xlink:href="#DejaVuSans-49"/>
       <use x="63.623047" xlink:href="#DejaVuSans-46"/>
       <use x="95.410156" xlink:href="#DejaVuSans-50"/>
      </g>
     </g>
    </g>
    <g id="xtick_8">
     <g id="line2d_8">
      <g>
       <use style="stroke:#000000;stroke-width:0.8;" x="868.203679" xlink:href="#m37098f1f35" y="450.72"/>
      </g>
     </g>
     <g id="text_8">
      <!-- 1.4 -->
      <g transform="translate(848.324773 476.716094)scale(0.25 -0.25)">
       <use xlink:href="#DejaVuSans-49"/>
       <use x="63.623047" xlink:href="#DejaVuSans-46"/>
       <use x="95.410156" xlink:href="#DejaVuSans-52"/>
      </g>
     </g>
    </g>
    <g id="text_9">
     <!-- Beam Length [m] -->
     <g transform="translate(425.016875 505.67125)scale(0.26 -0.26)">
      <defs>
       <path d="M 19.671875 34.8125 
L 19.671875 8.109375 
L 35.5 8.109375 
Q 43.453125 8.109375 47.28125 11.40625 
Q 51.125 14.703125 51.125 21.484375 
Q 51.125 28.328125 47.28125 31.5625 
Q 43.453125 34.8125 35.5 34.8125 
z
M 19.671875 64.796875 
L 19.671875 42.828125 
L 34.28125 42.828125 
Q 41.5 42.828125 45.03125 45.53125 
Q 48.578125 48.25 48.578125 53.8125 
Q 48.578125 59.328125 45.03125 62.0625 
Q 41.5 64.796875 34.28125 64.796875 
z
M 9.8125 72.90625 
L 35.015625 72.90625 
Q 46.296875 72.90625 52.390625 68.21875 
Q 58.5 63.53125 58.5 54.890625 
Q 58.5 48.1875 55.375 44.234375 
Q 52.25 40.28125 46.1875 39.3125 
Q 53.46875 37.75 57.5 32.78125 
Q 61.53125 27.828125 61.53125 20.40625 
Q 61.53125 10.640625 54.890625 5.3125 
Q 48.25 0 35.984375 0 
L 9.8125 0 
z
" id="DejaVuSans-66"/>
       <path d="M 56.203125 29.59375 
L 56.203125 25.203125 
L 14.890625 25.203125 
Q 15.484375 15.921875 20.484375 11.0625 
Q 25.484375 6.203125 34.421875 6.203125 
Q 39.59375 6.203125 44.453125 7.46875 
Q 49.3125 8.734375 54.109375 11.28125 
L 54.109375 2.78125 
Q 49.265625 0.734375 44.1875 -0.34375 
Q 39.109375 -1.421875 33.890625 -1.421875 
Q 20.796875 -1.421875 13.15625 6.1875 
Q 5.515625 13.8125 5.515625 26.8125 
Q 5.515625 40.234375 12.765625 48.109375 
Q 20.015625 56 32.328125 56 
Q 43.359375 56 49.78125 48.890625 
Q 56.203125 41.796875 56.203125 29.59375 
z
M 47.21875 32.234375 
Q 47.125 39.59375 43.09375 43.984375 
Q 39.0625 48.390625 32.421875 48.390625 
Q 24.90625 48.390625 20.390625 44.140625 
Q 15.875 39.890625 15.1875 32.171875 
z
" id="DejaVuSans-101"/>
       <path d="M 34.28125 27.484375 
Q 23.390625 27.484375 19.1875 25 
Q 14.984375 22.515625 14.984375 16.5 
Q 14.984375 11.71875 18.140625 8.90625 
Q 21.296875 6.109375 26.703125 6.109375 
Q 34.1875 6.109375 38.703125 11.40625 
Q 43.21875 16.703125 43.21875 25.484375 
L 43.21875 27.484375 
z
M 52.203125 31.203125 
L 52.203125 0 
L 43.21875 0 
L 43.21875 8.296875 
Q 40.140625 3.328125 35.546875 0.953125 
Q 30.953125 -1.421875 24.3125 -1.421875 
Q 15.921875 -1.421875 10.953125 3.296875 
Q 6 8.015625 6 15.921875 
Q 6 25.140625 12.171875 29.828125 
Q 18.359375 34.515625 30.609375 34.515625 
L 43.21875 34.515625 
L 43.21875 35.40625 
Q 43.21875 41.609375 39.140625 45 
Q 35.0625 48.390625 27.6875 48.390625 
Q 23 48.390625 18.546875 47.265625 
Q 14.109375 46.140625 10.015625 43.890625 
L 10.015625 52.203125 
Q 14.9375 54.109375 19.578125 55.046875 
Q 24.21875 56 28.609375 56 
Q 40.484375 56 46.34375 49.84375 
Q 52.203125 43.703125 52.203125 31.203125 
z
" id="DejaVuSans-97"/>
       <path d="M 52 44.1875 
Q 55.375 50.25 60.0625 53.125 
Q 64.75 56 71.09375 56 
Q 79.640625 56 84.28125 50.015625 
Q 88.921875 44.046875 88.921875 33.015625 
L 88.921875 0 
L 79.890625 0 
L 79.890625 32.71875 
Q 79.890625 40.578125 77.09375 44.375 
Q 74.3125 48.1875 68.609375 48.1875 
Q 61.625 48.1875 57.5625 43.546875 
Q 53.515625 38.921875 53.515625 30.90625 
L 53.515625 0 
L 44.484375 0 
L 44.484375 32.71875 
Q 44.484375 40.625 41.703125 44.40625 
Q 38.921875 48.1875 33.109375 48.1875 
Q 26.21875 48.1875 22.15625 43.53125 
Q 18.109375 38.875 18.109375 30.90625 
L 18.109375 0 
L 9.078125 0 
L 9.078125 54.6875 
L 18.109375 54.6875 
L 18.109375 46.1875 
Q 21.1875 51.21875 25.484375 53.609375 
Q 29.78125 56 35.6875 56 
Q 41.65625 56 45.828125 52.96875 
Q 50 49.953125 52 44.1875 
z
" id="DejaVuSans-109"/>
       <path id="DejaVuSans-32"/>
       <path d="M 9.8125 72.90625 
L 19.671875 72.90625 
L 19.671875 8.296875 
L 55.171875 8.296875 
L 55.171875 0 
L 9.8125 0 
z
" id="DejaVuSans-76"/>
       <path d="M 54.890625 33.015625 
L 54.890625 0 
L 45.90625 0 
L 45.90625 32.71875 
Q 45.90625 40.484375 42.875 44.328125 
Q 39.84375 48.1875 33.796875 48.1875 
Q 26.515625 48.1875 22.3125 43.546875 
Q 18.109375 38.921875 18.109375 30.90625 
L 18.109375 0 
L 9.078125 0 
L 9.078125 54.6875 
L 18.109375 54.6875 
L 18.109375 46.1875 
Q 21.34375 51.125 25.703125 53.5625 
Q 30.078125 56 35.796875 56 
Q 45.21875 56 50.046875 50.171875 
Q 54.890625 44.34375 54.890625 33.015625 
z
" id="DejaVuSans-110"/>
       <path d="M 45.40625 27.984375 
Q 45.40625 37.75 41.375 43.109375 
Q 37.359375 48.484375 30.078125 48.484375 
Q 22.859375 48.484375 18.828125 43.109375 
Q 14.796875 37.75 14.796875 27.984375 
Q 14.796875 18.265625 18.828125 12.890625 
Q 22.859375 7.515625 30.078125 7.515625 
Q 37.359375 7.515625 41.375 12.890625 
Q 45.40625 18.265625 45.40625 27.984375 
z
M 54.390625 6.78125 
Q 54.390625 -7.171875 48.1875 -13.984375 
Q 42 -20.796875 29.203125 -20.796875 
Q 24.46875 -20.796875 20.265625 -20.09375 
Q 16.0625 -19.390625 12.109375 -17.921875 
L 12.109375 -9.1875 
Q 16.0625 -11.328125 19.921875 -12.34375 
Q 23.78125 -13.375 27.78125 -13.375 
Q 36.625 -13.375 41.015625 -8.765625 
Q 45.40625 -4.15625 45.40625 5.171875 
L 45.40625 9.625 
Q 42.625 4.78125 38.28125 2.390625 
Q 33.9375 0 27.875 0 
Q 17.828125 0 11.671875 7.65625 
Q 5.515625 15.328125 5.515625 27.984375 
Q 5.515625 40.671875 11.671875 48.328125 
Q 17.828125 56 27.875 56 
Q 33.9375 56 38.28125 53.609375 
Q 42.625 51.21875 45.40625 46.390625 
L 45.40625 54.6875 
L 54.390625 54.6875 
z
" id="DejaVuSans-103"/>
       <path d="M 18.3125 70.21875 
L 18.3125 54.6875 
L 36.8125 54.6875 
L 36.8125 47.703125 
L 18.3125 47.703125 
L 18.3125 18.015625 
Q 18.3125 11.328125 20.140625 9.421875 
Q 21.96875 7.515625 27.59375 7.515625 
L 36.8125 7.515625 
L 36.8125 0 
L 27.59375 0 
Q 17.1875 0 13.234375 3.875 
Q 9.28125 7.765625 9.28125 18.015625 
L 9.28125 47.703125 
L 2.6875 47.703125 
L 2.6875 54.6875 
L 9.28125 54.6875 
L 9.28125 70.21875 
z
" id="DejaVuSans-116"/>
       <path d="M 54.890625 33.015625 
L 54.890625 0 
L 45.90625 0 
L 45.90625 32.71875 
Q 45.90625 40.484375 42.875 44.328125 
Q 39.84375 48.1875 33.796875 48.1875 
Q 26.515625 48.1875 22.3125 43.546875 
Q 18.109375 38.921875 18.109375 30.90625 
L 18.109375 0 
L 9.078125 0 
L 9.078125 75.984375 
L 18.109375 75.984375 
L 18.109375 46.1875 
Q 21.34375 51.125 25.703125 53.5625 
Q 30.078125 56 35.796875 56 
Q 45.21875 56 50.046875 50.171875 
Q 54.890625 44.34375 54.890625 33.015625 
z
" id="DejaVuSans-104"/>
       <path d="M 8.59375 75.984375 
L 29.296875 75.984375 
L 29.296875 69 
L 17.578125 69 
L 17.578125 -6.203125 
L 29.296875 -6.203125 
L 29.296875 -13.1875 
L 8.59375 -13.1875 
z
" id="DejaVuSans-91"/>
       <path d="M 30.421875 75.984375 
L 30.421875 -13.1875 
L 9.71875 -13.1875 
L 9.71875 -6.203125 
L 21.390625 -6.203125 
L 21.390625 69 
L 9.71875 69 
L 9.71875 75.984375 
z
" id="DejaVuSans-93"/>
      </defs>
      <use xlink:href="#DejaVuSans-66"/>
      <use x="68.603516" xlink:href="#DejaVuSans-101"/>
      <use x="130.126953" xlink:href="#DejaVuSans-97"/>
      <use x="191.40625" xlink:href="#DejaVuSans-109"/>
      <use x="288.818359" xlink:href="#DejaVuSans-32"/>
      <use x="320.605469" xlink:href="#DejaVuSans-76"/>
      <use x="374.568359" xlink:href="#DejaVuSans-101"/>
      <use x="436.091797" xlink:href="#DejaVuSans-110"/>
      <use x="499.470703" xlink:href="#DejaVuSans-103"/>
      <use x="562.947266" xlink:href="#DejaVuSans-116"/>
      <use x="602.15625" xlink:href="#DejaVuSans-104"/>
      <use x="665.535156" xlink:href="#DejaVuSans-32"/>
      <use x="697.322266" xlink:href="#DejaVuSans-91"/>
      <use x="736.335938" xlink:href="#DejaVuSans-109"/>
      <use x="833.748047" xlink:href="#DejaVuSans-93"/>
     </g>
    </g>
   </g>
   <g id="matplotlib.axis_2">
    <g id="ytick_1">
     <g id="line2d_9">
      <defs>
       <path d="M 0 0 
L -3.5 0 
" id="maaf9cb8259" style="stroke:#000000;stroke-width:0.8;"/>
      </defs>
      <g>
       <use style="stroke:#000000;stroke-width:0.8;" x="119.976406" xlink:href="#maaf9cb8259" y="419.564037"/>
      </g>
     </g>
     <g id="text_10">
      <!-- −0.30 -->
      <g transform="translate(36.363125 429.062084)scale(0.25 -0.25)">
       <defs>
        <path d="M 10.59375 35.5 
L 73.1875 35.5 
L 73.1875 27.203125 
L 10.59375 27.203125 
z
" id="DejaVuSans-8722"/>
        <path d="M 40.578125 39.3125 
Q 47.65625 37.796875 51.625 33 
Q 55.609375 28.21875 55.609375 21.1875 
Q 55.609375 10.40625 48.1875 4.484375 
Q 40.765625 -1.421875 27.09375 -1.421875 
Q 22.515625 -1.421875 17.65625 -0.515625 
Q 12.796875 0.390625 7.625 2.203125 
L 7.625 11.71875 
Q 11.71875 9.328125 16.59375 8.109375 
Q 21.484375 6.890625 26.8125 6.890625 
Q 36.078125 6.890625 40.9375 10.546875 
Q 45.796875 14.203125 45.796875 21.1875 
Q 45.796875 27.640625 41.28125 31.265625 
Q 36.765625 34.90625 28.71875 34.90625 
L 20.21875 34.90625 
L 20.21875 43.015625 
L 29.109375 43.015625 
Q 36.375 43.015625 40.234375 45.921875 
Q 44.09375 48.828125 44.09375 54.296875 
Q 44.09375 59.90625 40.109375 62.90625 
Q 36.140625 65.921875 28.71875 65.921875 
Q 24.65625 65.921875 20.015625 65.03125 
Q 15.375 64.15625 9.8125 62.3125 
L 9.8125 71.09375 
Q 15.4375 72.65625 20.34375 73.4375 
Q 25.25 74.21875 29.59375 74.21875 
Q 40.828125 74.21875 47.359375 69.109375 
Q 53.90625 64.015625 53.90625 55.328125 
Q 53.90625 49.265625 50.4375 45.09375 
Q 46.96875 40.921875 40.578125 39.3125 
z
" id="DejaVuSans-51"/>
       </defs>
       <use xlink:href="#DejaVuSans-8722"/>
       <use x="83.789062" xlink:href="#DejaVuSans-48"/>
       <use x="147.412109" xlink:href="#DejaVuSans-46"/>
       <use x="179.199219" xlink:href="#DejaVuSans-51"/>
       <use x="242.822266" xlink:href="#DejaVuSans-48"/>
      </g>
     </g>
    </g>
    <g id="ytick_2">
     <g id="line2d_10">
      <g>
       <use style="stroke:#000000;stroke-width:0.8;" x="119.976406" xlink:href="#maaf9cb8259" y="354.196697"/>
      </g>
     </g>
     <g id="text_11">
      <!-- −0.25 -->
      <g transform="translate(36.363125 363.694744)scale(0.25 -0.25)">
       <defs>
        <path d="M 10.796875 72.90625 
L 49.515625 72.90625 
L 49.515625 64.59375 
L 19.828125 64.59375 
L 19.828125 46.734375 
Q 21.96875 47.46875 24.109375 47.828125 
Q 26.265625 48.1875 28.421875 48.1875 
Q 40.625 48.1875 47.75 41.5 
Q 54.890625 34.8125 54.890625 23.390625 
Q 54.890625 11.625 47.5625 5.09375 
Q 40.234375 -1.421875 26.90625 -1.421875 
Q 22.3125 -1.421875 17.546875 -0.640625 
Q 12.796875 0.140625 7.71875 1.703125 
L 7.71875 11.625 
Q 12.109375 9.234375 16.796875 8.0625 
Q 21.484375 6.890625 26.703125 6.890625 
Q 35.15625 6.890625 40.078125 11.328125 
Q 45.015625 15.765625 45.015625 23.390625 
Q 45.015625 31 40.078125 35.4375 
Q 35.15625 39.890625 26.703125 39.890625 
Q 22.75 39.890625 18.8125 39.015625 
Q 14.890625 38.140625 10.796875 36.28125 
z
" id="DejaVuSans-53"/>
       </defs>
       <use xlink:href="#DejaVuSans-8722"/>
       <use x="83.789062" xlink:href="#DejaVuSans-48"/>
       <use x="147.412109" xlink:href="#DejaVuSans-46"/>
       <use x="179.199219" xlink:href="#DejaVuSans-50"/>
       <use x="242.822266" xlink:href="#DejaVuSans-53"/>
      </g>
     </g>
    </g>
    <g id="ytick_3">
     <g id="line2d_11">
      <g>
       <use style="stroke:#000000;stroke-width:0.8;" x="119.976406" xlink:href="#maaf9cb8259" y="288.829358"/>
      </g>
     </g>
     <g id="text_12">
      <!-- −0.20 -->
      <g transform="translate(36.363125 298.327405)scale(0.25 -0.25)">
       <use xlink:href="#DejaVuSans-8722"/>
       <use x="83.789062" xlink:href="#DejaVuSans-48"/>
       <use x="147.412109" xlink:href="#DejaVuSans-46"/>
       <use x="179.199219" xlink:href="#DejaVuSans-50"/>
       <use x="242.822266" xlink:href="#DejaVuSans-48"/>
      </g>
     </g>
    </g>
    <g id="ytick_4">
     <g id="line2d_12">
      <g>
       <use style="stroke:#000000;stroke-width:0.8;" x="119.976406" xlink:href="#maaf9cb8259" y="223.462018"/>
      </g>
     </g>
     <g id="text_13">
      <!-- −0.15 -->
      <g transform="translate(36.363125 232.960065)scale(0.25 -0.25)">
       <use xlink:href="#DejaVuSans-8722"/>
       <use x="83.789062" xlink:href="#DejaVuSans-48"/>
       <use x="147.412109" xlink:href="#DejaVuSans-46"/>
       <use x="179.199219" xlink:href="#DejaVuSans-49"/>
       <use x="242.822266" xlink:href="#DejaVuSans-53"/>
      </g>
     </g>
    </g>
    <g id="ytick_5">
     <g id="line2d_13">
      <g>
       <use style="stroke:#000000;stroke-width:0.8;" x="119.976406" xlink:href="#maaf9cb8259" y="158.094679"/>
      </g>
     </g>
     <g id="text_14">
      <!-- −0.10 -->
      <g transform="translate(36.363125 167.592726)scale(0.25 -0.25)">
       <use xlink:href="#DejaVuSans-8722"/>
       <use x="83.789062" xlink:href="#DejaVuSans-48"/>
       <use x="147.412109" xlink:href="#DejaVuSans-46"/>
       <use x="179.199219" xlink:href="#DejaVuSans-49"/>
       <use x="242.822266" xlink:href="#DejaVuSans-48"/>
      </g>
     </g>
    </g>
    <g id="ytick_6">
     <g id="line2d_14">
      <g>
       <use style="stroke:#000000;stroke-width:0.8;" x="119.976406" xlink:href="#maaf9cb8259" y="92.727339"/>
      </g>
     </g>
     <g id="text_15">
      <!-- −0.05 -->
      <g transform="translate(36.363125 102.225386)scale(0.25 -0.25)">
       <use xlink:href="#DejaVuSans-8722"/>
       <use x="83.789062" xlink:href="#DejaVuSans-48"/>
       <use x="147.412109" xlink:href="#DejaVuSans-46"/>
       <use x="179.199219" xlink:href="#DejaVuSans-48"/>
       <use x="242.822266" xlink:href="#DejaVuSans-53"/>
      </g>
     </g>
    </g>
    <g id="ytick_7">
     <g id="line2d_15">
      <g>
       <use style="stroke:#000000;stroke-width:0.8;" x="119.976406" xlink:href="#maaf9cb8259" y="27.36"/>
      </g>
     </g>
     <g id="text_16">
      <!-- 0.00 -->
      <g transform="translate(57.312344 36.858047)scale(0.25 -0.25)">
       <use xlink:href="#DejaVuSans-48"/>
       <use x="63.623047" xlink:href="#DejaVuSans-46"/>
       <use x="95.410156" xlink:href="#DejaVuSans-48"/>
       <use x="159.033203" xlink:href="#DejaVuSans-48"/>
      </g>
     </g>
    </g>
    <g id="text_17">
     <!-- Amplitude -->
     <g transform="translate(26.955938 295.578906)rotate(-90)scale(0.26 -0.26)">
      <defs>
       <path d="M 34.1875 63.1875 
L 20.796875 26.90625 
L 47.609375 26.90625 
z
M 28.609375 72.90625 
L 39.796875 72.90625 
L 67.578125 0 
L 57.328125 0 
L 50.6875 18.703125 
L 17.828125 18.703125 
L 11.1875 0 
L 0.78125 0 
z
" id="DejaVuSans-65"/>
       <path d="M 18.109375 8.203125 
L 18.109375 -20.796875 
L 9.078125 -20.796875 
L 9.078125 54.6875 
L 18.109375 54.6875 
L 18.109375 46.390625 
Q 20.953125 51.265625 25.265625 53.625 
Q 29.59375 56 35.59375 56 
Q 45.5625 56 51.78125 48.09375 
Q 58.015625 40.1875 58.015625 27.296875 
Q 58.015625 14.40625 51.78125 6.484375 
Q 45.5625 -1.421875 35.59375 -1.421875 
Q 29.59375 -1.421875 25.265625 0.953125 
Q 20.953125 3.328125 18.109375 8.203125 
z
M 48.6875 27.296875 
Q 48.6875 37.203125 44.609375 42.84375 
Q 40.53125 48.484375 33.40625 48.484375 
Q 26.265625 48.484375 22.1875 42.84375 
Q 18.109375 37.203125 18.109375 27.296875 
Q 18.109375 17.390625 22.1875 11.75 
Q 26.265625 6.109375 33.40625 6.109375 
Q 40.53125 6.109375 44.609375 11.75 
Q 48.6875 17.390625 48.6875 27.296875 
z
" id="DejaVuSans-112"/>
       <path d="M 9.421875 75.984375 
L 18.40625 75.984375 
L 18.40625 0 
L 9.421875 0 
z
" id="DejaVuSans-108"/>
       <path d="M 9.421875 54.6875 
L 18.40625 54.6875 
L 18.40625 0 
L 9.421875 0 
z
M 9.421875 75.984375 
L 18.40625 75.984375 
L 18.40625 64.59375 
L 9.421875 64.59375 
z
" id="DejaVuSans-105"/>
       <path d="M 8.5 21.578125 
L 8.5 54.6875 
L 17.484375 54.6875 
L 17.484375 21.921875 
Q 17.484375 14.15625 20.5 10.265625 
Q 23.53125 6.390625 29.59375 6.390625 
Q 36.859375 6.390625 41.078125 11.03125 
Q 45.3125 15.671875 45.3125 23.6875 
L 45.3125 54.6875 
L 54.296875 54.6875 
L 54.296875 0 
L 45.3125 0 
L 45.3125 8.40625 
Q 42.046875 3.421875 37.71875 1 
Q 33.40625 -1.421875 27.6875 -1.421875 
Q 18.265625 -1.421875 13.375 4.4375 
Q 8.5 10.296875 8.5 21.578125 
z
M 31.109375 56 
z
" id="DejaVuSans-117"/>
       <path d="M 45.40625 46.390625 
L 45.40625 75.984375 
L 54.390625 75.984375 
L 54.390625 0 
L 45.40625 0 
L 45.40625 8.203125 
Q 42.578125 3.328125 38.25 0.953125 
Q 33.9375 -1.421875 27.875 -1.421875 
Q 17.96875 -1.421875 11.734375 6.484375 
Q 5.515625 14.40625 5.515625 27.296875 
Q 5.515625 40.1875 11.734375 48.09375 
Q 17.96875 56 27.875 56 
Q 33.9375 56 38.25 53.625 
Q 42.578125 51.265625 45.40625 46.390625 
z
M 14.796875 27.296875 
Q 14.796875 17.390625 18.875 11.75 
Q 22.953125 6.109375 30.078125 6.109375 
Q 37.203125 6.109375 41.296875 11.75 
Q 45.40625 17.390625 45.40625 27.296875 
Q 45.40625 37.203125 41.296875 42.84375 
Q 37.203125 48.484375 30.078125 48.484375 
Q 22.953125 48.484375 18.875 42.84375 
Q 14.796875 37.203125 14.796875 27.296875 
z
" id="DejaVuSans-100"/>
      </defs>
      <use xlink:href="#DejaVuSans-65"/>
      <use x="68.408203" xlink:href="#DejaVuSans-109"/>
      <use x="165.820312" xlink:href="#DejaVuSans-112"/>
      <use x="229.296875" xlink:href="#DejaVuSans-108"/>
      <use x="257.080078" xlink:href="#DejaVuSans-105"/>
      <use x="284.863281" xlink:href="#DejaVuSans-116"/>
      <use x="324.072266" xlink:href="#DejaVuSans-117"/>
      <use x="387.451172" xlink:href="#DejaVuSans-100"/>
      <use x="450.927734" xlink:href="#DejaVuSans-101"/>
     </g>
    </g>
   </g>
   <g id="line2d_16">
    <defs>
     <path d="M 0 -3 
L -3 3 
L 3 3 
z
" id="m2ee13b30bd" style="stroke:#000000;stroke-linejoin:miter;"/>
    </defs>
    <g clip-path="url(#p629749a56c)">
     <use style="stroke:#000000;stroke-linejoin:miter;" x="158.021861" xlink:href="#m2ee13b30bd" y="27.36"/>
     <use style="stroke:#000000;stroke-linejoin:miter;" x="163.094588" xlink:href="#m2ee13b30bd" y="27.396322"/>
     <use style="stroke:#000000;stroke-linejoin:miter;" x="168.167315" xlink:href="#m2ee13b30bd" y="27.504585"/>
     <use style="stroke:#000000;stroke-linejoin:miter;" x="173.240043" xlink:href="#m2ee13b30bd" y="27.683806"/>
     <use style="stroke:#000000;stroke-linejoin:miter;" x="178.31277" xlink:href="#m2ee13b30bd" y="27.933008"/>
     <use style="stroke:#000000;stroke-linejoin:miter;" x="183.385497" xlink:href="#m2ee13b30bd" y="28.251217"/>
     <use style="stroke:#000000;stroke-linejoin:miter;" x="188.458224" xlink:href="#m2ee13b30bd" y="28.637466"/>
     <use style="stroke:#000000;stroke-linejoin:miter;" x="193.530952" xlink:href="#m2ee13b30bd" y="29.090791"/>
     <use style="stroke:#000000;stroke-linejoin:miter;" x="198.603679" xlink:href="#m2ee13b30bd" y="29.610238"/>
     <use style="stroke:#000000;stroke-linejoin:miter;" x="203.676406" xlink:href="#m2ee13b30bd" y="30.194852"/>
     <use style="stroke:#000000;stroke-linejoin:miter;" x="208.749134" xlink:href="#m2ee13b30bd" y="30.843688"/>
     <use style="stroke:#000000;stroke-linejoin:miter;" x="213.821861" xlink:href="#m2ee13b30bd" y="31.555808"/>
     <use style="stroke:#000000;stroke-linejoin:miter;" x="218.894588" xlink:href="#m2ee13b30bd" y="32.330276"/>
     <use style="stroke:#000000;stroke-linejoin:miter;" x="223.967315" xlink:href="#m2ee13b30bd" y="33.166166"/>
     <use style="stroke:#000000;stroke-linejoin:miter;" x="229.040043" xlink:href="#m2ee13b30bd" y="34.062557"/>
     <use style="stroke:#000000;stroke-linejoin:miter;" x="234.11277" xlink:href="#m2ee13b30bd" y="35.01853"/>
     <use style="stroke:#000000;stroke-linejoin:miter;" x="239.185497" xlink:href="#m2ee13b30bd" y="36.033182"/>
     <use style="stroke:#000000;stroke-linejoin:miter;" x="244.258224" xlink:href="#m2ee13b30bd" y="37.105606"/>
     <use style="stroke:#000000;stroke-linejoin:miter;" x="249.330952" xlink:href="#m2ee13b30bd" y="38.234909"/>
     <use style="stroke:#000000;stroke-linejoin:miter;" x="254.403679" xlink:href="#m2ee13b30bd" y="39.420202"/>
     <use style="stroke:#000000;stroke-linejoin:miter;" x="259.476406" xlink:href="#m2ee13b30bd" y="40.660606"/>
     <use style="stroke:#000000;stroke-linejoin:miter;" x="264.549134" xlink:href="#m2ee13b30bd" y="41.955246"/>
     <use style="stroke:#000000;stroke-linejoin:miter;" x="269.621861" xlink:href="#m2ee13b30bd" y="43.303238"/>
     <use style="stroke:#000000;stroke-linejoin:miter;" x="274.694588" xlink:href="#m2ee13b30bd" y="44.703746"/>
     <use style="stroke:#000000;stroke-linejoin:miter;" x="279.767315" xlink:href="#m2ee13b30bd" y="46.155908"/>
     <use style="stroke:#000000;stroke-linejoin:miter;" x="284.840043" xlink:href="#m2ee13b30bd" y="47.65886"/>
     <use style="stroke:#000000;stroke-linejoin:miter;" x="289.91277" xlink:href="#m2ee13b30bd" y="49.211792"/>
     <use style="stroke:#000000;stroke-linejoin:miter;" x="294.985497" xlink:href="#m2ee13b30bd" y="50.813841"/>
     <use style="stroke:#000000;stroke-linejoin:miter;" x="300.058224" xlink:href="#m2ee13b30bd" y="52.464209"/>
     <use style="stroke:#000000;stroke-linejoin:miter;" x="305.130952" xlink:href="#m2ee13b30bd" y="54.162073"/>
     <use style="stroke:#000000;stroke-linejoin:miter;" x="310.203679" xlink:href="#m2ee13b30bd" y="55.90661"/>
     <use style="stroke:#000000;stroke-linejoin:miter;" x="315.276406" xlink:href="#m2ee13b30bd" y="57.697021"/>
     <use style="stroke:#000000;stroke-linejoin:miter;" x="320.349134" xlink:href="#m2ee13b30bd" y="59.53251"/>
     <use style="stroke:#000000;stroke-linejoin:miter;" x="325.421861" xlink:href="#m2ee13b30bd" y="61.412292"/>
     <use style="stroke:#000000;stroke-linejoin:miter;" x="330.494588" xlink:href="#m2ee13b30bd" y="63.335595"/>
     <use style="stroke:#000000;stroke-linejoin:miter;" x="335.567315" xlink:href="#m2ee13b30bd" y="65.301635"/>
     <use style="stroke:#000000;stroke-linejoin:miter;" x="340.640043" xlink:href="#m2ee13b30bd" y="67.309655"/>
     <use style="stroke:#000000;stroke-linejoin:miter;" x="345.71277" xlink:href="#m2ee13b30bd" y="69.358882"/>
     <use style="stroke:#000000;stroke-linejoin:miter;" x="350.785497" xlink:href="#m2ee13b30bd" y="71.448571"/>
     <use style="stroke:#000000;stroke-linejoin:miter;" x="355.858224" xlink:href="#m2ee13b30bd" y="73.57799"/>
     <use style="stroke:#000000;stroke-linejoin:miter;" x="360.930952" xlink:href="#m2ee13b30bd" y="75.746395"/>
     <use style="stroke:#000000;stroke-linejoin:miter;" x="366.003679" xlink:href="#m2ee13b30bd" y="77.953053"/>
     <use style="stroke:#000000;stroke-linejoin:miter;" x="371.076406" xlink:href="#m2ee13b30bd" y="80.197244"/>
     <use style="stroke:#000000;stroke-linejoin:miter;" x="376.149134" xlink:href="#m2ee13b30bd" y="82.478264"/>
     <use style="stroke:#000000;stroke-linejoin:miter;" x="381.221861" xlink:href="#m2ee13b30bd" y="84.795405"/>
     <use style="stroke:#000000;stroke-linejoin:miter;" x="386.294588" xlink:href="#m2ee13b30bd" y="87.147963"/>
     <use style="stroke:#000000;stroke-linejoin:miter;" x="391.367315" xlink:href="#m2ee13b30bd" y="89.535256"/>
     <use style="stroke:#000000;stroke-linejoin:miter;" x="396.440043" xlink:href="#m2ee13b30bd" y="91.95658"/>
     <use style="stroke:#000000;stroke-linejoin:miter;" x="401.51277" xlink:href="#m2ee13b30bd" y="94.411281"/>
     <use style="stroke:#000000;stroke-linejoin:miter;" x="406.585497" xlink:href="#m2ee13b30bd" y="96.898691"/>
     <use style="stroke:#000000;stroke-linejoin:miter;" x="411.658224" xlink:href="#m2ee13b30bd" y="99.418131"/>
     <use style="stroke:#000000;stroke-linejoin:miter;" x="416.730952" xlink:href="#m2ee13b30bd" y="101.968961"/>
     <use style="stroke:#000000;stroke-linejoin:miter;" x="421.803679" xlink:href="#m2ee13b30bd" y="104.550526"/>
     <use style="stroke:#000000;stroke-linejoin:miter;" x="426.876406" xlink:href="#m2ee13b30bd" y="107.1622"/>
     <use style="stroke:#000000;stroke-linejoin:miter;" x="431.949134" xlink:href="#m2ee13b30bd" y="109.803341"/>
     <use style="stroke:#000000;stroke-linejoin:miter;" x="437.021861" xlink:href="#m2ee13b30bd" y="112.473335"/>
     <use style="stroke:#000000;stroke-linejoin:miter;" x="442.094588" xlink:href="#m2ee13b30bd" y="115.171542"/>
     <use style="stroke:#000000;stroke-linejoin:miter;" x="447.167315" xlink:href="#m2ee13b30bd" y="117.897373"/>
     <use style="stroke:#000000;stroke-linejoin:miter;" x="452.240043" xlink:href="#m2ee13b30bd" y="120.650227"/>
     <use style="stroke:#000000;stroke-linejoin:miter;" x="457.31277" xlink:href="#m2ee13b30bd" y="123.429503"/>
     <use style="stroke:#000000;stroke-linejoin:miter;" x="462.385497" xlink:href="#m2ee13b30bd" y="126.234612"/>
     <use style="stroke:#000000;stroke-linejoin:miter;" x="467.458224" xlink:href="#m2ee13b30bd" y="129.064965"/>
     <use style="stroke:#000000;stroke-linejoin:miter;" x="472.530952" xlink:href="#m2ee13b30bd" y="131.920001"/>
     <use style="stroke:#000000;stroke-linejoin:miter;" x="477.603679" xlink:href="#m2ee13b30bd" y="134.799158"/>
     <use style="stroke:#000000;stroke-linejoin:miter;" x="482.676406" xlink:href="#m2ee13b30bd" y="137.70186"/>
     <use style="stroke:#000000;stroke-linejoin:miter;" x="487.749134" xlink:href="#m2ee13b30bd" y="140.627571"/>
     <use style="stroke:#000000;stroke-linejoin:miter;" x="492.821861" xlink:href="#m2ee13b30bd" y="143.57573"/>
     <use style="stroke:#000000;stroke-linejoin:miter;" x="497.894588" xlink:href="#m2ee13b30bd" y="146.545813"/>
     <use style="stroke:#000000;stroke-linejoin:miter;" x="502.967315" xlink:href="#m2ee13b30bd" y="149.537284"/>
     <use style="stroke:#000000;stroke-linejoin:miter;" x="508.040043" xlink:href="#m2ee13b30bd" y="152.54962"/>
     <use style="stroke:#000000;stroke-linejoin:miter;" x="513.11277" xlink:href="#m2ee13b30bd" y="155.582298"/>
     <use style="stroke:#000000;stroke-linejoin:miter;" x="518.185497" xlink:href="#m2ee13b30bd" y="158.634875"/>
     <use style="stroke:#000000;stroke-linejoin:miter;" x="523.258224" xlink:href="#m2ee13b30bd" y="161.706617"/>
     <use style="stroke:#000000;stroke-linejoin:miter;" x="528.330952" xlink:href="#m2ee13b30bd" y="164.797315"/>
     <use style="stroke:#000000;stroke-linejoin:miter;" x="533.403679" xlink:href="#m2ee13b30bd" y="167.906447"/>
     <use style="stroke:#000000;stroke-linejoin:miter;" x="538.476406" xlink:href="#m2ee13b30bd" y="171.033359"/>
     <use style="stroke:#000000;stroke-linejoin:miter;" x="543.549134" xlink:href="#m2ee13b30bd" y="174.177659"/>
     <use style="stroke:#000000;stroke-linejoin:miter;" x="548.621861" xlink:href="#m2ee13b30bd" y="177.338824"/>
     <use style="stroke:#000000;stroke-linejoin:miter;" x="553.694588" xlink:href="#m2ee13b30bd" y="180.516461"/>
     <use style="stroke:#000000;stroke-linejoin:miter;" x="558.767315" xlink:href="#m2ee13b30bd" y="183.710178"/>
     <use style="stroke:#000000;stroke-linejoin:miter;" x="563.840043" xlink:href="#m2ee13b30bd" y="186.919453"/>
     <use style="stroke:#000000;stroke-linejoin:miter;" x="568.91277" xlink:href="#m2ee13b30bd" y="190.143763"/>
     <use style="stroke:#000000;stroke-linejoin:miter;" x="573.985497" xlink:href="#m2ee13b30bd" y="193.382845"/>
     <use style="stroke:#000000;stroke-linejoin:miter;" x="579.058224" xlink:href="#m2ee13b30bd" y="196.636177"/>
     <use style="stroke:#000000;stroke-linejoin:miter;" x="584.130952" xlink:href="#m2ee13b30bd" y="199.903237"/>
     <use style="stroke:#000000;stroke-linejoin:miter;" x="589.203679" xlink:href="#m2ee13b30bd" y="203.183762"/>
     <use style="stroke:#000000;stroke-linejoin:miter;" x="594.276406" xlink:href="#m2ee13b30bd" y="206.477361"/>
     <use style="stroke:#000000;stroke-linejoin:miter;" x="599.349134" xlink:href="#m2ee13b30bd" y="209.78351"/>
     <use style="stroke:#000000;stroke-linejoin:miter;" x="604.421861" xlink:href="#m2ee13b30bd" y="213.101818"/>
     <use style="stroke:#000000;stroke-linejoin:miter;" x="609.494588" xlink:href="#m2ee13b30bd" y="216.432023"/>
     <use style="stroke:#000000;stroke-linejoin:miter;" x="614.567315" xlink:href="#m2ee13b30bd" y="219.773601"/>
     <use style="stroke:#000000;stroke-linejoin:miter;" x="619.640043" xlink:href="#m2ee13b30bd" y="223.126292"/>
     <use style="stroke:#000000;stroke-linejoin:miter;" x="624.71277" xlink:href="#m2ee13b30bd" y="226.489703"/>
     <use style="stroke:#000000;stroke-linejoin:miter;" x="629.785497" xlink:href="#m2ee13b30bd" y="229.863442"/>
     <use style="stroke:#000000;stroke-linejoin:miter;" x="634.858224" xlink:href="#m2ee13b30bd" y="233.247117"/>
     <use style="stroke:#000000;stroke-linejoin:miter;" x="639.930952" xlink:href="#m2ee13b30bd" y="236.640466"/>
     <use style="stroke:#000000;stroke-linejoin:miter;" x="645.003679" xlink:href="#m2ee13b30bd" y="240.042967"/>
     <use style="stroke:#000000;stroke-linejoin:miter;" x="650.076406" xlink:href="#m2ee13b30bd" y="243.454488"/>
     <use style="stroke:#000000;stroke-linejoin:miter;" x="655.149134" xlink:href="#m2ee13b30bd" y="246.874638"/>
     <use style="stroke:#000000;stroke-linejoin:miter;" x="660.221861" xlink:href="#m2ee13b30bd" y="250.303155"/>
     <use style="stroke:#000000;stroke-linejoin:miter;" x="665.294588" xlink:href="#m2ee13b30bd" y="253.739516"/>
     <use style="stroke:#000000;stroke-linejoin:miter;" x="670.367315" xlink:href="#m2ee13b30bd" y="257.183591"/>
     <use style="stroke:#000000;stroke-linejoin:miter;" x="675.440043" xlink:href="#m2ee13b30bd" y="260.635117"/>
     <use style="stroke:#000000;stroke-linejoin:miter;" x="680.51277" xlink:href="#m2ee13b30bd" y="264.093572"/>
     <use style="stroke:#000000;stroke-linejoin:miter;" x="685.585497" xlink:href="#m2ee13b30bd" y="267.558826"/>
     <use style="stroke:#000000;stroke-linejoin:miter;" x="690.658224" xlink:href="#m2ee13b30bd" y="271.030616"/>
     <use style="stroke:#000000;stroke-linejoin:miter;" x="695.730952" xlink:href="#m2ee13b30bd" y="274.50855"/>
     <use style="stroke:#000000;stroke-linejoin:miter;" x="700.803679" xlink:href="#m2ee13b30bd" y="277.992368"/>
     <use style="stroke:#000000;stroke-linejoin:miter;" x="705.876406" xlink:href="#m2ee13b30bd" y="281.481938"/>
     <use style="stroke:#000000;stroke-linejoin:miter;" x="710.949134" xlink:href="#m2ee13b30bd" y="284.976738"/>
     <use style="stroke:#000000;stroke-linejoin:miter;" x="716.021861" xlink:href="#m2ee13b30bd" y="288.476897"/>
     <use style="stroke:#000000;stroke-linejoin:miter;" x="721.094588" xlink:href="#m2ee13b30bd" y="291.981763"/>
     <use style="stroke:#000000;stroke-linejoin:miter;" x="726.167315" xlink:href="#m2ee13b30bd" y="295.491466"/>
     <use style="stroke:#000000;stroke-linejoin:miter;" x="731.240043" xlink:href="#m2ee13b30bd" y="299.005484"/>
     <use style="stroke:#000000;stroke-linejoin:miter;" x="736.31277" xlink:href="#m2ee13b30bd" y="302.523685"/>
     <use style="stroke:#000000;stroke-linejoin:miter;" x="741.385497" xlink:href="#m2ee13b30bd" y="306.045808"/>
     <use style="stroke:#000000;stroke-linejoin:miter;" x="746.458224" xlink:href="#m2ee13b30bd" y="309.571722"/>
     <use style="stroke:#000000;stroke-linejoin:miter;" x="751.530952" xlink:href="#m2ee13b30bd" y="313.101166"/>
     <use style="stroke:#000000;stroke-linejoin:miter;" x="756.603679" xlink:href="#m2ee13b30bd" y="316.634009"/>
     <use style="stroke:#000000;stroke-linejoin:miter;" x="761.676406" xlink:href="#m2ee13b30bd" y="320.16986"/>
     <use style="stroke:#000000;stroke-linejoin:miter;" x="766.749134" xlink:href="#m2ee13b30bd" y="323.708717"/>
     <use style="stroke:#000000;stroke-linejoin:miter;" x="771.821861" xlink:href="#m2ee13b30bd" y="327.250319"/>
     <use style="stroke:#000000;stroke-linejoin:miter;" x="776.894588" xlink:href="#m2ee13b30bd" y="330.794536"/>
     <use style="stroke:#000000;stroke-linejoin:miter;" x="781.967315" xlink:href="#m2ee13b30bd" y="334.341107"/>
     <use style="stroke:#000000;stroke-linejoin:miter;" x="787.040043" xlink:href="#m2ee13b30bd" y="337.889899"/>
     <use style="stroke:#000000;stroke-linejoin:miter;" x="792.11277" xlink:href="#m2ee13b30bd" y="341.440784"/>
     <use style="stroke:#000000;stroke-linejoin:miter;" x="797.185497" xlink:href="#m2ee13b30bd" y="344.993499"/>
     <use style="stroke:#000000;stroke-linejoin:miter;" x="802.258224" xlink:href="#m2ee13b30bd" y="348.548044"/>
     <use style="stroke:#000000;stroke-linejoin:miter;" x="807.330952" xlink:href="#m2ee13b30bd" y="352.104158"/>
     <use style="stroke:#000000;stroke-linejoin:miter;" x="812.403679" xlink:href="#m2ee13b30bd" y="355.661841"/>
     <use style="stroke:#000000;stroke-linejoin:miter;" x="817.476406" xlink:href="#m2ee13b30bd" y="359.2207"/>
     <use style="stroke:#000000;stroke-linejoin:miter;" x="822.549134" xlink:href="#m2ee13b30bd" y="362.780998"/>
     <use style="stroke:#000000;stroke-linejoin:miter;" x="827.621861" xlink:href="#m2ee13b30bd" y="366.342211"/>
     <use style="stroke:#000000;stroke-linejoin:miter;" x="832.694588" xlink:href="#m2ee13b30bd" y="369.904469"/>
     <use style="stroke:#000000;stroke-linejoin:miter;" x="837.767315" xlink:href="#m2ee13b30bd" y="373.467643"/>
     <use style="stroke:#000000;stroke-linejoin:miter;" x="842.840043" xlink:href="#m2ee13b30bd" y="377.031601"/>
     <use style="stroke:#000000;stroke-linejoin:miter;" x="847.91277" xlink:href="#m2ee13b30bd" y="380.596343"/>
     <use style="stroke:#000000;stroke-linejoin:miter;" x="852.985497" xlink:href="#m2ee13b30bd" y="384.161478"/>
     <use style="stroke:#000000;stroke-linejoin:miter;" x="858.058224" xlink:href="#m2ee13b30bd" y="387.727266"/>
     <use style="stroke:#000000;stroke-linejoin:miter;" x="863.130952" xlink:href="#m2ee13b30bd" y="391.293447"/>
     <use style="stroke:#000000;stroke-linejoin:miter;" x="868.203679" xlink:href="#m2ee13b30bd" y="394.86002"/>
     <use style="stroke:#000000;stroke-linejoin:miter;" x="873.276406" xlink:href="#m2ee13b30bd" y="398.426854"/>
     <use style="stroke:#000000;stroke-linejoin:miter;" x="878.349134" xlink:href="#m2ee13b30bd" y="401.99395"/>
     <use style="stroke:#000000;stroke-linejoin:miter;" x="883.421861" xlink:href="#m2ee13b30bd" y="405.561307"/>
     <use style="stroke:#000000;stroke-linejoin:miter;" x="888.494588" xlink:href="#m2ee13b30bd" y="409.128795"/>
     <use style="stroke:#000000;stroke-linejoin:miter;" x="893.567315" xlink:href="#m2ee13b30bd" y="412.696413"/>
     <use style="stroke:#000000;stroke-linejoin:miter;" x="898.640043" xlink:href="#m2ee13b30bd" y="416.264032"/>
     <use style="stroke:#000000;stroke-linejoin:miter;" x="903.71277" xlink:href="#m2ee13b30bd" y="419.831782"/>
     <use style="stroke:#000000;stroke-linejoin:miter;" x="908.785497" xlink:href="#m2ee13b30bd" y="423.3994"/>
     <use style="stroke:#000000;stroke-linejoin:miter;" x="913.858224" xlink:href="#m2ee13b30bd" y="426.96715"/>
     <use style="stroke:#000000;stroke-linejoin:miter;" x="918.930952" xlink:href="#m2ee13b30bd" y="430.534899"/>
    </g>
   </g>
   <g id="line2d_17">
    <path clip-path="url(#p629749a56c)" d="M 158.021861 27.36 
L 168.167315 27.491366 
L 178.31277 27.880593 
L 188.458224 28.52057 
L 198.603679 29.404263 
L 208.749134 30.524726 
L 218.894588 31.875097 
L 229.040043 33.448613 
L 239.185497 35.238597 
L 249.330952 37.238476 
L 259.476406 39.441771 
L 269.621861 41.842108 
L 279.767315 44.433217 
L 289.91277 47.20891 
L 300.058224 50.163161 
L 310.203679 53.289982 
L 320.349134 56.583541 
L 330.494588 60.0381 
L 345.71277 65.509504 
L 360.930952 71.31194 
L 376.149134 77.427434 
L 391.367315 83.838519 
L 406.585497 90.52833 
L 421.803679 97.47846 
L 437.021861 104.666749 
L 452.240043 112.077968 
L 467.458224 119.697904 
L 482.676406 127.51287 
L 502.967315 138.213438 
L 523.258224 149.207388 
L 543.549134 160.466337 
L 563.840043 171.963275 
L 589.203679 186.630922 
L 614.567315 201.584877 
L 639.930952 216.782261 
L 670.367315 235.285924 
L 705.876406 257.169864 
L 746.458224 282.469508 
L 797.185497 314.373607 
L 883.421861 368.927489 
L 918.930952 391.421436 
L 918.930952 391.421436 
" style="fill:none;stroke:#0000ff;stroke-linecap:square;stroke-width:3;"/>
   </g>
   <g id="line2d_18">
    <path clip-path="url(#p629749a56c)" d="M 158.021861 27.36 
L 168.167315 27.505262 
L 178.31277 27.935675 
L 188.458224 28.643378 
L 198.603679 29.620592 
L 208.749134 30.859625 
L 218.894588 32.352878 
L 229.040043 34.092849 
L 239.185497 36.072138 
L 249.330952 38.283449 
L 259.476406 40.719594 
L 269.621861 43.373482 
L 279.767315 46.238166 
L 289.91277 49.306784 
L 300.058224 52.572601 
L 310.203679 56.029004 
L 320.349134 59.669494 
L 330.494588 63.487666 
L 340.640043 67.477296 
L 350.785497 71.632227 
L 366.003679 78.161418 
L 381.221861 85.029237 
L 396.440043 92.216468 
L 411.658224 99.704545 
L 426.876406 107.473558 
L 442.094588 115.504354 
L 457.31277 123.780434 
L 472.530952 132.285849 
L 487.749134 141.005251 
L 508.040043 152.938529 
L 528.330952 165.192657 
L 548.621861 177.735865 
L 568.91277 190.53832 
L 589.203679 203.572044 
L 614.567315 220.14894 
L 639.930952 236.997895 
L 670.367315 257.514219 
L 700.803679 278.291751 
L 741.385497 306.299172 
L 792.11277 341.631395 
L 868.203679 394.951926 
L 918.930952 430.56 
L 918.930952 430.56 
" style="fill:none;stroke:#ff0000;stroke-linecap:square;stroke-width:3;"/>
   </g>
   <g id="patch_3">
    <path d="M 119.976406 450.72 
L 119.976406 7.2 
" style="fill:none;stroke:#000000;stroke-linecap:square;stroke-linejoin:miter;stroke-width:0.8;"/>
   </g>
   <g id="patch_4">
    <path d="M 956.976406 450.72 
L 956.976406 7.2 
" style="fill:none;stroke:#000000;stroke-linecap:square;stroke-linejoin:miter;stroke-width:0.8;"/>
   </g>
   <g id="patch_5">
    <path d="M 119.976406 450.72 
L 956.976406 450.72 
" style="fill:none;stroke:#000000;stroke-linecap:square;stroke-linejoin:miter;stroke-width:0.8;"/>
   </g>
   <g id="patch_6">
    <path d="M 119.976406 7.2 
L 956.976406 7.2 
" style="fill:none;stroke:#000000;stroke-linecap:square;stroke-linejoin:miter;stroke-width:0.8;"/>
   </g>
   <g id="legend_1">
    <g id="patch_7">
     <path d="M 647.766406 121.675625 
L 941.576406 121.675625 
Q 945.976406 121.675625 945.976406 117.275625 
L 945.976406 22.6 
Q 945.976406 18.2 941.576406 18.2 
L 647.766406 18.2 
Q 643.366406 18.2 643.366406 22.6 
L 643.366406 117.275625 
Q 643.366406 121.675625 647.766406 121.675625 
z
" style="fill:#ffffff;opacity:0.8;stroke:#cccccc;stroke-linejoin:miter;"/>
    </g>
    <g id="line2d_19"/>
    <g id="line2d_20">
     <g>
      <use style="stroke:#000000;stroke-linejoin:miter;" x="674.166406" xlink:href="#m2ee13b30bd" y="36.016563"/>
     </g>
    </g>
    <g id="text_18">
     <!-- Reference FEM -->
     <g transform="translate(713.766406 43.716563)scale(0.22 -0.22)">
      <defs>
       <path d="M 44.390625 34.1875 
Q 47.5625 33.109375 50.5625 29.59375 
Q 53.5625 26.078125 56.59375 19.921875 
L 66.609375 0 
L 56 0 
L 46.6875 18.703125 
Q 43.0625 26.03125 39.671875 28.421875 
Q 36.28125 30.8125 30.421875 30.8125 
L 19.671875 30.8125 
L 19.671875 0 
L 9.8125 0 
L 9.8125 72.90625 
L 32.078125 72.90625 
Q 44.578125 72.90625 50.734375 67.671875 
Q 56.890625 62.453125 56.890625 51.90625 
Q 56.890625 45.015625 53.6875 40.46875 
Q 50.484375 35.9375 44.390625 34.1875 
z
M 19.671875 64.796875 
L 19.671875 38.921875 
L 32.078125 38.921875 
Q 39.203125 38.921875 42.84375 42.21875 
Q 46.484375 45.515625 46.484375 51.90625 
Q 46.484375 58.296875 42.84375 61.546875 
Q 39.203125 64.796875 32.078125 64.796875 
z
" id="DejaVuSans-82"/>
       <path d="M 37.109375 75.984375 
L 37.109375 68.5 
L 28.515625 68.5 
Q 23.6875 68.5 21.796875 66.546875 
Q 19.921875 64.59375 19.921875 59.515625 
L 19.921875 54.6875 
L 34.71875 54.6875 
L 34.71875 47.703125 
L 19.921875 47.703125 
L 19.921875 0 
L 10.890625 0 
L 10.890625 47.703125 
L 2.296875 47.703125 
L 2.296875 54.6875 
L 10.890625 54.6875 
L 10.890625 58.5 
Q 10.890625 67.625 15.140625 71.796875 
Q 19.390625 75.984375 28.609375 75.984375 
z
" id="DejaVuSans-102"/>
       <path d="M 41.109375 46.296875 
Q 39.59375 47.171875 37.8125 47.578125 
Q 36.03125 48 33.890625 48 
Q 26.265625 48 22.1875 43.046875 
Q 18.109375 38.09375 18.109375 28.8125 
L 18.109375 0 
L 9.078125 0 
L 9.078125 54.6875 
L 18.109375 54.6875 
L 18.109375 46.1875 
Q 20.953125 51.171875 25.484375 53.578125 
Q 30.03125 56 36.53125 56 
Q 37.453125 56 38.578125 55.875 
Q 39.703125 55.765625 41.0625 55.515625 
z
" id="DejaVuSans-114"/>
       <path d="M 48.78125 52.59375 
L 48.78125 44.1875 
Q 44.96875 46.296875 41.140625 47.34375 
Q 37.3125 48.390625 33.40625 48.390625 
Q 24.65625 48.390625 19.8125 42.84375 
Q 14.984375 37.3125 14.984375 27.296875 
Q 14.984375 17.28125 19.8125 11.734375 
Q 24.65625 6.203125 33.40625 6.203125 
Q 37.3125 6.203125 41.140625 7.25 
Q 44.96875 8.296875 48.78125 10.40625 
L 48.78125 2.09375 
Q 45.015625 0.34375 40.984375 -0.53125 
Q 36.96875 -1.421875 32.421875 -1.421875 
Q 20.0625 -1.421875 12.78125 6.34375 
Q 5.515625 14.109375 5.515625 27.296875 
Q 5.515625 40.671875 12.859375 48.328125 
Q 20.21875 56 33.015625 56 
Q 37.15625 56 41.109375 55.140625 
Q 45.0625 54.296875 48.78125 52.59375 
z
" id="DejaVuSans-99"/>
       <path d="M 9.8125 72.90625 
L 51.703125 72.90625 
L 51.703125 64.59375 
L 19.671875 64.59375 
L 19.671875 43.109375 
L 48.578125 43.109375 
L 48.578125 34.8125 
L 19.671875 34.8125 
L 19.671875 0 
L 9.8125 0 
z
" id="DejaVuSans-70"/>
       <path d="M 9.8125 72.90625 
L 55.90625 72.90625 
L 55.90625 64.59375 
L 19.671875 64.59375 
L 19.671875 43.015625 
L 54.390625 43.015625 
L 54.390625 34.71875 
L 19.671875 34.71875 
L 19.671875 8.296875 
L 56.78125 8.296875 
L 56.78125 0 
L 9.8125 0 
z
" id="DejaVuSans-69"/>
       <path d="M 9.8125 72.90625 
L 24.515625 72.90625 
L 43.109375 23.296875 
L 61.8125 72.90625 
L 76.515625 72.90625 
L 76.515625 0 
L 66.890625 0 
L 66.890625 64.015625 
L 48.09375 14.015625 
L 38.1875 14.015625 
L 19.390625 64.015625 
L 19.390625 0 
L 9.8125 0 
z
" id="DejaVuSans-77"/>
      </defs>
      <use xlink:href="#DejaVuSans-82"/>
      <use x="64.982422" xlink:href="#DejaVuSans-101"/>
      <use x="126.505859" xlink:href="#DejaVuSans-102"/>
      <use x="161.710938" xlink:href="#DejaVuSans-101"/>
      <use x="223.234375" xlink:href="#DejaVuSans-114"/>
      <use x="262.097656" xlink:href="#DejaVuSans-101"/>
      <use x="323.621094" xlink:href="#DejaVuSans-110"/>
      <use x="387" xlink:href="#DejaVuSans-99"/>
      <use x="441.980469" xlink:href="#DejaVuSans-101"/>
      <use x="503.503906" xlink:href="#DejaVuSans-32"/>
      <use x="535.291016" xlink:href="#DejaVuSans-70"/>
      <use x="592.810547" xlink:href="#DejaVuSans-69"/>
      <use x="655.994141" xlink:href="#DejaVuSans-77"/>
     </g>
    </g>
    <g id="line2d_21">
     <path d="M 652.166406 68.308438 
L 696.166406 68.308438 
" style="fill:none;stroke:#0000ff;stroke-linecap:square;stroke-width:3;"/>
    </g>
    <g id="line2d_22"/>
    <g id="text_19">
     <!-- Initial mistuned FEM -->
     <g transform="translate(713.766406 76.008438)scale(0.22 -0.22)">
      <defs>
       <path d="M 9.8125 72.90625 
L 19.671875 72.90625 
L 19.671875 0 
L 9.8125 0 
z
" id="DejaVuSans-73"/>
       <path d="M 44.28125 53.078125 
L 44.28125 44.578125 
Q 40.484375 46.53125 36.375 47.5 
Q 32.28125 48.484375 27.875 48.484375 
Q 21.1875 48.484375 17.84375 46.4375 
Q 14.5 44.390625 14.5 40.28125 
Q 14.5 37.15625 16.890625 35.375 
Q 19.28125 33.59375 26.515625 31.984375 
L 29.59375 31.296875 
Q 39.15625 29.25 43.1875 25.515625 
Q 47.21875 21.78125 47.21875 15.09375 
Q 47.21875 7.46875 41.1875 3.015625 
Q 35.15625 -1.421875 24.609375 -1.421875 
Q 20.21875 -1.421875 15.453125 -0.5625 
Q 10.6875 0.296875 5.421875 2 
L 5.421875 11.28125 
Q 10.40625 8.6875 15.234375 7.390625 
Q 20.0625 6.109375 24.8125 6.109375 
Q 31.15625 6.109375 34.5625 8.28125 
Q 37.984375 10.453125 37.984375 14.40625 
Q 37.984375 18.0625 35.515625 20.015625 
Q 33.0625 21.96875 24.703125 23.78125 
L 21.578125 24.515625 
Q 13.234375 26.265625 9.515625 29.90625 
Q 5.8125 33.546875 5.8125 39.890625 
Q 5.8125 47.609375 11.28125 51.796875 
Q 16.75 56 26.8125 56 
Q 31.78125 56 36.171875 55.265625 
Q 40.578125 54.546875 44.28125 53.078125 
z
" id="DejaVuSans-115"/>
      </defs>
      <use xlink:href="#DejaVuSans-73"/>
      <use x="29.492188" xlink:href="#DejaVuSans-110"/>
      <use x="92.871094" xlink:href="#DejaVuSans-105"/>
      <use x="120.654297" xlink:href="#DejaVuSans-116"/>
      <use x="159.863281" xlink:href="#DejaVuSans-105"/>
      <use x="187.646484" xlink:href="#DejaVuSans-97"/>
      <use x="248.925781" xlink:href="#DejaVuSans-108"/>
      <use x="276.708984" xlink:href="#DejaVuSans-32"/>
      <use x="308.496094" xlink:href="#DejaVuSans-109"/>
      <use x="405.908203" xlink:href="#DejaVuSans-105"/>
      <use x="433.691406" xlink:href="#DejaVuSans-115"/>
      <use x="485.791016" xlink:href="#DejaVuSans-116"/>
      <use x="525" xlink:href="#DejaVuSans-117"/>
      <use x="588.378906" xlink:href="#DejaVuSans-110"/>
      <use x="651.757812" xlink:href="#DejaVuSans-101"/>
      <use x="713.28125" xlink:href="#DejaVuSans-100"/>
      <use x="776.757812" xlink:href="#DejaVuSans-32"/>
      <use x="808.544922" xlink:href="#DejaVuSans-70"/>
      <use x="866.064453" xlink:href="#DejaVuSans-69"/>
      <use x="929.248047" xlink:href="#DejaVuSans-77"/>
     </g>
    </g>
    <g id="line2d_23">
     <path d="M 652.166406 100.600313 
L 696.166406 100.600313 
" style="fill:none;stroke:#ff0000;stroke-linecap:square;stroke-width:3;"/>
    </g>
    <g id="line2d_24"/>
    <g id="text_20">
     <!-- Converged FEM -->
     <g transform="translate(713.766406 108.300313)scale(0.22 -0.22)">
      <defs>
       <path d="M 64.40625 67.28125 
L 64.40625 56.890625 
Q 59.421875 61.53125 53.78125 63.8125 
Q 48.140625 66.109375 41.796875 66.109375 
Q 29.296875 66.109375 22.65625 58.46875 
Q 16.015625 50.828125 16.015625 36.375 
Q 16.015625 21.96875 22.65625 14.328125 
Q 29.296875 6.6875 41.796875 6.6875 
Q 48.140625 6.6875 53.78125 8.984375 
Q 59.421875 11.28125 64.40625 15.921875 
L 64.40625 5.609375 
Q 59.234375 2.09375 53.4375 0.328125 
Q 47.65625 -1.421875 41.21875 -1.421875 
Q 24.65625 -1.421875 15.125 8.703125 
Q 5.609375 18.84375 5.609375 36.375 
Q 5.609375 53.953125 15.125 64.078125 
Q 24.65625 74.21875 41.21875 74.21875 
Q 47.75 74.21875 53.53125 72.484375 
Q 59.328125 70.75 64.40625 67.28125 
z
" id="DejaVuSans-67"/>
       <path d="M 30.609375 48.390625 
Q 23.390625 48.390625 19.1875 42.75 
Q 14.984375 37.109375 14.984375 27.296875 
Q 14.984375 17.484375 19.15625 11.84375 
Q 23.34375 6.203125 30.609375 6.203125 
Q 37.796875 6.203125 41.984375 11.859375 
Q 46.1875 17.53125 46.1875 27.296875 
Q 46.1875 37.015625 41.984375 42.703125 
Q 37.796875 48.390625 30.609375 48.390625 
z
M 30.609375 56 
Q 42.328125 56 49.015625 48.375 
Q 55.71875 40.765625 55.71875 27.296875 
Q 55.71875 13.875 49.015625 6.21875 
Q 42.328125 -1.421875 30.609375 -1.421875 
Q 18.84375 -1.421875 12.171875 6.21875 
Q 5.515625 13.875 5.515625 27.296875 
Q 5.515625 40.765625 12.171875 48.375 
Q 18.84375 56 30.609375 56 
z
" id="DejaVuSans-111"/>
       <path d="M 2.984375 54.6875 
L 12.5 54.6875 
L 29.59375 8.796875 
L 46.6875 54.6875 
L 56.203125 54.6875 
L 35.6875 0 
L 23.484375 0 
z
" id="DejaVuSans-118"/>
      </defs>
      <use xlink:href="#DejaVuSans-67"/>
      <use x="69.824219" xlink:href="#DejaVuSans-111"/>
      <use x="131.005859" xlink:href="#DejaVuSans-110"/>
      <use x="194.384766" xlink:href="#DejaVuSans-118"/>
      <use x="253.564453" xlink:href="#DejaVuSans-101"/>
      <use x="315.087891" xlink:href="#DejaVuSans-114"/>
      <use x="354.451172" xlink:href="#DejaVuSans-103"/>
      <use x="417.927734" xlink:href="#DejaVuSans-101"/>
      <use x="479.451172" xlink:href="#DejaVuSans-100"/>
      <use x="542.927734" xlink:href="#DejaVuSans-32"/>
      <use x="574.714844" xlink:href="#DejaVuSans-70"/>
      <use x="632.234375" xlink:href="#DejaVuSans-69"/>
      <use x="695.417969" xlink:href="#DejaVuSans-77"/>
     </g>
    </g>
   </g>
  </g>
 </g>
 <defs>
  <clipPath id="p629749a56c">
   <rect height="443.52" width="837" x="119.976406" y="7.2"/>
  </clipPath>
 </defs>
</svg>
