<?xml version="1.0" encoding="utf-8" standalone="no"?>
<!DOCTYPE svg PUBLIC "-//W3C//DTD SVG 1.1//EN"
  "http://www.w3.org/Graphics/SVG/1.1/DTD/svg11.dtd">
<!-- Created with matplotlib (https://matplotlib.org/) -->
<svg height="518.278437pt" version="1.1" viewBox="0 0 948.270156 518.278437" width="948.270156pt" xmlns="http://www.w3.org/2000/svg" xmlns:xlink="http://www.w3.org/1999/xlink">
 <metadata>
  <rdf:RDF xmlns:cc="http://creativecommons.org/ns#" xmlns:dc="http://purl.org/dc/elements/1.1/" xmlns:rdf="http://www.w3.org/1999/02/22-rdf-syntax-ns#">
   <cc:Work>
    <dc:type rdf:resource="http://purl.org/dc/dcmitype/StillImage"/>
    <dc:date>2021-11-22T18:03:29.587824</dc:date>
    <dc:format>image/svg+xml</dc:format>
    <dc:creator>
     <cc:Agent>
      <dc:title>Matplotlib v3.3.4, https://matplotlib.org/</dc:title>
     </cc:Agent>
    </dc:creator>
   </cc:Work>
  </rdf:RDF>
 </metadata>
 <defs>
  <style type="text/css">*{stroke-linecap:butt;stroke-linejoin:round;}</style>
 </defs>
 <g id="figure_1">
  <g id="patch_1">
   <path d="M 0 518.278437 
L 948.270156 518.278437 
L 948.270156 0 
L 0 0 
z
" style="fill:#ffffff;"/>
  </g>
  <g id="axes_1">
   <g id="patch_2">
    <path d="M 104.070156 450.72 
L 941.070156 450.72 
L 941.070156 7.2 
L 104.070156 7.2 
z
" style="fill:#ffffff;"/>
   </g>
   <g id="matplotlib.axis_1">
    <g id="xtick_1">
     <g id="line2d_1">
      <defs>
       <path d="M 0 0 
L 0 3.5 
" id="mf0c107d748" style="stroke:#000000;stroke-width:0.8;"/>
      </defs>
      <g>
       <use style="stroke:#000000;stroke-width:0.8;" x="142.115611" xlink:href="#mf0c107d748" y="450.72"/>
      </g>
     </g>
     <g id="text_1">
      <!-- 0.0 -->
      <g transform="translate(122.236705 476.716094)scale(0.25 -0.25)">
       <defs>
        <path d="M 31.78125 66.40625 
Q 24.171875 66.40625 20.328125 58.90625 
Q 16.5 51.421875 16.5 36.375 
Q 16.5 21.390625 20.328125 13.890625 
Q 24.171875 6.390625 31.78125 6.390625 
Q 39.453125 6.390625 43.28125 13.890625 
Q 47.125 21.390625 47.125 36.375 
Q 47.125 51.421875 43.28125 58.90625 
Q 39.453125 66.40625 31.78125 66.40625 
z
M 31.78125 74.21875 
Q 44.046875 74.21875 50.515625 64.515625 
Q 56.984375 54.828125 56.984375 36.375 
Q 56.984375 17.96875 50.515625 8.265625 
Q 44.046875 -1.421875 31.78125 -1.421875 
Q 19.53125 -1.421875 13.0625 8.265625 
Q 6.59375 17.96875 6.59375 36.375 
Q 6.59375 54.828125 13.0625 64.515625 
Q 19.53125 74.21875 31.78125 74.21875 
z
" id="DejaVuSans-48"/>
        <path d="M 10.6875 12.40625 
L 21 12.40625 
L 21 0 
L 10.6875 0 
z
" id="DejaVuSans-46"/>
       </defs>
       <use xlink:href="#DejaVuSans-48"/>
       <use x="63.623047" xlink:href="#DejaVuSans-46"/>
       <use x="95.410156" xlink:href="#DejaVuSans-48"/>
      </g>
     </g>
    </g>
    <g id="xtick_2">
     <g id="line2d_2">
      <g>
       <use style="stroke:#000000;stroke-width:0.8;" x="243.570156" xlink:href="#mf0c107d748" y="450.72"/>
      </g>
     </g>
     <g id="text_2">
      <!-- 0.2 -->
      <g transform="translate(223.69125 476.716094)scale(0.25 -0.25)">
       <defs>
        <path d="M 19.1875 8.296875 
L 53.609375 8.296875 
L 53.609375 0 
L 7.328125 0 
L 7.328125 8.296875 
Q 12.9375 14.109375 22.625 23.890625 
Q 32.328125 33.6875 34.8125 36.53125 
Q 39.546875 41.84375 41.421875 45.53125 
Q 43.3125 49.21875 43.3125 52.78125 
Q 43.3125 58.59375 39.234375 62.25 
Q 35.15625 65.921875 28.609375 65.921875 
Q 23.96875 65.921875 18.8125 64.3125 
Q 13.671875 62.703125 7.8125 59.421875 
L 7.8125 69.390625 
Q 13.765625 71.78125 18.9375 73 
Q 24.125 74.21875 28.421875 74.21875 
Q 39.75 74.21875 46.484375 68.546875 
Q 53.21875 62.890625 53.21875 53.421875 
Q 53.21875 48.921875 51.53125 44.890625 
Q 49.859375 40.875 45.40625 35.40625 
Q 44.1875 33.984375 37.640625 27.21875 
Q 31.109375 20.453125 19.1875 8.296875 
z
" id="DejaVuSans-50"/>
       </defs>
       <use xlink:href="#DejaVuSans-48"/>
       <use x="63.623047" xlink:href="#DejaVuSans-46"/>
       <use x="95.410156" xlink:href="#DejaVuSans-50"/>
      </g>
     </g>
    </g>
    <g id="xtick_3">
     <g id="line2d_3">
      <g>
       <use style="stroke:#000000;stroke-width:0.8;" x="345.024702" xlink:href="#mf0c107d748" y="450.72"/>
      </g>
     </g>
     <g id="text_3">
      <!-- 0.4 -->
      <g transform="translate(325.145795 476.716094)scale(0.25 -0.25)">
       <defs>
        <path d="M 37.796875 64.3125 
L 12.890625 25.390625 
L 37.796875 25.390625 
z
M 35.203125 72.90625 
L 47.609375 72.90625 
L 47.609375 25.390625 
L 58.015625 25.390625 
L 58.015625 17.1875 
L 47.609375 17.1875 
L 47.609375 0 
L 37.796875 0 
L 37.796875 17.1875 
L 4.890625 17.1875 
L 4.890625 26.703125 
z
" id="DejaVuSans-52"/>
       </defs>
       <use xlink:href="#DejaVuSans-48"/>
       <use x="63.623047" xlink:href="#DejaVuSans-46"/>
       <use x="95.410156" xlink:href="#DejaVuSans-52"/>
      </g>
     </g>
    </g>
    <g id="xtick_4">
     <g id="line2d_4">
      <g>
       <use style="stroke:#000000;stroke-width:0.8;" x="446.479247" xlink:href="#mf0c107d748" y="450.72"/>
      </g>
     </g>
     <g id="text_4">
      <!-- 0.6 -->
      <g transform="translate(426.600341 476.716094)scale(0.25 -0.25)">
       <defs>
        <path d="M 33.015625 40.375 
Q 26.375 40.375 22.484375 35.828125 
Q 18.609375 31.296875 18.609375 23.390625 
Q 18.609375 15.53125 22.484375 10.953125 
Q 26.375 6.390625 33.015625 6.390625 
Q 39.65625 6.390625 43.53125 10.953125 
Q 47.40625 15.53125 47.40625 23.390625 
Q 47.40625 31.296875 43.53125 35.828125 
Q 39.65625 40.375 33.015625 40.375 
z
M 52.59375 71.296875 
L 52.59375 62.3125 
Q 48.875 64.0625 45.09375 64.984375 
Q 41.3125 65.921875 37.59375 65.921875 
Q 27.828125 65.921875 22.671875 59.328125 
Q 17.53125 52.734375 16.796875 39.40625 
Q 19.671875 43.65625 24.015625 45.921875 
Q 28.375 48.1875 33.59375 48.1875 
Q 44.578125 48.1875 50.953125 41.515625 
Q 57.328125 34.859375 57.328125 23.390625 
Q 57.328125 12.15625 50.6875 5.359375 
Q 44.046875 -1.421875 33.015625 -1.421875 
Q 20.359375 -1.421875 13.671875 8.265625 
Q 6.984375 17.96875 6.984375 36.375 
Q 6.984375 53.65625 15.1875 63.9375 
Q 23.390625 74.21875 37.203125 74.21875 
Q 40.921875 74.21875 44.703125 73.484375 
Q 48.484375 72.75 52.59375 71.296875 
z
" id="DejaVuSans-54"/>
       </defs>
       <use xlink:href="#DejaVuSans-48"/>
       <use x="63.623047" xlink:href="#DejaVuSans-46"/>
       <use x="95.410156" xlink:href="#DejaVuSans-54"/>
      </g>
     </g>
    </g>
    <g id="xtick_5">
     <g id="line2d_5">
      <g>
       <use style="stroke:#000000;stroke-width:0.8;" x="547.933793" xlink:href="#mf0c107d748" y="450.72"/>
      </g>
     </g>
     <g id="text_5">
      <!-- 0.8 -->
      <g transform="translate(528.054886 476.716094)scale(0.25 -0.25)">
       <defs>
        <path d="M 31.78125 34.625 
Q 24.75 34.625 20.71875 30.859375 
Q 16.703125 27.09375 16.703125 20.515625 
Q 16.703125 13.921875 20.71875 10.15625 
Q 24.75 6.390625 31.78125 6.390625 
Q 38.8125 6.390625 42.859375 10.171875 
Q 46.921875 13.96875 46.921875 20.515625 
Q 46.921875 27.09375 42.890625 30.859375 
Q 38.875 34.625 31.78125 34.625 
z
M 21.921875 38.8125 
Q 15.578125 40.375 12.03125 44.71875 
Q 8.5 49.078125 8.5 55.328125 
Q 8.5 64.0625 14.71875 69.140625 
Q 20.953125 74.21875 31.78125 74.21875 
Q 42.671875 74.21875 48.875 69.140625 
Q 55.078125 64.0625 55.078125 55.328125 
Q 55.078125 49.078125 51.53125 44.71875 
Q 48 40.375 41.703125 38.8125 
Q 48.828125 37.15625 52.796875 32.3125 
Q 56.78125 27.484375 56.78125 20.515625 
Q 56.78125 9.90625 50.3125 4.234375 
Q 43.84375 -1.421875 31.78125 -1.421875 
Q 19.734375 -1.421875 13.25 4.234375 
Q 6.78125 9.90625 6.78125 20.515625 
Q 6.78125 27.484375 10.78125 32.3125 
Q 14.796875 37.15625 21.921875 38.8125 
z
M 18.3125 54.390625 
Q 18.3125 48.734375 21.84375 45.5625 
Q 25.390625 42.390625 31.78125 42.390625 
Q 38.140625 42.390625 41.71875 45.5625 
Q 45.3125 48.734375 45.3125 54.390625 
Q 45.3125 60.0625 41.71875 63.234375 
Q 38.140625 66.40625 31.78125 66.40625 
Q 25.390625 66.40625 21.84375 63.234375 
Q 18.3125 60.0625 18.3125 54.390625 
z
" id="DejaVuSans-56"/>
       </defs>
       <use xlink:href="#DejaVuSans-48"/>
       <use x="63.623047" xlink:href="#DejaVuSans-46"/>
       <use x="95.410156" xlink:href="#DejaVuSans-56"/>
      </g>
     </g>
    </g>
    <g id="xtick_6">
     <g id="line2d_6">
      <g>
       <use style="stroke:#000000;stroke-width:0.8;" x="649.388338" xlink:href="#mf0c107d748" y="450.72"/>
      </g>
     </g>
     <g id="text_6">
      <!-- 1.0 -->
      <g transform="translate(629.509432 476.716094)scale(0.25 -0.25)">
       <defs>
        <path d="M 12.40625 8.296875 
L 28.515625 8.296875 
L 28.515625 63.921875 
L 10.984375 60.40625 
L 10.984375 69.390625 
L 28.421875 72.90625 
L 38.28125 72.90625 
L 38.28125 8.296875 
L 54.390625 8.296875 
L 54.390625 0 
L 12.40625 0 
z
" id="DejaVuSans-49"/>
       </defs>
       <use xlink:href="#DejaVuSans-49"/>
       <use x="63.623047" xlink:href="#DejaVuSans-46"/>
       <use x="95.410156" xlink:href="#DejaVuSans-48"/>
      </g>
     </g>
    </g>
    <g id="xtick_7">
     <g id="line2d_7">
      <g>
       <use style="stroke:#000000;stroke-width:0.8;" x="750.842884" xlink:href="#mf0c107d748" y="450.72"/>
      </g>
     </g>
     <g id="text_7">
      <!-- 1.2 -->
      <g transform="translate(730.963977 476.716094)scale(0.25 -0.25)">
       <use xlink:href="#DejaVuSans-49"/>
       <use x="63.623047" xlink:href="#DejaVuSans-46"/>
       <use x="95.410156" xlink:href="#DejaVuSans-50"/>
      </g>
     </g>
    </g>
    <g id="xtick_8">
     <g id="line2d_8">
      <g>
       <use style="stroke:#000000;stroke-width:0.8;" x="852.297429" xlink:href="#mf0c107d748" y="450.72"/>
      </g>
     </g>
     <g id="text_8">
      <!-- 1.4 -->
      <g transform="translate(832.418523 476.716094)scale(0.25 -0.25)">
       <use xlink:href="#DejaVuSans-49"/>
       <use x="63.623047" xlink:href="#DejaVuSans-46"/>
       <use x="95.410156" xlink:href="#DejaVuSans-52"/>
      </g>
     </g>
    </g>
    <g id="text_9">
     <!-- Beam Length [m] -->
     <g transform="translate(409.110625 505.67125)scale(0.26 -0.26)">
      <defs>
       <path d="M 19.671875 34.8125 
L 19.671875 8.109375 
L 35.5 8.109375 
Q 43.453125 8.109375 47.28125 11.40625 
Q 51.125 14.703125 51.125 21.484375 
Q 51.125 28.328125 47.28125 31.5625 
Q 43.453125 34.8125 35.5 34.8125 
z
M 19.671875 64.796875 
L 19.671875 42.828125 
L 34.28125 42.828125 
Q 41.5 42.828125 45.03125 45.53125 
Q 48.578125 48.25 48.578125 53.8125 
Q 48.578125 59.328125 45.03125 62.0625 
Q 41.5 64.796875 34.28125 64.796875 
z
M 9.8125 72.90625 
L 35.015625 72.90625 
Q 46.296875 72.90625 52.390625 68.21875 
Q 58.5 63.53125 58.5 54.890625 
Q 58.5 48.1875 55.375 44.234375 
Q 52.25 40.28125 46.1875 39.3125 
Q 53.46875 37.75 57.5 32.78125 
Q 61.53125 27.828125 61.53125 20.40625 
Q 61.53125 10.640625 54.890625 5.3125 
Q 48.25 0 35.984375 0 
L 9.8125 0 
z
" id="DejaVuSans-66"/>
       <path d="M 56.203125 29.59375 
L 56.203125 25.203125 
L 14.890625 25.203125 
Q 15.484375 15.921875 20.484375 11.0625 
Q 25.484375 6.203125 34.421875 6.203125 
Q 39.59375 6.203125 44.453125 7.46875 
Q 49.3125 8.734375 54.109375 11.28125 
L 54.109375 2.78125 
Q 49.265625 0.734375 44.1875 -0.34375 
Q 39.109375 -1.421875 33.890625 -1.421875 
Q 20.796875 -1.421875 13.15625 6.1875 
Q 5.515625 13.8125 5.515625 26.8125 
Q 5.515625 40.234375 12.765625 48.109375 
Q 20.015625 56 32.328125 56 
Q 43.359375 56 49.78125 48.890625 
Q 56.203125 41.796875 56.203125 29.59375 
z
M 47.21875 32.234375 
Q 47.125 39.59375 43.09375 43.984375 
Q 39.0625 48.390625 32.421875 48.390625 
Q 24.90625 48.390625 20.390625 44.140625 
Q 15.875 39.890625 15.1875 32.171875 
z
" id="DejaVuSans-101"/>
       <path d="M 34.28125 27.484375 
Q 23.390625 27.484375 19.1875 25 
Q 14.984375 22.515625 14.984375 16.5 
Q 14.984375 11.71875 18.140625 8.90625 
Q 21.296875 6.109375 26.703125 6.109375 
Q 34.1875 6.109375 38.703125 11.40625 
Q 43.21875 16.703125 43.21875 25.484375 
L 43.21875 27.484375 
z
M 52.203125 31.203125 
L 52.203125 0 
L 43.21875 0 
L 43.21875 8.296875 
Q 40.140625 3.328125 35.546875 0.953125 
Q 30.953125 -1.421875 24.3125 -1.421875 
Q 15.921875 -1.421875 10.953125 3.296875 
Q 6 8.015625 6 15.921875 
Q 6 25.140625 12.171875 29.828125 
Q 18.359375 34.515625 30.609375 34.515625 
L 43.21875 34.515625 
L 43.21875 35.40625 
Q 43.21875 41.609375 39.140625 45 
Q 35.0625 48.390625 27.6875 48.390625 
Q 23 48.390625 18.546875 47.265625 
Q 14.109375 46.140625 10.015625 43.890625 
L 10.015625 52.203125 
Q 14.9375 54.109375 19.578125 55.046875 
Q 24.21875 56 28.609375 56 
Q 40.484375 56 46.34375 49.84375 
Q 52.203125 43.703125 52.203125 31.203125 
z
" id="DejaVuSans-97"/>
       <path d="M 52 44.1875 
Q 55.375 50.25 60.0625 53.125 
Q 64.75 56 71.09375 56 
Q 79.640625 56 84.28125 50.015625 
Q 88.921875 44.046875 88.921875 33.015625 
L 88.921875 0 
L 79.890625 0 
L 79.890625 32.71875 
Q 79.890625 40.578125 77.09375 44.375 
Q 74.3125 48.1875 68.609375 48.1875 
Q 61.625 48.1875 57.5625 43.546875 
Q 53.515625 38.921875 53.515625 30.90625 
L 53.515625 0 
L 44.484375 0 
L 44.484375 32.71875 
Q 44.484375 40.625 41.703125 44.40625 
Q 38.921875 48.1875 33.109375 48.1875 
Q 26.21875 48.1875 22.15625 43.53125 
Q 18.109375 38.875 18.109375 30.90625 
L 18.109375 0 
L 9.078125 0 
L 9.078125 54.6875 
L 18.109375 54.6875 
L 18.109375 46.1875 
Q 21.1875 51.21875 25.484375 53.609375 
Q 29.78125 56 35.6875 56 
Q 41.65625 56 45.828125 52.96875 
Q 50 49.953125 52 44.1875 
z
" id="DejaVuSans-109"/>
       <path id="DejaVuSans-32"/>
       <path d="M 9.8125 72.90625 
L 19.671875 72.90625 
L 19.671875 8.296875 
L 55.171875 8.296875 
L 55.171875 0 
L 9.8125 0 
z
" id="DejaVuSans-76"/>
       <path d="M 54.890625 33.015625 
L 54.890625 0 
L 45.90625 0 
L 45.90625 32.71875 
Q 45.90625 40.484375 42.875 44.328125 
Q 39.84375 48.1875 33.796875 48.1875 
Q 26.515625 48.1875 22.3125 43.546875 
Q 18.109375 38.921875 18.109375 30.90625 
L 18.109375 0 
L 9.078125 0 
L 9.078125 54.6875 
L 18.109375 54.6875 
L 18.109375 46.1875 
Q 21.34375 51.125 25.703125 53.5625 
Q 30.078125 56 35.796875 56 
Q 45.21875 56 50.046875 50.171875 
Q 54.890625 44.34375 54.890625 33.015625 
z
" id="DejaVuSans-110"/>
       <path d="M 45.40625 27.984375 
Q 45.40625 37.75 41.375 43.109375 
Q 37.359375 48.484375 30.078125 48.484375 
Q 22.859375 48.484375 18.828125 43.109375 
Q 14.796875 37.75 14.796875 27.984375 
Q 14.796875 18.265625 18.828125 12.890625 
Q 22.859375 7.515625 30.078125 7.515625 
Q 37.359375 7.515625 41.375 12.890625 
Q 45.40625 18.265625 45.40625 27.984375 
z
M 54.390625 6.78125 
Q 54.390625 -7.171875 48.1875 -13.984375 
Q 42 -20.796875 29.203125 -20.796875 
Q 24.46875 -20.796875 20.265625 -20.09375 
Q 16.0625 -19.390625 12.109375 -17.921875 
L 12.109375 -9.1875 
Q 16.0625 -11.328125 19.921875 -12.34375 
Q 23.78125 -13.375 27.78125 -13.375 
Q 36.625 -13.375 41.015625 -8.765625 
Q 45.40625 -4.15625 45.40625 5.171875 
L 45.40625 9.625 
Q 42.625 4.78125 38.28125 2.390625 
Q 33.9375 0 27.875 0 
Q 17.828125 0 11.671875 7.65625 
Q 5.515625 15.328125 5.515625 27.984375 
Q 5.515625 40.671875 11.671875 48.328125 
Q 17.828125 56 27.875 56 
Q 33.9375 56 38.28125 53.609375 
Q 42.625 51.21875 45.40625 46.390625 
L 45.40625 54.6875 
L 54.390625 54.6875 
z
" id="DejaVuSans-103"/>
       <path d="M 18.3125 70.21875 
L 18.3125 54.6875 
L 36.8125 54.6875 
L 36.8125 47.703125 
L 18.3125 47.703125 
L 18.3125 18.015625 
Q 18.3125 11.328125 20.140625 9.421875 
Q 21.96875 7.515625 27.59375 7.515625 
L 36.8125 7.515625 
L 36.8125 0 
L 27.59375 0 
Q 17.1875 0 13.234375 3.875 
Q 9.28125 7.765625 9.28125 18.015625 
L 9.28125 47.703125 
L 2.6875 47.703125 
L 2.6875 54.6875 
L 9.28125 54.6875 
L 9.28125 70.21875 
z
" id="DejaVuSans-116"/>
       <path d="M 54.890625 33.015625 
L 54.890625 0 
L 45.90625 0 
L 45.90625 32.71875 
Q 45.90625 40.484375 42.875 44.328125 
Q 39.84375 48.1875 33.796875 48.1875 
Q 26.515625 48.1875 22.3125 43.546875 
Q 18.109375 38.921875 18.109375 30.90625 
L 18.109375 0 
L 9.078125 0 
L 9.078125 75.984375 
L 18.109375 75.984375 
L 18.109375 46.1875 
Q 21.34375 51.125 25.703125 53.5625 
Q 30.078125 56 35.796875 56 
Q 45.21875 56 50.046875 50.171875 
Q 54.890625 44.34375 54.890625 33.015625 
z
" id="DejaVuSans-104"/>
       <path d="M 8.59375 75.984375 
L 29.296875 75.984375 
L 29.296875 69 
L 17.578125 69 
L 17.578125 -6.203125 
L 29.296875 -6.203125 
L 29.296875 -13.1875 
L 8.59375 -13.1875 
z
" id="DejaVuSans-91"/>
       <path d="M 30.421875 75.984375 
L 30.421875 -13.1875 
L 9.71875 -13.1875 
L 9.71875 -6.203125 
L 21.390625 -6.203125 
L 21.390625 69 
L 9.71875 69 
L 9.71875 75.984375 
z
" id="DejaVuSans-93"/>
      </defs>
      <use xlink:href="#DejaVuSans-66"/>
      <use x="68.603516" xlink:href="#DejaVuSans-101"/>
      <use x="130.126953" xlink:href="#DejaVuSans-97"/>
      <use x="191.40625" xlink:href="#DejaVuSans-109"/>
      <use x="288.818359" xlink:href="#DejaVuSans-32"/>
      <use x="320.605469" xlink:href="#DejaVuSans-76"/>
      <use x="374.568359" xlink:href="#DejaVuSans-101"/>
      <use x="436.091797" xlink:href="#DejaVuSans-110"/>
      <use x="499.470703" xlink:href="#DejaVuSans-103"/>
      <use x="562.947266" xlink:href="#DejaVuSans-116"/>
      <use x="602.15625" xlink:href="#DejaVuSans-104"/>
      <use x="665.535156" xlink:href="#DejaVuSans-32"/>
      <use x="697.322266" xlink:href="#DejaVuSans-91"/>
      <use x="736.335938" xlink:href="#DejaVuSans-109"/>
      <use x="833.748047" xlink:href="#DejaVuSans-93"/>
     </g>
    </g>
   </g>
   <g id="matplotlib.axis_2">
    <g id="ytick_1">
     <g id="line2d_9">
      <defs>
       <path d="M 0 0 
L -3.5 0 
" id="maaaeaf780c" style="stroke:#000000;stroke-width:0.8;"/>
      </defs>
      <g>
       <use style="stroke:#000000;stroke-width:0.8;" x="104.070156" xlink:href="#maaaeaf780c" y="417.398109"/>
      </g>
     </g>
     <g id="text_10">
      <!-- −1.5 -->
      <g transform="translate(36.363125 426.896156)scale(0.25 -0.25)">
       <defs>
        <path d="M 10.59375 35.5 
L 73.1875 35.5 
L 73.1875 27.203125 
L 10.59375 27.203125 
z
" id="DejaVuSans-8722"/>
        <path d="M 10.796875 72.90625 
L 49.515625 72.90625 
L 49.515625 64.59375 
L 19.828125 64.59375 
L 19.828125 46.734375 
Q 21.96875 47.46875 24.109375 47.828125 
Q 26.265625 48.1875 28.421875 48.1875 
Q 40.625 48.1875 47.75 41.5 
Q 54.890625 34.8125 54.890625 23.390625 
Q 54.890625 11.625 47.5625 5.09375 
Q 40.234375 -1.421875 26.90625 -1.421875 
Q 22.3125 -1.421875 17.546875 -0.640625 
Q 12.796875 0.140625 7.71875 1.703125 
L 7.71875 11.625 
Q 12.109375 9.234375 16.796875 8.0625 
Q 21.484375 6.890625 26.703125 6.890625 
Q 35.15625 6.890625 40.078125 11.328125 
Q 45.015625 15.765625 45.015625 23.390625 
Q 45.015625 31 40.078125 35.4375 
Q 35.15625 39.890625 26.703125 39.890625 
Q 22.75 39.890625 18.8125 39.015625 
Q 14.890625 38.140625 10.796875 36.28125 
z
" id="DejaVuSans-53"/>
       </defs>
       <use xlink:href="#DejaVuSans-8722"/>
       <use x="83.789062" xlink:href="#DejaVuSans-49"/>
       <use x="147.412109" xlink:href="#DejaVuSans-46"/>
       <use x="179.199219" xlink:href="#DejaVuSans-53"/>
      </g>
     </g>
    </g>
    <g id="ytick_2">
     <g id="line2d_10">
      <g>
       <use style="stroke:#000000;stroke-width:0.8;" x="104.070156" xlink:href="#maaaeaf780c" y="367.976199"/>
      </g>
     </g>
     <g id="text_11">
      <!-- −1.0 -->
      <g transform="translate(36.363125 377.474246)scale(0.25 -0.25)">
       <use xlink:href="#DejaVuSans-8722"/>
       <use x="83.789062" xlink:href="#DejaVuSans-49"/>
       <use x="147.412109" xlink:href="#DejaVuSans-46"/>
       <use x="179.199219" xlink:href="#DejaVuSans-48"/>
      </g>
     </g>
    </g>
    <g id="ytick_3">
     <g id="line2d_11">
      <g>
       <use style="stroke:#000000;stroke-width:0.8;" x="104.070156" xlink:href="#maaaeaf780c" y="318.554289"/>
      </g>
     </g>
     <g id="text_12">
      <!-- −0.5 -->
      <g transform="translate(36.363125 328.052336)scale(0.25 -0.25)">
       <use xlink:href="#DejaVuSans-8722"/>
       <use x="83.789062" xlink:href="#DejaVuSans-48"/>
       <use x="147.412109" xlink:href="#DejaVuSans-46"/>
       <use x="179.199219" xlink:href="#DejaVuSans-53"/>
      </g>
     </g>
    </g>
    <g id="ytick_4">
     <g id="line2d_12">
      <g>
       <use style="stroke:#000000;stroke-width:0.8;" x="104.070156" xlink:href="#maaaeaf780c" y="269.132379"/>
      </g>
     </g>
     <g id="text_13">
      <!-- 0.0 -->
      <g transform="translate(57.312344 278.630426)scale(0.25 -0.25)">
       <use xlink:href="#DejaVuSans-48"/>
       <use x="63.623047" xlink:href="#DejaVuSans-46"/>
       <use x="95.410156" xlink:href="#DejaVuSans-48"/>
      </g>
     </g>
    </g>
    <g id="ytick_5">
     <g id="line2d_13">
      <g>
       <use style="stroke:#000000;stroke-width:0.8;" x="104.070156" xlink:href="#maaaeaf780c" y="219.710469"/>
      </g>
     </g>
     <g id="text_14">
      <!-- 0.5 -->
      <g transform="translate(57.312344 229.208516)scale(0.25 -0.25)">
       <use xlink:href="#DejaVuSans-48"/>
       <use x="63.623047" xlink:href="#DejaVuSans-46"/>
       <use x="95.410156" xlink:href="#DejaVuSans-53"/>
      </g>
     </g>
    </g>
    <g id="ytick_6">
     <g id="line2d_14">
      <g>
       <use style="stroke:#000000;stroke-width:0.8;" x="104.070156" xlink:href="#maaaeaf780c" y="170.288559"/>
      </g>
     </g>
     <g id="text_15">
      <!-- 1.0 -->
      <g transform="translate(57.312344 179.786606)scale(0.25 -0.25)">
       <use xlink:href="#DejaVuSans-49"/>
       <use x="63.623047" xlink:href="#DejaVuSans-46"/>
       <use x="95.410156" xlink:href="#DejaVuSans-48"/>
      </g>
     </g>
    </g>
    <g id="ytick_7">
     <g id="line2d_15">
      <g>
       <use style="stroke:#000000;stroke-width:0.8;" x="104.070156" xlink:href="#maaaeaf780c" y="120.866649"/>
      </g>
     </g>
     <g id="text_16">
      <!-- 1.5 -->
      <g transform="translate(57.312344 130.364696)scale(0.25 -0.25)">
       <use xlink:href="#DejaVuSans-49"/>
       <use x="63.623047" xlink:href="#DejaVuSans-46"/>
       <use x="95.410156" xlink:href="#DejaVuSans-53"/>
      </g>
     </g>
    </g>
    <g id="ytick_8">
     <g id="line2d_16">
      <g>
       <use style="stroke:#000000;stroke-width:0.8;" x="104.070156" xlink:href="#maaaeaf780c" y="71.444739"/>
      </g>
     </g>
     <g id="text_17">
      <!-- 2.0 -->
      <g transform="translate(57.312344 80.942786)scale(0.25 -0.25)">
       <use xlink:href="#DejaVuSans-50"/>
       <use x="63.623047" xlink:href="#DejaVuSans-46"/>
       <use x="95.410156" xlink:href="#DejaVuSans-48"/>
      </g>
     </g>
    </g>
    <g id="ytick_9">
     <g id="line2d_17">
      <g>
       <use style="stroke:#000000;stroke-width:0.8;" x="104.070156" xlink:href="#maaaeaf780c" y="22.022829"/>
      </g>
     </g>
     <g id="text_18">
      <!-- 2.5 -->
      <g transform="translate(57.312344 31.520876)scale(0.25 -0.25)">
       <use xlink:href="#DejaVuSans-50"/>
       <use x="63.623047" xlink:href="#DejaVuSans-46"/>
       <use x="95.410156" xlink:href="#DejaVuSans-53"/>
      </g>
     </g>
    </g>
    <g id="text_19">
     <!-- Amplitude -->
     <g transform="translate(26.955938 295.578906)rotate(-90)scale(0.26 -0.26)">
      <defs>
       <path d="M 34.1875 63.1875 
L 20.796875 26.90625 
L 47.609375 26.90625 
z
M 28.609375 72.90625 
L 39.796875 72.90625 
L 67.578125 0 
L 57.328125 0 
L 50.6875 18.703125 
L 17.828125 18.703125 
L 11.1875 0 
L 0.78125 0 
z
" id="DejaVuSans-65"/>
       <path d="M 18.109375 8.203125 
L 18.109375 -20.796875 
L 9.078125 -20.796875 
L 9.078125 54.6875 
L 18.109375 54.6875 
L 18.109375 46.390625 
Q 20.953125 51.265625 25.265625 53.625 
Q 29.59375 56 35.59375 56 
Q 45.5625 56 51.78125 48.09375 
Q 58.015625 40.1875 58.015625 27.296875 
Q 58.015625 14.40625 51.78125 6.484375 
Q 45.5625 -1.421875 35.59375 -1.421875 
Q 29.59375 -1.421875 25.265625 0.953125 
Q 20.953125 3.328125 18.109375 8.203125 
z
M 48.6875 27.296875 
Q 48.6875 37.203125 44.609375 42.84375 
Q 40.53125 48.484375 33.40625 48.484375 
Q 26.265625 48.484375 22.1875 42.84375 
Q 18.109375 37.203125 18.109375 27.296875 
Q 18.109375 17.390625 22.1875 11.75 
Q 26.265625 6.109375 33.40625 6.109375 
Q 40.53125 6.109375 44.609375 11.75 
Q 48.6875 17.390625 48.6875 27.296875 
z
" id="DejaVuSans-112"/>
       <path d="M 9.421875 75.984375 
L 18.40625 75.984375 
L 18.40625 0 
L 9.421875 0 
z
" id="DejaVuSans-108"/>
       <path d="M 9.421875 54.6875 
L 18.40625 54.6875 
L 18.40625 0 
L 9.421875 0 
z
M 9.421875 75.984375 
L 18.40625 75.984375 
L 18.40625 64.59375 
L 9.421875 64.59375 
z
" id="DejaVuSans-105"/>
       <path d="M 8.5 21.578125 
L 8.5 54.6875 
L 17.484375 54.6875 
L 17.484375 21.921875 
Q 17.484375 14.15625 20.5 10.265625 
Q 23.53125 6.390625 29.59375 6.390625 
Q 36.859375 6.390625 41.078125 11.03125 
Q 45.3125 15.671875 45.3125 23.6875 
L 45.3125 54.6875 
L 54.296875 54.6875 
L 54.296875 0 
L 45.3125 0 
L 45.3125 8.40625 
Q 42.046875 3.421875 37.71875 1 
Q 33.40625 -1.421875 27.6875 -1.421875 
Q 18.265625 -1.421875 13.375 4.4375 
Q 8.5 10.296875 8.5 21.578125 
z
M 31.109375 56 
z
" id="DejaVuSans-117"/>
       <path d="M 45.40625 46.390625 
L 45.40625 75.984375 
L 54.390625 75.984375 
L 54.390625 0 
L 45.40625 0 
L 45.40625 8.203125 
Q 42.578125 3.328125 38.25 0.953125 
Q 33.9375 -1.421875 27.875 -1.421875 
Q 17.96875 -1.421875 11.734375 6.484375 
Q 5.515625 14.40625 5.515625 27.296875 
Q 5.515625 40.1875 11.734375 48.09375 
Q 17.96875 56 27.875 56 
Q 33.9375 56 38.25 53.625 
Q 42.578125 51.265625 45.40625 46.390625 
z
M 14.796875 27.296875 
Q 14.796875 17.390625 18.875 11.75 
Q 22.953125 6.109375 30.078125 6.109375 
Q 37.203125 6.109375 41.296875 11.75 
Q 45.40625 17.390625 45.40625 27.296875 
Q 45.40625 37.203125 41.296875 42.84375 
Q 37.203125 48.484375 30.078125 48.484375 
Q 22.953125 48.484375 18.875 42.84375 
Q 14.796875 37.203125 14.796875 27.296875 
z
" id="DejaVuSans-100"/>
      </defs>
      <use xlink:href="#DejaVuSans-65"/>
      <use x="68.408203" xlink:href="#DejaVuSans-109"/>
      <use x="165.820312" xlink:href="#DejaVuSans-112"/>
      <use x="229.296875" xlink:href="#DejaVuSans-108"/>
      <use x="257.080078" xlink:href="#DejaVuSans-105"/>
      <use x="284.863281" xlink:href="#DejaVuSans-116"/>
      <use x="324.072266" xlink:href="#DejaVuSans-117"/>
      <use x="387.451172" xlink:href="#DejaVuSans-100"/>
      <use x="450.927734" xlink:href="#DejaVuSans-101"/>
     </g>
    </g>
   </g>
   <g id="line2d_18">
    <defs>
     <path d="M 0 -3 
L -3 3 
L 3 3 
z
" id="mcd9ea23a90" style="stroke:#000000;stroke-linejoin:miter;"/>
    </defs>
    <g clip-path="url(#pce9c4b838d)">
     <use style="stroke:#000000;stroke-linejoin:miter;" x="142.115611" xlink:href="#mcd9ea23a90" y="269.132379"/>
     <use style="stroke:#000000;stroke-linejoin:miter;" x="147.188338" xlink:href="#mcd9ea23a90" y="274.797773"/>
     <use style="stroke:#000000;stroke-linejoin:miter;" x="152.261065" xlink:href="#mcd9ea23a90" y="289.616606"/>
     <use style="stroke:#000000;stroke-linejoin:miter;" x="157.333793" xlink:href="#mcd9ea23a90" y="310.622446"/>
     <use style="stroke:#000000;stroke-linejoin:miter;" x="162.40652" xlink:href="#mcd9ea23a90" y="334.99848"/>
     <use style="stroke:#000000;stroke-linejoin:miter;" x="167.479247" xlink:href="#mcd9ea23a90" y="360.133862"/>
     <use style="stroke:#000000;stroke-linejoin:miter;" x="172.551974" xlink:href="#mcd9ea23a90" y="383.685035"/>
     <use style="stroke:#000000;stroke-linejoin:miter;" x="177.624702" xlink:href="#mcd9ea23a90" y="403.63561"/>
     <use style="stroke:#000000;stroke-linejoin:miter;" x="182.697429" xlink:href="#mcd9ea23a90" y="418.349582"/>
     <use style="stroke:#000000;stroke-linejoin:miter;" x="187.770156" xlink:href="#mcd9ea23a90" y="426.613082"/>
     <use style="stroke:#000000;stroke-linejoin:miter;" x="192.842884" xlink:href="#mcd9ea23a90" y="427.660396"/>
     <use style="stroke:#000000;stroke-linejoin:miter;" x="197.915611" xlink:href="#mcd9ea23a90" y="421.183953"/>
     <use style="stroke:#000000;stroke-linejoin:miter;" x="202.988338" xlink:href="#mcd9ea23a90" y="407.323743"/>
     <use style="stroke:#000000;stroke-linejoin:miter;" x="208.061065" xlink:href="#mcd9ea23a90" y="386.639644"/>
     <use style="stroke:#000000;stroke-linejoin:miter;" x="213.133793" xlink:href="#mcd9ea23a90" y="360.065423"/>
     <use style="stroke:#000000;stroke-linejoin:miter;" x="218.20652" xlink:href="#mcd9ea23a90" y="328.846845"/>
     <use style="stroke:#000000;stroke-linejoin:miter;" x="223.279247" xlink:href="#mcd9ea23a90" y="294.467951"/>
     <use style="stroke:#000000;stroke-linejoin:miter;" x="228.351974" xlink:href="#mcd9ea23a90" y="258.567862"/>
     <use style="stroke:#000000;stroke-linejoin:miter;" x="233.424702" xlink:href="#mcd9ea23a90" y="222.852792"/>
     <use style="stroke:#000000;stroke-linejoin:miter;" x="238.497429" xlink:href="#mcd9ea23a90" y="189.007361"/>
     <use style="stroke:#000000;stroke-linejoin:miter;" x="243.570156" xlink:href="#mcd9ea23a90" y="158.609424"/>
     <use style="stroke:#000000;stroke-linejoin:miter;" x="248.642884" xlink:href="#mcd9ea23a90" y="133.052606"/>
     <use style="stroke:#000000;stroke-linejoin:miter;" x="253.715611" xlink:href="#mcd9ea23a90" y="113.479447"/>
     <use style="stroke:#000000;stroke-linejoin:miter;" x="258.788338" xlink:href="#mcd9ea23a90" y="100.728789"/>
     <use style="stroke:#000000;stroke-linejoin:miter;" x="263.861065" xlink:href="#mcd9ea23a90" y="95.300038"/>
     <use style="stroke:#000000;stroke-linejoin:miter;" x="268.933793" xlink:href="#mcd9ea23a90" y="97.333488"/>
     <use style="stroke:#000000;stroke-linejoin:miter;" x="274.00652" xlink:href="#mcd9ea23a90" y="106.609834"/>
     <use style="stroke:#000000;stroke-linejoin:miter;" x="279.079247" xlink:href="#mcd9ea23a90" y="122.567164"/>
     <use style="stroke:#000000;stroke-linejoin:miter;" x="284.151974" xlink:href="#mcd9ea23a90" y="144.333882"/>
     <use style="stroke:#000000;stroke-linejoin:miter;" x="289.224702" xlink:href="#mcd9ea23a90" y="170.776207"/>
     <use style="stroke:#000000;stroke-linejoin:miter;" x="294.297429" xlink:href="#mcd9ea23a90" y="200.557304"/>
     <use style="stroke:#000000;stroke-linejoin:miter;" x="299.370156" xlink:href="#mcd9ea23a90" y="232.205376"/>
     <use style="stroke:#000000;stroke-linejoin:miter;" x="304.442884" xlink:href="#mcd9ea23a90" y="264.186387"/>
     <use style="stroke:#000000;stroke-linejoin:miter;" x="309.515611" xlink:href="#mcd9ea23a90" y="294.978437"/>
     <use style="stroke:#000000;stroke-linejoin:miter;" x="314.588338" xlink:href="#mcd9ea23a90" y="323.144132"/>
     <use style="stroke:#000000;stroke-linejoin:miter;" x="319.661065" xlink:href="#mcd9ea23a90" y="347.397232"/>
     <use style="stroke:#000000;stroke-linejoin:miter;" x="324.733793" xlink:href="#mcd9ea23a90" y="366.660835"/>
     <use style="stroke:#000000;stroke-linejoin:miter;" x="329.80652" xlink:href="#mcd9ea23a90" y="380.11428"/>
     <use style="stroke:#000000;stroke-linejoin:miter;" x="334.879247" xlink:href="#mcd9ea23a90" y="387.226982"/>
     <use style="stroke:#000000;stroke-linejoin:miter;" x="339.951974" xlink:href="#mcd9ea23a90" y="387.777918"/>
     <use style="stroke:#000000;stroke-linejoin:miter;" x="345.024702" xlink:href="#mcd9ea23a90" y="381.859407"/>
     <use style="stroke:#000000;stroke-linejoin:miter;" x="350.097429" xlink:href="#mcd9ea23a90" y="369.867002"/>
     <use style="stroke:#000000;stroke-linejoin:miter;" x="355.170156" xlink:href="#mcd9ea23a90" y="352.474513"/>
     <use style="stroke:#000000;stroke-linejoin:miter;" x="360.242884" xlink:href="#mcd9ea23a90" y="330.596491"/>
     <use style="stroke:#000000;stroke-linejoin:miter;" x="365.315611" xlink:href="#mcd9ea23a90" y="305.3406"/>
     <use style="stroke:#000000;stroke-linejoin:miter;" x="370.388338" xlink:href="#mcd9ea23a90" y="277.951314"/>
     <use style="stroke:#000000;stroke-linejoin:miter;" x="375.461065" xlink:href="#mcd9ea23a90" y="249.748735"/>
     <use style="stroke:#000000;stroke-linejoin:miter;" x="380.533793" xlink:href="#mcd9ea23a90" y="222.064978"/>
     <use style="stroke:#000000;stroke-linejoin:miter;" x="385.60652" xlink:href="#mcd9ea23a90" y="196.181271"/>
     <use style="stroke:#000000;stroke-linejoin:miter;" x="390.679247" xlink:href="#mcd9ea23a90" y="173.268809"/>
     <use style="stroke:#000000;stroke-linejoin:miter;" x="395.751974" xlink:href="#mcd9ea23a90" y="154.335839"/>
     <use style="stroke:#000000;stroke-linejoin:miter;" x="400.824702" xlink:href="#mcd9ea23a90" y="140.183588"/>
     <use style="stroke:#000000;stroke-linejoin:miter;" x="405.897429" xlink:href="#mcd9ea23a90" y="131.372393"/>
     <use style="stroke:#000000;stroke-linejoin:miter;" x="410.970156" xlink:href="#mcd9ea23a90" y="128.200604"/>
     <use style="stroke:#000000;stroke-linejoin:miter;" x="416.042884" xlink:href="#mcd9ea23a90" y="130.694799"/>
     <use style="stroke:#000000;stroke-linejoin:miter;" x="421.115611" xlink:href="#mcd9ea23a90" y="138.614383"/>
     <use style="stroke:#000000;stroke-linejoin:miter;" x="426.188338" xlink:href="#mcd9ea23a90" y="151.467085"/>
     <use style="stroke:#000000;stroke-linejoin:miter;" x="431.261065" xlink:href="#mcd9ea23a90" y="168.537363"/>
     <use style="stroke:#000000;stroke-linejoin:miter;" x="436.333793" xlink:href="#mcd9ea23a90" y="188.923416"/>
     <use style="stroke:#000000;stroke-linejoin:miter;" x="441.40652" xlink:href="#mcd9ea23a90" y="211.582937"/>
     <use style="stroke:#000000;stroke-linejoin:miter;" x="446.479247" xlink:href="#mcd9ea23a90" y="235.384306"/>
     <use style="stroke:#000000;stroke-linejoin:miter;" x="451.551974" xlink:href="#mcd9ea23a90" y="259.161084"/>
     <use style="stroke:#000000;stroke-linejoin:miter;" x="456.624702" xlink:href="#mcd9ea23a90" y="281.76709"/>
     <use style="stroke:#000000;stroke-linejoin:miter;" x="461.697429" xlink:href="#mcd9ea23a90" y="302.129609"/>
     <use style="stroke:#000000;stroke-linejoin:miter;" x="466.770156" xlink:href="#mcd9ea23a90" y="319.298336"/>
     <use style="stroke:#000000;stroke-linejoin:miter;" x="471.842884" xlink:href="#mcd9ea23a90" y="332.487571"/>
     <use style="stroke:#000000;stroke-linejoin:miter;" x="476.915611" xlink:href="#mcd9ea23a90" y="341.11039"/>
     <use style="stroke:#000000;stroke-linejoin:miter;" x="481.988338" xlink:href="#mcd9ea23a90" y="344.802631"/>
     <use style="stroke:#000000;stroke-linejoin:miter;" x="487.061065" xlink:href="#mcd9ea23a90" y="343.436501"/>
     <use style="stroke:#000000;stroke-linejoin:miter;" x="492.133793" xlink:href="#mcd9ea23a90" y="337.12302"/>
     <use style="stroke:#000000;stroke-linejoin:miter;" x="497.20652" xlink:href="#mcd9ea23a90" y="326.202695"/>
     <use style="stroke:#000000;stroke-linejoin:miter;" x="502.279247" xlink:href="#mcd9ea23a90" y="311.22674"/>
     <use style="stroke:#000000;stroke-linejoin:miter;" x="507.351974" xlink:href="#mcd9ea23a90" y="292.927922"/>
     <use style="stroke:#000000;stroke-linejoin:miter;" x="512.424702" xlink:href="#mcd9ea23a90" y="272.183895"/>
     <use style="stroke:#000000;stroke-linejoin:miter;" x="517.497429" xlink:href="#mcd9ea23a90" y="249.974213"/>
     <use style="stroke:#000000;stroke-linejoin:miter;" x="522.570156" xlink:href="#mcd9ea23a90" y="227.333266"/>
     <use style="stroke:#000000;stroke-linejoin:miter;" x="527.642884" xlink:href="#mcd9ea23a90" y="205.301314"/>
     <use style="stroke:#000000;stroke-linejoin:miter;" x="532.715611" xlink:href="#mcd9ea23a90" y="184.875979"/>
     <use style="stroke:#000000;stroke-linejoin:miter;" x="537.788338" xlink:href="#mcd9ea23a90" y="166.96628"/>
     <use style="stroke:#000000;stroke-linejoin:miter;" x="542.861065" xlink:href="#mcd9ea23a90" y="152.35148"/>
     <use style="stroke:#000000;stroke-linejoin:miter;" x="547.933793" xlink:href="#mcd9ea23a90" y="141.646407"/>
     <use style="stroke:#000000;stroke-linejoin:miter;" x="553.00652" xlink:href="#mcd9ea23a90" y="135.274856"/>
     <use style="stroke:#000000;stroke-linejoin:miter;" x="558.079247" xlink:href="#mcd9ea23a90" y="133.452136"/>
     <use style="stroke:#000000;stroke-linejoin:miter;" x="563.151974" xlink:href="#mcd9ea23a90" y="136.177557"/>
     <use style="stroke:#000000;stroke-linejoin:miter;" x="568.224702" xlink:href="#mcd9ea23a90" y="143.236933"/>
     <use style="stroke:#000000;stroke-linejoin:miter;" x="573.297429" xlink:href="#mcd9ea23a90" y="154.214982"/>
     <use style="stroke:#000000;stroke-linejoin:miter;" x="578.370156" xlink:href="#mcd9ea23a90" y="168.516932"/>
     <use style="stroke:#000000;stroke-linejoin:miter;" x="583.442884" xlink:href="#mcd9ea23a90" y="185.398112"/>
     <use style="stroke:#000000;stroke-linejoin:miter;" x="588.515611" xlink:href="#mcd9ea23a90" y="204.000361"/>
     <use style="stroke:#000000;stroke-linejoin:miter;" x="593.588338" xlink:href="#mcd9ea23a90" y="223.393071"/>
     <use style="stroke:#000000;stroke-linejoin:miter;" x="598.661065" xlink:href="#mcd9ea23a90" y="242.617445"/>
     <use style="stroke:#000000;stroke-linejoin:miter;" x="603.733793" xlink:href="#mcd9ea23a90" y="260.731386"/>
     <use style="stroke:#000000;stroke-linejoin:miter;" x="608.80652" xlink:href="#mcd9ea23a90" y="276.853406"/>
     <use style="stroke:#000000;stroke-linejoin:miter;" x="613.879247" xlink:href="#mcd9ea23a90" y="290.203193"/>
     <use style="stroke:#000000;stroke-linejoin:miter;" x="618.951974" xlink:href="#mcd9ea23a90" y="300.137096"/>
     <use style="stroke:#000000;stroke-linejoin:miter;" x="624.024702" xlink:href="#mcd9ea23a90" y="306.177115"/>
     <use style="stroke:#000000;stroke-linejoin:miter;" x="629.097429" xlink:href="#mcd9ea23a90" y="308.031841"/>
     <use style="stroke:#000000;stroke-linejoin:miter;" x="634.170156" xlink:href="#mcd9ea23a90" y="305.608546"/>
     <use style="stroke:#000000;stroke-linejoin:miter;" x="639.242884" xlink:href="#mcd9ea23a90" y="299.016068"/>
     <use style="stroke:#000000;stroke-linejoin:miter;" x="644.315611" xlink:href="#mcd9ea23a90" y="288.558214"/>
     <use style="stroke:#000000;stroke-linejoin:miter;" x="649.388338" xlink:href="#mcd9ea23a90" y="274.718132"/>
     <use style="stroke:#000000;stroke-linejoin:miter;" x="654.461065" xlink:href="#mcd9ea23a90" y="258.134571"/>
     <use style="stroke:#000000;stroke-linejoin:miter;" x="659.533793" xlink:href="#mcd9ea23a90" y="239.570921"/>
     <use style="stroke:#000000;stroke-linejoin:miter;" x="664.60652" xlink:href="#mcd9ea23a90" y="219.878741"/>
     <use style="stroke:#000000;stroke-linejoin:miter;" x="669.679247" xlink:href="#mcd9ea23a90" y="199.957352"/>
     <use style="stroke:#000000;stroke-linejoin:miter;" x="674.751974" xlink:href="#mcd9ea23a90" y="180.711492"/>
     <use style="stroke:#000000;stroke-linejoin:miter;" x="679.824702" xlink:href="#mcd9ea23a90" y="163.008909"/>
     <use style="stroke:#000000;stroke-linejoin:miter;" x="684.897429" xlink:href="#mcd9ea23a90" y="147.639891"/>
     <use style="stroke:#000000;stroke-linejoin:miter;" x="689.970156" xlink:href="#mcd9ea23a90" y="135.280747"/>
     <use style="stroke:#000000;stroke-linejoin:miter;" x="695.042884" xlink:href="#mcd9ea23a90" y="126.462524"/>
     <use style="stroke:#000000;stroke-linejoin:miter;" x="700.115611" xlink:href="#mcd9ea23a90" y="121.546942"/>
     <use style="stroke:#000000;stroke-linejoin:miter;" x="705.188338" xlink:href="#mcd9ea23a90" y="120.71009"/>
     <use style="stroke:#000000;stroke-linejoin:miter;" x="710.261065" xlink:href="#mcd9ea23a90" y="123.935038"/>
     <use style="stroke:#000000;stroke-linejoin:miter;" x="715.333793" xlink:href="#mcd9ea23a90" y="131.013343"/>
     <use style="stroke:#000000;stroke-linejoin:miter;" x="720.40652" xlink:href="#mcd9ea23a90" y="141.555698"/>
     <use style="stroke:#000000;stroke-linejoin:miter;" x="725.479247" xlink:href="#mcd9ea23a90" y="155.010774"/>
     <use style="stroke:#000000;stroke-linejoin:miter;" x="730.551974" xlink:href="#mcd9ea23a90" y="170.691753"/>
     <use style="stroke:#000000;stroke-linejoin:miter;" x="735.624702" xlink:href="#mcd9ea23a90" y="187.809091"/>
     <use style="stroke:#000000;stroke-linejoin:miter;" x="740.697429" xlink:href="#mcd9ea23a90" y="205.507927"/>
     <use style="stroke:#000000;stroke-linejoin:miter;" x="745.770156" xlink:href="#mcd9ea23a90" y="222.9086"/>
     <use style="stroke:#000000;stroke-linejoin:miter;" x="750.842884" xlink:href="#mcd9ea23a90" y="239.148057"/>
     <use style="stroke:#000000;stroke-linejoin:miter;" x="755.915611" xlink:href="#mcd9ea23a90" y="253.42062"/>
     <use style="stroke:#000000;stroke-linejoin:miter;" x="760.988338" xlink:href="#mcd9ea23a90" y="265.015732"/>
     <use style="stroke:#000000;stroke-linejoin:miter;" x="766.061065" xlink:href="#mcd9ea23a90" y="273.351449"/>
     <use style="stroke:#000000;stroke-linejoin:miter;" x="771.133793" xlink:href="#mcd9ea23a90" y="278.001645"/>
     <use style="stroke:#000000;stroke-linejoin:miter;" x="776.20652" xlink:href="#mcd9ea23a90" y="278.716009"/>
     <use style="stroke:#000000;stroke-linejoin:miter;" x="781.279247" xlink:href="#mcd9ea23a90" y="275.431696"/>
     <use style="stroke:#000000;stroke-linejoin:miter;" x="786.351974" xlink:href="#mcd9ea23a90" y="268.276293"/>
     <use style="stroke:#000000;stroke-linejoin:miter;" x="791.424702" xlink:href="#mcd9ea23a90" y="257.561781"/>
     <use style="stroke:#000000;stroke-linejoin:miter;" x="796.497429" xlink:href="#mcd9ea23a90" y="243.769905"/>
     <use style="stroke:#000000;stroke-linejoin:miter;" x="801.570156" xlink:href="#mcd9ea23a90" y="227.529766"/>
     <use style="stroke:#000000;stroke-linejoin:miter;" x="806.642884" xlink:href="#mcd9ea23a90" y="209.588368"/>
     <use style="stroke:#000000;stroke-linejoin:miter;" x="811.715611" xlink:href="#mcd9ea23a90" y="190.775957"/>
     <use style="stroke:#000000;stroke-linejoin:miter;" x="816.788338" xlink:href="#mcd9ea23a90" y="171.967568"/>
     <use style="stroke:#000000;stroke-linejoin:miter;" x="821.861065" xlink:href="#mcd9ea23a90" y="154.042569"/>
     <use style="stroke:#000000;stroke-linejoin:miter;" x="826.933793" xlink:href="#mcd9ea23a90" y="137.844419"/>
     <use style="stroke:#000000;stroke-linejoin:miter;" x="832.00652" xlink:href="#mcd9ea23a90" y="124.142333"/>
     <use style="stroke:#000000;stroke-linejoin:miter;" x="837.079247" xlink:href="#mcd9ea23a90" y="113.596904"/>
     <use style="stroke:#000000;stroke-linejoin:miter;" x="842.151974" xlink:href="#mcd9ea23a90" y="106.731311"/>
     <use style="stroke:#000000;stroke-linejoin:miter;" x="847.224702" xlink:href="#mcd9ea23a90" y="103.909715"/>
     <use style="stroke:#000000;stroke-linejoin:miter;" x="852.297429" xlink:href="#mcd9ea23a90" y="105.323814"/>
     <use style="stroke:#000000;stroke-linejoin:miter;" x="857.370156" xlink:href="#mcd9ea23a90" y="110.988583"/>
     <use style="stroke:#000000;stroke-linejoin:miter;" x="862.442884" xlink:href="#mcd9ea23a90" y="120.747592"/>
     <use style="stroke:#000000;stroke-linejoin:miter;" x="867.515611" xlink:href="#mcd9ea23a90" y="134.287574"/>
     <use style="stroke:#000000;stroke-linejoin:miter;" x="872.588338" xlink:href="#mcd9ea23a90" y="151.16313"/>
     <use style="stroke:#000000;stroke-linejoin:miter;" x="877.661065" xlink:href="#mcd9ea23a90" y="170.828521"/>
     <use style="stroke:#000000;stroke-linejoin:miter;" x="882.733793" xlink:href="#mcd9ea23a90" y="192.678701"/>
     <use style="stroke:#000000;stroke-linejoin:miter;" x="887.80652" xlink:href="#mcd9ea23a90" y="216.095078"/>
     <use style="stroke:#000000;stroke-linejoin:miter;" x="892.879247" xlink:href="#mcd9ea23a90" y="240.497749"/>
     <use style="stroke:#000000;stroke-linejoin:miter;" x="897.951974" xlink:href="#mcd9ea23a90" y="265.400234"/>
     <use style="stroke:#000000;stroke-linejoin:miter;" x="903.024702" xlink:href="#mcd9ea23a90" y="290.467126"/>
    </g>
   </g>
   <g id="line2d_19">
    <path clip-path="url(#pce9c4b838d)" d="M 142.115611 269.132379 
L 147.188338 263.452041 
L 152.261065 248.590172 
L 157.333793 227.505864 
L 162.40652 203.014328 
L 167.479247 177.730091 
L 172.551974 154.004511 
L 177.624702 133.864131 
L 182.697429 118.955273 
L 187.770156 110.500595 
L 192.842884 109.270348 
L 197.915611 115.571702 
L 202.988338 129.257337 
L 208.061065 149.752926 
L 213.133793 176.103793 
L 218.20652 207.037043 
L 223.279247 241.037239 
L 233.424702 311.480989 
L 238.497429 344.470547 
L 243.570156 373.798522 
L 248.642884 398.056436 
L 253.715611 416.097383 
L 258.788338 427.090879 
L 263.861065 430.56 
L 268.933793 426.400154 
L 274.00652 414.878991 
L 279.079247 396.618113 
L 284.151974 372.556993 
L 289.224702 343.902127 
L 294.297429 312.063837 
L 304.442884 245.060031 
L 309.515611 213.063568 
L 314.588338 184.06722 
L 319.661065 159.373414 
L 324.733793 140.054449 
L 329.80652 126.904306 
L 334.879247 120.405473 
L 339.951974 120.710565 
L 345.024702 127.640821 
L 350.097429 140.700719 
L 355.170156 159.10702 
L 360.242884 181.831886 
L 365.315611 207.656475 
L 380.533793 290.009845 
L 385.60652 314.479008 
L 390.679247 335.367465 
L 395.751974 351.675193 
L 400.824702 362.738347 
L 405.897429 368.166216 
L 410.970156 367.745181 
L 416.042884 361.536999 
L 421.115611 349.871856 
L 426.188338 333.328771 
L 431.261065 312.705137 
L 436.333793 288.976255 
L 441.40652 263.247623 
L 451.551974 210.543001 
L 456.624702 185.940132 
L 461.697429 163.974287 
L 466.770156 145.589406 
L 471.842884 131.550658 
L 476.915611 122.411697 
L 481.988338 118.4916 
L 487.061065 119.863305 
L 492.133793 126.353766 
L 497.20652 137.554609 
L 502.279247 152.844098 
L 507.351974 171.418512 
L 512.424702 192.331453 
L 527.642884 258.473734 
L 532.715611 278.075946 
L 537.788338 294.820593 
L 542.861065 307.914553 
L 547.933793 316.742284 
L 553.00652 320.89243 
L 558.079247 320.174675 
L 563.151974 314.626503 
L 568.224702 304.509185 
L 573.297429 290.293724 
L 578.370156 272.637144 
L 583.442884 252.350596 
L 588.515611 230.360476 
L 598.661065 185.286241 
L 603.733793 164.225163 
L 608.80652 145.413128 
L 613.879247 129.67051 
L 618.951974 117.669407 
L 624.024702 109.903535 
L 629.097429 106.666677 
L 634.170156 108.040309 
L 639.242884 113.89132 
L 644.315611 123.879231 
L 649.388338 137.473498 
L 654.461065 154.013707 
L 659.533793 172.692965 
L 674.751974 231.942609 
L 679.824702 249.491984 
L 684.897429 264.433749 
L 689.970156 276.029691 
L 695.042884 283.702522 
L 700.115611 287.062282 
L 705.188338 285.92373 
L 710.261065 280.314314 
L 715.333793 270.472029 
L 720.40652 256.833539 
L 725.479247 240.013059 
L 730.551974 220.772941 
L 735.624702 199.98743 
L 745.770156 157.585102 
L 750.842884 137.88968 
L 755.915611 120.401194 
L 760.988338 105.899589 
L 766.061065 95.021965 
L 771.133793 88.232729 
L 776.20652 85.801735 
L 781.279247 87.791688 
L 786.351974 94.055352 
L 791.424702 104.242176 
L 796.497429 117.814757 
L 801.570156 134.073854 
L 806.642884 152.190898 
L 816.788338 190.272553 
L 821.861065 208.297645 
L 826.933793 224.390625 
L 832.00652 237.703277 
L 837.079247 247.507941 
L 842.151974 253.229268 
L 847.224702 254.467841 
L 852.297429 251.01486 
L 857.370156 242.856618 
L 862.442884 230.16862 
L 867.515611 213.299054 
L 872.588338 192.742089 
L 877.661065 169.101798 
L 882.733793 143.047756 
L 887.80652 115.263648 
L 897.951974 56.965701 
L 903.024702 27.36 
L 903.024702 27.36 
" style="fill:none;stroke:#0000ff;stroke-linecap:square;stroke-width:3;"/>
   </g>
   <g id="line2d_20">
    <path clip-path="url(#pce9c4b838d)" d="M 142.115611 269.132379 
L 147.188338 274.813007 
L 152.261065 289.664246 
L 157.333793 310.704567 
L 162.40652 335.103673 
L 167.479247 360.239434 
L 172.551974 383.759744 
L 177.624702 403.643047 
L 182.697429 418.251533 
L 187.770156 426.37331 
L 192.842884 427.248401 
L 197.915611 420.577935 
L 202.988338 406.513667 
L 208.061065 385.629214 
L 213.133793 358.872779 
L 218.20652 327.505135 
L 223.279247 293.024071 
L 233.424702 221.389804 
L 238.497429 187.641712 
L 243.570156 157.415341 
L 248.642884 132.100668 
L 253.715611 112.832587 
L 258.788338 100.437881 
L 263.861065 95.399848 
L 268.933793 97.840004 
L 274.00652 107.518384 
L 279.079247 123.851335 
L 284.151974 145.946108 
L 289.224702 172.649116 
L 294.297429 202.606851 
L 304.442884 266.289535 
L 309.515611 296.947307 
L 314.588338 324.873078 
L 319.661065 348.789082 
L 324.733793 367.632361 
L 329.80652 380.601135 
L 334.879247 387.187731 
L 339.951974 387.196933 
L 345.024702 380.748936 
L 350.097429 368.267274 
L 355.170156 350.452801 
L 360.242884 328.244819 
L 365.315611 302.771985 
L 370.388338 275.295222 
L 375.461065 247.145524 
L 380.533793 219.65994 
L 385.60652 194.11846 
L 390.679247 171.685025 
L 395.751974 153.355199 
L 400.824702 139.877291 
L 405.897429 131.75056 
L 410.970156 129.24395 
L 416.042884 132.355355 
L 421.115611 140.817088 
L 426.188338 154.113065 
L 431.261065 171.507867 
L 436.333793 192.085173 
L 441.40652 214.793987 
L 451.551974 262.041818 
L 456.624702 284.282685 
L 461.697429 304.166563 
L 466.770156 320.764546 
L 471.842884 333.316703 
L 476.915611 341.264863 
L 481.988338 344.275497 
L 487.061065 342.251917 
L 492.133793 335.334995 
L 497.20652 323.893032 
L 502.279247 308.501359 
L 507.351974 289.912019 
L 512.424702 269.016366 
L 527.642884 202.552833 
L 532.715611 182.538679 
L 537.788338 165.150193 
L 542.861065 151.142996 
L 547.933793 141.10419 
L 553.00652 135.426957 
L 558.079247 134.294572 
L 563.151974 137.67424 
L 568.224702 145.321174 
L 573.297429 156.792404 
L 578.370156 171.469575 
L 583.442884 188.589789 
L 588.515611 207.282806 
L 598.661065 245.622574 
L 603.733793 263.379026 
L 608.80652 279.016129 
L 613.879247 291.775057 
L 618.951974 301.038789 
L 624.024702 306.359759 
L 629.097429 307.479491 
L 634.170156 304.339154 
L 639.242884 297.080805 
L 644.315611 286.039318 
L 649.388338 271.725211 
L 654.461065 254.794955 
L 659.533793 236.024889 
L 669.679247 196.445386 
L 674.751974 177.4322 
L 679.824702 160.08847 
L 684.897429 145.183711 
L 689.970156 133.36886 
L 695.042884 125.146784 
L 700.115611 120.849549 
L 705.188338 120.623849 
L 710.261065 124.425027 
L 715.333793 132.019909 
L 720.40652 142.998512 
L 725.479247 156.793798 
L 730.551974 172.708701 
L 735.624702 189.949102 
L 745.770156 224.971847 
L 750.842884 241.028897 
L 755.915611 255.04159 
L 760.988338 266.317208 
L 766.061065 274.293371 
L 771.133793 278.564224 
L 776.20652 278.899335 
L 781.279247 275.25433 
L 786.351974 267.77295 
L 791.424702 256.780341 
L 796.497429 242.767955 
L 801.570156 226.370734 
L 806.642884 208.337786 
L 816.788338 170.720847 
L 821.861065 152.878752 
L 826.933793 136.805235 
L 832.00652 123.258452 
L 837.079247 112.887413 
L 842.151974 106.20391 
L 847.224702 103.561646 
L 852.297429 105.143355 
L 857.370156 110.957062 
L 862.442884 120.841652 
L 867.515611 134.481545 
L 872.588338 151.431362 
L 877.661065 171.147415 
L 882.733793 193.028371 
L 887.80652 216.460376 
L 897.951974 265.771393 
L 903.024702 290.836604 
L 903.024702 290.836604 
" style="fill:none;stroke:#ff0000;stroke-linecap:square;stroke-width:3;"/>
   </g>
   <g id="patch_3">
    <path d="M 104.070156 450.72 
L 104.070156 7.2 
" style="fill:none;stroke:#000000;stroke-linecap:square;stroke-linejoin:miter;stroke-width:0.8;"/>
   </g>
   <g id="patch_4">
    <path d="M 941.070156 450.72 
L 941.070156 7.2 
" style="fill:none;stroke:#000000;stroke-linecap:square;stroke-linejoin:miter;stroke-width:0.8;"/>
   </g>
   <g id="patch_5">
    <path d="M 104.070156 450.72 
L 941.070156 450.72 
" style="fill:none;stroke:#000000;stroke-linecap:square;stroke-linejoin:miter;stroke-width:0.8;"/>
   </g>
   <g id="patch_6">
    <path d="M 104.070156 7.2 
L 941.070156 7.2 
" style="fill:none;stroke:#000000;stroke-linecap:square;stroke-linejoin:miter;stroke-width:0.8;"/>
   </g>
   <g id="legend_1">
    <g id="patch_7">
     <path d="M 631.860156 439.72 
L 925.670156 439.72 
Q 930.070156 439.72 930.070156 435.32 
L 930.070156 340.644375 
Q 930.070156 336.244375 925.670156 336.244375 
L 631.860156 336.244375 
Q 627.460156 336.244375 627.460156 340.644375 
L 627.460156 435.32 
Q 627.460156 439.72 631.860156 439.72 
z
" style="fill:#ffffff;opacity:0.8;stroke:#cccccc;stroke-linejoin:miter;"/>
    </g>
    <g id="line2d_21"/>
    <g id="line2d_22">
     <g>
      <use style="stroke:#000000;stroke-linejoin:miter;" x="658.260156" xlink:href="#mcd9ea23a90" y="354.060938"/>
     </g>
    </g>
    <g id="text_20">
     <!-- Reference FEM -->
     <g transform="translate(697.860156 361.760938)scale(0.22 -0.22)">
      <defs>
       <path d="M 44.390625 34.1875 
Q 47.5625 33.109375 50.5625 29.59375 
Q 53.5625 26.078125 56.59375 19.921875 
L 66.609375 0 
L 56 0 
L 46.6875 18.703125 
Q 43.0625 26.03125 39.671875 28.421875 
Q 36.28125 30.8125 30.421875 30.8125 
L 19.671875 30.8125 
L 19.671875 0 
L 9.8125 0 
L 9.8125 72.90625 
L 32.078125 72.90625 
Q 44.578125 72.90625 50.734375 67.671875 
Q 56.890625 62.453125 56.890625 51.90625 
Q 56.890625 45.015625 53.6875 40.46875 
Q 50.484375 35.9375 44.390625 34.1875 
z
M 19.671875 64.796875 
L 19.671875 38.921875 
L 32.078125 38.921875 
Q 39.203125 38.921875 42.84375 42.21875 
Q 46.484375 45.515625 46.484375 51.90625 
Q 46.484375 58.296875 42.84375 61.546875 
Q 39.203125 64.796875 32.078125 64.796875 
z
" id="DejaVuSans-82"/>
       <path d="M 37.109375 75.984375 
L 37.109375 68.5 
L 28.515625 68.5 
Q 23.6875 68.5 21.796875 66.546875 
Q 19.921875 64.59375 19.921875 59.515625 
L 19.921875 54.6875 
L 34.71875 54.6875 
L 34.71875 47.703125 
L 19.921875 47.703125 
L 19.921875 0 
L 10.890625 0 
L 10.890625 47.703125 
L 2.296875 47.703125 
L 2.296875 54.6875 
L 10.890625 54.6875 
L 10.890625 58.5 
Q 10.890625 67.625 15.140625 71.796875 
Q 19.390625 75.984375 28.609375 75.984375 
z
" id="DejaVuSans-102"/>
       <path d="M 41.109375 46.296875 
Q 39.59375 47.171875 37.8125 47.578125 
Q 36.03125 48 33.890625 48 
Q 26.265625 48 22.1875 43.046875 
Q 18.109375 38.09375 18.109375 28.8125 
L 18.109375 0 
L 9.078125 0 
L 9.078125 54.6875 
L 18.109375 54.6875 
L 18.109375 46.1875 
Q 20.953125 51.171875 25.484375 53.578125 
Q 30.03125 56 36.53125 56 
Q 37.453125 56 38.578125 55.875 
Q 39.703125 55.765625 41.0625 55.515625 
z
" id="DejaVuSans-114"/>
       <path d="M 48.78125 52.59375 
L 48.78125 44.1875 
Q 44.96875 46.296875 41.140625 47.34375 
Q 37.3125 48.390625 33.40625 48.390625 
Q 24.65625 48.390625 19.8125 42.84375 
Q 14.984375 37.3125 14.984375 27.296875 
Q 14.984375 17.28125 19.8125 11.734375 
Q 24.65625 6.203125 33.40625 6.203125 
Q 37.3125 6.203125 41.140625 7.25 
Q 44.96875 8.296875 48.78125 10.40625 
L 48.78125 2.09375 
Q 45.015625 0.34375 40.984375 -0.53125 
Q 36.96875 -1.421875 32.421875 -1.421875 
Q 20.0625 -1.421875 12.78125 6.34375 
Q 5.515625 14.109375 5.515625 27.296875 
Q 5.515625 40.671875 12.859375 48.328125 
Q 20.21875 56 33.015625 56 
Q 37.15625 56 41.109375 55.140625 
Q 45.0625 54.296875 48.78125 52.59375 
z
" id="DejaVuSans-99"/>
       <path d="M 9.8125 72.90625 
L 51.703125 72.90625 
L 51.703125 64.59375 
L 19.671875 64.59375 
L 19.671875 43.109375 
L 48.578125 43.109375 
L 48.578125 34.8125 
L 19.671875 34.8125 
L 19.671875 0 
L 9.8125 0 
z
" id="DejaVuSans-70"/>
       <path d="M 9.8125 72.90625 
L 55.90625 72.90625 
L 55.90625 64.59375 
L 19.671875 64.59375 
L 19.671875 43.015625 
L 54.390625 43.015625 
L 54.390625 34.71875 
L 19.671875 34.71875 
L 19.671875 8.296875 
L 56.78125 8.296875 
L 56.78125 0 
L 9.8125 0 
z
" id="DejaVuSans-69"/>
       <path d="M 9.8125 72.90625 
L 24.515625 72.90625 
L 43.109375 23.296875 
L 61.8125 72.90625 
L 76.515625 72.90625 
L 76.515625 0 
L 66.890625 0 
L 66.890625 64.015625 
L 48.09375 14.015625 
L 38.1875 14.015625 
L 19.390625 64.015625 
L 19.390625 0 
L 9.8125 0 
z
" id="DejaVuSans-77"/>
      </defs>
      <use xlink:href="#DejaVuSans-82"/>
      <use x="64.982422" xlink:href="#DejaVuSans-101"/>
      <use x="126.505859" xlink:href="#DejaVuSans-102"/>
      <use x="161.710938" xlink:href="#DejaVuSans-101"/>
      <use x="223.234375" xlink:href="#DejaVuSans-114"/>
      <use x="262.097656" xlink:href="#DejaVuSans-101"/>
      <use x="323.621094" xlink:href="#DejaVuSans-110"/>
      <use x="387" xlink:href="#DejaVuSans-99"/>
      <use x="441.980469" xlink:href="#DejaVuSans-101"/>
      <use x="503.503906" xlink:href="#DejaVuSans-32"/>
      <use x="535.291016" xlink:href="#DejaVuSans-70"/>
      <use x="592.810547" xlink:href="#DejaVuSans-69"/>
      <use x="655.994141" xlink:href="#DejaVuSans-77"/>
     </g>
    </g>
    <g id="line2d_23">
     <path d="M 636.260156 386.352813 
L 680.260156 386.352813 
" style="fill:none;stroke:#0000ff;stroke-linecap:square;stroke-width:3;"/>
    </g>
    <g id="line2d_24"/>
    <g id="text_21">
     <!-- Initial mistuned FEM -->
     <g transform="translate(697.860156 394.052813)scale(0.22 -0.22)">
      <defs>
       <path d="M 9.8125 72.90625 
L 19.671875 72.90625 
L 19.671875 0 
L 9.8125 0 
z
" id="DejaVuSans-73"/>
       <path d="M 44.28125 53.078125 
L 44.28125 44.578125 
Q 40.484375 46.53125 36.375 47.5 
Q 32.28125 48.484375 27.875 48.484375 
Q 21.1875 48.484375 17.84375 46.4375 
Q 14.5 44.390625 14.5 40.28125 
Q 14.5 37.15625 16.890625 35.375 
Q 19.28125 33.59375 26.515625 31.984375 
L 29.59375 31.296875 
Q 39.15625 29.25 43.1875 25.515625 
Q 47.21875 21.78125 47.21875 15.09375 
Q 47.21875 7.46875 41.1875 3.015625 
Q 35.15625 -1.421875 24.609375 -1.421875 
Q 20.21875 -1.421875 15.453125 -0.5625 
Q 10.6875 0.296875 5.421875 2 
L 5.421875 11.28125 
Q 10.40625 8.6875 15.234375 7.390625 
Q 20.0625 6.109375 24.8125 6.109375 
Q 31.15625 6.109375 34.5625 8.28125 
Q 37.984375 10.453125 37.984375 14.40625 
Q 37.984375 18.0625 35.515625 20.015625 
Q 33.0625 21.96875 24.703125 23.78125 
L 21.578125 24.515625 
Q 13.234375 26.265625 9.515625 29.90625 
Q 5.8125 33.546875 5.8125 39.890625 
Q 5.8125 47.609375 11.28125 51.796875 
Q 16.75 56 26.8125 56 
Q 31.78125 56 36.171875 55.265625 
Q 40.578125 54.546875 44.28125 53.078125 
z
" id="DejaVuSans-115"/>
      </defs>
      <use xlink:href="#DejaVuSans-73"/>
      <use x="29.492188" xlink:href="#DejaVuSans-110"/>
      <use x="92.871094" xlink:href="#DejaVuSans-105"/>
      <use x="120.654297" xlink:href="#DejaVuSans-116"/>
      <use x="159.863281" xlink:href="#DejaVuSans-105"/>
      <use x="187.646484" xlink:href="#DejaVuSans-97"/>
      <use x="248.925781" xlink:href="#DejaVuSans-108"/>
      <use x="276.708984" xlink:href="#DejaVuSans-32"/>
      <use x="308.496094" xlink:href="#DejaVuSans-109"/>
      <use x="405.908203" xlink:href="#DejaVuSans-105"/>
      <use x="433.691406" xlink:href="#DejaVuSans-115"/>
      <use x="485.791016" xlink:href="#DejaVuSans-116"/>
      <use x="525" xlink:href="#DejaVuSans-117"/>
      <use x="588.378906" xlink:href="#DejaVuSans-110"/>
      <use x="651.757812" xlink:href="#DejaVuSans-101"/>
      <use x="713.28125" xlink:href="#DejaVuSans-100"/>
      <use x="776.757812" xlink:href="#DejaVuSans-32"/>
      <use x="808.544922" xlink:href="#DejaVuSans-70"/>
      <use x="866.064453" xlink:href="#DejaVuSans-69"/>
      <use x="929.248047" xlink:href="#DejaVuSans-77"/>
     </g>
    </g>
    <g id="line2d_25">
     <path d="M 636.260156 418.644688 
L 680.260156 418.644688 
" style="fill:none;stroke:#ff0000;stroke-linecap:square;stroke-width:3;"/>
    </g>
    <g id="line2d_26"/>
    <g id="text_22">
     <!-- Converged FEM -->
     <g transform="translate(697.860156 426.344688)scale(0.22 -0.22)">
      <defs>
       <path d="M 64.40625 67.28125 
L 64.40625 56.890625 
Q 59.421875 61.53125 53.78125 63.8125 
Q 48.140625 66.109375 41.796875 66.109375 
Q 29.296875 66.109375 22.65625 58.46875 
Q 16.015625 50.828125 16.015625 36.375 
Q 16.015625 21.96875 22.65625 14.328125 
Q 29.296875 6.6875 41.796875 6.6875 
Q 48.140625 6.6875 53.78125 8.984375 
Q 59.421875 11.28125 64.40625 15.921875 
L 64.40625 5.609375 
Q 59.234375 2.09375 53.4375 0.328125 
Q 47.65625 -1.421875 41.21875 -1.421875 
Q 24.65625 -1.421875 15.125 8.703125 
Q 5.609375 18.84375 5.609375 36.375 
Q 5.609375 53.953125 15.125 64.078125 
Q 24.65625 74.21875 41.21875 74.21875 
Q 47.75 74.21875 53.53125 72.484375 
Q 59.328125 70.75 64.40625 67.28125 
z
" id="DejaVuSans-67"/>
       <path d="M 30.609375 48.390625 
Q 23.390625 48.390625 19.1875 42.75 
Q 14.984375 37.109375 14.984375 27.296875 
Q 14.984375 17.484375 19.15625 11.84375 
Q 23.34375 6.203125 30.609375 6.203125 
Q 37.796875 6.203125 41.984375 11.859375 
Q 46.1875 17.53125 46.1875 27.296875 
Q 46.1875 37.015625 41.984375 42.703125 
Q 37.796875 48.390625 30.609375 48.390625 
z
M 30.609375 56 
Q 42.328125 56 49.015625 48.375 
Q 55.71875 40.765625 55.71875 27.296875 
Q 55.71875 13.875 49.015625 6.21875 
Q 42.328125 -1.421875 30.609375 -1.421875 
Q 18.84375 -1.421875 12.171875 6.21875 
Q 5.515625 13.875 5.515625 27.296875 
Q 5.515625 40.765625 12.171875 48.375 
Q 18.84375 56 30.609375 56 
z
" id="DejaVuSans-111"/>
       <path d="M 2.984375 54.6875 
L 12.5 54.6875 
L 29.59375 8.796875 
L 46.6875 54.6875 
L 56.203125 54.6875 
L 35.6875 0 
L 23.484375 0 
z
" id="DejaVuSans-118"/>
      </defs>
      <use xlink:href="#DejaVuSans-67"/>
      <use x="69.824219" xlink:href="#DejaVuSans-111"/>
      <use x="131.005859" xlink:href="#DejaVuSans-110"/>
      <use x="194.384766" xlink:href="#DejaVuSans-118"/>
      <use x="253.564453" xlink:href="#DejaVuSans-101"/>
      <use x="315.087891" xlink:href="#DejaVuSans-114"/>
      <use x="354.451172" xlink:href="#DejaVuSans-103"/>
      <use x="417.927734" xlink:href="#DejaVuSans-101"/>
      <use x="479.451172" xlink:href="#DejaVuSans-100"/>
      <use x="542.927734" xlink:href="#DejaVuSans-32"/>
      <use x="574.714844" xlink:href="#DejaVuSans-70"/>
      <use x="632.234375" xlink:href="#DejaVuSans-69"/>
      <use x="695.417969" xlink:href="#DejaVuSans-77"/>
     </g>
    </g>
   </g>
  </g>
 </g>
 <defs>
  <clipPath id="pce9c4b838d">
   <rect height="443.52" width="837" x="104.070156" y="7.2"/>
  </clipPath>
 </defs>
</svg>
