<?xml version="1.0" encoding="utf-8" standalone="no"?>
<!DOCTYPE svg PUBLIC "-//W3C//DTD SVG 1.1//EN"
  "http://www.w3.org/Graphics/SVG/1.1/DTD/svg11.dtd">
<!-- Created with matplotlib (https://matplotlib.org/) -->
<svg height="518.278437pt" version="1.1" viewBox="0 0 924.418594 518.278437" width="924.418594pt" xmlns="http://www.w3.org/2000/svg" xmlns:xlink="http://www.w3.org/1999/xlink">
 <metadata>
  <rdf:RDF xmlns:cc="http://creativecommons.org/ns#" xmlns:dc="http://purl.org/dc/elements/1.1/" xmlns:rdf="http://www.w3.org/1999/02/22-rdf-syntax-ns#">
   <cc:Work>
    <dc:type rdf:resource="http://purl.org/dc/dcmitype/StillImage"/>
    <dc:date>2021-12-02T19:24:10.776073</dc:date>
    <dc:format>image/svg+xml</dc:format>
    <dc:creator>
     <cc:Agent>
      <dc:title>Matplotlib v3.3.4, https://matplotlib.org/</dc:title>
     </cc:Agent>
    </dc:creator>
   </cc:Work>
  </rdf:RDF>
 </metadata>
 <defs>
  <style type="text/css">*{stroke-linecap:butt;stroke-linejoin:round;}</style>
 </defs>
 <g id="figure_1">
  <g id="patch_1">
   <path d="M 0 518.278437 
L 924.418594 518.278437 
L 924.418594 0 
L 0 0 
z
" style="fill:#ffffff;"/>
  </g>
  <g id="axes_1">
   <g id="patch_2">
    <path d="M 80.218594 450.72 
L 917.218594 450.72 
L 917.218594 7.2 
L 80.218594 7.2 
z
" style="fill:#ffffff;"/>
   </g>
   <g id="matplotlib.axis_1">
    <g id="xtick_1">
     <g id="line2d_1">
      <defs>
       <path d="M 0 0 
L 0 3.5 
" id="m51eb684d52" style="stroke:#000000;stroke-width:0.8;"/>
      </defs>
      <g>
       <use style="stroke:#000000;stroke-width:0.8;" x="118.264048" xlink:href="#m51eb684d52" y="450.72"/>
      </g>
     </g>
     <g id="text_1">
      <!-- 0.0 -->
      <g transform="translate(98.385142 476.716094)scale(0.25 -0.25)">
       <defs>
        <path d="M 31.78125 66.40625 
Q 24.171875 66.40625 20.328125 58.90625 
Q 16.5 51.421875 16.5 36.375 
Q 16.5 21.390625 20.328125 13.890625 
Q 24.171875 6.390625 31.78125 6.390625 
Q 39.453125 6.390625 43.28125 13.890625 
Q 47.125 21.390625 47.125 36.375 
Q 47.125 51.421875 43.28125 58.90625 
Q 39.453125 66.40625 31.78125 66.40625 
z
M 31.78125 74.21875 
Q 44.046875 74.21875 50.515625 64.515625 
Q 56.984375 54.828125 56.984375 36.375 
Q 56.984375 17.96875 50.515625 8.265625 
Q 44.046875 -1.421875 31.78125 -1.421875 
Q 19.53125 -1.421875 13.0625 8.265625 
Q 6.59375 17.96875 6.59375 36.375 
Q 6.59375 54.828125 13.0625 64.515625 
Q 19.53125 74.21875 31.78125 74.21875 
z
" id="DejaVuSans-48"/>
        <path d="M 10.6875 12.40625 
L 21 12.40625 
L 21 0 
L 10.6875 0 
z
" id="DejaVuSans-46"/>
       </defs>
       <use xlink:href="#DejaVuSans-48"/>
       <use x="63.623047" xlink:href="#DejaVuSans-46"/>
       <use x="95.410156" xlink:href="#DejaVuSans-48"/>
      </g>
     </g>
    </g>
    <g id="xtick_2">
     <g id="line2d_2">
      <g>
       <use style="stroke:#000000;stroke-width:0.8;" x="219.718594" xlink:href="#m51eb684d52" y="450.72"/>
      </g>
     </g>
     <g id="text_2">
      <!-- 0.2 -->
      <g transform="translate(199.839688 476.716094)scale(0.25 -0.25)">
       <defs>
        <path d="M 19.1875 8.296875 
L 53.609375 8.296875 
L 53.609375 0 
L 7.328125 0 
L 7.328125 8.296875 
Q 12.9375 14.109375 22.625 23.890625 
Q 32.328125 33.6875 34.8125 36.53125 
Q 39.546875 41.84375 41.421875 45.53125 
Q 43.3125 49.21875 43.3125 52.78125 
Q 43.3125 58.59375 39.234375 62.25 
Q 35.15625 65.921875 28.609375 65.921875 
Q 23.96875 65.921875 18.8125 64.3125 
Q 13.671875 62.703125 7.8125 59.421875 
L 7.8125 69.390625 
Q 13.765625 71.78125 18.9375 73 
Q 24.125 74.21875 28.421875 74.21875 
Q 39.75 74.21875 46.484375 68.546875 
Q 53.21875 62.890625 53.21875 53.421875 
Q 53.21875 48.921875 51.53125 44.890625 
Q 49.859375 40.875 45.40625 35.40625 
Q 44.1875 33.984375 37.640625 27.21875 
Q 31.109375 20.453125 19.1875 8.296875 
z
" id="DejaVuSans-50"/>
       </defs>
       <use xlink:href="#DejaVuSans-48"/>
       <use x="63.623047" xlink:href="#DejaVuSans-46"/>
       <use x="95.410156" xlink:href="#DejaVuSans-50"/>
      </g>
     </g>
    </g>
    <g id="xtick_3">
     <g id="line2d_3">
      <g>
       <use style="stroke:#000000;stroke-width:0.8;" x="321.173139" xlink:href="#m51eb684d52" y="450.72"/>
      </g>
     </g>
     <g id="text_3">
      <!-- 0.4 -->
      <g transform="translate(301.294233 476.716094)scale(0.25 -0.25)">
       <defs>
        <path d="M 37.796875 64.3125 
L 12.890625 25.390625 
L 37.796875 25.390625 
z
M 35.203125 72.90625 
L 47.609375 72.90625 
L 47.609375 25.390625 
L 58.015625 25.390625 
L 58.015625 17.1875 
L 47.609375 17.1875 
L 47.609375 0 
L 37.796875 0 
L 37.796875 17.1875 
L 4.890625 17.1875 
L 4.890625 26.703125 
z
" id="DejaVuSans-52"/>
       </defs>
       <use xlink:href="#DejaVuSans-48"/>
       <use x="63.623047" xlink:href="#DejaVuSans-46"/>
       <use x="95.410156" xlink:href="#DejaVuSans-52"/>
      </g>
     </g>
    </g>
    <g id="xtick_4">
     <g id="line2d_4">
      <g>
       <use style="stroke:#000000;stroke-width:0.8;" x="422.627685" xlink:href="#m51eb684d52" y="450.72"/>
      </g>
     </g>
     <g id="text_4">
      <!-- 0.6 -->
      <g transform="translate(402.748778 476.716094)scale(0.25 -0.25)">
       <defs>
        <path d="M 33.015625 40.375 
Q 26.375 40.375 22.484375 35.828125 
Q 18.609375 31.296875 18.609375 23.390625 
Q 18.609375 15.53125 22.484375 10.953125 
Q 26.375 6.390625 33.015625 6.390625 
Q 39.65625 6.390625 43.53125 10.953125 
Q 47.40625 15.53125 47.40625 23.390625 
Q 47.40625 31.296875 43.53125 35.828125 
Q 39.65625 40.375 33.015625 40.375 
z
M 52.59375 71.296875 
L 52.59375 62.3125 
Q 48.875 64.0625 45.09375 64.984375 
Q 41.3125 65.921875 37.59375 65.921875 
Q 27.828125 65.921875 22.671875 59.328125 
Q 17.53125 52.734375 16.796875 39.40625 
Q 19.671875 43.65625 24.015625 45.921875 
Q 28.375 48.1875 33.59375 48.1875 
Q 44.578125 48.1875 50.953125 41.515625 
Q 57.328125 34.859375 57.328125 23.390625 
Q 57.328125 12.15625 50.6875 5.359375 
Q 44.046875 -1.421875 33.015625 -1.421875 
Q 20.359375 -1.421875 13.671875 8.265625 
Q 6.984375 17.96875 6.984375 36.375 
Q 6.984375 53.65625 15.1875 63.9375 
Q 23.390625 74.21875 37.203125 74.21875 
Q 40.921875 74.21875 44.703125 73.484375 
Q 48.484375 72.75 52.59375 71.296875 
z
" id="DejaVuSans-54"/>
       </defs>
       <use xlink:href="#DejaVuSans-48"/>
       <use x="63.623047" xlink:href="#DejaVuSans-46"/>
       <use x="95.410156" xlink:href="#DejaVuSans-54"/>
      </g>
     </g>
    </g>
    <g id="xtick_5">
     <g id="line2d_5">
      <g>
       <use style="stroke:#000000;stroke-width:0.8;" x="524.08223" xlink:href="#m51eb684d52" y="450.72"/>
      </g>
     </g>
     <g id="text_5">
      <!-- 0.8 -->
      <g transform="translate(504.203324 476.716094)scale(0.25 -0.25)">
       <defs>
        <path d="M 31.78125 34.625 
Q 24.75 34.625 20.71875 30.859375 
Q 16.703125 27.09375 16.703125 20.515625 
Q 16.703125 13.921875 20.71875 10.15625 
Q 24.75 6.390625 31.78125 6.390625 
Q 38.8125 6.390625 42.859375 10.171875 
Q 46.921875 13.96875 46.921875 20.515625 
Q 46.921875 27.09375 42.890625 30.859375 
Q 38.875 34.625 31.78125 34.625 
z
M 21.921875 38.8125 
Q 15.578125 40.375 12.03125 44.71875 
Q 8.5 49.078125 8.5 55.328125 
Q 8.5 64.0625 14.71875 69.140625 
Q 20.953125 74.21875 31.78125 74.21875 
Q 42.671875 74.21875 48.875 69.140625 
Q 55.078125 64.0625 55.078125 55.328125 
Q 55.078125 49.078125 51.53125 44.71875 
Q 48 40.375 41.703125 38.8125 
Q 48.828125 37.15625 52.796875 32.3125 
Q 56.78125 27.484375 56.78125 20.515625 
Q 56.78125 9.90625 50.3125 4.234375 
Q 43.84375 -1.421875 31.78125 -1.421875 
Q 19.734375 -1.421875 13.25 4.234375 
Q 6.78125 9.90625 6.78125 20.515625 
Q 6.78125 27.484375 10.78125 32.3125 
Q 14.796875 37.15625 21.921875 38.8125 
z
M 18.3125 54.390625 
Q 18.3125 48.734375 21.84375 45.5625 
Q 25.390625 42.390625 31.78125 42.390625 
Q 38.140625 42.390625 41.71875 45.5625 
Q 45.3125 48.734375 45.3125 54.390625 
Q 45.3125 60.0625 41.71875 63.234375 
Q 38.140625 66.40625 31.78125 66.40625 
Q 25.390625 66.40625 21.84375 63.234375 
Q 18.3125 60.0625 18.3125 54.390625 
z
" id="DejaVuSans-56"/>
       </defs>
       <use xlink:href="#DejaVuSans-48"/>
       <use x="63.623047" xlink:href="#DejaVuSans-46"/>
       <use x="95.410156" xlink:href="#DejaVuSans-56"/>
      </g>
     </g>
    </g>
    <g id="xtick_6">
     <g id="line2d_6">
      <g>
       <use style="stroke:#000000;stroke-width:0.8;" x="625.536776" xlink:href="#m51eb684d52" y="450.72"/>
      </g>
     </g>
     <g id="text_6">
      <!-- 1.0 -->
      <g transform="translate(605.657869 476.716094)scale(0.25 -0.25)">
       <defs>
        <path d="M 12.40625 8.296875 
L 28.515625 8.296875 
L 28.515625 63.921875 
L 10.984375 60.40625 
L 10.984375 69.390625 
L 28.421875 72.90625 
L 38.28125 72.90625 
L 38.28125 8.296875 
L 54.390625 8.296875 
L 54.390625 0 
L 12.40625 0 
z
" id="DejaVuSans-49"/>
       </defs>
       <use xlink:href="#DejaVuSans-49"/>
       <use x="63.623047" xlink:href="#DejaVuSans-46"/>
       <use x="95.410156" xlink:href="#DejaVuSans-48"/>
      </g>
     </g>
    </g>
    <g id="xtick_7">
     <g id="line2d_7">
      <g>
       <use style="stroke:#000000;stroke-width:0.8;" x="726.991321" xlink:href="#m51eb684d52" y="450.72"/>
      </g>
     </g>
     <g id="text_7">
      <!-- 1.2 -->
      <g transform="translate(707.112415 476.716094)scale(0.25 -0.25)">
       <use xlink:href="#DejaVuSans-49"/>
       <use x="63.623047" xlink:href="#DejaVuSans-46"/>
       <use x="95.410156" xlink:href="#DejaVuSans-50"/>
      </g>
     </g>
    </g>
    <g id="xtick_8">
     <g id="line2d_8">
      <g>
       <use style="stroke:#000000;stroke-width:0.8;" x="828.445866" xlink:href="#m51eb684d52" y="450.72"/>
      </g>
     </g>
     <g id="text_8">
      <!-- 1.4 -->
      <g transform="translate(808.56696 476.716094)scale(0.25 -0.25)">
       <use xlink:href="#DejaVuSans-49"/>
       <use x="63.623047" xlink:href="#DejaVuSans-46"/>
       <use x="95.410156" xlink:href="#DejaVuSans-52"/>
      </g>
     </g>
    </g>
    <g id="text_9">
     <!-- Beam Length [m] -->
     <g transform="translate(385.259063 505.67125)scale(0.26 -0.26)">
      <defs>
       <path d="M 19.671875 34.8125 
L 19.671875 8.109375 
L 35.5 8.109375 
Q 43.453125 8.109375 47.28125 11.40625 
Q 51.125 14.703125 51.125 21.484375 
Q 51.125 28.328125 47.28125 31.5625 
Q 43.453125 34.8125 35.5 34.8125 
z
M 19.671875 64.796875 
L 19.671875 42.828125 
L 34.28125 42.828125 
Q 41.5 42.828125 45.03125 45.53125 
Q 48.578125 48.25 48.578125 53.8125 
Q 48.578125 59.328125 45.03125 62.0625 
Q 41.5 64.796875 34.28125 64.796875 
z
M 9.8125 72.90625 
L 35.015625 72.90625 
Q 46.296875 72.90625 52.390625 68.21875 
Q 58.5 63.53125 58.5 54.890625 
Q 58.5 48.1875 55.375 44.234375 
Q 52.25 40.28125 46.1875 39.3125 
Q 53.46875 37.75 57.5 32.78125 
Q 61.53125 27.828125 61.53125 20.40625 
Q 61.53125 10.640625 54.890625 5.3125 
Q 48.25 0 35.984375 0 
L 9.8125 0 
z
" id="DejaVuSans-66"/>
       <path d="M 56.203125 29.59375 
L 56.203125 25.203125 
L 14.890625 25.203125 
Q 15.484375 15.921875 20.484375 11.0625 
Q 25.484375 6.203125 34.421875 6.203125 
Q 39.59375 6.203125 44.453125 7.46875 
Q 49.3125 8.734375 54.109375 11.28125 
L 54.109375 2.78125 
Q 49.265625 0.734375 44.1875 -0.34375 
Q 39.109375 -1.421875 33.890625 -1.421875 
Q 20.796875 -1.421875 13.15625 6.1875 
Q 5.515625 13.8125 5.515625 26.8125 
Q 5.515625 40.234375 12.765625 48.109375 
Q 20.015625 56 32.328125 56 
Q 43.359375 56 49.78125 48.890625 
Q 56.203125 41.796875 56.203125 29.59375 
z
M 47.21875 32.234375 
Q 47.125 39.59375 43.09375 43.984375 
Q 39.0625 48.390625 32.421875 48.390625 
Q 24.90625 48.390625 20.390625 44.140625 
Q 15.875 39.890625 15.1875 32.171875 
z
" id="DejaVuSans-101"/>
       <path d="M 34.28125 27.484375 
Q 23.390625 27.484375 19.1875 25 
Q 14.984375 22.515625 14.984375 16.5 
Q 14.984375 11.71875 18.140625 8.90625 
Q 21.296875 6.109375 26.703125 6.109375 
Q 34.1875 6.109375 38.703125 11.40625 
Q 43.21875 16.703125 43.21875 25.484375 
L 43.21875 27.484375 
z
M 52.203125 31.203125 
L 52.203125 0 
L 43.21875 0 
L 43.21875 8.296875 
Q 40.140625 3.328125 35.546875 0.953125 
Q 30.953125 -1.421875 24.3125 -1.421875 
Q 15.921875 -1.421875 10.953125 3.296875 
Q 6 8.015625 6 15.921875 
Q 6 25.140625 12.171875 29.828125 
Q 18.359375 34.515625 30.609375 34.515625 
L 43.21875 34.515625 
L 43.21875 35.40625 
Q 43.21875 41.609375 39.140625 45 
Q 35.0625 48.390625 27.6875 48.390625 
Q 23 48.390625 18.546875 47.265625 
Q 14.109375 46.140625 10.015625 43.890625 
L 10.015625 52.203125 
Q 14.9375 54.109375 19.578125 55.046875 
Q 24.21875 56 28.609375 56 
Q 40.484375 56 46.34375 49.84375 
Q 52.203125 43.703125 52.203125 31.203125 
z
" id="DejaVuSans-97"/>
       <path d="M 52 44.1875 
Q 55.375 50.25 60.0625 53.125 
Q 64.75 56 71.09375 56 
Q 79.640625 56 84.28125 50.015625 
Q 88.921875 44.046875 88.921875 33.015625 
L 88.921875 0 
L 79.890625 0 
L 79.890625 32.71875 
Q 79.890625 40.578125 77.09375 44.375 
Q 74.3125 48.1875 68.609375 48.1875 
Q 61.625 48.1875 57.5625 43.546875 
Q 53.515625 38.921875 53.515625 30.90625 
L 53.515625 0 
L 44.484375 0 
L 44.484375 32.71875 
Q 44.484375 40.625 41.703125 44.40625 
Q 38.921875 48.1875 33.109375 48.1875 
Q 26.21875 48.1875 22.15625 43.53125 
Q 18.109375 38.875 18.109375 30.90625 
L 18.109375 0 
L 9.078125 0 
L 9.078125 54.6875 
L 18.109375 54.6875 
L 18.109375 46.1875 
Q 21.1875 51.21875 25.484375 53.609375 
Q 29.78125 56 35.6875 56 
Q 41.65625 56 45.828125 52.96875 
Q 50 49.953125 52 44.1875 
z
" id="DejaVuSans-109"/>
       <path id="DejaVuSans-32"/>
       <path d="M 9.8125 72.90625 
L 19.671875 72.90625 
L 19.671875 8.296875 
L 55.171875 8.296875 
L 55.171875 0 
L 9.8125 0 
z
" id="DejaVuSans-76"/>
       <path d="M 54.890625 33.015625 
L 54.890625 0 
L 45.90625 0 
L 45.90625 32.71875 
Q 45.90625 40.484375 42.875 44.328125 
Q 39.84375 48.1875 33.796875 48.1875 
Q 26.515625 48.1875 22.3125 43.546875 
Q 18.109375 38.921875 18.109375 30.90625 
L 18.109375 0 
L 9.078125 0 
L 9.078125 54.6875 
L 18.109375 54.6875 
L 18.109375 46.1875 
Q 21.34375 51.125 25.703125 53.5625 
Q 30.078125 56 35.796875 56 
Q 45.21875 56 50.046875 50.171875 
Q 54.890625 44.34375 54.890625 33.015625 
z
" id="DejaVuSans-110"/>
       <path d="M 45.40625 27.984375 
Q 45.40625 37.75 41.375 43.109375 
Q 37.359375 48.484375 30.078125 48.484375 
Q 22.859375 48.484375 18.828125 43.109375 
Q 14.796875 37.75 14.796875 27.984375 
Q 14.796875 18.265625 18.828125 12.890625 
Q 22.859375 7.515625 30.078125 7.515625 
Q 37.359375 7.515625 41.375 12.890625 
Q 45.40625 18.265625 45.40625 27.984375 
z
M 54.390625 6.78125 
Q 54.390625 -7.171875 48.1875 -13.984375 
Q 42 -20.796875 29.203125 -20.796875 
Q 24.46875 -20.796875 20.265625 -20.09375 
Q 16.0625 -19.390625 12.109375 -17.921875 
L 12.109375 -9.1875 
Q 16.0625 -11.328125 19.921875 -12.34375 
Q 23.78125 -13.375 27.78125 -13.375 
Q 36.625 -13.375 41.015625 -8.765625 
Q 45.40625 -4.15625 45.40625 5.171875 
L 45.40625 9.625 
Q 42.625 4.78125 38.28125 2.390625 
Q 33.9375 0 27.875 0 
Q 17.828125 0 11.671875 7.65625 
Q 5.515625 15.328125 5.515625 27.984375 
Q 5.515625 40.671875 11.671875 48.328125 
Q 17.828125 56 27.875 56 
Q 33.9375 56 38.28125 53.609375 
Q 42.625 51.21875 45.40625 46.390625 
L 45.40625 54.6875 
L 54.390625 54.6875 
z
" id="DejaVuSans-103"/>
       <path d="M 18.3125 70.21875 
L 18.3125 54.6875 
L 36.8125 54.6875 
L 36.8125 47.703125 
L 18.3125 47.703125 
L 18.3125 18.015625 
Q 18.3125 11.328125 20.140625 9.421875 
Q 21.96875 7.515625 27.59375 7.515625 
L 36.8125 7.515625 
L 36.8125 0 
L 27.59375 0 
Q 17.1875 0 13.234375 3.875 
Q 9.28125 7.765625 9.28125 18.015625 
L 9.28125 47.703125 
L 2.6875 47.703125 
L 2.6875 54.6875 
L 9.28125 54.6875 
L 9.28125 70.21875 
z
" id="DejaVuSans-116"/>
       <path d="M 54.890625 33.015625 
L 54.890625 0 
L 45.90625 0 
L 45.90625 32.71875 
Q 45.90625 40.484375 42.875 44.328125 
Q 39.84375 48.1875 33.796875 48.1875 
Q 26.515625 48.1875 22.3125 43.546875 
Q 18.109375 38.921875 18.109375 30.90625 
L 18.109375 0 
L 9.078125 0 
L 9.078125 75.984375 
L 18.109375 75.984375 
L 18.109375 46.1875 
Q 21.34375 51.125 25.703125 53.5625 
Q 30.078125 56 35.796875 56 
Q 45.21875 56 50.046875 50.171875 
Q 54.890625 44.34375 54.890625 33.015625 
z
" id="DejaVuSans-104"/>
       <path d="M 8.59375 75.984375 
L 29.296875 75.984375 
L 29.296875 69 
L 17.578125 69 
L 17.578125 -6.203125 
L 29.296875 -6.203125 
L 29.296875 -13.1875 
L 8.59375 -13.1875 
z
" id="DejaVuSans-91"/>
       <path d="M 30.421875 75.984375 
L 30.421875 -13.1875 
L 9.71875 -13.1875 
L 9.71875 -6.203125 
L 21.390625 -6.203125 
L 21.390625 69 
L 9.71875 69 
L 9.71875 75.984375 
z
" id="DejaVuSans-93"/>
      </defs>
      <use xlink:href="#DejaVuSans-66"/>
      <use x="68.603516" xlink:href="#DejaVuSans-101"/>
      <use x="130.126953" xlink:href="#DejaVuSans-97"/>
      <use x="191.40625" xlink:href="#DejaVuSans-109"/>
      <use x="288.818359" xlink:href="#DejaVuSans-32"/>
      <use x="320.605469" xlink:href="#DejaVuSans-76"/>
      <use x="374.568359" xlink:href="#DejaVuSans-101"/>
      <use x="436.091797" xlink:href="#DejaVuSans-110"/>
      <use x="499.470703" xlink:href="#DejaVuSans-103"/>
      <use x="562.947266" xlink:href="#DejaVuSans-116"/>
      <use x="602.15625" xlink:href="#DejaVuSans-104"/>
      <use x="665.535156" xlink:href="#DejaVuSans-32"/>
      <use x="697.322266" xlink:href="#DejaVuSans-91"/>
      <use x="736.335938" xlink:href="#DejaVuSans-109"/>
      <use x="833.748047" xlink:href="#DejaVuSans-93"/>
     </g>
    </g>
   </g>
   <g id="matplotlib.axis_2">
    <g id="ytick_1">
     <g id="line2d_9">
      <defs>
       <path d="M 0 0 
L -3.5 0 
" id="m06567bb34c" style="stroke:#000000;stroke-width:0.8;"/>
      </defs>
      <g>
       <use style="stroke:#000000;stroke-width:0.8;" x="80.218594" xlink:href="#m06567bb34c" y="450.444755"/>
      </g>
     </g>
     <g id="text_10">
      <!-- −3 -->
      <g transform="translate(36.363125 459.942802)scale(0.25 -0.25)">
       <defs>
        <path d="M 10.59375 35.5 
L 73.1875 35.5 
L 73.1875 27.203125 
L 10.59375 27.203125 
z
" id="DejaVuSans-8722"/>
        <path d="M 40.578125 39.3125 
Q 47.65625 37.796875 51.625 33 
Q 55.609375 28.21875 55.609375 21.1875 
Q 55.609375 10.40625 48.1875 4.484375 
Q 40.765625 -1.421875 27.09375 -1.421875 
Q 22.515625 -1.421875 17.65625 -0.515625 
Q 12.796875 0.390625 7.625 2.203125 
L 7.625 11.71875 
Q 11.71875 9.328125 16.59375 8.109375 
Q 21.484375 6.890625 26.8125 6.890625 
Q 36.078125 6.890625 40.9375 10.546875 
Q 45.796875 14.203125 45.796875 21.1875 
Q 45.796875 27.640625 41.28125 31.265625 
Q 36.765625 34.90625 28.71875 34.90625 
L 20.21875 34.90625 
L 20.21875 43.015625 
L 29.109375 43.015625 
Q 36.375 43.015625 40.234375 45.921875 
Q 44.09375 48.828125 44.09375 54.296875 
Q 44.09375 59.90625 40.109375 62.90625 
Q 36.140625 65.921875 28.71875 65.921875 
Q 24.65625 65.921875 20.015625 65.03125 
Q 15.375 64.15625 9.8125 62.3125 
L 9.8125 71.09375 
Q 15.4375 72.65625 20.34375 73.4375 
Q 25.25 74.21875 29.59375 74.21875 
Q 40.828125 74.21875 47.359375 69.109375 
Q 53.90625 64.015625 53.90625 55.328125 
Q 53.90625 49.265625 50.4375 45.09375 
Q 46.96875 40.921875 40.578125 39.3125 
z
" id="DejaVuSans-51"/>
       </defs>
       <use xlink:href="#DejaVuSans-8722"/>
       <use x="83.789062" xlink:href="#DejaVuSans-51"/>
      </g>
     </g>
    </g>
    <g id="ytick_2">
     <g id="line2d_10">
      <g>
       <use style="stroke:#000000;stroke-width:0.8;" x="80.218594" xlink:href="#m06567bb34c" y="368.009315"/>
      </g>
     </g>
     <g id="text_11">
      <!-- −2 -->
      <g transform="translate(36.363125 377.507362)scale(0.25 -0.25)">
       <use xlink:href="#DejaVuSans-8722"/>
       <use x="83.789062" xlink:href="#DejaVuSans-50"/>
      </g>
     </g>
    </g>
    <g id="ytick_3">
     <g id="line2d_11">
      <g>
       <use style="stroke:#000000;stroke-width:0.8;" x="80.218594" xlink:href="#m06567bb34c" y="285.573874"/>
      </g>
     </g>
     <g id="text_12">
      <!-- −1 -->
      <g transform="translate(36.363125 295.071921)scale(0.25 -0.25)">
       <use xlink:href="#DejaVuSans-8722"/>
       <use x="83.789062" xlink:href="#DejaVuSans-49"/>
      </g>
     </g>
    </g>
    <g id="ytick_4">
     <g id="line2d_12">
      <g>
       <use style="stroke:#000000;stroke-width:0.8;" x="80.218594" xlink:href="#m06567bb34c" y="203.138434"/>
      </g>
     </g>
     <g id="text_13">
      <!-- 0 -->
      <g transform="translate(57.312344 212.636481)scale(0.25 -0.25)">
       <use xlink:href="#DejaVuSans-48"/>
      </g>
     </g>
    </g>
    <g id="ytick_5">
     <g id="line2d_13">
      <g>
       <use style="stroke:#000000;stroke-width:0.8;" x="80.218594" xlink:href="#m06567bb34c" y="120.702993"/>
      </g>
     </g>
     <g id="text_14">
      <!-- 1 -->
      <g transform="translate(57.312344 130.20104)scale(0.25 -0.25)">
       <use xlink:href="#DejaVuSans-49"/>
      </g>
     </g>
    </g>
    <g id="ytick_6">
     <g id="line2d_14">
      <g>
       <use style="stroke:#000000;stroke-width:0.8;" x="80.218594" xlink:href="#m06567bb34c" y="38.267552"/>
      </g>
     </g>
     <g id="text_15">
      <!-- 2 -->
      <g transform="translate(57.312344 47.765599)scale(0.25 -0.25)">
       <use xlink:href="#DejaVuSans-50"/>
      </g>
     </g>
    </g>
    <g id="text_16">
     <!-- Amplitude -->
     <g transform="translate(26.955938 295.578906)rotate(-90)scale(0.26 -0.26)">
      <defs>
       <path d="M 34.1875 63.1875 
L 20.796875 26.90625 
L 47.609375 26.90625 
z
M 28.609375 72.90625 
L 39.796875 72.90625 
L 67.578125 0 
L 57.328125 0 
L 50.6875 18.703125 
L 17.828125 18.703125 
L 11.1875 0 
L 0.78125 0 
z
" id="DejaVuSans-65"/>
       <path d="M 18.109375 8.203125 
L 18.109375 -20.796875 
L 9.078125 -20.796875 
L 9.078125 54.6875 
L 18.109375 54.6875 
L 18.109375 46.390625 
Q 20.953125 51.265625 25.265625 53.625 
Q 29.59375 56 35.59375 56 
Q 45.5625 56 51.78125 48.09375 
Q 58.015625 40.1875 58.015625 27.296875 
Q 58.015625 14.40625 51.78125 6.484375 
Q 45.5625 -1.421875 35.59375 -1.421875 
Q 29.59375 -1.421875 25.265625 0.953125 
Q 20.953125 3.328125 18.109375 8.203125 
z
M 48.6875 27.296875 
Q 48.6875 37.203125 44.609375 42.84375 
Q 40.53125 48.484375 33.40625 48.484375 
Q 26.265625 48.484375 22.1875 42.84375 
Q 18.109375 37.203125 18.109375 27.296875 
Q 18.109375 17.390625 22.1875 11.75 
Q 26.265625 6.109375 33.40625 6.109375 
Q 40.53125 6.109375 44.609375 11.75 
Q 48.6875 17.390625 48.6875 27.296875 
z
" id="DejaVuSans-112"/>
       <path d="M 9.421875 75.984375 
L 18.40625 75.984375 
L 18.40625 0 
L 9.421875 0 
z
" id="DejaVuSans-108"/>
       <path d="M 9.421875 54.6875 
L 18.40625 54.6875 
L 18.40625 0 
L 9.421875 0 
z
M 9.421875 75.984375 
L 18.40625 75.984375 
L 18.40625 64.59375 
L 9.421875 64.59375 
z
" id="DejaVuSans-105"/>
       <path d="M 8.5 21.578125 
L 8.5 54.6875 
L 17.484375 54.6875 
L 17.484375 21.921875 
Q 17.484375 14.15625 20.5 10.265625 
Q 23.53125 6.390625 29.59375 6.390625 
Q 36.859375 6.390625 41.078125 11.03125 
Q 45.3125 15.671875 45.3125 23.6875 
L 45.3125 54.6875 
L 54.296875 54.6875 
L 54.296875 0 
L 45.3125 0 
L 45.3125 8.40625 
Q 42.046875 3.421875 37.71875 1 
Q 33.40625 -1.421875 27.6875 -1.421875 
Q 18.265625 -1.421875 13.375 4.4375 
Q 8.5 10.296875 8.5 21.578125 
z
M 31.109375 56 
z
" id="DejaVuSans-117"/>
       <path d="M 45.40625 46.390625 
L 45.40625 75.984375 
L 54.390625 75.984375 
L 54.390625 0 
L 45.40625 0 
L 45.40625 8.203125 
Q 42.578125 3.328125 38.25 0.953125 
Q 33.9375 -1.421875 27.875 -1.421875 
Q 17.96875 -1.421875 11.734375 6.484375 
Q 5.515625 14.40625 5.515625 27.296875 
Q 5.515625 40.1875 11.734375 48.09375 
Q 17.96875 56 27.875 56 
Q 33.9375 56 38.25 53.625 
Q 42.578125 51.265625 45.40625 46.390625 
z
M 14.796875 27.296875 
Q 14.796875 17.390625 18.875 11.75 
Q 22.953125 6.109375 30.078125 6.109375 
Q 37.203125 6.109375 41.296875 11.75 
Q 45.40625 17.390625 45.40625 27.296875 
Q 45.40625 37.203125 41.296875 42.84375 
Q 37.203125 48.484375 30.078125 48.484375 
Q 22.953125 48.484375 18.875 42.84375 
Q 14.796875 37.203125 14.796875 27.296875 
z
" id="DejaVuSans-100"/>
      </defs>
      <use xlink:href="#DejaVuSans-65"/>
      <use x="68.408203" xlink:href="#DejaVuSans-109"/>
      <use x="165.820312" xlink:href="#DejaVuSans-112"/>
      <use x="229.296875" xlink:href="#DejaVuSans-108"/>
      <use x="257.080078" xlink:href="#DejaVuSans-105"/>
      <use x="284.863281" xlink:href="#DejaVuSans-116"/>
      <use x="324.072266" xlink:href="#DejaVuSans-117"/>
      <use x="387.451172" xlink:href="#DejaVuSans-100"/>
      <use x="450.927734" xlink:href="#DejaVuSans-101"/>
     </g>
    </g>
   </g>
   <g id="line2d_15">
    <defs>
     <path d="M 0 -3 
L -3 3 
L 3 3 
z
" id="m5ce567db15" style="stroke:#000000;stroke-linejoin:miter;"/>
    </defs>
    <g clip-path="url(#pbc5eb099bf)">
     <use style="stroke:#000000;stroke-linejoin:miter;" x="118.264048" xlink:href="#m5ce567db15" y="203.138434"/>
     <use style="stroke:#000000;stroke-linejoin:miter;" x="123.336776" xlink:href="#m5ce567db15" y="207.078998"/>
     <use style="stroke:#000000;stroke-linejoin:miter;" x="128.409503" xlink:href="#m5ce567db15" y="217.696021"/>
     <use style="stroke:#000000;stroke-linejoin:miter;" x="133.48223" xlink:href="#m5ce567db15" y="233.31198"/>
     <use style="stroke:#000000;stroke-linejoin:miter;" x="138.554957" xlink:href="#m5ce567db15" y="252.279758"/>
     <use style="stroke:#000000;stroke-linejoin:miter;" x="143.627685" xlink:href="#m5ce567db15" y="273.006839"/>
     <use style="stroke:#000000;stroke-linejoin:miter;" x="148.700412" xlink:href="#m5ce567db15" y="293.984692"/>
     <use style="stroke:#000000;stroke-linejoin:miter;" x="153.773139" xlink:href="#m5ce567db15" y="313.820864"/>
     <use style="stroke:#000000;stroke-linejoin:miter;" x="158.845866" xlink:href="#m5ce567db15" y="331.271485"/>
     <use style="stroke:#000000;stroke-linejoin:miter;" x="163.918594" xlink:href="#m5ce567db15" y="345.271593"/>
     <use style="stroke:#000000;stroke-linejoin:miter;" x="168.991321" xlink:href="#m5ce567db15" y="354.962233"/>
     <use style="stroke:#000000;stroke-linejoin:miter;" x="174.064048" xlink:href="#m5ce567db15" y="359.711727"/>
     <use style="stroke:#000000;stroke-linejoin:miter;" x="179.136776" xlink:href="#m5ce567db15" y="359.130177"/>
     <use style="stroke:#000000;stroke-linejoin:miter;" x="184.209503" xlink:href="#m5ce567db15" y="353.07648"/>
     <use style="stroke:#000000;stroke-linejoin:miter;" x="189.28223" xlink:href="#m5ce567db15" y="341.656752"/>
     <use style="stroke:#000000;stroke-linejoin:miter;" x="194.354957" xlink:href="#m5ce567db15" y="325.214446"/>
     <use style="stroke:#000000;stroke-linejoin:miter;" x="199.427685" xlink:href="#m5ce567db15" y="304.31196"/>
     <use style="stroke:#000000;stroke-linejoin:miter;" x="204.500412" xlink:href="#m5ce567db15" y="279.704437"/>
     <use style="stroke:#000000;stroke-linejoin:miter;" x="209.573139" xlink:href="#m5ce567db15" y="252.306756"/>
     <use style="stroke:#000000;stroke-linejoin:miter;" x="214.645866" xlink:href="#m5ce567db15" y="223.154768"/>
     <use style="stroke:#000000;stroke-linejoin:miter;" x="219.718594" xlink:href="#m5ce567db15" y="193.362196"/>
     <use style="stroke:#000000;stroke-linejoin:miter;" x="224.791321" xlink:href="#m5ce567db15" y="164.074951"/>
     <use style="stroke:#000000;stroke-linejoin:miter;" x="229.864048" xlink:href="#m5ce567db15" y="136.424496"/>
     <use style="stroke:#000000;stroke-linejoin:miter;" x="234.936776" xlink:href="#m5ce567db15" y="111.482125"/>
     <use style="stroke:#000000;stroke-linejoin:miter;" x="240.009503" xlink:href="#m5ce567db15" y="90.215658"/>
     <use style="stroke:#000000;stroke-linejoin:miter;" x="245.08223" xlink:href="#m5ce567db15" y="73.450979"/>
     <use style="stroke:#000000;stroke-linejoin:miter;" x="250.154957" xlink:href="#m5ce567db15" y="61.838616"/>
     <use style="stroke:#000000;stroke-linejoin:miter;" x="255.227685" xlink:href="#m5ce567db15" y="55.827705"/>
     <use style="stroke:#000000;stroke-linejoin:miter;" x="260.300412" xlink:href="#m5ce567db15" y="55.648604"/>
     <use style="stroke:#000000;stroke-linejoin:miter;" x="265.373139" xlink:href="#m5ce567db15" y="61.303075"/>
     <use style="stroke:#000000;stroke-linejoin:miter;" x="270.445866" xlink:href="#m5ce567db15" y="72.564531"/>
     <use style="stroke:#000000;stroke-linejoin:miter;" x="275.518594" xlink:href="#m5ce567db15" y="88.986702"/>
     <use style="stroke:#000000;stroke-linejoin:miter;" x="280.591321" xlink:href="#m5ce567db15" y="109.92151"/>
     <use style="stroke:#000000;stroke-linejoin:miter;" x="285.664048" xlink:href="#m5ce567db15" y="134.544495"/>
     <use style="stroke:#000000;stroke-linejoin:miter;" x="290.736776" xlink:href="#m5ce567db15" y="161.887469"/>
     <use style="stroke:#000000;stroke-linejoin:miter;" x="295.809503" xlink:href="#m5ce567db15" y="190.876546"/>
     <use style="stroke:#000000;stroke-linejoin:miter;" x="300.88223" xlink:href="#m5ce567db15" y="220.374572"/>
     <use style="stroke:#000000;stroke-linejoin:miter;" x="305.954957" xlink:href="#m5ce567db15" y="249.225878"/>
     <use style="stroke:#000000;stroke-linejoin:miter;" x="311.027685" xlink:href="#m5ce567db15" y="276.301734"/>
     <use style="stroke:#000000;stroke-linejoin:miter;" x="316.100412" xlink:href="#m5ce567db15" y="300.544769"/>
     <use style="stroke:#000000;stroke-linejoin:miter;" x="321.173139" xlink:href="#m5ce567db15" y="321.010409"/>
     <use style="stroke:#000000;stroke-linejoin:miter;" x="326.245866" xlink:href="#m5ce567db15" y="336.903953"/>
     <use style="stroke:#000000;stroke-linejoin:miter;" x="331.318594" xlink:href="#m5ce567db15" y="347.611871"/>
     <use style="stroke:#000000;stroke-linejoin:miter;" x="336.391321" xlink:href="#m5ce567db15" y="352.72524"/>
     <use style="stroke:#000000;stroke-linejoin:miter;" x="341.464048" xlink:href="#m5ce567db15" y="352.056062"/>
     <use style="stroke:#000000;stroke-linejoin:miter;" x="346.536776" xlink:href="#m5ce567db15" y="345.644439"/>
     <use style="stroke:#000000;stroke-linejoin:miter;" x="351.609503" xlink:href="#m5ce567db15" y="333.756264"/>
     <use style="stroke:#000000;stroke-linejoin:miter;" x="356.68223" xlink:href="#m5ce567db15" y="316.873081"/>
     <use style="stroke:#000000;stroke-linejoin:miter;" x="361.754957" xlink:href="#m5ce567db15" y="295.67255"/>
     <use style="stroke:#000000;stroke-linejoin:miter;" x="366.827685" xlink:href="#m5ce567db15" y="271.001572"/>
     <use style="stroke:#000000;stroke-linejoin:miter;" x="371.900412" xlink:href="#m5ce567db15" y="243.842988"/>
     <use style="stroke:#000000;stroke-linejoin:miter;" x="376.973139" xlink:href="#m5ce567db15" y="215.276585"/>
     <use style="stroke:#000000;stroke-linejoin:miter;" x="382.045866" xlink:href="#m5ce567db15" y="186.436572"/>
     <use style="stroke:#000000;stroke-linejoin:miter;" x="387.118594" xlink:href="#m5ce567db15" y="158.46687"/>
     <use style="stroke:#000000;stroke-linejoin:miter;" x="392.191321" xlink:href="#m5ce567db15" y="132.476099"/>
     <use style="stroke:#000000;stroke-linejoin:miter;" x="397.264048" xlink:href="#m5ce567db15" y="109.493988"/>
     <use style="stroke:#000000;stroke-linejoin:miter;" x="402.336776" xlink:href="#m5ce567db15" y="90.430948"/>
     <use style="stroke:#000000;stroke-linejoin:miter;" x="407.409503" xlink:href="#m5ce567db15" y="76.042337"/>
     <use style="stroke:#000000;stroke-linejoin:miter;" x="412.48223" xlink:href="#m5ce567db15" y="66.898819"/>
     <use style="stroke:#000000;stroke-linejoin:miter;" x="417.554957" xlink:href="#m5ce567db15" y="63.364473"/>
     <use style="stroke:#000000;stroke-linejoin:miter;" x="422.627685" xlink:href="#m5ce567db15" y="65.581875"/>
     <use style="stroke:#000000;stroke-linejoin:miter;" x="427.700412" xlink:href="#m5ce567db15" y="73.467646"/>
     <use style="stroke:#000000;stroke-linejoin:miter;" x="432.773139" xlink:href="#m5ce567db15" y="86.715173"/>
     <use style="stroke:#000000;stroke-linejoin:miter;" x="437.845866" xlink:href="#m5ce567db15" y="104.807138"/>
     <use style="stroke:#000000;stroke-linejoin:miter;" x="442.918594" xlink:href="#m5ce567db15" y="127.036374"/>
     <use style="stroke:#000000;stroke-linejoin:miter;" x="447.991321" xlink:href="#m5ce567db15" y="152.533111"/>
     <use style="stroke:#000000;stroke-linejoin:miter;" x="453.064048" xlink:href="#m5ce567db15" y="180.300069"/>
     <use style="stroke:#000000;stroke-linejoin:miter;" x="458.136776" xlink:href="#m5ce567db15" y="209.251335"/>
     <use style="stroke:#000000;stroke-linejoin:miter;" x="463.209503" xlink:href="#m5ce567db15" y="238.25532"/>
     <use style="stroke:#000000;stroke-linejoin:miter;" x="468.28223" xlink:href="#m5ce567db15" y="266.179267"/>
     <use style="stroke:#000000;stroke-linejoin:miter;" x="473.354957" xlink:href="#m5ce567db15" y="291.933806"/>
     <use style="stroke:#000000;stroke-linejoin:miter;" x="478.427685" xlink:href="#m5ce567db15" y="314.515737"/>
     <use style="stroke:#000000;stroke-linejoin:miter;" x="483.500412" xlink:href="#m5ce567db15" y="333.047604"/>
     <use style="stroke:#000000;stroke-linejoin:miter;" x="488.573139" xlink:href="#m5ce567db15" y="346.811775"/>
     <use style="stroke:#000000;stroke-linejoin:miter;" x="493.645866" xlink:href="#m5ce567db15" y="355.278736"/>
     <use style="stroke:#000000;stroke-linejoin:miter;" x="498.718594" xlink:href="#m5ce567db15" y="358.128018"/>
     <use style="stroke:#000000;stroke-linejoin:miter;" x="503.791321" xlink:href="#m5ce567db15" y="355.260262"/>
     <use style="stroke:#000000;stroke-linejoin:miter;" x="508.864048" xlink:href="#m5ce567db15" y="346.801067"/>
     <use style="stroke:#000000;stroke-linejoin:miter;" x="513.936776" xlink:href="#m5ce567db15" y="333.096059"/>
     <use style="stroke:#000000;stroke-linejoin:miter;" x="519.009503" xlink:href="#m5ce567db15" y="314.697038"/>
     <use style="stroke:#000000;stroke-linejoin:miter;" x="524.08223" xlink:href="#m5ce567db15" y="292.340183"/>
     <use style="stroke:#000000;stroke-linejoin:miter;" x="529.154957" xlink:href="#m5ce567db15" y="266.91692"/>
     <use style="stroke:#000000;stroke-linejoin:miter;" x="534.227685" xlink:href="#m5ce567db15" y="239.438822"/>
     <use style="stroke:#000000;stroke-linejoin:miter;" x="539.300412" xlink:href="#m5ce567db15" y="210.997705"/>
     <use style="stroke:#000000;stroke-linejoin:miter;" x="544.373139" xlink:href="#m5ce567db15" y="182.722662"/>
     <use style="stroke:#000000;stroke-linejoin:miter;" x="549.445866" xlink:href="#m5ce567db15" y="155.735632"/>
     <use style="stroke:#000000;stroke-linejoin:miter;" x="554.518594" xlink:href="#m5ce567db15" y="131.107277"/>
     <use style="stroke:#000000;stroke-linejoin:miter;" x="559.591321" xlink:href="#m5ce567db15" y="109.814854"/>
     <use style="stroke:#000000;stroke-linejoin:miter;" x="564.664048" xlink:href="#m5ce567db15" y="92.703911"/>
     <use style="stroke:#000000;stroke-linejoin:miter;" x="569.736776" xlink:href="#m5ce567db15" y="80.454854"/>
     <use style="stroke:#000000;stroke-linejoin:miter;" x="574.809503" xlink:href="#m5ce567db15" y="73.556821"/>
     <use style="stroke:#000000;stroke-linejoin:miter;" x="579.88223" xlink:href="#m5ce567db15" y="72.287769"/>
     <use style="stroke:#000000;stroke-linejoin:miter;" x="584.954957" xlink:href="#m5ce567db15" y="76.70414"/>
     <use style="stroke:#000000;stroke-linejoin:miter;" x="590.027685" xlink:href="#m5ce567db15" y="86.638814"/>
     <use style="stroke:#000000;stroke-linejoin:miter;" x="595.100412" xlink:href="#m5ce567db15" y="101.70737"/>
     <use style="stroke:#000000;stroke-linejoin:miter;" x="600.173139" xlink:href="#m5ce567db15" y="121.323592"/>
     <use style="stroke:#000000;stroke-linejoin:miter;" x="605.245866" xlink:href="#m5ce567db15" y="144.722512"/>
     <use style="stroke:#000000;stroke-linejoin:miter;" x="610.318594" xlink:href="#m5ce567db15" y="170.990673"/>
     <use style="stroke:#000000;stroke-linejoin:miter;" x="615.391321" xlink:href="#m5ce567db15" y="199.101974"/>
     <use style="stroke:#000000;stroke-linejoin:miter;" x="620.464048" xlink:href="#m5ce567db15" y="227.95817"/>
     <use style="stroke:#000000;stroke-linejoin:miter;" x="625.536776" xlink:href="#m5ce567db15" y="256.432064"/>
     <use style="stroke:#000000;stroke-linejoin:miter;" x="630.609503" xlink:href="#m5ce567db15" y="283.411889"/>
     <use style="stroke:#000000;stroke-linejoin:miter;" x="635.68223" xlink:href="#m5ce567db15" y="307.845045"/>
     <use style="stroke:#000000;stroke-linejoin:miter;" x="640.754957" xlink:href="#m5ce567db15" y="328.779311"/>
     <use style="stroke:#000000;stroke-linejoin:miter;" x="645.827685" xlink:href="#m5ce567db15" y="345.400653"/>
     <use style="stroke:#000000;stroke-linejoin:miter;" x="650.900412" xlink:href="#m5ce567db15" y="357.064906"/>
     <use style="stroke:#000000;stroke-linejoin:miter;" x="655.973139" xlink:href="#m5ce567db15" y="363.323099"/>
     <use style="stroke:#000000;stroke-linejoin:miter;" x="661.045866" xlink:href="#m5ce567db15" y="363.93904"/>
     <use style="stroke:#000000;stroke-linejoin:miter;" x="666.118594" xlink:href="#m5ce567db15" y="358.898707"/>
     <use style="stroke:#000000;stroke-linejoin:miter;" x="671.191321" xlink:href="#m5ce567db15" y="348.410709"/>
     <use style="stroke:#000000;stroke-linejoin:miter;" x="676.264048" xlink:href="#m5ce567db15" y="332.897786"/>
     <use style="stroke:#000000;stroke-linejoin:miter;" x="681.336776" xlink:href="#m5ce567db15" y="312.980303"/>
     <use style="stroke:#000000;stroke-linejoin:miter;" x="686.409503" xlink:href="#m5ce567db15" y="289.451868"/>
     <use style="stroke:#000000;stroke-linejoin:miter;" x="691.48223" xlink:href="#m5ce567db15" y="263.247752"/>
     <use style="stroke:#000000;stroke-linejoin:miter;" x="696.554957" xlink:href="#m5ce567db15" y="235.40829"/>
     <use style="stroke:#000000;stroke-linejoin:miter;" x="701.627685" xlink:href="#m5ce567db15" y="207.037754"/>
     <use style="stroke:#000000;stroke-linejoin:miter;" x="706.700412" xlink:href="#m5ce567db15" y="179.260893"/>
     <use style="stroke:#000000;stroke-linejoin:miter;" x="711.773139" xlink:href="#m5ce567db15" y="153.178608"/>
     <use style="stroke:#000000;stroke-linejoin:miter;" x="716.845866" xlink:href="#m5ce567db15" y="129.824557"/>
     <use style="stroke:#000000;stroke-linejoin:miter;" x="721.918594" xlink:href="#m5ce567db15" y="110.124267"/>
     <use style="stroke:#000000;stroke-linejoin:miter;" x="726.991321" xlink:href="#m5ce567db15" y="94.859029"/>
     <use style="stroke:#000000;stroke-linejoin:miter;" x="732.064048" xlink:href="#m5ce567db15" y="84.634479"/>
     <use style="stroke:#000000;stroke-linejoin:miter;" x="737.136776" xlink:href="#m5ce567db15" y="79.85718"/>
     <use style="stroke:#000000;stroke-linejoin:miter;" x="742.209503" xlink:href="#m5ce567db15" y="80.717955"/>
     <use style="stroke:#000000;stroke-linejoin:miter;" x="747.28223" xlink:href="#m5ce567db15" y="87.184644"/>
     <use style="stroke:#000000;stroke-linejoin:miter;" x="752.354957" xlink:href="#m5ce567db15" y="99.002679"/>
     <use style="stroke:#000000;stroke-linejoin:miter;" x="757.427685" xlink:href="#m5ce567db15" y="115.705295"/>
     <use style="stroke:#000000;stroke-linejoin:miter;" x="762.500412" xlink:href="#m5ce567db15" y="136.631029"/>
     <use style="stroke:#000000;stroke-linejoin:miter;" x="767.573139" xlink:href="#m5ce567db15" y="160.949541"/>
     <use style="stroke:#000000;stroke-linejoin:miter;" x="772.645866" xlink:href="#m5ce567db15" y="187.6937"/>
     <use style="stroke:#000000;stroke-linejoin:miter;" x="777.718594" xlink:href="#m5ce567db15" y="215.79689"/>
     <use style="stroke:#000000;stroke-linejoin:miter;" x="782.791321" xlink:href="#m5ce567db15" y="244.134164"/>
     <use style="stroke:#000000;stroke-linejoin:miter;" x="787.864048" xlink:href="#m5ce567db15" y="271.565381"/>
     <use style="stroke:#000000;stroke-linejoin:miter;" x="792.936776" xlink:href="#m5ce567db15" y="296.97885"/>
     <use style="stroke:#000000;stroke-linejoin:miter;" x="798.009503" xlink:href="#m5ce567db15" y="319.333454"/>
     <use style="stroke:#000000;stroke-linejoin:miter;" x="803.08223" xlink:href="#m5ce567db15" y="337.69777"/>
     <use style="stroke:#000000;stroke-linejoin:miter;" x="808.154957" xlink:href="#m5ce567db15" y="351.284013"/>
     <use style="stroke:#000000;stroke-linejoin:miter;" x="813.227685" xlink:href="#m5ce567db15" y="359.476777"/>
     <use style="stroke:#000000;stroke-linejoin:miter;" x="818.300412" xlink:href="#m5ce567db15" y="361.85302"/>
     <use style="stroke:#000000;stroke-linejoin:miter;" x="823.373139" xlink:href="#m5ce567db15" y="358.194848"/>
     <use style="stroke:#000000;stroke-linejoin:miter;" x="828.445866" xlink:href="#m5ce567db15" y="348.492617"/>
     <use style="stroke:#000000;stroke-linejoin:miter;" x="833.518594" xlink:href="#m5ce567db15" y="332.939053"/>
     <use style="stroke:#000000;stroke-linejoin:miter;" x="838.591321" xlink:href="#m5ce567db15" y="311.913358"/>
     <use style="stroke:#000000;stroke-linejoin:miter;" x="843.664048" xlink:href="#m5ce567db15" y="285.957347"/>
     <use style="stroke:#000000;stroke-linejoin:miter;" x="848.736776" xlink:href="#m5ce567db15" y="255.741931"/>
     <use style="stroke:#000000;stroke-linejoin:miter;" x="853.809503" xlink:href="#m5ce567db15" y="222.026599"/>
     <use style="stroke:#000000;stroke-linejoin:miter;" x="858.88223" xlink:href="#m5ce567db15" y="185.612123"/>
     <use style="stroke:#000000;stroke-linejoin:miter;" x="863.954957" xlink:href="#m5ce567db15" y="147.287796"/>
     <use style="stroke:#000000;stroke-linejoin:miter;" x="869.027685" xlink:href="#m5ce567db15" y="107.774453"/>
     <use style="stroke:#000000;stroke-linejoin:miter;" x="874.100412" xlink:href="#m5ce567db15" y="67.664418"/>
     <use style="stroke:#000000;stroke-linejoin:miter;" x="879.173139" xlink:href="#m5ce567db15" y="27.36"/>
    </g>
   </g>
   <g id="line2d_16">
    <path clip-path="url(#pbc5eb099bf)" d="M 118.264048 203.138434 
L 123.336776 199.241588 
L 128.409503 188.756506 
L 133.48223 173.354817 
L 138.554957 154.678225 
L 148.700412 113.763803 
L 153.773139 94.41299 
L 158.845866 77.495584 
L 163.918594 64.064148 
L 168.991321 54.962602 
L 174.064048 50.80446 
L 179.136776 51.958812 
L 184.209503 58.543738 
L 189.28223 70.428604 
L 194.354957 87.244792 
L 199.427685 108.405472 
L 204.500412 133.133112 
L 209.573139 160.493552 
L 224.791321 247.556258 
L 229.864048 274.460858 
L 234.936776 298.497485 
L 240.009503 318.721943 
L 245.08223 334.340592 
L 250.154957 344.742867 
L 255.227685 349.52586 
L 260.300412 348.511051 
L 265.373139 341.751399 
L 270.445866 329.52928 
L 275.518594 312.345527 
L 280.591321 290.898736 
L 285.664048 266.057787 
L 290.736776 238.826479 
L 300.88223 181.638165 
L 305.954957 153.984411 
L 311.027685 128.454451 
L 316.100412 106.074286 
L 321.173139 87.742517 
L 326.245866 74.194609 
L 331.318594 65.973357 
L 336.391321 63.407393 
L 341.464048 66.598234 
L 346.536776 75.416089 
L 351.609503 89.505702 
L 356.68223 108.300458 
L 361.754957 131.045489 
L 366.827685 156.827849 
L 371.900412 184.61339 
L 382.045866 241.693627 
L 387.118594 268.762595 
L 392.191321 293.441452 
L 397.264048 314.779889 
L 402.336776 331.957558 
L 407.409503 344.316178 
L 412.48223 351.384926 
L 417.554957 352.898246 
L 422.627685 348.806479 
L 427.700412 339.277349 
L 432.773139 324.68945 
L 437.845866 305.617327 
L 442.918594 282.809124 
L 447.991321 257.157471 
L 453.064048 229.664761 
L 463.209503 173.478177 
L 468.28223 146.975445 
L 473.354957 122.928973 
L 478.427685 102.275859 
L 483.500412 85.821099 
L 488.573139 74.206426 
L 493.645866 67.88562 
L 498.718594 67.106784 
L 503.791321 71.903034 
L 508.864048 82.091329 
L 513.936776 97.279424 
L 519.009503 116.881591 
L 524.08223 140.141056 
L 529.154957 166.159676 
L 534.227685 193.93267 
L 544.373139 250.426345 
L 549.445866 276.966963 
L 554.518594 300.986326 
L 559.591321 321.559467 
L 564.664048 337.895195 
L 569.736776 349.367068 
L 574.809503 355.53741 
L 579.88223 356.173976 
L 584.954957 351.259274 
L 590.027685 340.990638 
L 595.100412 325.772627 
L 600.173139 306.201414 
L 605.245866 283.04093 
L 610.318594 257.193603 
L 620.464048 201.523713 
L 625.536776 173.861611 
L 630.609503 147.773399 
L 635.68223 124.309948 
L 640.754957 104.401921 
L 645.827685 88.839692 
L 650.900412 78.242591 
L 655.973139 73.034815 
L 661.045866 73.428939 
L 666.118594 79.417709 
L 671.191321 90.774402 
L 676.264048 107.062022 
L 681.336776 127.650083 
L 686.409503 151.739953 
L 691.48223 178.395807 
L 706.700412 263.142647 
L 711.773139 289.320169 
L 716.845866 312.717952 
L 721.918594 332.429668 
L 726.991321 347.693917 
L 732.064048 357.924476 
L 737.136776 362.733166 
L 742.209503 361.945364 
L 747.28223 355.607059 
L 752.354957 343.983118 
L 757.427685 327.547363 
L 762.500412 306.964544 
L 767.573139 283.06449 
L 772.645866 256.810245 
L 787.864048 174.751279 
L 792.936776 150.016327 
L 798.009503 128.354024 
L 803.08223 110.681226 
L 808.154957 97.77191 
L 813.227685 90.228927 
L 818.300412 88.464776 
L 823.373139 92.689097 
L 828.445866 102.905915 
L 833.518594 118.919939 
L 838.591321 140.351719 
L 843.664048 166.662482 
L 848.736776 197.186207 
L 853.809503 231.170294 
L 858.88223 267.822029 
L 863.954957 306.360688 
L 874.100412 386.375478 
L 879.173139 426.86892 
L 879.173139 426.86892 
" style="fill:none;stroke:#0000ff;stroke-linecap:square;stroke-width:3;"/>
   </g>
   <g id="line2d_17">
    <path clip-path="url(#pbc5eb099bf)" d="M 118.264048 203.138434 
L 123.336776 199.19247 
L 128.409503 188.566157 
L 133.48223 172.945154 
L 138.554957 153.984335 
L 148.700412 112.356707 
L 153.773139 92.601906 
L 158.845866 75.266156 
L 163.918594 61.415948 
L 168.991321 51.909867 
L 174.064048 47.377249 
L 179.136776 48.203669 
L 184.209503 54.524177 
L 189.28223 66.224709 
L 194.354957 82.952958 
L 199.427685 104.136848 
L 204.500412 129.011073 
L 209.573139 156.650923 
L 224.791321 245.37864 
L 229.864048 273.09823 
L 234.936776 298.057784 
L 240.009503 319.291129 
L 245.08223 335.977169 
L 250.154957 347.472855 
L 255.227685 353.338919 
L 260.300412 353.357843 
L 265.373139 347.542024 
L 270.445866 336.133768 
L 275.518594 319.595408 
L 280.591321 298.59132 
L 285.664048 273.961101 
L 290.736776 246.686599 
L 305.954957 160.104775 
L 311.027685 133.480155 
L 316.100412 109.785674 
L 321.173139 89.958213 
L 326.245866 74.780716 
L 331.318594 64.851123 
L 336.391321 60.559473 
L 341.464048 62.071912 
L 346.536776 69.324918 
L 351.609503 82.027783 
L 356.68223 99.674226 
L 361.754957 121.562843 
L 366.827685 146.824425 
L 371.900412 174.456813 
L 382.045866 232.384768 
L 387.118594 260.403779 
L 392.191321 286.318777 
L 397.264048 309.117457 
L 402.336776 327.910847 
L 407.409503 341.968143 
L 412.48223 350.746058 
L 417.554957 353.909455 
L 422.627685 351.345113 
L 427.700412 343.165684 
L 432.773139 329.704997 
L 437.845866 311.505193 
L 442.918594 289.294705 
L 447.991321 263.95976 
L 453.064048 236.509029 
L 463.209503 179.665402 
L 468.28223 152.529389 
L 473.354957 127.702364 
L 478.427685 106.168842 
L 483.500412 88.782861 
L 488.573139 76.234044 
L 493.645866 69.020761 
L 498.718594 67.430763 
L 503.791321 71.529395 
L 508.864048 81.157698 
L 513.936776 95.938826 
L 519.009503 115.292566 
L 524.08223 138.458993 
L 529.154957 164.52794 
L 534.227685 192.475459 
L 544.373139 249.585842 
L 549.445866 276.507583 
L 554.518594 300.914005 
L 559.591321 321.849639 
L 564.664048 338.496347 
L 569.736776 350.205815 
L 574.809503 356.524558 
L 579.88223 357.211822 
L 584.954957 352.249134 
L 590.027685 341.840745 
L 595.100412 326.405393 
L 600.173139 306.559522 
L 605.245866 283.093046 
L 610.318594 256.937665 
L 625.536776 172.981316 
L 630.609503 146.860212 
L 635.68223 123.443485 
L 640.754957 103.657289 
L 645.827685 88.285116 
L 650.900412 77.937119 
L 655.973139 73.026794 
L 661.045866 73.754501 
L 666.118594 80.100299 
L 671.191321 91.82435 
L 676.264048 108.476713 
L 681.336776 129.414869 
L 686.409503 153.8289 
L 691.48223 180.773402 
L 706.700412 266.10306 
L 711.773139 292.36714 
L 716.845866 315.796083 
L 721.918594 335.485615 
L 726.991321 350.677981 
L 732.064048 360.792414 
L 737.136776 365.447139 
L 742.209503 364.474978 
L 747.28223 357.929983 
L 752.354957 346.085585 
L 757.427685 329.423948 
L 762.500412 308.617894 
L 767.573139 284.505049 
L 772.645866 258.055317 
L 782.791321 202.461391 
L 787.864048 175.568964 
L 792.936776 150.757652 
L 798.009503 129.055789 
L 803.08223 111.380897 
L 808.154957 98.506501 
L 813.227685 91.03447 
L 818.300412 89.375242 
L 823.373139 93.735805 
L 828.445866 104.11723 
L 833.518594 120.320921 
L 838.591321 141.963967 
L 843.664048 168.50381 
L 848.736776 199.271132 
L 853.809503 233.509994 
L 858.88223 270.424664 
L 863.954957 309.231807 
L 874.100412 389.792138 
L 879.173139 430.56 
L 879.173139 430.56 
" style="fill:none;stroke:#ff0000;stroke-linecap:square;stroke-width:3;"/>
   </g>
   <g id="patch_3">
    <path d="M 80.218594 450.72 
L 80.218594 7.2 
" style="fill:none;stroke:#000000;stroke-linecap:square;stroke-linejoin:miter;stroke-width:0.8;"/>
   </g>
   <g id="patch_4">
    <path d="M 917.218594 450.72 
L 917.218594 7.2 
" style="fill:none;stroke:#000000;stroke-linecap:square;stroke-linejoin:miter;stroke-width:0.8;"/>
   </g>
   <g id="patch_5">
    <path d="M 80.218594 450.72 
L 917.218594 450.72 
" style="fill:none;stroke:#000000;stroke-linecap:square;stroke-linejoin:miter;stroke-width:0.8;"/>
   </g>
   <g id="patch_6">
    <path d="M 80.218594 7.2 
L 917.218594 7.2 
" style="fill:none;stroke:#000000;stroke-linecap:square;stroke-linejoin:miter;stroke-width:0.8;"/>
   </g>
   <g id="legend_1">
    <g id="patch_7">
     <path d="M 95.618594 439.72 
L 389.428594 439.72 
Q 393.828594 439.72 393.828594 435.32 
L 393.828594 340.644375 
Q 393.828594 336.244375 389.428594 336.244375 
L 95.618594 336.244375 
Q 91.218594 336.244375 91.218594 340.644375 
L 91.218594 435.32 
Q 91.218594 439.72 95.618594 439.72 
z
" style="fill:#ffffff;opacity:0.8;stroke:#cccccc;stroke-linejoin:miter;"/>
    </g>
    <g id="line2d_18"/>
    <g id="line2d_19">
     <g>
      <use style="stroke:#000000;stroke-linejoin:miter;" x="122.018594" xlink:href="#m5ce567db15" y="354.060938"/>
     </g>
    </g>
    <g id="text_17">
     <!-- Reference FEM -->
     <g transform="translate(161.618594 361.760938)scale(0.22 -0.22)">
      <defs>
       <path d="M 44.390625 34.1875 
Q 47.5625 33.109375 50.5625 29.59375 
Q 53.5625 26.078125 56.59375 19.921875 
L 66.609375 0 
L 56 0 
L 46.6875 18.703125 
Q 43.0625 26.03125 39.671875 28.421875 
Q 36.28125 30.8125 30.421875 30.8125 
L 19.671875 30.8125 
L 19.671875 0 
L 9.8125 0 
L 9.8125 72.90625 
L 32.078125 72.90625 
Q 44.578125 72.90625 50.734375 67.671875 
Q 56.890625 62.453125 56.890625 51.90625 
Q 56.890625 45.015625 53.6875 40.46875 
Q 50.484375 35.9375 44.390625 34.1875 
z
M 19.671875 64.796875 
L 19.671875 38.921875 
L 32.078125 38.921875 
Q 39.203125 38.921875 42.84375 42.21875 
Q 46.484375 45.515625 46.484375 51.90625 
Q 46.484375 58.296875 42.84375 61.546875 
Q 39.203125 64.796875 32.078125 64.796875 
z
" id="DejaVuSans-82"/>
       <path d="M 37.109375 75.984375 
L 37.109375 68.5 
L 28.515625 68.5 
Q 23.6875 68.5 21.796875 66.546875 
Q 19.921875 64.59375 19.921875 59.515625 
L 19.921875 54.6875 
L 34.71875 54.6875 
L 34.71875 47.703125 
L 19.921875 47.703125 
L 19.921875 0 
L 10.890625 0 
L 10.890625 47.703125 
L 2.296875 47.703125 
L 2.296875 54.6875 
L 10.890625 54.6875 
L 10.890625 58.5 
Q 10.890625 67.625 15.140625 71.796875 
Q 19.390625 75.984375 28.609375 75.984375 
z
" id="DejaVuSans-102"/>
       <path d="M 41.109375 46.296875 
Q 39.59375 47.171875 37.8125 47.578125 
Q 36.03125 48 33.890625 48 
Q 26.265625 48 22.1875 43.046875 
Q 18.109375 38.09375 18.109375 28.8125 
L 18.109375 0 
L 9.078125 0 
L 9.078125 54.6875 
L 18.109375 54.6875 
L 18.109375 46.1875 
Q 20.953125 51.171875 25.484375 53.578125 
Q 30.03125 56 36.53125 56 
Q 37.453125 56 38.578125 55.875 
Q 39.703125 55.765625 41.0625 55.515625 
z
" id="DejaVuSans-114"/>
       <path d="M 48.78125 52.59375 
L 48.78125 44.1875 
Q 44.96875 46.296875 41.140625 47.34375 
Q 37.3125 48.390625 33.40625 48.390625 
Q 24.65625 48.390625 19.8125 42.84375 
Q 14.984375 37.3125 14.984375 27.296875 
Q 14.984375 17.28125 19.8125 11.734375 
Q 24.65625 6.203125 33.40625 6.203125 
Q 37.3125 6.203125 41.140625 7.25 
Q 44.96875 8.296875 48.78125 10.40625 
L 48.78125 2.09375 
Q 45.015625 0.34375 40.984375 -0.53125 
Q 36.96875 -1.421875 32.421875 -1.421875 
Q 20.0625 -1.421875 12.78125 6.34375 
Q 5.515625 14.109375 5.515625 27.296875 
Q 5.515625 40.671875 12.859375 48.328125 
Q 20.21875 56 33.015625 56 
Q 37.15625 56 41.109375 55.140625 
Q 45.0625 54.296875 48.78125 52.59375 
z
" id="DejaVuSans-99"/>
       <path d="M 9.8125 72.90625 
L 51.703125 72.90625 
L 51.703125 64.59375 
L 19.671875 64.59375 
L 19.671875 43.109375 
L 48.578125 43.109375 
L 48.578125 34.8125 
L 19.671875 34.8125 
L 19.671875 0 
L 9.8125 0 
z
" id="DejaVuSans-70"/>
       <path d="M 9.8125 72.90625 
L 55.90625 72.90625 
L 55.90625 64.59375 
L 19.671875 64.59375 
L 19.671875 43.015625 
L 54.390625 43.015625 
L 54.390625 34.71875 
L 19.671875 34.71875 
L 19.671875 8.296875 
L 56.78125 8.296875 
L 56.78125 0 
L 9.8125 0 
z
" id="DejaVuSans-69"/>
       <path d="M 9.8125 72.90625 
L 24.515625 72.90625 
L 43.109375 23.296875 
L 61.8125 72.90625 
L 76.515625 72.90625 
L 76.515625 0 
L 66.890625 0 
L 66.890625 64.015625 
L 48.09375 14.015625 
L 38.1875 14.015625 
L 19.390625 64.015625 
L 19.390625 0 
L 9.8125 0 
z
" id="DejaVuSans-77"/>
      </defs>
      <use xlink:href="#DejaVuSans-82"/>
      <use x="64.982422" xlink:href="#DejaVuSans-101"/>
      <use x="126.505859" xlink:href="#DejaVuSans-102"/>
      <use x="161.710938" xlink:href="#DejaVuSans-101"/>
      <use x="223.234375" xlink:href="#DejaVuSans-114"/>
      <use x="262.097656" xlink:href="#DejaVuSans-101"/>
      <use x="323.621094" xlink:href="#DejaVuSans-110"/>
      <use x="387" xlink:href="#DejaVuSans-99"/>
      <use x="441.980469" xlink:href="#DejaVuSans-101"/>
      <use x="503.503906" xlink:href="#DejaVuSans-32"/>
      <use x="535.291016" xlink:href="#DejaVuSans-70"/>
      <use x="592.810547" xlink:href="#DejaVuSans-69"/>
      <use x="655.994141" xlink:href="#DejaVuSans-77"/>
     </g>
    </g>
    <g id="line2d_20">
     <path d="M 100.018594 386.352813 
L 144.018594 386.352813 
" style="fill:none;stroke:#0000ff;stroke-linecap:square;stroke-width:3;"/>
    </g>
    <g id="line2d_21"/>
    <g id="text_18">
     <!-- Initial mistuned FEM -->
     <g transform="translate(161.618594 394.052813)scale(0.22 -0.22)">
      <defs>
       <path d="M 9.8125 72.90625 
L 19.671875 72.90625 
L 19.671875 0 
L 9.8125 0 
z
" id="DejaVuSans-73"/>
       <path d="M 44.28125 53.078125 
L 44.28125 44.578125 
Q 40.484375 46.53125 36.375 47.5 
Q 32.28125 48.484375 27.875 48.484375 
Q 21.1875 48.484375 17.84375 46.4375 
Q 14.5 44.390625 14.5 40.28125 
Q 14.5 37.15625 16.890625 35.375 
Q 19.28125 33.59375 26.515625 31.984375 
L 29.59375 31.296875 
Q 39.15625 29.25 43.1875 25.515625 
Q 47.21875 21.78125 47.21875 15.09375 
Q 47.21875 7.46875 41.1875 3.015625 
Q 35.15625 -1.421875 24.609375 -1.421875 
Q 20.21875 -1.421875 15.453125 -0.5625 
Q 10.6875 0.296875 5.421875 2 
L 5.421875 11.28125 
Q 10.40625 8.6875 15.234375 7.390625 
Q 20.0625 6.109375 24.8125 6.109375 
Q 31.15625 6.109375 34.5625 8.28125 
Q 37.984375 10.453125 37.984375 14.40625 
Q 37.984375 18.0625 35.515625 20.015625 
Q 33.0625 21.96875 24.703125 23.78125 
L 21.578125 24.515625 
Q 13.234375 26.265625 9.515625 29.90625 
Q 5.8125 33.546875 5.8125 39.890625 
Q 5.8125 47.609375 11.28125 51.796875 
Q 16.75 56 26.8125 56 
Q 31.78125 56 36.171875 55.265625 
Q 40.578125 54.546875 44.28125 53.078125 
z
" id="DejaVuSans-115"/>
      </defs>
      <use xlink:href="#DejaVuSans-73"/>
      <use x="29.492188" xlink:href="#DejaVuSans-110"/>
      <use x="92.871094" xlink:href="#DejaVuSans-105"/>
      <use x="120.654297" xlink:href="#DejaVuSans-116"/>
      <use x="159.863281" xlink:href="#DejaVuSans-105"/>
      <use x="187.646484" xlink:href="#DejaVuSans-97"/>
      <use x="248.925781" xlink:href="#DejaVuSans-108"/>
      <use x="276.708984" xlink:href="#DejaVuSans-32"/>
      <use x="308.496094" xlink:href="#DejaVuSans-109"/>
      <use x="405.908203" xlink:href="#DejaVuSans-105"/>
      <use x="433.691406" xlink:href="#DejaVuSans-115"/>
      <use x="485.791016" xlink:href="#DejaVuSans-116"/>
      <use x="525" xlink:href="#DejaVuSans-117"/>
      <use x="588.378906" xlink:href="#DejaVuSans-110"/>
      <use x="651.757812" xlink:href="#DejaVuSans-101"/>
      <use x="713.28125" xlink:href="#DejaVuSans-100"/>
      <use x="776.757812" xlink:href="#DejaVuSans-32"/>
      <use x="808.544922" xlink:href="#DejaVuSans-70"/>
      <use x="866.064453" xlink:href="#DejaVuSans-69"/>
      <use x="929.248047" xlink:href="#DejaVuSans-77"/>
     </g>
    </g>
    <g id="line2d_22">
     <path d="M 100.018594 418.644688 
L 144.018594 418.644688 
" style="fill:none;stroke:#ff0000;stroke-linecap:square;stroke-width:3;"/>
    </g>
    <g id="line2d_23"/>
    <g id="text_19">
     <!-- Converged FEM -->
     <g transform="translate(161.618594 426.344688)scale(0.22 -0.22)">
      <defs>
       <path d="M 64.40625 67.28125 
L 64.40625 56.890625 
Q 59.421875 61.53125 53.78125 63.8125 
Q 48.140625 66.109375 41.796875 66.109375 
Q 29.296875 66.109375 22.65625 58.46875 
Q 16.015625 50.828125 16.015625 36.375 
Q 16.015625 21.96875 22.65625 14.328125 
Q 29.296875 6.6875 41.796875 6.6875 
Q 48.140625 6.6875 53.78125 8.984375 
Q 59.421875 11.28125 64.40625 15.921875 
L 64.40625 5.609375 
Q 59.234375 2.09375 53.4375 0.328125 
Q 47.65625 -1.421875 41.21875 -1.421875 
Q 24.65625 -1.421875 15.125 8.703125 
Q 5.609375 18.84375 5.609375 36.375 
Q 5.609375 53.953125 15.125 64.078125 
Q 24.65625 74.21875 41.21875 74.21875 
Q 47.75 74.21875 53.53125 72.484375 
Q 59.328125 70.75 64.40625 67.28125 
z
" id="DejaVuSans-67"/>
       <path d="M 30.609375 48.390625 
Q 23.390625 48.390625 19.1875 42.75 
Q 14.984375 37.109375 14.984375 27.296875 
Q 14.984375 17.484375 19.15625 11.84375 
Q 23.34375 6.203125 30.609375 6.203125 
Q 37.796875 6.203125 41.984375 11.859375 
Q 46.1875 17.53125 46.1875 27.296875 
Q 46.1875 37.015625 41.984375 42.703125 
Q 37.796875 48.390625 30.609375 48.390625 
z
M 30.609375 56 
Q 42.328125 56 49.015625 48.375 
Q 55.71875 40.765625 55.71875 27.296875 
Q 55.71875 13.875 49.015625 6.21875 
Q 42.328125 -1.421875 30.609375 -1.421875 
Q 18.84375 -1.421875 12.171875 6.21875 
Q 5.515625 13.875 5.515625 27.296875 
Q 5.515625 40.765625 12.171875 48.375 
Q 18.84375 56 30.609375 56 
z
" id="DejaVuSans-111"/>
       <path d="M 2.984375 54.6875 
L 12.5 54.6875 
L 29.59375 8.796875 
L 46.6875 54.6875 
L 56.203125 54.6875 
L 35.6875 0 
L 23.484375 0 
z
" id="DejaVuSans-118"/>
      </defs>
      <use xlink:href="#DejaVuSans-67"/>
      <use x="69.824219" xlink:href="#DejaVuSans-111"/>
      <use x="131.005859" xlink:href="#DejaVuSans-110"/>
      <use x="194.384766" xlink:href="#DejaVuSans-118"/>
      <use x="253.564453" xlink:href="#DejaVuSans-101"/>
      <use x="315.087891" xlink:href="#DejaVuSans-114"/>
      <use x="354.451172" xlink:href="#DejaVuSans-103"/>
      <use x="417.927734" xlink:href="#DejaVuSans-101"/>
      <use x="479.451172" xlink:href="#DejaVuSans-100"/>
      <use x="542.927734" xlink:href="#DejaVuSans-32"/>
      <use x="574.714844" xlink:href="#DejaVuSans-70"/>
      <use x="632.234375" xlink:href="#DejaVuSans-69"/>
      <use x="695.417969" xlink:href="#DejaVuSans-77"/>
     </g>
    </g>
   </g>
  </g>
 </g>
 <defs>
  <clipPath id="pbc5eb099bf">
   <rect height="443.52" width="837" x="80.218594" y="7.2"/>
  </clipPath>
 </defs>
</svg>
