<?xml version="1.0" encoding="utf-8" standalone="no"?>
<!DOCTYPE svg PUBLIC "-//W3C//DTD SVG 1.1//EN"
  "http://www.w3.org/Graphics/SVG/1.1/DTD/svg11.dtd">
<!-- Created with matplotlib (https://matplotlib.org/) -->
<svg height="518.278437pt" version="1.1" viewBox="0 0 948.270156 518.278437" width="948.270156pt" xmlns="http://www.w3.org/2000/svg" xmlns:xlink="http://www.w3.org/1999/xlink">
 <metadata>
  <rdf:RDF xmlns:cc="http://creativecommons.org/ns#" xmlns:dc="http://purl.org/dc/elements/1.1/" xmlns:rdf="http://www.w3.org/1999/02/22-rdf-syntax-ns#">
   <cc:Work>
    <dc:type rdf:resource="http://purl.org/dc/dcmitype/StillImage"/>
    <dc:date>2021-12-02T19:24:09.305322</dc:date>
    <dc:format>image/svg+xml</dc:format>
    <dc:creator>
     <cc:Agent>
      <dc:title>Matplotlib v3.3.4, https://matplotlib.org/</dc:title>
     </cc:Agent>
    </dc:creator>
   </cc:Work>
  </rdf:RDF>
 </metadata>
 <defs>
  <style type="text/css">*{stroke-linecap:butt;stroke-linejoin:round;}</style>
 </defs>
 <g id="figure_1">
  <g id="patch_1">
   <path d="M 0 518.278437 
L 948.270156 518.278437 
L 948.270156 0 
L 0 0 
z
" style="fill:#ffffff;"/>
  </g>
  <g id="axes_1">
   <g id="patch_2">
    <path d="M 104.070156 450.72 
L 941.070156 450.72 
L 941.070156 7.2 
L 104.070156 7.2 
z
" style="fill:#ffffff;"/>
   </g>
   <g id="matplotlib.axis_1">
    <g id="xtick_1">
     <g id="line2d_1">
      <defs>
       <path d="M 0 0 
L 0 3.5 
" id="m056ca4a353" style="stroke:#000000;stroke-width:0.8;"/>
      </defs>
      <g>
       <use style="stroke:#000000;stroke-width:0.8;" x="142.115611" xlink:href="#m056ca4a353" y="450.72"/>
      </g>
     </g>
     <g id="text_1">
      <!-- 0.0 -->
      <g transform="translate(122.236705 476.716094)scale(0.25 -0.25)">
       <defs>
        <path d="M 31.78125 66.40625 
Q 24.171875 66.40625 20.328125 58.90625 
Q 16.5 51.421875 16.5 36.375 
Q 16.5 21.390625 20.328125 13.890625 
Q 24.171875 6.390625 31.78125 6.390625 
Q 39.453125 6.390625 43.28125 13.890625 
Q 47.125 21.390625 47.125 36.375 
Q 47.125 51.421875 43.28125 58.90625 
Q 39.453125 66.40625 31.78125 66.40625 
z
M 31.78125 74.21875 
Q 44.046875 74.21875 50.515625 64.515625 
Q 56.984375 54.828125 56.984375 36.375 
Q 56.984375 17.96875 50.515625 8.265625 
Q 44.046875 -1.421875 31.78125 -1.421875 
Q 19.53125 -1.421875 13.0625 8.265625 
Q 6.59375 17.96875 6.59375 36.375 
Q 6.59375 54.828125 13.0625 64.515625 
Q 19.53125 74.21875 31.78125 74.21875 
z
" id="DejaVuSans-48"/>
        <path d="M 10.6875 12.40625 
L 21 12.40625 
L 21 0 
L 10.6875 0 
z
" id="DejaVuSans-46"/>
       </defs>
       <use xlink:href="#DejaVuSans-48"/>
       <use x="63.623047" xlink:href="#DejaVuSans-46"/>
       <use x="95.410156" xlink:href="#DejaVuSans-48"/>
      </g>
     </g>
    </g>
    <g id="xtick_2">
     <g id="line2d_2">
      <g>
       <use style="stroke:#000000;stroke-width:0.8;" x="243.570156" xlink:href="#m056ca4a353" y="450.72"/>
      </g>
     </g>
     <g id="text_2">
      <!-- 0.2 -->
      <g transform="translate(223.69125 476.716094)scale(0.25 -0.25)">
       <defs>
        <path d="M 19.1875 8.296875 
L 53.609375 8.296875 
L 53.609375 0 
L 7.328125 0 
L 7.328125 8.296875 
Q 12.9375 14.109375 22.625 23.890625 
Q 32.328125 33.6875 34.8125 36.53125 
Q 39.546875 41.84375 41.421875 45.53125 
Q 43.3125 49.21875 43.3125 52.78125 
Q 43.3125 58.59375 39.234375 62.25 
Q 35.15625 65.921875 28.609375 65.921875 
Q 23.96875 65.921875 18.8125 64.3125 
Q 13.671875 62.703125 7.8125 59.421875 
L 7.8125 69.390625 
Q 13.765625 71.78125 18.9375 73 
Q 24.125 74.21875 28.421875 74.21875 
Q 39.75 74.21875 46.484375 68.546875 
Q 53.21875 62.890625 53.21875 53.421875 
Q 53.21875 48.921875 51.53125 44.890625 
Q 49.859375 40.875 45.40625 35.40625 
Q 44.1875 33.984375 37.640625 27.21875 
Q 31.109375 20.453125 19.1875 8.296875 
z
" id="DejaVuSans-50"/>
       </defs>
       <use xlink:href="#DejaVuSans-48"/>
       <use x="63.623047" xlink:href="#DejaVuSans-46"/>
       <use x="95.410156" xlink:href="#DejaVuSans-50"/>
      </g>
     </g>
    </g>
    <g id="xtick_3">
     <g id="line2d_3">
      <g>
       <use style="stroke:#000000;stroke-width:0.8;" x="345.024702" xlink:href="#m056ca4a353" y="450.72"/>
      </g>
     </g>
     <g id="text_3">
      <!-- 0.4 -->
      <g transform="translate(325.145795 476.716094)scale(0.25 -0.25)">
       <defs>
        <path d="M 37.796875 64.3125 
L 12.890625 25.390625 
L 37.796875 25.390625 
z
M 35.203125 72.90625 
L 47.609375 72.90625 
L 47.609375 25.390625 
L 58.015625 25.390625 
L 58.015625 17.1875 
L 47.609375 17.1875 
L 47.609375 0 
L 37.796875 0 
L 37.796875 17.1875 
L 4.890625 17.1875 
L 4.890625 26.703125 
z
" id="DejaVuSans-52"/>
       </defs>
       <use xlink:href="#DejaVuSans-48"/>
       <use x="63.623047" xlink:href="#DejaVuSans-46"/>
       <use x="95.410156" xlink:href="#DejaVuSans-52"/>
      </g>
     </g>
    </g>
    <g id="xtick_4">
     <g id="line2d_4">
      <g>
       <use style="stroke:#000000;stroke-width:0.8;" x="446.479247" xlink:href="#m056ca4a353" y="450.72"/>
      </g>
     </g>
     <g id="text_4">
      <!-- 0.6 -->
      <g transform="translate(426.600341 476.716094)scale(0.25 -0.25)">
       <defs>
        <path d="M 33.015625 40.375 
Q 26.375 40.375 22.484375 35.828125 
Q 18.609375 31.296875 18.609375 23.390625 
Q 18.609375 15.53125 22.484375 10.953125 
Q 26.375 6.390625 33.015625 6.390625 
Q 39.65625 6.390625 43.53125 10.953125 
Q 47.40625 15.53125 47.40625 23.390625 
Q 47.40625 31.296875 43.53125 35.828125 
Q 39.65625 40.375 33.015625 40.375 
z
M 52.59375 71.296875 
L 52.59375 62.3125 
Q 48.875 64.0625 45.09375 64.984375 
Q 41.3125 65.921875 37.59375 65.921875 
Q 27.828125 65.921875 22.671875 59.328125 
Q 17.53125 52.734375 16.796875 39.40625 
Q 19.671875 43.65625 24.015625 45.921875 
Q 28.375 48.1875 33.59375 48.1875 
Q 44.578125 48.1875 50.953125 41.515625 
Q 57.328125 34.859375 57.328125 23.390625 
Q 57.328125 12.15625 50.6875 5.359375 
Q 44.046875 -1.421875 33.015625 -1.421875 
Q 20.359375 -1.421875 13.671875 8.265625 
Q 6.984375 17.96875 6.984375 36.375 
Q 6.984375 53.65625 15.1875 63.9375 
Q 23.390625 74.21875 37.203125 74.21875 
Q 40.921875 74.21875 44.703125 73.484375 
Q 48.484375 72.75 52.59375 71.296875 
z
" id="DejaVuSans-54"/>
       </defs>
       <use xlink:href="#DejaVuSans-48"/>
       <use x="63.623047" xlink:href="#DejaVuSans-46"/>
       <use x="95.410156" xlink:href="#DejaVuSans-54"/>
      </g>
     </g>
    </g>
    <g id="xtick_5">
     <g id="line2d_5">
      <g>
       <use style="stroke:#000000;stroke-width:0.8;" x="547.933793" xlink:href="#m056ca4a353" y="450.72"/>
      </g>
     </g>
     <g id="text_5">
      <!-- 0.8 -->
      <g transform="translate(528.054886 476.716094)scale(0.25 -0.25)">
       <defs>
        <path d="M 31.78125 34.625 
Q 24.75 34.625 20.71875 30.859375 
Q 16.703125 27.09375 16.703125 20.515625 
Q 16.703125 13.921875 20.71875 10.15625 
Q 24.75 6.390625 31.78125 6.390625 
Q 38.8125 6.390625 42.859375 10.171875 
Q 46.921875 13.96875 46.921875 20.515625 
Q 46.921875 27.09375 42.890625 30.859375 
Q 38.875 34.625 31.78125 34.625 
z
M 21.921875 38.8125 
Q 15.578125 40.375 12.03125 44.71875 
Q 8.5 49.078125 8.5 55.328125 
Q 8.5 64.0625 14.71875 69.140625 
Q 20.953125 74.21875 31.78125 74.21875 
Q 42.671875 74.21875 48.875 69.140625 
Q 55.078125 64.0625 55.078125 55.328125 
Q 55.078125 49.078125 51.53125 44.71875 
Q 48 40.375 41.703125 38.8125 
Q 48.828125 37.15625 52.796875 32.3125 
Q 56.78125 27.484375 56.78125 20.515625 
Q 56.78125 9.90625 50.3125 4.234375 
Q 43.84375 -1.421875 31.78125 -1.421875 
Q 19.734375 -1.421875 13.25 4.234375 
Q 6.78125 9.90625 6.78125 20.515625 
Q 6.78125 27.484375 10.78125 32.3125 
Q 14.796875 37.15625 21.921875 38.8125 
z
M 18.3125 54.390625 
Q 18.3125 48.734375 21.84375 45.5625 
Q 25.390625 42.390625 31.78125 42.390625 
Q 38.140625 42.390625 41.71875 45.5625 
Q 45.3125 48.734375 45.3125 54.390625 
Q 45.3125 60.0625 41.71875 63.234375 
Q 38.140625 66.40625 31.78125 66.40625 
Q 25.390625 66.40625 21.84375 63.234375 
Q 18.3125 60.0625 18.3125 54.390625 
z
" id="DejaVuSans-56"/>
       </defs>
       <use xlink:href="#DejaVuSans-48"/>
       <use x="63.623047" xlink:href="#DejaVuSans-46"/>
       <use x="95.410156" xlink:href="#DejaVuSans-56"/>
      </g>
     </g>
    </g>
    <g id="xtick_6">
     <g id="line2d_6">
      <g>
       <use style="stroke:#000000;stroke-width:0.8;" x="649.388338" xlink:href="#m056ca4a353" y="450.72"/>
      </g>
     </g>
     <g id="text_6">
      <!-- 1.0 -->
      <g transform="translate(629.509432 476.716094)scale(0.25 -0.25)">
       <defs>
        <path d="M 12.40625 8.296875 
L 28.515625 8.296875 
L 28.515625 63.921875 
L 10.984375 60.40625 
L 10.984375 69.390625 
L 28.421875 72.90625 
L 38.28125 72.90625 
L 38.28125 8.296875 
L 54.390625 8.296875 
L 54.390625 0 
L 12.40625 0 
z
" id="DejaVuSans-49"/>
       </defs>
       <use xlink:href="#DejaVuSans-49"/>
       <use x="63.623047" xlink:href="#DejaVuSans-46"/>
       <use x="95.410156" xlink:href="#DejaVuSans-48"/>
      </g>
     </g>
    </g>
    <g id="xtick_7">
     <g id="line2d_7">
      <g>
       <use style="stroke:#000000;stroke-width:0.8;" x="750.842884" xlink:href="#m056ca4a353" y="450.72"/>
      </g>
     </g>
     <g id="text_7">
      <!-- 1.2 -->
      <g transform="translate(730.963977 476.716094)scale(0.25 -0.25)">
       <use xlink:href="#DejaVuSans-49"/>
       <use x="63.623047" xlink:href="#DejaVuSans-46"/>
       <use x="95.410156" xlink:href="#DejaVuSans-50"/>
      </g>
     </g>
    </g>
    <g id="xtick_8">
     <g id="line2d_8">
      <g>
       <use style="stroke:#000000;stroke-width:0.8;" x="852.297429" xlink:href="#m056ca4a353" y="450.72"/>
      </g>
     </g>
     <g id="text_8">
      <!-- 1.4 -->
      <g transform="translate(832.418523 476.716094)scale(0.25 -0.25)">
       <use xlink:href="#DejaVuSans-49"/>
       <use x="63.623047" xlink:href="#DejaVuSans-46"/>
       <use x="95.410156" xlink:href="#DejaVuSans-52"/>
      </g>
     </g>
    </g>
    <g id="text_9">
     <!-- Beam Length [m] -->
     <g transform="translate(409.110625 505.67125)scale(0.26 -0.26)">
      <defs>
       <path d="M 19.671875 34.8125 
L 19.671875 8.109375 
L 35.5 8.109375 
Q 43.453125 8.109375 47.28125 11.40625 
Q 51.125 14.703125 51.125 21.484375 
Q 51.125 28.328125 47.28125 31.5625 
Q 43.453125 34.8125 35.5 34.8125 
z
M 19.671875 64.796875 
L 19.671875 42.828125 
L 34.28125 42.828125 
Q 41.5 42.828125 45.03125 45.53125 
Q 48.578125 48.25 48.578125 53.8125 
Q 48.578125 59.328125 45.03125 62.0625 
Q 41.5 64.796875 34.28125 64.796875 
z
M 9.8125 72.90625 
L 35.015625 72.90625 
Q 46.296875 72.90625 52.390625 68.21875 
Q 58.5 63.53125 58.5 54.890625 
Q 58.5 48.1875 55.375 44.234375 
Q 52.25 40.28125 46.1875 39.3125 
Q 53.46875 37.75 57.5 32.78125 
Q 61.53125 27.828125 61.53125 20.40625 
Q 61.53125 10.640625 54.890625 5.3125 
Q 48.25 0 35.984375 0 
L 9.8125 0 
z
" id="DejaVuSans-66"/>
       <path d="M 56.203125 29.59375 
L 56.203125 25.203125 
L 14.890625 25.203125 
Q 15.484375 15.921875 20.484375 11.0625 
Q 25.484375 6.203125 34.421875 6.203125 
Q 39.59375 6.203125 44.453125 7.46875 
Q 49.3125 8.734375 54.109375 11.28125 
L 54.109375 2.78125 
Q 49.265625 0.734375 44.1875 -0.34375 
Q 39.109375 -1.421875 33.890625 -1.421875 
Q 20.796875 -1.421875 13.15625 6.1875 
Q 5.515625 13.8125 5.515625 26.8125 
Q 5.515625 40.234375 12.765625 48.109375 
Q 20.015625 56 32.328125 56 
Q 43.359375 56 49.78125 48.890625 
Q 56.203125 41.796875 56.203125 29.59375 
z
M 47.21875 32.234375 
Q 47.125 39.59375 43.09375 43.984375 
Q 39.0625 48.390625 32.421875 48.390625 
Q 24.90625 48.390625 20.390625 44.140625 
Q 15.875 39.890625 15.1875 32.171875 
z
" id="DejaVuSans-101"/>
       <path d="M 34.28125 27.484375 
Q 23.390625 27.484375 19.1875 25 
Q 14.984375 22.515625 14.984375 16.5 
Q 14.984375 11.71875 18.140625 8.90625 
Q 21.296875 6.109375 26.703125 6.109375 
Q 34.1875 6.109375 38.703125 11.40625 
Q 43.21875 16.703125 43.21875 25.484375 
L 43.21875 27.484375 
z
M 52.203125 31.203125 
L 52.203125 0 
L 43.21875 0 
L 43.21875 8.296875 
Q 40.140625 3.328125 35.546875 0.953125 
Q 30.953125 -1.421875 24.3125 -1.421875 
Q 15.921875 -1.421875 10.953125 3.296875 
Q 6 8.015625 6 15.921875 
Q 6 25.140625 12.171875 29.828125 
Q 18.359375 34.515625 30.609375 34.515625 
L 43.21875 34.515625 
L 43.21875 35.40625 
Q 43.21875 41.609375 39.140625 45 
Q 35.0625 48.390625 27.6875 48.390625 
Q 23 48.390625 18.546875 47.265625 
Q 14.109375 46.140625 10.015625 43.890625 
L 10.015625 52.203125 
Q 14.9375 54.109375 19.578125 55.046875 
Q 24.21875 56 28.609375 56 
Q 40.484375 56 46.34375 49.84375 
Q 52.203125 43.703125 52.203125 31.203125 
z
" id="DejaVuSans-97"/>
       <path d="M 52 44.1875 
Q 55.375 50.25 60.0625 53.125 
Q 64.75 56 71.09375 56 
Q 79.640625 56 84.28125 50.015625 
Q 88.921875 44.046875 88.921875 33.015625 
L 88.921875 0 
L 79.890625 0 
L 79.890625 32.71875 
Q 79.890625 40.578125 77.09375 44.375 
Q 74.3125 48.1875 68.609375 48.1875 
Q 61.625 48.1875 57.5625 43.546875 
Q 53.515625 38.921875 53.515625 30.90625 
L 53.515625 0 
L 44.484375 0 
L 44.484375 32.71875 
Q 44.484375 40.625 41.703125 44.40625 
Q 38.921875 48.1875 33.109375 48.1875 
Q 26.21875 48.1875 22.15625 43.53125 
Q 18.109375 38.875 18.109375 30.90625 
L 18.109375 0 
L 9.078125 0 
L 9.078125 54.6875 
L 18.109375 54.6875 
L 18.109375 46.1875 
Q 21.1875 51.21875 25.484375 53.609375 
Q 29.78125 56 35.6875 56 
Q 41.65625 56 45.828125 52.96875 
Q 50 49.953125 52 44.1875 
z
" id="DejaVuSans-109"/>
       <path id="DejaVuSans-32"/>
       <path d="M 9.8125 72.90625 
L 19.671875 72.90625 
L 19.671875 8.296875 
L 55.171875 8.296875 
L 55.171875 0 
L 9.8125 0 
z
" id="DejaVuSans-76"/>
       <path d="M 54.890625 33.015625 
L 54.890625 0 
L 45.90625 0 
L 45.90625 32.71875 
Q 45.90625 40.484375 42.875 44.328125 
Q 39.84375 48.1875 33.796875 48.1875 
Q 26.515625 48.1875 22.3125 43.546875 
Q 18.109375 38.921875 18.109375 30.90625 
L 18.109375 0 
L 9.078125 0 
L 9.078125 54.6875 
L 18.109375 54.6875 
L 18.109375 46.1875 
Q 21.34375 51.125 25.703125 53.5625 
Q 30.078125 56 35.796875 56 
Q 45.21875 56 50.046875 50.171875 
Q 54.890625 44.34375 54.890625 33.015625 
z
" id="DejaVuSans-110"/>
       <path d="M 45.40625 27.984375 
Q 45.40625 37.75 41.375 43.109375 
Q 37.359375 48.484375 30.078125 48.484375 
Q 22.859375 48.484375 18.828125 43.109375 
Q 14.796875 37.75 14.796875 27.984375 
Q 14.796875 18.265625 18.828125 12.890625 
Q 22.859375 7.515625 30.078125 7.515625 
Q 37.359375 7.515625 41.375 12.890625 
Q 45.40625 18.265625 45.40625 27.984375 
z
M 54.390625 6.78125 
Q 54.390625 -7.171875 48.1875 -13.984375 
Q 42 -20.796875 29.203125 -20.796875 
Q 24.46875 -20.796875 20.265625 -20.09375 
Q 16.0625 -19.390625 12.109375 -17.921875 
L 12.109375 -9.1875 
Q 16.0625 -11.328125 19.921875 -12.34375 
Q 23.78125 -13.375 27.78125 -13.375 
Q 36.625 -13.375 41.015625 -8.765625 
Q 45.40625 -4.15625 45.40625 5.171875 
L 45.40625 9.625 
Q 42.625 4.78125 38.28125 2.390625 
Q 33.9375 0 27.875 0 
Q 17.828125 0 11.671875 7.65625 
Q 5.515625 15.328125 5.515625 27.984375 
Q 5.515625 40.671875 11.671875 48.328125 
Q 17.828125 56 27.875 56 
Q 33.9375 56 38.28125 53.609375 
Q 42.625 51.21875 45.40625 46.390625 
L 45.40625 54.6875 
L 54.390625 54.6875 
z
" id="DejaVuSans-103"/>
       <path d="M 18.3125 70.21875 
L 18.3125 54.6875 
L 36.8125 54.6875 
L 36.8125 47.703125 
L 18.3125 47.703125 
L 18.3125 18.015625 
Q 18.3125 11.328125 20.140625 9.421875 
Q 21.96875 7.515625 27.59375 7.515625 
L 36.8125 7.515625 
L 36.8125 0 
L 27.59375 0 
Q 17.1875 0 13.234375 3.875 
Q 9.28125 7.765625 9.28125 18.015625 
L 9.28125 47.703125 
L 2.6875 47.703125 
L 2.6875 54.6875 
L 9.28125 54.6875 
L 9.28125 70.21875 
z
" id="DejaVuSans-116"/>
       <path d="M 54.890625 33.015625 
L 54.890625 0 
L 45.90625 0 
L 45.90625 32.71875 
Q 45.90625 40.484375 42.875 44.328125 
Q 39.84375 48.1875 33.796875 48.1875 
Q 26.515625 48.1875 22.3125 43.546875 
Q 18.109375 38.921875 18.109375 30.90625 
L 18.109375 0 
L 9.078125 0 
L 9.078125 75.984375 
L 18.109375 75.984375 
L 18.109375 46.1875 
Q 21.34375 51.125 25.703125 53.5625 
Q 30.078125 56 35.796875 56 
Q 45.21875 56 50.046875 50.171875 
Q 54.890625 44.34375 54.890625 33.015625 
z
" id="DejaVuSans-104"/>
       <path d="M 8.59375 75.984375 
L 29.296875 75.984375 
L 29.296875 69 
L 17.578125 69 
L 17.578125 -6.203125 
L 29.296875 -6.203125 
L 29.296875 -13.1875 
L 8.59375 -13.1875 
z
" id="DejaVuSans-91"/>
       <path d="M 30.421875 75.984375 
L 30.421875 -13.1875 
L 9.71875 -13.1875 
L 9.71875 -6.203125 
L 21.390625 -6.203125 
L 21.390625 69 
L 9.71875 69 
L 9.71875 75.984375 
z
" id="DejaVuSans-93"/>
      </defs>
      <use xlink:href="#DejaVuSans-66"/>
      <use x="68.603516" xlink:href="#DejaVuSans-101"/>
      <use x="130.126953" xlink:href="#DejaVuSans-97"/>
      <use x="191.40625" xlink:href="#DejaVuSans-109"/>
      <use x="288.818359" xlink:href="#DejaVuSans-32"/>
      <use x="320.605469" xlink:href="#DejaVuSans-76"/>
      <use x="374.568359" xlink:href="#DejaVuSans-101"/>
      <use x="436.091797" xlink:href="#DejaVuSans-110"/>
      <use x="499.470703" xlink:href="#DejaVuSans-103"/>
      <use x="562.947266" xlink:href="#DejaVuSans-116"/>
      <use x="602.15625" xlink:href="#DejaVuSans-104"/>
      <use x="665.535156" xlink:href="#DejaVuSans-32"/>
      <use x="697.322266" xlink:href="#DejaVuSans-91"/>
      <use x="736.335938" xlink:href="#DejaVuSans-109"/>
      <use x="833.748047" xlink:href="#DejaVuSans-93"/>
     </g>
    </g>
   </g>
   <g id="matplotlib.axis_2">
    <g id="ytick_1">
     <g id="line2d_9">
      <defs>
       <path d="M 0 0 
L -3.5 0 
" id="m9cd820325d" style="stroke:#000000;stroke-width:0.8;"/>
      </defs>
      <g>
       <use style="stroke:#000000;stroke-width:0.8;" x="104.070156" xlink:href="#m9cd820325d" y="439.338626"/>
      </g>
     </g>
     <g id="text_10">
      <!-- −2.0 -->
      <g transform="translate(36.363125 448.836673)scale(0.25 -0.25)">
       <defs>
        <path d="M 10.59375 35.5 
L 73.1875 35.5 
L 73.1875 27.203125 
L 10.59375 27.203125 
z
" id="DejaVuSans-8722"/>
       </defs>
       <use xlink:href="#DejaVuSans-8722"/>
       <use x="83.789062" xlink:href="#DejaVuSans-50"/>
       <use x="147.412109" xlink:href="#DejaVuSans-46"/>
       <use x="179.199219" xlink:href="#DejaVuSans-48"/>
      </g>
     </g>
    </g>
    <g id="ytick_2">
     <g id="line2d_10">
      <g>
       <use style="stroke:#000000;stroke-width:0.8;" x="104.070156" xlink:href="#m9cd820325d" y="389.693047"/>
      </g>
     </g>
     <g id="text_11">
      <!-- −1.5 -->
      <g transform="translate(36.363125 399.191094)scale(0.25 -0.25)">
       <defs>
        <path d="M 10.796875 72.90625 
L 49.515625 72.90625 
L 49.515625 64.59375 
L 19.828125 64.59375 
L 19.828125 46.734375 
Q 21.96875 47.46875 24.109375 47.828125 
Q 26.265625 48.1875 28.421875 48.1875 
Q 40.625 48.1875 47.75 41.5 
Q 54.890625 34.8125 54.890625 23.390625 
Q 54.890625 11.625 47.5625 5.09375 
Q 40.234375 -1.421875 26.90625 -1.421875 
Q 22.3125 -1.421875 17.546875 -0.640625 
Q 12.796875 0.140625 7.71875 1.703125 
L 7.71875 11.625 
Q 12.109375 9.234375 16.796875 8.0625 
Q 21.484375 6.890625 26.703125 6.890625 
Q 35.15625 6.890625 40.078125 11.328125 
Q 45.015625 15.765625 45.015625 23.390625 
Q 45.015625 31 40.078125 35.4375 
Q 35.15625 39.890625 26.703125 39.890625 
Q 22.75 39.890625 18.8125 39.015625 
Q 14.890625 38.140625 10.796875 36.28125 
z
" id="DejaVuSans-53"/>
       </defs>
       <use xlink:href="#DejaVuSans-8722"/>
       <use x="83.789062" xlink:href="#DejaVuSans-49"/>
       <use x="147.412109" xlink:href="#DejaVuSans-46"/>
       <use x="179.199219" xlink:href="#DejaVuSans-53"/>
      </g>
     </g>
    </g>
    <g id="ytick_3">
     <g id="line2d_11">
      <g>
       <use style="stroke:#000000;stroke-width:0.8;" x="104.070156" xlink:href="#m9cd820325d" y="340.047468"/>
      </g>
     </g>
     <g id="text_12">
      <!-- −1.0 -->
      <g transform="translate(36.363125 349.545515)scale(0.25 -0.25)">
       <use xlink:href="#DejaVuSans-8722"/>
       <use x="83.789062" xlink:href="#DejaVuSans-49"/>
       <use x="147.412109" xlink:href="#DejaVuSans-46"/>
       <use x="179.199219" xlink:href="#DejaVuSans-48"/>
      </g>
     </g>
    </g>
    <g id="ytick_4">
     <g id="line2d_12">
      <g>
       <use style="stroke:#000000;stroke-width:0.8;" x="104.070156" xlink:href="#m9cd820325d" y="290.401889"/>
      </g>
     </g>
     <g id="text_13">
      <!-- −0.5 -->
      <g transform="translate(36.363125 299.899935)scale(0.25 -0.25)">
       <use xlink:href="#DejaVuSans-8722"/>
       <use x="83.789062" xlink:href="#DejaVuSans-48"/>
       <use x="147.412109" xlink:href="#DejaVuSans-46"/>
       <use x="179.199219" xlink:href="#DejaVuSans-53"/>
      </g>
     </g>
    </g>
    <g id="ytick_5">
     <g id="line2d_13">
      <g>
       <use style="stroke:#000000;stroke-width:0.8;" x="104.070156" xlink:href="#m9cd820325d" y="240.756309"/>
      </g>
     </g>
     <g id="text_14">
      <!-- 0.0 -->
      <g transform="translate(57.312344 250.254356)scale(0.25 -0.25)">
       <use xlink:href="#DejaVuSans-48"/>
       <use x="63.623047" xlink:href="#DejaVuSans-46"/>
       <use x="95.410156" xlink:href="#DejaVuSans-48"/>
      </g>
     </g>
    </g>
    <g id="ytick_6">
     <g id="line2d_14">
      <g>
       <use style="stroke:#000000;stroke-width:0.8;" x="104.070156" xlink:href="#m9cd820325d" y="191.11073"/>
      </g>
     </g>
     <g id="text_15">
      <!-- 0.5 -->
      <g transform="translate(57.312344 200.608777)scale(0.25 -0.25)">
       <use xlink:href="#DejaVuSans-48"/>
       <use x="63.623047" xlink:href="#DejaVuSans-46"/>
       <use x="95.410156" xlink:href="#DejaVuSans-53"/>
      </g>
     </g>
    </g>
    <g id="ytick_7">
     <g id="line2d_15">
      <g>
       <use style="stroke:#000000;stroke-width:0.8;" x="104.070156" xlink:href="#m9cd820325d" y="141.465151"/>
      </g>
     </g>
     <g id="text_16">
      <!-- 1.0 -->
      <g transform="translate(57.312344 150.963198)scale(0.25 -0.25)">
       <use xlink:href="#DejaVuSans-49"/>
       <use x="63.623047" xlink:href="#DejaVuSans-46"/>
       <use x="95.410156" xlink:href="#DejaVuSans-48"/>
      </g>
     </g>
    </g>
    <g id="ytick_8">
     <g id="line2d_16">
      <g>
       <use style="stroke:#000000;stroke-width:0.8;" x="104.070156" xlink:href="#m9cd820325d" y="91.819572"/>
      </g>
     </g>
     <g id="text_17">
      <!-- 1.5 -->
      <g transform="translate(57.312344 101.317619)scale(0.25 -0.25)">
       <use xlink:href="#DejaVuSans-49"/>
       <use x="63.623047" xlink:href="#DejaVuSans-46"/>
       <use x="95.410156" xlink:href="#DejaVuSans-53"/>
      </g>
     </g>
    </g>
    <g id="ytick_9">
     <g id="line2d_17">
      <g>
       <use style="stroke:#000000;stroke-width:0.8;" x="104.070156" xlink:href="#m9cd820325d" y="42.173993"/>
      </g>
     </g>
     <g id="text_18">
      <!-- 2.0 -->
      <g transform="translate(57.312344 51.672039)scale(0.25 -0.25)">
       <use xlink:href="#DejaVuSans-50"/>
       <use x="63.623047" xlink:href="#DejaVuSans-46"/>
       <use x="95.410156" xlink:href="#DejaVuSans-48"/>
      </g>
     </g>
    </g>
    <g id="text_19">
     <!-- Amplitude -->
     <g transform="translate(26.955938 295.578906)rotate(-90)scale(0.26 -0.26)">
      <defs>
       <path d="M 34.1875 63.1875 
L 20.796875 26.90625 
L 47.609375 26.90625 
z
M 28.609375 72.90625 
L 39.796875 72.90625 
L 67.578125 0 
L 57.328125 0 
L 50.6875 18.703125 
L 17.828125 18.703125 
L 11.1875 0 
L 0.78125 0 
z
" id="DejaVuSans-65"/>
       <path d="M 18.109375 8.203125 
L 18.109375 -20.796875 
L 9.078125 -20.796875 
L 9.078125 54.6875 
L 18.109375 54.6875 
L 18.109375 46.390625 
Q 20.953125 51.265625 25.265625 53.625 
Q 29.59375 56 35.59375 56 
Q 45.5625 56 51.78125 48.09375 
Q 58.015625 40.1875 58.015625 27.296875 
Q 58.015625 14.40625 51.78125 6.484375 
Q 45.5625 -1.421875 35.59375 -1.421875 
Q 29.59375 -1.421875 25.265625 0.953125 
Q 20.953125 3.328125 18.109375 8.203125 
z
M 48.6875 27.296875 
Q 48.6875 37.203125 44.609375 42.84375 
Q 40.53125 48.484375 33.40625 48.484375 
Q 26.265625 48.484375 22.1875 42.84375 
Q 18.109375 37.203125 18.109375 27.296875 
Q 18.109375 17.390625 22.1875 11.75 
Q 26.265625 6.109375 33.40625 6.109375 
Q 40.53125 6.109375 44.609375 11.75 
Q 48.6875 17.390625 48.6875 27.296875 
z
" id="DejaVuSans-112"/>
       <path d="M 9.421875 75.984375 
L 18.40625 75.984375 
L 18.40625 0 
L 9.421875 0 
z
" id="DejaVuSans-108"/>
       <path d="M 9.421875 54.6875 
L 18.40625 54.6875 
L 18.40625 0 
L 9.421875 0 
z
M 9.421875 75.984375 
L 18.40625 75.984375 
L 18.40625 64.59375 
L 9.421875 64.59375 
z
" id="DejaVuSans-105"/>
       <path d="M 8.5 21.578125 
L 8.5 54.6875 
L 17.484375 54.6875 
L 17.484375 21.921875 
Q 17.484375 14.15625 20.5 10.265625 
Q 23.53125 6.390625 29.59375 6.390625 
Q 36.859375 6.390625 41.078125 11.03125 
Q 45.3125 15.671875 45.3125 23.6875 
L 45.3125 54.6875 
L 54.296875 54.6875 
L 54.296875 0 
L 45.3125 0 
L 45.3125 8.40625 
Q 42.046875 3.421875 37.71875 1 
Q 33.40625 -1.421875 27.6875 -1.421875 
Q 18.265625 -1.421875 13.375 4.4375 
Q 8.5 10.296875 8.5 21.578125 
z
M 31.109375 56 
z
" id="DejaVuSans-117"/>
       <path d="M 45.40625 46.390625 
L 45.40625 75.984375 
L 54.390625 75.984375 
L 54.390625 0 
L 45.40625 0 
L 45.40625 8.203125 
Q 42.578125 3.328125 38.25 0.953125 
Q 33.9375 -1.421875 27.875 -1.421875 
Q 17.96875 -1.421875 11.734375 6.484375 
Q 5.515625 14.40625 5.515625 27.296875 
Q 5.515625 40.1875 11.734375 48.09375 
Q 17.96875 56 27.875 56 
Q 33.9375 56 38.25 53.625 
Q 42.578125 51.265625 45.40625 46.390625 
z
M 14.796875 27.296875 
Q 14.796875 17.390625 18.875 11.75 
Q 22.953125 6.109375 30.078125 6.109375 
Q 37.203125 6.109375 41.296875 11.75 
Q 45.40625 17.390625 45.40625 27.296875 
Q 45.40625 37.203125 41.296875 42.84375 
Q 37.203125 48.484375 30.078125 48.484375 
Q 22.953125 48.484375 18.875 42.84375 
Q 14.796875 37.203125 14.796875 27.296875 
z
" id="DejaVuSans-100"/>
      </defs>
      <use xlink:href="#DejaVuSans-65"/>
      <use x="68.408203" xlink:href="#DejaVuSans-109"/>
      <use x="165.820312" xlink:href="#DejaVuSans-112"/>
      <use x="229.296875" xlink:href="#DejaVuSans-108"/>
      <use x="257.080078" xlink:href="#DejaVuSans-105"/>
      <use x="284.863281" xlink:href="#DejaVuSans-116"/>
      <use x="324.072266" xlink:href="#DejaVuSans-117"/>
      <use x="387.451172" xlink:href="#DejaVuSans-100"/>
      <use x="450.927734" xlink:href="#DejaVuSans-101"/>
     </g>
    </g>
   </g>
   <g id="line2d_18">
    <defs>
     <path d="M 0 -3 
L -3 3 
L 3 3 
z
" id="m3944bd4e3b" style="stroke:#000000;stroke-linejoin:miter;"/>
    </defs>
    <g clip-path="url(#pff8bda4757)">
     <use style="stroke:#000000;stroke-linejoin:miter;" x="142.115611" xlink:href="#m3944bd4e3b" y="240.756309"/>
     <use style="stroke:#000000;stroke-linejoin:miter;" x="147.188338" xlink:href="#m3944bd4e3b" y="241.430859"/>
     <use style="stroke:#000000;stroke-linejoin:miter;" x="152.261065" xlink:href="#m3944bd4e3b" y="243.380633"/>
     <use style="stroke:#000000;stroke-linejoin:miter;" x="157.333793" xlink:href="#m3944bd4e3b" y="246.502167"/>
     <use style="stroke:#000000;stroke-linejoin:miter;" x="162.40652" xlink:href="#m3944bd4e3b" y="250.692273"/>
     <use style="stroke:#000000;stroke-linejoin:miter;" x="167.479247" xlink:href="#m3944bd4e3b" y="255.848148"/>
     <use style="stroke:#000000;stroke-linejoin:miter;" x="172.551974" xlink:href="#m3944bd4e3b" y="261.86753"/>
     <use style="stroke:#000000;stroke-linejoin:miter;" x="177.624702" xlink:href="#m3944bd4e3b" y="268.648824"/>
     <use style="stroke:#000000;stroke-linejoin:miter;" x="182.697429" xlink:href="#m3944bd4e3b" y="276.091325"/>
     <use style="stroke:#000000;stroke-linejoin:miter;" x="187.770156" xlink:href="#m3944bd4e3b" y="284.095411"/>
     <use style="stroke:#000000;stroke-linejoin:miter;" x="192.842884" xlink:href="#m3944bd4e3b" y="292.562772"/>
     <use style="stroke:#000000;stroke-linejoin:miter;" x="197.915611" xlink:href="#m3944bd4e3b" y="301.396638"/>
     <use style="stroke:#000000;stroke-linejoin:miter;" x="202.988338" xlink:href="#m3944bd4e3b" y="310.502044"/>
     <use style="stroke:#000000;stroke-linejoin:miter;" x="208.061065" xlink:href="#m3944bd4e3b" y="319.786073"/>
     <use style="stroke:#000000;stroke-linejoin:miter;" x="213.133793" xlink:href="#m3944bd4e3b" y="329.158111"/>
     <use style="stroke:#000000;stroke-linejoin:miter;" x="218.20652" xlink:href="#m3944bd4e3b" y="338.530157"/>
     <use style="stroke:#000000;stroke-linejoin:miter;" x="223.279247" xlink:href="#m3944bd4e3b" y="347.817019"/>
     <use style="stroke:#000000;stroke-linejoin:miter;" x="228.351974" xlink:href="#m3944bd4e3b" y="356.936645"/>
     <use style="stroke:#000000;stroke-linejoin:miter;" x="233.424702" xlink:href="#m3944bd4e3b" y="365.810376"/>
     <use style="stroke:#000000;stroke-linejoin:miter;" x="238.497429" xlink:href="#m3944bd4e3b" y="374.363182"/>
     <use style="stroke:#000000;stroke-linejoin:miter;" x="243.570156" xlink:href="#m3944bd4e3b" y="382.523802"/>
     <use style="stroke:#000000;stroke-linejoin:miter;" x="248.642884" xlink:href="#m3944bd4e3b" y="390.22525"/>
     <use style="stroke:#000000;stroke-linejoin:miter;" x="253.715611" xlink:href="#m3944bd4e3b" y="397.404804"/>
     <use style="stroke:#000000;stroke-linejoin:miter;" x="258.788338" xlink:href="#m3944bd4e3b" y="404.004117"/>
     <use style="stroke:#000000;stroke-linejoin:miter;" x="263.861065" xlink:href="#m3944bd4e3b" y="409.969904"/>
     <use style="stroke:#000000;stroke-linejoin:miter;" x="268.933793" xlink:href="#m3944bd4e3b" y="415.253447"/>
     <use style="stroke:#000000;stroke-linejoin:miter;" x="274.00652" xlink:href="#m3944bd4e3b" y="419.811293"/>
     <use style="stroke:#000000;stroke-linejoin:miter;" x="279.079247" xlink:href="#m3944bd4e3b" y="423.605052"/>
     <use style="stroke:#000000;stroke-linejoin:miter;" x="284.151974" xlink:href="#m3944bd4e3b" y="426.601696"/>
     <use style="stroke:#000000;stroke-linejoin:miter;" x="289.224702" xlink:href="#m3944bd4e3b" y="428.773662"/>
     <use style="stroke:#000000;stroke-linejoin:miter;" x="294.297429" xlink:href="#m3944bd4e3b" y="430.098644"/>
     <use style="stroke:#000000;stroke-linejoin:miter;" x="299.370156" xlink:href="#m3944bd4e3b" y="430.56"/>
     <use style="stroke:#000000;stroke-linejoin:miter;" x="304.442884" xlink:href="#m3944bd4e3b" y="430.14655"/>
     <use style="stroke:#000000;stroke-linejoin:miter;" x="309.515611" xlink:href="#m3944bd4e3b" y="428.852474"/>
     <use style="stroke:#000000;stroke-linejoin:miter;" x="314.588338" xlink:href="#m3944bd4e3b" y="426.677615"/>
     <use style="stroke:#000000;stroke-linejoin:miter;" x="319.661065" xlink:href="#m3944bd4e3b" y="423.627077"/>
     <use style="stroke:#000000;stroke-linejoin:miter;" x="324.733793" xlink:href="#m3944bd4e3b" y="419.711327"/>
     <use style="stroke:#000000;stroke-linejoin:miter;" x="329.80652" xlink:href="#m3944bd4e3b" y="414.946093"/>
     <use style="stroke:#000000;stroke-linejoin:miter;" x="334.879247" xlink:href="#m3944bd4e3b" y="409.35217"/>
     <use style="stroke:#000000;stroke-linejoin:miter;" x="339.951974" xlink:href="#m3944bd4e3b" y="402.955219"/>
     <use style="stroke:#000000;stroke-linejoin:miter;" x="345.024702" xlink:href="#m3944bd4e3b" y="395.785666"/>
     <use style="stroke:#000000;stroke-linejoin:miter;" x="350.097429" xlink:href="#m3944bd4e3b" y="387.878405"/>
     <use style="stroke:#000000;stroke-linejoin:miter;" x="355.170156" xlink:href="#m3944bd4e3b" y="379.2728"/>
     <use style="stroke:#000000;stroke-linejoin:miter;" x="360.242884" xlink:href="#m3944bd4e3b" y="370.01209"/>
     <use style="stroke:#000000;stroke-linejoin:miter;" x="365.315611" xlink:href="#m3944bd4e3b" y="360.143482"/>
     <use style="stroke:#000000;stroke-linejoin:miter;" x="370.388338" xlink:href="#m3944bd4e3b" y="349.717562"/>
     <use style="stroke:#000000;stroke-linejoin:miter;" x="375.461065" xlink:href="#m3944bd4e3b" y="338.788193"/>
     <use style="stroke:#000000;stroke-linejoin:miter;" x="380.533793" xlink:href="#m3944bd4e3b" y="327.412215"/>
     <use style="stroke:#000000;stroke-linejoin:miter;" x="385.60652" xlink:href="#m3944bd4e3b" y="315.648955"/>
     <use style="stroke:#000000;stroke-linejoin:miter;" x="390.679247" xlink:href="#m3944bd4e3b" y="303.560022"/>
     <use style="stroke:#000000;stroke-linejoin:miter;" x="395.751974" xlink:href="#m3944bd4e3b" y="291.208891"/>
     <use style="stroke:#000000;stroke-linejoin:miter;" x="400.824702" xlink:href="#m3944bd4e3b" y="278.660609"/>
     <use style="stroke:#000000;stroke-linejoin:miter;" x="405.897429" xlink:href="#m3944bd4e3b" y="265.981362"/>
     <use style="stroke:#000000;stroke-linejoin:miter;" x="410.970156" xlink:href="#m3944bd4e3b" y="253.238179"/>
     <use style="stroke:#000000;stroke-linejoin:miter;" x="416.042884" xlink:href="#m3944bd4e3b" y="240.498497"/>
     <use style="stroke:#000000;stroke-linejoin:miter;" x="421.115611" xlink:href="#m3944bd4e3b" y="227.829829"/>
     <use style="stroke:#000000;stroke-linejoin:miter;" x="426.188338" xlink:href="#m3944bd4e3b" y="215.299372"/>
     <use style="stroke:#000000;stroke-linejoin:miter;" x="431.261065" xlink:href="#m3944bd4e3b" y="202.973666"/>
     <use style="stroke:#000000;stroke-linejoin:miter;" x="436.333793" xlink:href="#m3944bd4e3b" y="190.918199"/>
     <use style="stroke:#000000;stroke-linejoin:miter;" x="441.40652" xlink:href="#m3944bd4e3b" y="179.197085"/>
     <use style="stroke:#000000;stroke-linejoin:miter;" x="446.479247" xlink:href="#m3944bd4e3b" y="167.872665"/>
     <use style="stroke:#000000;stroke-linejoin:miter;" x="451.551974" xlink:href="#m3944bd4e3b" y="157.005244"/>
     <use style="stroke:#000000;stroke-linejoin:miter;" x="456.624702" xlink:href="#m3944bd4e3b" y="146.652695"/>
     <use style="stroke:#000000;stroke-linejoin:miter;" x="461.697429" xlink:href="#m3944bd4e3b" y="136.870162"/>
     <use style="stroke:#000000;stroke-linejoin:miter;" x="466.770156" xlink:href="#m3944bd4e3b" y="127.709887"/>
     <use style="stroke:#000000;stroke-linejoin:miter;" x="471.842884" xlink:href="#m3944bd4e3b" y="119.220682"/>
     <use style="stroke:#000000;stroke-linejoin:miter;" x="476.915611" xlink:href="#m3944bd4e3b" y="111.44778"/>
     <use style="stroke:#000000;stroke-linejoin:miter;" x="481.988338" xlink:href="#m3944bd4e3b" y="104.432843"/>
     <use style="stroke:#000000;stroke-linejoin:miter;" x="487.061065" xlink:href="#m3944bd4e3b" y="98.213265"/>
     <use style="stroke:#000000;stroke-linejoin:miter;" x="492.133793" xlink:href="#m3944bd4e3b" y="92.822367"/>
     <use style="stroke:#000000;stroke-linejoin:miter;" x="497.20652" xlink:href="#m3944bd4e3b" y="88.289003"/>
     <use style="stroke:#000000;stroke-linejoin:miter;" x="502.279247" xlink:href="#m3944bd4e3b" y="84.637564"/>
     <use style="stroke:#000000;stroke-linejoin:miter;" x="507.351974" xlink:href="#m3944bd4e3b" y="81.887557"/>
     <use style="stroke:#000000;stroke-linejoin:miter;" x="512.424702" xlink:href="#m3944bd4e3b" y="80.053957"/>
     <use style="stroke:#000000;stroke-linejoin:miter;" x="517.497429" xlink:href="#m3944bd4e3b" y="79.146753"/>
     <use style="stroke:#000000;stroke-linejoin:miter;" x="522.570156" xlink:href="#m3944bd4e3b" y="79.17106"/>
     <use style="stroke:#000000;stroke-linejoin:miter;" x="527.642884" xlink:href="#m3944bd4e3b" y="80.126846"/>
     <use style="stroke:#000000;stroke-linejoin:miter;" x="532.715611" xlink:href="#m3944bd4e3b" y="82.009407"/>
     <use style="stroke:#000000;stroke-linejoin:miter;" x="537.788338" xlink:href="#m3944bd4e3b" y="84.808981"/>
     <use style="stroke:#000000;stroke-linejoin:miter;" x="542.861065" xlink:href="#m3944bd4e3b" y="88.510942"/>
     <use style="stroke:#000000;stroke-linejoin:miter;" x="547.933793" xlink:href="#m3944bd4e3b" y="93.09589"/>
     <use style="stroke:#000000;stroke-linejoin:miter;" x="553.00652" xlink:href="#m3944bd4e3b" y="98.539657"/>
     <use style="stroke:#000000;stroke-linejoin:miter;" x="558.079247" xlink:href="#m3944bd4e3b" y="104.813528"/>
     <use style="stroke:#000000;stroke-linejoin:miter;" x="563.151974" xlink:href="#m3944bd4e3b" y="111.884597"/>
     <use style="stroke:#000000;stroke-linejoin:miter;" x="568.224702" xlink:href="#m3944bd4e3b" y="119.715294"/>
     <use style="stroke:#000000;stroke-linejoin:miter;" x="573.297429" xlink:href="#m3944bd4e3b" y="128.264292"/>
     <use style="stroke:#000000;stroke-linejoin:miter;" x="578.370156" xlink:href="#m3944bd4e3b" y="137.486286"/>
     <use style="stroke:#000000;stroke-linejoin:miter;" x="583.442884" xlink:href="#m3944bd4e3b" y="147.332484"/>
     <use style="stroke:#000000;stroke-linejoin:miter;" x="588.515611" xlink:href="#m3944bd4e3b" y="157.750768"/>
     <use style="stroke:#000000;stroke-linejoin:miter;" x="593.588338" xlink:href="#m3944bd4e3b" y="168.685772"/>
     <use style="stroke:#000000;stroke-linejoin:miter;" x="598.661065" xlink:href="#m3944bd4e3b" y="180.079463"/>
     <use style="stroke:#000000;stroke-linejoin:miter;" x="603.733793" xlink:href="#m3944bd4e3b" y="191.87132"/>
     <use style="stroke:#000000;stroke-linejoin:miter;" x="608.80652" xlink:href="#m3944bd4e3b" y="203.998643"/>
     <use style="stroke:#000000;stroke-linejoin:miter;" x="613.879247" xlink:href="#m3944bd4e3b" y="216.396882"/>
     <use style="stroke:#000000;stroke-linejoin:miter;" x="618.951974" xlink:href="#m3944bd4e3b" y="228.999968"/>
     <use style="stroke:#000000;stroke-linejoin:miter;" x="624.024702" xlink:href="#m3944bd4e3b" y="241.740692"/>
     <use style="stroke:#000000;stroke-linejoin:miter;" x="629.097429" xlink:href="#m3944bd4e3b" y="254.550999"/>
     <use style="stroke:#000000;stroke-linejoin:miter;" x="634.170156" xlink:href="#m3944bd4e3b" y="267.362398"/>
     <use style="stroke:#000000;stroke-linejoin:miter;" x="639.242884" xlink:href="#m3944bd4e3b" y="280.106249"/>
     <use style="stroke:#000000;stroke-linejoin:miter;" x="644.315611" xlink:href="#m3944bd4e3b" y="292.714181"/>
     <use style="stroke:#000000;stroke-linejoin:miter;" x="649.388338" xlink:href="#m3944bd4e3b" y="305.118367"/>
     <use style="stroke:#000000;stroke-linejoin:miter;" x="654.461065" xlink:href="#m3944bd4e3b" y="317.251985"/>
     <use style="stroke:#000000;stroke-linejoin:miter;" x="659.533793" xlink:href="#m3944bd4e3b" y="329.049433"/>
     <use style="stroke:#000000;stroke-linejoin:miter;" x="664.60652" xlink:href="#m3944bd4e3b" y="340.446718"/>
     <use style="stroke:#000000;stroke-linejoin:miter;" x="669.679247" xlink:href="#m3944bd4e3b" y="351.381822"/>
     <use style="stroke:#000000;stroke-linejoin:miter;" x="674.751974" xlink:href="#m3944bd4e3b" y="361.794972"/>
     <use style="stroke:#000000;stroke-linejoin:miter;" x="679.824702" xlink:href="#m3944bd4e3b" y="371.628798"/>
     <use style="stroke:#000000;stroke-linejoin:miter;" x="684.897429" xlink:href="#m3944bd4e3b" y="380.829097"/>
     <use style="stroke:#000000;stroke-linejoin:miter;" x="689.970156" xlink:href="#m3944bd4e3b" y="389.344327"/>
     <use style="stroke:#000000;stroke-linejoin:miter;" x="695.042884" xlink:href="#m3944bd4e3b" y="397.126688"/>
     <use style="stroke:#000000;stroke-linejoin:miter;" x="700.115611" xlink:href="#m3944bd4e3b" y="404.13161"/>
     <use style="stroke:#000000;stroke-linejoin:miter;" x="705.188338" xlink:href="#m3944bd4e3b" y="410.318631"/>
     <use style="stroke:#000000;stroke-linejoin:miter;" x="710.261065" xlink:href="#m3944bd4e3b" y="415.651122"/>
     <use style="stroke:#000000;stroke-linejoin:miter;" x="715.333793" xlink:href="#m3944bd4e3b" y="420.096476"/>
     <use style="stroke:#000000;stroke-linejoin:miter;" x="720.40652" xlink:href="#m3944bd4e3b" y="423.626585"/>
     <use style="stroke:#000000;stroke-linejoin:miter;" x="725.479247" xlink:href="#m3944bd4e3b" y="426.217697"/>
     <use style="stroke:#000000;stroke-linejoin:miter;" x="730.551974" xlink:href="#m3944bd4e3b" y="427.850441"/>
     <use style="stroke:#000000;stroke-linejoin:miter;" x="735.624702" xlink:href="#m3944bd4e3b" y="428.510002"/>
     <use style="stroke:#000000;stroke-linejoin:miter;" x="740.697429" xlink:href="#m3944bd4e3b" y="428.186343"/>
     <use style="stroke:#000000;stroke-linejoin:miter;" x="745.770156" xlink:href="#m3944bd4e3b" y="426.873872"/>
     <use style="stroke:#000000;stroke-linejoin:miter;" x="750.842884" xlink:href="#m3944bd4e3b" y="424.571598"/>
     <use style="stroke:#000000;stroke-linejoin:miter;" x="755.915611" xlink:href="#m3944bd4e3b" y="421.283075"/>
     <use style="stroke:#000000;stroke-linejoin:miter;" x="760.988338" xlink:href="#m3944bd4e3b" y="417.016335"/>
     <use style="stroke:#000000;stroke-linejoin:miter;" x="766.061065" xlink:href="#m3944bd4e3b" y="411.78387"/>
     <use style="stroke:#000000;stroke-linejoin:miter;" x="771.133793" xlink:href="#m3944bd4e3b" y="405.602152"/>
     <use style="stroke:#000000;stroke-linejoin:miter;" x="776.20652" xlink:href="#m3944bd4e3b" y="398.492021"/>
     <use style="stroke:#000000;stroke-linejoin:miter;" x="781.279247" xlink:href="#m3944bd4e3b" y="390.477983"/>
     <use style="stroke:#000000;stroke-linejoin:miter;" x="786.351974" xlink:href="#m3944bd4e3b" y="381.588337"/>
     <use style="stroke:#000000;stroke-linejoin:miter;" x="791.424702" xlink:href="#m3944bd4e3b" y="371.854834"/>
     <use style="stroke:#000000;stroke-linejoin:miter;" x="796.497429" xlink:href="#m3944bd4e3b" y="361.312467"/>
     <use style="stroke:#000000;stroke-linejoin:miter;" x="801.570156" xlink:href="#m3944bd4e3b" y="349.998934"/>
     <use style="stroke:#000000;stroke-linejoin:miter;" x="806.642884" xlink:href="#m3944bd4e3b" y="337.954728"/>
     <use style="stroke:#000000;stroke-linejoin:miter;" x="811.715611" xlink:href="#m3944bd4e3b" y="325.222513"/>
     <use style="stroke:#000000;stroke-linejoin:miter;" x="816.788338" xlink:href="#m3944bd4e3b" y="311.846922"/>
     <use style="stroke:#000000;stroke-linejoin:miter;" x="821.861065" xlink:href="#m3944bd4e3b" y="297.874104"/>
     <use style="stroke:#000000;stroke-linejoin:miter;" x="826.933793" xlink:href="#m3944bd4e3b" y="283.351402"/>
     <use style="stroke:#000000;stroke-linejoin:miter;" x="832.00652" xlink:href="#m3944bd4e3b" y="268.326902"/>
     <use style="stroke:#000000;stroke-linejoin:miter;" x="837.079247" xlink:href="#m3944bd4e3b" y="252.848999"/>
     <use style="stroke:#000000;stroke-linejoin:miter;" x="842.151974" xlink:href="#m3944bd4e3b" y="236.966058"/>
     <use style="stroke:#000000;stroke-linejoin:miter;" x="847.224702" xlink:href="#m3944bd4e3b" y="220.725837"/>
     <use style="stroke:#000000;stroke-linejoin:miter;" x="852.297429" xlink:href="#m3944bd4e3b" y="204.175143"/>
     <use style="stroke:#000000;stroke-linejoin:miter;" x="857.370156" xlink:href="#m3944bd4e3b" y="187.359272"/>
     <use style="stroke:#000000;stroke-linejoin:miter;" x="862.442884" xlink:href="#m3944bd4e3b" y="170.321594"/>
     <use style="stroke:#000000;stroke-linejoin:miter;" x="867.515611" xlink:href="#m3944bd4e3b" y="153.103088"/>
     <use style="stroke:#000000;stroke-linejoin:miter;" x="872.588338" xlink:href="#m3944bd4e3b" y="135.741611"/>
     <use style="stroke:#000000;stroke-linejoin:miter;" x="877.661065" xlink:href="#m3944bd4e3b" y="118.271918"/>
     <use style="stroke:#000000;stroke-linejoin:miter;" x="882.733793" xlink:href="#m3944bd4e3b" y="100.724579"/>
     <use style="stroke:#000000;stroke-linejoin:miter;" x="887.80652" xlink:href="#m3944bd4e3b" y="83.125817"/>
     <use style="stroke:#000000;stroke-linejoin:miter;" x="892.879247" xlink:href="#m3944bd4e3b" y="65.49686"/>
     <use style="stroke:#000000;stroke-linejoin:miter;" x="897.951974" xlink:href="#m3944bd4e3b" y="47.853715"/>
     <use style="stroke:#000000;stroke-linejoin:miter;" x="903.024702" xlink:href="#m3944bd4e3b" y="30.206002"/>
    </g>
   </g>
   <g id="line2d_19">
    <path clip-path="url(#pff8bda4757)" d="M 142.115611 240.756309 
L 147.188338 241.423226 
L 152.261065 243.350324 
L 157.333793 246.434895 
L 162.40652 250.574471 
L 167.479247 255.666935 
L 172.551974 261.610673 
L 177.624702 268.304704 
L 182.697429 275.648918 
L 187.770156 283.544234 
L 192.842884 291.892857 
L 197.915611 300.598537 
L 208.061065 318.705083 
L 223.279247 346.252312 
L 228.351974 355.196668 
L 233.424702 363.888777 
L 238.497429 372.254207 
L 243.570156 380.222303 
L 248.642884 387.726379 
L 253.715611 394.704419 
L 258.788338 401.098673 
L 263.861065 406.856461 
L 268.933793 411.929864 
L 274.00652 416.27603 
L 279.079247 419.85747 
L 284.151974 422.641956 
L 289.224702 424.602723 
L 294.297429 425.718565 
L 299.370156 425.97384 
L 304.442884 425.358165 
L 309.515611 423.867218 
L 314.588338 421.501639 
L 319.661065 418.267927 
L 324.733793 414.177749 
L 329.80652 409.24803 
L 334.879247 403.500858 
L 339.951974 396.963192 
L 345.024702 389.666754 
L 350.097429 381.647834 
L 355.170156 372.946892 
L 360.242884 363.608761 
L 365.315611 353.681646 
L 370.388338 343.217559 
L 375.461065 332.271488 
L 380.533793 320.901353 
L 385.60652 309.167586 
L 395.751974 284.861329 
L 410.970156 247.307382 
L 421.115611 222.314253 
L 431.261065 197.962689 
L 436.333793 186.187026 
L 441.40652 174.760711 
L 446.479247 163.743551 
L 451.551974 153.193244 
L 456.624702 143.165065 
L 461.697429 133.711724 
L 466.770156 124.882607 
L 471.842884 116.724346 
L 476.915611 109.279599 
L 481.988338 102.587651 
L 487.061065 96.683715 
L 492.133793 91.598933 
L 497.20652 87.360078 
L 502.279247 83.989657 
L 507.351974 81.505508 
L 512.424702 79.920904 
L 517.497429 79.24445 
L 522.570156 79.479787 
L 527.642884 80.626192 
L 532.715611 82.677666 
L 537.788338 85.623962 
L 542.861065 89.449859 
L 547.933793 94.135459 
L 553.00652 99.656712 
L 558.079247 105.984895 
L 563.151974 113.087013 
L 568.224702 120.926288 
L 573.297429 129.461902 
L 578.370156 138.649244 
L 583.442884 148.440613 
L 588.515611 158.784786 
L 593.588338 169.627847 
L 598.661065 180.913141 
L 603.733793 192.581679 
L 613.879247 216.822672 
L 624.024702 241.843806 
L 644.315611 292.123299 
L 654.461065 316.321091 
L 659.533793 327.948661 
L 664.60652 339.17593 
L 669.679247 349.941504 
L 674.751974 360.186237 
L 679.824702 369.853522 
L 684.897429 378.889613 
L 689.970156 387.243772 
L 695.042884 394.868708 
L 700.115611 401.720721 
L 705.188338 407.759679 
L 710.261065 412.949509 
L 715.333793 417.258338 
L 720.40652 420.658444 
L 725.479247 423.126386 
L 730.551974 424.643465 
L 735.624702 425.195087 
L 740.697429 424.771601 
L 745.770156 423.367624 
L 750.842884 420.982461 
L 755.915611 417.619857 
L 760.988338 413.287863 
L 766.061065 407.99906 
L 771.133793 401.770019 
L 776.20652 394.621393 
L 781.279247 386.577688 
L 786.351974 377.667091 
L 791.424702 367.921068 
L 796.497429 357.3744 
L 801.570156 346.064552 
L 806.642884 334.031625 
L 811.715611 321.317968 
L 816.788338 307.967785 
L 821.861065 294.0268 
L 826.933793 279.541918 
L 832.00652 264.56072 
L 837.079247 249.131161 
L 847.224702 217.117716 
L 857.370156 183.874937 
L 867.515611 149.752756 
L 882.733793 97.586839 
L 903.024702 27.36 
L 903.024702 27.36 
" style="fill:none;stroke:#0000ff;stroke-linecap:square;stroke-width:3;"/>
   </g>
   <g id="line2d_20">
    <path clip-path="url(#pff8bda4757)" d="M 142.115611 240.756309 
L 147.188338 241.432694 
L 152.261065 243.387527 
L 157.333793 246.516807 
L 162.40652 250.716813 
L 167.479247 255.884217 
L 172.551974 261.916235 
L 177.624702 268.710782 
L 182.697429 276.166649 
L 187.770156 284.183745 
L 192.842884 292.663303 
L 197.915611 301.508106 
L 208.061065 319.914003 
L 223.279247 347.950745 
L 228.351974 357.065959 
L 233.424702 365.931822 
L 238.497429 374.473002 
L 243.570156 382.618042 
L 248.642884 390.299951 
L 253.715611 397.455912 
L 258.788338 404.027576 
L 263.861065 409.961655 
L 268.933793 415.209533 
L 274.00652 419.727855 
L 279.079247 423.478528 
L 284.151974 426.428623 
L 289.224702 428.550873 
L 294.297429 429.823172 
L 299.370156 430.229375 
L 304.442884 429.758597 
L 309.515611 428.405615 
L 314.588338 426.170468 
L 319.661065 423.059056 
L 324.733793 419.082241 
L 329.80652 414.256447 
L 334.879247 408.602867 
L 339.951974 402.147854 
L 345.024702 394.922529 
L 350.097429 386.962482 
L 355.170156 378.307672 
L 360.242884 369.002032 
L 365.315611 359.093563 
L 370.388338 348.633347 
L 375.461065 337.67621 
L 380.533793 326.279451 
L 385.60652 314.503147 
L 395.751974 290.062821 
L 410.970156 252.173431 
L 421.115611 226.876006 
L 431.261065 202.172185 
L 436.333793 190.207204 
L 441.40652 178.585395 
L 446.479247 167.368564 
L 451.551974 156.61638 
L 456.624702 146.386082 
L 461.697429 136.732257 
L 466.770156 127.706326 
L 471.842884 119.356402 
L 476.915611 111.727125 
L 481.988338 104.859365 
L 487.061065 98.78962 
L 492.133793 93.550616 
L 497.20652 89.170414 
L 502.279247 85.672407 
L 507.351974 83.075625 
L 512.424702 81.394129 
L 517.497429 80.636915 
L 522.570156 80.80851 
L 527.642884 81.908189 
L 532.715611 83.930363 
L 537.788338 86.864566 
L 542.861065 90.695566 
L 547.933793 95.403079 
L 553.00652 100.962441 
L 558.079247 107.344449 
L 563.151974 114.515287 
L 568.224702 122.437103 
L 573.297429 131.068076 
L 578.370156 140.362483 
L 583.442884 150.271145 
L 588.515611 160.741536 
L 593.588338 171.718154 
L 598.661065 183.142774 
L 603.733793 194.954738 
L 613.879247 219.487984 
L 624.024702 244.796715 
L 639.242884 283.03375 
L 649.388338 307.914605 
L 654.461065 319.97022 
L 659.533793 331.681572 
L 664.60652 342.985245 
L 669.679247 353.819856 
L 674.751974 364.126249 
L 679.824702 373.847876 
L 684.897429 382.931091 
L 689.970156 391.325165 
L 695.042884 398.982996 
L 700.115611 405.860884 
L 705.188338 411.918896 
L 710.261065 417.121366 
L 715.333793 421.436202 
L 720.40652 424.836179 
L 725.479247 427.297965 
L 730.551974 428.80305 
L 735.624702 429.337147 
L 740.697429 428.890684 
L 745.770156 427.458697 
L 750.842884 425.04067 
L 755.915611 421.640563 
L 760.988338 417.266698 
L 766.061065 411.931884 
L 771.133793 405.652969 
L 776.20652 398.450795 
L 781.279247 390.350285 
L 786.351974 381.379617 
L 791.424702 371.570663 
L 796.497429 360.958374 
L 801.570156 349.580432 
L 806.642884 337.477167 
L 811.715611 324.691117 
L 816.788338 311.266704 
L 821.861065 297.249831 
L 826.933793 282.687591 
L 832.00652 267.627722 
L 837.079247 252.118356 
L 847.224702 219.94246 
L 857.370156 186.534361 
L 867.515611 152.244914 
L 882.733793 99.825954 
L 903.024702 29.260274 
L 903.024702 29.260274 
" style="fill:none;stroke:#ff0000;stroke-linecap:square;stroke-width:3;"/>
   </g>
   <g id="patch_3">
    <path d="M 104.070156 450.72 
L 104.070156 7.2 
" style="fill:none;stroke:#000000;stroke-linecap:square;stroke-linejoin:miter;stroke-width:0.8;"/>
   </g>
   <g id="patch_4">
    <path d="M 941.070156 450.72 
L 941.070156 7.2 
" style="fill:none;stroke:#000000;stroke-linecap:square;stroke-linejoin:miter;stroke-width:0.8;"/>
   </g>
   <g id="patch_5">
    <path d="M 104.070156 450.72 
L 941.070156 450.72 
" style="fill:none;stroke:#000000;stroke-linecap:square;stroke-linejoin:miter;stroke-width:0.8;"/>
   </g>
   <g id="patch_6">
    <path d="M 104.070156 7.2 
L 941.070156 7.2 
" style="fill:none;stroke:#000000;stroke-linecap:square;stroke-linejoin:miter;stroke-width:0.8;"/>
   </g>
   <g id="legend_1">
    <g id="patch_7">
     <path d="M 119.470156 121.675625 
L 413.280156 121.675625 
Q 417.680156 121.675625 417.680156 117.275625 
L 417.680156 22.6 
Q 417.680156 18.2 413.280156 18.2 
L 119.470156 18.2 
Q 115.070156 18.2 115.070156 22.6 
L 115.070156 117.275625 
Q 115.070156 121.675625 119.470156 121.675625 
z
" style="fill:#ffffff;opacity:0.8;stroke:#cccccc;stroke-linejoin:miter;"/>
    </g>
    <g id="line2d_21"/>
    <g id="line2d_22">
     <g>
      <use style="stroke:#000000;stroke-linejoin:miter;" x="145.870156" xlink:href="#m3944bd4e3b" y="36.016563"/>
     </g>
    </g>
    <g id="text_20">
     <!-- Reference FEM -->
     <g transform="translate(185.470156 43.716563)scale(0.22 -0.22)">
      <defs>
       <path d="M 44.390625 34.1875 
Q 47.5625 33.109375 50.5625 29.59375 
Q 53.5625 26.078125 56.59375 19.921875 
L 66.609375 0 
L 56 0 
L 46.6875 18.703125 
Q 43.0625 26.03125 39.671875 28.421875 
Q 36.28125 30.8125 30.421875 30.8125 
L 19.671875 30.8125 
L 19.671875 0 
L 9.8125 0 
L 9.8125 72.90625 
L 32.078125 72.90625 
Q 44.578125 72.90625 50.734375 67.671875 
Q 56.890625 62.453125 56.890625 51.90625 
Q 56.890625 45.015625 53.6875 40.46875 
Q 50.484375 35.9375 44.390625 34.1875 
z
M 19.671875 64.796875 
L 19.671875 38.921875 
L 32.078125 38.921875 
Q 39.203125 38.921875 42.84375 42.21875 
Q 46.484375 45.515625 46.484375 51.90625 
Q 46.484375 58.296875 42.84375 61.546875 
Q 39.203125 64.796875 32.078125 64.796875 
z
" id="DejaVuSans-82"/>
       <path d="M 37.109375 75.984375 
L 37.109375 68.5 
L 28.515625 68.5 
Q 23.6875 68.5 21.796875 66.546875 
Q 19.921875 64.59375 19.921875 59.515625 
L 19.921875 54.6875 
L 34.71875 54.6875 
L 34.71875 47.703125 
L 19.921875 47.703125 
L 19.921875 0 
L 10.890625 0 
L 10.890625 47.703125 
L 2.296875 47.703125 
L 2.296875 54.6875 
L 10.890625 54.6875 
L 10.890625 58.5 
Q 10.890625 67.625 15.140625 71.796875 
Q 19.390625 75.984375 28.609375 75.984375 
z
" id="DejaVuSans-102"/>
       <path d="M 41.109375 46.296875 
Q 39.59375 47.171875 37.8125 47.578125 
Q 36.03125 48 33.890625 48 
Q 26.265625 48 22.1875 43.046875 
Q 18.109375 38.09375 18.109375 28.8125 
L 18.109375 0 
L 9.078125 0 
L 9.078125 54.6875 
L 18.109375 54.6875 
L 18.109375 46.1875 
Q 20.953125 51.171875 25.484375 53.578125 
Q 30.03125 56 36.53125 56 
Q 37.453125 56 38.578125 55.875 
Q 39.703125 55.765625 41.0625 55.515625 
z
" id="DejaVuSans-114"/>
       <path d="M 48.78125 52.59375 
L 48.78125 44.1875 
Q 44.96875 46.296875 41.140625 47.34375 
Q 37.3125 48.390625 33.40625 48.390625 
Q 24.65625 48.390625 19.8125 42.84375 
Q 14.984375 37.3125 14.984375 27.296875 
Q 14.984375 17.28125 19.8125 11.734375 
Q 24.65625 6.203125 33.40625 6.203125 
Q 37.3125 6.203125 41.140625 7.25 
Q 44.96875 8.296875 48.78125 10.40625 
L 48.78125 2.09375 
Q 45.015625 0.34375 40.984375 -0.53125 
Q 36.96875 -1.421875 32.421875 -1.421875 
Q 20.0625 -1.421875 12.78125 6.34375 
Q 5.515625 14.109375 5.515625 27.296875 
Q 5.515625 40.671875 12.859375 48.328125 
Q 20.21875 56 33.015625 56 
Q 37.15625 56 41.109375 55.140625 
Q 45.0625 54.296875 48.78125 52.59375 
z
" id="DejaVuSans-99"/>
       <path d="M 9.8125 72.90625 
L 51.703125 72.90625 
L 51.703125 64.59375 
L 19.671875 64.59375 
L 19.671875 43.109375 
L 48.578125 43.109375 
L 48.578125 34.8125 
L 19.671875 34.8125 
L 19.671875 0 
L 9.8125 0 
z
" id="DejaVuSans-70"/>
       <path d="M 9.8125 72.90625 
L 55.90625 72.90625 
L 55.90625 64.59375 
L 19.671875 64.59375 
L 19.671875 43.015625 
L 54.390625 43.015625 
L 54.390625 34.71875 
L 19.671875 34.71875 
L 19.671875 8.296875 
L 56.78125 8.296875 
L 56.78125 0 
L 9.8125 0 
z
" id="DejaVuSans-69"/>
       <path d="M 9.8125 72.90625 
L 24.515625 72.90625 
L 43.109375 23.296875 
L 61.8125 72.90625 
L 76.515625 72.90625 
L 76.515625 0 
L 66.890625 0 
L 66.890625 64.015625 
L 48.09375 14.015625 
L 38.1875 14.015625 
L 19.390625 64.015625 
L 19.390625 0 
L 9.8125 0 
z
" id="DejaVuSans-77"/>
      </defs>
      <use xlink:href="#DejaVuSans-82"/>
      <use x="64.982422" xlink:href="#DejaVuSans-101"/>
      <use x="126.505859" xlink:href="#DejaVuSans-102"/>
      <use x="161.710938" xlink:href="#DejaVuSans-101"/>
      <use x="223.234375" xlink:href="#DejaVuSans-114"/>
      <use x="262.097656" xlink:href="#DejaVuSans-101"/>
      <use x="323.621094" xlink:href="#DejaVuSans-110"/>
      <use x="387" xlink:href="#DejaVuSans-99"/>
      <use x="441.980469" xlink:href="#DejaVuSans-101"/>
      <use x="503.503906" xlink:href="#DejaVuSans-32"/>
      <use x="535.291016" xlink:href="#DejaVuSans-70"/>
      <use x="592.810547" xlink:href="#DejaVuSans-69"/>
      <use x="655.994141" xlink:href="#DejaVuSans-77"/>
     </g>
    </g>
    <g id="line2d_23">
     <path d="M 123.870156 68.308438 
L 167.870156 68.308438 
" style="fill:none;stroke:#0000ff;stroke-linecap:square;stroke-width:3;"/>
    </g>
    <g id="line2d_24"/>
    <g id="text_21">
     <!-- Initial mistuned FEM -->
     <g transform="translate(185.470156 76.008438)scale(0.22 -0.22)">
      <defs>
       <path d="M 9.8125 72.90625 
L 19.671875 72.90625 
L 19.671875 0 
L 9.8125 0 
z
" id="DejaVuSans-73"/>
       <path d="M 44.28125 53.078125 
L 44.28125 44.578125 
Q 40.484375 46.53125 36.375 47.5 
Q 32.28125 48.484375 27.875 48.484375 
Q 21.1875 48.484375 17.84375 46.4375 
Q 14.5 44.390625 14.5 40.28125 
Q 14.5 37.15625 16.890625 35.375 
Q 19.28125 33.59375 26.515625 31.984375 
L 29.59375 31.296875 
Q 39.15625 29.25 43.1875 25.515625 
Q 47.21875 21.78125 47.21875 15.09375 
Q 47.21875 7.46875 41.1875 3.015625 
Q 35.15625 -1.421875 24.609375 -1.421875 
Q 20.21875 -1.421875 15.453125 -0.5625 
Q 10.6875 0.296875 5.421875 2 
L 5.421875 11.28125 
Q 10.40625 8.6875 15.234375 7.390625 
Q 20.0625 6.109375 24.8125 6.109375 
Q 31.15625 6.109375 34.5625 8.28125 
Q 37.984375 10.453125 37.984375 14.40625 
Q 37.984375 18.0625 35.515625 20.015625 
Q 33.0625 21.96875 24.703125 23.78125 
L 21.578125 24.515625 
Q 13.234375 26.265625 9.515625 29.90625 
Q 5.8125 33.546875 5.8125 39.890625 
Q 5.8125 47.609375 11.28125 51.796875 
Q 16.75 56 26.8125 56 
Q 31.78125 56 36.171875 55.265625 
Q 40.578125 54.546875 44.28125 53.078125 
z
" id="DejaVuSans-115"/>
      </defs>
      <use xlink:href="#DejaVuSans-73"/>
      <use x="29.492188" xlink:href="#DejaVuSans-110"/>
      <use x="92.871094" xlink:href="#DejaVuSans-105"/>
      <use x="120.654297" xlink:href="#DejaVuSans-116"/>
      <use x="159.863281" xlink:href="#DejaVuSans-105"/>
      <use x="187.646484" xlink:href="#DejaVuSans-97"/>
      <use x="248.925781" xlink:href="#DejaVuSans-108"/>
      <use x="276.708984" xlink:href="#DejaVuSans-32"/>
      <use x="308.496094" xlink:href="#DejaVuSans-109"/>
      <use x="405.908203" xlink:href="#DejaVuSans-105"/>
      <use x="433.691406" xlink:href="#DejaVuSans-115"/>
      <use x="485.791016" xlink:href="#DejaVuSans-116"/>
      <use x="525" xlink:href="#DejaVuSans-117"/>
      <use x="588.378906" xlink:href="#DejaVuSans-110"/>
      <use x="651.757812" xlink:href="#DejaVuSans-101"/>
      <use x="713.28125" xlink:href="#DejaVuSans-100"/>
      <use x="776.757812" xlink:href="#DejaVuSans-32"/>
      <use x="808.544922" xlink:href="#DejaVuSans-70"/>
      <use x="866.064453" xlink:href="#DejaVuSans-69"/>
      <use x="929.248047" xlink:href="#DejaVuSans-77"/>
     </g>
    </g>
    <g id="line2d_25">
     <path d="M 123.870156 100.600313 
L 167.870156 100.600313 
" style="fill:none;stroke:#ff0000;stroke-linecap:square;stroke-width:3;"/>
    </g>
    <g id="line2d_26"/>
    <g id="text_22">
     <!-- Converged FEM -->
     <g transform="translate(185.470156 108.300313)scale(0.22 -0.22)">
      <defs>
       <path d="M 64.40625 67.28125 
L 64.40625 56.890625 
Q 59.421875 61.53125 53.78125 63.8125 
Q 48.140625 66.109375 41.796875 66.109375 
Q 29.296875 66.109375 22.65625 58.46875 
Q 16.015625 50.828125 16.015625 36.375 
Q 16.015625 21.96875 22.65625 14.328125 
Q 29.296875 6.6875 41.796875 6.6875 
Q 48.140625 6.6875 53.78125 8.984375 
Q 59.421875 11.28125 64.40625 15.921875 
L 64.40625 5.609375 
Q 59.234375 2.09375 53.4375 0.328125 
Q 47.65625 -1.421875 41.21875 -1.421875 
Q 24.65625 -1.421875 15.125 8.703125 
Q 5.609375 18.84375 5.609375 36.375 
Q 5.609375 53.953125 15.125 64.078125 
Q 24.65625 74.21875 41.21875 74.21875 
Q 47.75 74.21875 53.53125 72.484375 
Q 59.328125 70.75 64.40625 67.28125 
z
" id="DejaVuSans-67"/>
       <path d="M 30.609375 48.390625 
Q 23.390625 48.390625 19.1875 42.75 
Q 14.984375 37.109375 14.984375 27.296875 
Q 14.984375 17.484375 19.15625 11.84375 
Q 23.34375 6.203125 30.609375 6.203125 
Q 37.796875 6.203125 41.984375 11.859375 
Q 46.1875 17.53125 46.1875 27.296875 
Q 46.1875 37.015625 41.984375 42.703125 
Q 37.796875 48.390625 30.609375 48.390625 
z
M 30.609375 56 
Q 42.328125 56 49.015625 48.375 
Q 55.71875 40.765625 55.71875 27.296875 
Q 55.71875 13.875 49.015625 6.21875 
Q 42.328125 -1.421875 30.609375 -1.421875 
Q 18.84375 -1.421875 12.171875 6.21875 
Q 5.515625 13.875 5.515625 27.296875 
Q 5.515625 40.765625 12.171875 48.375 
Q 18.84375 56 30.609375 56 
z
" id="DejaVuSans-111"/>
       <path d="M 2.984375 54.6875 
L 12.5 54.6875 
L 29.59375 8.796875 
L 46.6875 54.6875 
L 56.203125 54.6875 
L 35.6875 0 
L 23.484375 0 
z
" id="DejaVuSans-118"/>
      </defs>
      <use xlink:href="#DejaVuSans-67"/>
      <use x="69.824219" xlink:href="#DejaVuSans-111"/>
      <use x="131.005859" xlink:href="#DejaVuSans-110"/>
      <use x="194.384766" xlink:href="#DejaVuSans-118"/>
      <use x="253.564453" xlink:href="#DejaVuSans-101"/>
      <use x="315.087891" xlink:href="#DejaVuSans-114"/>
      <use x="354.451172" xlink:href="#DejaVuSans-103"/>
      <use x="417.927734" xlink:href="#DejaVuSans-101"/>
      <use x="479.451172" xlink:href="#DejaVuSans-100"/>
      <use x="542.927734" xlink:href="#DejaVuSans-32"/>
      <use x="574.714844" xlink:href="#DejaVuSans-70"/>
      <use x="632.234375" xlink:href="#DejaVuSans-69"/>
      <use x="695.417969" xlink:href="#DejaVuSans-77"/>
     </g>
    </g>
   </g>
  </g>
 </g>
 <defs>
  <clipPath id="pff8bda4757">
   <rect height="443.52" width="837" x="104.070156" y="7.2"/>
  </clipPath>
 </defs>
</svg>
