<?xml version="1.0" encoding="utf-8" standalone="no"?>
<!DOCTYPE svg PUBLIC "-//W3C//DTD SVG 1.1//EN"
  "http://www.w3.org/Graphics/SVG/1.1/DTD/svg11.dtd">
<!-- Created with matplotlib (https://matplotlib.org/) -->
<svg height="518.278437pt" version="1.1" viewBox="0 0 948.270156 518.278437" width="948.270156pt" xmlns="http://www.w3.org/2000/svg" xmlns:xlink="http://www.w3.org/1999/xlink">
 <metadata>
  <rdf:RDF xmlns:cc="http://creativecommons.org/ns#" xmlns:dc="http://purl.org/dc/elements/1.1/" xmlns:rdf="http://www.w3.org/1999/02/22-rdf-syntax-ns#">
   <cc:Work>
    <dc:type rdf:resource="http://purl.org/dc/dcmitype/StillImage"/>
    <dc:date>2021-12-02T19:24:10.443066</dc:date>
    <dc:format>image/svg+xml</dc:format>
    <dc:creator>
     <cc:Agent>
      <dc:title>Matplotlib v3.3.4, https://matplotlib.org/</dc:title>
     </cc:Agent>
    </dc:creator>
   </cc:Work>
  </rdf:RDF>
 </metadata>
 <defs>
  <style type="text/css">*{stroke-linecap:butt;stroke-linejoin:round;}</style>
 </defs>
 <g id="figure_1">
  <g id="patch_1">
   <path d="M 0 518.278437 
L 948.270156 518.278437 
L 948.270156 0 
L 0 0 
z
" style="fill:#ffffff;"/>
  </g>
  <g id="axes_1">
   <g id="patch_2">
    <path d="M 104.070156 450.72 
L 941.070156 450.72 
L 941.070156 7.2 
L 104.070156 7.2 
z
" style="fill:#ffffff;"/>
   </g>
   <g id="matplotlib.axis_1">
    <g id="xtick_1">
     <g id="line2d_1">
      <defs>
       <path d="M 0 0 
L 0 3.5 
" id="me32b31ab67" style="stroke:#000000;stroke-width:0.8;"/>
      </defs>
      <g>
       <use style="stroke:#000000;stroke-width:0.8;" x="142.115611" xlink:href="#me32b31ab67" y="450.72"/>
      </g>
     </g>
     <g id="text_1">
      <!-- 0.0 -->
      <g transform="translate(122.236705 476.716094)scale(0.25 -0.25)">
       <defs>
        <path d="M 31.78125 66.40625 
Q 24.171875 66.40625 20.328125 58.90625 
Q 16.5 51.421875 16.5 36.375 
Q 16.5 21.390625 20.328125 13.890625 
Q 24.171875 6.390625 31.78125 6.390625 
Q 39.453125 6.390625 43.28125 13.890625 
Q 47.125 21.390625 47.125 36.375 
Q 47.125 51.421875 43.28125 58.90625 
Q 39.453125 66.40625 31.78125 66.40625 
z
M 31.78125 74.21875 
Q 44.046875 74.21875 50.515625 64.515625 
Q 56.984375 54.828125 56.984375 36.375 
Q 56.984375 17.96875 50.515625 8.265625 
Q 44.046875 -1.421875 31.78125 -1.421875 
Q 19.53125 -1.421875 13.0625 8.265625 
Q 6.59375 17.96875 6.59375 36.375 
Q 6.59375 54.828125 13.0625 64.515625 
Q 19.53125 74.21875 31.78125 74.21875 
z
" id="DejaVuSans-48"/>
        <path d="M 10.6875 12.40625 
L 21 12.40625 
L 21 0 
L 10.6875 0 
z
" id="DejaVuSans-46"/>
       </defs>
       <use xlink:href="#DejaVuSans-48"/>
       <use x="63.623047" xlink:href="#DejaVuSans-46"/>
       <use x="95.410156" xlink:href="#DejaVuSans-48"/>
      </g>
     </g>
    </g>
    <g id="xtick_2">
     <g id="line2d_2">
      <g>
       <use style="stroke:#000000;stroke-width:0.8;" x="243.570156" xlink:href="#me32b31ab67" y="450.72"/>
      </g>
     </g>
     <g id="text_2">
      <!-- 0.2 -->
      <g transform="translate(223.69125 476.716094)scale(0.25 -0.25)">
       <defs>
        <path d="M 19.1875 8.296875 
L 53.609375 8.296875 
L 53.609375 0 
L 7.328125 0 
L 7.328125 8.296875 
Q 12.9375 14.109375 22.625 23.890625 
Q 32.328125 33.6875 34.8125 36.53125 
Q 39.546875 41.84375 41.421875 45.53125 
Q 43.3125 49.21875 43.3125 52.78125 
Q 43.3125 58.59375 39.234375 62.25 
Q 35.15625 65.921875 28.609375 65.921875 
Q 23.96875 65.921875 18.8125 64.3125 
Q 13.671875 62.703125 7.8125 59.421875 
L 7.8125 69.390625 
Q 13.765625 71.78125 18.9375 73 
Q 24.125 74.21875 28.421875 74.21875 
Q 39.75 74.21875 46.484375 68.546875 
Q 53.21875 62.890625 53.21875 53.421875 
Q 53.21875 48.921875 51.53125 44.890625 
Q 49.859375 40.875 45.40625 35.40625 
Q 44.1875 33.984375 37.640625 27.21875 
Q 31.109375 20.453125 19.1875 8.296875 
z
" id="DejaVuSans-50"/>
       </defs>
       <use xlink:href="#DejaVuSans-48"/>
       <use x="63.623047" xlink:href="#DejaVuSans-46"/>
       <use x="95.410156" xlink:href="#DejaVuSans-50"/>
      </g>
     </g>
    </g>
    <g id="xtick_3">
     <g id="line2d_3">
      <g>
       <use style="stroke:#000000;stroke-width:0.8;" x="345.024702" xlink:href="#me32b31ab67" y="450.72"/>
      </g>
     </g>
     <g id="text_3">
      <!-- 0.4 -->
      <g transform="translate(325.145795 476.716094)scale(0.25 -0.25)">
       <defs>
        <path d="M 37.796875 64.3125 
L 12.890625 25.390625 
L 37.796875 25.390625 
z
M 35.203125 72.90625 
L 47.609375 72.90625 
L 47.609375 25.390625 
L 58.015625 25.390625 
L 58.015625 17.1875 
L 47.609375 17.1875 
L 47.609375 0 
L 37.796875 0 
L 37.796875 17.1875 
L 4.890625 17.1875 
L 4.890625 26.703125 
z
" id="DejaVuSans-52"/>
       </defs>
       <use xlink:href="#DejaVuSans-48"/>
       <use x="63.623047" xlink:href="#DejaVuSans-46"/>
       <use x="95.410156" xlink:href="#DejaVuSans-52"/>
      </g>
     </g>
    </g>
    <g id="xtick_4">
     <g id="line2d_4">
      <g>
       <use style="stroke:#000000;stroke-width:0.8;" x="446.479247" xlink:href="#me32b31ab67" y="450.72"/>
      </g>
     </g>
     <g id="text_4">
      <!-- 0.6 -->
      <g transform="translate(426.600341 476.716094)scale(0.25 -0.25)">
       <defs>
        <path d="M 33.015625 40.375 
Q 26.375 40.375 22.484375 35.828125 
Q 18.609375 31.296875 18.609375 23.390625 
Q 18.609375 15.53125 22.484375 10.953125 
Q 26.375 6.390625 33.015625 6.390625 
Q 39.65625 6.390625 43.53125 10.953125 
Q 47.40625 15.53125 47.40625 23.390625 
Q 47.40625 31.296875 43.53125 35.828125 
Q 39.65625 40.375 33.015625 40.375 
z
M 52.59375 71.296875 
L 52.59375 62.3125 
Q 48.875 64.0625 45.09375 64.984375 
Q 41.3125 65.921875 37.59375 65.921875 
Q 27.828125 65.921875 22.671875 59.328125 
Q 17.53125 52.734375 16.796875 39.40625 
Q 19.671875 43.65625 24.015625 45.921875 
Q 28.375 48.1875 33.59375 48.1875 
Q 44.578125 48.1875 50.953125 41.515625 
Q 57.328125 34.859375 57.328125 23.390625 
Q 57.328125 12.15625 50.6875 5.359375 
Q 44.046875 -1.421875 33.015625 -1.421875 
Q 20.359375 -1.421875 13.671875 8.265625 
Q 6.984375 17.96875 6.984375 36.375 
Q 6.984375 53.65625 15.1875 63.9375 
Q 23.390625 74.21875 37.203125 74.21875 
Q 40.921875 74.21875 44.703125 73.484375 
Q 48.484375 72.75 52.59375 71.296875 
z
" id="DejaVuSans-54"/>
       </defs>
       <use xlink:href="#DejaVuSans-48"/>
       <use x="63.623047" xlink:href="#DejaVuSans-46"/>
       <use x="95.410156" xlink:href="#DejaVuSans-54"/>
      </g>
     </g>
    </g>
    <g id="xtick_5">
     <g id="line2d_5">
      <g>
       <use style="stroke:#000000;stroke-width:0.8;" x="547.933793" xlink:href="#me32b31ab67" y="450.72"/>
      </g>
     </g>
     <g id="text_5">
      <!-- 0.8 -->
      <g transform="translate(528.054886 476.716094)scale(0.25 -0.25)">
       <defs>
        <path d="M 31.78125 34.625 
Q 24.75 34.625 20.71875 30.859375 
Q 16.703125 27.09375 16.703125 20.515625 
Q 16.703125 13.921875 20.71875 10.15625 
Q 24.75 6.390625 31.78125 6.390625 
Q 38.8125 6.390625 42.859375 10.171875 
Q 46.921875 13.96875 46.921875 20.515625 
Q 46.921875 27.09375 42.890625 30.859375 
Q 38.875 34.625 31.78125 34.625 
z
M 21.921875 38.8125 
Q 15.578125 40.375 12.03125 44.71875 
Q 8.5 49.078125 8.5 55.328125 
Q 8.5 64.0625 14.71875 69.140625 
Q 20.953125 74.21875 31.78125 74.21875 
Q 42.671875 74.21875 48.875 69.140625 
Q 55.078125 64.0625 55.078125 55.328125 
Q 55.078125 49.078125 51.53125 44.71875 
Q 48 40.375 41.703125 38.8125 
Q 48.828125 37.15625 52.796875 32.3125 
Q 56.78125 27.484375 56.78125 20.515625 
Q 56.78125 9.90625 50.3125 4.234375 
Q 43.84375 -1.421875 31.78125 -1.421875 
Q 19.734375 -1.421875 13.25 4.234375 
Q 6.78125 9.90625 6.78125 20.515625 
Q 6.78125 27.484375 10.78125 32.3125 
Q 14.796875 37.15625 21.921875 38.8125 
z
M 18.3125 54.390625 
Q 18.3125 48.734375 21.84375 45.5625 
Q 25.390625 42.390625 31.78125 42.390625 
Q 38.140625 42.390625 41.71875 45.5625 
Q 45.3125 48.734375 45.3125 54.390625 
Q 45.3125 60.0625 41.71875 63.234375 
Q 38.140625 66.40625 31.78125 66.40625 
Q 25.390625 66.40625 21.84375 63.234375 
Q 18.3125 60.0625 18.3125 54.390625 
z
" id="DejaVuSans-56"/>
       </defs>
       <use xlink:href="#DejaVuSans-48"/>
       <use x="63.623047" xlink:href="#DejaVuSans-46"/>
       <use x="95.410156" xlink:href="#DejaVuSans-56"/>
      </g>
     </g>
    </g>
    <g id="xtick_6">
     <g id="line2d_6">
      <g>
       <use style="stroke:#000000;stroke-width:0.8;" x="649.388338" xlink:href="#me32b31ab67" y="450.72"/>
      </g>
     </g>
     <g id="text_6">
      <!-- 1.0 -->
      <g transform="translate(629.509432 476.716094)scale(0.25 -0.25)">
       <defs>
        <path d="M 12.40625 8.296875 
L 28.515625 8.296875 
L 28.515625 63.921875 
L 10.984375 60.40625 
L 10.984375 69.390625 
L 28.421875 72.90625 
L 38.28125 72.90625 
L 38.28125 8.296875 
L 54.390625 8.296875 
L 54.390625 0 
L 12.40625 0 
z
" id="DejaVuSans-49"/>
       </defs>
       <use xlink:href="#DejaVuSans-49"/>
       <use x="63.623047" xlink:href="#DejaVuSans-46"/>
       <use x="95.410156" xlink:href="#DejaVuSans-48"/>
      </g>
     </g>
    </g>
    <g id="xtick_7">
     <g id="line2d_7">
      <g>
       <use style="stroke:#000000;stroke-width:0.8;" x="750.842884" xlink:href="#me32b31ab67" y="450.72"/>
      </g>
     </g>
     <g id="text_7">
      <!-- 1.2 -->
      <g transform="translate(730.963977 476.716094)scale(0.25 -0.25)">
       <use xlink:href="#DejaVuSans-49"/>
       <use x="63.623047" xlink:href="#DejaVuSans-46"/>
       <use x="95.410156" xlink:href="#DejaVuSans-50"/>
      </g>
     </g>
    </g>
    <g id="xtick_8">
     <g id="line2d_8">
      <g>
       <use style="stroke:#000000;stroke-width:0.8;" x="852.297429" xlink:href="#me32b31ab67" y="450.72"/>
      </g>
     </g>
     <g id="text_8">
      <!-- 1.4 -->
      <g transform="translate(832.418523 476.716094)scale(0.25 -0.25)">
       <use xlink:href="#DejaVuSans-49"/>
       <use x="63.623047" xlink:href="#DejaVuSans-46"/>
       <use x="95.410156" xlink:href="#DejaVuSans-52"/>
      </g>
     </g>
    </g>
    <g id="text_9">
     <!-- Beam Length [m] -->
     <g transform="translate(409.110625 505.67125)scale(0.26 -0.26)">
      <defs>
       <path d="M 19.671875 34.8125 
L 19.671875 8.109375 
L 35.5 8.109375 
Q 43.453125 8.109375 47.28125 11.40625 
Q 51.125 14.703125 51.125 21.484375 
Q 51.125 28.328125 47.28125 31.5625 
Q 43.453125 34.8125 35.5 34.8125 
z
M 19.671875 64.796875 
L 19.671875 42.828125 
L 34.28125 42.828125 
Q 41.5 42.828125 45.03125 45.53125 
Q 48.578125 48.25 48.578125 53.8125 
Q 48.578125 59.328125 45.03125 62.0625 
Q 41.5 64.796875 34.28125 64.796875 
z
M 9.8125 72.90625 
L 35.015625 72.90625 
Q 46.296875 72.90625 52.390625 68.21875 
Q 58.5 63.53125 58.5 54.890625 
Q 58.5 48.1875 55.375 44.234375 
Q 52.25 40.28125 46.1875 39.3125 
Q 53.46875 37.75 57.5 32.78125 
Q 61.53125 27.828125 61.53125 20.40625 
Q 61.53125 10.640625 54.890625 5.3125 
Q 48.25 0 35.984375 0 
L 9.8125 0 
z
" id="DejaVuSans-66"/>
       <path d="M 56.203125 29.59375 
L 56.203125 25.203125 
L 14.890625 25.203125 
Q 15.484375 15.921875 20.484375 11.0625 
Q 25.484375 6.203125 34.421875 6.203125 
Q 39.59375 6.203125 44.453125 7.46875 
Q 49.3125 8.734375 54.109375 11.28125 
L 54.109375 2.78125 
Q 49.265625 0.734375 44.1875 -0.34375 
Q 39.109375 -1.421875 33.890625 -1.421875 
Q 20.796875 -1.421875 13.15625 6.1875 
Q 5.515625 13.8125 5.515625 26.8125 
Q 5.515625 40.234375 12.765625 48.109375 
Q 20.015625 56 32.328125 56 
Q 43.359375 56 49.78125 48.890625 
Q 56.203125 41.796875 56.203125 29.59375 
z
M 47.21875 32.234375 
Q 47.125 39.59375 43.09375 43.984375 
Q 39.0625 48.390625 32.421875 48.390625 
Q 24.90625 48.390625 20.390625 44.140625 
Q 15.875 39.890625 15.1875 32.171875 
z
" id="DejaVuSans-101"/>
       <path d="M 34.28125 27.484375 
Q 23.390625 27.484375 19.1875 25 
Q 14.984375 22.515625 14.984375 16.5 
Q 14.984375 11.71875 18.140625 8.90625 
Q 21.296875 6.109375 26.703125 6.109375 
Q 34.1875 6.109375 38.703125 11.40625 
Q 43.21875 16.703125 43.21875 25.484375 
L 43.21875 27.484375 
z
M 52.203125 31.203125 
L 52.203125 0 
L 43.21875 0 
L 43.21875 8.296875 
Q 40.140625 3.328125 35.546875 0.953125 
Q 30.953125 -1.421875 24.3125 -1.421875 
Q 15.921875 -1.421875 10.953125 3.296875 
Q 6 8.015625 6 15.921875 
Q 6 25.140625 12.171875 29.828125 
Q 18.359375 34.515625 30.609375 34.515625 
L 43.21875 34.515625 
L 43.21875 35.40625 
Q 43.21875 41.609375 39.140625 45 
Q 35.0625 48.390625 27.6875 48.390625 
Q 23 48.390625 18.546875 47.265625 
Q 14.109375 46.140625 10.015625 43.890625 
L 10.015625 52.203125 
Q 14.9375 54.109375 19.578125 55.046875 
Q 24.21875 56 28.609375 56 
Q 40.484375 56 46.34375 49.84375 
Q 52.203125 43.703125 52.203125 31.203125 
z
" id="DejaVuSans-97"/>
       <path d="M 52 44.1875 
Q 55.375 50.25 60.0625 53.125 
Q 64.75 56 71.09375 56 
Q 79.640625 56 84.28125 50.015625 
Q 88.921875 44.046875 88.921875 33.015625 
L 88.921875 0 
L 79.890625 0 
L 79.890625 32.71875 
Q 79.890625 40.578125 77.09375 44.375 
Q 74.3125 48.1875 68.609375 48.1875 
Q 61.625 48.1875 57.5625 43.546875 
Q 53.515625 38.921875 53.515625 30.90625 
L 53.515625 0 
L 44.484375 0 
L 44.484375 32.71875 
Q 44.484375 40.625 41.703125 44.40625 
Q 38.921875 48.1875 33.109375 48.1875 
Q 26.21875 48.1875 22.15625 43.53125 
Q 18.109375 38.875 18.109375 30.90625 
L 18.109375 0 
L 9.078125 0 
L 9.078125 54.6875 
L 18.109375 54.6875 
L 18.109375 46.1875 
Q 21.1875 51.21875 25.484375 53.609375 
Q 29.78125 56 35.6875 56 
Q 41.65625 56 45.828125 52.96875 
Q 50 49.953125 52 44.1875 
z
" id="DejaVuSans-109"/>
       <path id="DejaVuSans-32"/>
       <path d="M 9.8125 72.90625 
L 19.671875 72.90625 
L 19.671875 8.296875 
L 55.171875 8.296875 
L 55.171875 0 
L 9.8125 0 
z
" id="DejaVuSans-76"/>
       <path d="M 54.890625 33.015625 
L 54.890625 0 
L 45.90625 0 
L 45.90625 32.71875 
Q 45.90625 40.484375 42.875 44.328125 
Q 39.84375 48.1875 33.796875 48.1875 
Q 26.515625 48.1875 22.3125 43.546875 
Q 18.109375 38.921875 18.109375 30.90625 
L 18.109375 0 
L 9.078125 0 
L 9.078125 54.6875 
L 18.109375 54.6875 
L 18.109375 46.1875 
Q 21.34375 51.125 25.703125 53.5625 
Q 30.078125 56 35.796875 56 
Q 45.21875 56 50.046875 50.171875 
Q 54.890625 44.34375 54.890625 33.015625 
z
" id="DejaVuSans-110"/>
       <path d="M 45.40625 27.984375 
Q 45.40625 37.75 41.375 43.109375 
Q 37.359375 48.484375 30.078125 48.484375 
Q 22.859375 48.484375 18.828125 43.109375 
Q 14.796875 37.75 14.796875 27.984375 
Q 14.796875 18.265625 18.828125 12.890625 
Q 22.859375 7.515625 30.078125 7.515625 
Q 37.359375 7.515625 41.375 12.890625 
Q 45.40625 18.265625 45.40625 27.984375 
z
M 54.390625 6.78125 
Q 54.390625 -7.171875 48.1875 -13.984375 
Q 42 -20.796875 29.203125 -20.796875 
Q 24.46875 -20.796875 20.265625 -20.09375 
Q 16.0625 -19.390625 12.109375 -17.921875 
L 12.109375 -9.1875 
Q 16.0625 -11.328125 19.921875 -12.34375 
Q 23.78125 -13.375 27.78125 -13.375 
Q 36.625 -13.375 41.015625 -8.765625 
Q 45.40625 -4.15625 45.40625 5.171875 
L 45.40625 9.625 
Q 42.625 4.78125 38.28125 2.390625 
Q 33.9375 0 27.875 0 
Q 17.828125 0 11.671875 7.65625 
Q 5.515625 15.328125 5.515625 27.984375 
Q 5.515625 40.671875 11.671875 48.328125 
Q 17.828125 56 27.875 56 
Q 33.9375 56 38.28125 53.609375 
Q 42.625 51.21875 45.40625 46.390625 
L 45.40625 54.6875 
L 54.390625 54.6875 
z
" id="DejaVuSans-103"/>
       <path d="M 18.3125 70.21875 
L 18.3125 54.6875 
L 36.8125 54.6875 
L 36.8125 47.703125 
L 18.3125 47.703125 
L 18.3125 18.015625 
Q 18.3125 11.328125 20.140625 9.421875 
Q 21.96875 7.515625 27.59375 7.515625 
L 36.8125 7.515625 
L 36.8125 0 
L 27.59375 0 
Q 17.1875 0 13.234375 3.875 
Q 9.28125 7.765625 9.28125 18.015625 
L 9.28125 47.703125 
L 2.6875 47.703125 
L 2.6875 54.6875 
L 9.28125 54.6875 
L 9.28125 70.21875 
z
" id="DejaVuSans-116"/>
       <path d="M 54.890625 33.015625 
L 54.890625 0 
L 45.90625 0 
L 45.90625 32.71875 
Q 45.90625 40.484375 42.875 44.328125 
Q 39.84375 48.1875 33.796875 48.1875 
Q 26.515625 48.1875 22.3125 43.546875 
Q 18.109375 38.921875 18.109375 30.90625 
L 18.109375 0 
L 9.078125 0 
L 9.078125 75.984375 
L 18.109375 75.984375 
L 18.109375 46.1875 
Q 21.34375 51.125 25.703125 53.5625 
Q 30.078125 56 35.796875 56 
Q 45.21875 56 50.046875 50.171875 
Q 54.890625 44.34375 54.890625 33.015625 
z
" id="DejaVuSans-104"/>
       <path d="M 8.59375 75.984375 
L 29.296875 75.984375 
L 29.296875 69 
L 17.578125 69 
L 17.578125 -6.203125 
L 29.296875 -6.203125 
L 29.296875 -13.1875 
L 8.59375 -13.1875 
z
" id="DejaVuSans-91"/>
       <path d="M 30.421875 75.984375 
L 30.421875 -13.1875 
L 9.71875 -13.1875 
L 9.71875 -6.203125 
L 21.390625 -6.203125 
L 21.390625 69 
L 9.71875 69 
L 9.71875 75.984375 
z
" id="DejaVuSans-93"/>
      </defs>
      <use xlink:href="#DejaVuSans-66"/>
      <use x="68.603516" xlink:href="#DejaVuSans-101"/>
      <use x="130.126953" xlink:href="#DejaVuSans-97"/>
      <use x="191.40625" xlink:href="#DejaVuSans-109"/>
      <use x="288.818359" xlink:href="#DejaVuSans-32"/>
      <use x="320.605469" xlink:href="#DejaVuSans-76"/>
      <use x="374.568359" xlink:href="#DejaVuSans-101"/>
      <use x="436.091797" xlink:href="#DejaVuSans-110"/>
      <use x="499.470703" xlink:href="#DejaVuSans-103"/>
      <use x="562.947266" xlink:href="#DejaVuSans-116"/>
      <use x="602.15625" xlink:href="#DejaVuSans-104"/>
      <use x="665.535156" xlink:href="#DejaVuSans-32"/>
      <use x="697.322266" xlink:href="#DejaVuSans-91"/>
      <use x="736.335938" xlink:href="#DejaVuSans-109"/>
      <use x="833.748047" xlink:href="#DejaVuSans-93"/>
     </g>
    </g>
   </g>
   <g id="matplotlib.axis_2">
    <g id="ytick_1">
     <g id="line2d_9">
      <defs>
       <path d="M 0 0 
L -3.5 0 
" id="md52c154300" style="stroke:#000000;stroke-width:0.8;"/>
      </defs>
      <g>
       <use style="stroke:#000000;stroke-width:0.8;" x="104.070156" xlink:href="#md52c154300" y="440.050764"/>
      </g>
     </g>
     <g id="text_10">
      <!-- −2.0 -->
      <g transform="translate(36.363125 449.54881)scale(0.25 -0.25)">
       <defs>
        <path d="M 10.59375 35.5 
L 73.1875 35.5 
L 73.1875 27.203125 
L 10.59375 27.203125 
z
" id="DejaVuSans-8722"/>
       </defs>
       <use xlink:href="#DejaVuSans-8722"/>
       <use x="83.789062" xlink:href="#DejaVuSans-50"/>
       <use x="147.412109" xlink:href="#DejaVuSans-46"/>
       <use x="179.199219" xlink:href="#DejaVuSans-48"/>
      </g>
     </g>
    </g>
    <g id="ytick_2">
     <g id="line2d_10">
      <g>
       <use style="stroke:#000000;stroke-width:0.8;" x="104.070156" xlink:href="#md52c154300" y="390.633705"/>
      </g>
     </g>
     <g id="text_11">
      <!-- −1.5 -->
      <g transform="translate(36.363125 400.131752)scale(0.25 -0.25)">
       <defs>
        <path d="M 10.796875 72.90625 
L 49.515625 72.90625 
L 49.515625 64.59375 
L 19.828125 64.59375 
L 19.828125 46.734375 
Q 21.96875 47.46875 24.109375 47.828125 
Q 26.265625 48.1875 28.421875 48.1875 
Q 40.625 48.1875 47.75 41.5 
Q 54.890625 34.8125 54.890625 23.390625 
Q 54.890625 11.625 47.5625 5.09375 
Q 40.234375 -1.421875 26.90625 -1.421875 
Q 22.3125 -1.421875 17.546875 -0.640625 
Q 12.796875 0.140625 7.71875 1.703125 
L 7.71875 11.625 
Q 12.109375 9.234375 16.796875 8.0625 
Q 21.484375 6.890625 26.703125 6.890625 
Q 35.15625 6.890625 40.078125 11.328125 
Q 45.015625 15.765625 45.015625 23.390625 
Q 45.015625 31 40.078125 35.4375 
Q 35.15625 39.890625 26.703125 39.890625 
Q 22.75 39.890625 18.8125 39.015625 
Q 14.890625 38.140625 10.796875 36.28125 
z
" id="DejaVuSans-53"/>
       </defs>
       <use xlink:href="#DejaVuSans-8722"/>
       <use x="83.789062" xlink:href="#DejaVuSans-49"/>
       <use x="147.412109" xlink:href="#DejaVuSans-46"/>
       <use x="179.199219" xlink:href="#DejaVuSans-53"/>
      </g>
     </g>
    </g>
    <g id="ytick_3">
     <g id="line2d_11">
      <g>
       <use style="stroke:#000000;stroke-width:0.8;" x="104.070156" xlink:href="#md52c154300" y="341.216646"/>
      </g>
     </g>
     <g id="text_12">
      <!-- −1.0 -->
      <g transform="translate(36.363125 350.714693)scale(0.25 -0.25)">
       <use xlink:href="#DejaVuSans-8722"/>
       <use x="83.789062" xlink:href="#DejaVuSans-49"/>
       <use x="147.412109" xlink:href="#DejaVuSans-46"/>
       <use x="179.199219" xlink:href="#DejaVuSans-48"/>
      </g>
     </g>
    </g>
    <g id="ytick_4">
     <g id="line2d_12">
      <g>
       <use style="stroke:#000000;stroke-width:0.8;" x="104.070156" xlink:href="#md52c154300" y="291.799587"/>
      </g>
     </g>
     <g id="text_13">
      <!-- −0.5 -->
      <g transform="translate(36.363125 301.297634)scale(0.25 -0.25)">
       <use xlink:href="#DejaVuSans-8722"/>
       <use x="83.789062" xlink:href="#DejaVuSans-48"/>
       <use x="147.412109" xlink:href="#DejaVuSans-46"/>
       <use x="179.199219" xlink:href="#DejaVuSans-53"/>
      </g>
     </g>
    </g>
    <g id="ytick_5">
     <g id="line2d_13">
      <g>
       <use style="stroke:#000000;stroke-width:0.8;" x="104.070156" xlink:href="#md52c154300" y="242.382528"/>
      </g>
     </g>
     <g id="text_14">
      <!-- 0.0 -->
      <g transform="translate(57.312344 251.880575)scale(0.25 -0.25)">
       <use xlink:href="#DejaVuSans-48"/>
       <use x="63.623047" xlink:href="#DejaVuSans-46"/>
       <use x="95.410156" xlink:href="#DejaVuSans-48"/>
      </g>
     </g>
    </g>
    <g id="ytick_6">
     <g id="line2d_14">
      <g>
       <use style="stroke:#000000;stroke-width:0.8;" x="104.070156" xlink:href="#md52c154300" y="192.965469"/>
      </g>
     </g>
     <g id="text_15">
      <!-- 0.5 -->
      <g transform="translate(57.312344 202.463516)scale(0.25 -0.25)">
       <use xlink:href="#DejaVuSans-48"/>
       <use x="63.623047" xlink:href="#DejaVuSans-46"/>
       <use x="95.410156" xlink:href="#DejaVuSans-53"/>
      </g>
     </g>
    </g>
    <g id="ytick_7">
     <g id="line2d_15">
      <g>
       <use style="stroke:#000000;stroke-width:0.8;" x="104.070156" xlink:href="#md52c154300" y="143.54841"/>
      </g>
     </g>
     <g id="text_16">
      <!-- 1.0 -->
      <g transform="translate(57.312344 153.046457)scale(0.25 -0.25)">
       <use xlink:href="#DejaVuSans-49"/>
       <use x="63.623047" xlink:href="#DejaVuSans-46"/>
       <use x="95.410156" xlink:href="#DejaVuSans-48"/>
      </g>
     </g>
    </g>
    <g id="ytick_8">
     <g id="line2d_16">
      <g>
       <use style="stroke:#000000;stroke-width:0.8;" x="104.070156" xlink:href="#md52c154300" y="94.131351"/>
      </g>
     </g>
     <g id="text_17">
      <!-- 1.5 -->
      <g transform="translate(57.312344 103.629398)scale(0.25 -0.25)">
       <use xlink:href="#DejaVuSans-49"/>
       <use x="63.623047" xlink:href="#DejaVuSans-46"/>
       <use x="95.410156" xlink:href="#DejaVuSans-53"/>
      </g>
     </g>
    </g>
    <g id="ytick_9">
     <g id="line2d_17">
      <g>
       <use style="stroke:#000000;stroke-width:0.8;" x="104.070156" xlink:href="#md52c154300" y="44.714293"/>
      </g>
     </g>
     <g id="text_18">
      <!-- 2.0 -->
      <g transform="translate(57.312344 54.212339)scale(0.25 -0.25)">
       <use xlink:href="#DejaVuSans-50"/>
       <use x="63.623047" xlink:href="#DejaVuSans-46"/>
       <use x="95.410156" xlink:href="#DejaVuSans-48"/>
      </g>
     </g>
    </g>
    <g id="text_19">
     <!-- Amplitude -->
     <g transform="translate(26.955938 295.578906)rotate(-90)scale(0.26 -0.26)">
      <defs>
       <path d="M 34.1875 63.1875 
L 20.796875 26.90625 
L 47.609375 26.90625 
z
M 28.609375 72.90625 
L 39.796875 72.90625 
L 67.578125 0 
L 57.328125 0 
L 50.6875 18.703125 
L 17.828125 18.703125 
L 11.1875 0 
L 0.78125 0 
z
" id="DejaVuSans-65"/>
       <path d="M 18.109375 8.203125 
L 18.109375 -20.796875 
L 9.078125 -20.796875 
L 9.078125 54.6875 
L 18.109375 54.6875 
L 18.109375 46.390625 
Q 20.953125 51.265625 25.265625 53.625 
Q 29.59375 56 35.59375 56 
Q 45.5625 56 51.78125 48.09375 
Q 58.015625 40.1875 58.015625 27.296875 
Q 58.015625 14.40625 51.78125 6.484375 
Q 45.5625 -1.421875 35.59375 -1.421875 
Q 29.59375 -1.421875 25.265625 0.953125 
Q 20.953125 3.328125 18.109375 8.203125 
z
M 48.6875 27.296875 
Q 48.6875 37.203125 44.609375 42.84375 
Q 40.53125 48.484375 33.40625 48.484375 
Q 26.265625 48.484375 22.1875 42.84375 
Q 18.109375 37.203125 18.109375 27.296875 
Q 18.109375 17.390625 22.1875 11.75 
Q 26.265625 6.109375 33.40625 6.109375 
Q 40.53125 6.109375 44.609375 11.75 
Q 48.6875 17.390625 48.6875 27.296875 
z
" id="DejaVuSans-112"/>
       <path d="M 9.421875 75.984375 
L 18.40625 75.984375 
L 18.40625 0 
L 9.421875 0 
z
" id="DejaVuSans-108"/>
       <path d="M 9.421875 54.6875 
L 18.40625 54.6875 
L 18.40625 0 
L 9.421875 0 
z
M 9.421875 75.984375 
L 18.40625 75.984375 
L 18.40625 64.59375 
L 9.421875 64.59375 
z
" id="DejaVuSans-105"/>
       <path d="M 8.5 21.578125 
L 8.5 54.6875 
L 17.484375 54.6875 
L 17.484375 21.921875 
Q 17.484375 14.15625 20.5 10.265625 
Q 23.53125 6.390625 29.59375 6.390625 
Q 36.859375 6.390625 41.078125 11.03125 
Q 45.3125 15.671875 45.3125 23.6875 
L 45.3125 54.6875 
L 54.296875 54.6875 
L 54.296875 0 
L 45.3125 0 
L 45.3125 8.40625 
Q 42.046875 3.421875 37.71875 1 
Q 33.40625 -1.421875 27.6875 -1.421875 
Q 18.265625 -1.421875 13.375 4.4375 
Q 8.5 10.296875 8.5 21.578125 
z
M 31.109375 56 
z
" id="DejaVuSans-117"/>
       <path d="M 45.40625 46.390625 
L 45.40625 75.984375 
L 54.390625 75.984375 
L 54.390625 0 
L 45.40625 0 
L 45.40625 8.203125 
Q 42.578125 3.328125 38.25 0.953125 
Q 33.9375 -1.421875 27.875 -1.421875 
Q 17.96875 -1.421875 11.734375 6.484375 
Q 5.515625 14.40625 5.515625 27.296875 
Q 5.515625 40.1875 11.734375 48.09375 
Q 17.96875 56 27.875 56 
Q 33.9375 56 38.25 53.625 
Q 42.578125 51.265625 45.40625 46.390625 
z
M 14.796875 27.296875 
Q 14.796875 17.390625 18.875 11.75 
Q 22.953125 6.109375 30.078125 6.109375 
Q 37.203125 6.109375 41.296875 11.75 
Q 45.40625 17.390625 45.40625 27.296875 
Q 45.40625 37.203125 41.296875 42.84375 
Q 37.203125 48.484375 30.078125 48.484375 
Q 22.953125 48.484375 18.875 42.84375 
Q 14.796875 37.203125 14.796875 27.296875 
z
" id="DejaVuSans-100"/>
      </defs>
      <use xlink:href="#DejaVuSans-65"/>
      <use x="68.408203" xlink:href="#DejaVuSans-109"/>
      <use x="165.820312" xlink:href="#DejaVuSans-112"/>
      <use x="229.296875" xlink:href="#DejaVuSans-108"/>
      <use x="257.080078" xlink:href="#DejaVuSans-105"/>
      <use x="284.863281" xlink:href="#DejaVuSans-116"/>
      <use x="324.072266" xlink:href="#DejaVuSans-117"/>
      <use x="387.451172" xlink:href="#DejaVuSans-100"/>
      <use x="450.927734" xlink:href="#DejaVuSans-101"/>
     </g>
    </g>
   </g>
   <g id="line2d_18">
    <defs>
     <path d="M 0 -3 
L -3 3 
L 3 3 
z
" id="me11169b6cf" style="stroke:#000000;stroke-linejoin:miter;"/>
    </defs>
    <g clip-path="url(#p623680bf8c)">
     <use style="stroke:#000000;stroke-linejoin:miter;" x="142.115611" xlink:href="#me11169b6cf" y="242.382528"/>
     <use style="stroke:#000000;stroke-linejoin:miter;" x="147.188338" xlink:href="#me11169b6cf" y="238.579075"/>
     <use style="stroke:#000000;stroke-linejoin:miter;" x="152.261065" xlink:href="#me11169b6cf" y="228.204991"/>
     <use style="stroke:#000000;stroke-linejoin:miter;" x="157.333793" xlink:href="#me11169b6cf" y="212.705339"/>
     <use style="stroke:#000000;stroke-linejoin:miter;" x="162.40652" xlink:href="#me11169b6cf" y="193.504916"/>
     <use style="stroke:#000000;stroke-linejoin:miter;" x="167.479247" xlink:href="#me11169b6cf" y="171.99282"/>
     <use style="stroke:#000000;stroke-linejoin:miter;" x="172.551974" xlink:href="#me11169b6cf" y="149.50318"/>
     <use style="stroke:#000000;stroke-linejoin:miter;" x="177.624702" xlink:href="#me11169b6cf" y="127.293746"/>
     <use style="stroke:#000000;stroke-linejoin:miter;" x="182.697429" xlink:href="#me11169b6cf" y="106.523393"/>
     <use style="stroke:#000000;stroke-linejoin:miter;" x="187.770156" xlink:href="#me11169b6cf" y="88.230302"/>
     <use style="stroke:#000000;stroke-linejoin:miter;" x="192.842884" xlink:href="#me11169b6cf" y="73.310927"/>
     <use style="stroke:#000000;stroke-linejoin:miter;" x="197.915611" xlink:href="#me11169b6cf" y="62.5023"/>
     <use style="stroke:#000000;stroke-linejoin:miter;" x="202.988338" xlink:href="#me11169b6cf" y="56.367211"/>
     <use style="stroke:#000000;stroke-linejoin:miter;" x="208.061065" xlink:href="#me11169b6cf" y="55.283631"/>
     <use style="stroke:#000000;stroke-linejoin:miter;" x="213.133793" xlink:href="#me11169b6cf" y="59.438979"/>
     <use style="stroke:#000000;stroke-linejoin:miter;" x="218.20652" xlink:href="#me11169b6cf" y="68.82933"/>
     <use style="stroke:#000000;stroke-linejoin:miter;" x="223.279247" xlink:href="#me11169b6cf" y="83.263867"/>
     <use style="stroke:#000000;stroke-linejoin:miter;" x="228.351974" xlink:href="#me11169b6cf" y="102.374561"/>
     <use style="stroke:#000000;stroke-linejoin:miter;" x="233.424702" xlink:href="#me11169b6cf" y="125.631001"/>
     <use style="stroke:#000000;stroke-linejoin:miter;" x="238.497429" xlink:href="#me11169b6cf" y="152.359773"/>
     <use style="stroke:#000000;stroke-linejoin:miter;" x="243.570156" xlink:href="#me11169b6cf" y="181.767696"/>
     <use style="stroke:#000000;stroke-linejoin:miter;" x="248.642884" xlink:href="#me11169b6cf" y="212.969101"/>
     <use style="stroke:#000000;stroke-linejoin:miter;" x="253.715611" xlink:href="#me11169b6cf" y="245.015123"/>
     <use style="stroke:#000000;stroke-linejoin:miter;" x="258.788338" xlink:href="#me11169b6cf" y="276.92501"/>
     <use style="stroke:#000000;stroke-linejoin:miter;" x="263.861065" xlink:href="#me11169b6cf" y="307.71815"/>
     <use style="stroke:#000000;stroke-linejoin:miter;" x="268.933793" xlink:href="#me11169b6cf" y="336.445919"/>
     <use style="stroke:#000000;stroke-linejoin:miter;" x="274.00652" xlink:href="#me11169b6cf" y="362.222317"/>
     <use style="stroke:#000000;stroke-linejoin:miter;" x="279.079247" xlink:href="#me11169b6cf" y="384.252384"/>
     <use style="stroke:#000000;stroke-linejoin:miter;" x="284.151974" xlink:href="#me11169b6cf" y="401.857842"/>
     <use style="stroke:#000000;stroke-linejoin:miter;" x="289.224702" xlink:href="#me11169b6cf" y="414.498894"/>
     <use style="stroke:#000000;stroke-linejoin:miter;" x="294.297429" xlink:href="#me11169b6cf" y="421.791114"/>
     <use style="stroke:#000000;stroke-linejoin:miter;" x="299.370156" xlink:href="#me11169b6cf" y="423.517894"/>
     <use style="stroke:#000000;stroke-linejoin:miter;" x="304.442884" xlink:href="#me11169b6cf" y="419.637665"/>
     <use style="stroke:#000000;stroke-linejoin:miter;" x="309.515611" xlink:href="#me11169b6cf" y="410.284583"/>
     <use style="stroke:#000000;stroke-linejoin:miter;" x="314.588338" xlink:href="#me11169b6cf" y="395.764779"/>
     <use style="stroke:#000000;stroke-linejoin:miter;" x="319.661065" xlink:href="#me11169b6cf" y="376.546666"/>
     <use style="stroke:#000000;stroke-linejoin:miter;" x="324.733793" xlink:href="#me11169b6cf" y="353.245629"/>
     <use style="stroke:#000000;stroke-linejoin:miter;" x="329.80652" xlink:href="#me11169b6cf" y="326.604998"/>
     <use style="stroke:#000000;stroke-linejoin:miter;" x="334.879247" xlink:href="#me11169b6cf" y="297.472438"/>
     <use style="stroke:#000000;stroke-linejoin:miter;" x="339.951974" xlink:href="#me11169b6cf" y="266.77308"/>
     <use style="stroke:#000000;stroke-linejoin:miter;" x="345.024702" xlink:href="#me11169b6cf" y="235.480372"/>
     <use style="stroke:#000000;stroke-linejoin:miter;" x="350.097429" xlink:href="#me11169b6cf" y="204.58539"/>
     <use style="stroke:#000000;stroke-linejoin:miter;" x="355.170156" xlink:href="#me11169b6cf" y="175.065566"/>
     <use style="stroke:#000000;stroke-linejoin:miter;" x="360.242884" xlink:href="#me11169b6cf" y="147.853961"/>
     <use style="stroke:#000000;stroke-linejoin:miter;" x="365.315611" xlink:href="#me11169b6cf" y="123.809834"/>
     <use style="stroke:#000000;stroke-linejoin:miter;" x="370.388338" xlink:href="#me11169b6cf" y="103.691901"/>
     <use style="stroke:#000000;stroke-linejoin:miter;" x="375.461065" xlink:href="#me11169b6cf" y="88.134132"/>
     <use style="stroke:#000000;stroke-linejoin:miter;" x="380.533793" xlink:href="#me11169b6cf" y="77.626196"/>
     <use style="stroke:#000000;stroke-linejoin:miter;" x="385.60652" xlink:href="#me11169b6cf" y="72.498249"/>
     <use style="stroke:#000000;stroke-linejoin:miter;" x="390.679247" xlink:href="#me11169b6cf" y="72.910451"/>
     <use style="stroke:#000000;stroke-linejoin:miter;" x="395.751974" xlink:href="#me11169b6cf" y="78.84832"/>
     <use style="stroke:#000000;stroke-linejoin:miter;" x="400.824702" xlink:href="#me11169b6cf" y="90.123331"/>
     <use style="stroke:#000000;stroke-linejoin:miter;" x="405.897429" xlink:href="#me11169b6cf" y="106.378841"/>
     <use style="stroke:#000000;stroke-linejoin:miter;" x="410.970156" xlink:href="#me11169b6cf" y="127.101755"/>
     <use style="stroke:#000000;stroke-linejoin:miter;" x="416.042884" xlink:href="#me11169b6cf" y="151.638909"/>
     <use style="stroke:#000000;stroke-linejoin:miter;" x="421.115611" xlink:href="#me11169b6cf" y="179.217393"/>
     <use style="stroke:#000000;stroke-linejoin:miter;" x="426.188338" xlink:href="#me11169b6cf" y="208.969376"/>
     <use style="stroke:#000000;stroke-linejoin:miter;" x="431.261065" xlink:href="#me11169b6cf" y="239.959443"/>
     <use style="stroke:#000000;stroke-linejoin:miter;" x="436.333793" xlink:href="#me11169b6cf" y="271.214105"/>
     <use style="stroke:#000000;stroke-linejoin:miter;" x="441.40652" xlink:href="#me11169b6cf" y="301.752502"/>
     <use style="stroke:#000000;stroke-linejoin:miter;" x="446.479247" xlink:href="#me11169b6cf" y="330.617357"/>
     <use style="stroke:#000000;stroke-linejoin:miter;" x="451.551974" xlink:href="#me11169b6cf" y="356.905074"/>
     <use style="stroke:#000000;stroke-linejoin:miter;" x="456.624702" xlink:href="#me11169b6cf" y="379.794051"/>
     <use style="stroke:#000000;stroke-linejoin:miter;" x="461.697429" xlink:href="#me11169b6cf" y="398.570783"/>
     <use style="stroke:#000000;stroke-linejoin:miter;" x="466.770156" xlink:href="#me11169b6cf" y="412.652006"/>
     <use style="stroke:#000000;stroke-linejoin:miter;" x="471.842884" xlink:href="#me11169b6cf" y="421.60271"/>
     <use style="stroke:#000000;stroke-linejoin:miter;" x="476.915611" xlink:href="#me11169b6cf" y="425.150368"/>
     <use style="stroke:#000000;stroke-linejoin:miter;" x="481.988338" xlink:href="#me11169b6cf" y="423.192942"/>
     <use style="stroke:#000000;stroke-linejoin:miter;" x="487.061065" xlink:href="#me11169b6cf" y="415.801752"/>
     <use style="stroke:#000000;stroke-linejoin:miter;" x="492.133793" xlink:href="#me11169b6cf" y="403.219789"/>
     <use style="stroke:#000000;stroke-linejoin:miter;" x="497.20652" xlink:href="#me11169b6cf" y="385.853025"/>
     <use style="stroke:#000000;stroke-linejoin:miter;" x="502.279247" xlink:href="#me11169b6cf" y="364.258456"/>
     <use style="stroke:#000000;stroke-linejoin:miter;" x="507.351974" xlink:href="#me11169b6cf" y="339.125563"/>
     <use style="stroke:#000000;stroke-linejoin:miter;" x="512.424702" xlink:href="#me11169b6cf" y="311.255113"/>
     <use style="stroke:#000000;stroke-linejoin:miter;" x="517.497429" xlink:href="#me11169b6cf" y="281.533539"/>
     <use style="stroke:#000000;stroke-linejoin:miter;" x="522.570156" xlink:href="#me11169b6cf" y="250.905074"/>
     <use style="stroke:#000000;stroke-linejoin:miter;" x="527.642884" xlink:href="#me11169b6cf" y="220.341956"/>
     <use style="stroke:#000000;stroke-linejoin:miter;" x="532.715611" xlink:href="#me11169b6cf" y="190.813771"/>
     <use style="stroke:#000000;stroke-linejoin:miter;" x="537.788338" xlink:href="#me11169b6cf" y="163.256951"/>
     <use style="stroke:#000000;stroke-linejoin:miter;" x="542.861065" xlink:href="#me11169b6cf" y="138.545279"/>
     <use style="stroke:#000000;stroke-linejoin:miter;" x="547.933793" xlink:href="#me11169b6cf" y="117.462262"/>
     <use style="stroke:#000000;stroke-linejoin:miter;" x="553.00652" xlink:href="#me11169b6cf" y="100.676997"/>
     <use style="stroke:#000000;stroke-linejoin:miter;" x="558.079247" xlink:href="#me11169b6cf" y="88.722476"/>
     <use style="stroke:#000000;stroke-linejoin:miter;" x="563.151974" xlink:href="#me11169b6cf" y="81.979371"/>
     <use style="stroke:#000000;stroke-linejoin:miter;" x="568.224702" xlink:href="#me11169b6cf" y="80.664086"/>
     <use style="stroke:#000000;stroke-linejoin:miter;" x="573.297429" xlink:href="#me11169b6cf" y="84.821771"/>
     <use style="stroke:#000000;stroke-linejoin:miter;" x="578.370156" xlink:href="#me11169b6cf" y="94.325195"/>
     <use style="stroke:#000000;stroke-linejoin:miter;" x="583.442884" xlink:href="#me11169b6cf" y="108.879003"/>
     <use style="stroke:#000000;stroke-linejoin:miter;" x="588.515611" xlink:href="#me11169b6cf" y="128.028528"/>
     <use style="stroke:#000000;stroke-linejoin:miter;" x="593.588338" xlink:href="#me11169b6cf" y="151.175014"/>
     <use style="stroke:#000000;stroke-linejoin:miter;" x="598.661065" xlink:href="#me11169b6cf" y="177.593868"/>
     <use style="stroke:#000000;stroke-linejoin:miter;" x="603.733793" xlink:href="#me11169b6cf" y="206.45771"/>
     <use style="stroke:#000000;stroke-linejoin:miter;" x="608.80652" xlink:href="#me11169b6cf" y="236.862682"/>
     <use style="stroke:#000000;stroke-linejoin:miter;" x="613.879247" xlink:href="#me11169b6cf" y="267.856745"/>
     <use style="stroke:#000000;stroke-linejoin:miter;" x="618.951974" xlink:href="#me11169b6cf" y="298.469773"/>
     <use style="stroke:#000000;stroke-linejoin:miter;" x="624.024702" xlink:href="#me11169b6cf" y="327.744093"/>
     <use style="stroke:#000000;stroke-linejoin:miter;" x="629.097429" xlink:href="#me11169b6cf" y="354.764599"/>
     <use style="stroke:#000000;stroke-linejoin:miter;" x="634.170156" xlink:href="#me11169b6cf" y="378.687664"/>
     <use style="stroke:#000000;stroke-linejoin:miter;" x="639.242884" xlink:href="#me11169b6cf" y="398.767604"/>
     <use style="stroke:#000000;stroke-linejoin:miter;" x="644.315611" xlink:href="#me11169b6cf" y="414.380084"/>
     <use style="stroke:#000000;stroke-linejoin:miter;" x="649.388338" xlink:href="#me11169b6cf" y="425.041765"/>
     <use style="stroke:#000000;stroke-linejoin:miter;" x="654.461065" xlink:href="#me11169b6cf" y="430.425694"/>
     <use style="stroke:#000000;stroke-linejoin:miter;" x="659.533793" xlink:href="#me11169b6cf" y="430.371247"/>
     <use style="stroke:#000000;stroke-linejoin:miter;" x="664.60652" xlink:href="#me11169b6cf" y="424.889155"/>
     <use style="stroke:#000000;stroke-linejoin:miter;" x="669.679247" xlink:href="#me11169b6cf" y="414.161364"/>
     <use style="stroke:#000000;stroke-linejoin:miter;" x="674.751974" xlink:href="#me11169b6cf" y="398.534959"/>
     <use style="stroke:#000000;stroke-linejoin:miter;" x="679.824702" xlink:href="#me11169b6cf" y="378.511295"/>
     <use style="stroke:#000000;stroke-linejoin:miter;" x="684.897429" xlink:href="#me11169b6cf" y="354.730096"/>
     <use style="stroke:#000000;stroke-linejoin:miter;" x="689.970156" xlink:href="#me11169b6cf" y="327.94947"/>
     <use style="stroke:#000000;stroke-linejoin:miter;" x="695.042884" xlink:href="#me11169b6cf" y="299.021613"/>
     <use style="stroke:#000000;stroke-linejoin:miter;" x="700.115611" xlink:href="#me11169b6cf" y="268.866197"/>
     <use style="stroke:#000000;stroke-linejoin:miter;" x="705.188338" xlink:href="#me11169b6cf" y="238.441182"/>
     <use style="stroke:#000000;stroke-linejoin:miter;" x="710.261065" xlink:href="#me11169b6cf" y="208.712709"/>
     <use style="stroke:#000000;stroke-linejoin:miter;" x="715.333793" xlink:href="#me11169b6cf" y="180.624527"/>
     <use style="stroke:#000000;stroke-linejoin:miter;" x="720.40652" xlink:href="#me11169b6cf" y="155.068308"/>
     <use style="stroke:#000000;stroke-linejoin:miter;" x="725.479247" xlink:href="#me11169b6cf" y="132.855251"/>
     <use style="stroke:#000000;stroke-linejoin:miter;" x="730.551974" xlink:href="#me11169b6cf" y="114.690923"/>
     <use style="stroke:#000000;stroke-linejoin:miter;" x="735.624702" xlink:href="#me11169b6cf" y="101.152596"/>
     <use style="stroke:#000000;stroke-linejoin:miter;" x="740.697429" xlink:href="#me11169b6cf" y="92.67088"/>
     <use style="stroke:#000000;stroke-linejoin:miter;" x="745.770156" xlink:href="#me11169b6cf" y="89.516549"/>
     <use style="stroke:#000000;stroke-linejoin:miter;" x="750.842884" xlink:href="#me11169b6cf" y="91.791503"/>
     <use style="stroke:#000000;stroke-linejoin:miter;" x="755.915611" xlink:href="#me11169b6cf" y="99.425253"/>
     <use style="stroke:#000000;stroke-linejoin:miter;" x="760.988338" xlink:href="#me11169b6cf" y="112.177522"/>
     <use style="stroke:#000000;stroke-linejoin:miter;" x="766.061065" xlink:href="#me11169b6cf" y="129.645346"/>
     <use style="stroke:#000000;stroke-linejoin:miter;" x="771.133793" xlink:href="#me11169b6cf" y="151.275044"/>
     <use style="stroke:#000000;stroke-linejoin:miter;" x="776.20652" xlink:href="#me11169b6cf" y="176.380294"/>
     <use style="stroke:#000000;stroke-linejoin:miter;" x="781.279247" xlink:href="#me11169b6cf" y="204.162535"/>
     <use style="stroke:#000000;stroke-linejoin:miter;" x="786.351974" xlink:href="#me11169b6cf" y="233.736134"/>
     <use style="stroke:#000000;stroke-linejoin:miter;" x="791.424702" xlink:href="#me11169b6cf" y="264.155614"/>
     <use style="stroke:#000000;stroke-linejoin:miter;" x="796.497429" xlink:href="#me11169b6cf" y="294.444813"/>
     <use style="stroke:#000000;stroke-linejoin:miter;" x="801.570156" xlink:href="#me11169b6cf" y="323.626832"/>
     <use style="stroke:#000000;stroke-linejoin:miter;" x="806.642884" xlink:href="#me11169b6cf" y="350.75395"/>
     <use style="stroke:#000000;stroke-linejoin:miter;" x="811.715611" xlink:href="#me11169b6cf" y="374.936297"/>
     <use style="stroke:#000000;stroke-linejoin:miter;" x="816.788338" xlink:href="#me11169b6cf" y="395.368452"/>
     <use style="stroke:#000000;stroke-linejoin:miter;" x="821.861065" xlink:href="#me11169b6cf" y="411.353635"/>
     <use style="stroke:#000000;stroke-linejoin:miter;" x="826.933793" xlink:href="#me11169b6cf" y="422.323046"/>
     <use style="stroke:#000000;stroke-linejoin:miter;" x="832.00652" xlink:href="#me11169b6cf" y="427.852192"/>
     <use style="stroke:#000000;stroke-linejoin:miter;" x="837.079247" xlink:href="#me11169b6cf" y="427.67093"/>
     <use style="stroke:#000000;stroke-linejoin:miter;" x="842.151974" xlink:href="#me11169b6cf" y="421.66908"/>
     <use style="stroke:#000000;stroke-linejoin:miter;" x="847.224702" xlink:href="#me11169b6cf" y="409.895842"/>
     <use style="stroke:#000000;stroke-linejoin:miter;" x="852.297429" xlink:href="#me11169b6cf" y="392.55333"/>
     <use style="stroke:#000000;stroke-linejoin:miter;" x="857.370156" xlink:href="#me11169b6cf" y="369.984787"/>
     <use style="stroke:#000000;stroke-linejoin:miter;" x="862.442884" xlink:href="#me11169b6cf" y="342.657123"/>
     <use style="stroke:#000000;stroke-linejoin:miter;" x="867.515611" xlink:href="#me11169b6cf" y="311.137876"/>
     <use style="stroke:#000000;stroke-linejoin:miter;" x="872.588338" xlink:href="#me11169b6cf" y="276.067925"/>
     <use style="stroke:#000000;stroke-linejoin:miter;" x="877.661065" xlink:href="#me11169b6cf" y="238.129765"/>
     <use style="stroke:#000000;stroke-linejoin:miter;" x="882.733793" xlink:href="#me11169b6cf" y="198.012265"/>
     <use style="stroke:#000000;stroke-linejoin:miter;" x="887.80652" xlink:href="#me11169b6cf" y="156.37271"/>
     <use style="stroke:#000000;stroke-linejoin:miter;" x="892.879247" xlink:href="#me11169b6cf" y="113.796247"/>
     <use style="stroke:#000000;stroke-linejoin:miter;" x="897.951974" xlink:href="#me11169b6cf" y="70.754582"/>
     <use style="stroke:#000000;stroke-linejoin:miter;" x="903.024702" xlink:href="#me11169b6cf" y="27.562689"/>
    </g>
   </g>
   <g id="line2d_19">
    <path clip-path="url(#p623680bf8c)" d="M 142.115611 242.382528 
L 177.624702 242.501399 
L 213.133793 242.842821 
L 253.715611 243.477361 
L 294.297429 244.342809 
L 339.951974 245.556336 
L 385.60652 246.987146 
L 441.40652 248.97744 
L 502.279247 251.384327 
L 573.297429 254.423251 
L 664.60652 258.572001 
L 801.570156 265.049234 
L 903.024702 269.905211 
L 903.024702 269.905211 
" style="fill:none;stroke:#0000ff;stroke-linecap:square;stroke-width:3;"/>
   </g>
   <g id="line2d_20">
    <path clip-path="url(#p623680bf8c)" d="M 142.115611 242.382528 
L 147.188338 238.562026 
L 152.261065 228.144743 
L 157.333793 212.585558 
L 162.40652 193.318845 
L 167.479247 171.742746 
L 177.624702 126.955052 
L 182.697429 106.17371 
L 187.770156 87.898511 
L 192.842884 73.029071 
L 197.915611 62.303607 
L 202.988338 56.284515 
L 208.061065 55.347195 
L 213.133793 59.674814 
L 218.20652 69.257519 
L 223.279247 83.897176 
L 228.351974 103.217159 
L 233.424702 126.677865 
L 238.497429 153.595886 
L 243.570156 183.168454 
L 248.642884 214.500452 
L 258.788338 278.582424 
L 263.861065 309.358097 
L 268.933793 338.009092 
L 274.00652 363.647866 
L 279.079247 385.480272 
L 284.151974 402.831349 
L 289.224702 415.166935 
L 294.297429 422.110706 
L 299.370156 423.456138 
L 304.442884 419.173716 
L 309.515611 409.411137 
L 314.588338 394.488961 
L 319.661065 374.890527 
L 324.733793 351.246237 
L 329.80652 324.313896 
L 334.879247 294.954449 
L 350.097429 201.881098 
L 355.170156 172.486847 
L 360.242884 145.498774 
L 365.315611 121.773936 
L 370.388338 102.065333 
L 375.461065 86.99824 
L 380.533793 77.050763 
L 385.60652 72.538823 
L 390.679247 73.606468 
L 395.751974 80.221331 
L 400.824702 92.139323 
L 405.897429 108.9517 
L 410.970156 130.132222 
L 416.042884 155.016359 
L 421.115611 182.822297 
L 426.188338 212.676137 
L 441.40652 304.999858 
L 446.479247 333.470668 
L 451.551974 359.259826 
L 456.624702 381.560596 
L 461.697429 399.676847 
L 466.770156 413.04528 
L 471.842884 421.253222 
L 476.915611 424.051273 
L 481.988338 421.361118 
L 487.061065 413.278092 
L 492.133793 400.06772 
L 497.20652 382.157523 
L 502.279247 360.123267 
L 507.351974 334.670546 
L 512.424702 306.612617 
L 517.497429 276.844493 
L 527.642884 215.995272 
L 532.715611 186.850978 
L 537.788338 159.808945 
L 542.861065 135.729317 
L 547.933793 115.378305 
L 553.00652 99.403697 
L 558.079247 88.314875 
L 563.151974 82.466692 
L 568.224702 82.0481 
L 573.297429 87.076671 
L 578.370156 97.397977 
L 583.442884 112.690383 
L 588.515611 132.475718 
L 593.588338 156.134046 
L 598.661065 182.923824 
L 603.733793 212.004824 
L 618.951974 303.692968 
L 624.024702 332.543527 
L 629.097429 359.000778 
L 634.170156 382.23997 
L 639.242884 401.538982 
L 644.315611 416.301637 
L 649.388338 426.075926 
L 654.461065 430.56 
L 659.533793 429.617943 
L 664.60652 423.292115 
L 669.679247 411.792439 
L 674.751974 395.490393 
L 679.824702 374.907131 
L 684.897429 350.697071 
L 689.970156 323.62783 
L 695.042884 294.555804 
L 710.261065 204.646476 
L 715.333793 176.934516 
L 720.40652 151.84931 
L 725.479247 130.182163 
L 730.551974 112.616702 
L 735.624702 99.707395 
L 740.697429 91.862585 
L 745.770156 89.331038 
L 750.842884 92.194568 
L 755.915611 100.365007 
L 760.988338 113.586946 
L 766.061065 131.445283 
L 771.133793 153.378412 
L 776.20652 178.695098 
L 781.279247 206.595742 
L 786.351974 236.197153 
L 796.497429 296.715181 
L 801.570156 325.698088 
L 806.642884 352.57316 
L 811.715611 376.464361 
L 816.788338 396.580741 
L 821.861065 412.239762 
L 826.933793 422.88648 
L 832.00652 428.108726 
L 837.079247 427.647467 
L 842.151974 421.401092 
L 847.224702 409.42553 
L 852.297429 391.926751 
L 857.370156 369.249935 
L 862.442884 341.860955 
L 867.515611 310.324501 
L 872.588338 275.276674 
L 877.661065 237.393836 
L 882.733793 197.357845 
L 887.80652 155.818597 
L 897.951974 70.431325 
L 903.024702 27.36 
L 903.024702 27.36 
" style="fill:none;stroke:#ff0000;stroke-linecap:square;stroke-width:3;"/>
   </g>
   <g id="patch_3">
    <path d="M 104.070156 450.72 
L 104.070156 7.2 
" style="fill:none;stroke:#000000;stroke-linecap:square;stroke-linejoin:miter;stroke-width:0.8;"/>
   </g>
   <g id="patch_4">
    <path d="M 941.070156 450.72 
L 941.070156 7.2 
" style="fill:none;stroke:#000000;stroke-linecap:square;stroke-linejoin:miter;stroke-width:0.8;"/>
   </g>
   <g id="patch_5">
    <path d="M 104.070156 450.72 
L 941.070156 450.72 
" style="fill:none;stroke:#000000;stroke-linecap:square;stroke-linejoin:miter;stroke-width:0.8;"/>
   </g>
   <g id="patch_6">
    <path d="M 104.070156 7.2 
L 941.070156 7.2 
" style="fill:none;stroke:#000000;stroke-linecap:square;stroke-linejoin:miter;stroke-width:0.8;"/>
   </g>
   <g id="legend_1">
    <g id="patch_7">
     <path d="M 631.860156 121.675625 
L 925.670156 121.675625 
Q 930.070156 121.675625 930.070156 117.275625 
L 930.070156 22.6 
Q 930.070156 18.2 925.670156 18.2 
L 631.860156 18.2 
Q 627.460156 18.2 627.460156 22.6 
L 627.460156 117.275625 
Q 627.460156 121.675625 631.860156 121.675625 
z
" style="fill:#ffffff;opacity:0.8;stroke:#cccccc;stroke-linejoin:miter;"/>
    </g>
    <g id="line2d_21"/>
    <g id="line2d_22">
     <g>
      <use style="stroke:#000000;stroke-linejoin:miter;" x="658.260156" xlink:href="#me11169b6cf" y="36.016563"/>
     </g>
    </g>
    <g id="text_20">
     <!-- Reference FEM -->
     <g transform="translate(697.860156 43.716563)scale(0.22 -0.22)">
      <defs>
       <path d="M 44.390625 34.1875 
Q 47.5625 33.109375 50.5625 29.59375 
Q 53.5625 26.078125 56.59375 19.921875 
L 66.609375 0 
L 56 0 
L 46.6875 18.703125 
Q 43.0625 26.03125 39.671875 28.421875 
Q 36.28125 30.8125 30.421875 30.8125 
L 19.671875 30.8125 
L 19.671875 0 
L 9.8125 0 
L 9.8125 72.90625 
L 32.078125 72.90625 
Q 44.578125 72.90625 50.734375 67.671875 
Q 56.890625 62.453125 56.890625 51.90625 
Q 56.890625 45.015625 53.6875 40.46875 
Q 50.484375 35.9375 44.390625 34.1875 
z
M 19.671875 64.796875 
L 19.671875 38.921875 
L 32.078125 38.921875 
Q 39.203125 38.921875 42.84375 42.21875 
Q 46.484375 45.515625 46.484375 51.90625 
Q 46.484375 58.296875 42.84375 61.546875 
Q 39.203125 64.796875 32.078125 64.796875 
z
" id="DejaVuSans-82"/>
       <path d="M 37.109375 75.984375 
L 37.109375 68.5 
L 28.515625 68.5 
Q 23.6875 68.5 21.796875 66.546875 
Q 19.921875 64.59375 19.921875 59.515625 
L 19.921875 54.6875 
L 34.71875 54.6875 
L 34.71875 47.703125 
L 19.921875 47.703125 
L 19.921875 0 
L 10.890625 0 
L 10.890625 47.703125 
L 2.296875 47.703125 
L 2.296875 54.6875 
L 10.890625 54.6875 
L 10.890625 58.5 
Q 10.890625 67.625 15.140625 71.796875 
Q 19.390625 75.984375 28.609375 75.984375 
z
" id="DejaVuSans-102"/>
       <path d="M 41.109375 46.296875 
Q 39.59375 47.171875 37.8125 47.578125 
Q 36.03125 48 33.890625 48 
Q 26.265625 48 22.1875 43.046875 
Q 18.109375 38.09375 18.109375 28.8125 
L 18.109375 0 
L 9.078125 0 
L 9.078125 54.6875 
L 18.109375 54.6875 
L 18.109375 46.1875 
Q 20.953125 51.171875 25.484375 53.578125 
Q 30.03125 56 36.53125 56 
Q 37.453125 56 38.578125 55.875 
Q 39.703125 55.765625 41.0625 55.515625 
z
" id="DejaVuSans-114"/>
       <path d="M 48.78125 52.59375 
L 48.78125 44.1875 
Q 44.96875 46.296875 41.140625 47.34375 
Q 37.3125 48.390625 33.40625 48.390625 
Q 24.65625 48.390625 19.8125 42.84375 
Q 14.984375 37.3125 14.984375 27.296875 
Q 14.984375 17.28125 19.8125 11.734375 
Q 24.65625 6.203125 33.40625 6.203125 
Q 37.3125 6.203125 41.140625 7.25 
Q 44.96875 8.296875 48.78125 10.40625 
L 48.78125 2.09375 
Q 45.015625 0.34375 40.984375 -0.53125 
Q 36.96875 -1.421875 32.421875 -1.421875 
Q 20.0625 -1.421875 12.78125 6.34375 
Q 5.515625 14.109375 5.515625 27.296875 
Q 5.515625 40.671875 12.859375 48.328125 
Q 20.21875 56 33.015625 56 
Q 37.15625 56 41.109375 55.140625 
Q 45.0625 54.296875 48.78125 52.59375 
z
" id="DejaVuSans-99"/>
       <path d="M 9.8125 72.90625 
L 51.703125 72.90625 
L 51.703125 64.59375 
L 19.671875 64.59375 
L 19.671875 43.109375 
L 48.578125 43.109375 
L 48.578125 34.8125 
L 19.671875 34.8125 
L 19.671875 0 
L 9.8125 0 
z
" id="DejaVuSans-70"/>
       <path d="M 9.8125 72.90625 
L 55.90625 72.90625 
L 55.90625 64.59375 
L 19.671875 64.59375 
L 19.671875 43.015625 
L 54.390625 43.015625 
L 54.390625 34.71875 
L 19.671875 34.71875 
L 19.671875 8.296875 
L 56.78125 8.296875 
L 56.78125 0 
L 9.8125 0 
z
" id="DejaVuSans-69"/>
       <path d="M 9.8125 72.90625 
L 24.515625 72.90625 
L 43.109375 23.296875 
L 61.8125 72.90625 
L 76.515625 72.90625 
L 76.515625 0 
L 66.890625 0 
L 66.890625 64.015625 
L 48.09375 14.015625 
L 38.1875 14.015625 
L 19.390625 64.015625 
L 19.390625 0 
L 9.8125 0 
z
" id="DejaVuSans-77"/>
      </defs>
      <use xlink:href="#DejaVuSans-82"/>
      <use x="64.982422" xlink:href="#DejaVuSans-101"/>
      <use x="126.505859" xlink:href="#DejaVuSans-102"/>
      <use x="161.710938" xlink:href="#DejaVuSans-101"/>
      <use x="223.234375" xlink:href="#DejaVuSans-114"/>
      <use x="262.097656" xlink:href="#DejaVuSans-101"/>
      <use x="323.621094" xlink:href="#DejaVuSans-110"/>
      <use x="387" xlink:href="#DejaVuSans-99"/>
      <use x="441.980469" xlink:href="#DejaVuSans-101"/>
      <use x="503.503906" xlink:href="#DejaVuSans-32"/>
      <use x="535.291016" xlink:href="#DejaVuSans-70"/>
      <use x="592.810547" xlink:href="#DejaVuSans-69"/>
      <use x="655.994141" xlink:href="#DejaVuSans-77"/>
     </g>
    </g>
    <g id="line2d_23">
     <path d="M 636.260156 68.308438 
L 680.260156 68.308438 
" style="fill:none;stroke:#0000ff;stroke-linecap:square;stroke-width:3;"/>
    </g>
    <g id="line2d_24"/>
    <g id="text_21">
     <!-- Initial mistuned FEM -->
     <g transform="translate(697.860156 76.008438)scale(0.22 -0.22)">
      <defs>
       <path d="M 9.8125 72.90625 
L 19.671875 72.90625 
L 19.671875 0 
L 9.8125 0 
z
" id="DejaVuSans-73"/>
       <path d="M 44.28125 53.078125 
L 44.28125 44.578125 
Q 40.484375 46.53125 36.375 47.5 
Q 32.28125 48.484375 27.875 48.484375 
Q 21.1875 48.484375 17.84375 46.4375 
Q 14.5 44.390625 14.5 40.28125 
Q 14.5 37.15625 16.890625 35.375 
Q 19.28125 33.59375 26.515625 31.984375 
L 29.59375 31.296875 
Q 39.15625 29.25 43.1875 25.515625 
Q 47.21875 21.78125 47.21875 15.09375 
Q 47.21875 7.46875 41.1875 3.015625 
Q 35.15625 -1.421875 24.609375 -1.421875 
Q 20.21875 -1.421875 15.453125 -0.5625 
Q 10.6875 0.296875 5.421875 2 
L 5.421875 11.28125 
Q 10.40625 8.6875 15.234375 7.390625 
Q 20.0625 6.109375 24.8125 6.109375 
Q 31.15625 6.109375 34.5625 8.28125 
Q 37.984375 10.453125 37.984375 14.40625 
Q 37.984375 18.0625 35.515625 20.015625 
Q 33.0625 21.96875 24.703125 23.78125 
L 21.578125 24.515625 
Q 13.234375 26.265625 9.515625 29.90625 
Q 5.8125 33.546875 5.8125 39.890625 
Q 5.8125 47.609375 11.28125 51.796875 
Q 16.75 56 26.8125 56 
Q 31.78125 56 36.171875 55.265625 
Q 40.578125 54.546875 44.28125 53.078125 
z
" id="DejaVuSans-115"/>
      </defs>
      <use xlink:href="#DejaVuSans-73"/>
      <use x="29.492188" xlink:href="#DejaVuSans-110"/>
      <use x="92.871094" xlink:href="#DejaVuSans-105"/>
      <use x="120.654297" xlink:href="#DejaVuSans-116"/>
      <use x="159.863281" xlink:href="#DejaVuSans-105"/>
      <use x="187.646484" xlink:href="#DejaVuSans-97"/>
      <use x="248.925781" xlink:href="#DejaVuSans-108"/>
      <use x="276.708984" xlink:href="#DejaVuSans-32"/>
      <use x="308.496094" xlink:href="#DejaVuSans-109"/>
      <use x="405.908203" xlink:href="#DejaVuSans-105"/>
      <use x="433.691406" xlink:href="#DejaVuSans-115"/>
      <use x="485.791016" xlink:href="#DejaVuSans-116"/>
      <use x="525" xlink:href="#DejaVuSans-117"/>
      <use x="588.378906" xlink:href="#DejaVuSans-110"/>
      <use x="651.757812" xlink:href="#DejaVuSans-101"/>
      <use x="713.28125" xlink:href="#DejaVuSans-100"/>
      <use x="776.757812" xlink:href="#DejaVuSans-32"/>
      <use x="808.544922" xlink:href="#DejaVuSans-70"/>
      <use x="866.064453" xlink:href="#DejaVuSans-69"/>
      <use x="929.248047" xlink:href="#DejaVuSans-77"/>
     </g>
    </g>
    <g id="line2d_25">
     <path d="M 636.260156 100.600313 
L 680.260156 100.600313 
" style="fill:none;stroke:#ff0000;stroke-linecap:square;stroke-width:3;"/>
    </g>
    <g id="line2d_26"/>
    <g id="text_22">
     <!-- Converged FEM -->
     <g transform="translate(697.860156 108.300313)scale(0.22 -0.22)">
      <defs>
       <path d="M 64.40625 67.28125 
L 64.40625 56.890625 
Q 59.421875 61.53125 53.78125 63.8125 
Q 48.140625 66.109375 41.796875 66.109375 
Q 29.296875 66.109375 22.65625 58.46875 
Q 16.015625 50.828125 16.015625 36.375 
Q 16.015625 21.96875 22.65625 14.328125 
Q 29.296875 6.6875 41.796875 6.6875 
Q 48.140625 6.6875 53.78125 8.984375 
Q 59.421875 11.28125 64.40625 15.921875 
L 64.40625 5.609375 
Q 59.234375 2.09375 53.4375 0.328125 
Q 47.65625 -1.421875 41.21875 -1.421875 
Q 24.65625 -1.421875 15.125 8.703125 
Q 5.609375 18.84375 5.609375 36.375 
Q 5.609375 53.953125 15.125 64.078125 
Q 24.65625 74.21875 41.21875 74.21875 
Q 47.75 74.21875 53.53125 72.484375 
Q 59.328125 70.75 64.40625 67.28125 
z
" id="DejaVuSans-67"/>
       <path d="M 30.609375 48.390625 
Q 23.390625 48.390625 19.1875 42.75 
Q 14.984375 37.109375 14.984375 27.296875 
Q 14.984375 17.484375 19.15625 11.84375 
Q 23.34375 6.203125 30.609375 6.203125 
Q 37.796875 6.203125 41.984375 11.859375 
Q 46.1875 17.53125 46.1875 27.296875 
Q 46.1875 37.015625 41.984375 42.703125 
Q 37.796875 48.390625 30.609375 48.390625 
z
M 30.609375 56 
Q 42.328125 56 49.015625 48.375 
Q 55.71875 40.765625 55.71875 27.296875 
Q 55.71875 13.875 49.015625 6.21875 
Q 42.328125 -1.421875 30.609375 -1.421875 
Q 18.84375 -1.421875 12.171875 6.21875 
Q 5.515625 13.875 5.515625 27.296875 
Q 5.515625 40.765625 12.171875 48.375 
Q 18.84375 56 30.609375 56 
z
" id="DejaVuSans-111"/>
       <path d="M 2.984375 54.6875 
L 12.5 54.6875 
L 29.59375 8.796875 
L 46.6875 54.6875 
L 56.203125 54.6875 
L 35.6875 0 
L 23.484375 0 
z
" id="DejaVuSans-118"/>
      </defs>
      <use xlink:href="#DejaVuSans-67"/>
      <use x="69.824219" xlink:href="#DejaVuSans-111"/>
      <use x="131.005859" xlink:href="#DejaVuSans-110"/>
      <use x="194.384766" xlink:href="#DejaVuSans-118"/>
      <use x="253.564453" xlink:href="#DejaVuSans-101"/>
      <use x="315.087891" xlink:href="#DejaVuSans-114"/>
      <use x="354.451172" xlink:href="#DejaVuSans-103"/>
      <use x="417.927734" xlink:href="#DejaVuSans-101"/>
      <use x="479.451172" xlink:href="#DejaVuSans-100"/>
      <use x="542.927734" xlink:href="#DejaVuSans-32"/>
      <use x="574.714844" xlink:href="#DejaVuSans-70"/>
      <use x="632.234375" xlink:href="#DejaVuSans-69"/>
      <use x="695.417969" xlink:href="#DejaVuSans-77"/>
     </g>
    </g>
   </g>
  </g>
 </g>
 <defs>
  <clipPath id="p623680bf8c">
   <rect height="443.52" width="837" x="104.070156" y="7.2"/>
  </clipPath>
 </defs>
</svg>
