<?xml version="1.0" encoding="utf-8" standalone="no"?>
<!DOCTYPE svg PUBLIC "-//W3C//DTD SVG 1.1//EN"
  "http://www.w3.org/Graphics/SVG/1.1/DTD/svg11.dtd">
<svg height="509.700347pt" version="1.1" viewBox="0 0 912.612969 509.700347" width="912.612969pt" xmlns="http://www.w3.org/2000/svg" xmlns:xlink="http://www.w3.org/1999/xlink">
 <metadata>
  <rdf:RDF xmlns:cc="http://creativecommons.org/ns#" xmlns:dc="http://purl.org/dc/elements/1.1/" xmlns:rdf="http://www.w3.org/1999/02/22-rdf-syntax-ns#">
   <cc:Work>
    <dc:type rdf:resource="http://purl.org/dc/dcmitype/StillImage"/>
    <dc:date>2022-07-06T15:33:32.975934</dc:date>
    <dc:format>image/svg+xml</dc:format>
    <dc:creator>
     <cc:Agent>
      <dc:title>Matplotlib v3.4.3, https://matplotlib.org/</dc:title>
     </cc:Agent>
    </dc:creator>
   </cc:Work>
  </rdf:RDF>
 </metadata>
 <defs>
  <style type="text/css">*{stroke-linecap:butt;stroke-linejoin:round;}</style>
 </defs>
 <g id="figure_1">
  <g id="patch_1">
   <path d="M 0 509.700347 
L 912.612969 509.700347 
L 912.612969 0 
L 0 0 
z
" style="fill:#ffffff;"/>
  </g>
  <g id="axes_1">
   <g id="patch_2">
    <path d="M 68.412969 445.129253 
L 905.412969 445.129253 
L 905.412969 10.249253 
L 68.412969 10.249253 
z
" style="fill:#ffffff;"/>
   </g>
   <g id="matplotlib.axis_1">
    <g id="xtick_1">
     <g id="line2d_1">
      <defs>
       <path d="M 0 0 
L 0 3.5 
" id="mb69d6230e8" style="stroke:#000000;stroke-width:0.8;"/>
      </defs>
      <g>
       <use style="stroke:#000000;stroke-width:0.8;" x="106.458423" xlink:href="#mb69d6230e8" y="445.129253"/>
      </g>
     </g>
     <g id="text_1">
      <!-- 0.0 -->
      <g transform="translate(90.833423 469.488628)scale(0.25 -0.25)">
       <defs>
        <path d="M 231 2094 
Q 231 2819 450 3342 
Q 669 3866 1031 4122 
Q 1313 4325 1613 4325 
Q 2100 4325 2488 3828 
Q 2972 3213 2972 2159 
Q 2972 1422 2759 906 
Q 2547 391 2217 158 
Q 1888 -75 1581 -75 
Q 975 -75 572 641 
Q 231 1244 231 2094 
z
M 844 2016 
Q 844 1141 1059 588 
Q 1238 122 1591 122 
Q 1759 122 1940 273 
Q 2122 425 2216 781 
Q 2359 1319 2359 2297 
Q 2359 3022 2209 3506 
Q 2097 3866 1919 4016 
Q 1791 4119 1609 4119 
Q 1397 4119 1231 3928 
Q 1006 3669 925 3112 
Q 844 2556 844 2016 
z
" id="TimesNewRomanPSMT-30" transform="scale(0.015625)"/>
        <path d="M 800 606 
Q 947 606 1047 504 
Q 1147 403 1147 259 
Q 1147 116 1045 14 
Q 944 -88 800 -88 
Q 656 -88 554 14 
Q 453 116 453 259 
Q 453 406 554 506 
Q 656 606 800 606 
z
" id="TimesNewRomanPSMT-2e" transform="scale(0.015625)"/>
       </defs>
       <use xlink:href="#TimesNewRomanPSMT-30"/>
       <use x="50" xlink:href="#TimesNewRomanPSMT-2e"/>
       <use x="75" xlink:href="#TimesNewRomanPSMT-30"/>
      </g>
     </g>
    </g>
    <g id="xtick_2">
     <g id="line2d_2">
      <g>
       <use style="stroke:#000000;stroke-width:0.8;" x="207.912969" xlink:href="#mb69d6230e8" y="445.129253"/>
      </g>
     </g>
     <g id="text_2">
      <!-- 0.2 -->
      <g transform="translate(192.287969 469.488628)scale(0.25 -0.25)">
       <defs>
        <path d="M 2934 816 
L 2638 0 
L 138 0 
L 138 116 
Q 1241 1122 1691 1759 
Q 2141 2397 2141 2925 
Q 2141 3328 1894 3587 
Q 1647 3847 1303 3847 
Q 991 3847 742 3664 
Q 494 3481 375 3128 
L 259 3128 
Q 338 3706 661 4015 
Q 984 4325 1469 4325 
Q 1984 4325 2329 3994 
Q 2675 3663 2675 3213 
Q 2675 2891 2525 2569 
Q 2294 2063 1775 1497 
Q 997 647 803 472 
L 1909 472 
Q 2247 472 2383 497 
Q 2519 522 2628 598 
Q 2738 675 2819 816 
L 2934 816 
z
" id="TimesNewRomanPSMT-32" transform="scale(0.015625)"/>
       </defs>
       <use xlink:href="#TimesNewRomanPSMT-30"/>
       <use x="50" xlink:href="#TimesNewRomanPSMT-2e"/>
       <use x="75" xlink:href="#TimesNewRomanPSMT-32"/>
      </g>
     </g>
    </g>
    <g id="xtick_3">
     <g id="line2d_3">
      <g>
       <use style="stroke:#000000;stroke-width:0.8;" x="309.367514" xlink:href="#mb69d6230e8" y="445.129253"/>
      </g>
     </g>
     <g id="text_3">
      <!-- 0.4 -->
      <g transform="translate(293.742514 469.488628)scale(0.25 -0.25)">
       <defs>
        <path d="M 2978 1563 
L 2978 1119 
L 2409 1119 
L 2409 0 
L 1894 0 
L 1894 1119 
L 100 1119 
L 100 1519 
L 2066 4325 
L 2409 4325 
L 2409 1563 
L 2978 1563 
z
M 1894 1563 
L 1894 3666 
L 406 1563 
L 1894 1563 
z
" id="TimesNewRomanPSMT-34" transform="scale(0.015625)"/>
       </defs>
       <use xlink:href="#TimesNewRomanPSMT-30"/>
       <use x="50" xlink:href="#TimesNewRomanPSMT-2e"/>
       <use x="75" xlink:href="#TimesNewRomanPSMT-34"/>
      </g>
     </g>
    </g>
    <g id="xtick_4">
     <g id="line2d_4">
      <g>
       <use style="stroke:#000000;stroke-width:0.8;" x="410.82206" xlink:href="#mb69d6230e8" y="445.129253"/>
      </g>
     </g>
     <g id="text_4">
      <!-- 0.6 -->
      <g transform="translate(395.19706 469.488628)scale(0.25 -0.25)">
       <defs>
        <path d="M 2869 4325 
L 2869 4209 
Q 2456 4169 2195 4045 
Q 1934 3922 1679 3669 
Q 1425 3416 1258 3105 
Q 1091 2794 978 2366 
Q 1428 2675 1881 2675 
Q 2316 2675 2634 2325 
Q 2953 1975 2953 1425 
Q 2953 894 2631 456 
Q 2244 -75 1606 -75 
Q 1172 -75 869 213 
Q 275 772 275 1663 
Q 275 2231 503 2743 
Q 731 3256 1154 3653 
Q 1578 4050 1965 4187 
Q 2353 4325 2688 4325 
L 2869 4325 
z
M 925 2138 
Q 869 1716 869 1456 
Q 869 1156 980 804 
Q 1091 453 1309 247 
Q 1469 100 1697 100 
Q 1969 100 2183 356 
Q 2397 613 2397 1088 
Q 2397 1622 2184 2012 
Q 1972 2403 1581 2403 
Q 1463 2403 1327 2353 
Q 1191 2303 925 2138 
z
" id="TimesNewRomanPSMT-36" transform="scale(0.015625)"/>
       </defs>
       <use xlink:href="#TimesNewRomanPSMT-30"/>
       <use x="50" xlink:href="#TimesNewRomanPSMT-2e"/>
       <use x="75" xlink:href="#TimesNewRomanPSMT-36"/>
      </g>
     </g>
    </g>
    <g id="xtick_5">
     <g id="line2d_5">
      <g>
       <use style="stroke:#000000;stroke-width:0.8;" x="512.276605" xlink:href="#mb69d6230e8" y="445.129253"/>
      </g>
     </g>
     <g id="text_5">
      <!-- 0.8 -->
      <g transform="translate(496.651605 469.488628)scale(0.25 -0.25)">
       <defs>
        <path d="M 1228 2134 
Q 725 2547 579 2797 
Q 434 3047 434 3316 
Q 434 3728 753 4026 
Q 1072 4325 1600 4325 
Q 2113 4325 2425 4047 
Q 2738 3769 2738 3413 
Q 2738 3175 2569 2928 
Q 2400 2681 1866 2347 
Q 2416 1922 2594 1678 
Q 2831 1359 2831 1006 
Q 2831 559 2490 242 
Q 2150 -75 1597 -75 
Q 994 -75 656 303 
Q 388 606 388 966 
Q 388 1247 577 1523 
Q 766 1800 1228 2134 
z
M 1719 2469 
Q 2094 2806 2194 3001 
Q 2294 3197 2294 3444 
Q 2294 3772 2109 3958 
Q 1925 4144 1606 4144 
Q 1288 4144 1088 3959 
Q 888 3775 888 3528 
Q 888 3366 970 3203 
Q 1053 3041 1206 2894 
L 1719 2469 
z
M 1375 2016 
Q 1116 1797 991 1539 
Q 866 1281 866 981 
Q 866 578 1086 336 
Q 1306 94 1647 94 
Q 1984 94 2187 284 
Q 2391 475 2391 747 
Q 2391 972 2272 1150 
Q 2050 1481 1375 2016 
z
" id="TimesNewRomanPSMT-38" transform="scale(0.015625)"/>
       </defs>
       <use xlink:href="#TimesNewRomanPSMT-30"/>
       <use x="50" xlink:href="#TimesNewRomanPSMT-2e"/>
       <use x="75" xlink:href="#TimesNewRomanPSMT-38"/>
      </g>
     </g>
    </g>
    <g id="xtick_6">
     <g id="line2d_6">
      <g>
       <use style="stroke:#000000;stroke-width:0.8;" x="613.731151" xlink:href="#mb69d6230e8" y="445.129253"/>
      </g>
     </g>
     <g id="text_6">
      <!-- 1.0 -->
      <g transform="translate(598.106151 469.488628)scale(0.25 -0.25)">
       <defs>
        <path d="M 750 3822 
L 1781 4325 
L 1884 4325 
L 1884 747 
Q 1884 391 1914 303 
Q 1944 216 2037 169 
Q 2131 122 2419 116 
L 2419 0 
L 825 0 
L 825 116 
Q 1125 122 1212 167 
Q 1300 213 1334 289 
Q 1369 366 1369 747 
L 1369 3034 
Q 1369 3497 1338 3628 
Q 1316 3728 1258 3775 
Q 1200 3822 1119 3822 
Q 1003 3822 797 3725 
L 750 3822 
z
" id="TimesNewRomanPSMT-31" transform="scale(0.015625)"/>
       </defs>
       <use xlink:href="#TimesNewRomanPSMT-31"/>
       <use x="50" xlink:href="#TimesNewRomanPSMT-2e"/>
       <use x="75" xlink:href="#TimesNewRomanPSMT-30"/>
      </g>
     </g>
    </g>
    <g id="xtick_7">
     <g id="line2d_7">
      <g>
       <use style="stroke:#000000;stroke-width:0.8;" x="715.185696" xlink:href="#mb69d6230e8" y="445.129253"/>
      </g>
     </g>
     <g id="text_7">
      <!-- 1.2 -->
      <g transform="translate(699.560696 469.488628)scale(0.25 -0.25)">
       <use xlink:href="#TimesNewRomanPSMT-31"/>
       <use x="50" xlink:href="#TimesNewRomanPSMT-2e"/>
       <use x="75" xlink:href="#TimesNewRomanPSMT-32"/>
      </g>
     </g>
    </g>
    <g id="xtick_8">
     <g id="line2d_8">
      <g>
       <use style="stroke:#000000;stroke-width:0.8;" x="816.640241" xlink:href="#mb69d6230e8" y="445.129253"/>
      </g>
     </g>
     <g id="text_8">
      <!-- 1.4 -->
      <g transform="translate(801.015241 469.488628)scale(0.25 -0.25)">
       <use xlink:href="#TimesNewRomanPSMT-31"/>
       <use x="50" xlink:href="#TimesNewRomanPSMT-2e"/>
       <use x="75" xlink:href="#TimesNewRomanPSMT-34"/>
      </g>
     </g>
    </g>
    <g id="text_9">
     <!-- Beam Length [m] -->
     <g transform="translate(394.497187 496.890034)scale(0.26 -0.26)">
      <defs>
       <path d="M 2956 2163 
Q 3397 2069 3616 1863 
Q 3919 1575 3919 1159 
Q 3919 844 3719 555 
Q 3519 266 3170 133 
Q 2822 0 2106 0 
L 106 0 
L 106 116 
L 266 116 
Q 531 116 647 284 
Q 719 394 719 750 
L 719 3488 
Q 719 3881 628 3984 
Q 506 4122 266 4122 
L 106 4122 
L 106 4238 
L 1938 4238 
Q 2450 4238 2759 4163 
Q 3228 4050 3475 3764 
Q 3722 3478 3722 3106 
Q 3722 2788 3528 2536 
Q 3334 2284 2956 2163 
z
M 1319 2331 
Q 1434 2309 1582 2298 
Q 1731 2288 1909 2288 
Q 2366 2288 2595 2386 
Q 2825 2484 2947 2687 
Q 3069 2891 3069 3131 
Q 3069 3503 2766 3765 
Q 2463 4028 1881 4028 
Q 1569 4028 1319 3959 
L 1319 2331 
z
M 1319 306 
Q 1681 222 2034 222 
Q 2600 222 2897 476 
Q 3194 731 3194 1106 
Q 3194 1353 3059 1581 
Q 2925 1809 2622 1940 
Q 2319 2072 1872 2072 
Q 1678 2072 1540 2065 
Q 1403 2059 1319 2044 
L 1319 306 
z
" id="TimesNewRomanPSMT-42" transform="scale(0.015625)"/>
       <path d="M 681 1784 
Q 678 1147 991 784 
Q 1303 422 1725 422 
Q 2006 422 2214 576 
Q 2422 731 2563 1106 
L 2659 1044 
Q 2594 616 2278 264 
Q 1963 -88 1488 -88 
Q 972 -88 605 314 
Q 238 716 238 1394 
Q 238 2128 614 2539 
Q 991 2950 1559 2950 
Q 2041 2950 2350 2633 
Q 2659 2316 2659 1784 
L 681 1784 
z
M 681 1966 
L 2006 1966 
Q 1991 2241 1941 2353 
Q 1863 2528 1708 2628 
Q 1553 2728 1384 2728 
Q 1125 2728 920 2526 
Q 716 2325 681 1966 
z
" id="TimesNewRomanPSMT-65" transform="scale(0.015625)"/>
       <path d="M 1822 413 
Q 1381 72 1269 19 
Q 1100 -59 909 -59 
Q 613 -59 420 144 
Q 228 347 228 678 
Q 228 888 322 1041 
Q 450 1253 767 1440 
Q 1084 1628 1822 1897 
L 1822 2009 
Q 1822 2438 1686 2597 
Q 1550 2756 1291 2756 
Q 1094 2756 978 2650 
Q 859 2544 859 2406 
L 866 2225 
Q 866 2081 792 2003 
Q 719 1925 600 1925 
Q 484 1925 411 2006 
Q 338 2088 338 2228 
Q 338 2497 613 2722 
Q 888 2947 1384 2947 
Q 1766 2947 2009 2819 
Q 2194 2722 2281 2516 
Q 2338 2381 2338 1966 
L 2338 994 
Q 2338 584 2353 492 
Q 2369 400 2405 369 
Q 2441 338 2488 338 
Q 2538 338 2575 359 
Q 2641 400 2828 588 
L 2828 413 
Q 2478 -56 2159 -56 
Q 2006 -56 1915 50 
Q 1825 156 1822 413 
z
M 1822 616 
L 1822 1706 
Q 1350 1519 1213 1441 
Q 966 1303 859 1153 
Q 753 1003 753 825 
Q 753 600 887 451 
Q 1022 303 1197 303 
Q 1434 303 1822 616 
z
" id="TimesNewRomanPSMT-61" transform="scale(0.015625)"/>
       <path d="M 1050 2338 
Q 1363 2650 1419 2697 
Q 1559 2816 1721 2881 
Q 1884 2947 2044 2947 
Q 2313 2947 2506 2790 
Q 2700 2634 2766 2338 
Q 3088 2713 3309 2830 
Q 3531 2947 3766 2947 
Q 3994 2947 4170 2830 
Q 4347 2713 4450 2447 
Q 4519 2266 4519 1878 
L 4519 647 
Q 4519 378 4559 278 
Q 4591 209 4675 161 
Q 4759 113 4950 113 
L 4950 0 
L 3538 0 
L 3538 113 
L 3597 113 
Q 3781 113 3884 184 
Q 3956 234 3988 344 
Q 4000 397 4000 647 
L 4000 1878 
Q 4000 2228 3916 2372 
Q 3794 2572 3525 2572 
Q 3359 2572 3192 2489 
Q 3025 2406 2788 2181 
L 2781 2147 
L 2788 2013 
L 2788 647 
Q 2788 353 2820 281 
Q 2853 209 2943 161 
Q 3034 113 3253 113 
L 3253 0 
L 1806 0 
L 1806 113 
Q 2044 113 2133 169 
Q 2222 225 2256 338 
Q 2272 391 2272 647 
L 2272 1878 
Q 2272 2228 2169 2381 
Q 2031 2581 1784 2581 
Q 1616 2581 1450 2491 
Q 1191 2353 1050 2181 
L 1050 647 
Q 1050 366 1089 281 
Q 1128 197 1204 155 
Q 1281 113 1516 113 
L 1516 0 
L 100 0 
L 100 113 
Q 297 113 375 155 
Q 453 197 493 289 
Q 534 381 534 647 
L 534 1741 
Q 534 2213 506 2350 
Q 484 2453 437 2492 
Q 391 2531 309 2531 
Q 222 2531 100 2484 
L 53 2597 
L 916 2947 
L 1050 2947 
L 1050 2338 
z
" id="TimesNewRomanPSMT-6d" transform="scale(0.015625)"/>
       <path id="TimesNewRomanPSMT-20" transform="scale(0.015625)"/>
       <path d="M 3669 1172 
L 3772 1150 
L 3409 0 
L 128 0 
L 128 116 
L 288 116 
Q 556 116 672 291 
Q 738 391 738 753 
L 738 3488 
Q 738 3884 650 3984 
Q 528 4122 288 4122 
L 128 4122 
L 128 4238 
L 2047 4238 
L 2047 4122 
Q 1709 4125 1573 4059 
Q 1438 3994 1388 3894 
Q 1338 3794 1338 3416 
L 1338 753 
Q 1338 494 1388 397 
Q 1425 331 1503 300 
Q 1581 269 1991 269 
L 2300 269 
Q 2788 269 2984 341 
Q 3181 413 3343 595 
Q 3506 778 3669 1172 
z
" id="TimesNewRomanPSMT-4c" transform="scale(0.015625)"/>
       <path d="M 1034 2341 
Q 1538 2947 1994 2947 
Q 2228 2947 2397 2830 
Q 2566 2713 2666 2444 
Q 2734 2256 2734 1869 
L 2734 647 
Q 2734 375 2778 278 
Q 2813 200 2889 156 
Q 2966 113 3172 113 
L 3172 0 
L 1756 0 
L 1756 113 
L 1816 113 
Q 2016 113 2095 173 
Q 2175 234 2206 353 
Q 2219 400 2219 647 
L 2219 1819 
Q 2219 2209 2117 2386 
Q 2016 2563 1775 2563 
Q 1403 2563 1034 2156 
L 1034 647 
Q 1034 356 1069 288 
Q 1113 197 1189 155 
Q 1266 113 1500 113 
L 1500 0 
L 84 0 
L 84 113 
L 147 113 
Q 366 113 442 223 
Q 519 334 519 647 
L 519 1709 
Q 519 2225 495 2337 
Q 472 2450 423 2490 
Q 375 2531 294 2531 
Q 206 2531 84 2484 
L 38 2597 
L 900 2947 
L 1034 2947 
L 1034 2341 
z
" id="TimesNewRomanPSMT-6e" transform="scale(0.015625)"/>
       <path d="M 966 1044 
Q 703 1172 562 1401 
Q 422 1631 422 1909 
Q 422 2334 742 2640 
Q 1063 2947 1563 2947 
Q 1972 2947 2272 2747 
L 2878 2747 
Q 3013 2747 3034 2739 
Q 3056 2731 3066 2713 
Q 3084 2684 3084 2613 
Q 3084 2531 3069 2500 
Q 3059 2484 3036 2475 
Q 3013 2466 2878 2466 
L 2506 2466 
Q 2681 2241 2681 1891 
Q 2681 1491 2375 1206 
Q 2069 922 1553 922 
Q 1341 922 1119 984 
Q 981 866 932 777 
Q 884 688 884 625 
Q 884 572 936 522 
Q 988 472 1138 450 
Q 1225 438 1575 428 
Q 2219 413 2409 384 
Q 2700 344 2873 169 
Q 3047 -6 3047 -263 
Q 3047 -616 2716 -925 
Q 2228 -1381 1444 -1381 
Q 841 -1381 425 -1109 
Q 191 -953 191 -784 
Q 191 -709 225 -634 
Q 278 -519 444 -313 
Q 466 -284 763 25 
Q 600 122 533 198 
Q 466 275 466 372 
Q 466 481 555 628 
Q 644 775 966 1044 
z
M 1509 2797 
Q 1278 2797 1122 2612 
Q 966 2428 966 2047 
Q 966 1553 1178 1281 
Q 1341 1075 1591 1075 
Q 1828 1075 1981 1253 
Q 2134 1431 2134 1813 
Q 2134 2309 1919 2591 
Q 1759 2797 1509 2797 
z
M 934 0 
Q 788 -159 713 -296 
Q 638 -434 638 -550 
Q 638 -700 819 -813 
Q 1131 -1006 1722 -1006 
Q 2284 -1006 2551 -807 
Q 2819 -609 2819 -384 
Q 2819 -222 2659 -153 
Q 2497 -84 2016 -72 
Q 1313 -53 934 0 
z
" id="TimesNewRomanPSMT-67" transform="scale(0.015625)"/>
       <path d="M 1031 3803 
L 1031 2863 
L 1700 2863 
L 1700 2644 
L 1031 2644 
L 1031 788 
Q 1031 509 1111 412 
Q 1191 316 1316 316 
Q 1419 316 1516 380 
Q 1613 444 1666 569 
L 1788 569 
Q 1678 263 1478 108 
Q 1278 -47 1066 -47 
Q 922 -47 784 33 
Q 647 113 581 261 
Q 516 409 516 719 
L 516 2644 
L 63 2644 
L 63 2747 
Q 234 2816 414 2980 
Q 594 3144 734 3369 
Q 806 3488 934 3803 
L 1031 3803 
z
" id="TimesNewRomanPSMT-74" transform="scale(0.015625)"/>
       <path d="M 1041 4444 
L 1041 2350 
Q 1388 2731 1591 2839 
Q 1794 2947 1997 2947 
Q 2241 2947 2416 2812 
Q 2591 2678 2675 2391 
Q 2734 2191 2734 1659 
L 2734 647 
Q 2734 375 2778 275 
Q 2809 200 2884 156 
Q 2959 113 3159 113 
L 3159 0 
L 1753 0 
L 1753 113 
L 1819 113 
Q 2019 113 2097 173 
Q 2175 234 2206 353 
Q 2216 403 2216 647 
L 2216 1659 
Q 2216 2128 2167 2275 
Q 2119 2422 2012 2495 
Q 1906 2569 1756 2569 
Q 1603 2569 1437 2487 
Q 1272 2406 1041 2159 
L 1041 647 
Q 1041 353 1073 281 
Q 1106 209 1195 161 
Q 1284 113 1503 113 
L 1503 0 
L 84 0 
L 84 113 
Q 275 113 384 172 
Q 447 203 484 290 
Q 522 378 522 647 
L 522 3238 
Q 522 3728 498 3840 
Q 475 3953 426 3993 
Q 378 4034 297 4034 
Q 231 4034 84 3984 
L 41 4094 
L 897 4444 
L 1041 4444 
z
" id="TimesNewRomanPSMT-68" transform="scale(0.015625)"/>
       <path d="M 1900 -1269 
L 525 -1269 
L 525 4334 
L 1900 4334 
L 1900 4088 
L 994 4088 
L 994 -1025 
L 1900 -1025 
L 1900 -1269 
z
" id="TimesNewRomanPSMT-5b" transform="scale(0.015625)"/>
       <path d="M 234 4334 
L 1609 4334 
L 1609 -1272 
L 234 -1272 
L 234 -1025 
L 1141 -1025 
L 1141 4088 
L 234 4088 
L 234 4334 
z
" id="TimesNewRomanPSMT-5d" transform="scale(0.015625)"/>
      </defs>
      <use xlink:href="#TimesNewRomanPSMT-42"/>
      <use x="66.699219" xlink:href="#TimesNewRomanPSMT-65"/>
      <use x="111.083984" xlink:href="#TimesNewRomanPSMT-61"/>
      <use x="155.46875" xlink:href="#TimesNewRomanPSMT-6d"/>
      <use x="233.251953" xlink:href="#TimesNewRomanPSMT-20"/>
      <use x="258.251953" xlink:href="#TimesNewRomanPSMT-4c"/>
      <use x="319.335938" xlink:href="#TimesNewRomanPSMT-65"/>
      <use x="363.720703" xlink:href="#TimesNewRomanPSMT-6e"/>
      <use x="413.720703" xlink:href="#TimesNewRomanPSMT-67"/>
      <use x="463.720703" xlink:href="#TimesNewRomanPSMT-74"/>
      <use x="491.503906" xlink:href="#TimesNewRomanPSMT-68"/>
      <use x="541.503906" xlink:href="#TimesNewRomanPSMT-20"/>
      <use x="566.503906" xlink:href="#TimesNewRomanPSMT-5b"/>
      <use x="599.804688" xlink:href="#TimesNewRomanPSMT-6d"/>
      <use x="677.587891" xlink:href="#TimesNewRomanPSMT-5d"/>
     </g>
    </g>
   </g>
   <g id="matplotlib.axis_2">
    <g id="ytick_1">
     <g id="line2d_9">
      <defs>
       <path d="M 0 0 
L -3.5 0 
" id="mf72c5389c9" style="stroke:#000000;stroke-width:0.8;"/>
      </defs>
      <g>
       <use style="stroke:#000000;stroke-width:0.8;" x="68.412969" xlink:href="#mf72c5389c9" y="377.691277"/>
      </g>
     </g>
     <g id="text_10">
      <!-- −1 -->
      <g transform="translate(34.815313 386.370965)scale(0.25 -0.25)">
       <defs>
        <path d="M 3484 2000 
L 116 2000 
L 116 2256 
L 3484 2256 
L 3484 2000 
z
" id="TimesNewRomanPSMT-2212" transform="scale(0.015625)"/>
       </defs>
       <use xlink:href="#TimesNewRomanPSMT-2212"/>
       <use x="56.396484" xlink:href="#TimesNewRomanPSMT-31"/>
      </g>
     </g>
    </g>
    <g id="ytick_2">
     <g id="line2d_10">
      <g>
       <use style="stroke:#000000;stroke-width:0.8;" x="68.412969" xlink:href="#mf72c5389c9" y="287.23838"/>
      </g>
     </g>
     <g id="text_11">
      <!-- 0 -->
      <g transform="translate(48.912969 295.918067)scale(0.25 -0.25)">
       <use xlink:href="#TimesNewRomanPSMT-30"/>
      </g>
     </g>
    </g>
    <g id="ytick_3">
     <g id="line2d_11">
      <g>
       <use style="stroke:#000000;stroke-width:0.8;" x="68.412969" xlink:href="#mf72c5389c9" y="196.785482"/>
      </g>
     </g>
     <g id="text_12">
      <!-- 1 -->
      <g transform="translate(48.912969 205.46517)scale(0.25 -0.25)">
       <use xlink:href="#TimesNewRomanPSMT-31"/>
      </g>
     </g>
    </g>
    <g id="ytick_4">
     <g id="line2d_12">
      <g>
       <use style="stroke:#000000;stroke-width:0.8;" x="68.412969" xlink:href="#mf72c5389c9" y="106.332585"/>
      </g>
     </g>
     <g id="text_13">
      <!-- 2 -->
      <g transform="translate(48.912969 115.012272)scale(0.25 -0.25)">
       <use xlink:href="#TimesNewRomanPSMT-32"/>
      </g>
     </g>
    </g>
    <g id="ytick_5">
     <g id="line2d_13">
      <g>
       <use style="stroke:#000000;stroke-width:0.8;" x="68.412969" xlink:href="#mf72c5389c9" y="15.879687"/>
      </g>
     </g>
     <g id="text_14">
      <!-- 3 -->
      <g transform="translate(48.912969 24.559375)scale(0.25 -0.25)">
       <defs>
        <path d="M 325 3431 
Q 506 3859 782 4092 
Q 1059 4325 1472 4325 
Q 1981 4325 2253 3994 
Q 2459 3747 2459 3466 
Q 2459 3003 1878 2509 
Q 2269 2356 2469 2072 
Q 2669 1788 2669 1403 
Q 2669 853 2319 450 
Q 1863 -75 997 -75 
Q 569 -75 414 31 
Q 259 138 259 259 
Q 259 350 332 419 
Q 406 488 509 488 
Q 588 488 669 463 
Q 722 447 909 348 
Q 1097 250 1169 231 
Q 1284 197 1416 197 
Q 1734 197 1970 444 
Q 2206 691 2206 1028 
Q 2206 1275 2097 1509 
Q 2016 1684 1919 1775 
Q 1784 1900 1550 2001 
Q 1316 2103 1072 2103 
L 972 2103 
L 972 2197 
Q 1219 2228 1467 2375 
Q 1716 2522 1828 2728 
Q 1941 2934 1941 3181 
Q 1941 3503 1739 3701 
Q 1538 3900 1238 3900 
Q 753 3900 428 3381 
L 325 3431 
z
" id="TimesNewRomanPSMT-33" transform="scale(0.015625)"/>
       </defs>
       <use xlink:href="#TimesNewRomanPSMT-33"/>
      </g>
     </g>
    </g>
    <g id="text_15">
     <!-- Amplitude -->
     <g transform="translate(25.25375 283.294722)rotate(-90)scale(0.26 -0.26)">
      <defs>
       <path d="M 2928 1419 
L 1288 1419 
L 1000 750 
Q 894 503 894 381 
Q 894 284 986 211 
Q 1078 138 1384 116 
L 1384 0 
L 50 0 
L 50 116 
Q 316 163 394 238 
Q 553 388 747 847 
L 2238 4334 
L 2347 4334 
L 3822 809 
Q 4000 384 4145 257 
Q 4291 131 4550 116 
L 4550 0 
L 2878 0 
L 2878 116 
Q 3131 128 3220 200 
Q 3309 272 3309 375 
Q 3309 513 3184 809 
L 2928 1419 
z
M 2841 1650 
L 2122 3363 
L 1384 1650 
L 2841 1650 
z
" id="TimesNewRomanPSMT-41" transform="scale(0.015625)"/>
       <path d="M -6 2578 
L 875 2934 
L 994 2934 
L 994 2266 
Q 1216 2644 1439 2795 
Q 1663 2947 1909 2947 
Q 2341 2947 2628 2609 
Q 2981 2197 2981 1534 
Q 2981 794 2556 309 
Q 2206 -88 1675 -88 
Q 1444 -88 1275 -22 
Q 1150 25 994 166 
L 994 -706 
Q 994 -1000 1030 -1079 
Q 1066 -1159 1155 -1206 
Q 1244 -1253 1478 -1253 
L 1478 -1369 
L -22 -1369 
L -22 -1253 
L 56 -1253 
Q 228 -1256 350 -1188 
Q 409 -1153 442 -1076 
Q 475 -1000 475 -688 
L 475 2019 
Q 475 2297 450 2372 
Q 425 2447 370 2484 
Q 316 2522 222 2522 
Q 147 2522 31 2478 
L -6 2578 
z
M 994 2081 
L 994 1013 
Q 994 666 1022 556 
Q 1066 375 1236 237 
Q 1406 100 1666 100 
Q 1978 100 2172 344 
Q 2425 663 2425 1241 
Q 2425 1897 2138 2250 
Q 1938 2494 1663 2494 
Q 1513 2494 1366 2419 
Q 1253 2363 994 2081 
z
" id="TimesNewRomanPSMT-70" transform="scale(0.015625)"/>
       <path d="M 1184 4444 
L 1184 647 
Q 1184 378 1223 290 
Q 1263 203 1344 158 
Q 1425 113 1647 113 
L 1647 0 
L 244 0 
L 244 113 
Q 441 113 512 153 
Q 584 194 625 287 
Q 666 381 666 647 
L 666 3247 
Q 666 3731 644 3842 
Q 622 3953 573 3993 
Q 525 4034 450 4034 
Q 369 4034 244 3984 
L 191 4094 
L 1044 4444 
L 1184 4444 
z
" id="TimesNewRomanPSMT-6c" transform="scale(0.015625)"/>
       <path d="M 928 4444 
Q 1059 4444 1151 4351 
Q 1244 4259 1244 4128 
Q 1244 3997 1151 3903 
Q 1059 3809 928 3809 
Q 797 3809 703 3903 
Q 609 3997 609 4128 
Q 609 4259 701 4351 
Q 794 4444 928 4444 
z
M 1188 2947 
L 1188 647 
Q 1188 378 1227 289 
Q 1266 200 1342 156 
Q 1419 113 1622 113 
L 1622 0 
L 231 0 
L 231 113 
Q 441 113 512 153 
Q 584 194 626 287 
Q 669 381 669 647 
L 669 1750 
Q 669 2216 641 2353 
Q 619 2453 572 2492 
Q 525 2531 444 2531 
Q 356 2531 231 2484 
L 188 2597 
L 1050 2947 
L 1188 2947 
z
" id="TimesNewRomanPSMT-69" transform="scale(0.015625)"/>
       <path d="M 2709 2863 
L 2709 1128 
Q 2709 631 2732 520 
Q 2756 409 2807 365 
Q 2859 322 2928 322 
Q 3025 322 3147 375 
L 3191 266 
L 2334 -88 
L 2194 -88 
L 2194 519 
Q 1825 119 1631 15 
Q 1438 -88 1222 -88 
Q 981 -88 804 51 
Q 628 191 559 409 
Q 491 628 491 1028 
L 491 2306 
Q 491 2509 447 2587 
Q 403 2666 317 2708 
Q 231 2750 6 2747 
L 6 2863 
L 1009 2863 
L 1009 947 
Q 1009 547 1148 422 
Q 1288 297 1484 297 
Q 1619 297 1789 381 
Q 1959 466 2194 703 
L 2194 2325 
Q 2194 2569 2105 2655 
Q 2016 2741 1734 2747 
L 1734 2863 
L 2709 2863 
z
" id="TimesNewRomanPSMT-75" transform="scale(0.015625)"/>
       <path d="M 2222 322 
Q 2013 103 1813 7 
Q 1613 -88 1381 -88 
Q 913 -88 563 304 
Q 213 697 213 1313 
Q 213 1928 600 2439 
Q 988 2950 1597 2950 
Q 1975 2950 2222 2709 
L 2222 3238 
Q 2222 3728 2198 3840 
Q 2175 3953 2125 3993 
Q 2075 4034 2000 4034 
Q 1919 4034 1784 3984 
L 1744 4094 
L 2597 4444 
L 2738 4444 
L 2738 1134 
Q 2738 631 2761 520 
Q 2784 409 2836 365 
Q 2888 322 2956 322 
Q 3041 322 3181 375 
L 3216 266 
L 2366 -88 
L 2222 -88 
L 2222 322 
z
M 2222 541 
L 2222 2016 
Q 2203 2228 2109 2403 
Q 2016 2578 1861 2667 
Q 1706 2756 1559 2756 
Q 1284 2756 1069 2509 
Q 784 2184 784 1559 
Q 784 928 1059 592 
Q 1334 256 1672 256 
Q 1956 256 2222 541 
z
" id="TimesNewRomanPSMT-64" transform="scale(0.015625)"/>
      </defs>
      <use xlink:href="#TimesNewRomanPSMT-41"/>
      <use x="72.216797" xlink:href="#TimesNewRomanPSMT-6d"/>
      <use x="150" xlink:href="#TimesNewRomanPSMT-70"/>
      <use x="200" xlink:href="#TimesNewRomanPSMT-6c"/>
      <use x="227.783203" xlink:href="#TimesNewRomanPSMT-69"/>
      <use x="255.566406" xlink:href="#TimesNewRomanPSMT-74"/>
      <use x="283.349609" xlink:href="#TimesNewRomanPSMT-75"/>
      <use x="333.349609" xlink:href="#TimesNewRomanPSMT-64"/>
      <use x="383.349609" xlink:href="#TimesNewRomanPSMT-65"/>
     </g>
    </g>
   </g>
   <g id="line2d_14">
    <defs>
     <path d="M 0 -3 
L -3 3 
L 3 3 
z
" id="m5ba0664cb4" style="stroke:#000000;stroke-linejoin:miter;"/>
    </defs>
    <g clip-path="url(#pc820640ff3)">
     <use style="stroke:#000000;stroke-linejoin:miter;" x="106.458423" xlink:href="#m5ba0664cb4" y="287.23838"/>
     <use style="stroke:#000000;stroke-linejoin:miter;" x="111.531151" xlink:href="#m5ba0664cb4" y="287.251421"/>
     <use style="stroke:#000000;stroke-linejoin:miter;" x="116.603878" xlink:href="#m5ba0664cb4" y="287.290388"/>
     <use style="stroke:#000000;stroke-linejoin:miter;" x="121.676605" xlink:href="#m5ba0664cb4" y="287.35504"/>
     <use style="stroke:#000000;stroke-linejoin:miter;" x="126.749332" xlink:href="#m5ba0664cb4" y="287.445124"/>
     <use style="stroke:#000000;stroke-linejoin:miter;" x="131.82206" xlink:href="#m5ba0664cb4" y="287.560365"/>
     <use style="stroke:#000000;stroke-linejoin:miter;" x="136.894787" xlink:href="#m5ba0664cb4" y="287.700478"/>
     <use style="stroke:#000000;stroke-linejoin:miter;" x="141.967514" xlink:href="#m5ba0664cb4" y="287.865159"/>
     <use style="stroke:#000000;stroke-linejoin:miter;" x="147.040241" xlink:href="#m5ba0664cb4" y="288.054096"/>
     <use style="stroke:#000000;stroke-linejoin:miter;" x="152.112969" xlink:href="#m5ba0664cb4" y="288.266964"/>
     <use style="stroke:#000000;stroke-linejoin:miter;" x="157.185696" xlink:href="#m5ba0664cb4" y="288.503427"/>
     <use style="stroke:#000000;stroke-linejoin:miter;" x="162.258423" xlink:href="#m5ba0664cb4" y="288.763142"/>
     <use style="stroke:#000000;stroke-linejoin:miter;" x="167.331151" xlink:href="#m5ba0664cb4" y="289.045757"/>
     <use style="stroke:#000000;stroke-linejoin:miter;" x="172.403878" xlink:href="#m5ba0664cb4" y="289.350914"/>
     <use style="stroke:#000000;stroke-linejoin:miter;" x="177.476605" xlink:href="#m5ba0664cb4" y="289.678249"/>
     <use style="stroke:#000000;stroke-linejoin:miter;" x="182.549332" xlink:href="#m5ba0664cb4" y="290.027393"/>
     <use style="stroke:#000000;stroke-linejoin:miter;" x="187.62206" xlink:href="#m5ba0664cb4" y="290.39797"/>
     <use style="stroke:#000000;stroke-linejoin:miter;" x="192.694787" xlink:href="#m5ba0664cb4" y="290.789607"/>
     <use style="stroke:#000000;stroke-linejoin:miter;" x="197.767514" xlink:href="#m5ba0664cb4" y="291.201924"/>
     <use style="stroke:#000000;stroke-linejoin:miter;" x="202.840241" xlink:href="#m5ba0664cb4" y="291.634541"/>
     <use style="stroke:#000000;stroke-linejoin:miter;" x="207.912969" xlink:href="#m5ba0664cb4" y="292.087076"/>
     <use style="stroke:#000000;stroke-linejoin:miter;" x="212.985696" xlink:href="#m5ba0664cb4" y="292.559147"/>
     <use style="stroke:#000000;stroke-linejoin:miter;" x="218.058423" xlink:href="#m5ba0664cb4" y="293.050375"/>
     <use style="stroke:#000000;stroke-linejoin:miter;" x="223.131151" xlink:href="#m5ba0664cb4" y="293.560374"/>
     <use style="stroke:#000000;stroke-linejoin:miter;" x="228.203878" xlink:href="#m5ba0664cb4" y="294.08877"/>
     <use style="stroke:#000000;stroke-linejoin:miter;" x="233.276605" xlink:href="#m5ba0664cb4" y="294.635185"/>
     <use style="stroke:#000000;stroke-linejoin:miter;" x="238.349332" xlink:href="#m5ba0664cb4" y="295.19924"/>
     <use style="stroke:#000000;stroke-linejoin:miter;" x="243.42206" xlink:href="#m5ba0664cb4" y="295.780558"/>
     <use style="stroke:#000000;stroke-linejoin:miter;" x="248.494787" xlink:href="#m5ba0664cb4" y="296.378782"/>
     <use style="stroke:#000000;stroke-linejoin:miter;" x="253.567514" xlink:href="#m5ba0664cb4" y="296.993537"/>
     <use style="stroke:#000000;stroke-linejoin:miter;" x="258.640241" xlink:href="#m5ba0664cb4" y="297.62446"/>
     <use style="stroke:#000000;stroke-linejoin:miter;" x="263.712969" xlink:href="#m5ba0664cb4" y="298.271198"/>
     <use style="stroke:#000000;stroke-linejoin:miter;" x="268.785696" xlink:href="#m5ba0664cb4" y="298.933386"/>
     <use style="stroke:#000000;stroke-linejoin:miter;" x="273.858423" xlink:href="#m5ba0664cb4" y="299.610692"/>
     <use style="stroke:#000000;stroke-linejoin:miter;" x="278.931151" xlink:href="#m5ba0664cb4" y="300.302749"/>
     <use style="stroke:#000000;stroke-linejoin:miter;" x="284.003878" xlink:href="#m5ba0664cb4" y="301.009229"/>
     <use style="stroke:#000000;stroke-linejoin:miter;" x="289.076605" xlink:href="#m5ba0664cb4" y="301.729799"/>
     <use style="stroke:#000000;stroke-linejoin:miter;" x="294.149332" xlink:href="#m5ba0664cb4" y="302.46412"/>
     <use style="stroke:#000000;stroke-linejoin:miter;" x="299.22206" xlink:href="#m5ba0664cb4" y="303.211867"/>
     <use style="stroke:#000000;stroke-linejoin:miter;" x="304.294787" xlink:href="#m5ba0664cb4" y="303.972728"/>
     <use style="stroke:#000000;stroke-linejoin:miter;" x="309.367514" xlink:href="#m5ba0664cb4" y="304.746386"/>
     <use style="stroke:#000000;stroke-linejoin:miter;" x="314.440241" xlink:href="#m5ba0664cb4" y="305.532529"/>
     <use style="stroke:#000000;stroke-linejoin:miter;" x="319.512969" xlink:href="#m5ba0664cb4" y="306.330856"/>
     <use style="stroke:#000000;stroke-linejoin:miter;" x="324.585696" xlink:href="#m5ba0664cb4" y="307.14108"/>
     <use style="stroke:#000000;stroke-linejoin:miter;" x="329.658423" xlink:href="#m5ba0664cb4" y="307.962886"/>
     <use style="stroke:#000000;stroke-linejoin:miter;" x="334.731151" xlink:href="#m5ba0664cb4" y="308.79601"/>
     <use style="stroke:#000000;stroke-linejoin:miter;" x="339.803878" xlink:href="#m5ba0664cb4" y="309.640161"/>
     <use style="stroke:#000000;stroke-linejoin:miter;" x="344.876605" xlink:href="#m5ba0664cb4" y="310.495068"/>
     <use style="stroke:#000000;stroke-linejoin:miter;" x="349.949332" xlink:href="#m5ba0664cb4" y="311.360467"/>
     <use style="stroke:#000000;stroke-linejoin:miter;" x="355.02206" xlink:href="#m5ba0664cb4" y="312.236087"/>
     <use style="stroke:#000000;stroke-linejoin:miter;" x="360.094787" xlink:href="#m5ba0664cb4" y="313.121666"/>
     <use style="stroke:#000000;stroke-linejoin:miter;" x="365.167514" xlink:href="#m5ba0664cb4" y="314.01696"/>
     <use style="stroke:#000000;stroke-linejoin:miter;" x="370.240241" xlink:href="#m5ba0664cb4" y="314.921733"/>
     <use style="stroke:#000000;stroke-linejoin:miter;" x="375.312969" xlink:href="#m5ba0664cb4" y="315.835724"/>
     <use style="stroke:#000000;stroke-linejoin:miter;" x="380.385696" xlink:href="#m5ba0664cb4" y="316.758696"/>
     <use style="stroke:#000000;stroke-linejoin:miter;" x="385.458423" xlink:href="#m5ba0664cb4" y="317.690442"/>
     <use style="stroke:#000000;stroke-linejoin:miter;" x="390.531151" xlink:href="#m5ba0664cb4" y="318.630709"/>
     <use style="stroke:#000000;stroke-linejoin:miter;" x="395.603878" xlink:href="#m5ba0664cb4" y="319.579307"/>
     <use style="stroke:#000000;stroke-linejoin:miter;" x="400.676605" xlink:href="#m5ba0664cb4" y="320.535991"/>
     <use style="stroke:#000000;stroke-linejoin:miter;" x="405.749332" xlink:href="#m5ba0664cb4" y="321.500571"/>
     <use style="stroke:#000000;stroke-linejoin:miter;" x="410.82206" xlink:href="#m5ba0664cb4" y="322.472841"/>
     <use style="stroke:#000000;stroke-linejoin:miter;" x="415.894787" xlink:href="#m5ba0664cb4" y="323.45259"/>
     <use style="stroke:#000000;stroke-linejoin:miter;" x="420.967514" xlink:href="#m5ba0664cb4" y="324.43963"/>
     <use style="stroke:#000000;stroke-linejoin:miter;" x="426.040241" xlink:href="#m5ba0664cb4" y="325.433771"/>
     <use style="stroke:#000000;stroke-linejoin:miter;" x="431.112969" xlink:href="#m5ba0664cb4" y="326.434813"/>
     <use style="stroke:#000000;stroke-linejoin:miter;" x="436.185696" xlink:href="#m5ba0664cb4" y="327.442603"/>
     <use style="stroke:#000000;stroke-linejoin:miter;" x="441.258423" xlink:href="#m5ba0664cb4" y="328.456942"/>
     <use style="stroke:#000000;stroke-linejoin:miter;" x="446.331151" xlink:href="#m5ba0664cb4" y="329.477649"/>
     <use style="stroke:#000000;stroke-linejoin:miter;" x="451.403878" xlink:href="#m5ba0664cb4" y="330.504578"/>
     <use style="stroke:#000000;stroke-linejoin:miter;" x="456.476605" xlink:href="#m5ba0664cb4" y="331.53756"/>
     <use style="stroke:#000000;stroke-linejoin:miter;" x="461.549332" xlink:href="#m5ba0664cb4" y="332.576411"/>
     <use style="stroke:#000000;stroke-linejoin:miter;" x="466.62206" xlink:href="#m5ba0664cb4" y="333.620988"/>
     <use style="stroke:#000000;stroke-linejoin:miter;" x="471.694787" xlink:href="#m5ba0664cb4" y="334.671146"/>
     <use style="stroke:#000000;stroke-linejoin:miter;" x="476.767514" xlink:href="#m5ba0664cb4" y="335.726732"/>
     <use style="stroke:#000000;stroke-linejoin:miter;" x="481.840241" xlink:href="#m5ba0664cb4" y="336.787581"/>
     <use style="stroke:#000000;stroke-linejoin:miter;" x="486.912969" xlink:href="#m5ba0664cb4" y="337.853569"/>
     <use style="stroke:#000000;stroke-linejoin:miter;" x="491.985696" xlink:href="#m5ba0664cb4" y="338.924549"/>
     <use style="stroke:#000000;stroke-linejoin:miter;" x="497.058423" xlink:href="#m5ba0664cb4" y="340.000378"/>
     <use style="stroke:#000000;stroke-linejoin:miter;" x="502.131151" xlink:href="#m5ba0664cb4" y="341.080937"/>
     <use style="stroke:#000000;stroke-linejoin:miter;" x="507.203878" xlink:href="#m5ba0664cb4" y="342.166083"/>
     <use style="stroke:#000000;stroke-linejoin:miter;" x="512.276605" xlink:href="#m5ba0664cb4" y="343.255696"/>
     <use style="stroke:#000000;stroke-linejoin:miter;" x="517.349332" xlink:href="#m5ba0664cb4" y="344.349652"/>
     <use style="stroke:#000000;stroke-linejoin:miter;" x="522.42206" xlink:href="#m5ba0664cb4" y="345.447813"/>
     <use style="stroke:#000000;stroke-linejoin:miter;" x="527.494787" xlink:href="#m5ba0664cb4" y="346.550081"/>
     <use style="stroke:#000000;stroke-linejoin:miter;" x="532.567514" xlink:href="#m5ba0664cb4" y="347.65632"/>
     <use style="stroke:#000000;stroke-linejoin:miter;" x="537.640241" xlink:href="#m5ba0664cb4" y="348.76643"/>
     <use style="stroke:#000000;stroke-linejoin:miter;" x="542.712969" xlink:href="#m5ba0664cb4" y="349.880295"/>
     <use style="stroke:#000000;stroke-linejoin:miter;" x="547.785696" xlink:href="#m5ba0664cb4" y="350.997759"/>
     <use style="stroke:#000000;stroke-linejoin:miter;" x="552.858423" xlink:href="#m5ba0664cb4" y="352.118886"/>
     <use style="stroke:#000000;stroke-linejoin:miter;" x="557.931151" xlink:href="#m5ba0664cb4" y="353.243297"/>
     <use style="stroke:#000000;stroke-linejoin:miter;" x="563.003878" xlink:href="#m5ba0664cb4" y="354.371109"/>
     <use style="stroke:#000000;stroke-linejoin:miter;" x="568.076605" xlink:href="#m5ba0664cb4" y="355.502132"/>
     <use style="stroke:#000000;stroke-linejoin:miter;" x="573.149332" xlink:href="#m5ba0664cb4" y="356.636294"/>
     <use style="stroke:#000000;stroke-linejoin:miter;" x="578.22206" xlink:href="#m5ba0664cb4" y="357.773486"/>
     <use style="stroke:#000000;stroke-linejoin:miter;" x="583.294787" xlink:href="#m5ba0664cb4" y="358.913663"/>
     <use style="stroke:#000000;stroke-linejoin:miter;" x="588.367514" xlink:href="#m5ba0664cb4" y="360.05658"/>
     <use style="stroke:#000000;stroke-linejoin:miter;" x="593.440241" xlink:href="#m5ba0664cb4" y="361.202302"/>
     <use style="stroke:#000000;stroke-linejoin:miter;" x="598.512969" xlink:href="#m5ba0664cb4" y="362.350683"/>
     <use style="stroke:#000000;stroke-linejoin:miter;" x="603.585696" xlink:href="#m5ba0664cb4" y="363.501687"/>
     <use style="stroke:#000000;stroke-linejoin:miter;" x="608.658423" xlink:href="#m5ba0664cb4" y="364.65507"/>
     <use style="stroke:#000000;stroke-linejoin:miter;" x="613.731151" xlink:href="#m5ba0664cb4" y="365.810967"/>
     <use style="stroke:#000000;stroke-linejoin:miter;" x="618.803878" xlink:href="#m5ba0664cb4" y="366.969063"/>
     <use style="stroke:#000000;stroke-linejoin:miter;" x="623.876605" xlink:href="#m5ba0664cb4" y="368.129483"/>
     <use style="stroke:#000000;stroke-linejoin:miter;" x="628.949332" xlink:href="#m5ba0664cb4" y="369.292002"/>
     <use style="stroke:#000000;stroke-linejoin:miter;" x="634.02206" xlink:href="#m5ba0664cb4" y="370.456655"/>
     <use style="stroke:#000000;stroke-linejoin:miter;" x="639.094787" xlink:href="#m5ba0664cb4" y="371.62329"/>
     <use style="stroke:#000000;stroke-linejoin:miter;" x="644.167514" xlink:href="#m5ba0664cb4" y="372.791851"/>
     <use style="stroke:#000000;stroke-linejoin:miter;" x="649.240241" xlink:href="#m5ba0664cb4" y="373.962203"/>
     <use style="stroke:#000000;stroke-linejoin:miter;" x="654.312969" xlink:href="#m5ba0664cb4" y="375.134382"/>
     <use style="stroke:#000000;stroke-linejoin:miter;" x="659.385696" xlink:href="#m5ba0664cb4" y="376.308225"/>
     <use style="stroke:#000000;stroke-linejoin:miter;" x="664.458423" xlink:href="#m5ba0664cb4" y="377.483778"/>
     <use style="stroke:#000000;stroke-linejoin:miter;" x="669.531151" xlink:href="#m5ba0664cb4" y="378.660796"/>
     <use style="stroke:#000000;stroke-linejoin:miter;" x="674.603878" xlink:href="#m5ba0664cb4" y="379.839316"/>
     <use style="stroke:#000000;stroke-linejoin:miter;" x="679.676605" xlink:href="#m5ba0664cb4" y="381.019365"/>
     <use style="stroke:#000000;stroke-linejoin:miter;" x="684.749332" xlink:href="#m5ba0664cb4" y="382.200689"/>
     <use style="stroke:#000000;stroke-linejoin:miter;" x="689.82206" xlink:href="#m5ba0664cb4" y="383.383333"/>
     <use style="stroke:#000000;stroke-linejoin:miter;" x="694.894787" xlink:href="#m5ba0664cb4" y="384.567126"/>
     <use style="stroke:#000000;stroke-linejoin:miter;" x="699.967514" xlink:href="#m5ba0664cb4" y="385.752204"/>
     <use style="stroke:#000000;stroke-linejoin:miter;" x="705.040241" xlink:href="#m5ba0664cb4" y="386.938313"/>
     <use style="stroke:#000000;stroke-linejoin:miter;" x="710.112969" xlink:href="#m5ba0664cb4" y="388.12548"/>
     <use style="stroke:#000000;stroke-linejoin:miter;" x="715.185696" xlink:href="#m5ba0664cb4" y="389.313724"/>
     <use style="stroke:#000000;stroke-linejoin:miter;" x="720.258423" xlink:href="#m5ba0664cb4" y="390.502799"/>
     <use style="stroke:#000000;stroke-linejoin:miter;" x="725.331151" xlink:href="#m5ba0664cb4" y="391.692825"/>
     <use style="stroke:#000000;stroke-linejoin:miter;" x="730.403878" xlink:href="#m5ba0664cb4" y="392.883628"/>
     <use style="stroke:#000000;stroke-linejoin:miter;" x="735.476605" xlink:href="#m5ba0664cb4" y="394.075246"/>
     <use style="stroke:#000000;stroke-linejoin:miter;" x="740.549332" xlink:href="#m5ba0664cb4" y="395.267605"/>
     <use style="stroke:#000000;stroke-linejoin:miter;" x="745.62206" xlink:href="#m5ba0664cb4" y="396.460534"/>
     <use style="stroke:#000000;stroke-linejoin:miter;" x="750.694787" xlink:href="#m5ba0664cb4" y="397.65415"/>
     <use style="stroke:#000000;stroke-linejoin:miter;" x="755.767514" xlink:href="#m5ba0664cb4" y="398.848373"/>
     <use style="stroke:#000000;stroke-linejoin:miter;" x="760.840241" xlink:href="#m5ba0664cb4" y="400.043147"/>
     <use style="stroke:#000000;stroke-linejoin:miter;" x="765.912969" xlink:href="#m5ba0664cb4" y="401.238283"/>
     <use style="stroke:#000000;stroke-linejoin:miter;" x="770.985696" xlink:href="#m5ba0664cb4" y="402.433998"/>
     <use style="stroke:#000000;stroke-linejoin:miter;" x="776.058423" xlink:href="#m5ba0664cb4" y="403.630029"/>
     <use style="stroke:#000000;stroke-linejoin:miter;" x="781.131151" xlink:href="#m5ba0664cb4" y="404.826477"/>
     <use style="stroke:#000000;stroke-linejoin:miter;" x="786.203878" xlink:href="#m5ba0664cb4" y="406.023268"/>
     <use style="stroke:#000000;stroke-linejoin:miter;" x="791.276605" xlink:href="#m5ba0664cb4" y="407.220322"/>
     <use style="stroke:#000000;stroke-linejoin:miter;" x="796.349332" xlink:href="#m5ba0664cb4" y="408.417656"/>
     <use style="stroke:#000000;stroke-linejoin:miter;" x="801.42206" xlink:href="#m5ba0664cb4" y="409.615189"/>
     <use style="stroke:#000000;stroke-linejoin:miter;" x="806.494787" xlink:href="#m5ba0664cb4" y="410.812921"/>
     <use style="stroke:#000000;stroke-linejoin:miter;" x="811.567514" xlink:href="#m5ba0664cb4" y="412.01087"/>
     <use style="stroke:#000000;stroke-linejoin:miter;" x="816.640241" xlink:href="#m5ba0664cb4" y="413.208964"/>
     <use style="stroke:#000000;stroke-linejoin:miter;" x="821.712969" xlink:href="#m5ba0664cb4" y="414.407103"/>
     <use style="stroke:#000000;stroke-linejoin:miter;" x="826.785696" xlink:href="#m5ba0664cb4" y="415.605387"/>
     <use style="stroke:#000000;stroke-linejoin:miter;" x="831.858423" xlink:href="#m5ba0664cb4" y="416.803743"/>
     <use style="stroke:#000000;stroke-linejoin:miter;" x="836.931151" xlink:href="#m5ba0664cb4" y="418.002172"/>
     <use style="stroke:#000000;stroke-linejoin:miter;" x="842.003878" xlink:href="#m5ba0664cb4" y="419.200682"/>
     <use style="stroke:#000000;stroke-linejoin:miter;" x="847.076605" xlink:href="#m5ba0664cb4" y="420.399173"/>
     <use style="stroke:#000000;stroke-linejoin:miter;" x="852.149332" xlink:href="#m5ba0664cb4" y="421.597665"/>
     <use style="stroke:#000000;stroke-linejoin:miter;" x="857.22206" xlink:href="#m5ba0664cb4" y="422.796238"/>
     <use style="stroke:#000000;stroke-linejoin:miter;" x="862.294787" xlink:href="#m5ba0664cb4" y="423.994812"/>
     <use style="stroke:#000000;stroke-linejoin:miter;" x="867.367514" xlink:href="#m5ba0664cb4" y="425.193295"/>
    </g>
   </g>
   <g id="line2d_15">
    <path clip-path="url(#pc820640ff3)" d="M 106.458423 287.23838 
L 116.603878 287.143037 
L 126.749332 286.859979 
L 136.894787 286.39375 
L 147.040241 285.749092 
L 157.185696 284.930893 
L 167.331151 283.94416 
L 177.476605 282.793977 
L 187.62206 281.485485 
L 197.767514 280.02384 
L 212.985696 277.555495 
L 228.203878 274.771456 
L 243.42206 271.688774 
L 258.640241 268.324135 
L 273.858423 264.69376 
L 289.076605 260.813385 
L 304.294787 256.698146 
L 319.512969 252.362591 
L 334.731151 247.820647 
L 349.949332 243.085616 
L 370.240241 236.495019 
L 390.531151 229.620951 
L 410.82206 222.490043 
L 431.112969 215.125784 
L 451.403878 207.550065 
L 476.767514 197.813887 
L 502.131151 187.815621 
L 527.494787 177.5887 
L 557.931151 165.057365 
L 588.367514 152.288473 
L 623.876605 137.147816 
L 664.458423 119.591768 
L 715.185696 97.380317 
L 786.203878 66.006105 
L 867.367514 30.016526 
L 867.367514 30.016526 
" style="fill:none;stroke:#0000ff;stroke-linecap:square;stroke-width:3;"/>
   </g>
   <g id="line2d_16">
    <path clip-path="url(#pc820640ff3)" d="M 106.458423 287.23838 
L 121.676605 287.355826 
L 136.894787 287.703565 
L 152.112969 288.27377 
L 167.331151 289.057593 
L 182.549332 290.045451 
L 197.767514 291.227282 
L 212.985696 292.592761 
L 228.203878 294.13147 
L 248.494787 296.434705 
L 268.785696 299.003545 
L 289.076605 301.814946 
L 309.367514 304.847077 
L 329.658423 308.07946 
L 355.02206 312.372707 
L 380.385696 316.914275 
L 405.749332 321.671934 
L 436.185696 327.629081 
L 466.62206 333.818845 
L 502.131151 341.287902 
L 537.640241 348.978588 
L 578.22206 357.987407 
L 623.876605 368.341125 
L 679.676605 381.224132 
L 755.767514 399.039771 
L 867.367514 425.36198 
L 867.367514 425.36198 
" style="fill:none;stroke:#ff0000;stroke-linecap:square;stroke-width:3;"/>
   </g>
   <g id="patch_3">
    <path d="M 68.412969 445.129253 
L 68.412969 10.249253 
" style="fill:none;stroke:#000000;stroke-linecap:square;stroke-linejoin:miter;stroke-width:0.8;"/>
   </g>
   <g id="patch_4">
    <path d="M 68.412969 445.129253 
L 905.412969 445.129253 
" style="fill:none;stroke:#000000;stroke-linecap:square;stroke-linejoin:miter;stroke-width:0.8;"/>
   </g>
   <g id="legend_1">
    <g id="patch_5">
     <path d="M 83.812969 121.208315 
L 343.650156 121.208315 
Q 348.050156 121.208315 348.050156 116.808315 
L 348.050156 25.649253 
Q 348.050156 21.249253 343.650156 21.249253 
L 83.812969 21.249253 
Q 79.412969 21.249253 79.412969 25.649253 
L 79.412969 116.808315 
Q 79.412969 121.208315 83.812969 121.208315 
z
" style="fill:#ffffff;opacity:0.8;stroke:#cccccc;stroke-linejoin:miter;"/>
    </g>
    <g id="line2d_17"/>
    <g id="line2d_18">
     <g>
      <use style="stroke:#000000;stroke-linejoin:miter;" x="110.212969" xlink:href="#m5ba0664cb4" y="37.749253"/>
     </g>
    </g>
    <g id="text_16">
     <!-- Reference FEM -->
     <g transform="translate(149.812969 45.449253)scale(0.22 -0.22)">
      <defs>
       <path d="M 4325 0 
L 3194 0 
L 1759 1981 
Q 1600 1975 1500 1975 
Q 1459 1975 1412 1976 
Q 1366 1978 1316 1981 
L 1316 750 
Q 1316 350 1403 253 
Q 1522 116 1759 116 
L 1925 116 
L 1925 0 
L 109 0 
L 109 116 
L 269 116 
Q 538 116 653 291 
Q 719 388 719 750 
L 719 3488 
Q 719 3888 631 3984 
Q 509 4122 269 4122 
L 109 4122 
L 109 4238 
L 1653 4238 
Q 2328 4238 2648 4139 
Q 2969 4041 3192 3777 
Q 3416 3513 3416 3147 
Q 3416 2756 3161 2468 
Q 2906 2181 2372 2063 
L 3247 847 
Q 3547 428 3762 290 
Q 3978 153 4325 116 
L 4325 0 
z
M 1316 2178 
Q 1375 2178 1419 2176 
Q 1463 2175 1491 2175 
Q 2097 2175 2405 2437 
Q 2713 2700 2713 3106 
Q 2713 3503 2464 3751 
Q 2216 4000 1806 4000 
Q 1625 4000 1316 3941 
L 1316 2178 
z
" id="TimesNewRomanPSMT-52" transform="scale(0.015625)"/>
       <path d="M 1319 2638 
L 1319 756 
Q 1319 356 1406 250 
Q 1522 113 1716 113 
L 1975 113 
L 1975 0 
L 266 0 
L 266 113 
L 394 113 
Q 519 113 622 175 
Q 725 238 764 344 
Q 803 450 803 756 
L 803 2638 
L 247 2638 
L 247 2863 
L 803 2863 
L 803 3050 
Q 803 3478 940 3775 
Q 1078 4072 1361 4255 
Q 1644 4438 1997 4438 
Q 2325 4438 2600 4225 
Q 2781 4084 2781 3909 
Q 2781 3816 2700 3733 
Q 2619 3650 2525 3650 
Q 2453 3650 2373 3701 
Q 2294 3753 2178 3923 
Q 2063 4094 1966 4153 
Q 1869 4213 1750 4213 
Q 1606 4213 1506 4136 
Q 1406 4059 1362 3898 
Q 1319 3738 1319 3069 
L 1319 2863 
L 2056 2863 
L 2056 2638 
L 1319 2638 
z
" id="TimesNewRomanPSMT-66" transform="scale(0.015625)"/>
       <path d="M 1038 2947 
L 1038 2303 
Q 1397 2947 1775 2947 
Q 1947 2947 2059 2842 
Q 2172 2738 2172 2600 
Q 2172 2478 2090 2393 
Q 2009 2309 1897 2309 
Q 1788 2309 1652 2417 
Q 1516 2525 1450 2525 
Q 1394 2525 1328 2463 
Q 1188 2334 1038 2041 
L 1038 669 
Q 1038 431 1097 309 
Q 1138 225 1241 169 
Q 1344 113 1538 113 
L 1538 0 
L 72 0 
L 72 113 
Q 291 113 397 181 
Q 475 231 506 341 
Q 522 394 522 644 
L 522 1753 
Q 522 2253 501 2348 
Q 481 2444 426 2487 
Q 372 2531 291 2531 
Q 194 2531 72 2484 
L 41 2597 
L 906 2947 
L 1038 2947 
z
" id="TimesNewRomanPSMT-72" transform="scale(0.015625)"/>
       <path d="M 2631 1088 
Q 2516 522 2178 217 
Q 1841 -88 1431 -88 
Q 944 -88 581 321 
Q 219 731 219 1428 
Q 219 2103 620 2525 
Q 1022 2947 1584 2947 
Q 2006 2947 2278 2723 
Q 2550 2500 2550 2259 
Q 2550 2141 2473 2067 
Q 2397 1994 2259 1994 
Q 2075 1994 1981 2113 
Q 1928 2178 1911 2362 
Q 1894 2547 1784 2644 
Q 1675 2738 1481 2738 
Q 1169 2738 978 2506 
Q 725 2200 725 1697 
Q 725 1184 976 792 
Q 1228 400 1656 400 
Q 1963 400 2206 609 
Q 2378 753 2541 1131 
L 2631 1088 
z
" id="TimesNewRomanPSMT-63" transform="scale(0.015625)"/>
       <path d="M 1309 4006 
L 1309 2341 
L 2081 2341 
Q 2347 2341 2470 2458 
Q 2594 2575 2634 2922 
L 2750 2922 
L 2750 1488 
L 2634 1488 
Q 2631 1734 2570 1850 
Q 2509 1966 2401 2023 
Q 2294 2081 2081 2081 
L 1309 2081 
L 1309 750 
Q 1309 428 1350 325 
Q 1381 247 1481 191 
Q 1619 116 1769 116 
L 1922 116 
L 1922 0 
L 103 0 
L 103 116 
L 253 116 
Q 516 116 634 269 
Q 709 369 709 750 
L 709 3488 
Q 709 3809 669 3913 
Q 638 3991 541 4047 
Q 406 4122 253 4122 
L 103 4122 
L 103 4238 
L 3256 4238 
L 3297 3306 
L 3188 3306 
Q 3106 3603 2998 3742 
Q 2891 3881 2733 3943 
Q 2575 4006 2244 4006 
L 1309 4006 
z
" id="TimesNewRomanPSMT-46" transform="scale(0.015625)"/>
       <path d="M 1338 4006 
L 1338 2331 
L 2269 2331 
Q 2631 2331 2753 2441 
Q 2916 2584 2934 2947 
L 3050 2947 
L 3050 1472 
L 2934 1472 
Q 2891 1781 2847 1869 
Q 2791 1978 2662 2040 
Q 2534 2103 2269 2103 
L 1338 2103 
L 1338 706 
Q 1338 425 1363 364 
Q 1388 303 1450 267 
Q 1513 231 1688 231 
L 2406 231 
Q 2766 231 2928 281 
Q 3091 331 3241 478 
Q 3434 672 3638 1063 
L 3763 1063 
L 3397 0 
L 131 0 
L 131 116 
L 281 116 
Q 431 116 566 188 
Q 666 238 702 338 
Q 738 438 738 747 
L 738 3500 
Q 738 3903 656 3997 
Q 544 4122 281 4122 
L 131 4122 
L 131 4238 
L 3397 4238 
L 3444 3309 
L 3322 3309 
Q 3256 3644 3176 3769 
Q 3097 3894 2941 3959 
Q 2816 4006 2500 4006 
L 1338 4006 
z
" id="TimesNewRomanPSMT-45" transform="scale(0.015625)"/>
       <path d="M 2619 0 
L 981 3566 
L 981 734 
Q 981 344 1066 247 
Q 1181 116 1431 116 
L 1581 116 
L 1581 0 
L 106 0 
L 106 116 
L 256 116 
Q 525 116 638 278 
Q 706 378 706 734 
L 706 3503 
Q 706 3784 644 3909 
Q 600 4000 483 4061 
Q 366 4122 106 4122 
L 106 4238 
L 1306 4238 
L 2844 922 
L 4356 4238 
L 5556 4238 
L 5556 4122 
L 5409 4122 
Q 5138 4122 5025 3959 
Q 4956 3859 4956 3503 
L 4956 734 
Q 4956 344 5044 247 
Q 5159 116 5409 116 
L 5556 116 
L 5556 0 
L 3756 0 
L 3756 116 
L 3906 116 
Q 4178 116 4288 278 
Q 4356 378 4356 734 
L 4356 3566 
L 2722 0 
L 2619 0 
z
" id="TimesNewRomanPSMT-4d" transform="scale(0.015625)"/>
      </defs>
      <use xlink:href="#TimesNewRomanPSMT-52"/>
      <use x="66.699219" xlink:href="#TimesNewRomanPSMT-65"/>
      <use x="111.083984" xlink:href="#TimesNewRomanPSMT-66"/>
      <use x="144.384766" xlink:href="#TimesNewRomanPSMT-65"/>
      <use x="188.769531" xlink:href="#TimesNewRomanPSMT-72"/>
      <use x="222.070312" xlink:href="#TimesNewRomanPSMT-65"/>
      <use x="266.455078" xlink:href="#TimesNewRomanPSMT-6e"/>
      <use x="316.455078" xlink:href="#TimesNewRomanPSMT-63"/>
      <use x="360.839844" xlink:href="#TimesNewRomanPSMT-65"/>
      <use x="405.224609" xlink:href="#TimesNewRomanPSMT-20"/>
      <use x="430.224609" xlink:href="#TimesNewRomanPSMT-46"/>
      <use x="485.839844" xlink:href="#TimesNewRomanPSMT-45"/>
      <use x="546.923828" xlink:href="#TimesNewRomanPSMT-4d"/>
     </g>
    </g>
    <g id="line2d_19">
     <path d="M 88.212969 68.85519 
L 132.212969 68.85519 
" style="fill:none;stroke:#0000ff;stroke-linecap:square;stroke-width:3;"/>
    </g>
    <g id="line2d_20"/>
    <g id="text_17">
     <!-- Initial mistuned FEM -->
     <g transform="translate(149.812969 76.55519)scale(0.22 -0.22)">
      <defs>
       <path d="M 1975 116 
L 1975 0 
L 159 0 
L 159 116 
L 309 116 
Q 572 116 691 269 
Q 766 369 766 750 
L 766 3488 
Q 766 3809 725 3913 
Q 694 3991 597 4047 
Q 459 4122 309 4122 
L 159 4122 
L 159 4238 
L 1975 4238 
L 1975 4122 
L 1822 4122 
Q 1563 4122 1444 3969 
Q 1366 3869 1366 3488 
L 1366 750 
Q 1366 428 1406 325 
Q 1438 247 1538 191 
Q 1672 116 1822 116 
L 1975 116 
z
" id="TimesNewRomanPSMT-49" transform="scale(0.015625)"/>
       <path d="M 2050 2947 
L 2050 1972 
L 1947 1972 
Q 1828 2431 1642 2597 
Q 1456 2763 1169 2763 
Q 950 2763 815 2647 
Q 681 2531 681 2391 
Q 681 2216 781 2091 
Q 878 1963 1175 1819 
L 1631 1597 
Q 2266 1288 2266 781 
Q 2266 391 1970 151 
Q 1675 -88 1309 -88 
Q 1047 -88 709 6 
Q 606 38 541 38 
Q 469 38 428 -44 
L 325 -44 
L 325 978 
L 428 978 
Q 516 541 762 319 
Q 1009 97 1316 97 
Q 1531 97 1667 223 
Q 1803 350 1803 528 
Q 1803 744 1651 891 
Q 1500 1038 1047 1263 
Q 594 1488 453 1669 
Q 313 1847 313 2119 
Q 313 2472 555 2709 
Q 797 2947 1181 2947 
Q 1350 2947 1591 2875 
Q 1750 2828 1803 2828 
Q 1853 2828 1881 2850 
Q 1909 2872 1947 2947 
L 2050 2947 
z
" id="TimesNewRomanPSMT-73" transform="scale(0.015625)"/>
      </defs>
      <use xlink:href="#TimesNewRomanPSMT-49"/>
      <use x="33.300781" xlink:href="#TimesNewRomanPSMT-6e"/>
      <use x="83.300781" xlink:href="#TimesNewRomanPSMT-69"/>
      <use x="111.083984" xlink:href="#TimesNewRomanPSMT-74"/>
      <use x="138.867188" xlink:href="#TimesNewRomanPSMT-69"/>
      <use x="166.650391" xlink:href="#TimesNewRomanPSMT-61"/>
      <use x="211.035156" xlink:href="#TimesNewRomanPSMT-6c"/>
      <use x="238.818359" xlink:href="#TimesNewRomanPSMT-20"/>
      <use x="263.818359" xlink:href="#TimesNewRomanPSMT-6d"/>
      <use x="341.601562" xlink:href="#TimesNewRomanPSMT-69"/>
      <use x="369.384766" xlink:href="#TimesNewRomanPSMT-73"/>
      <use x="408.300781" xlink:href="#TimesNewRomanPSMT-74"/>
      <use x="436.083984" xlink:href="#TimesNewRomanPSMT-75"/>
      <use x="486.083984" xlink:href="#TimesNewRomanPSMT-6e"/>
      <use x="536.083984" xlink:href="#TimesNewRomanPSMT-65"/>
      <use x="580.46875" xlink:href="#TimesNewRomanPSMT-64"/>
      <use x="630.46875" xlink:href="#TimesNewRomanPSMT-20"/>
      <use x="655.46875" xlink:href="#TimesNewRomanPSMT-46"/>
      <use x="711.083984" xlink:href="#TimesNewRomanPSMT-45"/>
      <use x="772.167969" xlink:href="#TimesNewRomanPSMT-4d"/>
     </g>
    </g>
    <g id="line2d_21">
     <path d="M 88.212969 99.961128 
L 132.212969 99.961128 
" style="fill:none;stroke:#ff0000;stroke-linecap:square;stroke-width:3;"/>
    </g>
    <g id="line2d_22"/>
    <g id="text_18">
     <!-- Converged FEM -->
     <g transform="translate(149.812969 107.661128)scale(0.22 -0.22)">
      <defs>
       <path d="M 3853 4334 
L 3950 2894 
L 3853 2894 
Q 3659 3541 3300 3825 
Q 2941 4109 2438 4109 
Q 2016 4109 1675 3895 
Q 1334 3681 1139 3212 
Q 944 2744 944 2047 
Q 944 1472 1128 1050 
Q 1313 628 1683 403 
Q 2053 178 2528 178 
Q 2941 178 3256 354 
Q 3572 531 3950 1056 
L 4047 994 
Q 3728 428 3303 165 
Q 2878 -97 2294 -97 
Q 1241 -97 663 684 
Q 231 1266 231 2053 
Q 231 2688 515 3219 
Q 800 3750 1298 4042 
Q 1797 4334 2388 4334 
Q 2847 4334 3294 4109 
Q 3425 4041 3481 4041 
Q 3566 4041 3628 4100 
Q 3709 4184 3744 4334 
L 3853 4334 
z
" id="TimesNewRomanPSMT-43" transform="scale(0.015625)"/>
       <path d="M 1600 2947 
Q 2250 2947 2644 2453 
Q 2978 2031 2978 1484 
Q 2978 1100 2793 706 
Q 2609 313 2286 112 
Q 1963 -88 1566 -88 
Q 919 -88 538 428 
Q 216 863 216 1403 
Q 216 1797 411 2186 
Q 606 2575 925 2761 
Q 1244 2947 1600 2947 
z
M 1503 2744 
Q 1338 2744 1170 2645 
Q 1003 2547 900 2300 
Q 797 2053 797 1666 
Q 797 1041 1045 587 
Q 1294 134 1700 134 
Q 2003 134 2200 384 
Q 2397 634 2397 1244 
Q 2397 2006 2069 2444 
Q 1847 2744 1503 2744 
z
" id="TimesNewRomanPSMT-6f" transform="scale(0.015625)"/>
       <path d="M 53 2863 
L 1400 2863 
L 1400 2747 
L 1313 2747 
Q 1191 2747 1127 2687 
Q 1063 2628 1063 2528 
Q 1063 2419 1128 2269 
L 1794 688 
L 2463 2328 
Q 2534 2503 2534 2594 
Q 2534 2638 2509 2666 
Q 2475 2713 2422 2730 
Q 2369 2747 2206 2747 
L 2206 2863 
L 3141 2863 
L 3141 2747 
Q 2978 2734 2916 2681 
Q 2806 2588 2719 2369 
L 1703 -88 
L 1575 -88 
L 553 2328 
Q 484 2497 421 2570 
Q 359 2644 263 2694 
Q 209 2722 53 2747 
L 53 2863 
z
" id="TimesNewRomanPSMT-76" transform="scale(0.015625)"/>
      </defs>
      <use xlink:href="#TimesNewRomanPSMT-43"/>
      <use x="66.699219" xlink:href="#TimesNewRomanPSMT-6f"/>
      <use x="116.699219" xlink:href="#TimesNewRomanPSMT-6e"/>
      <use x="166.699219" xlink:href="#TimesNewRomanPSMT-76"/>
      <use x="216.699219" xlink:href="#TimesNewRomanPSMT-65"/>
      <use x="261.083984" xlink:href="#TimesNewRomanPSMT-72"/>
      <use x="292.634766" xlink:href="#TimesNewRomanPSMT-67"/>
      <use x="342.634766" xlink:href="#TimesNewRomanPSMT-65"/>
      <use x="387.019531" xlink:href="#TimesNewRomanPSMT-64"/>
      <use x="437.019531" xlink:href="#TimesNewRomanPSMT-20"/>
      <use x="462.019531" xlink:href="#TimesNewRomanPSMT-46"/>
      <use x="517.634766" xlink:href="#TimesNewRomanPSMT-45"/>
      <use x="578.71875" xlink:href="#TimesNewRomanPSMT-4d"/>
     </g>
    </g>
   </g>
  </g>
 </g>
 <defs>
  <clipPath id="pc820640ff3">
   <rect height="434.88" width="837" x="68.412969" y="10.249253"/>
  </clipPath>
 </defs>
</svg>
