<?xml version="1.0" encoding="utf-8" standalone="no"?>
<!DOCTYPE svg PUBLIC "-//W3C//DTD SVG 1.1//EN"
  "http://www.w3.org/Graphics/SVG/1.1/DTD/svg11.dtd">
<!-- Created with matplotlib (https://matplotlib.org/) -->
<svg height="518.488158pt" version="1.1" viewBox="0 0 948.270156 518.488158" width="948.270156pt" xmlns="http://www.w3.org/2000/svg" xmlns:xlink="http://www.w3.org/1999/xlink">
 <metadata>
  <rdf:RDF xmlns:cc="http://creativecommons.org/ns#" xmlns:dc="http://purl.org/dc/elements/1.1/" xmlns:rdf="http://www.w3.org/1999/02/22-rdf-syntax-ns#">
   <cc:Work>
    <dc:type rdf:resource="http://purl.org/dc/dcmitype/StillImage"/>
    <dc:date>2021-11-22T18:03:29.298256</dc:date>
    <dc:format>image/svg+xml</dc:format>
    <dc:creator>
     <cc:Agent>
      <dc:title>Matplotlib v3.3.4, https://matplotlib.org/</dc:title>
     </cc:Agent>
    </dc:creator>
   </cc:Work>
  </rdf:RDF>
 </metadata>
 <defs>
  <style type="text/css">*{stroke-linecap:butt;stroke-linejoin:round;}</style>
 </defs>
 <g id="figure_1">
  <g id="patch_1">
   <path d="M 0 518.488158 
L 948.270156 518.488158 
L 948.270156 0 
L 0 0 
z
" style="fill:#ffffff;"/>
  </g>
  <g id="axes_1">
   <g id="patch_2">
    <path d="M 104.070156 450.92972 
L 941.070156 450.92972 
L 941.070156 7.40972 
L 104.070156 7.40972 
z
" style="fill:#ffffff;"/>
   </g>
   <g id="matplotlib.axis_1">
    <g id="xtick_1">
     <g id="line2d_1">
      <defs>
       <path d="M 0 0 
L 0 3.5 
" id="m470a0a9c9b" style="stroke:#000000;stroke-width:0.8;"/>
      </defs>
      <g>
       <use style="stroke:#000000;stroke-width:0.8;" x="142.115611" xlink:href="#m470a0a9c9b" y="450.92972"/>
      </g>
     </g>
     <g id="text_1">
      <!-- 0.0 -->
      <g transform="translate(122.236705 476.925814)scale(0.25 -0.25)">
       <defs>
        <path d="M 31.78125 66.40625 
Q 24.171875 66.40625 20.328125 58.90625 
Q 16.5 51.421875 16.5 36.375 
Q 16.5 21.390625 20.328125 13.890625 
Q 24.171875 6.390625 31.78125 6.390625 
Q 39.453125 6.390625 43.28125 13.890625 
Q 47.125 21.390625 47.125 36.375 
Q 47.125 51.421875 43.28125 58.90625 
Q 39.453125 66.40625 31.78125 66.40625 
z
M 31.78125 74.21875 
Q 44.046875 74.21875 50.515625 64.515625 
Q 56.984375 54.828125 56.984375 36.375 
Q 56.984375 17.96875 50.515625 8.265625 
Q 44.046875 -1.421875 31.78125 -1.421875 
Q 19.53125 -1.421875 13.0625 8.265625 
Q 6.59375 17.96875 6.59375 36.375 
Q 6.59375 54.828125 13.0625 64.515625 
Q 19.53125 74.21875 31.78125 74.21875 
z
" id="DejaVuSans-48"/>
        <path d="M 10.6875 12.40625 
L 21 12.40625 
L 21 0 
L 10.6875 0 
z
" id="DejaVuSans-46"/>
       </defs>
       <use xlink:href="#DejaVuSans-48"/>
       <use x="63.623047" xlink:href="#DejaVuSans-46"/>
       <use x="95.410156" xlink:href="#DejaVuSans-48"/>
      </g>
     </g>
    </g>
    <g id="xtick_2">
     <g id="line2d_2">
      <g>
       <use style="stroke:#000000;stroke-width:0.8;" x="243.570156" xlink:href="#m470a0a9c9b" y="450.92972"/>
      </g>
     </g>
     <g id="text_2">
      <!-- 0.2 -->
      <g transform="translate(223.69125 476.925814)scale(0.25 -0.25)">
       <defs>
        <path d="M 19.1875 8.296875 
L 53.609375 8.296875 
L 53.609375 0 
L 7.328125 0 
L 7.328125 8.296875 
Q 12.9375 14.109375 22.625 23.890625 
Q 32.328125 33.6875 34.8125 36.53125 
Q 39.546875 41.84375 41.421875 45.53125 
Q 43.3125 49.21875 43.3125 52.78125 
Q 43.3125 58.59375 39.234375 62.25 
Q 35.15625 65.921875 28.609375 65.921875 
Q 23.96875 65.921875 18.8125 64.3125 
Q 13.671875 62.703125 7.8125 59.421875 
L 7.8125 69.390625 
Q 13.765625 71.78125 18.9375 73 
Q 24.125 74.21875 28.421875 74.21875 
Q 39.75 74.21875 46.484375 68.546875 
Q 53.21875 62.890625 53.21875 53.421875 
Q 53.21875 48.921875 51.53125 44.890625 
Q 49.859375 40.875 45.40625 35.40625 
Q 44.1875 33.984375 37.640625 27.21875 
Q 31.109375 20.453125 19.1875 8.296875 
z
" id="DejaVuSans-50"/>
       </defs>
       <use xlink:href="#DejaVuSans-48"/>
       <use x="63.623047" xlink:href="#DejaVuSans-46"/>
       <use x="95.410156" xlink:href="#DejaVuSans-50"/>
      </g>
     </g>
    </g>
    <g id="xtick_3">
     <g id="line2d_3">
      <g>
       <use style="stroke:#000000;stroke-width:0.8;" x="345.024702" xlink:href="#m470a0a9c9b" y="450.92972"/>
      </g>
     </g>
     <g id="text_3">
      <!-- 0.4 -->
      <g transform="translate(325.145795 476.925814)scale(0.25 -0.25)">
       <defs>
        <path d="M 37.796875 64.3125 
L 12.890625 25.390625 
L 37.796875 25.390625 
z
M 35.203125 72.90625 
L 47.609375 72.90625 
L 47.609375 25.390625 
L 58.015625 25.390625 
L 58.015625 17.1875 
L 47.609375 17.1875 
L 47.609375 0 
L 37.796875 0 
L 37.796875 17.1875 
L 4.890625 17.1875 
L 4.890625 26.703125 
z
" id="DejaVuSans-52"/>
       </defs>
       <use xlink:href="#DejaVuSans-48"/>
       <use x="63.623047" xlink:href="#DejaVuSans-46"/>
       <use x="95.410156" xlink:href="#DejaVuSans-52"/>
      </g>
     </g>
    </g>
    <g id="xtick_4">
     <g id="line2d_4">
      <g>
       <use style="stroke:#000000;stroke-width:0.8;" x="446.479247" xlink:href="#m470a0a9c9b" y="450.92972"/>
      </g>
     </g>
     <g id="text_4">
      <!-- 0.6 -->
      <g transform="translate(426.600341 476.925814)scale(0.25 -0.25)">
       <defs>
        <path d="M 33.015625 40.375 
Q 26.375 40.375 22.484375 35.828125 
Q 18.609375 31.296875 18.609375 23.390625 
Q 18.609375 15.53125 22.484375 10.953125 
Q 26.375 6.390625 33.015625 6.390625 
Q 39.65625 6.390625 43.53125 10.953125 
Q 47.40625 15.53125 47.40625 23.390625 
Q 47.40625 31.296875 43.53125 35.828125 
Q 39.65625 40.375 33.015625 40.375 
z
M 52.59375 71.296875 
L 52.59375 62.3125 
Q 48.875 64.0625 45.09375 64.984375 
Q 41.3125 65.921875 37.59375 65.921875 
Q 27.828125 65.921875 22.671875 59.328125 
Q 17.53125 52.734375 16.796875 39.40625 
Q 19.671875 43.65625 24.015625 45.921875 
Q 28.375 48.1875 33.59375 48.1875 
Q 44.578125 48.1875 50.953125 41.515625 
Q 57.328125 34.859375 57.328125 23.390625 
Q 57.328125 12.15625 50.6875 5.359375 
Q 44.046875 -1.421875 33.015625 -1.421875 
Q 20.359375 -1.421875 13.671875 8.265625 
Q 6.984375 17.96875 6.984375 36.375 
Q 6.984375 53.65625 15.1875 63.9375 
Q 23.390625 74.21875 37.203125 74.21875 
Q 40.921875 74.21875 44.703125 73.484375 
Q 48.484375 72.75 52.59375 71.296875 
z
" id="DejaVuSans-54"/>
       </defs>
       <use xlink:href="#DejaVuSans-48"/>
       <use x="63.623047" xlink:href="#DejaVuSans-46"/>
       <use x="95.410156" xlink:href="#DejaVuSans-54"/>
      </g>
     </g>
    </g>
    <g id="xtick_5">
     <g id="line2d_5">
      <g>
       <use style="stroke:#000000;stroke-width:0.8;" x="547.933793" xlink:href="#m470a0a9c9b" y="450.92972"/>
      </g>
     </g>
     <g id="text_5">
      <!-- 0.8 -->
      <g transform="translate(528.054886 476.925814)scale(0.25 -0.25)">
       <defs>
        <path d="M 31.78125 34.625 
Q 24.75 34.625 20.71875 30.859375 
Q 16.703125 27.09375 16.703125 20.515625 
Q 16.703125 13.921875 20.71875 10.15625 
Q 24.75 6.390625 31.78125 6.390625 
Q 38.8125 6.390625 42.859375 10.171875 
Q 46.921875 13.96875 46.921875 20.515625 
Q 46.921875 27.09375 42.890625 30.859375 
Q 38.875 34.625 31.78125 34.625 
z
M 21.921875 38.8125 
Q 15.578125 40.375 12.03125 44.71875 
Q 8.5 49.078125 8.5 55.328125 
Q 8.5 64.0625 14.71875 69.140625 
Q 20.953125 74.21875 31.78125 74.21875 
Q 42.671875 74.21875 48.875 69.140625 
Q 55.078125 64.0625 55.078125 55.328125 
Q 55.078125 49.078125 51.53125 44.71875 
Q 48 40.375 41.703125 38.8125 
Q 48.828125 37.15625 52.796875 32.3125 
Q 56.78125 27.484375 56.78125 20.515625 
Q 56.78125 9.90625 50.3125 4.234375 
Q 43.84375 -1.421875 31.78125 -1.421875 
Q 19.734375 -1.421875 13.25 4.234375 
Q 6.78125 9.90625 6.78125 20.515625 
Q 6.78125 27.484375 10.78125 32.3125 
Q 14.796875 37.15625 21.921875 38.8125 
z
M 18.3125 54.390625 
Q 18.3125 48.734375 21.84375 45.5625 
Q 25.390625 42.390625 31.78125 42.390625 
Q 38.140625 42.390625 41.71875 45.5625 
Q 45.3125 48.734375 45.3125 54.390625 
Q 45.3125 60.0625 41.71875 63.234375 
Q 38.140625 66.40625 31.78125 66.40625 
Q 25.390625 66.40625 21.84375 63.234375 
Q 18.3125 60.0625 18.3125 54.390625 
z
" id="DejaVuSans-56"/>
       </defs>
       <use xlink:href="#DejaVuSans-48"/>
       <use x="63.623047" xlink:href="#DejaVuSans-46"/>
       <use x="95.410156" xlink:href="#DejaVuSans-56"/>
      </g>
     </g>
    </g>
    <g id="xtick_6">
     <g id="line2d_6">
      <g>
       <use style="stroke:#000000;stroke-width:0.8;" x="649.388338" xlink:href="#m470a0a9c9b" y="450.92972"/>
      </g>
     </g>
     <g id="text_6">
      <!-- 1.0 -->
      <g transform="translate(629.509432 476.925814)scale(0.25 -0.25)">
       <defs>
        <path d="M 12.40625 8.296875 
L 28.515625 8.296875 
L 28.515625 63.921875 
L 10.984375 60.40625 
L 10.984375 69.390625 
L 28.421875 72.90625 
L 38.28125 72.90625 
L 38.28125 8.296875 
L 54.390625 8.296875 
L 54.390625 0 
L 12.40625 0 
z
" id="DejaVuSans-49"/>
       </defs>
       <use xlink:href="#DejaVuSans-49"/>
       <use x="63.623047" xlink:href="#DejaVuSans-46"/>
       <use x="95.410156" xlink:href="#DejaVuSans-48"/>
      </g>
     </g>
    </g>
    <g id="xtick_7">
     <g id="line2d_7">
      <g>
       <use style="stroke:#000000;stroke-width:0.8;" x="750.842884" xlink:href="#m470a0a9c9b" y="450.92972"/>
      </g>
     </g>
     <g id="text_7">
      <!-- 1.2 -->
      <g transform="translate(730.963977 476.925814)scale(0.25 -0.25)">
       <use xlink:href="#DejaVuSans-49"/>
       <use x="63.623047" xlink:href="#DejaVuSans-46"/>
       <use x="95.410156" xlink:href="#DejaVuSans-50"/>
      </g>
     </g>
    </g>
    <g id="xtick_8">
     <g id="line2d_8">
      <g>
       <use style="stroke:#000000;stroke-width:0.8;" x="852.297429" xlink:href="#m470a0a9c9b" y="450.92972"/>
      </g>
     </g>
     <g id="text_8">
      <!-- 1.4 -->
      <g transform="translate(832.418523 476.925814)scale(0.25 -0.25)">
       <use xlink:href="#DejaVuSans-49"/>
       <use x="63.623047" xlink:href="#DejaVuSans-46"/>
       <use x="95.410156" xlink:href="#DejaVuSans-52"/>
      </g>
     </g>
    </g>
    <g id="text_9">
     <!-- Beam Length [m] -->
     <g transform="translate(409.110625 505.88097)scale(0.26 -0.26)">
      <defs>
       <path d="M 19.671875 34.8125 
L 19.671875 8.109375 
L 35.5 8.109375 
Q 43.453125 8.109375 47.28125 11.40625 
Q 51.125 14.703125 51.125 21.484375 
Q 51.125 28.328125 47.28125 31.5625 
Q 43.453125 34.8125 35.5 34.8125 
z
M 19.671875 64.796875 
L 19.671875 42.828125 
L 34.28125 42.828125 
Q 41.5 42.828125 45.03125 45.53125 
Q 48.578125 48.25 48.578125 53.8125 
Q 48.578125 59.328125 45.03125 62.0625 
Q 41.5 64.796875 34.28125 64.796875 
z
M 9.8125 72.90625 
L 35.015625 72.90625 
Q 46.296875 72.90625 52.390625 68.21875 
Q 58.5 63.53125 58.5 54.890625 
Q 58.5 48.1875 55.375 44.234375 
Q 52.25 40.28125 46.1875 39.3125 
Q 53.46875 37.75 57.5 32.78125 
Q 61.53125 27.828125 61.53125 20.40625 
Q 61.53125 10.640625 54.890625 5.3125 
Q 48.25 0 35.984375 0 
L 9.8125 0 
z
" id="DejaVuSans-66"/>
       <path d="M 56.203125 29.59375 
L 56.203125 25.203125 
L 14.890625 25.203125 
Q 15.484375 15.921875 20.484375 11.0625 
Q 25.484375 6.203125 34.421875 6.203125 
Q 39.59375 6.203125 44.453125 7.46875 
Q 49.3125 8.734375 54.109375 11.28125 
L 54.109375 2.78125 
Q 49.265625 0.734375 44.1875 -0.34375 
Q 39.109375 -1.421875 33.890625 -1.421875 
Q 20.796875 -1.421875 13.15625 6.1875 
Q 5.515625 13.8125 5.515625 26.8125 
Q 5.515625 40.234375 12.765625 48.109375 
Q 20.015625 56 32.328125 56 
Q 43.359375 56 49.78125 48.890625 
Q 56.203125 41.796875 56.203125 29.59375 
z
M 47.21875 32.234375 
Q 47.125 39.59375 43.09375 43.984375 
Q 39.0625 48.390625 32.421875 48.390625 
Q 24.90625 48.390625 20.390625 44.140625 
Q 15.875 39.890625 15.1875 32.171875 
z
" id="DejaVuSans-101"/>
       <path d="M 34.28125 27.484375 
Q 23.390625 27.484375 19.1875 25 
Q 14.984375 22.515625 14.984375 16.5 
Q 14.984375 11.71875 18.140625 8.90625 
Q 21.296875 6.109375 26.703125 6.109375 
Q 34.1875 6.109375 38.703125 11.40625 
Q 43.21875 16.703125 43.21875 25.484375 
L 43.21875 27.484375 
z
M 52.203125 31.203125 
L 52.203125 0 
L 43.21875 0 
L 43.21875 8.296875 
Q 40.140625 3.328125 35.546875 0.953125 
Q 30.953125 -1.421875 24.3125 -1.421875 
Q 15.921875 -1.421875 10.953125 3.296875 
Q 6 8.015625 6 15.921875 
Q 6 25.140625 12.171875 29.828125 
Q 18.359375 34.515625 30.609375 34.515625 
L 43.21875 34.515625 
L 43.21875 35.40625 
Q 43.21875 41.609375 39.140625 45 
Q 35.0625 48.390625 27.6875 48.390625 
Q 23 48.390625 18.546875 47.265625 
Q 14.109375 46.140625 10.015625 43.890625 
L 10.015625 52.203125 
Q 14.9375 54.109375 19.578125 55.046875 
Q 24.21875 56 28.609375 56 
Q 40.484375 56 46.34375 49.84375 
Q 52.203125 43.703125 52.203125 31.203125 
z
" id="DejaVuSans-97"/>
       <path d="M 52 44.1875 
Q 55.375 50.25 60.0625 53.125 
Q 64.75 56 71.09375 56 
Q 79.640625 56 84.28125 50.015625 
Q 88.921875 44.046875 88.921875 33.015625 
L 88.921875 0 
L 79.890625 0 
L 79.890625 32.71875 
Q 79.890625 40.578125 77.09375 44.375 
Q 74.3125 48.1875 68.609375 48.1875 
Q 61.625 48.1875 57.5625 43.546875 
Q 53.515625 38.921875 53.515625 30.90625 
L 53.515625 0 
L 44.484375 0 
L 44.484375 32.71875 
Q 44.484375 40.625 41.703125 44.40625 
Q 38.921875 48.1875 33.109375 48.1875 
Q 26.21875 48.1875 22.15625 43.53125 
Q 18.109375 38.875 18.109375 30.90625 
L 18.109375 0 
L 9.078125 0 
L 9.078125 54.6875 
L 18.109375 54.6875 
L 18.109375 46.1875 
Q 21.1875 51.21875 25.484375 53.609375 
Q 29.78125 56 35.6875 56 
Q 41.65625 56 45.828125 52.96875 
Q 50 49.953125 52 44.1875 
z
" id="DejaVuSans-109"/>
       <path id="DejaVuSans-32"/>
       <path d="M 9.8125 72.90625 
L 19.671875 72.90625 
L 19.671875 8.296875 
L 55.171875 8.296875 
L 55.171875 0 
L 9.8125 0 
z
" id="DejaVuSans-76"/>
       <path d="M 54.890625 33.015625 
L 54.890625 0 
L 45.90625 0 
L 45.90625 32.71875 
Q 45.90625 40.484375 42.875 44.328125 
Q 39.84375 48.1875 33.796875 48.1875 
Q 26.515625 48.1875 22.3125 43.546875 
Q 18.109375 38.921875 18.109375 30.90625 
L 18.109375 0 
L 9.078125 0 
L 9.078125 54.6875 
L 18.109375 54.6875 
L 18.109375 46.1875 
Q 21.34375 51.125 25.703125 53.5625 
Q 30.078125 56 35.796875 56 
Q 45.21875 56 50.046875 50.171875 
Q 54.890625 44.34375 54.890625 33.015625 
z
" id="DejaVuSans-110"/>
       <path d="M 45.40625 27.984375 
Q 45.40625 37.75 41.375 43.109375 
Q 37.359375 48.484375 30.078125 48.484375 
Q 22.859375 48.484375 18.828125 43.109375 
Q 14.796875 37.75 14.796875 27.984375 
Q 14.796875 18.265625 18.828125 12.890625 
Q 22.859375 7.515625 30.078125 7.515625 
Q 37.359375 7.515625 41.375 12.890625 
Q 45.40625 18.265625 45.40625 27.984375 
z
M 54.390625 6.78125 
Q 54.390625 -7.171875 48.1875 -13.984375 
Q 42 -20.796875 29.203125 -20.796875 
Q 24.46875 -20.796875 20.265625 -20.09375 
Q 16.0625 -19.390625 12.109375 -17.921875 
L 12.109375 -9.1875 
Q 16.0625 -11.328125 19.921875 -12.34375 
Q 23.78125 -13.375 27.78125 -13.375 
Q 36.625 -13.375 41.015625 -8.765625 
Q 45.40625 -4.15625 45.40625 5.171875 
L 45.40625 9.625 
Q 42.625 4.78125 38.28125 2.390625 
Q 33.9375 0 27.875 0 
Q 17.828125 0 11.671875 7.65625 
Q 5.515625 15.328125 5.515625 27.984375 
Q 5.515625 40.671875 11.671875 48.328125 
Q 17.828125 56 27.875 56 
Q 33.9375 56 38.28125 53.609375 
Q 42.625 51.21875 45.40625 46.390625 
L 45.40625 54.6875 
L 54.390625 54.6875 
z
" id="DejaVuSans-103"/>
       <path d="M 18.3125 70.21875 
L 18.3125 54.6875 
L 36.8125 54.6875 
L 36.8125 47.703125 
L 18.3125 47.703125 
L 18.3125 18.015625 
Q 18.3125 11.328125 20.140625 9.421875 
Q 21.96875 7.515625 27.59375 7.515625 
L 36.8125 7.515625 
L 36.8125 0 
L 27.59375 0 
Q 17.1875 0 13.234375 3.875 
Q 9.28125 7.765625 9.28125 18.015625 
L 9.28125 47.703125 
L 2.6875 47.703125 
L 2.6875 54.6875 
L 9.28125 54.6875 
L 9.28125 70.21875 
z
" id="DejaVuSans-116"/>
       <path d="M 54.890625 33.015625 
L 54.890625 0 
L 45.90625 0 
L 45.90625 32.71875 
Q 45.90625 40.484375 42.875 44.328125 
Q 39.84375 48.1875 33.796875 48.1875 
Q 26.515625 48.1875 22.3125 43.546875 
Q 18.109375 38.921875 18.109375 30.90625 
L 18.109375 0 
L 9.078125 0 
L 9.078125 75.984375 
L 18.109375 75.984375 
L 18.109375 46.1875 
Q 21.34375 51.125 25.703125 53.5625 
Q 30.078125 56 35.796875 56 
Q 45.21875 56 50.046875 50.171875 
Q 54.890625 44.34375 54.890625 33.015625 
z
" id="DejaVuSans-104"/>
       <path d="M 8.59375 75.984375 
L 29.296875 75.984375 
L 29.296875 69 
L 17.578125 69 
L 17.578125 -6.203125 
L 29.296875 -6.203125 
L 29.296875 -13.1875 
L 8.59375 -13.1875 
z
" id="DejaVuSans-91"/>
       <path d="M 30.421875 75.984375 
L 30.421875 -13.1875 
L 9.71875 -13.1875 
L 9.71875 -6.203125 
L 21.390625 -6.203125 
L 21.390625 69 
L 9.71875 69 
L 9.71875 75.984375 
z
" id="DejaVuSans-93"/>
      </defs>
      <use xlink:href="#DejaVuSans-66"/>
      <use x="68.603516" xlink:href="#DejaVuSans-101"/>
      <use x="130.126953" xlink:href="#DejaVuSans-97"/>
      <use x="191.40625" xlink:href="#DejaVuSans-109"/>
      <use x="288.818359" xlink:href="#DejaVuSans-32"/>
      <use x="320.605469" xlink:href="#DejaVuSans-76"/>
      <use x="374.568359" xlink:href="#DejaVuSans-101"/>
      <use x="436.091797" xlink:href="#DejaVuSans-110"/>
      <use x="499.470703" xlink:href="#DejaVuSans-103"/>
      <use x="562.947266" xlink:href="#DejaVuSans-116"/>
      <use x="602.15625" xlink:href="#DejaVuSans-104"/>
      <use x="665.535156" xlink:href="#DejaVuSans-32"/>
      <use x="697.322266" xlink:href="#DejaVuSans-91"/>
      <use x="736.335938" xlink:href="#DejaVuSans-109"/>
      <use x="833.748047" xlink:href="#DejaVuSans-93"/>
     </g>
    </g>
   </g>
   <g id="matplotlib.axis_2">
    <g id="ytick_1">
     <g id="line2d_9">
      <defs>
       <path d="M 0 0 
L -3.5 0 
" id="mb8ee934d7c" style="stroke:#000000;stroke-width:0.8;"/>
      </defs>
      <g>
       <use style="stroke:#000000;stroke-width:0.8;" x="104.070156" xlink:href="#mb8ee934d7c" y="423.338989"/>
      </g>
     </g>
     <g id="text_10">
      <!-- −1.5 -->
      <g transform="translate(36.363125 432.837036)scale(0.25 -0.25)">
       <defs>
        <path d="M 10.59375 35.5 
L 73.1875 35.5 
L 73.1875 27.203125 
L 10.59375 27.203125 
z
" id="DejaVuSans-8722"/>
        <path d="M 10.796875 72.90625 
L 49.515625 72.90625 
L 49.515625 64.59375 
L 19.828125 64.59375 
L 19.828125 46.734375 
Q 21.96875 47.46875 24.109375 47.828125 
Q 26.265625 48.1875 28.421875 48.1875 
Q 40.625 48.1875 47.75 41.5 
Q 54.890625 34.8125 54.890625 23.390625 
Q 54.890625 11.625 47.5625 5.09375 
Q 40.234375 -1.421875 26.90625 -1.421875 
Q 22.3125 -1.421875 17.546875 -0.640625 
Q 12.796875 0.140625 7.71875 1.703125 
L 7.71875 11.625 
Q 12.109375 9.234375 16.796875 8.0625 
Q 21.484375 6.890625 26.703125 6.890625 
Q 35.15625 6.890625 40.078125 11.328125 
Q 45.015625 15.765625 45.015625 23.390625 
Q 45.015625 31 40.078125 35.4375 
Q 35.15625 39.890625 26.703125 39.890625 
Q 22.75 39.890625 18.8125 39.015625 
Q 14.890625 38.140625 10.796875 36.28125 
z
" id="DejaVuSans-53"/>
       </defs>
       <use xlink:href="#DejaVuSans-8722"/>
       <use x="83.789062" xlink:href="#DejaVuSans-49"/>
       <use x="147.412109" xlink:href="#DejaVuSans-46"/>
       <use x="179.199219" xlink:href="#DejaVuSans-53"/>
      </g>
     </g>
    </g>
    <g id="ytick_2">
     <g id="line2d_10">
      <g>
       <use style="stroke:#000000;stroke-width:0.8;" x="104.070156" xlink:href="#mb8ee934d7c" y="365.247426"/>
      </g>
     </g>
     <g id="text_11">
      <!-- −1.0 -->
      <g transform="translate(36.363125 374.745473)scale(0.25 -0.25)">
       <use xlink:href="#DejaVuSans-8722"/>
       <use x="83.789062" xlink:href="#DejaVuSans-49"/>
       <use x="147.412109" xlink:href="#DejaVuSans-46"/>
       <use x="179.199219" xlink:href="#DejaVuSans-48"/>
      </g>
     </g>
    </g>
    <g id="ytick_3">
     <g id="line2d_11">
      <g>
       <use style="stroke:#000000;stroke-width:0.8;" x="104.070156" xlink:href="#mb8ee934d7c" y="307.155863"/>
      </g>
     </g>
     <g id="text_12">
      <!-- −0.5 -->
      <g transform="translate(36.363125 316.65391)scale(0.25 -0.25)">
       <use xlink:href="#DejaVuSans-8722"/>
       <use x="83.789062" xlink:href="#DejaVuSans-48"/>
       <use x="147.412109" xlink:href="#DejaVuSans-46"/>
       <use x="179.199219" xlink:href="#DejaVuSans-53"/>
      </g>
     </g>
    </g>
    <g id="ytick_4">
     <g id="line2d_12">
      <g>
       <use style="stroke:#000000;stroke-width:0.8;" x="104.070156" xlink:href="#mb8ee934d7c" y="249.0643"/>
      </g>
     </g>
     <g id="text_13">
      <!-- 0.0 -->
      <g transform="translate(57.312344 258.562346)scale(0.25 -0.25)">
       <use xlink:href="#DejaVuSans-48"/>
       <use x="63.623047" xlink:href="#DejaVuSans-46"/>
       <use x="95.410156" xlink:href="#DejaVuSans-48"/>
      </g>
     </g>
    </g>
    <g id="ytick_5">
     <g id="line2d_13">
      <g>
       <use style="stroke:#000000;stroke-width:0.8;" x="104.070156" xlink:href="#mb8ee934d7c" y="190.972736"/>
      </g>
     </g>
     <g id="text_14">
      <!-- 0.5 -->
      <g transform="translate(57.312344 200.470783)scale(0.25 -0.25)">
       <use xlink:href="#DejaVuSans-48"/>
       <use x="63.623047" xlink:href="#DejaVuSans-46"/>
       <use x="95.410156" xlink:href="#DejaVuSans-53"/>
      </g>
     </g>
    </g>
    <g id="ytick_6">
     <g id="line2d_14">
      <g>
       <use style="stroke:#000000;stroke-width:0.8;" x="104.070156" xlink:href="#mb8ee934d7c" y="132.881173"/>
      </g>
     </g>
     <g id="text_15">
      <!-- 1.0 -->
      <g transform="translate(57.312344 142.37922)scale(0.25 -0.25)">
       <use xlink:href="#DejaVuSans-49"/>
       <use x="63.623047" xlink:href="#DejaVuSans-46"/>
       <use x="95.410156" xlink:href="#DejaVuSans-48"/>
      </g>
     </g>
    </g>
    <g id="ytick_7">
     <g id="line2d_15">
      <g>
       <use style="stroke:#000000;stroke-width:0.8;" x="104.070156" xlink:href="#mb8ee934d7c" y="74.78961"/>
      </g>
     </g>
     <g id="text_16">
      <!-- 1.5 -->
      <g transform="translate(57.312344 84.287657)scale(0.25 -0.25)">
       <use xlink:href="#DejaVuSans-49"/>
       <use x="63.623047" xlink:href="#DejaVuSans-46"/>
       <use x="95.410156" xlink:href="#DejaVuSans-53"/>
      </g>
     </g>
    </g>
    <g id="ytick_8">
     <g id="line2d_16">
      <g>
       <use style="stroke:#000000;stroke-width:0.8;" x="104.070156" xlink:href="#mb8ee934d7c" y="16.698047"/>
      </g>
     </g>
     <g id="text_17">
      <!-- 2.0 -->
      <g transform="translate(57.312344 26.196094)scale(0.25 -0.25)">
       <use xlink:href="#DejaVuSans-50"/>
       <use x="63.623047" xlink:href="#DejaVuSans-46"/>
       <use x="95.410156" xlink:href="#DejaVuSans-48"/>
      </g>
     </g>
    </g>
    <g id="text_18">
     <!-- Amplitude -->
     <g transform="translate(26.955938 295.788627)rotate(-90)scale(0.26 -0.26)">
      <defs>
       <path d="M 34.1875 63.1875 
L 20.796875 26.90625 
L 47.609375 26.90625 
z
M 28.609375 72.90625 
L 39.796875 72.90625 
L 67.578125 0 
L 57.328125 0 
L 50.6875 18.703125 
L 17.828125 18.703125 
L 11.1875 0 
L 0.78125 0 
z
" id="DejaVuSans-65"/>
       <path d="M 18.109375 8.203125 
L 18.109375 -20.796875 
L 9.078125 -20.796875 
L 9.078125 54.6875 
L 18.109375 54.6875 
L 18.109375 46.390625 
Q 20.953125 51.265625 25.265625 53.625 
Q 29.59375 56 35.59375 56 
Q 45.5625 56 51.78125 48.09375 
Q 58.015625 40.1875 58.015625 27.296875 
Q 58.015625 14.40625 51.78125 6.484375 
Q 45.5625 -1.421875 35.59375 -1.421875 
Q 29.59375 -1.421875 25.265625 0.953125 
Q 20.953125 3.328125 18.109375 8.203125 
z
M 48.6875 27.296875 
Q 48.6875 37.203125 44.609375 42.84375 
Q 40.53125 48.484375 33.40625 48.484375 
Q 26.265625 48.484375 22.1875 42.84375 
Q 18.109375 37.203125 18.109375 27.296875 
Q 18.109375 17.390625 22.1875 11.75 
Q 26.265625 6.109375 33.40625 6.109375 
Q 40.53125 6.109375 44.609375 11.75 
Q 48.6875 17.390625 48.6875 27.296875 
z
" id="DejaVuSans-112"/>
       <path d="M 9.421875 75.984375 
L 18.40625 75.984375 
L 18.40625 0 
L 9.421875 0 
z
" id="DejaVuSans-108"/>
       <path d="M 9.421875 54.6875 
L 18.40625 54.6875 
L 18.40625 0 
L 9.421875 0 
z
M 9.421875 75.984375 
L 18.40625 75.984375 
L 18.40625 64.59375 
L 9.421875 64.59375 
z
" id="DejaVuSans-105"/>
       <path d="M 8.5 21.578125 
L 8.5 54.6875 
L 17.484375 54.6875 
L 17.484375 21.921875 
Q 17.484375 14.15625 20.5 10.265625 
Q 23.53125 6.390625 29.59375 6.390625 
Q 36.859375 6.390625 41.078125 11.03125 
Q 45.3125 15.671875 45.3125 23.6875 
L 45.3125 54.6875 
L 54.296875 54.6875 
L 54.296875 0 
L 45.3125 0 
L 45.3125 8.40625 
Q 42.046875 3.421875 37.71875 1 
Q 33.40625 -1.421875 27.6875 -1.421875 
Q 18.265625 -1.421875 13.375 4.4375 
Q 8.5 10.296875 8.5 21.578125 
z
M 31.109375 56 
z
" id="DejaVuSans-117"/>
       <path d="M 45.40625 46.390625 
L 45.40625 75.984375 
L 54.390625 75.984375 
L 54.390625 0 
L 45.40625 0 
L 45.40625 8.203125 
Q 42.578125 3.328125 38.25 0.953125 
Q 33.9375 -1.421875 27.875 -1.421875 
Q 17.96875 -1.421875 11.734375 6.484375 
Q 5.515625 14.40625 5.515625 27.296875 
Q 5.515625 40.1875 11.734375 48.09375 
Q 17.96875 56 27.875 56 
Q 33.9375 56 38.25 53.625 
Q 42.578125 51.265625 45.40625 46.390625 
z
M 14.796875 27.296875 
Q 14.796875 17.390625 18.875 11.75 
Q 22.953125 6.109375 30.078125 6.109375 
Q 37.203125 6.109375 41.296875 11.75 
Q 45.40625 17.390625 45.40625 27.296875 
Q 45.40625 37.203125 41.296875 42.84375 
Q 37.203125 48.484375 30.078125 48.484375 
Q 22.953125 48.484375 18.875 42.84375 
Q 14.796875 37.203125 14.796875 27.296875 
z
" id="DejaVuSans-100"/>
      </defs>
      <use xlink:href="#DejaVuSans-65"/>
      <use x="68.408203" xlink:href="#DejaVuSans-109"/>
      <use x="165.820312" xlink:href="#DejaVuSans-112"/>
      <use x="229.296875" xlink:href="#DejaVuSans-108"/>
      <use x="257.080078" xlink:href="#DejaVuSans-105"/>
      <use x="284.863281" xlink:href="#DejaVuSans-116"/>
      <use x="324.072266" xlink:href="#DejaVuSans-117"/>
      <use x="387.451172" xlink:href="#DejaVuSans-100"/>
      <use x="450.927734" xlink:href="#DejaVuSans-101"/>
     </g>
    </g>
   </g>
   <g id="line2d_17">
    <defs>
     <path d="M 0 -3 
L -3 3 
L 3 3 
z
" id="mb571823573" style="stroke:#000000;stroke-linejoin:miter;"/>
    </defs>
    <g clip-path="url(#pf8f3144ed8)">
     <use style="stroke:#000000;stroke-linejoin:miter;" x="142.115611" xlink:href="#mb571823573" y="249.0643"/>
     <use style="stroke:#000000;stroke-linejoin:miter;" x="147.188338" xlink:href="#mb571823573" y="243.542595"/>
     <use style="stroke:#000000;stroke-linejoin:miter;" x="152.261065" xlink:href="#mb571823573" y="228.895561"/>
     <use style="stroke:#000000;stroke-linejoin:miter;" x="157.333793" xlink:href="#mb571823573" y="207.744163"/>
     <use style="stroke:#000000;stroke-linejoin:miter;" x="162.40652" xlink:href="#mb571823573" y="182.593748"/>
     <use style="stroke:#000000;stroke-linejoin:miter;" x="167.479247" xlink:href="#mb571823573" y="155.793811"/>
     <use style="stroke:#000000;stroke-linejoin:miter;" x="172.551974" xlink:href="#mb571823573" y="129.494182"/>
     <use style="stroke:#000000;stroke-linejoin:miter;" x="177.624702" xlink:href="#mb571823573" y="105.60105"/>
     <use style="stroke:#000000;stroke-linejoin:miter;" x="182.697429" xlink:href="#mb571823573" y="85.736271"/>
     <use style="stroke:#000000;stroke-linejoin:miter;" x="187.770156" xlink:href="#mb571823573" y="71.203804"/>
     <use style="stroke:#000000;stroke-linejoin:miter;" x="192.842884" xlink:href="#mb571823573" y="62.963475"/>
     <use style="stroke:#000000;stroke-linejoin:miter;" x="197.915611" xlink:href="#mb571823573" y="61.616566"/>
     <use style="stroke:#000000;stroke-linejoin:miter;" x="202.988338" xlink:href="#mb571823573" y="67.402912"/>
     <use style="stroke:#000000;stroke-linejoin:miter;" x="208.061065" xlink:href="#mb571823573" y="80.209381"/>
     <use style="stroke:#000000;stroke-linejoin:miter;" x="213.133793" xlink:href="#mb571823573" y="99.59113"/>
     <use style="stroke:#000000;stroke-linejoin:miter;" x="218.20652" xlink:href="#mb571823573" y="124.804376"/>
     <use style="stroke:#000000;stroke-linejoin:miter;" x="223.279247" xlink:href="#mb571823573" y="154.84878"/>
     <use style="stroke:#000000;stroke-linejoin:miter;" x="228.351974" xlink:href="#mb571823573" y="188.518195"/>
     <use style="stroke:#000000;stroke-linejoin:miter;" x="233.424702" xlink:href="#mb571823573" y="224.458281"/>
     <use style="stroke:#000000;stroke-linejoin:miter;" x="238.497429" xlink:href="#mb571823573" y="261.227646"/>
     <use style="stroke:#000000;stroke-linejoin:miter;" x="243.570156" xlink:href="#mb571823573" y="297.360817"/>
     <use style="stroke:#000000;stroke-linejoin:miter;" x="248.642884" xlink:href="#mb571823573" y="331.430267"/>
     <use style="stroke:#000000;stroke-linejoin:miter;" x="253.715611" xlink:href="#mb571823573" y="362.105125"/>
     <use style="stroke:#000000;stroke-linejoin:miter;" x="258.788338" xlink:href="#mb571823573" y="388.204267"/>
     <use style="stroke:#000000;stroke-linejoin:miter;" x="263.861065" xlink:href="#mb571823573" y="408.742479"/>
     <use style="stroke:#000000;stroke-linejoin:miter;" x="268.933793" xlink:href="#mb571823573" y="422.966705"/>
     <use style="stroke:#000000;stroke-linejoin:miter;" x="274.00652" xlink:href="#mb571823573" y="430.3825"/>
     <use style="stroke:#000000;stroke-linejoin:miter;" x="279.079247" xlink:href="#mb571823573" y="430.76972"/>
     <use style="stroke:#000000;stroke-linejoin:miter;" x="284.151974" xlink:href="#mb571823573" y="424.186347"/>
     <use style="stroke:#000000;stroke-linejoin:miter;" x="289.224702" xlink:href="#mb571823573" y="410.961178"/>
     <use style="stroke:#000000;stroke-linejoin:miter;" x="294.297429" xlink:href="#mb571823573" y="391.676043"/>
     <use style="stroke:#000000;stroke-linejoin:miter;" x="299.370156" xlink:href="#mb571823573" y="367.138039"/>
     <use style="stroke:#000000;stroke-linejoin:miter;" x="304.442884" xlink:href="#mb571823573" y="338.343678"/>
     <use style="stroke:#000000;stroke-linejoin:miter;" x="309.515611" xlink:href="#mb571823573" y="306.436573"/>
     <use style="stroke:#000000;stroke-linejoin:miter;" x="314.588338" xlink:href="#mb571823573" y="272.659501"/>
     <use style="stroke:#000000;stroke-linejoin:miter;" x="319.661065" xlink:href="#mb571823573" y="238.304148"/>
     <use style="stroke:#000000;stroke-linejoin:miter;" x="324.733793" xlink:href="#mb571823573" y="204.659922"/>
     <use style="stroke:#000000;stroke-linejoin:miter;" x="329.80652" xlink:href="#mb571823573" y="172.963794"/>
     <use style="stroke:#000000;stroke-linejoin:miter;" x="334.879247" xlink:href="#mb571823573" y="144.353432"/>
     <use style="stroke:#000000;stroke-linejoin:miter;" x="339.951974" xlink:href="#mb571823573" y="119.825001"/>
     <use style="stroke:#000000;stroke-linejoin:miter;" x="345.024702" xlink:href="#mb571823573" y="100.197466"/>
     <use style="stroke:#000000;stroke-linejoin:miter;" x="350.097429" xlink:href="#mb571823573" y="86.084724"/>
     <use style="stroke:#000000;stroke-linejoin:miter;" x="355.170156" xlink:href="#mb571823573" y="77.875422"/>
     <use style="stroke:#000000;stroke-linejoin:miter;" x="360.242884" xlink:href="#mb571823573" y="75.723327"/>
     <use style="stroke:#000000;stroke-linejoin:miter;" x="365.315611" xlink:href="#mb571823573" y="79.545555"/>
     <use style="stroke:#000000;stroke-linejoin:miter;" x="370.388338" xlink:href="#mb571823573" y="89.030466"/>
     <use style="stroke:#000000;stroke-linejoin:miter;" x="375.461065" xlink:href="#mb571823573" y="103.654576"/>
     <use style="stroke:#000000;stroke-linejoin:miter;" x="380.533793" xlink:href="#mb571823573" y="122.70697"/>
     <use style="stroke:#000000;stroke-linejoin:miter;" x="385.60652" xlink:href="#mb571823573" y="145.319692"/>
     <use style="stroke:#000000;stroke-linejoin:miter;" x="390.679247" xlink:href="#mb571823573" y="170.504836"/>
     <use style="stroke:#000000;stroke-linejoin:miter;" x="395.751974" xlink:href="#mb571823573" y="197.194494"/>
     <use style="stroke:#000000;stroke-linejoin:miter;" x="400.824702" xlink:href="#mb571823573" y="224.283243"/>
     <use style="stroke:#000000;stroke-linejoin:miter;" x="405.897429" xlink:href="#mb571823573" y="250.671298"/>
     <use style="stroke:#000000;stroke-linejoin:miter;" x="410.970156" xlink:href="#mb571823573" y="275.306431"/>
     <use style="stroke:#000000;stroke-linejoin:miter;" x="416.042884" xlink:href="#mb571823573" y="297.223367"/>
     <use style="stroke:#000000;stroke-linejoin:miter;" x="421.115611" xlink:href="#mb571823573" y="315.579058"/>
     <use style="stroke:#000000;stroke-linejoin:miter;" x="426.188338" xlink:href="#mb571823573" y="329.682586"/>
     <use style="stroke:#000000;stroke-linejoin:miter;" x="431.261065" xlink:href="#mb571823573" y="339.01876"/>
     <use style="stroke:#000000;stroke-linejoin:miter;" x="436.333793" xlink:href="#mb571823573" y="343.264568"/>
     <use style="stroke:#000000;stroke-linejoin:miter;" x="441.40652" xlink:href="#mb571823573" y="342.298075"/>
     <use style="stroke:#000000;stroke-linejoin:miter;" x="446.479247" xlink:href="#mb571823573" y="336.199286"/>
     <use style="stroke:#000000;stroke-linejoin:miter;" x="451.551974" xlink:href="#mb571823573" y="325.244007"/>
     <use style="stroke:#000000;stroke-linejoin:miter;" x="456.624702" xlink:href="#mb571823573" y="309.889326"/>
     <use style="stroke:#000000;stroke-linejoin:miter;" x="461.697429" xlink:href="#mb571823573" y="290.753489"/>
     <use style="stroke:#000000;stroke-linejoin:miter;" x="466.770156" xlink:href="#mb571823573" y="268.589536"/>
     <use style="stroke:#000000;stroke-linejoin:miter;" x="471.842884" xlink:href="#mb571823573" y="244.254307"/>
     <use style="stroke:#000000;stroke-linejoin:miter;" x="476.915611" xlink:href="#mb571823573" y="218.674249"/>
     <use style="stroke:#000000;stroke-linejoin:miter;" x="481.988338" xlink:href="#mb571823573" y="192.808929"/>
     <use style="stroke:#000000;stroke-linejoin:miter;" x="487.061065" xlink:href="#mb571823573" y="167.614107"/>
     <use style="stroke:#000000;stroke-linejoin:miter;" x="492.133793" xlink:href="#mb571823573" y="144.005394"/>
     <use style="stroke:#000000;stroke-linejoin:miter;" x="497.20652" xlink:href="#mb571823573" y="122.824083"/>
     <use style="stroke:#000000;stroke-linejoin:miter;" x="502.279247" xlink:href="#mb571823573" y="104.806288"/>
     <use style="stroke:#000000;stroke-linejoin:miter;" x="507.351974" xlink:href="#mb571823573" y="90.556601"/>
     <use style="stroke:#000000;stroke-linejoin:miter;" x="512.424702" xlink:href="#mb571823573" y="80.526895"/>
     <use style="stroke:#000000;stroke-linejoin:miter;" x="517.497429" xlink:href="#mb571823573" y="75.001633"/>
     <use style="stroke:#000000;stroke-linejoin:miter;" x="522.570156" xlink:href="#mb571823573" y="74.089084"/>
     <use style="stroke:#000000;stroke-linejoin:miter;" x="527.642884" xlink:href="#mb571823573" y="77.719853"/>
     <use style="stroke:#000000;stroke-linejoin:miter;" x="532.715611" xlink:href="#mb571823573" y="85.651756"/>
     <use style="stroke:#000000;stroke-linejoin:miter;" x="537.788338" xlink:href="#mb571823573" y="97.48158"/>
     <use style="stroke:#000000;stroke-linejoin:miter;" x="542.861065" xlink:href="#mb571823573" y="112.662184"/>
     <use style="stroke:#000000;stroke-linejoin:miter;" x="547.933793" xlink:href="#mb571823573" y="130.525235"/>
     <use style="stroke:#000000;stroke-linejoin:miter;" x="553.00652" xlink:href="#mb571823573" y="150.308108"/>
     <use style="stroke:#000000;stroke-linejoin:miter;" x="558.079247" xlink:href="#mb571823573" y="171.183857"/>
     <use style="stroke:#000000;stroke-linejoin:miter;" x="563.151974" xlink:href="#mb571823573" y="192.293512"/>
     <use style="stroke:#000000;stroke-linejoin:miter;" x="568.224702" xlink:href="#mb571823573" y="212.778985"/>
     <use style="stroke:#000000;stroke-linejoin:miter;" x="573.297429" xlink:href="#mb571823573" y="231.815636"/>
     <use style="stroke:#000000;stroke-linejoin:miter;" x="578.370156" xlink:href="#mb571823573" y="248.643275"/>
     <use style="stroke:#000000;stroke-linejoin:miter;" x="583.442884" xlink:href="#mb571823573" y="262.594301"/>
     <use style="stroke:#000000;stroke-linejoin:miter;" x="588.515611" xlink:href="#mb571823573" y="273.11811"/>
     <use style="stroke:#000000;stroke-linejoin:miter;" x="593.588338" xlink:href="#mb571823573" y="279.800824"/>
     <use style="stroke:#000000;stroke-linejoin:miter;" x="598.661065" xlink:href="#mb571823573" y="282.37966"/>
     <use style="stroke:#000000;stroke-linejoin:miter;" x="603.733793" xlink:href="#mb571823573" y="280.751493"/>
     <use style="stroke:#000000;stroke-linejoin:miter;" x="608.80652" xlink:href="#mb571823573" y="274.975263"/>
     <use style="stroke:#000000;stroke-linejoin:miter;" x="613.879247" xlink:href="#mb571823573" y="265.268325"/>
     <use style="stroke:#000000;stroke-linejoin:miter;" x="618.951974" xlink:href="#mb571823573" y="251.996704"/>
     <use style="stroke:#000000;stroke-linejoin:miter;" x="624.024702" xlink:href="#mb571823573" y="235.660008"/>
     <use style="stroke:#000000;stroke-linejoin:miter;" x="629.097429" xlink:href="#mb571823573" y="216.871326"/>
     <use style="stroke:#000000;stroke-linejoin:miter;" x="634.170156" xlink:href="#mb571823573" y="196.33288"/>
     <use style="stroke:#000000;stroke-linejoin:miter;" x="639.242884" xlink:href="#mb571823573" y="174.808788"/>
     <use style="stroke:#000000;stroke-linejoin:miter;" x="644.315611" xlink:href="#mb571823573" y="153.095353"/>
     <use style="stroke:#000000;stroke-linejoin:miter;" x="649.388338" xlink:href="#mb571823573" y="131.990618"/>
     <use style="stroke:#000000;stroke-linejoin:miter;" x="654.461065" xlink:href="#mb571823573" y="112.263873"/>
     <use style="stroke:#000000;stroke-linejoin:miter;" x="659.533793" xlink:href="#mb571823573" y="94.626578"/>
     <use style="stroke:#000000;stroke-linejoin:miter;" x="664.60652" xlink:href="#mb571823573" y="79.705574"/>
     <use style="stroke:#000000;stroke-linejoin:miter;" x="669.679247" xlink:href="#mb571823573" y="68.019747"/>
     <use style="stroke:#000000;stroke-linejoin:miter;" x="674.751974" xlink:href="#mb571823573" y="59.960751"/>
     <use style="stroke:#000000;stroke-linejoin:miter;" x="679.824702" xlink:href="#mb571823573" y="55.778914"/>
     <use style="stroke:#000000;stroke-linejoin:miter;" x="684.897429" xlink:href="#mb571823573" y="55.574327"/>
     <use style="stroke:#000000;stroke-linejoin:miter;" x="689.970156" xlink:href="#mb571823573" y="59.29386"/>
     <use style="stroke:#000000;stroke-linejoin:miter;" x="695.042884" xlink:href="#mb571823573" y="66.733914"/>
     <use style="stroke:#000000;stroke-linejoin:miter;" x="700.115611" xlink:href="#mb571823573" y="77.548948"/>
     <use style="stroke:#000000;stroke-linejoin:miter;" x="705.188338" xlink:href="#mb571823573" y="91.265237"/>
     <use style="stroke:#000000;stroke-linejoin:miter;" x="710.261065" xlink:href="#mb571823573" y="107.299682"/>
     <use style="stroke:#000000;stroke-linejoin:miter;" x="715.333793" xlink:href="#mb571823573" y="124.982417"/>
     <use style="stroke:#000000;stroke-linejoin:miter;" x="720.40652" xlink:href="#mb571823573" y="143.582929"/>
     <use style="stroke:#000000;stroke-linejoin:miter;" x="725.479247" xlink:href="#mb571823573" y="162.338202"/>
     <use style="stroke:#000000;stroke-linejoin:miter;" x="730.551974" xlink:href="#mb571823573" y="180.482097"/>
     <use style="stroke:#000000;stroke-linejoin:miter;" x="735.624702" xlink:href="#mb571823573" y="197.2748"/>
     <use style="stroke:#000000;stroke-linejoin:miter;" x="740.697429" xlink:href="#mb571823573" y="212.031114"/>
     <use style="stroke:#000000;stroke-linejoin:miter;" x="745.770156" xlink:href="#mb571823573" y="224.146655"/>
     <use style="stroke:#000000;stroke-linejoin:miter;" x="750.842884" xlink:href="#mb571823573" y="233.120942"/>
     <use style="stroke:#000000;stroke-linejoin:miter;" x="755.915611" xlink:href="#mb571823573" y="238.576426"/>
     <use style="stroke:#000000;stroke-linejoin:miter;" x="760.988338" xlink:href="#mb571823573" y="240.272757"/>
     <use style="stroke:#000000;stroke-linejoin:miter;" x="766.061065" xlink:href="#mb571823573" y="238.115969"/>
     <use style="stroke:#000000;stroke-linejoin:miter;" x="771.133793" xlink:href="#mb571823573" y="232.161862"/>
     <use style="stroke:#000000;stroke-linejoin:miter;" x="776.20652" xlink:href="#mb571823573" y="222.613886"/>
     <use style="stroke:#000000;stroke-linejoin:miter;" x="781.279247" xlink:href="#mb571823573" y="209.815176"/>
     <use style="stroke:#000000;stroke-linejoin:miter;" x="786.351974" xlink:href="#mb571823573" y="194.235507"/>
     <use style="stroke:#000000;stroke-linejoin:miter;" x="791.424702" xlink:href="#mb571823573" y="176.453308"/>
     <use style="stroke:#000000;stroke-linejoin:miter;" x="796.497429" xlink:href="#mb571823573" y="157.133681"/>
     <use style="stroke:#000000;stroke-linejoin:miter;" x="801.570156" xlink:href="#mb571823573" y="137.003206"/>
     <use style="stroke:#000000;stroke-linejoin:miter;" x="806.642884" xlink:href="#mb571823573" y="116.822365"/>
     <use style="stroke:#000000;stroke-linejoin:miter;" x="811.715611" xlink:href="#mb571823573" y="97.356986"/>
     <use style="stroke:#000000;stroke-linejoin:miter;" x="816.788338" xlink:href="#mb571823573" y="79.349542"/>
     <use style="stroke:#000000;stroke-linejoin:miter;" x="821.861065" xlink:href="#mb571823573" y="63.491579"/>
     <use style="stroke:#000000;stroke-linejoin:miter;" x="826.933793" xlink:href="#mb571823573" y="50.398368"/>
     <use style="stroke:#000000;stroke-linejoin:miter;" x="832.00652" xlink:href="#mb571823573" y="40.586703"/>
     <use style="stroke:#000000;stroke-linejoin:miter;" x="837.079247" xlink:href="#mb571823573" y="34.457021"/>
     <use style="stroke:#000000;stroke-linejoin:miter;" x="842.151974" xlink:href="#mb571823573" y="32.280202"/>
     <use style="stroke:#000000;stroke-linejoin:miter;" x="847.224702" xlink:href="#mb571823573" y="34.190079"/>
     <use style="stroke:#000000;stroke-linejoin:miter;" x="852.297429" xlink:href="#mb571823573" y="40.181863"/>
     <use style="stroke:#000000;stroke-linejoin:miter;" x="857.370156" xlink:href="#mb571823573" y="50.116543"/>
     <use style="stroke:#000000;stroke-linejoin:miter;" x="862.442884" xlink:href="#mb571823573" y="63.731649"/>
     <use style="stroke:#000000;stroke-linejoin:miter;" x="867.515611" xlink:href="#mb571823573" y="80.657578"/>
     <use style="stroke:#000000;stroke-linejoin:miter;" x="872.588338" xlink:href="#mb571823573" y="100.440323"/>
     <use style="stroke:#000000;stroke-linejoin:miter;" x="877.661065" xlink:href="#mb571823573" y="122.567755"/>
     <use style="stroke:#000000;stroke-linejoin:miter;" x="882.733793" xlink:href="#mb571823573" y="146.501983"/>
     <use style="stroke:#000000;stroke-linejoin:miter;" x="887.80652" xlink:href="#mb571823573" y="171.713501"/>
     <use style="stroke:#000000;stroke-linejoin:miter;" x="892.879247" xlink:href="#mb571823573" y="197.719851"/>
     <use style="stroke:#000000;stroke-linejoin:miter;" x="897.951974" xlink:href="#mb571823573" y="224.124848"/>
     <use style="stroke:#000000;stroke-linejoin:miter;" x="903.024702" xlink:href="#mb571823573" y="250.659959"/>
    </g>
   </g>
   <g id="line2d_18">
    <path clip-path="url(#pf8f3144ed8)" d="M 142.115611 249.0643 
L 147.188338 243.597097 
L 152.261065 229.096498 
L 157.333793 208.151374 
L 162.40652 183.241044 
L 172.551974 130.65136 
L 177.624702 107.00744 
L 182.697429 87.382892 
L 187.770156 73.081827 
L 192.842884 65.066543 
L 197.915611 63.941032 
L 202.988338 69.946556 
L 208.061065 82.969322 
L 213.133793 102.560694 
L 218.20652 127.969487 
L 223.279247 158.183918 
L 228.351974 191.983296 
L 243.570156 300.794182 
L 248.642884 334.649597 
L 253.715611 364.981319 
L 258.788338 390.597825 
L 263.861065 410.509288 
L 268.933793 423.965613 
L 274.00652 430.483573 
L 279.079247 429.862833 
L 284.151974 422.189445 
L 289.224702 407.828871 
L 294.297429 387.406115 
L 299.370156 361.776794 
L 304.442884 331.989817 
L 309.515611 299.241445 
L 324.733793 196.338201 
L 329.80652 164.863135 
L 334.879247 136.812868 
L 339.951974 113.189167 
L 345.024702 94.801817 
L 350.097429 82.240515 
L 355.170156 75.855137 
L 360.242884 75.745902 
L 365.315611 81.76449 
L 370.388338 93.523233 
L 375.461065 110.415237 
L 380.533793 131.641697 
L 385.60652 156.246634 
L 390.679247 183.156842 
L 400.824702 239.2885 
L 405.897429 266.225105 
L 410.970156 290.983706 
L 416.042884 312.6108 
L 421.115611 330.286227 
L 426.188338 343.352123 
L 431.261065 351.335461 
L 436.333793 353.96264 
L 441.40652 351.167483 
L 446.479247 343.090293 
L 451.551974 330.069371 
L 456.624702 312.625927 
L 461.697429 291.441409 
L 466.770156 267.329716 
L 471.842884 241.204685 
L 481.988338 186.853278 
L 487.061065 160.62424 
L 492.133793 136.301233 
L 497.20652 114.744406 
L 502.279247 96.698797 
L 507.351974 82.767719 
L 512.424702 73.391892 
L 517.497429 68.834667 
L 522.570156 69.173899 
L 527.642884 74.301989 
L 532.715611 83.931015 
L 537.788338 97.606059 
L 542.861065 114.724144 
L 547.933793 134.558137 
L 553.00652 156.28559 
L 563.151974 201.847334 
L 568.224702 223.855594 
L 573.297429 244.17414 
L 578.370156 262.003521 
L 583.442884 276.645384 
L 588.515611 287.52792 
L 593.588338 294.226249 
L 598.661065 296.477239 
L 603.733793 294.188048 
L 608.80652 287.438355 
L 613.879247 276.475942 
L 618.951974 261.706197 
L 624.024702 243.675575 
L 629.097429 223.050038 
L 634.170156 200.589039 
L 649.388338 130.559765 
L 654.461065 109.178235 
L 659.533793 90.139388 
L 664.60652 74.127889 
L 669.679247 61.708389 
L 674.751974 53.304608 
L 679.824702 49.184185 
L 684.897429 49.448769 
L 689.970156 54.031496 
L 695.042884 62.699559 
L 700.115611 75.064685 
L 705.188338 90.597812 
L 710.261065 108.650241 
L 715.333793 128.478774 
L 725.479247 170.193755 
L 730.551974 190.391124 
L 735.624702 209.051191 
L 740.697429 225.420197 
L 745.770156 238.834596 
L 750.842884 248.746562 
L 755.915611 254.744737 
L 760.988338 256.569869 
L 766.061065 254.124702 
L 771.133793 247.477563 
L 776.20652 236.85975 
L 781.279247 222.656619 
L 786.351974 205.392933 
L 791.424702 185.712929 
L 796.497429 164.355821 
L 806.642884 119.872032 
L 811.715611 98.436095 
L 816.788338 78.641267 
L 821.861065 61.251604 
L 826.933793 46.946068 
L 832.00652 36.29426 
L 837.079247 29.736512 
L 842.151974 27.56972 
L 847.224702 29.939031 
L 852.297429 36.836231 
L 857.370156 48.104832 
L 862.442884 63.451949 
L 867.515611 82.466759 
L 872.588338 104.644991 
L 877.661065 129.41895 
L 882.733793 156.192376 
L 887.80652 184.3791 
L 897.951974 242.951452 
L 903.024702 272.601374 
L 903.024702 272.601374 
" style="fill:none;stroke:#0000ff;stroke-linecap:square;stroke-width:3;"/>
   </g>
   <g id="line2d_19">
    <path clip-path="url(#pf8f3144ed8)" d="M 142.115611 249.0643 
L 147.188338 243.528965 
L 152.261065 228.853094 
L 157.333793 207.671399 
L 162.40652 182.501515 
L 172.551974 129.435025 
L 177.624702 105.608049 
L 182.697429 85.84723 
L 187.770156 71.455949 
L 192.842884 63.39078 
L 197.915611 62.246852 
L 202.988338 68.254939 
L 208.061065 81.290989 
L 213.133793 100.897965 
L 218.20652 126.318609 
L 223.279247 156.539083 
L 228.351974 190.340637 
L 238.497429 263.139238 
L 243.570156 299.21375 
L 248.642884 333.150262 
L 253.715611 363.618147 
L 258.788338 389.44021 
L 263.861065 409.63869 
L 268.933793 423.471567 
L 274.00652 430.458459 
L 279.079247 430.395717 
L 284.151974 423.359454 
L 289.224702 409.697519 
L 294.297429 390.011151 
L 299.370156 365.125922 
L 304.442884 336.055265 
L 309.515611 303.9569 
L 324.733793 202.207784 
L 329.80652 170.730743 
L 334.879247 142.437805 
L 339.951974 118.314423 
L 345.024702 99.16476 
L 350.097429 85.584045 
L 355.170156 77.939625 
L 360.242884 76.361591 
L 365.315611 80.742194 
L 370.388338 90.744923 
L 375.461065 105.821891 
L 380.533793 125.239402 
L 385.60652 148.109493 
L 390.679247 173.427493 
L 405.897429 253.151912 
L 410.970156 277.377175 
L 416.042884 298.781104 
L 421.115611 316.542785 
L 426.188338 329.995885 
L 431.261065 338.651342 
L 436.333793 342.213041 
L 441.40652 340.585861 
L 446.479247 333.8756 
L 451.551974 322.381522 
L 456.624702 306.581767 
L 461.697429 287.111961 
L 466.770156 264.738286 
L 471.842884 240.326167 
L 487.061065 164.262538 
L 492.133793 141.093473 
L 497.20652 120.452925 
L 502.279247 103.057418 
L 507.351974 89.488739 
L 512.424702 80.173803 
L 517.497429 75.370351 
L 522.570156 75.160106 
L 527.642884 79.447229 
L 532.715611 87.964904 
L 537.788338 100.287682 
L 542.861065 115.849563 
L 547.933793 133.967393 
L 553.00652 153.868307 
L 563.151974 195.664266 
L 568.224702 215.847637 
L 573.297429 234.456223 
L 578.370156 250.744993 
L 583.442884 264.065749 
L 588.515611 273.890751 
L 593.588338 279.831636 
L 598.661065 281.652795 
L 603.733793 279.27893 
L 608.80652 272.796341 
L 613.879247 262.448259 
L 618.951974 248.624058 
L 624.024702 231.843183 
L 629.097429 212.734173 
L 634.170156 192.009706 
L 644.315611 148.81634 
L 649.388338 127.933399 
L 654.461065 108.548534 
L 659.533793 91.359462 
L 664.60652 76.97297 
L 669.679247 65.885056 
L 674.751974 58.462848 
L 679.824702 54.931474 
L 684.897429 55.366359 
L 689.970156 59.69109 
L 695.042884 67.681224 
L 700.115611 78.973376 
L 705.188338 93.079762 
L 710.261065 109.407256 
L 715.333793 127.280287 
L 725.479247 164.707058 
L 730.551974 182.741104 
L 735.624702 199.339292 
L 740.697429 213.82928 
L 745.770156 225.621624 
L 750.842884 234.232164 
L 755.915611 239.30027 
L 760.988338 240.602438 
L 766.061065 238.0607 
L 771.133793 231.745381 
L 776.20652 221.872452 
L 781.279247 208.795216 
L 786.351974 192.990872 
L 791.424702 175.042485 
L 796.497429 155.616952 
L 806.642884 115.268195 
L 811.715611 95.862313 
L 816.788338 77.957366 
L 821.861065 62.236395 
L 826.933793 49.305469 
L 832.00652 39.672029 
L 837.079247 33.727391 
L 842.151974 31.734177 
L 847.224702 33.819083 
L 852.297429 39.971584 
L 857.370156 50.048634 
L 862.442884 63.785418 
L 867.515611 80.811672 
L 872.588338 100.674328 
L 877.661065 122.863473 
L 882.733793 146.844445 
L 887.80652 172.091526 
L 897.951974 224.55555 
L 903.024702 251.113654 
L 903.024702 251.113654 
" style="fill:none;stroke:#ff0000;stroke-linecap:square;stroke-width:3;"/>
   </g>
   <g id="patch_3">
    <path d="M 104.070156 450.92972 
L 104.070156 7.40972 
" style="fill:none;stroke:#000000;stroke-linecap:square;stroke-linejoin:miter;stroke-width:0.8;"/>
   </g>
   <g id="patch_4">
    <path d="M 941.070156 450.92972 
L 941.070156 7.40972 
" style="fill:none;stroke:#000000;stroke-linecap:square;stroke-linejoin:miter;stroke-width:0.8;"/>
   </g>
   <g id="patch_5">
    <path d="M 104.070156 450.92972 
L 941.070156 450.92972 
" style="fill:none;stroke:#000000;stroke-linecap:square;stroke-linejoin:miter;stroke-width:0.8;"/>
   </g>
   <g id="patch_6">
    <path d="M 104.070156 7.40972 
L 941.070156 7.40972 
" style="fill:none;stroke:#000000;stroke-linecap:square;stroke-linejoin:miter;stroke-width:0.8;"/>
   </g>
   <g id="legend_1">
    <g id="patch_7">
     <path d="M 631.860156 439.92972 
L 925.670156 439.92972 
Q 930.070156 439.92972 930.070156 435.52972 
L 930.070156 340.854095 
Q 930.070156 336.454095 925.670156 336.454095 
L 631.860156 336.454095 
Q 627.460156 336.454095 627.460156 340.854095 
L 627.460156 435.52972 
Q 627.460156 439.92972 631.860156 439.92972 
z
" style="fill:#ffffff;opacity:0.8;stroke:#cccccc;stroke-linejoin:miter;"/>
    </g>
    <g id="line2d_20"/>
    <g id="line2d_21">
     <g>
      <use style="stroke:#000000;stroke-linejoin:miter;" x="658.260156" xlink:href="#mb571823573" y="354.270658"/>
     </g>
    </g>
    <g id="text_19">
     <!-- Reference FEM -->
     <g transform="translate(697.860156 361.970658)scale(0.22 -0.22)">
      <defs>
       <path d="M 44.390625 34.1875 
Q 47.5625 33.109375 50.5625 29.59375 
Q 53.5625 26.078125 56.59375 19.921875 
L 66.609375 0 
L 56 0 
L 46.6875 18.703125 
Q 43.0625 26.03125 39.671875 28.421875 
Q 36.28125 30.8125 30.421875 30.8125 
L 19.671875 30.8125 
L 19.671875 0 
L 9.8125 0 
L 9.8125 72.90625 
L 32.078125 72.90625 
Q 44.578125 72.90625 50.734375 67.671875 
Q 56.890625 62.453125 56.890625 51.90625 
Q 56.890625 45.015625 53.6875 40.46875 
Q 50.484375 35.9375 44.390625 34.1875 
z
M 19.671875 64.796875 
L 19.671875 38.921875 
L 32.078125 38.921875 
Q 39.203125 38.921875 42.84375 42.21875 
Q 46.484375 45.515625 46.484375 51.90625 
Q 46.484375 58.296875 42.84375 61.546875 
Q 39.203125 64.796875 32.078125 64.796875 
z
" id="DejaVuSans-82"/>
       <path d="M 37.109375 75.984375 
L 37.109375 68.5 
L 28.515625 68.5 
Q 23.6875 68.5 21.796875 66.546875 
Q 19.921875 64.59375 19.921875 59.515625 
L 19.921875 54.6875 
L 34.71875 54.6875 
L 34.71875 47.703125 
L 19.921875 47.703125 
L 19.921875 0 
L 10.890625 0 
L 10.890625 47.703125 
L 2.296875 47.703125 
L 2.296875 54.6875 
L 10.890625 54.6875 
L 10.890625 58.5 
Q 10.890625 67.625 15.140625 71.796875 
Q 19.390625 75.984375 28.609375 75.984375 
z
" id="DejaVuSans-102"/>
       <path d="M 41.109375 46.296875 
Q 39.59375 47.171875 37.8125 47.578125 
Q 36.03125 48 33.890625 48 
Q 26.265625 48 22.1875 43.046875 
Q 18.109375 38.09375 18.109375 28.8125 
L 18.109375 0 
L 9.078125 0 
L 9.078125 54.6875 
L 18.109375 54.6875 
L 18.109375 46.1875 
Q 20.953125 51.171875 25.484375 53.578125 
Q 30.03125 56 36.53125 56 
Q 37.453125 56 38.578125 55.875 
Q 39.703125 55.765625 41.0625 55.515625 
z
" id="DejaVuSans-114"/>
       <path d="M 48.78125 52.59375 
L 48.78125 44.1875 
Q 44.96875 46.296875 41.140625 47.34375 
Q 37.3125 48.390625 33.40625 48.390625 
Q 24.65625 48.390625 19.8125 42.84375 
Q 14.984375 37.3125 14.984375 27.296875 
Q 14.984375 17.28125 19.8125 11.734375 
Q 24.65625 6.203125 33.40625 6.203125 
Q 37.3125 6.203125 41.140625 7.25 
Q 44.96875 8.296875 48.78125 10.40625 
L 48.78125 2.09375 
Q 45.015625 0.34375 40.984375 -0.53125 
Q 36.96875 -1.421875 32.421875 -1.421875 
Q 20.0625 -1.421875 12.78125 6.34375 
Q 5.515625 14.109375 5.515625 27.296875 
Q 5.515625 40.671875 12.859375 48.328125 
Q 20.21875 56 33.015625 56 
Q 37.15625 56 41.109375 55.140625 
Q 45.0625 54.296875 48.78125 52.59375 
z
" id="DejaVuSans-99"/>
       <path d="M 9.8125 72.90625 
L 51.703125 72.90625 
L 51.703125 64.59375 
L 19.671875 64.59375 
L 19.671875 43.109375 
L 48.578125 43.109375 
L 48.578125 34.8125 
L 19.671875 34.8125 
L 19.671875 0 
L 9.8125 0 
z
" id="DejaVuSans-70"/>
       <path d="M 9.8125 72.90625 
L 55.90625 72.90625 
L 55.90625 64.59375 
L 19.671875 64.59375 
L 19.671875 43.015625 
L 54.390625 43.015625 
L 54.390625 34.71875 
L 19.671875 34.71875 
L 19.671875 8.296875 
L 56.78125 8.296875 
L 56.78125 0 
L 9.8125 0 
z
" id="DejaVuSans-69"/>
       <path d="M 9.8125 72.90625 
L 24.515625 72.90625 
L 43.109375 23.296875 
L 61.8125 72.90625 
L 76.515625 72.90625 
L 76.515625 0 
L 66.890625 0 
L 66.890625 64.015625 
L 48.09375 14.015625 
L 38.1875 14.015625 
L 19.390625 64.015625 
L 19.390625 0 
L 9.8125 0 
z
" id="DejaVuSans-77"/>
      </defs>
      <use xlink:href="#DejaVuSans-82"/>
      <use x="64.982422" xlink:href="#DejaVuSans-101"/>
      <use x="126.505859" xlink:href="#DejaVuSans-102"/>
      <use x="161.710938" xlink:href="#DejaVuSans-101"/>
      <use x="223.234375" xlink:href="#DejaVuSans-114"/>
      <use x="262.097656" xlink:href="#DejaVuSans-101"/>
      <use x="323.621094" xlink:href="#DejaVuSans-110"/>
      <use x="387" xlink:href="#DejaVuSans-99"/>
      <use x="441.980469" xlink:href="#DejaVuSans-101"/>
      <use x="503.503906" xlink:href="#DejaVuSans-32"/>
      <use x="535.291016" xlink:href="#DejaVuSans-70"/>
      <use x="592.810547" xlink:href="#DejaVuSans-69"/>
      <use x="655.994141" xlink:href="#DejaVuSans-77"/>
     </g>
    </g>
    <g id="line2d_22">
     <path d="M 636.260156 386.562533 
L 680.260156 386.562533 
" style="fill:none;stroke:#0000ff;stroke-linecap:square;stroke-width:3;"/>
    </g>
    <g id="line2d_23"/>
    <g id="text_20">
     <!-- Initial mistuned FEM -->
     <g transform="translate(697.860156 394.262533)scale(0.22 -0.22)">
      <defs>
       <path d="M 9.8125 72.90625 
L 19.671875 72.90625 
L 19.671875 0 
L 9.8125 0 
z
" id="DejaVuSans-73"/>
       <path d="M 44.28125 53.078125 
L 44.28125 44.578125 
Q 40.484375 46.53125 36.375 47.5 
Q 32.28125 48.484375 27.875 48.484375 
Q 21.1875 48.484375 17.84375 46.4375 
Q 14.5 44.390625 14.5 40.28125 
Q 14.5 37.15625 16.890625 35.375 
Q 19.28125 33.59375 26.515625 31.984375 
L 29.59375 31.296875 
Q 39.15625 29.25 43.1875 25.515625 
Q 47.21875 21.78125 47.21875 15.09375 
Q 47.21875 7.46875 41.1875 3.015625 
Q 35.15625 -1.421875 24.609375 -1.421875 
Q 20.21875 -1.421875 15.453125 -0.5625 
Q 10.6875 0.296875 5.421875 2 
L 5.421875 11.28125 
Q 10.40625 8.6875 15.234375 7.390625 
Q 20.0625 6.109375 24.8125 6.109375 
Q 31.15625 6.109375 34.5625 8.28125 
Q 37.984375 10.453125 37.984375 14.40625 
Q 37.984375 18.0625 35.515625 20.015625 
Q 33.0625 21.96875 24.703125 23.78125 
L 21.578125 24.515625 
Q 13.234375 26.265625 9.515625 29.90625 
Q 5.8125 33.546875 5.8125 39.890625 
Q 5.8125 47.609375 11.28125 51.796875 
Q 16.75 56 26.8125 56 
Q 31.78125 56 36.171875 55.265625 
Q 40.578125 54.546875 44.28125 53.078125 
z
" id="DejaVuSans-115"/>
      </defs>
      <use xlink:href="#DejaVuSans-73"/>
      <use x="29.492188" xlink:href="#DejaVuSans-110"/>
      <use x="92.871094" xlink:href="#DejaVuSans-105"/>
      <use x="120.654297" xlink:href="#DejaVuSans-116"/>
      <use x="159.863281" xlink:href="#DejaVuSans-105"/>
      <use x="187.646484" xlink:href="#DejaVuSans-97"/>
      <use x="248.925781" xlink:href="#DejaVuSans-108"/>
      <use x="276.708984" xlink:href="#DejaVuSans-32"/>
      <use x="308.496094" xlink:href="#DejaVuSans-109"/>
      <use x="405.908203" xlink:href="#DejaVuSans-105"/>
      <use x="433.691406" xlink:href="#DejaVuSans-115"/>
      <use x="485.791016" xlink:href="#DejaVuSans-116"/>
      <use x="525" xlink:href="#DejaVuSans-117"/>
      <use x="588.378906" xlink:href="#DejaVuSans-110"/>
      <use x="651.757812" xlink:href="#DejaVuSans-101"/>
      <use x="713.28125" xlink:href="#DejaVuSans-100"/>
      <use x="776.757812" xlink:href="#DejaVuSans-32"/>
      <use x="808.544922" xlink:href="#DejaVuSans-70"/>
      <use x="866.064453" xlink:href="#DejaVuSans-69"/>
      <use x="929.248047" xlink:href="#DejaVuSans-77"/>
     </g>
    </g>
    <g id="line2d_24">
     <path d="M 636.260156 418.854408 
L 680.260156 418.854408 
" style="fill:none;stroke:#ff0000;stroke-linecap:square;stroke-width:3;"/>
    </g>
    <g id="line2d_25"/>
    <g id="text_21">
     <!-- Converged FEM -->
     <g transform="translate(697.860156 426.554408)scale(0.22 -0.22)">
      <defs>
       <path d="M 64.40625 67.28125 
L 64.40625 56.890625 
Q 59.421875 61.53125 53.78125 63.8125 
Q 48.140625 66.109375 41.796875 66.109375 
Q 29.296875 66.109375 22.65625 58.46875 
Q 16.015625 50.828125 16.015625 36.375 
Q 16.015625 21.96875 22.65625 14.328125 
Q 29.296875 6.6875 41.796875 6.6875 
Q 48.140625 6.6875 53.78125 8.984375 
Q 59.421875 11.28125 64.40625 15.921875 
L 64.40625 5.609375 
Q 59.234375 2.09375 53.4375 0.328125 
Q 47.65625 -1.421875 41.21875 -1.421875 
Q 24.65625 -1.421875 15.125 8.703125 
Q 5.609375 18.84375 5.609375 36.375 
Q 5.609375 53.953125 15.125 64.078125 
Q 24.65625 74.21875 41.21875 74.21875 
Q 47.75 74.21875 53.53125 72.484375 
Q 59.328125 70.75 64.40625 67.28125 
z
" id="DejaVuSans-67"/>
       <path d="M 30.609375 48.390625 
Q 23.390625 48.390625 19.1875 42.75 
Q 14.984375 37.109375 14.984375 27.296875 
Q 14.984375 17.484375 19.15625 11.84375 
Q 23.34375 6.203125 30.609375 6.203125 
Q 37.796875 6.203125 41.984375 11.859375 
Q 46.1875 17.53125 46.1875 27.296875 
Q 46.1875 37.015625 41.984375 42.703125 
Q 37.796875 48.390625 30.609375 48.390625 
z
M 30.609375 56 
Q 42.328125 56 49.015625 48.375 
Q 55.71875 40.765625 55.71875 27.296875 
Q 55.71875 13.875 49.015625 6.21875 
Q 42.328125 -1.421875 30.609375 -1.421875 
Q 18.84375 -1.421875 12.171875 6.21875 
Q 5.515625 13.875 5.515625 27.296875 
Q 5.515625 40.765625 12.171875 48.375 
Q 18.84375 56 30.609375 56 
z
" id="DejaVuSans-111"/>
       <path d="M 2.984375 54.6875 
L 12.5 54.6875 
L 29.59375 8.796875 
L 46.6875 54.6875 
L 56.203125 54.6875 
L 35.6875 0 
L 23.484375 0 
z
" id="DejaVuSans-118"/>
      </defs>
      <use xlink:href="#DejaVuSans-67"/>
      <use x="69.824219" xlink:href="#DejaVuSans-111"/>
      <use x="131.005859" xlink:href="#DejaVuSans-110"/>
      <use x="194.384766" xlink:href="#DejaVuSans-118"/>
      <use x="253.564453" xlink:href="#DejaVuSans-101"/>
      <use x="315.087891" xlink:href="#DejaVuSans-114"/>
      <use x="354.451172" xlink:href="#DejaVuSans-103"/>
      <use x="417.927734" xlink:href="#DejaVuSans-101"/>
      <use x="479.451172" xlink:href="#DejaVuSans-100"/>
      <use x="542.927734" xlink:href="#DejaVuSans-32"/>
      <use x="574.714844" xlink:href="#DejaVuSans-70"/>
      <use x="632.234375" xlink:href="#DejaVuSans-69"/>
      <use x="695.417969" xlink:href="#DejaVuSans-77"/>
     </g>
    </g>
   </g>
  </g>
 </g>
 <defs>
  <clipPath id="pf8f3144ed8">
   <rect height="443.52" width="837" x="104.070156" y="7.40972"/>
  </clipPath>
 </defs>
</svg>
