<?xml version="1.0" encoding="utf-8" standalone="no"?>
<!DOCTYPE svg PUBLIC "-//W3C//DTD SVG 1.1//EN"
  "http://www.w3.org/Graphics/SVG/1.1/DTD/svg11.dtd">
<!-- Created with matplotlib (https://matplotlib.org/) -->
<svg height="518.278437pt" version="1.1" viewBox="0 0 924.418594 518.278437" width="924.418594pt" xmlns="http://www.w3.org/2000/svg" xmlns:xlink="http://www.w3.org/1999/xlink">
 <metadata>
  <rdf:RDF xmlns:cc="http://creativecommons.org/ns#" xmlns:dc="http://purl.org/dc/elements/1.1/" xmlns:rdf="http://www.w3.org/1999/02/22-rdf-syntax-ns#">
   <cc:Work>
    <dc:type rdf:resource="http://purl.org/dc/dcmitype/StillImage"/>
    <dc:date>2021-12-02T19:24:09.794992</dc:date>
    <dc:format>image/svg+xml</dc:format>
    <dc:creator>
     <cc:Agent>
      <dc:title>Matplotlib v3.3.4, https://matplotlib.org/</dc:title>
     </cc:Agent>
    </dc:creator>
   </cc:Work>
  </rdf:RDF>
 </metadata>
 <defs>
  <style type="text/css">*{stroke-linecap:butt;stroke-linejoin:round;}</style>
 </defs>
 <g id="figure_1">
  <g id="patch_1">
   <path d="M 0 518.278437 
L 924.418594 518.278437 
L 924.418594 0 
L 0 0 
z
" style="fill:#ffffff;"/>
  </g>
  <g id="axes_1">
   <g id="patch_2">
    <path d="M 80.218594 450.72 
L 917.218594 450.72 
L 917.218594 7.2 
L 80.218594 7.2 
z
" style="fill:#ffffff;"/>
   </g>
   <g id="matplotlib.axis_1">
    <g id="xtick_1">
     <g id="line2d_1">
      <defs>
       <path d="M 0 0 
L 0 3.5 
" id="m43019f3ddc" style="stroke:#000000;stroke-width:0.8;"/>
      </defs>
      <g>
       <use style="stroke:#000000;stroke-width:0.8;" x="118.264048" xlink:href="#m43019f3ddc" y="450.72"/>
      </g>
     </g>
     <g id="text_1">
      <!-- 0.0 -->
      <g transform="translate(98.385142 476.716094)scale(0.25 -0.25)">
       <defs>
        <path d="M 31.78125 66.40625 
Q 24.171875 66.40625 20.328125 58.90625 
Q 16.5 51.421875 16.5 36.375 
Q 16.5 21.390625 20.328125 13.890625 
Q 24.171875 6.390625 31.78125 6.390625 
Q 39.453125 6.390625 43.28125 13.890625 
Q 47.125 21.390625 47.125 36.375 
Q 47.125 51.421875 43.28125 58.90625 
Q 39.453125 66.40625 31.78125 66.40625 
z
M 31.78125 74.21875 
Q 44.046875 74.21875 50.515625 64.515625 
Q 56.984375 54.828125 56.984375 36.375 
Q 56.984375 17.96875 50.515625 8.265625 
Q 44.046875 -1.421875 31.78125 -1.421875 
Q 19.53125 -1.421875 13.0625 8.265625 
Q 6.59375 17.96875 6.59375 36.375 
Q 6.59375 54.828125 13.0625 64.515625 
Q 19.53125 74.21875 31.78125 74.21875 
z
" id="DejaVuSans-48"/>
        <path d="M 10.6875 12.40625 
L 21 12.40625 
L 21 0 
L 10.6875 0 
z
" id="DejaVuSans-46"/>
       </defs>
       <use xlink:href="#DejaVuSans-48"/>
       <use x="63.623047" xlink:href="#DejaVuSans-46"/>
       <use x="95.410156" xlink:href="#DejaVuSans-48"/>
      </g>
     </g>
    </g>
    <g id="xtick_2">
     <g id="line2d_2">
      <g>
       <use style="stroke:#000000;stroke-width:0.8;" x="219.718594" xlink:href="#m43019f3ddc" y="450.72"/>
      </g>
     </g>
     <g id="text_2">
      <!-- 0.2 -->
      <g transform="translate(199.839688 476.716094)scale(0.25 -0.25)">
       <defs>
        <path d="M 19.1875 8.296875 
L 53.609375 8.296875 
L 53.609375 0 
L 7.328125 0 
L 7.328125 8.296875 
Q 12.9375 14.109375 22.625 23.890625 
Q 32.328125 33.6875 34.8125 36.53125 
Q 39.546875 41.84375 41.421875 45.53125 
Q 43.3125 49.21875 43.3125 52.78125 
Q 43.3125 58.59375 39.234375 62.25 
Q 35.15625 65.921875 28.609375 65.921875 
Q 23.96875 65.921875 18.8125 64.3125 
Q 13.671875 62.703125 7.8125 59.421875 
L 7.8125 69.390625 
Q 13.765625 71.78125 18.9375 73 
Q 24.125 74.21875 28.421875 74.21875 
Q 39.75 74.21875 46.484375 68.546875 
Q 53.21875 62.890625 53.21875 53.421875 
Q 53.21875 48.921875 51.53125 44.890625 
Q 49.859375 40.875 45.40625 35.40625 
Q 44.1875 33.984375 37.640625 27.21875 
Q 31.109375 20.453125 19.1875 8.296875 
z
" id="DejaVuSans-50"/>
       </defs>
       <use xlink:href="#DejaVuSans-48"/>
       <use x="63.623047" xlink:href="#DejaVuSans-46"/>
       <use x="95.410156" xlink:href="#DejaVuSans-50"/>
      </g>
     </g>
    </g>
    <g id="xtick_3">
     <g id="line2d_3">
      <g>
       <use style="stroke:#000000;stroke-width:0.8;" x="321.173139" xlink:href="#m43019f3ddc" y="450.72"/>
      </g>
     </g>
     <g id="text_3">
      <!-- 0.4 -->
      <g transform="translate(301.294233 476.716094)scale(0.25 -0.25)">
       <defs>
        <path d="M 37.796875 64.3125 
L 12.890625 25.390625 
L 37.796875 25.390625 
z
M 35.203125 72.90625 
L 47.609375 72.90625 
L 47.609375 25.390625 
L 58.015625 25.390625 
L 58.015625 17.1875 
L 47.609375 17.1875 
L 47.609375 0 
L 37.796875 0 
L 37.796875 17.1875 
L 4.890625 17.1875 
L 4.890625 26.703125 
z
" id="DejaVuSans-52"/>
       </defs>
       <use xlink:href="#DejaVuSans-48"/>
       <use x="63.623047" xlink:href="#DejaVuSans-46"/>
       <use x="95.410156" xlink:href="#DejaVuSans-52"/>
      </g>
     </g>
    </g>
    <g id="xtick_4">
     <g id="line2d_4">
      <g>
       <use style="stroke:#000000;stroke-width:0.8;" x="422.627685" xlink:href="#m43019f3ddc" y="450.72"/>
      </g>
     </g>
     <g id="text_4">
      <!-- 0.6 -->
      <g transform="translate(402.748778 476.716094)scale(0.25 -0.25)">
       <defs>
        <path d="M 33.015625 40.375 
Q 26.375 40.375 22.484375 35.828125 
Q 18.609375 31.296875 18.609375 23.390625 
Q 18.609375 15.53125 22.484375 10.953125 
Q 26.375 6.390625 33.015625 6.390625 
Q 39.65625 6.390625 43.53125 10.953125 
Q 47.40625 15.53125 47.40625 23.390625 
Q 47.40625 31.296875 43.53125 35.828125 
Q 39.65625 40.375 33.015625 40.375 
z
M 52.59375 71.296875 
L 52.59375 62.3125 
Q 48.875 64.0625 45.09375 64.984375 
Q 41.3125 65.921875 37.59375 65.921875 
Q 27.828125 65.921875 22.671875 59.328125 
Q 17.53125 52.734375 16.796875 39.40625 
Q 19.671875 43.65625 24.015625 45.921875 
Q 28.375 48.1875 33.59375 48.1875 
Q 44.578125 48.1875 50.953125 41.515625 
Q 57.328125 34.859375 57.328125 23.390625 
Q 57.328125 12.15625 50.6875 5.359375 
Q 44.046875 -1.421875 33.015625 -1.421875 
Q 20.359375 -1.421875 13.671875 8.265625 
Q 6.984375 17.96875 6.984375 36.375 
Q 6.984375 53.65625 15.1875 63.9375 
Q 23.390625 74.21875 37.203125 74.21875 
Q 40.921875 74.21875 44.703125 73.484375 
Q 48.484375 72.75 52.59375 71.296875 
z
" id="DejaVuSans-54"/>
       </defs>
       <use xlink:href="#DejaVuSans-48"/>
       <use x="63.623047" xlink:href="#DejaVuSans-46"/>
       <use x="95.410156" xlink:href="#DejaVuSans-54"/>
      </g>
     </g>
    </g>
    <g id="xtick_5">
     <g id="line2d_5">
      <g>
       <use style="stroke:#000000;stroke-width:0.8;" x="524.08223" xlink:href="#m43019f3ddc" y="450.72"/>
      </g>
     </g>
     <g id="text_5">
      <!-- 0.8 -->
      <g transform="translate(504.203324 476.716094)scale(0.25 -0.25)">
       <defs>
        <path d="M 31.78125 34.625 
Q 24.75 34.625 20.71875 30.859375 
Q 16.703125 27.09375 16.703125 20.515625 
Q 16.703125 13.921875 20.71875 10.15625 
Q 24.75 6.390625 31.78125 6.390625 
Q 38.8125 6.390625 42.859375 10.171875 
Q 46.921875 13.96875 46.921875 20.515625 
Q 46.921875 27.09375 42.890625 30.859375 
Q 38.875 34.625 31.78125 34.625 
z
M 21.921875 38.8125 
Q 15.578125 40.375 12.03125 44.71875 
Q 8.5 49.078125 8.5 55.328125 
Q 8.5 64.0625 14.71875 69.140625 
Q 20.953125 74.21875 31.78125 74.21875 
Q 42.671875 74.21875 48.875 69.140625 
Q 55.078125 64.0625 55.078125 55.328125 
Q 55.078125 49.078125 51.53125 44.71875 
Q 48 40.375 41.703125 38.8125 
Q 48.828125 37.15625 52.796875 32.3125 
Q 56.78125 27.484375 56.78125 20.515625 
Q 56.78125 9.90625 50.3125 4.234375 
Q 43.84375 -1.421875 31.78125 -1.421875 
Q 19.734375 -1.421875 13.25 4.234375 
Q 6.78125 9.90625 6.78125 20.515625 
Q 6.78125 27.484375 10.78125 32.3125 
Q 14.796875 37.15625 21.921875 38.8125 
z
M 18.3125 54.390625 
Q 18.3125 48.734375 21.84375 45.5625 
Q 25.390625 42.390625 31.78125 42.390625 
Q 38.140625 42.390625 41.71875 45.5625 
Q 45.3125 48.734375 45.3125 54.390625 
Q 45.3125 60.0625 41.71875 63.234375 
Q 38.140625 66.40625 31.78125 66.40625 
Q 25.390625 66.40625 21.84375 63.234375 
Q 18.3125 60.0625 18.3125 54.390625 
z
" id="DejaVuSans-56"/>
       </defs>
       <use xlink:href="#DejaVuSans-48"/>
       <use x="63.623047" xlink:href="#DejaVuSans-46"/>
       <use x="95.410156" xlink:href="#DejaVuSans-56"/>
      </g>
     </g>
    </g>
    <g id="xtick_6">
     <g id="line2d_6">
      <g>
       <use style="stroke:#000000;stroke-width:0.8;" x="625.536776" xlink:href="#m43019f3ddc" y="450.72"/>
      </g>
     </g>
     <g id="text_6">
      <!-- 1.0 -->
      <g transform="translate(605.657869 476.716094)scale(0.25 -0.25)">
       <defs>
        <path d="M 12.40625 8.296875 
L 28.515625 8.296875 
L 28.515625 63.921875 
L 10.984375 60.40625 
L 10.984375 69.390625 
L 28.421875 72.90625 
L 38.28125 72.90625 
L 38.28125 8.296875 
L 54.390625 8.296875 
L 54.390625 0 
L 12.40625 0 
z
" id="DejaVuSans-49"/>
       </defs>
       <use xlink:href="#DejaVuSans-49"/>
       <use x="63.623047" xlink:href="#DejaVuSans-46"/>
       <use x="95.410156" xlink:href="#DejaVuSans-48"/>
      </g>
     </g>
    </g>
    <g id="xtick_7">
     <g id="line2d_7">
      <g>
       <use style="stroke:#000000;stroke-width:0.8;" x="726.991321" xlink:href="#m43019f3ddc" y="450.72"/>
      </g>
     </g>
     <g id="text_7">
      <!-- 1.2 -->
      <g transform="translate(707.112415 476.716094)scale(0.25 -0.25)">
       <use xlink:href="#DejaVuSans-49"/>
       <use x="63.623047" xlink:href="#DejaVuSans-46"/>
       <use x="95.410156" xlink:href="#DejaVuSans-50"/>
      </g>
     </g>
    </g>
    <g id="xtick_8">
     <g id="line2d_8">
      <g>
       <use style="stroke:#000000;stroke-width:0.8;" x="828.445866" xlink:href="#m43019f3ddc" y="450.72"/>
      </g>
     </g>
     <g id="text_8">
      <!-- 1.4 -->
      <g transform="translate(808.56696 476.716094)scale(0.25 -0.25)">
       <use xlink:href="#DejaVuSans-49"/>
       <use x="63.623047" xlink:href="#DejaVuSans-46"/>
       <use x="95.410156" xlink:href="#DejaVuSans-52"/>
      </g>
     </g>
    </g>
    <g id="text_9">
     <!-- Beam Length [m] -->
     <g transform="translate(385.259063 505.67125)scale(0.26 -0.26)">
      <defs>
       <path d="M 19.671875 34.8125 
L 19.671875 8.109375 
L 35.5 8.109375 
Q 43.453125 8.109375 47.28125 11.40625 
Q 51.125 14.703125 51.125 21.484375 
Q 51.125 28.328125 47.28125 31.5625 
Q 43.453125 34.8125 35.5 34.8125 
z
M 19.671875 64.796875 
L 19.671875 42.828125 
L 34.28125 42.828125 
Q 41.5 42.828125 45.03125 45.53125 
Q 48.578125 48.25 48.578125 53.8125 
Q 48.578125 59.328125 45.03125 62.0625 
Q 41.5 64.796875 34.28125 64.796875 
z
M 9.8125 72.90625 
L 35.015625 72.90625 
Q 46.296875 72.90625 52.390625 68.21875 
Q 58.5 63.53125 58.5 54.890625 
Q 58.5 48.1875 55.375 44.234375 
Q 52.25 40.28125 46.1875 39.3125 
Q 53.46875 37.75 57.5 32.78125 
Q 61.53125 27.828125 61.53125 20.40625 
Q 61.53125 10.640625 54.890625 5.3125 
Q 48.25 0 35.984375 0 
L 9.8125 0 
z
" id="DejaVuSans-66"/>
       <path d="M 56.203125 29.59375 
L 56.203125 25.203125 
L 14.890625 25.203125 
Q 15.484375 15.921875 20.484375 11.0625 
Q 25.484375 6.203125 34.421875 6.203125 
Q 39.59375 6.203125 44.453125 7.46875 
Q 49.3125 8.734375 54.109375 11.28125 
L 54.109375 2.78125 
Q 49.265625 0.734375 44.1875 -0.34375 
Q 39.109375 -1.421875 33.890625 -1.421875 
Q 20.796875 -1.421875 13.15625 6.1875 
Q 5.515625 13.8125 5.515625 26.8125 
Q 5.515625 40.234375 12.765625 48.109375 
Q 20.015625 56 32.328125 56 
Q 43.359375 56 49.78125 48.890625 
Q 56.203125 41.796875 56.203125 29.59375 
z
M 47.21875 32.234375 
Q 47.125 39.59375 43.09375 43.984375 
Q 39.0625 48.390625 32.421875 48.390625 
Q 24.90625 48.390625 20.390625 44.140625 
Q 15.875 39.890625 15.1875 32.171875 
z
" id="DejaVuSans-101"/>
       <path d="M 34.28125 27.484375 
Q 23.390625 27.484375 19.1875 25 
Q 14.984375 22.515625 14.984375 16.5 
Q 14.984375 11.71875 18.140625 8.90625 
Q 21.296875 6.109375 26.703125 6.109375 
Q 34.1875 6.109375 38.703125 11.40625 
Q 43.21875 16.703125 43.21875 25.484375 
L 43.21875 27.484375 
z
M 52.203125 31.203125 
L 52.203125 0 
L 43.21875 0 
L 43.21875 8.296875 
Q 40.140625 3.328125 35.546875 0.953125 
Q 30.953125 -1.421875 24.3125 -1.421875 
Q 15.921875 -1.421875 10.953125 3.296875 
Q 6 8.015625 6 15.921875 
Q 6 25.140625 12.171875 29.828125 
Q 18.359375 34.515625 30.609375 34.515625 
L 43.21875 34.515625 
L 43.21875 35.40625 
Q 43.21875 41.609375 39.140625 45 
Q 35.0625 48.390625 27.6875 48.390625 
Q 23 48.390625 18.546875 47.265625 
Q 14.109375 46.140625 10.015625 43.890625 
L 10.015625 52.203125 
Q 14.9375 54.109375 19.578125 55.046875 
Q 24.21875 56 28.609375 56 
Q 40.484375 56 46.34375 49.84375 
Q 52.203125 43.703125 52.203125 31.203125 
z
" id="DejaVuSans-97"/>
       <path d="M 52 44.1875 
Q 55.375 50.25 60.0625 53.125 
Q 64.75 56 71.09375 56 
Q 79.640625 56 84.28125 50.015625 
Q 88.921875 44.046875 88.921875 33.015625 
L 88.921875 0 
L 79.890625 0 
L 79.890625 32.71875 
Q 79.890625 40.578125 77.09375 44.375 
Q 74.3125 48.1875 68.609375 48.1875 
Q 61.625 48.1875 57.5625 43.546875 
Q 53.515625 38.921875 53.515625 30.90625 
L 53.515625 0 
L 44.484375 0 
L 44.484375 32.71875 
Q 44.484375 40.625 41.703125 44.40625 
Q 38.921875 48.1875 33.109375 48.1875 
Q 26.21875 48.1875 22.15625 43.53125 
Q 18.109375 38.875 18.109375 30.90625 
L 18.109375 0 
L 9.078125 0 
L 9.078125 54.6875 
L 18.109375 54.6875 
L 18.109375 46.1875 
Q 21.1875 51.21875 25.484375 53.609375 
Q 29.78125 56 35.6875 56 
Q 41.65625 56 45.828125 52.96875 
Q 50 49.953125 52 44.1875 
z
" id="DejaVuSans-109"/>
       <path id="DejaVuSans-32"/>
       <path d="M 9.8125 72.90625 
L 19.671875 72.90625 
L 19.671875 8.296875 
L 55.171875 8.296875 
L 55.171875 0 
L 9.8125 0 
z
" id="DejaVuSans-76"/>
       <path d="M 54.890625 33.015625 
L 54.890625 0 
L 45.90625 0 
L 45.90625 32.71875 
Q 45.90625 40.484375 42.875 44.328125 
Q 39.84375 48.1875 33.796875 48.1875 
Q 26.515625 48.1875 22.3125 43.546875 
Q 18.109375 38.921875 18.109375 30.90625 
L 18.109375 0 
L 9.078125 0 
L 9.078125 54.6875 
L 18.109375 54.6875 
L 18.109375 46.1875 
Q 21.34375 51.125 25.703125 53.5625 
Q 30.078125 56 35.796875 56 
Q 45.21875 56 50.046875 50.171875 
Q 54.890625 44.34375 54.890625 33.015625 
z
" id="DejaVuSans-110"/>
       <path d="M 45.40625 27.984375 
Q 45.40625 37.75 41.375 43.109375 
Q 37.359375 48.484375 30.078125 48.484375 
Q 22.859375 48.484375 18.828125 43.109375 
Q 14.796875 37.75 14.796875 27.984375 
Q 14.796875 18.265625 18.828125 12.890625 
Q 22.859375 7.515625 30.078125 7.515625 
Q 37.359375 7.515625 41.375 12.890625 
Q 45.40625 18.265625 45.40625 27.984375 
z
M 54.390625 6.78125 
Q 54.390625 -7.171875 48.1875 -13.984375 
Q 42 -20.796875 29.203125 -20.796875 
Q 24.46875 -20.796875 20.265625 -20.09375 
Q 16.0625 -19.390625 12.109375 -17.921875 
L 12.109375 -9.1875 
Q 16.0625 -11.328125 19.921875 -12.34375 
Q 23.78125 -13.375 27.78125 -13.375 
Q 36.625 -13.375 41.015625 -8.765625 
Q 45.40625 -4.15625 45.40625 5.171875 
L 45.40625 9.625 
Q 42.625 4.78125 38.28125 2.390625 
Q 33.9375 0 27.875 0 
Q 17.828125 0 11.671875 7.65625 
Q 5.515625 15.328125 5.515625 27.984375 
Q 5.515625 40.671875 11.671875 48.328125 
Q 17.828125 56 27.875 56 
Q 33.9375 56 38.28125 53.609375 
Q 42.625 51.21875 45.40625 46.390625 
L 45.40625 54.6875 
L 54.390625 54.6875 
z
" id="DejaVuSans-103"/>
       <path d="M 18.3125 70.21875 
L 18.3125 54.6875 
L 36.8125 54.6875 
L 36.8125 47.703125 
L 18.3125 47.703125 
L 18.3125 18.015625 
Q 18.3125 11.328125 20.140625 9.421875 
Q 21.96875 7.515625 27.59375 7.515625 
L 36.8125 7.515625 
L 36.8125 0 
L 27.59375 0 
Q 17.1875 0 13.234375 3.875 
Q 9.28125 7.765625 9.28125 18.015625 
L 9.28125 47.703125 
L 2.6875 47.703125 
L 2.6875 54.6875 
L 9.28125 54.6875 
L 9.28125 70.21875 
z
" id="DejaVuSans-116"/>
       <path d="M 54.890625 33.015625 
L 54.890625 0 
L 45.90625 0 
L 45.90625 32.71875 
Q 45.90625 40.484375 42.875 44.328125 
Q 39.84375 48.1875 33.796875 48.1875 
Q 26.515625 48.1875 22.3125 43.546875 
Q 18.109375 38.921875 18.109375 30.90625 
L 18.109375 0 
L 9.078125 0 
L 9.078125 75.984375 
L 18.109375 75.984375 
L 18.109375 46.1875 
Q 21.34375 51.125 25.703125 53.5625 
Q 30.078125 56 35.796875 56 
Q 45.21875 56 50.046875 50.171875 
Q 54.890625 44.34375 54.890625 33.015625 
z
" id="DejaVuSans-104"/>
       <path d="M 8.59375 75.984375 
L 29.296875 75.984375 
L 29.296875 69 
L 17.578125 69 
L 17.578125 -6.203125 
L 29.296875 -6.203125 
L 29.296875 -13.1875 
L 8.59375 -13.1875 
z
" id="DejaVuSans-91"/>
       <path d="M 30.421875 75.984375 
L 30.421875 -13.1875 
L 9.71875 -13.1875 
L 9.71875 -6.203125 
L 21.390625 -6.203125 
L 21.390625 69 
L 9.71875 69 
L 9.71875 75.984375 
z
" id="DejaVuSans-93"/>
      </defs>
      <use xlink:href="#DejaVuSans-66"/>
      <use x="68.603516" xlink:href="#DejaVuSans-101"/>
      <use x="130.126953" xlink:href="#DejaVuSans-97"/>
      <use x="191.40625" xlink:href="#DejaVuSans-109"/>
      <use x="288.818359" xlink:href="#DejaVuSans-32"/>
      <use x="320.605469" xlink:href="#DejaVuSans-76"/>
      <use x="374.568359" xlink:href="#DejaVuSans-101"/>
      <use x="436.091797" xlink:href="#DejaVuSans-110"/>
      <use x="499.470703" xlink:href="#DejaVuSans-103"/>
      <use x="562.947266" xlink:href="#DejaVuSans-116"/>
      <use x="602.15625" xlink:href="#DejaVuSans-104"/>
      <use x="665.535156" xlink:href="#DejaVuSans-32"/>
      <use x="697.322266" xlink:href="#DejaVuSans-91"/>
      <use x="736.335938" xlink:href="#DejaVuSans-109"/>
      <use x="833.748047" xlink:href="#DejaVuSans-93"/>
     </g>
    </g>
   </g>
   <g id="matplotlib.axis_2">
    <g id="ytick_1">
     <g id="line2d_9">
      <defs>
       <path d="M 0 0 
L -3.5 0 
" id="m0a7c4948ec" style="stroke:#000000;stroke-width:0.8;"/>
      </defs>
      <g>
       <use style="stroke:#000000;stroke-width:0.8;" x="80.218594" xlink:href="#m0a7c4948ec" y="369.06304"/>
      </g>
     </g>
     <g id="text_10">
      <!-- −2 -->
      <g transform="translate(36.363125 378.561087)scale(0.25 -0.25)">
       <defs>
        <path d="M 10.59375 35.5 
L 73.1875 35.5 
L 73.1875 27.203125 
L 10.59375 27.203125 
z
" id="DejaVuSans-8722"/>
       </defs>
       <use xlink:href="#DejaVuSans-8722"/>
       <use x="83.789062" xlink:href="#DejaVuSans-50"/>
      </g>
     </g>
    </g>
    <g id="ytick_2">
     <g id="line2d_10">
      <g>
       <use style="stroke:#000000;stroke-width:0.8;" x="80.218594" xlink:href="#m0a7c4948ec" y="286.76354"/>
      </g>
     </g>
     <g id="text_11">
      <!-- −1 -->
      <g transform="translate(36.363125 296.261586)scale(0.25 -0.25)">
       <use xlink:href="#DejaVuSans-8722"/>
       <use x="83.789062" xlink:href="#DejaVuSans-49"/>
      </g>
     </g>
    </g>
    <g id="ytick_3">
     <g id="line2d_11">
      <g>
       <use style="stroke:#000000;stroke-width:0.8;" x="80.218594" xlink:href="#m0a7c4948ec" y="204.464039"/>
      </g>
     </g>
     <g id="text_12">
      <!-- 0 -->
      <g transform="translate(57.312344 213.962086)scale(0.25 -0.25)">
       <use xlink:href="#DejaVuSans-48"/>
      </g>
     </g>
    </g>
    <g id="ytick_4">
     <g id="line2d_12">
      <g>
       <use style="stroke:#000000;stroke-width:0.8;" x="80.218594" xlink:href="#m0a7c4948ec" y="122.164539"/>
      </g>
     </g>
     <g id="text_13">
      <!-- 1 -->
      <g transform="translate(57.312344 131.662586)scale(0.25 -0.25)">
       <use xlink:href="#DejaVuSans-49"/>
      </g>
     </g>
    </g>
    <g id="ytick_5">
     <g id="line2d_13">
      <g>
       <use style="stroke:#000000;stroke-width:0.8;" x="80.218594" xlink:href="#m0a7c4948ec" y="39.865039"/>
      </g>
     </g>
     <g id="text_14">
      <!-- 2 -->
      <g transform="translate(57.312344 49.363086)scale(0.25 -0.25)">
       <use xlink:href="#DejaVuSans-50"/>
      </g>
     </g>
    </g>
    <g id="text_15">
     <!-- Amplitude -->
     <g transform="translate(26.955938 295.578906)rotate(-90)scale(0.26 -0.26)">
      <defs>
       <path d="M 34.1875 63.1875 
L 20.796875 26.90625 
L 47.609375 26.90625 
z
M 28.609375 72.90625 
L 39.796875 72.90625 
L 67.578125 0 
L 57.328125 0 
L 50.6875 18.703125 
L 17.828125 18.703125 
L 11.1875 0 
L 0.78125 0 
z
" id="DejaVuSans-65"/>
       <path d="M 18.109375 8.203125 
L 18.109375 -20.796875 
L 9.078125 -20.796875 
L 9.078125 54.6875 
L 18.109375 54.6875 
L 18.109375 46.390625 
Q 20.953125 51.265625 25.265625 53.625 
Q 29.59375 56 35.59375 56 
Q 45.5625 56 51.78125 48.09375 
Q 58.015625 40.1875 58.015625 27.296875 
Q 58.015625 14.40625 51.78125 6.484375 
Q 45.5625 -1.421875 35.59375 -1.421875 
Q 29.59375 -1.421875 25.265625 0.953125 
Q 20.953125 3.328125 18.109375 8.203125 
z
M 48.6875 27.296875 
Q 48.6875 37.203125 44.609375 42.84375 
Q 40.53125 48.484375 33.40625 48.484375 
Q 26.265625 48.484375 22.1875 42.84375 
Q 18.109375 37.203125 18.109375 27.296875 
Q 18.109375 17.390625 22.1875 11.75 
Q 26.265625 6.109375 33.40625 6.109375 
Q 40.53125 6.109375 44.609375 11.75 
Q 48.6875 17.390625 48.6875 27.296875 
z
" id="DejaVuSans-112"/>
       <path d="M 9.421875 75.984375 
L 18.40625 75.984375 
L 18.40625 0 
L 9.421875 0 
z
" id="DejaVuSans-108"/>
       <path d="M 9.421875 54.6875 
L 18.40625 54.6875 
L 18.40625 0 
L 9.421875 0 
z
M 9.421875 75.984375 
L 18.40625 75.984375 
L 18.40625 64.59375 
L 9.421875 64.59375 
z
" id="DejaVuSans-105"/>
       <path d="M 8.5 21.578125 
L 8.5 54.6875 
L 17.484375 54.6875 
L 17.484375 21.921875 
Q 17.484375 14.15625 20.5 10.265625 
Q 23.53125 6.390625 29.59375 6.390625 
Q 36.859375 6.390625 41.078125 11.03125 
Q 45.3125 15.671875 45.3125 23.6875 
L 45.3125 54.6875 
L 54.296875 54.6875 
L 54.296875 0 
L 45.3125 0 
L 45.3125 8.40625 
Q 42.046875 3.421875 37.71875 1 
Q 33.40625 -1.421875 27.6875 -1.421875 
Q 18.265625 -1.421875 13.375 4.4375 
Q 8.5 10.296875 8.5 21.578125 
z
M 31.109375 56 
z
" id="DejaVuSans-117"/>
       <path d="M 45.40625 46.390625 
L 45.40625 75.984375 
L 54.390625 75.984375 
L 54.390625 0 
L 45.40625 0 
L 45.40625 8.203125 
Q 42.578125 3.328125 38.25 0.953125 
Q 33.9375 -1.421875 27.875 -1.421875 
Q 17.96875 -1.421875 11.734375 6.484375 
Q 5.515625 14.40625 5.515625 27.296875 
Q 5.515625 40.1875 11.734375 48.09375 
Q 17.96875 56 27.875 56 
Q 33.9375 56 38.25 53.625 
Q 42.578125 51.265625 45.40625 46.390625 
z
M 14.796875 27.296875 
Q 14.796875 17.390625 18.875 11.75 
Q 22.953125 6.109375 30.078125 6.109375 
Q 37.203125 6.109375 41.296875 11.75 
Q 45.40625 17.390625 45.40625 27.296875 
Q 45.40625 37.203125 41.296875 42.84375 
Q 37.203125 48.484375 30.078125 48.484375 
Q 22.953125 48.484375 18.875 42.84375 
Q 14.796875 37.203125 14.796875 27.296875 
z
" id="DejaVuSans-100"/>
      </defs>
      <use xlink:href="#DejaVuSans-65"/>
      <use x="68.408203" xlink:href="#DejaVuSans-109"/>
      <use x="165.820312" xlink:href="#DejaVuSans-112"/>
      <use x="229.296875" xlink:href="#DejaVuSans-108"/>
      <use x="257.080078" xlink:href="#DejaVuSans-105"/>
      <use x="284.863281" xlink:href="#DejaVuSans-116"/>
      <use x="324.072266" xlink:href="#DejaVuSans-117"/>
      <use x="387.451172" xlink:href="#DejaVuSans-100"/>
      <use x="450.927734" xlink:href="#DejaVuSans-101"/>
     </g>
    </g>
   </g>
   <g id="line2d_14">
    <defs>
     <path d="M 0 -3 
L -3 3 
L 3 3 
z
" id="m0001a662ec" style="stroke:#000000;stroke-linejoin:miter;"/>
    </defs>
    <g clip-path="url(#pfca2fa91e5)">
     <use style="stroke:#000000;stroke-linejoin:miter;" x="118.264048" xlink:href="#m0001a662ec" y="204.464039"/>
     <use style="stroke:#000000;stroke-linejoin:miter;" x="123.336776" xlink:href="#m0001a662ec" y="203.111473"/>
     <use style="stroke:#000000;stroke-linejoin:miter;" x="128.409503" xlink:href="#m0001a662ec" y="199.289327"/>
     <use style="stroke:#000000;stroke-linejoin:miter;" x="133.48223" xlink:href="#m0001a662ec" y="193.327023"/>
     <use style="stroke:#000000;stroke-linejoin:miter;" x="138.554957" xlink:href="#m0001a662ec" y="185.552075"/>
     <use style="stroke:#000000;stroke-linejoin:miter;" x="143.627685" xlink:href="#m0001a662ec" y="176.288978"/>
     <use style="stroke:#000000;stroke-linejoin:miter;" x="148.700412" xlink:href="#m0001a662ec" y="165.857816"/>
     <use style="stroke:#000000;stroke-linejoin:miter;" x="153.773139" xlink:href="#m0001a662ec" y="154.572609"/>
     <use style="stroke:#000000;stroke-linejoin:miter;" x="158.845866" xlink:href="#m0001a662ec" y="142.739433"/>
     <use style="stroke:#000000;stroke-linejoin:miter;" x="163.918594" xlink:href="#m0001a662ec" y="130.654424"/>
     <use style="stroke:#000000;stroke-linejoin:miter;" x="168.991321" xlink:href="#m0001a662ec" y="118.601687"/>
     <use style="stroke:#000000;stroke-linejoin:miter;" x="174.064048" xlink:href="#m0001a662ec" y="106.851269"/>
     <use style="stroke:#000000;stroke-linejoin:miter;" x="179.136776" xlink:href="#m0001a662ec" y="95.656841"/>
     <use style="stroke:#000000;stroke-linejoin:miter;" x="184.209503" xlink:href="#m0001a662ec" y="85.253804"/>
     <use style="stroke:#000000;stroke-linejoin:miter;" x="189.28223" xlink:href="#m0001a662ec" y="75.857313"/>
     <use style="stroke:#000000;stroke-linejoin:miter;" x="194.354957" xlink:href="#m0001a662ec" y="67.660549"/>
     <use style="stroke:#000000;stroke-linejoin:miter;" x="199.427685" xlink:href="#m0001a662ec" y="60.832827"/>
     <use style="stroke:#000000;stroke-linejoin:miter;" x="204.500412" xlink:href="#m0001a662ec" y="55.518609"/>
     <use style="stroke:#000000;stroke-linejoin:miter;" x="209.573139" xlink:href="#m0001a662ec" y="51.83602"/>
     <use style="stroke:#000000;stroke-linejoin:miter;" x="214.645866" xlink:href="#m0001a662ec" y="49.87611"/>
     <use style="stroke:#000000;stroke-linejoin:miter;" x="219.718594" xlink:href="#m0001a662ec" y="49.702277"/>
     <use style="stroke:#000000;stroke-linejoin:miter;" x="224.791321" xlink:href="#m0001a662ec" y="51.349853"/>
     <use style="stroke:#000000;stroke-linejoin:miter;" x="229.864048" xlink:href="#m0001a662ec" y="54.826274"/>
     <use style="stroke:#000000;stroke-linejoin:miter;" x="234.936776" xlink:href="#m0001a662ec" y="60.111405"/>
     <use style="stroke:#000000;stroke-linejoin:miter;" x="240.009503" xlink:href="#m0001a662ec" y="67.158198"/>
     <use style="stroke:#000000;stroke-linejoin:miter;" x="245.08223" xlink:href="#m0001a662ec" y="75.893436"/>
     <use style="stroke:#000000;stroke-linejoin:miter;" x="250.154957" xlink:href="#m0001a662ec" y="86.219624"/>
     <use style="stroke:#000000;stroke-linejoin:miter;" x="255.227685" xlink:href="#m0001a662ec" y="98.015975"/>
     <use style="stroke:#000000;stroke-linejoin:miter;" x="260.300412" xlink:href="#m0001a662ec" y="111.140472"/>
     <use style="stroke:#000000;stroke-linejoin:miter;" x="265.373139" xlink:href="#m0001a662ec" y="125.432144"/>
     <use style="stroke:#000000;stroke-linejoin:miter;" x="270.445866" xlink:href="#m0001a662ec" y="140.713195"/>
     <use style="stroke:#000000;stroke-linejoin:miter;" x="275.518594" xlink:href="#m0001a662ec" y="156.791637"/>
     <use style="stroke:#000000;stroke-linejoin:miter;" x="280.591321" xlink:href="#m0001a662ec" y="173.463991"/>
     <use style="stroke:#000000;stroke-linejoin:miter;" x="285.664048" xlink:href="#m0001a662ec" y="190.518115"/>
     <use style="stroke:#000000;stroke-linejoin:miter;" x="290.736776" xlink:href="#m0001a662ec" y="207.736126"/>
     <use style="stroke:#000000;stroke-linejoin:miter;" x="295.809503" xlink:href="#m0001a662ec" y="224.897422"/>
     <use style="stroke:#000000;stroke-linejoin:miter;" x="300.88223" xlink:href="#m0001a662ec" y="241.781654"/>
     <use style="stroke:#000000;stroke-linejoin:miter;" x="305.954957" xlink:href="#m0001a662ec" y="258.17177"/>
     <use style="stroke:#000000;stroke-linejoin:miter;" x="311.027685" xlink:href="#m0001a662ec" y="273.856912"/>
     <use style="stroke:#000000;stroke-linejoin:miter;" x="316.100412" xlink:href="#m0001a662ec" y="288.635278"/>
     <use style="stroke:#000000;stroke-linejoin:miter;" x="321.173139" xlink:href="#m0001a662ec" y="302.31684"/>
     <use style="stroke:#000000;stroke-linejoin:miter;" x="326.245866" xlink:href="#m0001a662ec" y="314.725867"/>
     <use style="stroke:#000000;stroke-linejoin:miter;" x="331.318594" xlink:href="#m0001a662ec" y="325.703271"/>
     <use style="stroke:#000000;stroke-linejoin:miter;" x="336.391321" xlink:href="#m0001a662ec" y="335.10885"/>
     <use style="stroke:#000000;stroke-linejoin:miter;" x="341.464048" xlink:href="#m0001a662ec" y="342.82298"/>
     <use style="stroke:#000000;stroke-linejoin:miter;" x="346.536776" xlink:href="#m0001a662ec" y="348.748255"/>
     <use style="stroke:#000000;stroke-linejoin:miter;" x="351.609503" xlink:href="#m0001a662ec" y="352.81081"/>
     <use style="stroke:#000000;stroke-linejoin:miter;" x="356.68223" xlink:href="#m0001a662ec" y="354.961304"/>
     <use style="stroke:#000000;stroke-linejoin:miter;" x="361.754957" xlink:href="#m0001a662ec" y="355.17558"/>
     <use style="stroke:#000000;stroke-linejoin:miter;" x="366.827685" xlink:href="#m0001a662ec" y="353.454833"/>
     <use style="stroke:#000000;stroke-linejoin:miter;" x="371.900412" xlink:href="#m0001a662ec" y="349.825765"/>
     <use style="stroke:#000000;stroke-linejoin:miter;" x="376.973139" xlink:href="#m0001a662ec" y="344.340105"/>
     <use style="stroke:#000000;stroke-linejoin:miter;" x="382.045866" xlink:href="#m0001a662ec" y="337.074018"/>
     <use style="stroke:#000000;stroke-linejoin:miter;" x="387.118594" xlink:href="#m0001a662ec" y="328.126967"/>
     <use style="stroke:#000000;stroke-linejoin:miter;" x="392.191321" xlink:href="#m0001a662ec" y="317.620385"/>
     <use style="stroke:#000000;stroke-linejoin:miter;" x="397.264048" xlink:href="#m0001a662ec" y="305.696282"/>
     <use style="stroke:#000000;stroke-linejoin:miter;" x="402.336776" xlink:href="#m0001a662ec" y="292.515102"/>
     <use style="stroke:#000000;stroke-linejoin:miter;" x="407.409503" xlink:href="#m0001a662ec" y="278.253628"/>
     <use style="stroke:#000000;stroke-linejoin:miter;" x="412.48223" xlink:href="#m0001a662ec" y="263.102848"/>
     <use style="stroke:#000000;stroke-linejoin:miter;" x="417.554957" xlink:href="#m0001a662ec" y="247.265197"/>
     <use style="stroke:#000000;stroke-linejoin:miter;" x="422.627685" xlink:href="#m0001a662ec" y="230.952017"/>
     <use style="stroke:#000000;stroke-linejoin:miter;" x="427.700412" xlink:href="#m0001a662ec" y="214.380718"/>
     <use style="stroke:#000000;stroke-linejoin:miter;" x="432.773139" xlink:href="#m0001a662ec" y="197.771928"/>
     <use style="stroke:#000000;stroke-linejoin:miter;" x="437.845866" xlink:href="#m0001a662ec" y="181.346585"/>
     <use style="stroke:#000000;stroke-linejoin:miter;" x="442.918594" xlink:href="#m0001a662ec" y="165.323028"/>
     <use style="stroke:#000000;stroke-linejoin:miter;" x="447.991321" xlink:href="#m0001a662ec" y="149.914134"/>
     <use style="stroke:#000000;stroke-linejoin:miter;" x="453.064048" xlink:href="#m0001a662ec" y="135.324529"/>
     <use style="stroke:#000000;stroke-linejoin:miter;" x="458.136776" xlink:href="#m0001a662ec" y="121.747871"/>
     <use style="stroke:#000000;stroke-linejoin:miter;" x="463.209503" xlink:href="#m0001a662ec" y="109.364364"/>
     <use style="stroke:#000000;stroke-linejoin:miter;" x="468.28223" xlink:href="#m0001a662ec" y="98.33822"/>
     <use style="stroke:#000000;stroke-linejoin:miter;" x="473.354957" xlink:href="#m0001a662ec" y="88.81598"/>
     <use style="stroke:#000000;stroke-linejoin:miter;" x="478.427685" xlink:href="#m0001a662ec" y="80.923947"/>
     <use style="stroke:#000000;stroke-linejoin:miter;" x="483.500412" xlink:href="#m0001a662ec" y="74.766924"/>
     <use style="stroke:#000000;stroke-linejoin:miter;" x="488.573139" xlink:href="#m0001a662ec" y="70.427115"/>
     <use style="stroke:#000000;stroke-linejoin:miter;" x="493.645866" xlink:href="#m0001a662ec" y="67.962261"/>
     <use style="stroke:#000000;stroke-linejoin:miter;" x="498.718594" xlink:href="#m0001a662ec" y="67.405735"/>
     <use style="stroke:#000000;stroke-linejoin:miter;" x="503.791321" xlink:href="#m0001a662ec" y="68.76566"/>
     <use style="stroke:#000000;stroke-linejoin:miter;" x="508.864048" xlink:href="#m0001a662ec" y="72.024968"/>
     <use style="stroke:#000000;stroke-linejoin:miter;" x="513.936776" xlink:href="#m0001a662ec" y="77.141495"/>
     <use style="stroke:#000000;stroke-linejoin:miter;" x="519.009503" xlink:href="#m0001a662ec" y="84.048719"/>
     <use style="stroke:#000000;stroke-linejoin:miter;" x="524.08223" xlink:href="#m0001a662ec" y="92.656654"/>
     <use style="stroke:#000000;stroke-linejoin:miter;" x="529.154957" xlink:href="#m0001a662ec" y="102.852928"/>
     <use style="stroke:#000000;stroke-linejoin:miter;" x="534.227685" xlink:href="#m0001a662ec" y="114.504365"/>
     <use style="stroke:#000000;stroke-linejoin:miter;" x="539.300412" xlink:href="#m0001a662ec" y="127.458759"/>
     <use style="stroke:#000000;stroke-linejoin:miter;" x="544.373139" xlink:href="#m0001a662ec" y="141.546721"/>
     <use style="stroke:#000000;stroke-linejoin:miter;" x="549.445866" xlink:href="#m0001a662ec" y="156.584256"/>
     <use style="stroke:#000000;stroke-linejoin:miter;" x="554.518594" xlink:href="#m0001a662ec" y="172.37488"/>
     <use style="stroke:#000000;stroke-linejoin:miter;" x="559.591321" xlink:href="#m0001a662ec" y="188.712335"/>
     <use style="stroke:#000000;stroke-linejoin:miter;" x="564.664048" xlink:href="#m0001a662ec" y="205.383316"/>
     <use style="stroke:#000000;stroke-linejoin:miter;" x="569.736776" xlink:href="#m0001a662ec" y="222.170304"/>
     <use style="stroke:#000000;stroke-linejoin:miter;" x="574.809503" xlink:href="#m0001a662ec" y="238.854367"/>
     <use style="stroke:#000000;stroke-linejoin:miter;" x="579.88223" xlink:href="#m0001a662ec" y="255.218116"/>
     <use style="stroke:#000000;stroke-linejoin:miter;" x="584.954957" xlink:href="#m0001a662ec" y="271.048532"/>
     <use style="stroke:#000000;stroke-linejoin:miter;" x="590.027685" xlink:href="#m0001a662ec" y="286.139759"/>
     <use style="stroke:#000000;stroke-linejoin:miter;" x="595.100412" xlink:href="#m0001a662ec" y="300.295857"/>
     <use style="stroke:#000000;stroke-linejoin:miter;" x="600.173139" xlink:href="#m0001a662ec" y="313.333382"/>
     <use style="stroke:#000000;stroke-linejoin:miter;" x="605.245866" xlink:href="#m0001a662ec" y="325.08366"/>
     <use style="stroke:#000000;stroke-linejoin:miter;" x="610.318594" xlink:href="#m0001a662ec" y="335.395335"/>
     <use style="stroke:#000000;stroke-linejoin:miter;" x="615.391321" xlink:href="#m0001a662ec" y="344.135961"/>
     <use style="stroke:#000000;stroke-linejoin:miter;" x="620.464048" xlink:href="#m0001a662ec" y="351.194172"/>
     <use style="stroke:#000000;stroke-linejoin:miter;" x="625.536776" xlink:href="#m0001a662ec" y="356.48064"/>
     <use style="stroke:#000000;stroke-linejoin:miter;" x="630.609503" xlink:href="#m0001a662ec" y="359.929762"/>
     <use style="stroke:#000000;stroke-linejoin:miter;" x="635.68223" xlink:href="#m0001a662ec" y="361.500127"/>
     <use style="stroke:#000000;stroke-linejoin:miter;" x="640.754957" xlink:href="#m0001a662ec" y="361.175489"/>
     <use style="stroke:#000000;stroke-linejoin:miter;" x="645.827685" xlink:href="#m0001a662ec" y="358.964562"/>
     <use style="stroke:#000000;stroke-linejoin:miter;" x="650.900412" xlink:href="#m0001a662ec" y="354.901074"/>
     <use style="stroke:#000000;stroke-linejoin:miter;" x="655.973139" xlink:href="#m0001a662ec" y="349.043514"/>
     <use style="stroke:#000000;stroke-linejoin:miter;" x="661.045866" xlink:href="#m0001a662ec" y="341.474083"/>
     <use style="stroke:#000000;stroke-linejoin:miter;" x="666.118594" xlink:href="#m0001a662ec" y="332.29787"/>
     <use style="stroke:#000000;stroke-linejoin:miter;" x="671.191321" xlink:href="#m0001a662ec" y="321.641335"/>
     <use style="stroke:#000000;stroke-linejoin:miter;" x="676.264048" xlink:href="#m0001a662ec" y="309.650734"/>
     <use style="stroke:#000000;stroke-linejoin:miter;" x="681.336776" xlink:href="#m0001a662ec" y="296.490229"/>
     <use style="stroke:#000000;stroke-linejoin:miter;" x="686.409503" xlink:href="#m0001a662ec" y="282.33976"/>
     <use style="stroke:#000000;stroke-linejoin:miter;" x="691.48223" xlink:href="#m0001a662ec" y="267.392657"/>
     <use style="stroke:#000000;stroke-linejoin:miter;" x="696.554957" xlink:href="#m0001a662ec" y="251.853211"/>
     <use style="stroke:#000000;stroke-linejoin:miter;" x="701.627685" xlink:href="#m0001a662ec" y="235.934019"/>
     <use style="stroke:#000000;stroke-linejoin:miter;" x="706.700412" xlink:href="#m0001a662ec" y="219.853204"/>
     <use style="stroke:#000000;stroke-linejoin:miter;" x="711.773139" xlink:href="#m0001a662ec" y="203.83165"/>
     <use style="stroke:#000000;stroke-linejoin:miter;" x="716.845866" xlink:href="#m0001a662ec" y="188.09015"/>
     <use style="stroke:#000000;stroke-linejoin:miter;" x="721.918594" xlink:href="#m0001a662ec" y="172.846579"/>
     <use style="stroke:#000000;stroke-linejoin:miter;" x="726.991321" xlink:href="#m0001a662ec" y="158.31313"/>
     <use style="stroke:#000000;stroke-linejoin:miter;" x="732.064048" xlink:href="#m0001a662ec" y="144.693632"/>
     <use style="stroke:#000000;stroke-linejoin:miter;" x="737.136776" xlink:href="#m0001a662ec" y="132.180923"/>
     <use style="stroke:#000000;stroke-linejoin:miter;" x="742.209503" xlink:href="#m0001a662ec" y="120.954596"/>
     <use style="stroke:#000000;stroke-linejoin:miter;" x="747.28223" xlink:href="#m0001a662ec" y="111.178691"/>
     <use style="stroke:#000000;stroke-linejoin:miter;" x="752.354957" xlink:href="#m0001a662ec" y="102.999446"/>
     <use style="stroke:#000000;stroke-linejoin:miter;" x="757.427685" xlink:href="#m0001a662ec" y="96.544244"/>
     <use style="stroke:#000000;stroke-linejoin:miter;" x="762.500412" xlink:href="#m0001a662ec" y="91.919333"/>
     <use style="stroke:#000000;stroke-linejoin:miter;" x="767.573139" xlink:href="#m0001a662ec" y="89.209383"/>
     <use style="stroke:#000000;stroke-linejoin:miter;" x="772.645866" xlink:href="#m0001a662ec" y="88.476037"/>
     <use style="stroke:#000000;stroke-linejoin:miter;" x="777.718594" xlink:href="#m0001a662ec" y="89.75795"/>
     <use style="stroke:#000000;stroke-linejoin:miter;" x="782.791321" xlink:href="#m0001a662ec" y="93.070201"/>
     <use style="stroke:#000000;stroke-linejoin:miter;" x="787.864048" xlink:href="#m0001a662ec" y="98.40469"/>
     <use style="stroke:#000000;stroke-linejoin:miter;" x="792.936776" xlink:href="#m0001a662ec" y="105.730728"/>
     <use style="stroke:#000000;stroke-linejoin:miter;" x="798.009503" xlink:href="#m0001a662ec" y="114.995635"/>
     <use style="stroke:#000000;stroke-linejoin:miter;" x="803.08223" xlink:href="#m0001a662ec" y="126.126404"/>
     <use style="stroke:#000000;stroke-linejoin:miter;" x="808.154957" xlink:href="#m0001a662ec" y="139.030941"/>
     <use style="stroke:#000000;stroke-linejoin:miter;" x="813.227685" xlink:href="#m0001a662ec" y="153.600092"/>
     <use style="stroke:#000000;stroke-linejoin:miter;" x="818.300412" xlink:href="#m0001a662ec" y="169.709816"/>
     <use style="stroke:#000000;stroke-linejoin:miter;" x="823.373139" xlink:href="#m0001a662ec" y="187.223767"/>
     <use style="stroke:#000000;stroke-linejoin:miter;" x="828.445866" xlink:href="#m0001a662ec" y="205.995987"/>
     <use style="stroke:#000000;stroke-linejoin:miter;" x="833.518594" xlink:href="#m0001a662ec" y="225.873947"/>
     <use style="stroke:#000000;stroke-linejoin:miter;" x="838.591321" xlink:href="#m0001a662ec" y="246.701772"/>
     <use style="stroke:#000000;stroke-linejoin:miter;" x="843.664048" xlink:href="#m0001a662ec" y="268.323686"/>
     <use style="stroke:#000000;stroke-linejoin:miter;" x="848.736776" xlink:href="#m0001a662ec" y="290.587586"/>
     <use style="stroke:#000000;stroke-linejoin:miter;" x="853.809503" xlink:href="#m0001a662ec" y="313.348739"/>
     <use style="stroke:#000000;stroke-linejoin:miter;" x="858.88223" xlink:href="#m0001a662ec" y="336.47382"/>
     <use style="stroke:#000000;stroke-linejoin:miter;" x="863.954957" xlink:href="#m0001a662ec" y="359.844492"/>
     <use style="stroke:#000000;stroke-linejoin:miter;" x="869.027685" xlink:href="#m0001a662ec" y="383.36173"/>
     <use style="stroke:#000000;stroke-linejoin:miter;" x="874.100412" xlink:href="#m0001a662ec" y="406.949755"/>
     <use style="stroke:#000000;stroke-linejoin:miter;" x="879.173139" xlink:href="#m0001a662ec" y="430.56"/>
    </g>
   </g>
   <g id="line2d_15">
    <path clip-path="url(#pfca2fa91e5)" d="M 118.264048 204.464039 
L 123.336776 205.8175 
L 128.409503 209.640681 
L 133.48223 215.603238 
L 138.554957 223.376605 
L 143.627685 232.635128 
L 148.700412 243.057495 
L 153.773139 254.328437 
L 163.918594 278.196868 
L 168.991321 290.211948 
L 174.064048 301.915167 
L 179.136776 313.052357 
L 184.209503 323.387757 
L 189.28223 332.706514 
L 194.354957 340.816159 
L 199.427685 347.548173 
L 204.500412 352.759797 
L 209.573139 356.334939 
L 214.645866 358.184909 
L 219.718594 358.249416 
L 224.791321 356.496558 
L 229.864048 352.922748 
L 234.936776 347.552461 
L 240.009503 340.437252 
L 245.08223 331.655173 
L 250.154957 321.308721 
L 255.227685 309.524015 
L 260.300412 296.447913 
L 265.373139 282.246513 
L 270.445866 267.102481 
L 275.518594 251.212289 
L 285.664048 218.032002 
L 295.809503 184.446041 
L 300.88223 168.056402 
L 305.954957 152.227342 
L 311.027685 137.169454 
L 316.100412 123.083369 
L 321.173139 110.156811 
L 326.245866 98.562237 
L 331.318594 88.454659 
L 336.391321 79.968843 
L 341.464048 73.218239 
L 346.536776 68.293091 
L 351.609503 65.259197 
L 356.68223 64.157177 
L 361.754957 65.001722 
L 366.827685 67.781684 
L 371.900412 72.459909 
L 376.973139 78.941188 
L 382.045866 87.10834 
L 387.118594 96.8564 
L 392.191321 108.059661 
L 397.264048 120.573817 
L 402.336776 134.237487 
L 407.409503 148.874681 
L 412.48223 164.296809 
L 417.554957 180.305258 
L 437.845866 246.02588 
L 442.918594 261.820646 
L 447.991321 276.948616 
L 453.064048 291.216095 
L 458.136776 304.440693 
L 463.209503 316.453716 
L 468.28223 327.102217 
L 473.354957 336.251274 
L 478.427685 343.785314 
L 483.500412 349.609993 
L 488.573139 353.653024 
L 493.645866 355.865413 
L 498.718594 356.222113 
L 503.791321 354.721866 
L 508.864048 351.387765 
L 513.936776 346.266704 
L 519.009503 339.428529 
L 524.08223 330.965548 
L 529.154957 320.990988 
L 534.227685 309.637822 
L 539.300412 297.056549 
L 544.373139 283.413654 
L 549.445866 268.889364 
L 554.518594 253.675116 
L 564.664048 221.984183 
L 574.809503 190.001622 
L 579.88223 174.425767 
L 584.954957 159.400643 
L 590.027685 145.123071 
L 595.100412 131.779935 
L 600.173139 119.545818 
L 605.245866 108.580529 
L 610.318594 99.027417 
L 615.391321 91.010829 
L 620.464048 84.635251 
L 625.536776 79.983379 
L 630.609503 77.138417 
L 635.68223 76.161003 
L 640.754957 77.064043 
L 645.827685 79.835659 
L 650.900412 84.439469 
L 655.973139 90.815046 
L 661.045866 98.878422 
L 666.118594 108.523512 
L 671.191321 119.623139 
L 676.264048 132.030883 
L 681.336776 145.583018 
L 686.409503 160.100329 
L 691.48223 175.390687 
L 701.627685 207.471954 
L 711.773139 240.126446 
L 716.845866 256.124094 
L 721.918594 271.614415 
L 726.991321 286.388311 
L 732.064048 300.245078 
L 737.136776 312.994991 
L 742.209503 324.461731 
L 747.28223 334.484156 
L 752.354957 342.918818 
L 757.427685 349.641263 
L 762.500412 354.547457 
L 767.573139 357.555175 
L 772.645866 358.604493 
L 777.718594 357.658378 
L 782.791321 354.703069 
L 787.864048 349.747372 
L 792.936776 342.822717 
L 798.009503 333.981759 
L 803.08223 323.297349 
L 808.154957 310.861146 
L 813.227685 296.781339 
L 818.300412 281.180811 
L 823.373139 264.194515 
L 828.445866 245.966764 
L 833.518594 226.648293 
L 838.591321 206.393041 
L 843.664048 185.354787 
L 848.736776 163.683616 
L 858.88223 119.002296 
L 874.100412 50.357937 
L 879.173139 27.36 
L 879.173139 27.36 
" style="fill:none;stroke:#0000ff;stroke-linecap:square;stroke-width:3;"/>
   </g>
   <g id="line2d_16">
    <path clip-path="url(#pfca2fa91e5)" d="M 118.264048 204.464039 
L 123.336776 205.82711 
L 128.409503 209.678898 
L 133.48223 215.687637 
L 138.554957 223.523512 
L 143.627685 232.859742 
L 148.700412 243.374039 
L 153.773139 254.750261 
L 163.918594 278.866108 
L 168.991321 291.021789 
L 174.064048 302.875893 
L 179.136776 314.173231 
L 184.209503 324.677299 
L 189.28223 334.172003 
L 194.354957 342.463551 
L 199.427685 349.382183 
L 204.500412 354.783243 
L 209.573139 358.548903 
L 214.645866 360.588413 
L 219.718594 360.839169 
L 224.791321 359.266632 
L 229.864048 355.864656 
L 234.936776 350.654751 
L 240.009503 343.685582 
L 245.08223 335.032072 
L 250.154957 324.793749 
L 255.227685 313.093352 
L 260.300412 300.075016 
L 265.373139 285.901751 
L 270.445866 270.753567 
L 275.518594 254.824485 
L 285.664048 221.454037 
L 295.809503 187.518753 
L 300.88223 170.893114 
L 305.954957 154.787435 
L 311.027685 139.413295 
L 316.100412 124.972945 
L 321.173139 111.656469 
L 326.245866 99.639364 
L 331.318594 89.080259 
L 336.391321 80.118359 
L 341.464048 72.872213 
L 346.536776 67.437572 
L 351.609503 63.886571 
L 356.68223 62.266406 
L 361.754957 62.598924 
L 366.827685 64.880546 
L 371.900412 69.081766 
L 376.973139 75.135208 
L 382.045866 82.94963 
L 387.118594 92.423845 
L 392.191321 103.434694 
L 397.264048 115.838691 
L 402.336776 129.474037 
L 407.409503 144.162762 
L 412.48223 159.713063 
L 417.554957 175.921894 
L 427.700412 209.462933 
L 437.845866 243.041212 
L 442.918594 259.29674 
L 447.991321 274.912672 
L 453.064048 289.686163 
L 458.136776 303.425719 
L 463.209503 315.953451 
L 468.28223 327.107908 
L 473.354957 336.745615 
L 478.427685 344.743414 
L 483.500412 350.999806 
L 488.573139 355.436325 
L 493.645866 357.998786 
L 498.718594 358.657527 
L 503.791321 357.408246 
L 508.864048 354.271738 
L 513.936776 349.293729 
L 519.009503 342.544223 
L 524.08223 334.116606 
L 529.154957 324.126311 
L 534.227685 312.709288 
L 539.300412 300.020211 
L 544.373139 286.230552 
L 549.445866 271.5261 
L 554.518594 256.104589 
L 564.664048 223.945186 
L 574.809503 191.470594 
L 579.88223 175.658292 
L 584.954957 160.41268 
L 590.027685 145.93735 
L 595.100412 132.425484 
L 600.173139 120.057318 
L 605.245866 108.997705 
L 610.318594 99.394037 
L 615.391321 91.374173 
L 620.464048 85.044683 
L 625.536776 80.489562 
L 630.609503 77.77209 
L 635.68223 76.931343 
L 640.754957 77.978892 
L 645.827685 80.90124 
L 650.900412 85.660579 
L 655.973139 92.19469 
L 661.045866 100.41827 
L 666.118594 110.223433 
L 671.191321 121.481758 
L 676.264048 134.045344 
L 681.336776 147.749009 
L 686.409503 162.412427 
L 691.48223 177.842307 
L 701.627685 210.178801 
L 711.773139 243.051337 
L 716.845866 259.142486 
L 721.918594 274.715362 
L 726.991321 289.56057 
L 732.064048 303.477243 
L 737.136776 316.275647 
L 742.209503 327.779306 
L 747.28223 337.827384 
L 752.354957 346.27667 
L 757.427685 353.002975 
L 762.500412 357.902668 
L 767.573139 360.893942 
L 772.645866 361.917353 
L 777.718594 360.93645 
L 782.791321 357.937966 
L 787.864048 352.931441 
L 792.936776 345.948806 
L 798.009503 337.043292 
L 803.08223 326.288566 
L 808.154957 313.776696 
L 813.227685 299.616508 
L 818.300412 283.931523 
L 823.373139 266.857208 
L 828.445866 248.538426 
L 833.518594 229.126373 
L 838.591321 208.775447 
L 843.664048 187.639849 
L 848.736776 165.870026 
L 858.88223 120.988759 
L 874.100412 52.041332 
L 879.173139 28.942076 
L 879.173139 28.942076 
" style="fill:none;stroke:#ff0000;stroke-linecap:square;stroke-width:3;"/>
   </g>
   <g id="patch_3">
    <path d="M 80.218594 450.72 
L 80.218594 7.2 
" style="fill:none;stroke:#000000;stroke-linecap:square;stroke-linejoin:miter;stroke-width:0.8;"/>
   </g>
   <g id="patch_4">
    <path d="M 917.218594 450.72 
L 917.218594 7.2 
" style="fill:none;stroke:#000000;stroke-linecap:square;stroke-linejoin:miter;stroke-width:0.8;"/>
   </g>
   <g id="patch_5">
    <path d="M 80.218594 450.72 
L 917.218594 450.72 
" style="fill:none;stroke:#000000;stroke-linecap:square;stroke-linejoin:miter;stroke-width:0.8;"/>
   </g>
   <g id="patch_6">
    <path d="M 80.218594 7.2 
L 917.218594 7.2 
" style="fill:none;stroke:#000000;stroke-linecap:square;stroke-linejoin:miter;stroke-width:0.8;"/>
   </g>
   <g id="legend_1">
    <g id="patch_7">
     <path d="M 95.618594 439.72 
L 389.428594 439.72 
Q 393.828594 439.72 393.828594 435.32 
L 393.828594 340.644375 
Q 393.828594 336.244375 389.428594 336.244375 
L 95.618594 336.244375 
Q 91.218594 336.244375 91.218594 340.644375 
L 91.218594 435.32 
Q 91.218594 439.72 95.618594 439.72 
z
" style="fill:#ffffff;opacity:0.8;stroke:#cccccc;stroke-linejoin:miter;"/>
    </g>
    <g id="line2d_17"/>
    <g id="line2d_18">
     <g>
      <use style="stroke:#000000;stroke-linejoin:miter;" x="122.018594" xlink:href="#m0001a662ec" y="354.060938"/>
     </g>
    </g>
    <g id="text_16">
     <!-- Reference FEM -->
     <g transform="translate(161.618594 361.760938)scale(0.22 -0.22)">
      <defs>
       <path d="M 44.390625 34.1875 
Q 47.5625 33.109375 50.5625 29.59375 
Q 53.5625 26.078125 56.59375 19.921875 
L 66.609375 0 
L 56 0 
L 46.6875 18.703125 
Q 43.0625 26.03125 39.671875 28.421875 
Q 36.28125 30.8125 30.421875 30.8125 
L 19.671875 30.8125 
L 19.671875 0 
L 9.8125 0 
L 9.8125 72.90625 
L 32.078125 72.90625 
Q 44.578125 72.90625 50.734375 67.671875 
Q 56.890625 62.453125 56.890625 51.90625 
Q 56.890625 45.015625 53.6875 40.46875 
Q 50.484375 35.9375 44.390625 34.1875 
z
M 19.671875 64.796875 
L 19.671875 38.921875 
L 32.078125 38.921875 
Q 39.203125 38.921875 42.84375 42.21875 
Q 46.484375 45.515625 46.484375 51.90625 
Q 46.484375 58.296875 42.84375 61.546875 
Q 39.203125 64.796875 32.078125 64.796875 
z
" id="DejaVuSans-82"/>
       <path d="M 37.109375 75.984375 
L 37.109375 68.5 
L 28.515625 68.5 
Q 23.6875 68.5 21.796875 66.546875 
Q 19.921875 64.59375 19.921875 59.515625 
L 19.921875 54.6875 
L 34.71875 54.6875 
L 34.71875 47.703125 
L 19.921875 47.703125 
L 19.921875 0 
L 10.890625 0 
L 10.890625 47.703125 
L 2.296875 47.703125 
L 2.296875 54.6875 
L 10.890625 54.6875 
L 10.890625 58.5 
Q 10.890625 67.625 15.140625 71.796875 
Q 19.390625 75.984375 28.609375 75.984375 
z
" id="DejaVuSans-102"/>
       <path d="M 41.109375 46.296875 
Q 39.59375 47.171875 37.8125 47.578125 
Q 36.03125 48 33.890625 48 
Q 26.265625 48 22.1875 43.046875 
Q 18.109375 38.09375 18.109375 28.8125 
L 18.109375 0 
L 9.078125 0 
L 9.078125 54.6875 
L 18.109375 54.6875 
L 18.109375 46.1875 
Q 20.953125 51.171875 25.484375 53.578125 
Q 30.03125 56 36.53125 56 
Q 37.453125 56 38.578125 55.875 
Q 39.703125 55.765625 41.0625 55.515625 
z
" id="DejaVuSans-114"/>
       <path d="M 48.78125 52.59375 
L 48.78125 44.1875 
Q 44.96875 46.296875 41.140625 47.34375 
Q 37.3125 48.390625 33.40625 48.390625 
Q 24.65625 48.390625 19.8125 42.84375 
Q 14.984375 37.3125 14.984375 27.296875 
Q 14.984375 17.28125 19.8125 11.734375 
Q 24.65625 6.203125 33.40625 6.203125 
Q 37.3125 6.203125 41.140625 7.25 
Q 44.96875 8.296875 48.78125 10.40625 
L 48.78125 2.09375 
Q 45.015625 0.34375 40.984375 -0.53125 
Q 36.96875 -1.421875 32.421875 -1.421875 
Q 20.0625 -1.421875 12.78125 6.34375 
Q 5.515625 14.109375 5.515625 27.296875 
Q 5.515625 40.671875 12.859375 48.328125 
Q 20.21875 56 33.015625 56 
Q 37.15625 56 41.109375 55.140625 
Q 45.0625 54.296875 48.78125 52.59375 
z
" id="DejaVuSans-99"/>
       <path d="M 9.8125 72.90625 
L 51.703125 72.90625 
L 51.703125 64.59375 
L 19.671875 64.59375 
L 19.671875 43.109375 
L 48.578125 43.109375 
L 48.578125 34.8125 
L 19.671875 34.8125 
L 19.671875 0 
L 9.8125 0 
z
" id="DejaVuSans-70"/>
       <path d="M 9.8125 72.90625 
L 55.90625 72.90625 
L 55.90625 64.59375 
L 19.671875 64.59375 
L 19.671875 43.015625 
L 54.390625 43.015625 
L 54.390625 34.71875 
L 19.671875 34.71875 
L 19.671875 8.296875 
L 56.78125 8.296875 
L 56.78125 0 
L 9.8125 0 
z
" id="DejaVuSans-69"/>
       <path d="M 9.8125 72.90625 
L 24.515625 72.90625 
L 43.109375 23.296875 
L 61.8125 72.90625 
L 76.515625 72.90625 
L 76.515625 0 
L 66.890625 0 
L 66.890625 64.015625 
L 48.09375 14.015625 
L 38.1875 14.015625 
L 19.390625 64.015625 
L 19.390625 0 
L 9.8125 0 
z
" id="DejaVuSans-77"/>
      </defs>
      <use xlink:href="#DejaVuSans-82"/>
      <use x="64.982422" xlink:href="#DejaVuSans-101"/>
      <use x="126.505859" xlink:href="#DejaVuSans-102"/>
      <use x="161.710938" xlink:href="#DejaVuSans-101"/>
      <use x="223.234375" xlink:href="#DejaVuSans-114"/>
      <use x="262.097656" xlink:href="#DejaVuSans-101"/>
      <use x="323.621094" xlink:href="#DejaVuSans-110"/>
      <use x="387" xlink:href="#DejaVuSans-99"/>
      <use x="441.980469" xlink:href="#DejaVuSans-101"/>
      <use x="503.503906" xlink:href="#DejaVuSans-32"/>
      <use x="535.291016" xlink:href="#DejaVuSans-70"/>
      <use x="592.810547" xlink:href="#DejaVuSans-69"/>
      <use x="655.994141" xlink:href="#DejaVuSans-77"/>
     </g>
    </g>
    <g id="line2d_19">
     <path d="M 100.018594 386.352813 
L 144.018594 386.352813 
" style="fill:none;stroke:#0000ff;stroke-linecap:square;stroke-width:3;"/>
    </g>
    <g id="line2d_20"/>
    <g id="text_17">
     <!-- Initial mistuned FEM -->
     <g transform="translate(161.618594 394.052813)scale(0.22 -0.22)">
      <defs>
       <path d="M 9.8125 72.90625 
L 19.671875 72.90625 
L 19.671875 0 
L 9.8125 0 
z
" id="DejaVuSans-73"/>
       <path d="M 44.28125 53.078125 
L 44.28125 44.578125 
Q 40.484375 46.53125 36.375 47.5 
Q 32.28125 48.484375 27.875 48.484375 
Q 21.1875 48.484375 17.84375 46.4375 
Q 14.5 44.390625 14.5 40.28125 
Q 14.5 37.15625 16.890625 35.375 
Q 19.28125 33.59375 26.515625 31.984375 
L 29.59375 31.296875 
Q 39.15625 29.25 43.1875 25.515625 
Q 47.21875 21.78125 47.21875 15.09375 
Q 47.21875 7.46875 41.1875 3.015625 
Q 35.15625 -1.421875 24.609375 -1.421875 
Q 20.21875 -1.421875 15.453125 -0.5625 
Q 10.6875 0.296875 5.421875 2 
L 5.421875 11.28125 
Q 10.40625 8.6875 15.234375 7.390625 
Q 20.0625 6.109375 24.8125 6.109375 
Q 31.15625 6.109375 34.5625 8.28125 
Q 37.984375 10.453125 37.984375 14.40625 
Q 37.984375 18.0625 35.515625 20.015625 
Q 33.0625 21.96875 24.703125 23.78125 
L 21.578125 24.515625 
Q 13.234375 26.265625 9.515625 29.90625 
Q 5.8125 33.546875 5.8125 39.890625 
Q 5.8125 47.609375 11.28125 51.796875 
Q 16.75 56 26.8125 56 
Q 31.78125 56 36.171875 55.265625 
Q 40.578125 54.546875 44.28125 53.078125 
z
" id="DejaVuSans-115"/>
      </defs>
      <use xlink:href="#DejaVuSans-73"/>
      <use x="29.492188" xlink:href="#DejaVuSans-110"/>
      <use x="92.871094" xlink:href="#DejaVuSans-105"/>
      <use x="120.654297" xlink:href="#DejaVuSans-116"/>
      <use x="159.863281" xlink:href="#DejaVuSans-105"/>
      <use x="187.646484" xlink:href="#DejaVuSans-97"/>
      <use x="248.925781" xlink:href="#DejaVuSans-108"/>
      <use x="276.708984" xlink:href="#DejaVuSans-32"/>
      <use x="308.496094" xlink:href="#DejaVuSans-109"/>
      <use x="405.908203" xlink:href="#DejaVuSans-105"/>
      <use x="433.691406" xlink:href="#DejaVuSans-115"/>
      <use x="485.791016" xlink:href="#DejaVuSans-116"/>
      <use x="525" xlink:href="#DejaVuSans-117"/>
      <use x="588.378906" xlink:href="#DejaVuSans-110"/>
      <use x="651.757812" xlink:href="#DejaVuSans-101"/>
      <use x="713.28125" xlink:href="#DejaVuSans-100"/>
      <use x="776.757812" xlink:href="#DejaVuSans-32"/>
      <use x="808.544922" xlink:href="#DejaVuSans-70"/>
      <use x="866.064453" xlink:href="#DejaVuSans-69"/>
      <use x="929.248047" xlink:href="#DejaVuSans-77"/>
     </g>
    </g>
    <g id="line2d_21">
     <path d="M 100.018594 418.644688 
L 144.018594 418.644688 
" style="fill:none;stroke:#ff0000;stroke-linecap:square;stroke-width:3;"/>
    </g>
    <g id="line2d_22"/>
    <g id="text_18">
     <!-- Converged FEM -->
     <g transform="translate(161.618594 426.344688)scale(0.22 -0.22)">
      <defs>
       <path d="M 64.40625 67.28125 
L 64.40625 56.890625 
Q 59.421875 61.53125 53.78125 63.8125 
Q 48.140625 66.109375 41.796875 66.109375 
Q 29.296875 66.109375 22.65625 58.46875 
Q 16.015625 50.828125 16.015625 36.375 
Q 16.015625 21.96875 22.65625 14.328125 
Q 29.296875 6.6875 41.796875 6.6875 
Q 48.140625 6.6875 53.78125 8.984375 
Q 59.421875 11.28125 64.40625 15.921875 
L 64.40625 5.609375 
Q 59.234375 2.09375 53.4375 0.328125 
Q 47.65625 -1.421875 41.21875 -1.421875 
Q 24.65625 -1.421875 15.125 8.703125 
Q 5.609375 18.84375 5.609375 36.375 
Q 5.609375 53.953125 15.125 64.078125 
Q 24.65625 74.21875 41.21875 74.21875 
Q 47.75 74.21875 53.53125 72.484375 
Q 59.328125 70.75 64.40625 67.28125 
z
" id="DejaVuSans-67"/>
       <path d="M 30.609375 48.390625 
Q 23.390625 48.390625 19.1875 42.75 
Q 14.984375 37.109375 14.984375 27.296875 
Q 14.984375 17.484375 19.15625 11.84375 
Q 23.34375 6.203125 30.609375 6.203125 
Q 37.796875 6.203125 41.984375 11.859375 
Q 46.1875 17.53125 46.1875 27.296875 
Q 46.1875 37.015625 41.984375 42.703125 
Q 37.796875 48.390625 30.609375 48.390625 
z
M 30.609375 56 
Q 42.328125 56 49.015625 48.375 
Q 55.71875 40.765625 55.71875 27.296875 
Q 55.71875 13.875 49.015625 6.21875 
Q 42.328125 -1.421875 30.609375 -1.421875 
Q 18.84375 -1.421875 12.171875 6.21875 
Q 5.515625 13.875 5.515625 27.296875 
Q 5.515625 40.765625 12.171875 48.375 
Q 18.84375 56 30.609375 56 
z
" id="DejaVuSans-111"/>
       <path d="M 2.984375 54.6875 
L 12.5 54.6875 
L 29.59375 8.796875 
L 46.6875 54.6875 
L 56.203125 54.6875 
L 35.6875 0 
L 23.484375 0 
z
" id="DejaVuSans-118"/>
      </defs>
      <use xlink:href="#DejaVuSans-67"/>
      <use x="69.824219" xlink:href="#DejaVuSans-111"/>
      <use x="131.005859" xlink:href="#DejaVuSans-110"/>
      <use x="194.384766" xlink:href="#DejaVuSans-118"/>
      <use x="253.564453" xlink:href="#DejaVuSans-101"/>
      <use x="315.087891" xlink:href="#DejaVuSans-114"/>
      <use x="354.451172" xlink:href="#DejaVuSans-103"/>
      <use x="417.927734" xlink:href="#DejaVuSans-101"/>
      <use x="479.451172" xlink:href="#DejaVuSans-100"/>
      <use x="542.927734" xlink:href="#DejaVuSans-32"/>
      <use x="574.714844" xlink:href="#DejaVuSans-70"/>
      <use x="632.234375" xlink:href="#DejaVuSans-69"/>
      <use x="695.417969" xlink:href="#DejaVuSans-77"/>
     </g>
    </g>
   </g>
  </g>
 </g>
 <defs>
  <clipPath id="pfca2fa91e5">
   <rect height="443.52" width="837" x="80.218594" y="7.2"/>
  </clipPath>
 </defs>
</svg>
