<?xml version="1.0" encoding="utf-8" standalone="no"?>
<!DOCTYPE svg PUBLIC "-//W3C//DTD SVG 1.1//EN"
  "http://www.w3.org/Graphics/SVG/1.1/DTD/svg11.dtd">
<!-- Created with matplotlib (https://matplotlib.org/) -->
<svg height="518.278437pt" version="1.1" viewBox="0 0 948.270156 518.278437" width="948.270156pt" xmlns="http://www.w3.org/2000/svg" xmlns:xlink="http://www.w3.org/1999/xlink">
 <metadata>
  <rdf:RDF xmlns:cc="http://creativecommons.org/ns#" xmlns:dc="http://purl.org/dc/elements/1.1/" xmlns:rdf="http://www.w3.org/1999/02/22-rdf-syntax-ns#">
   <cc:Work>
    <dc:type rdf:resource="http://purl.org/dc/dcmitype/StillImage"/>
    <dc:date>2021-12-02T19:24:10.118911</dc:date>
    <dc:format>image/svg+xml</dc:format>
    <dc:creator>
     <cc:Agent>
      <dc:title>Matplotlib v3.3.4, https://matplotlib.org/</dc:title>
     </cc:Agent>
    </dc:creator>
   </cc:Work>
  </rdf:RDF>
 </metadata>
 <defs>
  <style type="text/css">*{stroke-linecap:butt;stroke-linejoin:round;}</style>
 </defs>
 <g id="figure_1">
  <g id="patch_1">
   <path d="M 0 518.278437 
L 948.270156 518.278437 
L 948.270156 0 
L 0 0 
z
" style="fill:#ffffff;"/>
  </g>
  <g id="axes_1">
   <g id="patch_2">
    <path d="M 104.070156 450.72 
L 941.070156 450.72 
L 941.070156 7.2 
L 104.070156 7.2 
z
" style="fill:#ffffff;"/>
   </g>
   <g id="matplotlib.axis_1">
    <g id="xtick_1">
     <g id="line2d_1">
      <defs>
       <path d="M 0 0 
L 0 3.5 
" id="m942f4e5c91" style="stroke:#000000;stroke-width:0.8;"/>
      </defs>
      <g>
       <use style="stroke:#000000;stroke-width:0.8;" x="142.115611" xlink:href="#m942f4e5c91" y="450.72"/>
      </g>
     </g>
     <g id="text_1">
      <!-- 0.0 -->
      <g transform="translate(122.236705 476.716094)scale(0.25 -0.25)">
       <defs>
        <path d="M 31.78125 66.40625 
Q 24.171875 66.40625 20.328125 58.90625 
Q 16.5 51.421875 16.5 36.375 
Q 16.5 21.390625 20.328125 13.890625 
Q 24.171875 6.390625 31.78125 6.390625 
Q 39.453125 6.390625 43.28125 13.890625 
Q 47.125 21.390625 47.125 36.375 
Q 47.125 51.421875 43.28125 58.90625 
Q 39.453125 66.40625 31.78125 66.40625 
z
M 31.78125 74.21875 
Q 44.046875 74.21875 50.515625 64.515625 
Q 56.984375 54.828125 56.984375 36.375 
Q 56.984375 17.96875 50.515625 8.265625 
Q 44.046875 -1.421875 31.78125 -1.421875 
Q 19.53125 -1.421875 13.0625 8.265625 
Q 6.59375 17.96875 6.59375 36.375 
Q 6.59375 54.828125 13.0625 64.515625 
Q 19.53125 74.21875 31.78125 74.21875 
z
" id="DejaVuSans-48"/>
        <path d="M 10.6875 12.40625 
L 21 12.40625 
L 21 0 
L 10.6875 0 
z
" id="DejaVuSans-46"/>
       </defs>
       <use xlink:href="#DejaVuSans-48"/>
       <use x="63.623047" xlink:href="#DejaVuSans-46"/>
       <use x="95.410156" xlink:href="#DejaVuSans-48"/>
      </g>
     </g>
    </g>
    <g id="xtick_2">
     <g id="line2d_2">
      <g>
       <use style="stroke:#000000;stroke-width:0.8;" x="243.570156" xlink:href="#m942f4e5c91" y="450.72"/>
      </g>
     </g>
     <g id="text_2">
      <!-- 0.2 -->
      <g transform="translate(223.69125 476.716094)scale(0.25 -0.25)">
       <defs>
        <path d="M 19.1875 8.296875 
L 53.609375 8.296875 
L 53.609375 0 
L 7.328125 0 
L 7.328125 8.296875 
Q 12.9375 14.109375 22.625 23.890625 
Q 32.328125 33.6875 34.8125 36.53125 
Q 39.546875 41.84375 41.421875 45.53125 
Q 43.3125 49.21875 43.3125 52.78125 
Q 43.3125 58.59375 39.234375 62.25 
Q 35.15625 65.921875 28.609375 65.921875 
Q 23.96875 65.921875 18.8125 64.3125 
Q 13.671875 62.703125 7.8125 59.421875 
L 7.8125 69.390625 
Q 13.765625 71.78125 18.9375 73 
Q 24.125 74.21875 28.421875 74.21875 
Q 39.75 74.21875 46.484375 68.546875 
Q 53.21875 62.890625 53.21875 53.421875 
Q 53.21875 48.921875 51.53125 44.890625 
Q 49.859375 40.875 45.40625 35.40625 
Q 44.1875 33.984375 37.640625 27.21875 
Q 31.109375 20.453125 19.1875 8.296875 
z
" id="DejaVuSans-50"/>
       </defs>
       <use xlink:href="#DejaVuSans-48"/>
       <use x="63.623047" xlink:href="#DejaVuSans-46"/>
       <use x="95.410156" xlink:href="#DejaVuSans-50"/>
      </g>
     </g>
    </g>
    <g id="xtick_3">
     <g id="line2d_3">
      <g>
       <use style="stroke:#000000;stroke-width:0.8;" x="345.024702" xlink:href="#m942f4e5c91" y="450.72"/>
      </g>
     </g>
     <g id="text_3">
      <!-- 0.4 -->
      <g transform="translate(325.145795 476.716094)scale(0.25 -0.25)">
       <defs>
        <path d="M 37.796875 64.3125 
L 12.890625 25.390625 
L 37.796875 25.390625 
z
M 35.203125 72.90625 
L 47.609375 72.90625 
L 47.609375 25.390625 
L 58.015625 25.390625 
L 58.015625 17.1875 
L 47.609375 17.1875 
L 47.609375 0 
L 37.796875 0 
L 37.796875 17.1875 
L 4.890625 17.1875 
L 4.890625 26.703125 
z
" id="DejaVuSans-52"/>
       </defs>
       <use xlink:href="#DejaVuSans-48"/>
       <use x="63.623047" xlink:href="#DejaVuSans-46"/>
       <use x="95.410156" xlink:href="#DejaVuSans-52"/>
      </g>
     </g>
    </g>
    <g id="xtick_4">
     <g id="line2d_4">
      <g>
       <use style="stroke:#000000;stroke-width:0.8;" x="446.479247" xlink:href="#m942f4e5c91" y="450.72"/>
      </g>
     </g>
     <g id="text_4">
      <!-- 0.6 -->
      <g transform="translate(426.600341 476.716094)scale(0.25 -0.25)">
       <defs>
        <path d="M 33.015625 40.375 
Q 26.375 40.375 22.484375 35.828125 
Q 18.609375 31.296875 18.609375 23.390625 
Q 18.609375 15.53125 22.484375 10.953125 
Q 26.375 6.390625 33.015625 6.390625 
Q 39.65625 6.390625 43.53125 10.953125 
Q 47.40625 15.53125 47.40625 23.390625 
Q 47.40625 31.296875 43.53125 35.828125 
Q 39.65625 40.375 33.015625 40.375 
z
M 52.59375 71.296875 
L 52.59375 62.3125 
Q 48.875 64.0625 45.09375 64.984375 
Q 41.3125 65.921875 37.59375 65.921875 
Q 27.828125 65.921875 22.671875 59.328125 
Q 17.53125 52.734375 16.796875 39.40625 
Q 19.671875 43.65625 24.015625 45.921875 
Q 28.375 48.1875 33.59375 48.1875 
Q 44.578125 48.1875 50.953125 41.515625 
Q 57.328125 34.859375 57.328125 23.390625 
Q 57.328125 12.15625 50.6875 5.359375 
Q 44.046875 -1.421875 33.015625 -1.421875 
Q 20.359375 -1.421875 13.671875 8.265625 
Q 6.984375 17.96875 6.984375 36.375 
Q 6.984375 53.65625 15.1875 63.9375 
Q 23.390625 74.21875 37.203125 74.21875 
Q 40.921875 74.21875 44.703125 73.484375 
Q 48.484375 72.75 52.59375 71.296875 
z
" id="DejaVuSans-54"/>
       </defs>
       <use xlink:href="#DejaVuSans-48"/>
       <use x="63.623047" xlink:href="#DejaVuSans-46"/>
       <use x="95.410156" xlink:href="#DejaVuSans-54"/>
      </g>
     </g>
    </g>
    <g id="xtick_5">
     <g id="line2d_5">
      <g>
       <use style="stroke:#000000;stroke-width:0.8;" x="547.933793" xlink:href="#m942f4e5c91" y="450.72"/>
      </g>
     </g>
     <g id="text_5">
      <!-- 0.8 -->
      <g transform="translate(528.054886 476.716094)scale(0.25 -0.25)">
       <defs>
        <path d="M 31.78125 34.625 
Q 24.75 34.625 20.71875 30.859375 
Q 16.703125 27.09375 16.703125 20.515625 
Q 16.703125 13.921875 20.71875 10.15625 
Q 24.75 6.390625 31.78125 6.390625 
Q 38.8125 6.390625 42.859375 10.171875 
Q 46.921875 13.96875 46.921875 20.515625 
Q 46.921875 27.09375 42.890625 30.859375 
Q 38.875 34.625 31.78125 34.625 
z
M 21.921875 38.8125 
Q 15.578125 40.375 12.03125 44.71875 
Q 8.5 49.078125 8.5 55.328125 
Q 8.5 64.0625 14.71875 69.140625 
Q 20.953125 74.21875 31.78125 74.21875 
Q 42.671875 74.21875 48.875 69.140625 
Q 55.078125 64.0625 55.078125 55.328125 
Q 55.078125 49.078125 51.53125 44.71875 
Q 48 40.375 41.703125 38.8125 
Q 48.828125 37.15625 52.796875 32.3125 
Q 56.78125 27.484375 56.78125 20.515625 
Q 56.78125 9.90625 50.3125 4.234375 
Q 43.84375 -1.421875 31.78125 -1.421875 
Q 19.734375 -1.421875 13.25 4.234375 
Q 6.78125 9.90625 6.78125 20.515625 
Q 6.78125 27.484375 10.78125 32.3125 
Q 14.796875 37.15625 21.921875 38.8125 
z
M 18.3125 54.390625 
Q 18.3125 48.734375 21.84375 45.5625 
Q 25.390625 42.390625 31.78125 42.390625 
Q 38.140625 42.390625 41.71875 45.5625 
Q 45.3125 48.734375 45.3125 54.390625 
Q 45.3125 60.0625 41.71875 63.234375 
Q 38.140625 66.40625 31.78125 66.40625 
Q 25.390625 66.40625 21.84375 63.234375 
Q 18.3125 60.0625 18.3125 54.390625 
z
" id="DejaVuSans-56"/>
       </defs>
       <use xlink:href="#DejaVuSans-48"/>
       <use x="63.623047" xlink:href="#DejaVuSans-46"/>
       <use x="95.410156" xlink:href="#DejaVuSans-56"/>
      </g>
     </g>
    </g>
    <g id="xtick_6">
     <g id="line2d_6">
      <g>
       <use style="stroke:#000000;stroke-width:0.8;" x="649.388338" xlink:href="#m942f4e5c91" y="450.72"/>
      </g>
     </g>
     <g id="text_6">
      <!-- 1.0 -->
      <g transform="translate(629.509432 476.716094)scale(0.25 -0.25)">
       <defs>
        <path d="M 12.40625 8.296875 
L 28.515625 8.296875 
L 28.515625 63.921875 
L 10.984375 60.40625 
L 10.984375 69.390625 
L 28.421875 72.90625 
L 38.28125 72.90625 
L 38.28125 8.296875 
L 54.390625 8.296875 
L 54.390625 0 
L 12.40625 0 
z
" id="DejaVuSans-49"/>
       </defs>
       <use xlink:href="#DejaVuSans-49"/>
       <use x="63.623047" xlink:href="#DejaVuSans-46"/>
       <use x="95.410156" xlink:href="#DejaVuSans-48"/>
      </g>
     </g>
    </g>
    <g id="xtick_7">
     <g id="line2d_7">
      <g>
       <use style="stroke:#000000;stroke-width:0.8;" x="750.842884" xlink:href="#m942f4e5c91" y="450.72"/>
      </g>
     </g>
     <g id="text_7">
      <!-- 1.2 -->
      <g transform="translate(730.963977 476.716094)scale(0.25 -0.25)">
       <use xlink:href="#DejaVuSans-49"/>
       <use x="63.623047" xlink:href="#DejaVuSans-46"/>
       <use x="95.410156" xlink:href="#DejaVuSans-50"/>
      </g>
     </g>
    </g>
    <g id="xtick_8">
     <g id="line2d_8">
      <g>
       <use style="stroke:#000000;stroke-width:0.8;" x="852.297429" xlink:href="#m942f4e5c91" y="450.72"/>
      </g>
     </g>
     <g id="text_8">
      <!-- 1.4 -->
      <g transform="translate(832.418523 476.716094)scale(0.25 -0.25)">
       <use xlink:href="#DejaVuSans-49"/>
       <use x="63.623047" xlink:href="#DejaVuSans-46"/>
       <use x="95.410156" xlink:href="#DejaVuSans-52"/>
      </g>
     </g>
    </g>
    <g id="text_9">
     <!-- Beam Length [m] -->
     <g transform="translate(409.110625 505.67125)scale(0.26 -0.26)">
      <defs>
       <path d="M 19.671875 34.8125 
L 19.671875 8.109375 
L 35.5 8.109375 
Q 43.453125 8.109375 47.28125 11.40625 
Q 51.125 14.703125 51.125 21.484375 
Q 51.125 28.328125 47.28125 31.5625 
Q 43.453125 34.8125 35.5 34.8125 
z
M 19.671875 64.796875 
L 19.671875 42.828125 
L 34.28125 42.828125 
Q 41.5 42.828125 45.03125 45.53125 
Q 48.578125 48.25 48.578125 53.8125 
Q 48.578125 59.328125 45.03125 62.0625 
Q 41.5 64.796875 34.28125 64.796875 
z
M 9.8125 72.90625 
L 35.015625 72.90625 
Q 46.296875 72.90625 52.390625 68.21875 
Q 58.5 63.53125 58.5 54.890625 
Q 58.5 48.1875 55.375 44.234375 
Q 52.25 40.28125 46.1875 39.3125 
Q 53.46875 37.75 57.5 32.78125 
Q 61.53125 27.828125 61.53125 20.40625 
Q 61.53125 10.640625 54.890625 5.3125 
Q 48.25 0 35.984375 0 
L 9.8125 0 
z
" id="DejaVuSans-66"/>
       <path d="M 56.203125 29.59375 
L 56.203125 25.203125 
L 14.890625 25.203125 
Q 15.484375 15.921875 20.484375 11.0625 
Q 25.484375 6.203125 34.421875 6.203125 
Q 39.59375 6.203125 44.453125 7.46875 
Q 49.3125 8.734375 54.109375 11.28125 
L 54.109375 2.78125 
Q 49.265625 0.734375 44.1875 -0.34375 
Q 39.109375 -1.421875 33.890625 -1.421875 
Q 20.796875 -1.421875 13.15625 6.1875 
Q 5.515625 13.8125 5.515625 26.8125 
Q 5.515625 40.234375 12.765625 48.109375 
Q 20.015625 56 32.328125 56 
Q 43.359375 56 49.78125 48.890625 
Q 56.203125 41.796875 56.203125 29.59375 
z
M 47.21875 32.234375 
Q 47.125 39.59375 43.09375 43.984375 
Q 39.0625 48.390625 32.421875 48.390625 
Q 24.90625 48.390625 20.390625 44.140625 
Q 15.875 39.890625 15.1875 32.171875 
z
" id="DejaVuSans-101"/>
       <path d="M 34.28125 27.484375 
Q 23.390625 27.484375 19.1875 25 
Q 14.984375 22.515625 14.984375 16.5 
Q 14.984375 11.71875 18.140625 8.90625 
Q 21.296875 6.109375 26.703125 6.109375 
Q 34.1875 6.109375 38.703125 11.40625 
Q 43.21875 16.703125 43.21875 25.484375 
L 43.21875 27.484375 
z
M 52.203125 31.203125 
L 52.203125 0 
L 43.21875 0 
L 43.21875 8.296875 
Q 40.140625 3.328125 35.546875 0.953125 
Q 30.953125 -1.421875 24.3125 -1.421875 
Q 15.921875 -1.421875 10.953125 3.296875 
Q 6 8.015625 6 15.921875 
Q 6 25.140625 12.171875 29.828125 
Q 18.359375 34.515625 30.609375 34.515625 
L 43.21875 34.515625 
L 43.21875 35.40625 
Q 43.21875 41.609375 39.140625 45 
Q 35.0625 48.390625 27.6875 48.390625 
Q 23 48.390625 18.546875 47.265625 
Q 14.109375 46.140625 10.015625 43.890625 
L 10.015625 52.203125 
Q 14.9375 54.109375 19.578125 55.046875 
Q 24.21875 56 28.609375 56 
Q 40.484375 56 46.34375 49.84375 
Q 52.203125 43.703125 52.203125 31.203125 
z
" id="DejaVuSans-97"/>
       <path d="M 52 44.1875 
Q 55.375 50.25 60.0625 53.125 
Q 64.75 56 71.09375 56 
Q 79.640625 56 84.28125 50.015625 
Q 88.921875 44.046875 88.921875 33.015625 
L 88.921875 0 
L 79.890625 0 
L 79.890625 32.71875 
Q 79.890625 40.578125 77.09375 44.375 
Q 74.3125 48.1875 68.609375 48.1875 
Q 61.625 48.1875 57.5625 43.546875 
Q 53.515625 38.921875 53.515625 30.90625 
L 53.515625 0 
L 44.484375 0 
L 44.484375 32.71875 
Q 44.484375 40.625 41.703125 44.40625 
Q 38.921875 48.1875 33.109375 48.1875 
Q 26.21875 48.1875 22.15625 43.53125 
Q 18.109375 38.875 18.109375 30.90625 
L 18.109375 0 
L 9.078125 0 
L 9.078125 54.6875 
L 18.109375 54.6875 
L 18.109375 46.1875 
Q 21.1875 51.21875 25.484375 53.609375 
Q 29.78125 56 35.6875 56 
Q 41.65625 56 45.828125 52.96875 
Q 50 49.953125 52 44.1875 
z
" id="DejaVuSans-109"/>
       <path id="DejaVuSans-32"/>
       <path d="M 9.8125 72.90625 
L 19.671875 72.90625 
L 19.671875 8.296875 
L 55.171875 8.296875 
L 55.171875 0 
L 9.8125 0 
z
" id="DejaVuSans-76"/>
       <path d="M 54.890625 33.015625 
L 54.890625 0 
L 45.90625 0 
L 45.90625 32.71875 
Q 45.90625 40.484375 42.875 44.328125 
Q 39.84375 48.1875 33.796875 48.1875 
Q 26.515625 48.1875 22.3125 43.546875 
Q 18.109375 38.921875 18.109375 30.90625 
L 18.109375 0 
L 9.078125 0 
L 9.078125 54.6875 
L 18.109375 54.6875 
L 18.109375 46.1875 
Q 21.34375 51.125 25.703125 53.5625 
Q 30.078125 56 35.796875 56 
Q 45.21875 56 50.046875 50.171875 
Q 54.890625 44.34375 54.890625 33.015625 
z
" id="DejaVuSans-110"/>
       <path d="M 45.40625 27.984375 
Q 45.40625 37.75 41.375 43.109375 
Q 37.359375 48.484375 30.078125 48.484375 
Q 22.859375 48.484375 18.828125 43.109375 
Q 14.796875 37.75 14.796875 27.984375 
Q 14.796875 18.265625 18.828125 12.890625 
Q 22.859375 7.515625 30.078125 7.515625 
Q 37.359375 7.515625 41.375 12.890625 
Q 45.40625 18.265625 45.40625 27.984375 
z
M 54.390625 6.78125 
Q 54.390625 -7.171875 48.1875 -13.984375 
Q 42 -20.796875 29.203125 -20.796875 
Q 24.46875 -20.796875 20.265625 -20.09375 
Q 16.0625 -19.390625 12.109375 -17.921875 
L 12.109375 -9.1875 
Q 16.0625 -11.328125 19.921875 -12.34375 
Q 23.78125 -13.375 27.78125 -13.375 
Q 36.625 -13.375 41.015625 -8.765625 
Q 45.40625 -4.15625 45.40625 5.171875 
L 45.40625 9.625 
Q 42.625 4.78125 38.28125 2.390625 
Q 33.9375 0 27.875 0 
Q 17.828125 0 11.671875 7.65625 
Q 5.515625 15.328125 5.515625 27.984375 
Q 5.515625 40.671875 11.671875 48.328125 
Q 17.828125 56 27.875 56 
Q 33.9375 56 38.28125 53.609375 
Q 42.625 51.21875 45.40625 46.390625 
L 45.40625 54.6875 
L 54.390625 54.6875 
z
" id="DejaVuSans-103"/>
       <path d="M 18.3125 70.21875 
L 18.3125 54.6875 
L 36.8125 54.6875 
L 36.8125 47.703125 
L 18.3125 47.703125 
L 18.3125 18.015625 
Q 18.3125 11.328125 20.140625 9.421875 
Q 21.96875 7.515625 27.59375 7.515625 
L 36.8125 7.515625 
L 36.8125 0 
L 27.59375 0 
Q 17.1875 0 13.234375 3.875 
Q 9.28125 7.765625 9.28125 18.015625 
L 9.28125 47.703125 
L 2.6875 47.703125 
L 2.6875 54.6875 
L 9.28125 54.6875 
L 9.28125 70.21875 
z
" id="DejaVuSans-116"/>
       <path d="M 54.890625 33.015625 
L 54.890625 0 
L 45.90625 0 
L 45.90625 32.71875 
Q 45.90625 40.484375 42.875 44.328125 
Q 39.84375 48.1875 33.796875 48.1875 
Q 26.515625 48.1875 22.3125 43.546875 
Q 18.109375 38.921875 18.109375 30.90625 
L 18.109375 0 
L 9.078125 0 
L 9.078125 75.984375 
L 18.109375 75.984375 
L 18.109375 46.1875 
Q 21.34375 51.125 25.703125 53.5625 
Q 30.078125 56 35.796875 56 
Q 45.21875 56 50.046875 50.171875 
Q 54.890625 44.34375 54.890625 33.015625 
z
" id="DejaVuSans-104"/>
       <path d="M 8.59375 75.984375 
L 29.296875 75.984375 
L 29.296875 69 
L 17.578125 69 
L 17.578125 -6.203125 
L 29.296875 -6.203125 
L 29.296875 -13.1875 
L 8.59375 -13.1875 
z
" id="DejaVuSans-91"/>
       <path d="M 30.421875 75.984375 
L 30.421875 -13.1875 
L 9.71875 -13.1875 
L 9.71875 -6.203125 
L 21.390625 -6.203125 
L 21.390625 69 
L 9.71875 69 
L 9.71875 75.984375 
z
" id="DejaVuSans-93"/>
      </defs>
      <use xlink:href="#DejaVuSans-66"/>
      <use x="68.603516" xlink:href="#DejaVuSans-101"/>
      <use x="130.126953" xlink:href="#DejaVuSans-97"/>
      <use x="191.40625" xlink:href="#DejaVuSans-109"/>
      <use x="288.818359" xlink:href="#DejaVuSans-32"/>
      <use x="320.605469" xlink:href="#DejaVuSans-76"/>
      <use x="374.568359" xlink:href="#DejaVuSans-101"/>
      <use x="436.091797" xlink:href="#DejaVuSans-110"/>
      <use x="499.470703" xlink:href="#DejaVuSans-103"/>
      <use x="562.947266" xlink:href="#DejaVuSans-116"/>
      <use x="602.15625" xlink:href="#DejaVuSans-104"/>
      <use x="665.535156" xlink:href="#DejaVuSans-32"/>
      <use x="697.322266" xlink:href="#DejaVuSans-91"/>
      <use x="736.335938" xlink:href="#DejaVuSans-109"/>
      <use x="833.748047" xlink:href="#DejaVuSans-93"/>
     </g>
    </g>
   </g>
   <g id="matplotlib.axis_2">
    <g id="ytick_1">
     <g id="line2d_9">
      <defs>
       <path d="M 0 0 
L -3.5 0 
" id="m4790f21a68" style="stroke:#000000;stroke-width:0.8;"/>
      </defs>
      <g>
       <use style="stroke:#000000;stroke-width:0.8;" x="104.070156" xlink:href="#m4790f21a68" y="443.079978"/>
      </g>
     </g>
     <g id="text_10">
      <!-- −2.0 -->
      <g transform="translate(36.363125 452.578025)scale(0.25 -0.25)">
       <defs>
        <path d="M 10.59375 35.5 
L 73.1875 35.5 
L 73.1875 27.203125 
L 10.59375 27.203125 
z
" id="DejaVuSans-8722"/>
       </defs>
       <use xlink:href="#DejaVuSans-8722"/>
       <use x="83.789062" xlink:href="#DejaVuSans-50"/>
       <use x="147.412109" xlink:href="#DejaVuSans-46"/>
       <use x="179.199219" xlink:href="#DejaVuSans-48"/>
      </g>
     </g>
    </g>
    <g id="ytick_2">
     <g id="line2d_10">
      <g>
       <use style="stroke:#000000;stroke-width:0.8;" x="104.070156" xlink:href="#m4790f21a68" y="393.560978"/>
      </g>
     </g>
     <g id="text_11">
      <!-- −1.5 -->
      <g transform="translate(36.363125 403.059025)scale(0.25 -0.25)">
       <defs>
        <path d="M 10.796875 72.90625 
L 49.515625 72.90625 
L 49.515625 64.59375 
L 19.828125 64.59375 
L 19.828125 46.734375 
Q 21.96875 47.46875 24.109375 47.828125 
Q 26.265625 48.1875 28.421875 48.1875 
Q 40.625 48.1875 47.75 41.5 
Q 54.890625 34.8125 54.890625 23.390625 
Q 54.890625 11.625 47.5625 5.09375 
Q 40.234375 -1.421875 26.90625 -1.421875 
Q 22.3125 -1.421875 17.546875 -0.640625 
Q 12.796875 0.140625 7.71875 1.703125 
L 7.71875 11.625 
Q 12.109375 9.234375 16.796875 8.0625 
Q 21.484375 6.890625 26.703125 6.890625 
Q 35.15625 6.890625 40.078125 11.328125 
Q 45.015625 15.765625 45.015625 23.390625 
Q 45.015625 31 40.078125 35.4375 
Q 35.15625 39.890625 26.703125 39.890625 
Q 22.75 39.890625 18.8125 39.015625 
Q 14.890625 38.140625 10.796875 36.28125 
z
" id="DejaVuSans-53"/>
       </defs>
       <use xlink:href="#DejaVuSans-8722"/>
       <use x="83.789062" xlink:href="#DejaVuSans-49"/>
       <use x="147.412109" xlink:href="#DejaVuSans-46"/>
       <use x="179.199219" xlink:href="#DejaVuSans-53"/>
      </g>
     </g>
    </g>
    <g id="ytick_3">
     <g id="line2d_11">
      <g>
       <use style="stroke:#000000;stroke-width:0.8;" x="104.070156" xlink:href="#m4790f21a68" y="344.041978"/>
      </g>
     </g>
     <g id="text_12">
      <!-- −1.0 -->
      <g transform="translate(36.363125 353.540025)scale(0.25 -0.25)">
       <use xlink:href="#DejaVuSans-8722"/>
       <use x="83.789062" xlink:href="#DejaVuSans-49"/>
       <use x="147.412109" xlink:href="#DejaVuSans-46"/>
       <use x="179.199219" xlink:href="#DejaVuSans-48"/>
      </g>
     </g>
    </g>
    <g id="ytick_4">
     <g id="line2d_12">
      <g>
       <use style="stroke:#000000;stroke-width:0.8;" x="104.070156" xlink:href="#m4790f21a68" y="294.522978"/>
      </g>
     </g>
     <g id="text_13">
      <!-- −0.5 -->
      <g transform="translate(36.363125 304.021025)scale(0.25 -0.25)">
       <use xlink:href="#DejaVuSans-8722"/>
       <use x="83.789062" xlink:href="#DejaVuSans-48"/>
       <use x="147.412109" xlink:href="#DejaVuSans-46"/>
       <use x="179.199219" xlink:href="#DejaVuSans-53"/>
      </g>
     </g>
    </g>
    <g id="ytick_5">
     <g id="line2d_13">
      <g>
       <use style="stroke:#000000;stroke-width:0.8;" x="104.070156" xlink:href="#m4790f21a68" y="245.003978"/>
      </g>
     </g>
     <g id="text_14">
      <!-- 0.0 -->
      <g transform="translate(57.312344 254.502025)scale(0.25 -0.25)">
       <use xlink:href="#DejaVuSans-48"/>
       <use x="63.623047" xlink:href="#DejaVuSans-46"/>
       <use x="95.410156" xlink:href="#DejaVuSans-48"/>
      </g>
     </g>
    </g>
    <g id="ytick_6">
     <g id="line2d_14">
      <g>
       <use style="stroke:#000000;stroke-width:0.8;" x="104.070156" xlink:href="#m4790f21a68" y="195.484978"/>
      </g>
     </g>
     <g id="text_15">
      <!-- 0.5 -->
      <g transform="translate(57.312344 204.983025)scale(0.25 -0.25)">
       <use xlink:href="#DejaVuSans-48"/>
       <use x="63.623047" xlink:href="#DejaVuSans-46"/>
       <use x="95.410156" xlink:href="#DejaVuSans-53"/>
      </g>
     </g>
    </g>
    <g id="ytick_7">
     <g id="line2d_15">
      <g>
       <use style="stroke:#000000;stroke-width:0.8;" x="104.070156" xlink:href="#m4790f21a68" y="145.965978"/>
      </g>
     </g>
     <g id="text_16">
      <!-- 1.0 -->
      <g transform="translate(57.312344 155.464025)scale(0.25 -0.25)">
       <use xlink:href="#DejaVuSans-49"/>
       <use x="63.623047" xlink:href="#DejaVuSans-46"/>
       <use x="95.410156" xlink:href="#DejaVuSans-48"/>
      </g>
     </g>
    </g>
    <g id="ytick_8">
     <g id="line2d_16">
      <g>
       <use style="stroke:#000000;stroke-width:0.8;" x="104.070156" xlink:href="#m4790f21a68" y="96.446978"/>
      </g>
     </g>
     <g id="text_17">
      <!-- 1.5 -->
      <g transform="translate(57.312344 105.945024)scale(0.25 -0.25)">
       <use xlink:href="#DejaVuSans-49"/>
       <use x="63.623047" xlink:href="#DejaVuSans-46"/>
       <use x="95.410156" xlink:href="#DejaVuSans-53"/>
      </g>
     </g>
    </g>
    <g id="ytick_9">
     <g id="line2d_17">
      <g>
       <use style="stroke:#000000;stroke-width:0.8;" x="104.070156" xlink:href="#m4790f21a68" y="46.927978"/>
      </g>
     </g>
     <g id="text_18">
      <!-- 2.0 -->
      <g transform="translate(57.312344 56.426024)scale(0.25 -0.25)">
       <use xlink:href="#DejaVuSans-50"/>
       <use x="63.623047" xlink:href="#DejaVuSans-46"/>
       <use x="95.410156" xlink:href="#DejaVuSans-48"/>
      </g>
     </g>
    </g>
    <g id="text_19">
     <!-- Amplitude -->
     <g transform="translate(26.955938 295.578906)rotate(-90)scale(0.26 -0.26)">
      <defs>
       <path d="M 34.1875 63.1875 
L 20.796875 26.90625 
L 47.609375 26.90625 
z
M 28.609375 72.90625 
L 39.796875 72.90625 
L 67.578125 0 
L 57.328125 0 
L 50.6875 18.703125 
L 17.828125 18.703125 
L 11.1875 0 
L 0.78125 0 
z
" id="DejaVuSans-65"/>
       <path d="M 18.109375 8.203125 
L 18.109375 -20.796875 
L 9.078125 -20.796875 
L 9.078125 54.6875 
L 18.109375 54.6875 
L 18.109375 46.390625 
Q 20.953125 51.265625 25.265625 53.625 
Q 29.59375 56 35.59375 56 
Q 45.5625 56 51.78125 48.09375 
Q 58.015625 40.1875 58.015625 27.296875 
Q 58.015625 14.40625 51.78125 6.484375 
Q 45.5625 -1.421875 35.59375 -1.421875 
Q 29.59375 -1.421875 25.265625 0.953125 
Q 20.953125 3.328125 18.109375 8.203125 
z
M 48.6875 27.296875 
Q 48.6875 37.203125 44.609375 42.84375 
Q 40.53125 48.484375 33.40625 48.484375 
Q 26.265625 48.484375 22.1875 42.84375 
Q 18.109375 37.203125 18.109375 27.296875 
Q 18.109375 17.390625 22.1875 11.75 
Q 26.265625 6.109375 33.40625 6.109375 
Q 40.53125 6.109375 44.609375 11.75 
Q 48.6875 17.390625 48.6875 27.296875 
z
" id="DejaVuSans-112"/>
       <path d="M 9.421875 75.984375 
L 18.40625 75.984375 
L 18.40625 0 
L 9.421875 0 
z
" id="DejaVuSans-108"/>
       <path d="M 9.421875 54.6875 
L 18.40625 54.6875 
L 18.40625 0 
L 9.421875 0 
z
M 9.421875 75.984375 
L 18.40625 75.984375 
L 18.40625 64.59375 
L 9.421875 64.59375 
z
" id="DejaVuSans-105"/>
       <path d="M 8.5 21.578125 
L 8.5 54.6875 
L 17.484375 54.6875 
L 17.484375 21.921875 
Q 17.484375 14.15625 20.5 10.265625 
Q 23.53125 6.390625 29.59375 6.390625 
Q 36.859375 6.390625 41.078125 11.03125 
Q 45.3125 15.671875 45.3125 23.6875 
L 45.3125 54.6875 
L 54.296875 54.6875 
L 54.296875 0 
L 45.3125 0 
L 45.3125 8.40625 
Q 42.046875 3.421875 37.71875 1 
Q 33.40625 -1.421875 27.6875 -1.421875 
Q 18.265625 -1.421875 13.375 4.4375 
Q 8.5 10.296875 8.5 21.578125 
z
M 31.109375 56 
z
" id="DejaVuSans-117"/>
       <path d="M 45.40625 46.390625 
L 45.40625 75.984375 
L 54.390625 75.984375 
L 54.390625 0 
L 45.40625 0 
L 45.40625 8.203125 
Q 42.578125 3.328125 38.25 0.953125 
Q 33.9375 -1.421875 27.875 -1.421875 
Q 17.96875 -1.421875 11.734375 6.484375 
Q 5.515625 14.40625 5.515625 27.296875 
Q 5.515625 40.1875 11.734375 48.09375 
Q 17.96875 56 27.875 56 
Q 33.9375 56 38.25 53.625 
Q 42.578125 51.265625 45.40625 46.390625 
z
M 14.796875 27.296875 
Q 14.796875 17.390625 18.875 11.75 
Q 22.953125 6.109375 30.078125 6.109375 
Q 37.203125 6.109375 41.296875 11.75 
Q 45.40625 17.390625 45.40625 27.296875 
Q 45.40625 37.203125 41.296875 42.84375 
Q 37.203125 48.484375 30.078125 48.484375 
Q 22.953125 48.484375 18.875 42.84375 
Q 14.796875 37.203125 14.796875 27.296875 
z
" id="DejaVuSans-100"/>
      </defs>
      <use xlink:href="#DejaVuSans-65"/>
      <use x="68.408203" xlink:href="#DejaVuSans-109"/>
      <use x="165.820312" xlink:href="#DejaVuSans-112"/>
      <use x="229.296875" xlink:href="#DejaVuSans-108"/>
      <use x="257.080078" xlink:href="#DejaVuSans-105"/>
      <use x="284.863281" xlink:href="#DejaVuSans-116"/>
      <use x="324.072266" xlink:href="#DejaVuSans-117"/>
      <use x="387.451172" xlink:href="#DejaVuSans-100"/>
      <use x="450.927734" xlink:href="#DejaVuSans-101"/>
     </g>
    </g>
   </g>
   <g id="line2d_18">
    <defs>
     <path d="M 0 -3 
L -3 3 
L 3 3 
z
" id="mbfb1add974" style="stroke:#000000;stroke-linejoin:miter;"/>
    </defs>
    <g clip-path="url(#pe5f901de3a)">
     <use style="stroke:#000000;stroke-linejoin:miter;" x="142.115611" xlink:href="#mbfb1add974" y="245.003978"/>
     <use style="stroke:#000000;stroke-linejoin:miter;" x="147.188338" xlink:href="#mbfb1add974" y="242.745394"/>
     <use style="stroke:#000000;stroke-linejoin:miter;" x="152.261065" xlink:href="#mbfb1add974" y="236.436153"/>
     <use style="stroke:#000000;stroke-linejoin:miter;" x="157.333793" xlink:href="#mbfb1add974" y="226.728157"/>
     <use style="stroke:#000000;stroke-linejoin:miter;" x="162.40652" xlink:href="#mbfb1add974" y="214.268128"/>
     <use style="stroke:#000000;stroke-linejoin:miter;" x="167.479247" xlink:href="#mbfb1add974" y="199.694202"/>
     <use style="stroke:#000000;stroke-linejoin:miter;" x="172.551974" xlink:href="#mbfb1add974" y="183.631629"/>
     <use style="stroke:#000000;stroke-linejoin:miter;" x="177.624702" xlink:href="#mbfb1add974" y="166.687718"/>
     <use style="stroke:#000000;stroke-linejoin:miter;" x="182.697429" xlink:href="#mbfb1add974" y="149.446324"/>
     <use style="stroke:#000000;stroke-linejoin:miter;" x="187.770156" xlink:href="#mbfb1add974" y="132.461988"/>
     <use style="stroke:#000000;stroke-linejoin:miter;" x="192.842884" xlink:href="#mbfb1add974" y="116.254251"/>
     <use style="stroke:#000000;stroke-linejoin:miter;" x="197.915611" xlink:href="#mbfb1add974" y="101.301366"/>
     <use style="stroke:#000000;stroke-linejoin:miter;" x="202.988338" xlink:href="#mbfb1add974" y="88.035562"/>
     <use style="stroke:#000000;stroke-linejoin:miter;" x="208.061065" xlink:href="#mbfb1add974" y="76.837076"/>
     <use style="stroke:#000000;stroke-linejoin:miter;" x="213.133793" xlink:href="#mbfb1add974" y="68.030483"/>
     <use style="stroke:#000000;stroke-linejoin:miter;" x="218.20652" xlink:href="#mbfb1add974" y="61.880643"/>
     <use style="stroke:#000000;stroke-linejoin:miter;" x="223.279247" xlink:href="#mbfb1add974" y="58.589522"/>
     <use style="stroke:#000000;stroke-linejoin:miter;" x="228.351974" xlink:href="#mbfb1add974" y="58.294618"/>
     <use style="stroke:#000000;stroke-linejoin:miter;" x="233.424702" xlink:href="#mbfb1add974" y="61.067663"/>
     <use style="stroke:#000000;stroke-linejoin:miter;" x="238.497429" xlink:href="#mbfb1add974" y="66.915029"/>
     <use style="stroke:#000000;stroke-linejoin:miter;" x="243.570156" xlink:href="#mbfb1add974" y="75.778315"/>
     <use style="stroke:#000000;stroke-linejoin:miter;" x="248.642884" xlink:href="#mbfb1add974" y="87.53663"/>
     <use style="stroke:#000000;stroke-linejoin:miter;" x="253.715611" xlink:href="#mbfb1add974" y="102.01025"/>
     <use style="stroke:#000000;stroke-linejoin:miter;" x="258.788338" xlink:href="#mbfb1add974" y="118.963898"/>
     <use style="stroke:#000000;stroke-linejoin:miter;" x="263.861065" xlink:href="#mbfb1add974" y="138.112476"/>
     <use style="stroke:#000000;stroke-linejoin:miter;" x="268.933793" xlink:href="#mbfb1add974" y="159.126727"/>
     <use style="stroke:#000000;stroke-linejoin:miter;" x="274.00652" xlink:href="#mbfb1add974" y="181.639942"/>
     <use style="stroke:#000000;stroke-linejoin:miter;" x="279.079247" xlink:href="#mbfb1add974" y="205.255109"/>
     <use style="stroke:#000000;stroke-linejoin:miter;" x="284.151974" xlink:href="#mbfb1add974" y="229.552743"/>
     <use style="stroke:#000000;stroke-linejoin:miter;" x="289.224702" xlink:href="#mbfb1add974" y="254.09901"/>
     <use style="stroke:#000000;stroke-linejoin:miter;" x="294.297429" xlink:href="#mbfb1add974" y="278.454016"/>
     <use style="stroke:#000000;stroke-linejoin:miter;" x="299.370156" xlink:href="#mbfb1add974" y="302.180223"/>
     <use style="stroke:#000000;stroke-linejoin:miter;" x="304.442884" xlink:href="#mbfb1add974" y="324.850712"/>
     <use style="stroke:#000000;stroke-linejoin:miter;" x="309.515611" xlink:href="#mbfb1add974" y="346.057299"/>
     <use style="stroke:#000000;stroke-linejoin:miter;" x="314.588338" xlink:href="#mbfb1add974" y="365.418144"/>
     <use style="stroke:#000000;stroke-linejoin:miter;" x="319.661065" xlink:href="#mbfb1add974" y="382.585177"/>
     <use style="stroke:#000000;stroke-linejoin:miter;" x="324.733793" xlink:href="#mbfb1add974" y="397.250026"/>
     <use style="stroke:#000000;stroke-linejoin:miter;" x="329.80652" xlink:href="#mbfb1add974" y="409.150478"/>
     <use style="stroke:#000000;stroke-linejoin:miter;" x="334.879247" xlink:href="#mbfb1add974" y="418.074933"/>
     <use style="stroke:#000000;stroke-linejoin:miter;" x="339.951974" xlink:href="#mbfb1add974" y="423.866359"/>
     <use style="stroke:#000000;stroke-linejoin:miter;" x="345.024702" xlink:href="#mbfb1add974" y="426.425465"/>
     <use style="stroke:#000000;stroke-linejoin:miter;" x="350.097429" xlink:href="#mbfb1add974" y="425.712182"/>
     <use style="stroke:#000000;stroke-linejoin:miter;" x="355.170156" xlink:href="#mbfb1add974" y="421.746562"/>
     <use style="stroke:#000000;stroke-linejoin:miter;" x="360.242884" xlink:href="#mbfb1add974" y="414.608672"/>
     <use style="stroke:#000000;stroke-linejoin:miter;" x="365.315611" xlink:href="#mbfb1add974" y="404.436321"/>
     <use style="stroke:#000000;stroke-linejoin:miter;" x="370.388338" xlink:href="#mbfb1add974" y="391.423271"/>
     <use style="stroke:#000000;stroke-linejoin:miter;" x="375.461065" xlink:href="#mbfb1add974" y="375.815384"/>
     <use style="stroke:#000000;stroke-linejoin:miter;" x="380.533793" xlink:href="#mbfb1add974" y="357.905856"/>
     <use style="stroke:#000000;stroke-linejoin:miter;" x="385.60652" xlink:href="#mbfb1add974" y="338.030021"/>
     <use style="stroke:#000000;stroke-linejoin:miter;" x="390.679247" xlink:href="#mbfb1add974" y="316.559032"/>
     <use style="stroke:#000000;stroke-linejoin:miter;" x="395.751974" xlink:href="#mbfb1add974" y="293.893041"/>
     <use style="stroke:#000000;stroke-linejoin:miter;" x="400.824702" xlink:href="#mbfb1add974" y="270.453801"/>
     <use style="stroke:#000000;stroke-linejoin:miter;" x="405.897429" xlink:href="#mbfb1add974" y="246.676886"/>
     <use style="stroke:#000000;stroke-linejoin:miter;" x="410.970156" xlink:href="#mbfb1add974" y="223.003661"/>
     <use style="stroke:#000000;stroke-linejoin:miter;" x="416.042884" xlink:href="#mbfb1add974" y="199.873141"/>
     <use style="stroke:#000000;stroke-linejoin:miter;" x="421.115611" xlink:href="#mbfb1add974" y="177.713943"/>
     <use style="stroke:#000000;stroke-linejoin:miter;" x="426.188338" xlink:href="#mbfb1add974" y="156.936382"/>
     <use style="stroke:#000000;stroke-linejoin:miter;" x="431.261065" xlink:href="#mbfb1add974" y="137.92496"/>
     <use style="stroke:#000000;stroke-linejoin:miter;" x="436.333793" xlink:href="#mbfb1add974" y="121.031224"/>
     <use style="stroke:#000000;stroke-linejoin:miter;" x="441.40652" xlink:href="#mbfb1add974" y="106.567604"/>
     <use style="stroke:#000000;stroke-linejoin:miter;" x="446.479247" xlink:href="#mbfb1add974" y="94.801261"/>
     <use style="stroke:#000000;stroke-linejoin:miter;" x="451.551974" xlink:href="#mbfb1add974" y="85.949637"/>
     <use style="stroke:#000000;stroke-linejoin:miter;" x="456.624702" xlink:href="#mbfb1add974" y="80.176102"/>
     <use style="stroke:#000000;stroke-linejoin:miter;" x="461.697429" xlink:href="#mbfb1add974" y="77.587574"/>
     <use style="stroke:#000000;stroke-linejoin:miter;" x="466.770156" xlink:href="#mbfb1add974" y="78.231747"/>
     <use style="stroke:#000000;stroke-linejoin:miter;" x="471.842884" xlink:href="#mbfb1add974" y="82.097289"/>
     <use style="stroke:#000000;stroke-linejoin:miter;" x="476.915611" xlink:href="#mbfb1add974" y="89.113148"/>
     <use style="stroke:#000000;stroke-linejoin:miter;" x="481.988338" xlink:href="#mbfb1add974" y="99.150535"/>
     <use style="stroke:#000000;stroke-linejoin:miter;" x="487.061065" xlink:href="#mbfb1add974" y="112.025197"/>
     <use style="stroke:#000000;stroke-linejoin:miter;" x="492.133793" xlink:href="#mbfb1add974" y="127.500594"/>
     <use style="stroke:#000000;stroke-linejoin:miter;" x="497.20652" xlink:href="#mbfb1add974" y="145.292644"/>
     <use style="stroke:#000000;stroke-linejoin:miter;" x="502.279247" xlink:href="#mbfb1add974" y="165.074944"/>
     <use style="stroke:#000000;stroke-linejoin:miter;" x="507.351974" xlink:href="#mbfb1add974" y="186.484523"/>
     <use style="stroke:#000000;stroke-linejoin:miter;" x="512.424702" xlink:href="#mbfb1add974" y="209.128859"/>
     <use style="stroke:#000000;stroke-linejoin:miter;" x="517.497429" xlink:href="#mbfb1add974" y="232.592981"/>
     <use style="stroke:#000000;stroke-linejoin:miter;" x="522.570156" xlink:href="#mbfb1add974" y="256.447153"/>
     <use style="stroke:#000000;stroke-linejoin:miter;" x="527.642884" xlink:href="#mbfb1add974" y="280.254791"/>
     <use style="stroke:#000000;stroke-linejoin:miter;" x="532.715611" xlink:href="#mbfb1add974" y="303.580508"/>
     <use style="stroke:#000000;stroke-linejoin:miter;" x="537.788338" xlink:href="#mbfb1add974" y="325.998136"/>
     <use style="stroke:#000000;stroke-linejoin:miter;" x="542.861065" xlink:href="#mbfb1add974" y="347.098528"/>
     <use style="stroke:#000000;stroke-linejoin:miter;" x="547.933793" xlink:href="#mbfb1add974" y="366.497091"/>
     <use style="stroke:#000000;stroke-linejoin:miter;" x="553.00652" xlink:href="#mbfb1add974" y="383.840953"/>
     <use style="stroke:#000000;stroke-linejoin:miter;" x="558.079247" xlink:href="#mbfb1add974" y="398.815162"/>
     <use style="stroke:#000000;stroke-linejoin:miter;" x="563.151974" xlink:href="#mbfb1add974" y="411.148809"/>
     <use style="stroke:#000000;stroke-linejoin:miter;" x="568.224702" xlink:href="#mbfb1add974" y="420.619615"/>
     <use style="stroke:#000000;stroke-linejoin:miter;" x="573.297429" xlink:href="#mbfb1add974" y="427.058403"/>
     <use style="stroke:#000000;stroke-linejoin:miter;" x="578.370156" xlink:href="#mbfb1add974" y="430.351941"/>
     <use style="stroke:#000000;stroke-linejoin:miter;" x="583.442884" xlink:href="#mbfb1add974" y="430.444829"/>
     <use style="stroke:#000000;stroke-linejoin:miter;" x="588.515611" xlink:href="#mbfb1add974" y="427.3408"/>
     <use style="stroke:#000000;stroke-linejoin:miter;" x="593.588338" xlink:href="#mbfb1add974" y="421.102624"/>
     <use style="stroke:#000000;stroke-linejoin:miter;" x="598.661065" xlink:href="#mbfb1add974" y="411.850593"/>
     <use style="stroke:#000000;stroke-linejoin:miter;" x="603.733793" xlink:href="#mbfb1add974" y="399.760578"/>
     <use style="stroke:#000000;stroke-linejoin:miter;" x="608.80652" xlink:href="#mbfb1add974" y="385.060536"/>
     <use style="stroke:#000000;stroke-linejoin:miter;" x="613.879247" xlink:href="#mbfb1add974" y="368.026753"/>
     <use style="stroke:#000000;stroke-linejoin:miter;" x="618.951974" xlink:href="#mbfb1add974" y="348.977913"/>
     <use style="stroke:#000000;stroke-linejoin:miter;" x="624.024702" xlink:href="#mbfb1add974" y="328.270057"/>
     <use style="stroke:#000000;stroke-linejoin:miter;" x="629.097429" xlink:href="#mbfb1add974" y="306.289475"/>
     <use style="stroke:#000000;stroke-linejoin:miter;" x="634.170156" xlink:href="#mbfb1add974" y="283.445785"/>
     <use style="stroke:#000000;stroke-linejoin:miter;" x="639.242884" xlink:href="#mbfb1add974" y="260.164306"/>
     <use style="stroke:#000000;stroke-linejoin:miter;" x="644.315611" xlink:href="#mbfb1add974" y="236.878256"/>
     <use style="stroke:#000000;stroke-linejoin:miter;" x="649.388338" xlink:href="#mbfb1add974" y="214.020732"/>
     <use style="stroke:#000000;stroke-linejoin:miter;" x="654.461065" xlink:href="#mbfb1add974" y="192.016736"/>
     <use style="stroke:#000000;stroke-linejoin:miter;" x="659.533793" xlink:href="#mbfb1add974" y="171.275356"/>
     <use style="stroke:#000000;stroke-linejoin:miter;" x="664.60652" xlink:href="#mbfb1add974" y="152.182137"/>
     <use style="stroke:#000000;stroke-linejoin:miter;" x="669.679247" xlink:href="#mbfb1add974" y="135.092299"/>
     <use style="stroke:#000000;stroke-linejoin:miter;" x="674.751974" xlink:href="#mbfb1add974" y="120.323514"/>
     <use style="stroke:#000000;stroke-linejoin:miter;" x="679.824702" xlink:href="#mbfb1add974" y="108.150684"/>
     <use style="stroke:#000000;stroke-linejoin:miter;" x="684.897429" xlink:href="#mbfb1add974" y="98.800784"/>
     <use style="stroke:#000000;stroke-linejoin:miter;" x="689.970156" xlink:href="#mbfb1add974" y="92.448407"/>
     <use style="stroke:#000000;stroke-linejoin:miter;" x="695.042884" xlink:href="#mbfb1add974" y="89.212361"/>
     <use style="stroke:#000000;stroke-linejoin:miter;" x="700.115611" xlink:href="#mbfb1add974" y="89.154354"/>
     <use style="stroke:#000000;stroke-linejoin:miter;" x="705.188338" xlink:href="#mbfb1add974" y="92.276517"/>
     <use style="stroke:#000000;stroke-linejoin:miter;" x="710.261065" xlink:href="#mbfb1add974" y="98.522606"/>
     <use style="stroke:#000000;stroke-linejoin:miter;" x="715.333793" xlink:href="#mbfb1add974" y="107.778093"/>
     <use style="stroke:#000000;stroke-linejoin:miter;" x="720.40652" xlink:href="#mbfb1add974" y="119.872723"/>
     <use style="stroke:#000000;stroke-linejoin:miter;" x="725.479247" xlink:href="#mbfb1add974" y="134.583144"/>
     <use style="stroke:#000000;stroke-linejoin:miter;" x="730.551974" xlink:href="#mbfb1add974" y="151.637587"/>
     <use style="stroke:#000000;stroke-linejoin:miter;" x="735.624702" xlink:href="#mbfb1add974" y="170.72011"/>
     <use style="stroke:#000000;stroke-linejoin:miter;" x="740.697429" xlink:href="#mbfb1add974" y="191.476811"/>
     <use style="stroke:#000000;stroke-linejoin:miter;" x="745.770156" xlink:href="#mbfb1add974" y="213.521957"/>
     <use style="stroke:#000000;stroke-linejoin:miter;" x="750.842884" xlink:href="#mbfb1add974" y="236.445094"/>
     <use style="stroke:#000000;stroke-linejoin:miter;" x="755.915611" xlink:href="#mbfb1add974" y="259.818398"/>
     <use style="stroke:#000000;stroke-linejoin:miter;" x="760.988338" xlink:href="#mbfb1add974" y="283.20438"/>
     <use style="stroke:#000000;stroke-linejoin:miter;" x="766.061065" xlink:href="#mbfb1add974" y="306.163746"/>
     <use style="stroke:#000000;stroke-linejoin:miter;" x="771.133793" xlink:href="#mbfb1add974" y="328.263273"/>
     <use style="stroke:#000000;stroke-linejoin:miter;" x="776.20652" xlink:href="#mbfb1add974" y="349.083527"/>
     <use style="stroke:#000000;stroke-linejoin:miter;" x="781.279247" xlink:href="#mbfb1add974" y="368.226206"/>
     <use style="stroke:#000000;stroke-linejoin:miter;" x="786.351974" xlink:href="#mbfb1add974" y="385.321343"/>
     <use style="stroke:#000000;stroke-linejoin:miter;" x="791.424702" xlink:href="#mbfb1add974" y="400.03325"/>
     <use style="stroke:#000000;stroke-linejoin:miter;" x="796.497429" xlink:href="#mbfb1add974" y="412.066793"/>
     <use style="stroke:#000000;stroke-linejoin:miter;" x="801.570156" xlink:href="#mbfb1add974" y="421.172069"/>
     <use style="stroke:#000000;stroke-linejoin:miter;" x="806.642884" xlink:href="#mbfb1add974" y="427.14825"/>
     <use style="stroke:#000000;stroke-linejoin:miter;" x="811.715611" xlink:href="#mbfb1add974" y="429.846639"/>
     <use style="stroke:#000000;stroke-linejoin:miter;" x="816.788338" xlink:href="#mbfb1add974" y="429.172963"/>
     <use style="stroke:#000000;stroke-linejoin:miter;" x="821.861065" xlink:href="#mbfb1add974" y="425.087596"/>
     <use style="stroke:#000000;stroke-linejoin:miter;" x="826.933793" xlink:href="#mbfb1add974" y="417.60578"/>
     <use style="stroke:#000000;stroke-linejoin:miter;" x="832.00652" xlink:href="#mbfb1add974" y="406.795753"/>
     <use style="stroke:#000000;stroke-linejoin:miter;" x="837.079247" xlink:href="#mbfb1add974" y="392.77633"/>
     <use style="stroke:#000000;stroke-linejoin:miter;" x="842.151974" xlink:href="#mbfb1add974" y="375.713023"/>
     <use style="stroke:#000000;stroke-linejoin:miter;" x="847.224702" xlink:href="#mbfb1add974" y="355.813189"/>
     <use style="stroke:#000000;stroke-linejoin:miter;" x="852.297429" xlink:href="#mbfb1add974" y="333.320302"/>
     <use style="stroke:#000000;stroke-linejoin:miter;" x="857.370156" xlink:href="#mbfb1add974" y="308.506767"/>
     <use style="stroke:#000000;stroke-linejoin:miter;" x="862.442884" xlink:href="#mbfb1add974" y="281.666412"/>
     <use style="stroke:#000000;stroke-linejoin:miter;" x="867.515611" xlink:href="#mbfb1add974" y="253.105851"/>
     <use style="stroke:#000000;stroke-linejoin:miter;" x="872.588338" xlink:href="#mbfb1add974" y="223.135268"/>
     <use style="stroke:#000000;stroke-linejoin:miter;" x="877.661065" xlink:href="#mbfb1add974" y="192.0586"/>
     <use style="stroke:#000000;stroke-linejoin:miter;" x="882.733793" xlink:href="#mbfb1add974" y="160.163253"/>
     <use style="stroke:#000000;stroke-linejoin:miter;" x="887.80652" xlink:href="#mbfb1add974" y="127.709392"/>
     <use style="stroke:#000000;stroke-linejoin:miter;" x="892.879247" xlink:href="#mbfb1add974" y="94.918891"/>
     <use style="stroke:#000000;stroke-linejoin:miter;" x="897.951974" xlink:href="#mbfb1add974" y="61.964491"/>
     <use style="stroke:#000000;stroke-linejoin:miter;" x="903.024702" xlink:href="#mbfb1add974" y="28.957998"/>
    </g>
   </g>
   <g id="line2d_19">
    <path clip-path="url(#pe5f901de3a)" d="M 142.115611 245.003978 
L 147.188338 242.768276 
L 152.261065 236.527451 
L 157.333793 226.930358 
L 162.40652 214.620982 
L 167.479247 200.234922 
L 172.551974 184.395052 
L 187.770156 134.078138 
L 192.842884 118.206985 
L 197.915611 103.611537 
L 202.988338 90.719673 
L 208.061065 79.907277 
L 213.133793 71.493485 
L 218.20652 65.736822 
L 223.279247 62.832728 
L 228.351974 62.911275 
L 233.424702 66.036184 
L 238.497429 72.205312 
L 243.570156 81.351352 
L 248.642884 93.344703 
L 253.715611 107.996242 
L 258.788338 125.062177 
L 263.861065 144.249098 
L 268.933793 165.220011 
L 274.00652 187.601542 
L 279.079247 210.991087 
L 294.297429 282.916105 
L 299.370156 306.016211 
L 304.442884 327.963576 
L 309.515611 348.35542 
L 314.588338 366.817424 
L 319.661065 383.011328 
L 324.733793 396.640762 
L 329.80652 407.457382 
L 334.879247 415.265438 
L 339.951974 419.925237 
L 345.024702 421.356309 
L 350.097429 419.538499 
L 355.170156 414.512461 
L 360.242884 406.378969 
L 365.315611 395.297127 
L 370.388338 381.480811 
L 375.461065 365.195392 
L 380.533793 346.752025 
L 385.60652 326.502453 
L 390.679247 304.831859 
L 395.751974 282.15189 
L 410.970156 212.426163 
L 416.042884 190.05058 
L 421.115611 168.798154 
L 426.188338 149.056437 
L 431.261065 131.185205 
L 436.333793 115.510253 
L 441.40652 102.317166 
L 446.479247 91.846272 
L 451.551974 84.288379 
L 456.624702 79.781507 
L 461.697429 78.407722 
L 466.770156 80.192834 
L 471.842884 85.104621 
L 476.915611 93.054703 
L 481.988338 103.899243 
L 487.061065 117.44221 
L 492.133793 133.438548 
L 497.20652 151.598833 
L 502.279247 171.594781 
L 507.351974 193.064681 
L 512.424702 215.62049 
L 532.715611 308.415919 
L 537.788338 330.160812 
L 542.861065 350.517815 
L 547.933793 369.120697 
L 553.00652 385.635155 
L 558.079247 399.765263 
L 563.151974 411.258048 
L 568.224702 419.908958 
L 573.297429 425.564969 
L 578.370156 428.127409 
L 583.442884 427.553751 
L 588.515611 423.858534 
L 593.588338 417.112848 
L 598.661065 407.443035 
L 603.733793 395.028424 
L 608.80652 380.09797 
L 613.879247 362.925989 
L 618.951974 343.827333 
L 624.024702 323.151605 
L 629.097429 301.276528 
L 639.242884 255.539047 
L 649.388338 209.931354 
L 654.461065 188.226879 
L 659.533793 167.809403 
L 664.60652 149.058489 
L 669.679247 132.322572 
L 674.751974 117.91281 
L 679.824702 106.097379 
L 684.897429 97.096211 
L 689.970156 91.077474 
L 695.042884 88.15414 
L 700.115611 88.381858 
L 705.188338 91.758331 
L 710.261065 98.222818 
L 715.333793 107.657564 
L 720.40652 119.889827 
L 725.479247 134.69478 
L 730.551974 151.800039 
L 735.624702 170.89 
L 740.697429 191.612047 
L 745.770156 213.582588 
L 755.915611 259.622362 
L 766.061065 305.595139 
L 771.133793 327.47707 
L 776.20652 348.06603 
L 781.279247 366.969275 
L 786.351974 383.822462 
L 791.424702 398.295381 
L 796.497429 410.098135 
L 801.570156 418.985607 
L 806.642884 424.761484 
L 811.715611 427.280971 
L 816.788338 426.452944 
L 821.861065 422.240442 
L 826.933793 414.66042 
L 832.00652 403.782274 
L 837.079247 389.725246 
L 842.151974 372.654522 
L 847.224702 352.776387 
L 852.297429 330.332573 
L 857.370156 305.593336 
L 862.442884 278.849838 
L 867.515611 250.405708 
L 872.588338 220.567896 
L 877.661065 189.637081 
L 887.80652 125.606082 
L 903.024702 27.36 
L 903.024702 27.36 
" style="fill:none;stroke:#0000ff;stroke-linecap:square;stroke-width:3;"/>
   </g>
   <g id="line2d_20">
    <path clip-path="url(#pe5f901de3a)" d="M 142.115611 245.003978 
L 147.188338 242.739667 
L 152.261065 236.415893 
L 157.333793 226.687716 
L 162.40652 214.204946 
L 167.479247 199.608748 
L 172.551974 183.527225 
L 187.770156 132.346307 
L 192.842884 116.156915 
L 197.915611 101.236163 
L 202.988338 88.016872 
L 208.061065 76.880071 
L 213.133793 68.150039 
L 218.20652 62.09094 
L 223.279247 58.903651 
L 228.351974 58.723985 
L 233.424702 61.621694 
L 238.497429 67.600376 
L 243.570156 76.59856 
L 248.642884 88.492381 
L 253.715611 103.098255 
L 258.788338 120.177436 
L 263.861065 139.440964 
L 268.933793 160.555799 
L 274.00652 183.151634 
L 279.079247 206.828073 
L 299.370156 303.730143 
L 304.442884 326.318701 
L 309.515611 347.411486 
L 314.588338 366.627132 
L 319.661065 383.61886 
L 324.733793 398.080482 
L 329.80652 409.752561 
L 334.879247 418.427061 
L 339.951974 423.951404 
L 345.024702 426.230955 
L 350.097429 425.231291 
L 355.170156 420.978504 
L 360.242884 413.558603 
L 365.315611 403.116329 
L 370.388338 389.852078 
L 375.461065 374.018249 
L 380.533793 355.914676 
L 385.60652 335.883097 
L 390.679247 314.300557 
L 395.751974 291.572697 
L 416.042884 197.906426 
L 421.115611 175.976745 
L 426.188338 155.47651 
L 431.261065 136.784683 
L 436.333793 120.246456 
L 441.40652 106.167435 
L 446.479247 94.80755 
L 451.551974 86.376223 
L 456.624702 81.0291 
L 461.697429 78.864482 
L 466.770156 79.92224 
L 471.842884 84.182524 
L 476.915611 91.566557 
L 481.988338 101.937927 
L 487.061065 115.105349 
L 492.133793 130.825942 
L 497.20652 148.810181 
L 502.279247 168.726663 
L 507.351974 190.208867 
L 512.424702 212.861551 
L 522.570156 259.998715 
L 527.642884 283.617349 
L 532.715611 306.690767 
L 537.788338 328.795999 
L 542.861065 349.528267 
L 547.933793 368.508415 
L 553.00652 385.389986 
L 558.079247 399.86545 
L 563.151974 411.671799 
L 568.224702 420.595688 
L 573.297429 426.47695 
L 578.370156 429.211944 
L 583.442884 428.754884 
L 588.515611 425.11913 
L 593.588338 418.376533 
L 598.661065 408.656429 
L 603.733793 396.142879 
L 608.80652 381.071484 
L 613.879247 363.724671 
L 618.951974 344.426899 
L 624.024702 323.538101 
L 629.097429 301.447348 
L 639.242884 255.317627 
L 649.388338 209.446929 
L 654.461065 187.67493 
L 659.533793 167.224158 
L 664.60652 148.473679 
L 669.679247 131.771089 
L 674.751974 117.426177 
L 679.824702 105.70506 
L 684.897429 96.82557 
L 689.970156 90.953211 
L 695.042884 88.198172 
L 700.115611 88.612933 
L 705.188338 92.192028 
L 710.261065 98.87116 
L 715.333793 108.529386 
L 720.40652 120.990198 
L 725.479247 136.025811 
L 730.551974 153.360264 
L 735.624702 172.675031 
L 740.697429 193.614477 
L 745.770156 215.792373 
L 755.915611 262.207194 
L 766.061065 308.489218 
L 771.133793 330.497382 
L 776.20652 351.192264 
L 781.279247 370.180513 
L 786.351974 387.097283 
L 791.424702 401.61251 
L 796.497429 413.436379 
L 801.570156 422.324079 
L 806.642884 428.07989 
L 811.715611 430.56 
L 816.788338 429.674184 
L 821.861065 425.386572 
L 826.933793 417.715296 
L 832.00652 406.731239 
L 837.079247 392.554742 
L 842.151974 375.352475 
L 847.224702 355.332221 
L 852.297429 332.736978 
L 857.370156 307.838399 
L 862.442884 280.928942 
L 867.515611 252.313438 
L 872.588338 222.299992 
L 877.661065 191.190294 
L 887.80652 126.795222 
L 903.024702 27.996755 
L 903.024702 27.996755 
" style="fill:none;stroke:#ff0000;stroke-linecap:square;stroke-width:3;"/>
   </g>
   <g id="patch_3">
    <path d="M 104.070156 450.72 
L 104.070156 7.2 
" style="fill:none;stroke:#000000;stroke-linecap:square;stroke-linejoin:miter;stroke-width:0.8;"/>
   </g>
   <g id="patch_4">
    <path d="M 941.070156 450.72 
L 941.070156 7.2 
" style="fill:none;stroke:#000000;stroke-linecap:square;stroke-linejoin:miter;stroke-width:0.8;"/>
   </g>
   <g id="patch_5">
    <path d="M 104.070156 450.72 
L 941.070156 450.72 
" style="fill:none;stroke:#000000;stroke-linecap:square;stroke-linejoin:miter;stroke-width:0.8;"/>
   </g>
   <g id="patch_6">
    <path d="M 104.070156 7.2 
L 941.070156 7.2 
" style="fill:none;stroke:#000000;stroke-linecap:square;stroke-linejoin:miter;stroke-width:0.8;"/>
   </g>
   <g id="legend_1">
    <g id="patch_7">
     <path d="M 375.665156 121.675625 
L 669.475156 121.675625 
Q 673.875156 121.675625 673.875156 117.275625 
L 673.875156 22.6 
Q 673.875156 18.2 669.475156 18.2 
L 375.665156 18.2 
Q 371.265156 18.2 371.265156 22.6 
L 371.265156 117.275625 
Q 371.265156 121.675625 375.665156 121.675625 
z
" style="fill:#ffffff;opacity:0.8;stroke:#cccccc;stroke-linejoin:miter;"/>
    </g>
    <g id="line2d_21"/>
    <g id="line2d_22">
     <g>
      <use style="stroke:#000000;stroke-linejoin:miter;" x="402.065156" xlink:href="#mbfb1add974" y="36.016563"/>
     </g>
    </g>
    <g id="text_20">
     <!-- Reference FEM -->
     <g transform="translate(441.665156 43.716563)scale(0.22 -0.22)">
      <defs>
       <path d="M 44.390625 34.1875 
Q 47.5625 33.109375 50.5625 29.59375 
Q 53.5625 26.078125 56.59375 19.921875 
L 66.609375 0 
L 56 0 
L 46.6875 18.703125 
Q 43.0625 26.03125 39.671875 28.421875 
Q 36.28125 30.8125 30.421875 30.8125 
L 19.671875 30.8125 
L 19.671875 0 
L 9.8125 0 
L 9.8125 72.90625 
L 32.078125 72.90625 
Q 44.578125 72.90625 50.734375 67.671875 
Q 56.890625 62.453125 56.890625 51.90625 
Q 56.890625 45.015625 53.6875 40.46875 
Q 50.484375 35.9375 44.390625 34.1875 
z
M 19.671875 64.796875 
L 19.671875 38.921875 
L 32.078125 38.921875 
Q 39.203125 38.921875 42.84375 42.21875 
Q 46.484375 45.515625 46.484375 51.90625 
Q 46.484375 58.296875 42.84375 61.546875 
Q 39.203125 64.796875 32.078125 64.796875 
z
" id="DejaVuSans-82"/>
       <path d="M 37.109375 75.984375 
L 37.109375 68.5 
L 28.515625 68.5 
Q 23.6875 68.5 21.796875 66.546875 
Q 19.921875 64.59375 19.921875 59.515625 
L 19.921875 54.6875 
L 34.71875 54.6875 
L 34.71875 47.703125 
L 19.921875 47.703125 
L 19.921875 0 
L 10.890625 0 
L 10.890625 47.703125 
L 2.296875 47.703125 
L 2.296875 54.6875 
L 10.890625 54.6875 
L 10.890625 58.5 
Q 10.890625 67.625 15.140625 71.796875 
Q 19.390625 75.984375 28.609375 75.984375 
z
" id="DejaVuSans-102"/>
       <path d="M 41.109375 46.296875 
Q 39.59375 47.171875 37.8125 47.578125 
Q 36.03125 48 33.890625 48 
Q 26.265625 48 22.1875 43.046875 
Q 18.109375 38.09375 18.109375 28.8125 
L 18.109375 0 
L 9.078125 0 
L 9.078125 54.6875 
L 18.109375 54.6875 
L 18.109375 46.1875 
Q 20.953125 51.171875 25.484375 53.578125 
Q 30.03125 56 36.53125 56 
Q 37.453125 56 38.578125 55.875 
Q 39.703125 55.765625 41.0625 55.515625 
z
" id="DejaVuSans-114"/>
       <path d="M 48.78125 52.59375 
L 48.78125 44.1875 
Q 44.96875 46.296875 41.140625 47.34375 
Q 37.3125 48.390625 33.40625 48.390625 
Q 24.65625 48.390625 19.8125 42.84375 
Q 14.984375 37.3125 14.984375 27.296875 
Q 14.984375 17.28125 19.8125 11.734375 
Q 24.65625 6.203125 33.40625 6.203125 
Q 37.3125 6.203125 41.140625 7.25 
Q 44.96875 8.296875 48.78125 10.40625 
L 48.78125 2.09375 
Q 45.015625 0.34375 40.984375 -0.53125 
Q 36.96875 -1.421875 32.421875 -1.421875 
Q 20.0625 -1.421875 12.78125 6.34375 
Q 5.515625 14.109375 5.515625 27.296875 
Q 5.515625 40.671875 12.859375 48.328125 
Q 20.21875 56 33.015625 56 
Q 37.15625 56 41.109375 55.140625 
Q 45.0625 54.296875 48.78125 52.59375 
z
" id="DejaVuSans-99"/>
       <path d="M 9.8125 72.90625 
L 51.703125 72.90625 
L 51.703125 64.59375 
L 19.671875 64.59375 
L 19.671875 43.109375 
L 48.578125 43.109375 
L 48.578125 34.8125 
L 19.671875 34.8125 
L 19.671875 0 
L 9.8125 0 
z
" id="DejaVuSans-70"/>
       <path d="M 9.8125 72.90625 
L 55.90625 72.90625 
L 55.90625 64.59375 
L 19.671875 64.59375 
L 19.671875 43.015625 
L 54.390625 43.015625 
L 54.390625 34.71875 
L 19.671875 34.71875 
L 19.671875 8.296875 
L 56.78125 8.296875 
L 56.78125 0 
L 9.8125 0 
z
" id="DejaVuSans-69"/>
       <path d="M 9.8125 72.90625 
L 24.515625 72.90625 
L 43.109375 23.296875 
L 61.8125 72.90625 
L 76.515625 72.90625 
L 76.515625 0 
L 66.890625 0 
L 66.890625 64.015625 
L 48.09375 14.015625 
L 38.1875 14.015625 
L 19.390625 64.015625 
L 19.390625 0 
L 9.8125 0 
z
" id="DejaVuSans-77"/>
      </defs>
      <use xlink:href="#DejaVuSans-82"/>
      <use x="64.982422" xlink:href="#DejaVuSans-101"/>
      <use x="126.505859" xlink:href="#DejaVuSans-102"/>
      <use x="161.710938" xlink:href="#DejaVuSans-101"/>
      <use x="223.234375" xlink:href="#DejaVuSans-114"/>
      <use x="262.097656" xlink:href="#DejaVuSans-101"/>
      <use x="323.621094" xlink:href="#DejaVuSans-110"/>
      <use x="387" xlink:href="#DejaVuSans-99"/>
      <use x="441.980469" xlink:href="#DejaVuSans-101"/>
      <use x="503.503906" xlink:href="#DejaVuSans-32"/>
      <use x="535.291016" xlink:href="#DejaVuSans-70"/>
      <use x="592.810547" xlink:href="#DejaVuSans-69"/>
      <use x="655.994141" xlink:href="#DejaVuSans-77"/>
     </g>
    </g>
    <g id="line2d_23">
     <path d="M 380.065156 68.308438 
L 424.065156 68.308438 
" style="fill:none;stroke:#0000ff;stroke-linecap:square;stroke-width:3;"/>
    </g>
    <g id="line2d_24"/>
    <g id="text_21">
     <!-- Initial mistuned FEM -->
     <g transform="translate(441.665156 76.008438)scale(0.22 -0.22)">
      <defs>
       <path d="M 9.8125 72.90625 
L 19.671875 72.90625 
L 19.671875 0 
L 9.8125 0 
z
" id="DejaVuSans-73"/>
       <path d="M 44.28125 53.078125 
L 44.28125 44.578125 
Q 40.484375 46.53125 36.375 47.5 
Q 32.28125 48.484375 27.875 48.484375 
Q 21.1875 48.484375 17.84375 46.4375 
Q 14.5 44.390625 14.5 40.28125 
Q 14.5 37.15625 16.890625 35.375 
Q 19.28125 33.59375 26.515625 31.984375 
L 29.59375 31.296875 
Q 39.15625 29.25 43.1875 25.515625 
Q 47.21875 21.78125 47.21875 15.09375 
Q 47.21875 7.46875 41.1875 3.015625 
Q 35.15625 -1.421875 24.609375 -1.421875 
Q 20.21875 -1.421875 15.453125 -0.5625 
Q 10.6875 0.296875 5.421875 2 
L 5.421875 11.28125 
Q 10.40625 8.6875 15.234375 7.390625 
Q 20.0625 6.109375 24.8125 6.109375 
Q 31.15625 6.109375 34.5625 8.28125 
Q 37.984375 10.453125 37.984375 14.40625 
Q 37.984375 18.0625 35.515625 20.015625 
Q 33.0625 21.96875 24.703125 23.78125 
L 21.578125 24.515625 
Q 13.234375 26.265625 9.515625 29.90625 
Q 5.8125 33.546875 5.8125 39.890625 
Q 5.8125 47.609375 11.28125 51.796875 
Q 16.75 56 26.8125 56 
Q 31.78125 56 36.171875 55.265625 
Q 40.578125 54.546875 44.28125 53.078125 
z
" id="DejaVuSans-115"/>
      </defs>
      <use xlink:href="#DejaVuSans-73"/>
      <use x="29.492188" xlink:href="#DejaVuSans-110"/>
      <use x="92.871094" xlink:href="#DejaVuSans-105"/>
      <use x="120.654297" xlink:href="#DejaVuSans-116"/>
      <use x="159.863281" xlink:href="#DejaVuSans-105"/>
      <use x="187.646484" xlink:href="#DejaVuSans-97"/>
      <use x="248.925781" xlink:href="#DejaVuSans-108"/>
      <use x="276.708984" xlink:href="#DejaVuSans-32"/>
      <use x="308.496094" xlink:href="#DejaVuSans-109"/>
      <use x="405.908203" xlink:href="#DejaVuSans-105"/>
      <use x="433.691406" xlink:href="#DejaVuSans-115"/>
      <use x="485.791016" xlink:href="#DejaVuSans-116"/>
      <use x="525" xlink:href="#DejaVuSans-117"/>
      <use x="588.378906" xlink:href="#DejaVuSans-110"/>
      <use x="651.757812" xlink:href="#DejaVuSans-101"/>
      <use x="713.28125" xlink:href="#DejaVuSans-100"/>
      <use x="776.757812" xlink:href="#DejaVuSans-32"/>
      <use x="808.544922" xlink:href="#DejaVuSans-70"/>
      <use x="866.064453" xlink:href="#DejaVuSans-69"/>
      <use x="929.248047" xlink:href="#DejaVuSans-77"/>
     </g>
    </g>
    <g id="line2d_25">
     <path d="M 380.065156 100.600313 
L 424.065156 100.600313 
" style="fill:none;stroke:#ff0000;stroke-linecap:square;stroke-width:3;"/>
    </g>
    <g id="line2d_26"/>
    <g id="text_22">
     <!-- Converged FEM -->
     <g transform="translate(441.665156 108.300313)scale(0.22 -0.22)">
      <defs>
       <path d="M 64.40625 67.28125 
L 64.40625 56.890625 
Q 59.421875 61.53125 53.78125 63.8125 
Q 48.140625 66.109375 41.796875 66.109375 
Q 29.296875 66.109375 22.65625 58.46875 
Q 16.015625 50.828125 16.015625 36.375 
Q 16.015625 21.96875 22.65625 14.328125 
Q 29.296875 6.6875 41.796875 6.6875 
Q 48.140625 6.6875 53.78125 8.984375 
Q 59.421875 11.28125 64.40625 15.921875 
L 64.40625 5.609375 
Q 59.234375 2.09375 53.4375 0.328125 
Q 47.65625 -1.421875 41.21875 -1.421875 
Q 24.65625 -1.421875 15.125 8.703125 
Q 5.609375 18.84375 5.609375 36.375 
Q 5.609375 53.953125 15.125 64.078125 
Q 24.65625 74.21875 41.21875 74.21875 
Q 47.75 74.21875 53.53125 72.484375 
Q 59.328125 70.75 64.40625 67.28125 
z
" id="DejaVuSans-67"/>
       <path d="M 30.609375 48.390625 
Q 23.390625 48.390625 19.1875 42.75 
Q 14.984375 37.109375 14.984375 27.296875 
Q 14.984375 17.484375 19.15625 11.84375 
Q 23.34375 6.203125 30.609375 6.203125 
Q 37.796875 6.203125 41.984375 11.859375 
Q 46.1875 17.53125 46.1875 27.296875 
Q 46.1875 37.015625 41.984375 42.703125 
Q 37.796875 48.390625 30.609375 48.390625 
z
M 30.609375 56 
Q 42.328125 56 49.015625 48.375 
Q 55.71875 40.765625 55.71875 27.296875 
Q 55.71875 13.875 49.015625 6.21875 
Q 42.328125 -1.421875 30.609375 -1.421875 
Q 18.84375 -1.421875 12.171875 6.21875 
Q 5.515625 13.875 5.515625 27.296875 
Q 5.515625 40.765625 12.171875 48.375 
Q 18.84375 56 30.609375 56 
z
" id="DejaVuSans-111"/>
       <path d="M 2.984375 54.6875 
L 12.5 54.6875 
L 29.59375 8.796875 
L 46.6875 54.6875 
L 56.203125 54.6875 
L 35.6875 0 
L 23.484375 0 
z
" id="DejaVuSans-118"/>
      </defs>
      <use xlink:href="#DejaVuSans-67"/>
      <use x="69.824219" xlink:href="#DejaVuSans-111"/>
      <use x="131.005859" xlink:href="#DejaVuSans-110"/>
      <use x="194.384766" xlink:href="#DejaVuSans-118"/>
      <use x="253.564453" xlink:href="#DejaVuSans-101"/>
      <use x="315.087891" xlink:href="#DejaVuSans-114"/>
      <use x="354.451172" xlink:href="#DejaVuSans-103"/>
      <use x="417.927734" xlink:href="#DejaVuSans-101"/>
      <use x="479.451172" xlink:href="#DejaVuSans-100"/>
      <use x="542.927734" xlink:href="#DejaVuSans-32"/>
      <use x="574.714844" xlink:href="#DejaVuSans-70"/>
      <use x="632.234375" xlink:href="#DejaVuSans-69"/>
      <use x="695.417969" xlink:href="#DejaVuSans-77"/>
     </g>
    </g>
   </g>
  </g>
 </g>
 <defs>
  <clipPath id="pe5f901de3a">
   <rect height="443.52" width="837" x="104.070156" y="7.2"/>
  </clipPath>
 </defs>
</svg>
