<?xml version="1.0" encoding="utf-8" standalone="no"?>
<!DOCTYPE svg PUBLIC "-//W3C//DTD SVG 1.1//EN"
  "http://www.w3.org/Graphics/SVG/1.1/DTD/svg11.dtd">
<!-- Created with matplotlib (https://matplotlib.org/) -->
<svg height="518.278437pt" version="1.1" viewBox="0 0 948.270156 518.278437" width="948.270156pt" xmlns="http://www.w3.org/2000/svg" xmlns:xlink="http://www.w3.org/1999/xlink">
 <metadata>
  <rdf:RDF xmlns:cc="http://creativecommons.org/ns#" xmlns:dc="http://purl.org/dc/elements/1.1/" xmlns:rdf="http://www.w3.org/1999/02/22-rdf-syntax-ns#">
   <cc:Work>
    <dc:type rdf:resource="http://purl.org/dc/dcmitype/StillImage"/>
    <dc:date>2021-11-22T18:03:29.147546</dc:date>
    <dc:format>image/svg+xml</dc:format>
    <dc:creator>
     <cc:Agent>
      <dc:title>Matplotlib v3.3.4, https://matplotlib.org/</dc:title>
     </cc:Agent>
    </dc:creator>
   </cc:Work>
  </rdf:RDF>
 </metadata>
 <defs>
  <style type="text/css">*{stroke-linecap:butt;stroke-linejoin:round;}</style>
 </defs>
 <g id="figure_1">
  <g id="patch_1">
   <path d="M 0 518.278437 
L 948.270156 518.278437 
L 948.270156 0 
L 0 0 
z
" style="fill:#ffffff;"/>
  </g>
  <g id="axes_1">
   <g id="patch_2">
    <path d="M 104.070156 450.72 
L 941.070156 450.72 
L 941.070156 7.2 
L 104.070156 7.2 
z
" style="fill:#ffffff;"/>
   </g>
   <g id="matplotlib.axis_1">
    <g id="xtick_1">
     <g id="line2d_1">
      <defs>
       <path d="M 0 0 
L 0 3.5 
" id="md531a5363b" style="stroke:#000000;stroke-width:0.8;"/>
      </defs>
      <g>
       <use style="stroke:#000000;stroke-width:0.8;" x="142.115611" xlink:href="#md531a5363b" y="450.72"/>
      </g>
     </g>
     <g id="text_1">
      <!-- 0.0 -->
      <g transform="translate(122.236705 476.716094)scale(0.25 -0.25)">
       <defs>
        <path d="M 31.78125 66.40625 
Q 24.171875 66.40625 20.328125 58.90625 
Q 16.5 51.421875 16.5 36.375 
Q 16.5 21.390625 20.328125 13.890625 
Q 24.171875 6.390625 31.78125 6.390625 
Q 39.453125 6.390625 43.28125 13.890625 
Q 47.125 21.390625 47.125 36.375 
Q 47.125 51.421875 43.28125 58.90625 
Q 39.453125 66.40625 31.78125 66.40625 
z
M 31.78125 74.21875 
Q 44.046875 74.21875 50.515625 64.515625 
Q 56.984375 54.828125 56.984375 36.375 
Q 56.984375 17.96875 50.515625 8.265625 
Q 44.046875 -1.421875 31.78125 -1.421875 
Q 19.53125 -1.421875 13.0625 8.265625 
Q 6.59375 17.96875 6.59375 36.375 
Q 6.59375 54.828125 13.0625 64.515625 
Q 19.53125 74.21875 31.78125 74.21875 
z
" id="DejaVuSans-48"/>
        <path d="M 10.6875 12.40625 
L 21 12.40625 
L 21 0 
L 10.6875 0 
z
" id="DejaVuSans-46"/>
       </defs>
       <use xlink:href="#DejaVuSans-48"/>
       <use x="63.623047" xlink:href="#DejaVuSans-46"/>
       <use x="95.410156" xlink:href="#DejaVuSans-48"/>
      </g>
     </g>
    </g>
    <g id="xtick_2">
     <g id="line2d_2">
      <g>
       <use style="stroke:#000000;stroke-width:0.8;" x="243.570156" xlink:href="#md531a5363b" y="450.72"/>
      </g>
     </g>
     <g id="text_2">
      <!-- 0.2 -->
      <g transform="translate(223.69125 476.716094)scale(0.25 -0.25)">
       <defs>
        <path d="M 19.1875 8.296875 
L 53.609375 8.296875 
L 53.609375 0 
L 7.328125 0 
L 7.328125 8.296875 
Q 12.9375 14.109375 22.625 23.890625 
Q 32.328125 33.6875 34.8125 36.53125 
Q 39.546875 41.84375 41.421875 45.53125 
Q 43.3125 49.21875 43.3125 52.78125 
Q 43.3125 58.59375 39.234375 62.25 
Q 35.15625 65.921875 28.609375 65.921875 
Q 23.96875 65.921875 18.8125 64.3125 
Q 13.671875 62.703125 7.8125 59.421875 
L 7.8125 69.390625 
Q 13.765625 71.78125 18.9375 73 
Q 24.125 74.21875 28.421875 74.21875 
Q 39.75 74.21875 46.484375 68.546875 
Q 53.21875 62.890625 53.21875 53.421875 
Q 53.21875 48.921875 51.53125 44.890625 
Q 49.859375 40.875 45.40625 35.40625 
Q 44.1875 33.984375 37.640625 27.21875 
Q 31.109375 20.453125 19.1875 8.296875 
z
" id="DejaVuSans-50"/>
       </defs>
       <use xlink:href="#DejaVuSans-48"/>
       <use x="63.623047" xlink:href="#DejaVuSans-46"/>
       <use x="95.410156" xlink:href="#DejaVuSans-50"/>
      </g>
     </g>
    </g>
    <g id="xtick_3">
     <g id="line2d_3">
      <g>
       <use style="stroke:#000000;stroke-width:0.8;" x="345.024702" xlink:href="#md531a5363b" y="450.72"/>
      </g>
     </g>
     <g id="text_3">
      <!-- 0.4 -->
      <g transform="translate(325.145795 476.716094)scale(0.25 -0.25)">
       <defs>
        <path d="M 37.796875 64.3125 
L 12.890625 25.390625 
L 37.796875 25.390625 
z
M 35.203125 72.90625 
L 47.609375 72.90625 
L 47.609375 25.390625 
L 58.015625 25.390625 
L 58.015625 17.1875 
L 47.609375 17.1875 
L 47.609375 0 
L 37.796875 0 
L 37.796875 17.1875 
L 4.890625 17.1875 
L 4.890625 26.703125 
z
" id="DejaVuSans-52"/>
       </defs>
       <use xlink:href="#DejaVuSans-48"/>
       <use x="63.623047" xlink:href="#DejaVuSans-46"/>
       <use x="95.410156" xlink:href="#DejaVuSans-52"/>
      </g>
     </g>
    </g>
    <g id="xtick_4">
     <g id="line2d_4">
      <g>
       <use style="stroke:#000000;stroke-width:0.8;" x="446.479247" xlink:href="#md531a5363b" y="450.72"/>
      </g>
     </g>
     <g id="text_4">
      <!-- 0.6 -->
      <g transform="translate(426.600341 476.716094)scale(0.25 -0.25)">
       <defs>
        <path d="M 33.015625 40.375 
Q 26.375 40.375 22.484375 35.828125 
Q 18.609375 31.296875 18.609375 23.390625 
Q 18.609375 15.53125 22.484375 10.953125 
Q 26.375 6.390625 33.015625 6.390625 
Q 39.65625 6.390625 43.53125 10.953125 
Q 47.40625 15.53125 47.40625 23.390625 
Q 47.40625 31.296875 43.53125 35.828125 
Q 39.65625 40.375 33.015625 40.375 
z
M 52.59375 71.296875 
L 52.59375 62.3125 
Q 48.875 64.0625 45.09375 64.984375 
Q 41.3125 65.921875 37.59375 65.921875 
Q 27.828125 65.921875 22.671875 59.328125 
Q 17.53125 52.734375 16.796875 39.40625 
Q 19.671875 43.65625 24.015625 45.921875 
Q 28.375 48.1875 33.59375 48.1875 
Q 44.578125 48.1875 50.953125 41.515625 
Q 57.328125 34.859375 57.328125 23.390625 
Q 57.328125 12.15625 50.6875 5.359375 
Q 44.046875 -1.421875 33.015625 -1.421875 
Q 20.359375 -1.421875 13.671875 8.265625 
Q 6.984375 17.96875 6.984375 36.375 
Q 6.984375 53.65625 15.1875 63.9375 
Q 23.390625 74.21875 37.203125 74.21875 
Q 40.921875 74.21875 44.703125 73.484375 
Q 48.484375 72.75 52.59375 71.296875 
z
" id="DejaVuSans-54"/>
       </defs>
       <use xlink:href="#DejaVuSans-48"/>
       <use x="63.623047" xlink:href="#DejaVuSans-46"/>
       <use x="95.410156" xlink:href="#DejaVuSans-54"/>
      </g>
     </g>
    </g>
    <g id="xtick_5">
     <g id="line2d_5">
      <g>
       <use style="stroke:#000000;stroke-width:0.8;" x="547.933793" xlink:href="#md531a5363b" y="450.72"/>
      </g>
     </g>
     <g id="text_5">
      <!-- 0.8 -->
      <g transform="translate(528.054886 476.716094)scale(0.25 -0.25)">
       <defs>
        <path d="M 31.78125 34.625 
Q 24.75 34.625 20.71875 30.859375 
Q 16.703125 27.09375 16.703125 20.515625 
Q 16.703125 13.921875 20.71875 10.15625 
Q 24.75 6.390625 31.78125 6.390625 
Q 38.8125 6.390625 42.859375 10.171875 
Q 46.921875 13.96875 46.921875 20.515625 
Q 46.921875 27.09375 42.890625 30.859375 
Q 38.875 34.625 31.78125 34.625 
z
M 21.921875 38.8125 
Q 15.578125 40.375 12.03125 44.71875 
Q 8.5 49.078125 8.5 55.328125 
Q 8.5 64.0625 14.71875 69.140625 
Q 20.953125 74.21875 31.78125 74.21875 
Q 42.671875 74.21875 48.875 69.140625 
Q 55.078125 64.0625 55.078125 55.328125 
Q 55.078125 49.078125 51.53125 44.71875 
Q 48 40.375 41.703125 38.8125 
Q 48.828125 37.15625 52.796875 32.3125 
Q 56.78125 27.484375 56.78125 20.515625 
Q 56.78125 9.90625 50.3125 4.234375 
Q 43.84375 -1.421875 31.78125 -1.421875 
Q 19.734375 -1.421875 13.25 4.234375 
Q 6.78125 9.90625 6.78125 20.515625 
Q 6.78125 27.484375 10.78125 32.3125 
Q 14.796875 37.15625 21.921875 38.8125 
z
M 18.3125 54.390625 
Q 18.3125 48.734375 21.84375 45.5625 
Q 25.390625 42.390625 31.78125 42.390625 
Q 38.140625 42.390625 41.71875 45.5625 
Q 45.3125 48.734375 45.3125 54.390625 
Q 45.3125 60.0625 41.71875 63.234375 
Q 38.140625 66.40625 31.78125 66.40625 
Q 25.390625 66.40625 21.84375 63.234375 
Q 18.3125 60.0625 18.3125 54.390625 
z
" id="DejaVuSans-56"/>
       </defs>
       <use xlink:href="#DejaVuSans-48"/>
       <use x="63.623047" xlink:href="#DejaVuSans-46"/>
       <use x="95.410156" xlink:href="#DejaVuSans-56"/>
      </g>
     </g>
    </g>
    <g id="xtick_6">
     <g id="line2d_6">
      <g>
       <use style="stroke:#000000;stroke-width:0.8;" x="649.388338" xlink:href="#md531a5363b" y="450.72"/>
      </g>
     </g>
     <g id="text_6">
      <!-- 1.0 -->
      <g transform="translate(629.509432 476.716094)scale(0.25 -0.25)">
       <defs>
        <path d="M 12.40625 8.296875 
L 28.515625 8.296875 
L 28.515625 63.921875 
L 10.984375 60.40625 
L 10.984375 69.390625 
L 28.421875 72.90625 
L 38.28125 72.90625 
L 38.28125 8.296875 
L 54.390625 8.296875 
L 54.390625 0 
L 12.40625 0 
z
" id="DejaVuSans-49"/>
       </defs>
       <use xlink:href="#DejaVuSans-49"/>
       <use x="63.623047" xlink:href="#DejaVuSans-46"/>
       <use x="95.410156" xlink:href="#DejaVuSans-48"/>
      </g>
     </g>
    </g>
    <g id="xtick_7">
     <g id="line2d_7">
      <g>
       <use style="stroke:#000000;stroke-width:0.8;" x="750.842884" xlink:href="#md531a5363b" y="450.72"/>
      </g>
     </g>
     <g id="text_7">
      <!-- 1.2 -->
      <g transform="translate(730.963977 476.716094)scale(0.25 -0.25)">
       <use xlink:href="#DejaVuSans-49"/>
       <use x="63.623047" xlink:href="#DejaVuSans-46"/>
       <use x="95.410156" xlink:href="#DejaVuSans-50"/>
      </g>
     </g>
    </g>
    <g id="xtick_8">
     <g id="line2d_8">
      <g>
       <use style="stroke:#000000;stroke-width:0.8;" x="852.297429" xlink:href="#md531a5363b" y="450.72"/>
      </g>
     </g>
     <g id="text_8">
      <!-- 1.4 -->
      <g transform="translate(832.418523 476.716094)scale(0.25 -0.25)">
       <use xlink:href="#DejaVuSans-49"/>
       <use x="63.623047" xlink:href="#DejaVuSans-46"/>
       <use x="95.410156" xlink:href="#DejaVuSans-52"/>
      </g>
     </g>
    </g>
    <g id="text_9">
     <!-- Beam Length [m] -->
     <g transform="translate(409.110625 505.67125)scale(0.26 -0.26)">
      <defs>
       <path d="M 19.671875 34.8125 
L 19.671875 8.109375 
L 35.5 8.109375 
Q 43.453125 8.109375 47.28125 11.40625 
Q 51.125 14.703125 51.125 21.484375 
Q 51.125 28.328125 47.28125 31.5625 
Q 43.453125 34.8125 35.5 34.8125 
z
M 19.671875 64.796875 
L 19.671875 42.828125 
L 34.28125 42.828125 
Q 41.5 42.828125 45.03125 45.53125 
Q 48.578125 48.25 48.578125 53.8125 
Q 48.578125 59.328125 45.03125 62.0625 
Q 41.5 64.796875 34.28125 64.796875 
z
M 9.8125 72.90625 
L 35.015625 72.90625 
Q 46.296875 72.90625 52.390625 68.21875 
Q 58.5 63.53125 58.5 54.890625 
Q 58.5 48.1875 55.375 44.234375 
Q 52.25 40.28125 46.1875 39.3125 
Q 53.46875 37.75 57.5 32.78125 
Q 61.53125 27.828125 61.53125 20.40625 
Q 61.53125 10.640625 54.890625 5.3125 
Q 48.25 0 35.984375 0 
L 9.8125 0 
z
" id="DejaVuSans-66"/>
       <path d="M 56.203125 29.59375 
L 56.203125 25.203125 
L 14.890625 25.203125 
Q 15.484375 15.921875 20.484375 11.0625 
Q 25.484375 6.203125 34.421875 6.203125 
Q 39.59375 6.203125 44.453125 7.46875 
Q 49.3125 8.734375 54.109375 11.28125 
L 54.109375 2.78125 
Q 49.265625 0.734375 44.1875 -0.34375 
Q 39.109375 -1.421875 33.890625 -1.421875 
Q 20.796875 -1.421875 13.15625 6.1875 
Q 5.515625 13.8125 5.515625 26.8125 
Q 5.515625 40.234375 12.765625 48.109375 
Q 20.015625 56 32.328125 56 
Q 43.359375 56 49.78125 48.890625 
Q 56.203125 41.796875 56.203125 29.59375 
z
M 47.21875 32.234375 
Q 47.125 39.59375 43.09375 43.984375 
Q 39.0625 48.390625 32.421875 48.390625 
Q 24.90625 48.390625 20.390625 44.140625 
Q 15.875 39.890625 15.1875 32.171875 
z
" id="DejaVuSans-101"/>
       <path d="M 34.28125 27.484375 
Q 23.390625 27.484375 19.1875 25 
Q 14.984375 22.515625 14.984375 16.5 
Q 14.984375 11.71875 18.140625 8.90625 
Q 21.296875 6.109375 26.703125 6.109375 
Q 34.1875 6.109375 38.703125 11.40625 
Q 43.21875 16.703125 43.21875 25.484375 
L 43.21875 27.484375 
z
M 52.203125 31.203125 
L 52.203125 0 
L 43.21875 0 
L 43.21875 8.296875 
Q 40.140625 3.328125 35.546875 0.953125 
Q 30.953125 -1.421875 24.3125 -1.421875 
Q 15.921875 -1.421875 10.953125 3.296875 
Q 6 8.015625 6 15.921875 
Q 6 25.140625 12.171875 29.828125 
Q 18.359375 34.515625 30.609375 34.515625 
L 43.21875 34.515625 
L 43.21875 35.40625 
Q 43.21875 41.609375 39.140625 45 
Q 35.0625 48.390625 27.6875 48.390625 
Q 23 48.390625 18.546875 47.265625 
Q 14.109375 46.140625 10.015625 43.890625 
L 10.015625 52.203125 
Q 14.9375 54.109375 19.578125 55.046875 
Q 24.21875 56 28.609375 56 
Q 40.484375 56 46.34375 49.84375 
Q 52.203125 43.703125 52.203125 31.203125 
z
" id="DejaVuSans-97"/>
       <path d="M 52 44.1875 
Q 55.375 50.25 60.0625 53.125 
Q 64.75 56 71.09375 56 
Q 79.640625 56 84.28125 50.015625 
Q 88.921875 44.046875 88.921875 33.015625 
L 88.921875 0 
L 79.890625 0 
L 79.890625 32.71875 
Q 79.890625 40.578125 77.09375 44.375 
Q 74.3125 48.1875 68.609375 48.1875 
Q 61.625 48.1875 57.5625 43.546875 
Q 53.515625 38.921875 53.515625 30.90625 
L 53.515625 0 
L 44.484375 0 
L 44.484375 32.71875 
Q 44.484375 40.625 41.703125 44.40625 
Q 38.921875 48.1875 33.109375 48.1875 
Q 26.21875 48.1875 22.15625 43.53125 
Q 18.109375 38.875 18.109375 30.90625 
L 18.109375 0 
L 9.078125 0 
L 9.078125 54.6875 
L 18.109375 54.6875 
L 18.109375 46.1875 
Q 21.1875 51.21875 25.484375 53.609375 
Q 29.78125 56 35.6875 56 
Q 41.65625 56 45.828125 52.96875 
Q 50 49.953125 52 44.1875 
z
" id="DejaVuSans-109"/>
       <path id="DejaVuSans-32"/>
       <path d="M 9.8125 72.90625 
L 19.671875 72.90625 
L 19.671875 8.296875 
L 55.171875 8.296875 
L 55.171875 0 
L 9.8125 0 
z
" id="DejaVuSans-76"/>
       <path d="M 54.890625 33.015625 
L 54.890625 0 
L 45.90625 0 
L 45.90625 32.71875 
Q 45.90625 40.484375 42.875 44.328125 
Q 39.84375 48.1875 33.796875 48.1875 
Q 26.515625 48.1875 22.3125 43.546875 
Q 18.109375 38.921875 18.109375 30.90625 
L 18.109375 0 
L 9.078125 0 
L 9.078125 54.6875 
L 18.109375 54.6875 
L 18.109375 46.1875 
Q 21.34375 51.125 25.703125 53.5625 
Q 30.078125 56 35.796875 56 
Q 45.21875 56 50.046875 50.171875 
Q 54.890625 44.34375 54.890625 33.015625 
z
" id="DejaVuSans-110"/>
       <path d="M 45.40625 27.984375 
Q 45.40625 37.75 41.375 43.109375 
Q 37.359375 48.484375 30.078125 48.484375 
Q 22.859375 48.484375 18.828125 43.109375 
Q 14.796875 37.75 14.796875 27.984375 
Q 14.796875 18.265625 18.828125 12.890625 
Q 22.859375 7.515625 30.078125 7.515625 
Q 37.359375 7.515625 41.375 12.890625 
Q 45.40625 18.265625 45.40625 27.984375 
z
M 54.390625 6.78125 
Q 54.390625 -7.171875 48.1875 -13.984375 
Q 42 -20.796875 29.203125 -20.796875 
Q 24.46875 -20.796875 20.265625 -20.09375 
Q 16.0625 -19.390625 12.109375 -17.921875 
L 12.109375 -9.1875 
Q 16.0625 -11.328125 19.921875 -12.34375 
Q 23.78125 -13.375 27.78125 -13.375 
Q 36.625 -13.375 41.015625 -8.765625 
Q 45.40625 -4.15625 45.40625 5.171875 
L 45.40625 9.625 
Q 42.625 4.78125 38.28125 2.390625 
Q 33.9375 0 27.875 0 
Q 17.828125 0 11.671875 7.65625 
Q 5.515625 15.328125 5.515625 27.984375 
Q 5.515625 40.671875 11.671875 48.328125 
Q 17.828125 56 27.875 56 
Q 33.9375 56 38.28125 53.609375 
Q 42.625 51.21875 45.40625 46.390625 
L 45.40625 54.6875 
L 54.390625 54.6875 
z
" id="DejaVuSans-103"/>
       <path d="M 18.3125 70.21875 
L 18.3125 54.6875 
L 36.8125 54.6875 
L 36.8125 47.703125 
L 18.3125 47.703125 
L 18.3125 18.015625 
Q 18.3125 11.328125 20.140625 9.421875 
Q 21.96875 7.515625 27.59375 7.515625 
L 36.8125 7.515625 
L 36.8125 0 
L 27.59375 0 
Q 17.1875 0 13.234375 3.875 
Q 9.28125 7.765625 9.28125 18.015625 
L 9.28125 47.703125 
L 2.6875 47.703125 
L 2.6875 54.6875 
L 9.28125 54.6875 
L 9.28125 70.21875 
z
" id="DejaVuSans-116"/>
       <path d="M 54.890625 33.015625 
L 54.890625 0 
L 45.90625 0 
L 45.90625 32.71875 
Q 45.90625 40.484375 42.875 44.328125 
Q 39.84375 48.1875 33.796875 48.1875 
Q 26.515625 48.1875 22.3125 43.546875 
Q 18.109375 38.921875 18.109375 30.90625 
L 18.109375 0 
L 9.078125 0 
L 9.078125 75.984375 
L 18.109375 75.984375 
L 18.109375 46.1875 
Q 21.34375 51.125 25.703125 53.5625 
Q 30.078125 56 35.796875 56 
Q 45.21875 56 50.046875 50.171875 
Q 54.890625 44.34375 54.890625 33.015625 
z
" id="DejaVuSans-104"/>
       <path d="M 8.59375 75.984375 
L 29.296875 75.984375 
L 29.296875 69 
L 17.578125 69 
L 17.578125 -6.203125 
L 29.296875 -6.203125 
L 29.296875 -13.1875 
L 8.59375 -13.1875 
z
" id="DejaVuSans-91"/>
       <path d="M 30.421875 75.984375 
L 30.421875 -13.1875 
L 9.71875 -13.1875 
L 9.71875 -6.203125 
L 21.390625 -6.203125 
L 21.390625 69 
L 9.71875 69 
L 9.71875 75.984375 
z
" id="DejaVuSans-93"/>
      </defs>
      <use xlink:href="#DejaVuSans-66"/>
      <use x="68.603516" xlink:href="#DejaVuSans-101"/>
      <use x="130.126953" xlink:href="#DejaVuSans-97"/>
      <use x="191.40625" xlink:href="#DejaVuSans-109"/>
      <use x="288.818359" xlink:href="#DejaVuSans-32"/>
      <use x="320.605469" xlink:href="#DejaVuSans-76"/>
      <use x="374.568359" xlink:href="#DejaVuSans-101"/>
      <use x="436.091797" xlink:href="#DejaVuSans-110"/>
      <use x="499.470703" xlink:href="#DejaVuSans-103"/>
      <use x="562.947266" xlink:href="#DejaVuSans-116"/>
      <use x="602.15625" xlink:href="#DejaVuSans-104"/>
      <use x="665.535156" xlink:href="#DejaVuSans-32"/>
      <use x="697.322266" xlink:href="#DejaVuSans-91"/>
      <use x="736.335938" xlink:href="#DejaVuSans-109"/>
      <use x="833.748047" xlink:href="#DejaVuSans-93"/>
     </g>
    </g>
   </g>
   <g id="matplotlib.axis_2">
    <g id="ytick_1">
     <g id="line2d_9">
      <defs>
       <path d="M 0 0 
L -3.5 0 
" id="m1282f31aab" style="stroke:#000000;stroke-width:0.8;"/>
      </defs>
      <g>
       <use style="stroke:#000000;stroke-width:0.8;" x="104.070156" xlink:href="#m1282f31aab" y="422.795745"/>
      </g>
     </g>
     <g id="text_10">
      <!-- −1.5 -->
      <g transform="translate(36.363125 432.293792)scale(0.25 -0.25)">
       <defs>
        <path d="M 10.59375 35.5 
L 73.1875 35.5 
L 73.1875 27.203125 
L 10.59375 27.203125 
z
" id="DejaVuSans-8722"/>
        <path d="M 10.796875 72.90625 
L 49.515625 72.90625 
L 49.515625 64.59375 
L 19.828125 64.59375 
L 19.828125 46.734375 
Q 21.96875 47.46875 24.109375 47.828125 
Q 26.265625 48.1875 28.421875 48.1875 
Q 40.625 48.1875 47.75 41.5 
Q 54.890625 34.8125 54.890625 23.390625 
Q 54.890625 11.625 47.5625 5.09375 
Q 40.234375 -1.421875 26.90625 -1.421875 
Q 22.3125 -1.421875 17.546875 -0.640625 
Q 12.796875 0.140625 7.71875 1.703125 
L 7.71875 11.625 
Q 12.109375 9.234375 16.796875 8.0625 
Q 21.484375 6.890625 26.703125 6.890625 
Q 35.15625 6.890625 40.078125 11.328125 
Q 45.015625 15.765625 45.015625 23.390625 
Q 45.015625 31 40.078125 35.4375 
Q 35.15625 39.890625 26.703125 39.890625 
Q 22.75 39.890625 18.8125 39.015625 
Q 14.890625 38.140625 10.796875 36.28125 
z
" id="DejaVuSans-53"/>
       </defs>
       <use xlink:href="#DejaVuSans-8722"/>
       <use x="83.789062" xlink:href="#DejaVuSans-49"/>
       <use x="147.412109" xlink:href="#DejaVuSans-46"/>
       <use x="179.199219" xlink:href="#DejaVuSans-53"/>
      </g>
     </g>
    </g>
    <g id="ytick_2">
     <g id="line2d_10">
      <g>
       <use style="stroke:#000000;stroke-width:0.8;" x="104.070156" xlink:href="#m1282f31aab" y="360.568142"/>
      </g>
     </g>
     <g id="text_11">
      <!-- −1.0 -->
      <g transform="translate(36.363125 370.066189)scale(0.25 -0.25)">
       <use xlink:href="#DejaVuSans-8722"/>
       <use x="83.789062" xlink:href="#DejaVuSans-49"/>
       <use x="147.412109" xlink:href="#DejaVuSans-46"/>
       <use x="179.199219" xlink:href="#DejaVuSans-48"/>
      </g>
     </g>
    </g>
    <g id="ytick_3">
     <g id="line2d_11">
      <g>
       <use style="stroke:#000000;stroke-width:0.8;" x="104.070156" xlink:href="#m1282f31aab" y="298.340539"/>
      </g>
     </g>
     <g id="text_12">
      <!-- −0.5 -->
      <g transform="translate(36.363125 307.838586)scale(0.25 -0.25)">
       <use xlink:href="#DejaVuSans-8722"/>
       <use x="83.789062" xlink:href="#DejaVuSans-48"/>
       <use x="147.412109" xlink:href="#DejaVuSans-46"/>
       <use x="179.199219" xlink:href="#DejaVuSans-53"/>
      </g>
     </g>
    </g>
    <g id="ytick_4">
     <g id="line2d_12">
      <g>
       <use style="stroke:#000000;stroke-width:0.8;" x="104.070156" xlink:href="#m1282f31aab" y="236.112936"/>
      </g>
     </g>
     <g id="text_13">
      <!-- 0.0 -->
      <g transform="translate(57.312344 245.610983)scale(0.25 -0.25)">
       <use xlink:href="#DejaVuSans-48"/>
       <use x="63.623047" xlink:href="#DejaVuSans-46"/>
       <use x="95.410156" xlink:href="#DejaVuSans-48"/>
      </g>
     </g>
    </g>
    <g id="ytick_5">
     <g id="line2d_13">
      <g>
       <use style="stroke:#000000;stroke-width:0.8;" x="104.070156" xlink:href="#m1282f31aab" y="173.885333"/>
      </g>
     </g>
     <g id="text_14">
      <!-- 0.5 -->
      <g transform="translate(57.312344 183.38338)scale(0.25 -0.25)">
       <use xlink:href="#DejaVuSans-48"/>
       <use x="63.623047" xlink:href="#DejaVuSans-46"/>
       <use x="95.410156" xlink:href="#DejaVuSans-53"/>
      </g>
     </g>
    </g>
    <g id="ytick_6">
     <g id="line2d_14">
      <g>
       <use style="stroke:#000000;stroke-width:0.8;" x="104.070156" xlink:href="#m1282f31aab" y="111.65773"/>
      </g>
     </g>
     <g id="text_15">
      <!-- 1.0 -->
      <g transform="translate(57.312344 121.155777)scale(0.25 -0.25)">
       <use xlink:href="#DejaVuSans-49"/>
       <use x="63.623047" xlink:href="#DejaVuSans-46"/>
       <use x="95.410156" xlink:href="#DejaVuSans-48"/>
      </g>
     </g>
    </g>
    <g id="ytick_7">
     <g id="line2d_15">
      <g>
       <use style="stroke:#000000;stroke-width:0.8;" x="104.070156" xlink:href="#m1282f31aab" y="49.430127"/>
      </g>
     </g>
     <g id="text_16">
      <!-- 1.5 -->
      <g transform="translate(57.312344 58.928174)scale(0.25 -0.25)">
       <use xlink:href="#DejaVuSans-49"/>
       <use x="63.623047" xlink:href="#DejaVuSans-46"/>
       <use x="95.410156" xlink:href="#DejaVuSans-53"/>
      </g>
     </g>
    </g>
    <g id="text_17">
     <!-- Amplitude -->
     <g transform="translate(26.955938 295.578906)rotate(-90)scale(0.26 -0.26)">
      <defs>
       <path d="M 34.1875 63.1875 
L 20.796875 26.90625 
L 47.609375 26.90625 
z
M 28.609375 72.90625 
L 39.796875 72.90625 
L 67.578125 0 
L 57.328125 0 
L 50.6875 18.703125 
L 17.828125 18.703125 
L 11.1875 0 
L 0.78125 0 
z
" id="DejaVuSans-65"/>
       <path d="M 18.109375 8.203125 
L 18.109375 -20.796875 
L 9.078125 -20.796875 
L 9.078125 54.6875 
L 18.109375 54.6875 
L 18.109375 46.390625 
Q 20.953125 51.265625 25.265625 53.625 
Q 29.59375 56 35.59375 56 
Q 45.5625 56 51.78125 48.09375 
Q 58.015625 40.1875 58.015625 27.296875 
Q 58.015625 14.40625 51.78125 6.484375 
Q 45.5625 -1.421875 35.59375 -1.421875 
Q 29.59375 -1.421875 25.265625 0.953125 
Q 20.953125 3.328125 18.109375 8.203125 
z
M 48.6875 27.296875 
Q 48.6875 37.203125 44.609375 42.84375 
Q 40.53125 48.484375 33.40625 48.484375 
Q 26.265625 48.484375 22.1875 42.84375 
Q 18.109375 37.203125 18.109375 27.296875 
Q 18.109375 17.390625 22.1875 11.75 
Q 26.265625 6.109375 33.40625 6.109375 
Q 40.53125 6.109375 44.609375 11.75 
Q 48.6875 17.390625 48.6875 27.296875 
z
" id="DejaVuSans-112"/>
       <path d="M 9.421875 75.984375 
L 18.40625 75.984375 
L 18.40625 0 
L 9.421875 0 
z
" id="DejaVuSans-108"/>
       <path d="M 9.421875 54.6875 
L 18.40625 54.6875 
L 18.40625 0 
L 9.421875 0 
z
M 9.421875 75.984375 
L 18.40625 75.984375 
L 18.40625 64.59375 
L 9.421875 64.59375 
z
" id="DejaVuSans-105"/>
       <path d="M 8.5 21.578125 
L 8.5 54.6875 
L 17.484375 54.6875 
L 17.484375 21.921875 
Q 17.484375 14.15625 20.5 10.265625 
Q 23.53125 6.390625 29.59375 6.390625 
Q 36.859375 6.390625 41.078125 11.03125 
Q 45.3125 15.671875 45.3125 23.6875 
L 45.3125 54.6875 
L 54.296875 54.6875 
L 54.296875 0 
L 45.3125 0 
L 45.3125 8.40625 
Q 42.046875 3.421875 37.71875 1 
Q 33.40625 -1.421875 27.6875 -1.421875 
Q 18.265625 -1.421875 13.375 4.4375 
Q 8.5 10.296875 8.5 21.578125 
z
M 31.109375 56 
z
" id="DejaVuSans-117"/>
       <path d="M 45.40625 46.390625 
L 45.40625 75.984375 
L 54.390625 75.984375 
L 54.390625 0 
L 45.40625 0 
L 45.40625 8.203125 
Q 42.578125 3.328125 38.25 0.953125 
Q 33.9375 -1.421875 27.875 -1.421875 
Q 17.96875 -1.421875 11.734375 6.484375 
Q 5.515625 14.40625 5.515625 27.296875 
Q 5.515625 40.1875 11.734375 48.09375 
Q 17.96875 56 27.875 56 
Q 33.9375 56 38.25 53.625 
Q 42.578125 51.265625 45.40625 46.390625 
z
M 14.796875 27.296875 
Q 14.796875 17.390625 18.875 11.75 
Q 22.953125 6.109375 30.078125 6.109375 
Q 37.203125 6.109375 41.296875 11.75 
Q 45.40625 17.390625 45.40625 27.296875 
Q 45.40625 37.203125 41.296875 42.84375 
Q 37.203125 48.484375 30.078125 48.484375 
Q 22.953125 48.484375 18.875 42.84375 
Q 14.796875 37.203125 14.796875 27.296875 
z
" id="DejaVuSans-100"/>
      </defs>
      <use xlink:href="#DejaVuSans-65"/>
      <use x="68.408203" xlink:href="#DejaVuSans-109"/>
      <use x="165.820312" xlink:href="#DejaVuSans-112"/>
      <use x="229.296875" xlink:href="#DejaVuSans-108"/>
      <use x="257.080078" xlink:href="#DejaVuSans-105"/>
      <use x="284.863281" xlink:href="#DejaVuSans-116"/>
      <use x="324.072266" xlink:href="#DejaVuSans-117"/>
      <use x="387.451172" xlink:href="#DejaVuSans-100"/>
      <use x="450.927734" xlink:href="#DejaVuSans-101"/>
     </g>
    </g>
   </g>
   <g id="line2d_16">
    <defs>
     <path d="M 0 -3 
L -3 3 
L 3 3 
z
" id="m52d7f96d10" style="stroke:#000000;stroke-linejoin:miter;"/>
    </defs>
    <g clip-path="url(#pa3becc4677)">
     <use style="stroke:#000000;stroke-linejoin:miter;" x="142.115611" xlink:href="#m52d7f96d10" y="236.112936"/>
     <use style="stroke:#000000;stroke-linejoin:miter;" x="147.188338" xlink:href="#m52d7f96d10" y="240.856116"/>
     <use style="stroke:#000000;stroke-linejoin:miter;" x="152.261065" xlink:href="#m52d7f96d10" y="253.594289"/>
     <use style="stroke:#000000;stroke-linejoin:miter;" x="157.333793" xlink:href="#m52d7f96d10" y="272.283835"/>
     <use style="stroke:#000000;stroke-linejoin:miter;" x="162.40652" xlink:href="#m52d7f96d10" y="294.959949"/>
     <use style="stroke:#000000;stroke-linejoin:miter;" x="167.479247" xlink:href="#m52d7f96d10" y="319.761534"/>
     <use style="stroke:#000000;stroke-linejoin:miter;" x="172.551974" xlink:href="#m52d7f96d10" y="344.9585"/>
     <use style="stroke:#000000;stroke-linejoin:miter;" x="177.624702" xlink:href="#m52d7f96d10" y="368.979347"/>
     <use style="stroke:#000000;stroke-linejoin:miter;" x="182.697429" xlink:href="#m52d7f96d10" y="390.437643"/>
     <use style="stroke:#000000;stroke-linejoin:miter;" x="187.770156" xlink:href="#m52d7f96d10" y="408.154785"/>
     <use style="stroke:#000000;stroke-linejoin:miter;" x="192.842884" xlink:href="#m52d7f96d10" y="421.179725"/>
     <use style="stroke:#000000;stroke-linejoin:miter;" x="197.915611" xlink:href="#m52d7f96d10" y="428.801987"/>
     <use style="stroke:#000000;stroke-linejoin:miter;" x="202.988338" xlink:href="#m52d7f96d10" y="430.56"/>
     <use style="stroke:#000000;stroke-linejoin:miter;" x="208.061065" xlink:href="#m52d7f96d10" y="426.241477"/>
     <use style="stroke:#000000;stroke-linejoin:miter;" x="213.133793" xlink:href="#m52d7f96d10" y="415.877804"/>
     <use style="stroke:#000000;stroke-linejoin:miter;" x="218.20652" xlink:href="#m52d7f96d10" y="399.732226"/>
     <use style="stroke:#000000;stroke-linejoin:miter;" x="223.279247" xlink:href="#m52d7f96d10" y="378.280424"/>
     <use style="stroke:#000000;stroke-linejoin:miter;" x="228.351974" xlink:href="#m52d7f96d10" y="352.186508"/>
     <use style="stroke:#000000;stroke-linejoin:miter;" x="233.424702" xlink:href="#m52d7f96d10" y="322.273573"/>
     <use style="stroke:#000000;stroke-linejoin:miter;" x="238.497429" xlink:href="#m52d7f96d10" y="289.490524"/>
     <use style="stroke:#000000;stroke-linejoin:miter;" x="243.570156" xlink:href="#m52d7f96d10" y="254.875957"/>
     <use style="stroke:#000000;stroke-linejoin:miter;" x="248.642884" xlink:href="#m52d7f96d10" y="219.520314"/>
     <use style="stroke:#000000;stroke-linejoin:miter;" x="253.715611" xlink:href="#m52d7f96d10" y="184.527734"/>
     <use style="stroke:#000000;stroke-linejoin:miter;" x="258.788338" xlink:href="#m52d7f96d10" y="150.978465"/>
     <use style="stroke:#000000;stroke-linejoin:miter;" x="263.861065" xlink:href="#m52d7f96d10" y="119.893248"/>
     <use style="stroke:#000000;stroke-linejoin:miter;" x="268.933793" xlink:href="#m52d7f96d10" y="92.200616"/>
     <use style="stroke:#000000;stroke-linejoin:miter;" x="274.00652" xlink:href="#m52d7f96d10" y="68.708017"/>
     <use style="stroke:#000000;stroke-linejoin:miter;" x="279.079247" xlink:href="#m52d7f96d10" y="50.077924"/>
     <use style="stroke:#000000;stroke-linejoin:miter;" x="284.151974" xlink:href="#m52d7f96d10" y="36.808664"/>
     <use style="stroke:#000000;stroke-linejoin:miter;" x="289.224702" xlink:href="#m52d7f96d10" y="29.221703"/>
     <use style="stroke:#000000;stroke-linejoin:miter;" x="294.297429" xlink:href="#m52d7f96d10" y="27.454673"/>
     <use style="stroke:#000000;stroke-linejoin:miter;" x="299.370156" xlink:href="#m52d7f96d10" y="31.459754"/>
     <use style="stroke:#000000;stroke-linejoin:miter;" x="304.442884" xlink:href="#m52d7f96d10" y="41.009911"/>
     <use style="stroke:#000000;stroke-linejoin:miter;" x="309.515611" xlink:href="#m52d7f96d10" y="55.708058"/>
     <use style="stroke:#000000;stroke-linejoin:miter;" x="314.588338" xlink:href="#m52d7f96d10" y="75.003942"/>
     <use style="stroke:#000000;stroke-linejoin:miter;" x="319.661065" xlink:href="#m52d7f96d10" y="98.213768"/>
     <use style="stroke:#000000;stroke-linejoin:miter;" x="324.733793" xlink:href="#m52d7f96d10" y="124.544556"/>
     <use style="stroke:#000000;stroke-linejoin:miter;" x="329.80652" xlink:href="#m52d7f96d10" y="153.120716"/>
     <use style="stroke:#000000;stroke-linejoin:miter;" x="334.879247" xlink:href="#m52d7f96d10" y="183.013164"/>
     <use style="stroke:#000000;stroke-linejoin:miter;" x="339.951974" xlink:href="#m52d7f96d10" y="213.269199"/>
     <use style="stroke:#000000;stroke-linejoin:miter;" x="345.024702" xlink:href="#m52d7f96d10" y="242.942503"/>
     <use style="stroke:#000000;stroke-linejoin:miter;" x="350.097429" xlink:href="#m52d7f96d10" y="271.122322"/>
     <use style="stroke:#000000;stroke-linejoin:miter;" x="355.170156" xlink:href="#m52d7f96d10" y="296.960928"/>
     <use style="stroke:#000000;stroke-linejoin:miter;" x="360.242884" xlink:href="#m52d7f96d10" y="319.698434"/>
     <use style="stroke:#000000;stroke-linejoin:miter;" x="365.315611" xlink:href="#m52d7f96d10" y="338.684548"/>
     <use style="stroke:#000000;stroke-linejoin:miter;" x="370.388338" xlink:href="#m52d7f96d10" y="353.396349"/>
     <use style="stroke:#000000;stroke-linejoin:miter;" x="375.461065" xlink:href="#m52d7f96d10" y="363.451856"/>
     <use style="stroke:#000000;stroke-linejoin:miter;" x="380.533793" xlink:href="#m52d7f96d10" y="368.618651"/>
     <use style="stroke:#000000;stroke-linejoin:miter;" x="385.60652" xlink:href="#m52d7f96d10" y="368.818838"/>
     <use style="stroke:#000000;stroke-linejoin:miter;" x="390.679247" xlink:href="#m52d7f96d10" y="364.127387"/>
     <use style="stroke:#000000;stroke-linejoin:miter;" x="395.751974" xlink:href="#m52d7f96d10" y="354.767335"/>
     <use style="stroke:#000000;stroke-linejoin:miter;" x="400.824702" xlink:href="#m52d7f96d10" y="341.100473"/>
     <use style="stroke:#000000;stroke-linejoin:miter;" x="405.897429" xlink:href="#m52d7f96d10" y="323.612899"/>
     <use style="stroke:#000000;stroke-linejoin:miter;" x="410.970156" xlink:href="#m52d7f96d10" y="302.898064"/>
     <use style="stroke:#000000;stroke-linejoin:miter;" x="416.042884" xlink:href="#m52d7f96d10" y="279.636875"/>
     <use style="stroke:#000000;stroke-linejoin:miter;" x="421.115611" xlink:href="#m52d7f96d10" y="254.575044"/>
     <use style="stroke:#000000;stroke-linejoin:miter;" x="426.188338" xlink:href="#m52d7f96d10" y="228.499289"/>
     <use style="stroke:#000000;stroke-linejoin:miter;" x="431.261065" xlink:href="#m52d7f96d10" y="202.212591"/>
     <use style="stroke:#000000;stroke-linejoin:miter;" x="436.333793" xlink:href="#m52d7f96d10" y="176.509583"/>
     <use style="stroke:#000000;stroke-linejoin:miter;" x="441.40652" xlink:href="#m52d7f96d10" y="152.152455"/>
     <use style="stroke:#000000;stroke-linejoin:miter;" x="446.479247" xlink:href="#m52d7f96d10" y="129.848489"/>
     <use style="stroke:#000000;stroke-linejoin:miter;" x="451.551974" xlink:href="#m52d7f96d10" y="110.229582"/>
     <use style="stroke:#000000;stroke-linejoin:miter;" x="456.624702" xlink:href="#m52d7f96d10" y="93.834338"/>
     <use style="stroke:#000000;stroke-linejoin:miter;" x="461.697429" xlink:href="#m52d7f96d10" y="81.093398"/>
     <use style="stroke:#000000;stroke-linejoin:miter;" x="466.770156" xlink:href="#m52d7f96d10" y="72.318336"/>
     <use style="stroke:#000000;stroke-linejoin:miter;" x="471.842884" xlink:href="#m52d7f96d10" y="67.694103"/>
     <use style="stroke:#000000;stroke-linejoin:miter;" x="476.915611" xlink:href="#m52d7f96d10" y="67.275435"/>
     <use style="stroke:#000000;stroke-linejoin:miter;" x="481.988338" xlink:href="#m52d7f96d10" y="70.987822"/>
     <use style="stroke:#000000;stroke-linejoin:miter;" x="487.061065" xlink:href="#m52d7f96d10" y="78.631226"/>
     <use style="stroke:#000000;stroke-linejoin:miter;" x="492.133793" xlink:href="#m52d7f96d10" y="89.888523"/>
     <use style="stroke:#000000;stroke-linejoin:miter;" x="497.20652" xlink:href="#m52d7f96d10" y="104.336777"/>
     <use style="stroke:#000000;stroke-linejoin:miter;" x="502.279247" xlink:href="#m52d7f96d10" y="121.461701"/>
     <use style="stroke:#000000;stroke-linejoin:miter;" x="507.351974" xlink:href="#m52d7f96d10" y="140.674548"/>
     <use style="stroke:#000000;stroke-linejoin:miter;" x="512.424702" xlink:href="#m52d7f96d10" y="161.331063"/>
     <use style="stroke:#000000;stroke-linejoin:miter;" x="517.497429" xlink:href="#m52d7f96d10" y="182.751663"/>
     <use style="stroke:#000000;stroke-linejoin:miter;" x="522.570156" xlink:href="#m52d7f96d10" y="204.242571"/>
     <use style="stroke:#000000;stroke-linejoin:miter;" x="527.642884" xlink:href="#m52d7f96d10" y="225.116871"/>
     <use style="stroke:#000000;stroke-linejoin:miter;" x="532.715611" xlink:href="#m52d7f96d10" y="244.715317"/>
     <use style="stroke:#000000;stroke-linejoin:miter;" x="537.788338" xlink:href="#m52d7f96d10" y="262.425704"/>
     <use style="stroke:#000000;stroke-linejoin:miter;" x="542.861065" xlink:href="#m52d7f96d10" y="277.700875"/>
     <use style="stroke:#000000;stroke-linejoin:miter;" x="547.933793" xlink:href="#m52d7f96d10" y="290.074361"/>
     <use style="stroke:#000000;stroke-linejoin:miter;" x="553.00652" xlink:href="#m52d7f96d10" y="299.173505"/>
     <use style="stroke:#000000;stroke-linejoin:miter;" x="558.079247" xlink:href="#m52d7f96d10" y="304.729547"/>
     <use style="stroke:#000000;stroke-linejoin:miter;" x="563.151974" xlink:href="#m52d7f96d10" y="306.584464"/>
     <use style="stroke:#000000;stroke-linejoin:miter;" x="568.224702" xlink:href="#m52d7f96d10" y="304.694699"/>
     <use style="stroke:#000000;stroke-linejoin:miter;" x="573.297429" xlink:href="#m52d7f96d10" y="299.130767"/>
     <use style="stroke:#000000;stroke-linejoin:miter;" x="578.370156" xlink:href="#m52d7f96d10" y="290.074486"/>
     <use style="stroke:#000000;stroke-linejoin:miter;" x="583.442884" xlink:href="#m52d7f96d10" y="277.811578"/>
     <use style="stroke:#000000;stroke-linejoin:miter;" x="588.515611" xlink:href="#m52d7f96d10" y="262.722604"/>
     <use style="stroke:#000000;stroke-linejoin:miter;" x="593.588338" xlink:href="#m52d7f96d10" y="245.270139"/>
     <use style="stroke:#000000;stroke-linejoin:miter;" x="598.661065" xlink:href="#m52d7f96d10" y="225.984186"/>
     <use style="stroke:#000000;stroke-linejoin:miter;" x="603.733793" xlink:href="#m52d7f96d10" y="205.445406"/>
     <use style="stroke:#000000;stroke-linejoin:miter;" x="608.80652" xlink:href="#m52d7f96d10" y="184.2672"/>
     <use style="stroke:#000000;stroke-linejoin:miter;" x="613.879247" xlink:href="#m52d7f96d10" y="163.07685"/>
     <use style="stroke:#000000;stroke-linejoin:miter;" x="618.951974" xlink:href="#m52d7f96d10" y="142.496386"/>
     <use style="stroke:#000000;stroke-linejoin:miter;" x="624.024702" xlink:href="#m52d7f96d10" y="123.123913"/>
     <use style="stroke:#000000;stroke-linejoin:miter;" x="629.097429" xlink:href="#m52d7f96d10" y="105.515704"/>
     <use style="stroke:#000000;stroke-linejoin:miter;" x="634.170156" xlink:href="#m52d7f96d10" y="90.16963"/>
     <use style="stroke:#000000;stroke-linejoin:miter;" x="639.242884" xlink:href="#m52d7f96d10" y="77.510656"/>
     <use style="stroke:#000000;stroke-linejoin:miter;" x="644.315611" xlink:href="#m52d7f96d10" y="67.878433"/>
     <use style="stroke:#000000;stroke-linejoin:miter;" x="649.388338" xlink:href="#m52d7f96d10" y="61.51764"/>
     <use style="stroke:#000000;stroke-linejoin:miter;" x="654.461065" xlink:href="#m52d7f96d10" y="58.571225"/>
     <use style="stroke:#000000;stroke-linejoin:miter;" x="659.533793" xlink:href="#m52d7f96d10" y="59.076787"/>
     <use style="stroke:#000000;stroke-linejoin:miter;" x="664.60652" xlink:href="#m52d7f96d10" y="62.966037"/>
     <use style="stroke:#000000;stroke-linejoin:miter;" x="669.679247" xlink:href="#m52d7f96d10" y="70.067563"/>
     <use style="stroke:#000000;stroke-linejoin:miter;" x="674.751974" xlink:href="#m52d7f96d10" y="80.112617"/>
     <use style="stroke:#000000;stroke-linejoin:miter;" x="679.824702" xlink:href="#m52d7f96d10" y="92.743837"/>
     <use style="stroke:#000000;stroke-linejoin:miter;" x="684.897429" xlink:href="#m52d7f96d10" y="107.526527"/>
     <use style="stroke:#000000;stroke-linejoin:miter;" x="689.970156" xlink:href="#m52d7f96d10" y="123.962367"/>
     <use style="stroke:#000000;stroke-linejoin:miter;" x="695.042884" xlink:href="#m52d7f96d10" y="141.504788"/>
     <use style="stroke:#000000;stroke-linejoin:miter;" x="700.115611" xlink:href="#m52d7f96d10" y="159.575884"/>
     <use style="stroke:#000000;stroke-linejoin:miter;" x="705.188338" xlink:href="#m52d7f96d10" y="177.584092"/>
     <use style="stroke:#000000;stroke-linejoin:miter;" x="710.261065" xlink:href="#m52d7f96d10" y="194.942382"/>
     <use style="stroke:#000000;stroke-linejoin:miter;" x="715.333793" xlink:href="#m52d7f96d10" y="211.08599"/>
     <use style="stroke:#000000;stroke-linejoin:miter;" x="720.40652" xlink:href="#m52d7f96d10" y="225.489726"/>
     <use style="stroke:#000000;stroke-linejoin:miter;" x="725.479247" xlink:href="#m52d7f96d10" y="237.68381"/>
     <use style="stroke:#000000;stroke-linejoin:miter;" x="730.551974" xlink:href="#m52d7f96d10" y="247.268018"/>
     <use style="stroke:#000000;stroke-linejoin:miter;" x="735.624702" xlink:href="#m52d7f96d10" y="253.923857"/>
     <use style="stroke:#000000;stroke-linejoin:miter;" x="740.697429" xlink:href="#m52d7f96d10" y="257.423986"/>
     <use style="stroke:#000000;stroke-linejoin:miter;" x="745.770156" xlink:href="#m52d7f96d10" y="257.639044"/>
     <use style="stroke:#000000;stroke-linejoin:miter;" x="750.842884" xlink:href="#m52d7f96d10" y="254.541454"/>
     <use style="stroke:#000000;stroke-linejoin:miter;" x="755.915611" xlink:href="#m52d7f96d10" y="248.206124"/>
     <use style="stroke:#000000;stroke-linejoin:miter;" x="760.988338" xlink:href="#m52d7f96d10" y="238.808026"/>
     <use style="stroke:#000000;stroke-linejoin:miter;" x="766.061065" xlink:href="#m52d7f96d10" y="226.616805"/>
     <use style="stroke:#000000;stroke-linejoin:miter;" x="771.133793" xlink:href="#m52d7f96d10" y="211.988551"/>
     <use style="stroke:#000000;stroke-linejoin:miter;" x="776.20652" xlink:href="#m52d7f96d10" y="195.354901"/>
     <use style="stroke:#000000;stroke-linejoin:miter;" x="781.279247" xlink:href="#m52d7f96d10" y="177.209942"/>
     <use style="stroke:#000000;stroke-linejoin:miter;" x="786.351974" xlink:href="#m52d7f96d10" y="158.095278"/>
     <use style="stroke:#000000;stroke-linejoin:miter;" x="791.424702" xlink:href="#m52d7f96d10" y="138.583692"/>
     <use style="stroke:#000000;stroke-linejoin:miter;" x="796.497429" xlink:href="#m52d7f96d10" y="119.261881"/>
     <use style="stroke:#000000;stroke-linejoin:miter;" x="801.570156" xlink:href="#m52d7f96d10" y="100.71299"/>
     <use style="stroke:#000000;stroke-linejoin:miter;" x="806.642884" xlink:href="#m52d7f96d10" y="83.49918"/>
     <use style="stroke:#000000;stroke-linejoin:miter;" x="811.715611" xlink:href="#m52d7f96d10" y="68.145091"/>
     <use style="stroke:#000000;stroke-linejoin:miter;" x="816.788338" xlink:href="#m52d7f96d10" y="55.122509"/>
     <use style="stroke:#000000;stroke-linejoin:miter;" x="821.861065" xlink:href="#m52d7f96d10" y="44.836871"/>
     <use style="stroke:#000000;stroke-linejoin:miter;" x="826.933793" xlink:href="#m52d7f96d10" y="37.61598"/>
     <use style="stroke:#000000;stroke-linejoin:miter;" x="832.00652" xlink:href="#m52d7f96d10" y="33.701242"/>
     <use style="stroke:#000000;stroke-linejoin:miter;" x="837.079247" xlink:href="#m52d7f96d10" y="33.242002"/>
     <use style="stroke:#000000;stroke-linejoin:miter;" x="842.151974" xlink:href="#m52d7f96d10" y="36.29281"/>
     <use style="stroke:#000000;stroke-linejoin:miter;" x="847.224702" xlink:href="#m52d7f96d10" y="42.814188"/>
     <use style="stroke:#000000;stroke-linejoin:miter;" x="852.297429" xlink:href="#m52d7f96d10" y="52.676653"/>
     <use style="stroke:#000000;stroke-linejoin:miter;" x="857.370156" xlink:href="#m52d7f96d10" y="65.667997"/>
     <use style="stroke:#000000;stroke-linejoin:miter;" x="862.442884" xlink:href="#m52d7f96d10" y="81.503988"/>
     <use style="stroke:#000000;stroke-linejoin:miter;" x="867.515611" xlink:href="#m52d7f96d10" y="99.841596"/>
     <use style="stroke:#000000;stroke-linejoin:miter;" x="872.588338" xlink:href="#m52d7f96d10" y="120.295974"/>
     <use style="stroke:#000000;stroke-linejoin:miter;" x="877.661065" xlink:href="#m52d7f96d10" y="142.458228"/>
     <use style="stroke:#000000;stroke-linejoin:miter;" x="882.733793" xlink:href="#m52d7f96d10" y="165.9172"/>
     <use style="stroke:#000000;stroke-linejoin:miter;" x="887.80652" xlink:href="#m52d7f96d10" y="190.2809"/>
     <use style="stroke:#000000;stroke-linejoin:miter;" x="892.879247" xlink:href="#m52d7f96d10" y="215.201126"/>
     <use style="stroke:#000000;stroke-linejoin:miter;" x="897.951974" xlink:href="#m52d7f96d10" y="240.397555"/>
     <use style="stroke:#000000;stroke-linejoin:miter;" x="903.024702" xlink:href="#m52d7f96d10" y="265.68312"/>
    </g>
   </g>
   <g id="line2d_17">
    <path clip-path="url(#pa3becc4677)" d="M 142.115611 236.112936 
L 147.188338 240.84418 
L 152.261065 253.552072 
L 157.333793 272.207582 
L 162.40652 294.856234 
L 177.624702 368.866584 
L 182.697429 390.336167 
L 187.770156 408.058622 
L 192.842884 421.072111 
L 197.915611 428.655367 
L 202.988338 430.336653 
L 208.061065 425.896125 
L 213.133793 415.360735 
L 218.20652 398.992644 
L 223.279247 377.271561 
L 228.351974 350.869869 
L 233.424702 320.623862 
L 238.497429 287.499683 
L 248.642884 216.909121 
L 253.715611 181.685848 
L 258.788338 147.992399 
L 263.861065 116.873493 
L 268.933793 89.278994 
L 274.00652 66.03384 
L 279.079247 47.812382 
L 284.151974 35.118869 
L 289.224702 28.273592 
L 294.297429 27.405052 
L 299.370156 32.448951 
L 304.442884 43.153685 
L 309.515611 59.090913 
L 314.588338 79.672593 
L 319.661065 104.172496 
L 324.733793 131.751334 
L 329.80652 161.485612 
L 345.024702 253.774536 
L 350.097429 282.302818 
L 355.170156 308.199121 
L 360.242884 330.683908 
L 365.315611 349.097417 
L 370.388338 362.918255 
L 375.461065 371.777499 
L 380.533793 375.467459 
L 385.60652 373.945708 
L 390.679247 367.332855 
L 395.751974 355.907195 
L 400.824702 340.168291 
L 405.897429 320.727902 
L 410.970156 298.218722 
L 416.042884 273.356318 
L 421.115611 246.916121 
L 431.261065 192.557253 
L 436.333793 166.267691 
L 441.40652 141.609618 
L 446.479247 119.291277 
L 451.551974 99.939663 
L 456.624702 84.08285 
L 461.697429 72.135598 
L 466.770156 64.388784 
L 471.842884 61.001574 
L 476.915611 61.999754 
L 481.988338 67.275348 
L 487.061065 76.592974 
L 492.133793 89.597547 
L 497.20652 105.826991 
L 502.279247 124.727294 
L 507.351974 145.67023 
L 512.424702 167.973126 
L 522.570156 213.782722 
L 527.642884 235.844461 
L 532.715611 256.419408 
L 537.788338 274.873801 
L 542.861065 290.644142 
L 547.933793 303.253309 
L 553.00652 312.324015 
L 558.079247 317.589043 
L 563.151974 318.898125 
L 568.224702 316.221342 
L 573.297429 309.649149 
L 578.370156 299.388029 
L 583.442884 285.753973 
L 588.515611 269.161493 
L 593.588338 250.110724 
L 598.661065 229.171621 
L 603.733793 206.966323 
L 613.879247 161.391821 
L 618.951974 139.352909 
L 624.024702 118.668404 
L 629.097429 99.92764 
L 634.170156 83.656914 
L 639.242884 70.303941 
L 644.315611 60.224874 
L 649.388338 53.673975 
L 654.461065 50.84476 
L 659.533793 51.817564 
L 664.60652 56.5096 
L 669.679247 64.725373 
L 674.751974 76.163018 
L 679.824702 90.424042 
L 684.897429 107.025594 
L 689.970156 125.415681 
L 695.042884 144.989982 
L 705.188338 185.125268 
L 710.261065 204.387736 
L 715.333793 222.276965 
L 720.40652 238.216192 
L 725.479247 251.690384 
L 730.551974 262.261784 
L 735.624702 269.583023 
L 740.697429 273.407855 
L 745.770156 273.598085 
L 750.842884 270.127875 
L 755.915611 263.084657 
L 760.988338 252.665814 
L 766.061065 239.173178 
L 771.133793 223.003509 
L 776.20652 204.636584 
L 781.279247 184.620578 
L 791.424702 142.075528 
L 796.497429 120.82913 
L 801.570156 100.460582 
L 806.642884 81.590398 
L 811.715611 64.797146 
L 816.788338 50.600616 
L 821.861065 39.446928 
L 826.933793 31.696206 
L 832.00652 27.613005 
L 837.079247 27.36 
L 842.151974 30.995262 
L 847.224702 38.473053 
L 852.297429 49.648322 
L 857.370156 64.284876 
L 862.442884 82.067123 
L 867.515611 102.615089 
L 872.588338 125.502349 
L 877.661065 150.27679 
L 882.733793 176.483485 
L 887.80652 203.689443 
L 897.951974 259.63497 
L 903.024702 287.858299 
L 903.024702 287.858299 
" style="fill:none;stroke:#0000ff;stroke-linecap:square;stroke-width:3;"/>
   </g>
   <g id="line2d_18">
    <path clip-path="url(#pa3becc4677)" d="M 142.115611 236.112936 
L 147.188338 240.878906 
L 152.261065 253.673266 
L 157.333793 272.437676 
L 162.40652 295.193519 
L 177.624702 369.364691 
L 182.697429 390.814748 
L 187.770156 408.485119 
L 192.842884 421.422769 
L 197.915611 428.91797 
L 202.988338 430.512144 
L 208.061065 425.998479 
L 213.133793 415.416083 
L 218.20652 399.03704 
L 223.279247 377.347609 
L 228.351974 351.02307 
L 233.424702 320.897881 
L 238.497429 287.932093 
L 248.642884 217.725003 
L 253.715611 182.694662 
L 258.788338 149.169097 
L 263.861065 118.171893 
L 268.933793 90.631908 
L 274.00652 67.354166 
L 279.079247 48.996274 
L 284.151974 36.04897 
L 289.224702 28.824014 
L 294.297429 27.447467 
L 299.370156 31.858446 
L 304.442884 41.815335 
L 309.515611 56.906649 
L 314.588338 76.56741 
L 319.661065 100.099588 
L 324.733793 126.697183 
L 329.80652 155.473243 
L 345.024702 245.412428 
L 350.097429 273.456978 
L 355.170156 299.07358 
L 360.242884 321.507191 
L 365.315611 340.115111 
L 370.388338 354.384834 
L 375.461065 363.946727 
L 380.533793 368.583182 
L 385.60652 368.231758 
L 390.679247 362.984328 
L 395.751974 353.080855 
L 400.824702 338.928132 
L 405.897429 321.051697 
L 410.970156 300.051138 
L 416.042884 276.611407 
L 421.115611 251.479918 
L 436.333793 173.83692 
L 441.40652 149.810693 
L 446.479247 127.916309 
L 451.551974 108.77251 
L 456.624702 92.90309 
L 461.697429 80.722534 
L 466.770156 72.525205 
L 471.842884 68.478544 
L 476.915611 68.619726 
L 481.988338 72.857177 
L 487.061065 80.974929 
L 492.133793 92.641323 
L 497.20652 107.420777 
L 502.279247 124.788663 
L 507.351974 144.148429 
L 512.424702 164.850818 
L 522.570156 207.545936 
L 527.642884 228.163049 
L 532.715611 247.413232 
L 537.788338 264.693999 
L 542.861065 279.47033 
L 547.933793 291.290015 
L 553.00652 299.796354 
L 558.079247 304.737748 
L 563.151974 305.974223 
L 568.224702 303.48034 
L 573.297429 297.344312 
L 578.370156 287.764896 
L 583.442884 275.043445 
L 588.515611 259.574136 
L 593.588338 241.830918 
L 598.661065 222.352409 
L 603.733793 201.724979 
L 613.879247 159.49734 
L 618.951974 139.14136 
L 624.024702 120.087118 
L 629.097429 102.880178 
L 634.170156 88.004831 
L 639.242884 75.869777 
L 644.315611 66.796283 
L 649.388338 61.008817 
L 654.461065 58.634647 
L 659.533793 59.696275 
L 664.60652 64.106308 
L 669.679247 71.676607 
L 674.751974 82.124447 
L 679.824702 95.081479 
L 684.897429 110.105338 
L 689.970156 126.693163 
L 695.042884 144.297239 
L 705.188338 180.239418 
L 710.261065 197.411225 
L 715.333793 213.301865 
L 720.40652 227.397612 
L 725.479247 239.241379 
L 730.551974 248.446522 
L 735.624702 254.708336 
L 740.697429 257.813132 
L 745.770156 257.644496 
L 750.842884 254.186744 
L 755.915611 247.525155 
L 760.988338 237.843386 
L 766.061065 225.417778 
L 771.133793 210.608953 
L 776.20652 193.850947 
L 781.279247 175.638098 
L 791.424702 137.036379 
L 796.497429 117.798034 
L 801.570156 99.371637 
L 806.642884 82.311715 
L 811.715611 67.134627 
L 816.788338 54.303556 
L 821.861065 44.215454 
L 826.933793 37.190007 
L 832.00652 33.461267 
L 837.079247 33.172195 
L 842.151974 36.3722 
L 847.224702 43.018008 
L 852.297429 52.977735 
L 857.370156 66.038301 
L 862.442884 81.915935 
L 867.515611 100.269334 
L 872.588338 120.716467 
L 877.661065 142.852054 
L 882.733793 166.269035 
L 887.80652 190.579717 
L 897.951974 240.572788 
L 903.024702 265.793511 
L 903.024702 265.793511 
" style="fill:none;stroke:#ff0000;stroke-linecap:square;stroke-width:3;"/>
   </g>
   <g id="patch_3">
    <path d="M 104.070156 450.72 
L 104.070156 7.2 
" style="fill:none;stroke:#000000;stroke-linecap:square;stroke-linejoin:miter;stroke-width:0.8;"/>
   </g>
   <g id="patch_4">
    <path d="M 941.070156 450.72 
L 941.070156 7.2 
" style="fill:none;stroke:#000000;stroke-linecap:square;stroke-linejoin:miter;stroke-width:0.8;"/>
   </g>
   <g id="patch_5">
    <path d="M 104.070156 450.72 
L 941.070156 450.72 
" style="fill:none;stroke:#000000;stroke-linecap:square;stroke-linejoin:miter;stroke-width:0.8;"/>
   </g>
   <g id="patch_6">
    <path d="M 104.070156 7.2 
L 941.070156 7.2 
" style="fill:none;stroke:#000000;stroke-linecap:square;stroke-linejoin:miter;stroke-width:0.8;"/>
   </g>
   <g id="legend_1">
    <g id="patch_7">
     <path d="M 631.860156 439.72 
L 925.670156 439.72 
Q 930.070156 439.72 930.070156 435.32 
L 930.070156 340.644375 
Q 930.070156 336.244375 925.670156 336.244375 
L 631.860156 336.244375 
Q 627.460156 336.244375 627.460156 340.644375 
L 627.460156 435.32 
Q 627.460156 439.72 631.860156 439.72 
z
" style="fill:#ffffff;opacity:0.8;stroke:#cccccc;stroke-linejoin:miter;"/>
    </g>
    <g id="line2d_19"/>
    <g id="line2d_20">
     <g>
      <use style="stroke:#000000;stroke-linejoin:miter;" x="658.260156" xlink:href="#m52d7f96d10" y="354.060938"/>
     </g>
    </g>
    <g id="text_18">
     <!-- Reference FEM -->
     <g transform="translate(697.860156 361.760938)scale(0.22 -0.22)">
      <defs>
       <path d="M 44.390625 34.1875 
Q 47.5625 33.109375 50.5625 29.59375 
Q 53.5625 26.078125 56.59375 19.921875 
L 66.609375 0 
L 56 0 
L 46.6875 18.703125 
Q 43.0625 26.03125 39.671875 28.421875 
Q 36.28125 30.8125 30.421875 30.8125 
L 19.671875 30.8125 
L 19.671875 0 
L 9.8125 0 
L 9.8125 72.90625 
L 32.078125 72.90625 
Q 44.578125 72.90625 50.734375 67.671875 
Q 56.890625 62.453125 56.890625 51.90625 
Q 56.890625 45.015625 53.6875 40.46875 
Q 50.484375 35.9375 44.390625 34.1875 
z
M 19.671875 64.796875 
L 19.671875 38.921875 
L 32.078125 38.921875 
Q 39.203125 38.921875 42.84375 42.21875 
Q 46.484375 45.515625 46.484375 51.90625 
Q 46.484375 58.296875 42.84375 61.546875 
Q 39.203125 64.796875 32.078125 64.796875 
z
" id="DejaVuSans-82"/>
       <path d="M 37.109375 75.984375 
L 37.109375 68.5 
L 28.515625 68.5 
Q 23.6875 68.5 21.796875 66.546875 
Q 19.921875 64.59375 19.921875 59.515625 
L 19.921875 54.6875 
L 34.71875 54.6875 
L 34.71875 47.703125 
L 19.921875 47.703125 
L 19.921875 0 
L 10.890625 0 
L 10.890625 47.703125 
L 2.296875 47.703125 
L 2.296875 54.6875 
L 10.890625 54.6875 
L 10.890625 58.5 
Q 10.890625 67.625 15.140625 71.796875 
Q 19.390625 75.984375 28.609375 75.984375 
z
" id="DejaVuSans-102"/>
       <path d="M 41.109375 46.296875 
Q 39.59375 47.171875 37.8125 47.578125 
Q 36.03125 48 33.890625 48 
Q 26.265625 48 22.1875 43.046875 
Q 18.109375 38.09375 18.109375 28.8125 
L 18.109375 0 
L 9.078125 0 
L 9.078125 54.6875 
L 18.109375 54.6875 
L 18.109375 46.1875 
Q 20.953125 51.171875 25.484375 53.578125 
Q 30.03125 56 36.53125 56 
Q 37.453125 56 38.578125 55.875 
Q 39.703125 55.765625 41.0625 55.515625 
z
" id="DejaVuSans-114"/>
       <path d="M 48.78125 52.59375 
L 48.78125 44.1875 
Q 44.96875 46.296875 41.140625 47.34375 
Q 37.3125 48.390625 33.40625 48.390625 
Q 24.65625 48.390625 19.8125 42.84375 
Q 14.984375 37.3125 14.984375 27.296875 
Q 14.984375 17.28125 19.8125 11.734375 
Q 24.65625 6.203125 33.40625 6.203125 
Q 37.3125 6.203125 41.140625 7.25 
Q 44.96875 8.296875 48.78125 10.40625 
L 48.78125 2.09375 
Q 45.015625 0.34375 40.984375 -0.53125 
Q 36.96875 -1.421875 32.421875 -1.421875 
Q 20.0625 -1.421875 12.78125 6.34375 
Q 5.515625 14.109375 5.515625 27.296875 
Q 5.515625 40.671875 12.859375 48.328125 
Q 20.21875 56 33.015625 56 
Q 37.15625 56 41.109375 55.140625 
Q 45.0625 54.296875 48.78125 52.59375 
z
" id="DejaVuSans-99"/>
       <path d="M 9.8125 72.90625 
L 51.703125 72.90625 
L 51.703125 64.59375 
L 19.671875 64.59375 
L 19.671875 43.109375 
L 48.578125 43.109375 
L 48.578125 34.8125 
L 19.671875 34.8125 
L 19.671875 0 
L 9.8125 0 
z
" id="DejaVuSans-70"/>
       <path d="M 9.8125 72.90625 
L 55.90625 72.90625 
L 55.90625 64.59375 
L 19.671875 64.59375 
L 19.671875 43.015625 
L 54.390625 43.015625 
L 54.390625 34.71875 
L 19.671875 34.71875 
L 19.671875 8.296875 
L 56.78125 8.296875 
L 56.78125 0 
L 9.8125 0 
z
" id="DejaVuSans-69"/>
       <path d="M 9.8125 72.90625 
L 24.515625 72.90625 
L 43.109375 23.296875 
L 61.8125 72.90625 
L 76.515625 72.90625 
L 76.515625 0 
L 66.890625 0 
L 66.890625 64.015625 
L 48.09375 14.015625 
L 38.1875 14.015625 
L 19.390625 64.015625 
L 19.390625 0 
L 9.8125 0 
z
" id="DejaVuSans-77"/>
      </defs>
      <use xlink:href="#DejaVuSans-82"/>
      <use x="64.982422" xlink:href="#DejaVuSans-101"/>
      <use x="126.505859" xlink:href="#DejaVuSans-102"/>
      <use x="161.710938" xlink:href="#DejaVuSans-101"/>
      <use x="223.234375" xlink:href="#DejaVuSans-114"/>
      <use x="262.097656" xlink:href="#DejaVuSans-101"/>
      <use x="323.621094" xlink:href="#DejaVuSans-110"/>
      <use x="387" xlink:href="#DejaVuSans-99"/>
      <use x="441.980469" xlink:href="#DejaVuSans-101"/>
      <use x="503.503906" xlink:href="#DejaVuSans-32"/>
      <use x="535.291016" xlink:href="#DejaVuSans-70"/>
      <use x="592.810547" xlink:href="#DejaVuSans-69"/>
      <use x="655.994141" xlink:href="#DejaVuSans-77"/>
     </g>
    </g>
    <g id="line2d_21">
     <path d="M 636.260156 386.352813 
L 680.260156 386.352813 
" style="fill:none;stroke:#0000ff;stroke-linecap:square;stroke-width:3;"/>
    </g>
    <g id="line2d_22"/>
    <g id="text_19">
     <!-- Initial mistuned FEM -->
     <g transform="translate(697.860156 394.052813)scale(0.22 -0.22)">
      <defs>
       <path d="M 9.8125 72.90625 
L 19.671875 72.90625 
L 19.671875 0 
L 9.8125 0 
z
" id="DejaVuSans-73"/>
       <path d="M 44.28125 53.078125 
L 44.28125 44.578125 
Q 40.484375 46.53125 36.375 47.5 
Q 32.28125 48.484375 27.875 48.484375 
Q 21.1875 48.484375 17.84375 46.4375 
Q 14.5 44.390625 14.5 40.28125 
Q 14.5 37.15625 16.890625 35.375 
Q 19.28125 33.59375 26.515625 31.984375 
L 29.59375 31.296875 
Q 39.15625 29.25 43.1875 25.515625 
Q 47.21875 21.78125 47.21875 15.09375 
Q 47.21875 7.46875 41.1875 3.015625 
Q 35.15625 -1.421875 24.609375 -1.421875 
Q 20.21875 -1.421875 15.453125 -0.5625 
Q 10.6875 0.296875 5.421875 2 
L 5.421875 11.28125 
Q 10.40625 8.6875 15.234375 7.390625 
Q 20.0625 6.109375 24.8125 6.109375 
Q 31.15625 6.109375 34.5625 8.28125 
Q 37.984375 10.453125 37.984375 14.40625 
Q 37.984375 18.0625 35.515625 20.015625 
Q 33.0625 21.96875 24.703125 23.78125 
L 21.578125 24.515625 
Q 13.234375 26.265625 9.515625 29.90625 
Q 5.8125 33.546875 5.8125 39.890625 
Q 5.8125 47.609375 11.28125 51.796875 
Q 16.75 56 26.8125 56 
Q 31.78125 56 36.171875 55.265625 
Q 40.578125 54.546875 44.28125 53.078125 
z
" id="DejaVuSans-115"/>
      </defs>
      <use xlink:href="#DejaVuSans-73"/>
      <use x="29.492188" xlink:href="#DejaVuSans-110"/>
      <use x="92.871094" xlink:href="#DejaVuSans-105"/>
      <use x="120.654297" xlink:href="#DejaVuSans-116"/>
      <use x="159.863281" xlink:href="#DejaVuSans-105"/>
      <use x="187.646484" xlink:href="#DejaVuSans-97"/>
      <use x="248.925781" xlink:href="#DejaVuSans-108"/>
      <use x="276.708984" xlink:href="#DejaVuSans-32"/>
      <use x="308.496094" xlink:href="#DejaVuSans-109"/>
      <use x="405.908203" xlink:href="#DejaVuSans-105"/>
      <use x="433.691406" xlink:href="#DejaVuSans-115"/>
      <use x="485.791016" xlink:href="#DejaVuSans-116"/>
      <use x="525" xlink:href="#DejaVuSans-117"/>
      <use x="588.378906" xlink:href="#DejaVuSans-110"/>
      <use x="651.757812" xlink:href="#DejaVuSans-101"/>
      <use x="713.28125" xlink:href="#DejaVuSans-100"/>
      <use x="776.757812" xlink:href="#DejaVuSans-32"/>
      <use x="808.544922" xlink:href="#DejaVuSans-70"/>
      <use x="866.064453" xlink:href="#DejaVuSans-69"/>
      <use x="929.248047" xlink:href="#DejaVuSans-77"/>
     </g>
    </g>
    <g id="line2d_23">
     <path d="M 636.260156 418.644688 
L 680.260156 418.644688 
" style="fill:none;stroke:#ff0000;stroke-linecap:square;stroke-width:3;"/>
    </g>
    <g id="line2d_24"/>
    <g id="text_20">
     <!-- Converged FEM -->
     <g transform="translate(697.860156 426.344688)scale(0.22 -0.22)">
      <defs>
       <path d="M 64.40625 67.28125 
L 64.40625 56.890625 
Q 59.421875 61.53125 53.78125 63.8125 
Q 48.140625 66.109375 41.796875 66.109375 
Q 29.296875 66.109375 22.65625 58.46875 
Q 16.015625 50.828125 16.015625 36.375 
Q 16.015625 21.96875 22.65625 14.328125 
Q 29.296875 6.6875 41.796875 6.6875 
Q 48.140625 6.6875 53.78125 8.984375 
Q 59.421875 11.28125 64.40625 15.921875 
L 64.40625 5.609375 
Q 59.234375 2.09375 53.4375 0.328125 
Q 47.65625 -1.421875 41.21875 -1.421875 
Q 24.65625 -1.421875 15.125 8.703125 
Q 5.609375 18.84375 5.609375 36.375 
Q 5.609375 53.953125 15.125 64.078125 
Q 24.65625 74.21875 41.21875 74.21875 
Q 47.75 74.21875 53.53125 72.484375 
Q 59.328125 70.75 64.40625 67.28125 
z
" id="DejaVuSans-67"/>
       <path d="M 30.609375 48.390625 
Q 23.390625 48.390625 19.1875 42.75 
Q 14.984375 37.109375 14.984375 27.296875 
Q 14.984375 17.484375 19.15625 11.84375 
Q 23.34375 6.203125 30.609375 6.203125 
Q 37.796875 6.203125 41.984375 11.859375 
Q 46.1875 17.53125 46.1875 27.296875 
Q 46.1875 37.015625 41.984375 42.703125 
Q 37.796875 48.390625 30.609375 48.390625 
z
M 30.609375 56 
Q 42.328125 56 49.015625 48.375 
Q 55.71875 40.765625 55.71875 27.296875 
Q 55.71875 13.875 49.015625 6.21875 
Q 42.328125 -1.421875 30.609375 -1.421875 
Q 18.84375 -1.421875 12.171875 6.21875 
Q 5.515625 13.875 5.515625 27.296875 
Q 5.515625 40.765625 12.171875 48.375 
Q 18.84375 56 30.609375 56 
z
" id="DejaVuSans-111"/>
       <path d="M 2.984375 54.6875 
L 12.5 54.6875 
L 29.59375 8.796875 
L 46.6875 54.6875 
L 56.203125 54.6875 
L 35.6875 0 
L 23.484375 0 
z
" id="DejaVuSans-118"/>
      </defs>
      <use xlink:href="#DejaVuSans-67"/>
      <use x="69.824219" xlink:href="#DejaVuSans-111"/>
      <use x="131.005859" xlink:href="#DejaVuSans-110"/>
      <use x="194.384766" xlink:href="#DejaVuSans-118"/>
      <use x="253.564453" xlink:href="#DejaVuSans-101"/>
      <use x="315.087891" xlink:href="#DejaVuSans-114"/>
      <use x="354.451172" xlink:href="#DejaVuSans-103"/>
      <use x="417.927734" xlink:href="#DejaVuSans-101"/>
      <use x="479.451172" xlink:href="#DejaVuSans-100"/>
      <use x="542.927734" xlink:href="#DejaVuSans-32"/>
      <use x="574.714844" xlink:href="#DejaVuSans-70"/>
      <use x="632.234375" xlink:href="#DejaVuSans-69"/>
      <use x="695.417969" xlink:href="#DejaVuSans-77"/>
     </g>
    </g>
   </g>
  </g>
 </g>
 <defs>
  <clipPath id="pa3becc4677">
   <rect height="443.52" width="837" x="104.070156" y="7.2"/>
  </clipPath>
 </defs>
</svg>
