<?xml version="1.0" encoding="utf-8" standalone="no"?>
<!DOCTYPE svg PUBLIC "-//W3C//DTD SVG 1.1//EN"
  "http://www.w3.org/Graphics/SVG/1.1/DTD/svg11.dtd">
<!-- Created with matplotlib (https://matplotlib.org/) -->
<svg height="518.278437pt" version="1.1" viewBox="0 0 927.320938 518.278437" width="927.320938pt" xmlns="http://www.w3.org/2000/svg" xmlns:xlink="http://www.w3.org/1999/xlink">
 <metadata>
  <rdf:RDF xmlns:cc="http://creativecommons.org/ns#" xmlns:dc="http://purl.org/dc/elements/1.1/" xmlns:rdf="http://www.w3.org/1999/02/22-rdf-syntax-ns#">
   <cc:Work>
    <dc:type rdf:resource="http://purl.org/dc/dcmitype/StillImage"/>
    <dc:date>2021-11-22T18:03:28.836250</dc:date>
    <dc:format>image/svg+xml</dc:format>
    <dc:creator>
     <cc:Agent>
      <dc:title>Matplotlib v3.3.4, https://matplotlib.org/</dc:title>
     </cc:Agent>
    </dc:creator>
   </cc:Work>
  </rdf:RDF>
 </metadata>
 <defs>
  <style type="text/css">*{stroke-linecap:butt;stroke-linejoin:round;}</style>
 </defs>
 <g id="figure_1">
  <g id="patch_1">
   <path d="M 0 518.278437 
L 927.320938 518.278437 
L 927.320938 0 
L 0 0 
z
" style="fill:#ffffff;"/>
  </g>
  <g id="axes_1">
   <g id="patch_2">
    <path d="M 83.120938 450.72 
L 920.120937 450.72 
L 920.120937 7.2 
L 83.120938 7.2 
z
" style="fill:#ffffff;"/>
   </g>
   <g id="matplotlib.axis_1">
    <g id="xtick_1">
     <g id="line2d_1">
      <defs>
       <path d="M 0 0 
L 0 3.5 
" id="mae2271832b" style="stroke:#000000;stroke-width:0.8;"/>
      </defs>
      <g>
       <use style="stroke:#000000;stroke-width:0.8;" x="121.166392" xlink:href="#mae2271832b" y="450.72"/>
      </g>
     </g>
     <g id="text_1">
      <!-- 0.0 -->
      <g transform="translate(101.287486 476.716094)scale(0.25 -0.25)">
       <defs>
        <path d="M 31.78125 66.40625 
Q 24.171875 66.40625 20.328125 58.90625 
Q 16.5 51.421875 16.5 36.375 
Q 16.5 21.390625 20.328125 13.890625 
Q 24.171875 6.390625 31.78125 6.390625 
Q 39.453125 6.390625 43.28125 13.890625 
Q 47.125 21.390625 47.125 36.375 
Q 47.125 51.421875 43.28125 58.90625 
Q 39.453125 66.40625 31.78125 66.40625 
z
M 31.78125 74.21875 
Q 44.046875 74.21875 50.515625 64.515625 
Q 56.984375 54.828125 56.984375 36.375 
Q 56.984375 17.96875 50.515625 8.265625 
Q 44.046875 -1.421875 31.78125 -1.421875 
Q 19.53125 -1.421875 13.0625 8.265625 
Q 6.59375 17.96875 6.59375 36.375 
Q 6.59375 54.828125 13.0625 64.515625 
Q 19.53125 74.21875 31.78125 74.21875 
z
" id="DejaVuSans-48"/>
        <path d="M 10.6875 12.40625 
L 21 12.40625 
L 21 0 
L 10.6875 0 
z
" id="DejaVuSans-46"/>
       </defs>
       <use xlink:href="#DejaVuSans-48"/>
       <use x="63.623047" xlink:href="#DejaVuSans-46"/>
       <use x="95.410156" xlink:href="#DejaVuSans-48"/>
      </g>
     </g>
    </g>
    <g id="xtick_2">
     <g id="line2d_2">
      <g>
       <use style="stroke:#000000;stroke-width:0.8;" x="222.620938" xlink:href="#mae2271832b" y="450.72"/>
      </g>
     </g>
     <g id="text_2">
      <!-- 0.2 -->
      <g transform="translate(202.742031 476.716094)scale(0.25 -0.25)">
       <defs>
        <path d="M 19.1875 8.296875 
L 53.609375 8.296875 
L 53.609375 0 
L 7.328125 0 
L 7.328125 8.296875 
Q 12.9375 14.109375 22.625 23.890625 
Q 32.328125 33.6875 34.8125 36.53125 
Q 39.546875 41.84375 41.421875 45.53125 
Q 43.3125 49.21875 43.3125 52.78125 
Q 43.3125 58.59375 39.234375 62.25 
Q 35.15625 65.921875 28.609375 65.921875 
Q 23.96875 65.921875 18.8125 64.3125 
Q 13.671875 62.703125 7.8125 59.421875 
L 7.8125 69.390625 
Q 13.765625 71.78125 18.9375 73 
Q 24.125 74.21875 28.421875 74.21875 
Q 39.75 74.21875 46.484375 68.546875 
Q 53.21875 62.890625 53.21875 53.421875 
Q 53.21875 48.921875 51.53125 44.890625 
Q 49.859375 40.875 45.40625 35.40625 
Q 44.1875 33.984375 37.640625 27.21875 
Q 31.109375 20.453125 19.1875 8.296875 
z
" id="DejaVuSans-50"/>
       </defs>
       <use xlink:href="#DejaVuSans-48"/>
       <use x="63.623047" xlink:href="#DejaVuSans-46"/>
       <use x="95.410156" xlink:href="#DejaVuSans-50"/>
      </g>
     </g>
    </g>
    <g id="xtick_3">
     <g id="line2d_3">
      <g>
       <use style="stroke:#000000;stroke-width:0.8;" x="324.075483" xlink:href="#mae2271832b" y="450.72"/>
      </g>
     </g>
     <g id="text_3">
      <!-- 0.4 -->
      <g transform="translate(304.196577 476.716094)scale(0.25 -0.25)">
       <defs>
        <path d="M 37.796875 64.3125 
L 12.890625 25.390625 
L 37.796875 25.390625 
z
M 35.203125 72.90625 
L 47.609375 72.90625 
L 47.609375 25.390625 
L 58.015625 25.390625 
L 58.015625 17.1875 
L 47.609375 17.1875 
L 47.609375 0 
L 37.796875 0 
L 37.796875 17.1875 
L 4.890625 17.1875 
L 4.890625 26.703125 
z
" id="DejaVuSans-52"/>
       </defs>
       <use xlink:href="#DejaVuSans-48"/>
       <use x="63.623047" xlink:href="#DejaVuSans-46"/>
       <use x="95.410156" xlink:href="#DejaVuSans-52"/>
      </g>
     </g>
    </g>
    <g id="xtick_4">
     <g id="line2d_4">
      <g>
       <use style="stroke:#000000;stroke-width:0.8;" x="425.530028" xlink:href="#mae2271832b" y="450.72"/>
      </g>
     </g>
     <g id="text_4">
      <!-- 0.6 -->
      <g transform="translate(405.651122 476.716094)scale(0.25 -0.25)">
       <defs>
        <path d="M 33.015625 40.375 
Q 26.375 40.375 22.484375 35.828125 
Q 18.609375 31.296875 18.609375 23.390625 
Q 18.609375 15.53125 22.484375 10.953125 
Q 26.375 6.390625 33.015625 6.390625 
Q 39.65625 6.390625 43.53125 10.953125 
Q 47.40625 15.53125 47.40625 23.390625 
Q 47.40625 31.296875 43.53125 35.828125 
Q 39.65625 40.375 33.015625 40.375 
z
M 52.59375 71.296875 
L 52.59375 62.3125 
Q 48.875 64.0625 45.09375 64.984375 
Q 41.3125 65.921875 37.59375 65.921875 
Q 27.828125 65.921875 22.671875 59.328125 
Q 17.53125 52.734375 16.796875 39.40625 
Q 19.671875 43.65625 24.015625 45.921875 
Q 28.375 48.1875 33.59375 48.1875 
Q 44.578125 48.1875 50.953125 41.515625 
Q 57.328125 34.859375 57.328125 23.390625 
Q 57.328125 12.15625 50.6875 5.359375 
Q 44.046875 -1.421875 33.015625 -1.421875 
Q 20.359375 -1.421875 13.671875 8.265625 
Q 6.984375 17.96875 6.984375 36.375 
Q 6.984375 53.65625 15.1875 63.9375 
Q 23.390625 74.21875 37.203125 74.21875 
Q 40.921875 74.21875 44.703125 73.484375 
Q 48.484375 72.75 52.59375 71.296875 
z
" id="DejaVuSans-54"/>
       </defs>
       <use xlink:href="#DejaVuSans-48"/>
       <use x="63.623047" xlink:href="#DejaVuSans-46"/>
       <use x="95.410156" xlink:href="#DejaVuSans-54"/>
      </g>
     </g>
    </g>
    <g id="xtick_5">
     <g id="line2d_5">
      <g>
       <use style="stroke:#000000;stroke-width:0.8;" x="526.984574" xlink:href="#mae2271832b" y="450.72"/>
      </g>
     </g>
     <g id="text_5">
      <!-- 0.8 -->
      <g transform="translate(507.105668 476.716094)scale(0.25 -0.25)">
       <defs>
        <path d="M 31.78125 34.625 
Q 24.75 34.625 20.71875 30.859375 
Q 16.703125 27.09375 16.703125 20.515625 
Q 16.703125 13.921875 20.71875 10.15625 
Q 24.75 6.390625 31.78125 6.390625 
Q 38.8125 6.390625 42.859375 10.171875 
Q 46.921875 13.96875 46.921875 20.515625 
Q 46.921875 27.09375 42.890625 30.859375 
Q 38.875 34.625 31.78125 34.625 
z
M 21.921875 38.8125 
Q 15.578125 40.375 12.03125 44.71875 
Q 8.5 49.078125 8.5 55.328125 
Q 8.5 64.0625 14.71875 69.140625 
Q 20.953125 74.21875 31.78125 74.21875 
Q 42.671875 74.21875 48.875 69.140625 
Q 55.078125 64.0625 55.078125 55.328125 
Q 55.078125 49.078125 51.53125 44.71875 
Q 48 40.375 41.703125 38.8125 
Q 48.828125 37.15625 52.796875 32.3125 
Q 56.78125 27.484375 56.78125 20.515625 
Q 56.78125 9.90625 50.3125 4.234375 
Q 43.84375 -1.421875 31.78125 -1.421875 
Q 19.734375 -1.421875 13.25 4.234375 
Q 6.78125 9.90625 6.78125 20.515625 
Q 6.78125 27.484375 10.78125 32.3125 
Q 14.796875 37.15625 21.921875 38.8125 
z
M 18.3125 54.390625 
Q 18.3125 48.734375 21.84375 45.5625 
Q 25.390625 42.390625 31.78125 42.390625 
Q 38.140625 42.390625 41.71875 45.5625 
Q 45.3125 48.734375 45.3125 54.390625 
Q 45.3125 60.0625 41.71875 63.234375 
Q 38.140625 66.40625 31.78125 66.40625 
Q 25.390625 66.40625 21.84375 63.234375 
Q 18.3125 60.0625 18.3125 54.390625 
z
" id="DejaVuSans-56"/>
       </defs>
       <use xlink:href="#DejaVuSans-48"/>
       <use x="63.623047" xlink:href="#DejaVuSans-46"/>
       <use x="95.410156" xlink:href="#DejaVuSans-56"/>
      </g>
     </g>
    </g>
    <g id="xtick_6">
     <g id="line2d_6">
      <g>
       <use style="stroke:#000000;stroke-width:0.8;" x="628.439119" xlink:href="#mae2271832b" y="450.72"/>
      </g>
     </g>
     <g id="text_6">
      <!-- 1.0 -->
      <g transform="translate(608.560213 476.716094)scale(0.25 -0.25)">
       <defs>
        <path d="M 12.40625 8.296875 
L 28.515625 8.296875 
L 28.515625 63.921875 
L 10.984375 60.40625 
L 10.984375 69.390625 
L 28.421875 72.90625 
L 38.28125 72.90625 
L 38.28125 8.296875 
L 54.390625 8.296875 
L 54.390625 0 
L 12.40625 0 
z
" id="DejaVuSans-49"/>
       </defs>
       <use xlink:href="#DejaVuSans-49"/>
       <use x="63.623047" xlink:href="#DejaVuSans-46"/>
       <use x="95.410156" xlink:href="#DejaVuSans-48"/>
      </g>
     </g>
    </g>
    <g id="xtick_7">
     <g id="line2d_7">
      <g>
       <use style="stroke:#000000;stroke-width:0.8;" x="729.893665" xlink:href="#mae2271832b" y="450.72"/>
      </g>
     </g>
     <g id="text_7">
      <!-- 1.2 -->
      <g transform="translate(710.014759 476.716094)scale(0.25 -0.25)">
       <use xlink:href="#DejaVuSans-49"/>
       <use x="63.623047" xlink:href="#DejaVuSans-46"/>
       <use x="95.410156" xlink:href="#DejaVuSans-50"/>
      </g>
     </g>
    </g>
    <g id="xtick_8">
     <g id="line2d_8">
      <g>
       <use style="stroke:#000000;stroke-width:0.8;" x="831.34821" xlink:href="#mae2271832b" y="450.72"/>
      </g>
     </g>
     <g id="text_8">
      <!-- 1.4 -->
      <g transform="translate(811.469304 476.716094)scale(0.25 -0.25)">
       <use xlink:href="#DejaVuSans-49"/>
       <use x="63.623047" xlink:href="#DejaVuSans-46"/>
       <use x="95.410156" xlink:href="#DejaVuSans-52"/>
      </g>
     </g>
    </g>
    <g id="text_9">
     <!-- Beam Length [m] -->
     <g transform="translate(388.161406 505.67125)scale(0.26 -0.26)">
      <defs>
       <path d="M 19.671875 34.8125 
L 19.671875 8.109375 
L 35.5 8.109375 
Q 43.453125 8.109375 47.28125 11.40625 
Q 51.125 14.703125 51.125 21.484375 
Q 51.125 28.328125 47.28125 31.5625 
Q 43.453125 34.8125 35.5 34.8125 
z
M 19.671875 64.796875 
L 19.671875 42.828125 
L 34.28125 42.828125 
Q 41.5 42.828125 45.03125 45.53125 
Q 48.578125 48.25 48.578125 53.8125 
Q 48.578125 59.328125 45.03125 62.0625 
Q 41.5 64.796875 34.28125 64.796875 
z
M 9.8125 72.90625 
L 35.015625 72.90625 
Q 46.296875 72.90625 52.390625 68.21875 
Q 58.5 63.53125 58.5 54.890625 
Q 58.5 48.1875 55.375 44.234375 
Q 52.25 40.28125 46.1875 39.3125 
Q 53.46875 37.75 57.5 32.78125 
Q 61.53125 27.828125 61.53125 20.40625 
Q 61.53125 10.640625 54.890625 5.3125 
Q 48.25 0 35.984375 0 
L 9.8125 0 
z
" id="DejaVuSans-66"/>
       <path d="M 56.203125 29.59375 
L 56.203125 25.203125 
L 14.890625 25.203125 
Q 15.484375 15.921875 20.484375 11.0625 
Q 25.484375 6.203125 34.421875 6.203125 
Q 39.59375 6.203125 44.453125 7.46875 
Q 49.3125 8.734375 54.109375 11.28125 
L 54.109375 2.78125 
Q 49.265625 0.734375 44.1875 -0.34375 
Q 39.109375 -1.421875 33.890625 -1.421875 
Q 20.796875 -1.421875 13.15625 6.1875 
Q 5.515625 13.8125 5.515625 26.8125 
Q 5.515625 40.234375 12.765625 48.109375 
Q 20.015625 56 32.328125 56 
Q 43.359375 56 49.78125 48.890625 
Q 56.203125 41.796875 56.203125 29.59375 
z
M 47.21875 32.234375 
Q 47.125 39.59375 43.09375 43.984375 
Q 39.0625 48.390625 32.421875 48.390625 
Q 24.90625 48.390625 20.390625 44.140625 
Q 15.875 39.890625 15.1875 32.171875 
z
" id="DejaVuSans-101"/>
       <path d="M 34.28125 27.484375 
Q 23.390625 27.484375 19.1875 25 
Q 14.984375 22.515625 14.984375 16.5 
Q 14.984375 11.71875 18.140625 8.90625 
Q 21.296875 6.109375 26.703125 6.109375 
Q 34.1875 6.109375 38.703125 11.40625 
Q 43.21875 16.703125 43.21875 25.484375 
L 43.21875 27.484375 
z
M 52.203125 31.203125 
L 52.203125 0 
L 43.21875 0 
L 43.21875 8.296875 
Q 40.140625 3.328125 35.546875 0.953125 
Q 30.953125 -1.421875 24.3125 -1.421875 
Q 15.921875 -1.421875 10.953125 3.296875 
Q 6 8.015625 6 15.921875 
Q 6 25.140625 12.171875 29.828125 
Q 18.359375 34.515625 30.609375 34.515625 
L 43.21875 34.515625 
L 43.21875 35.40625 
Q 43.21875 41.609375 39.140625 45 
Q 35.0625 48.390625 27.6875 48.390625 
Q 23 48.390625 18.546875 47.265625 
Q 14.109375 46.140625 10.015625 43.890625 
L 10.015625 52.203125 
Q 14.9375 54.109375 19.578125 55.046875 
Q 24.21875 56 28.609375 56 
Q 40.484375 56 46.34375 49.84375 
Q 52.203125 43.703125 52.203125 31.203125 
z
" id="DejaVuSans-97"/>
       <path d="M 52 44.1875 
Q 55.375 50.25 60.0625 53.125 
Q 64.75 56 71.09375 56 
Q 79.640625 56 84.28125 50.015625 
Q 88.921875 44.046875 88.921875 33.015625 
L 88.921875 0 
L 79.890625 0 
L 79.890625 32.71875 
Q 79.890625 40.578125 77.09375 44.375 
Q 74.3125 48.1875 68.609375 48.1875 
Q 61.625 48.1875 57.5625 43.546875 
Q 53.515625 38.921875 53.515625 30.90625 
L 53.515625 0 
L 44.484375 0 
L 44.484375 32.71875 
Q 44.484375 40.625 41.703125 44.40625 
Q 38.921875 48.1875 33.109375 48.1875 
Q 26.21875 48.1875 22.15625 43.53125 
Q 18.109375 38.875 18.109375 30.90625 
L 18.109375 0 
L 9.078125 0 
L 9.078125 54.6875 
L 18.109375 54.6875 
L 18.109375 46.1875 
Q 21.1875 51.21875 25.484375 53.609375 
Q 29.78125 56 35.6875 56 
Q 41.65625 56 45.828125 52.96875 
Q 50 49.953125 52 44.1875 
z
" id="DejaVuSans-109"/>
       <path id="DejaVuSans-32"/>
       <path d="M 9.8125 72.90625 
L 19.671875 72.90625 
L 19.671875 8.296875 
L 55.171875 8.296875 
L 55.171875 0 
L 9.8125 0 
z
" id="DejaVuSans-76"/>
       <path d="M 54.890625 33.015625 
L 54.890625 0 
L 45.90625 0 
L 45.90625 32.71875 
Q 45.90625 40.484375 42.875 44.328125 
Q 39.84375 48.1875 33.796875 48.1875 
Q 26.515625 48.1875 22.3125 43.546875 
Q 18.109375 38.921875 18.109375 30.90625 
L 18.109375 0 
L 9.078125 0 
L 9.078125 54.6875 
L 18.109375 54.6875 
L 18.109375 46.1875 
Q 21.34375 51.125 25.703125 53.5625 
Q 30.078125 56 35.796875 56 
Q 45.21875 56 50.046875 50.171875 
Q 54.890625 44.34375 54.890625 33.015625 
z
" id="DejaVuSans-110"/>
       <path d="M 45.40625 27.984375 
Q 45.40625 37.75 41.375 43.109375 
Q 37.359375 48.484375 30.078125 48.484375 
Q 22.859375 48.484375 18.828125 43.109375 
Q 14.796875 37.75 14.796875 27.984375 
Q 14.796875 18.265625 18.828125 12.890625 
Q 22.859375 7.515625 30.078125 7.515625 
Q 37.359375 7.515625 41.375 12.890625 
Q 45.40625 18.265625 45.40625 27.984375 
z
M 54.390625 6.78125 
Q 54.390625 -7.171875 48.1875 -13.984375 
Q 42 -20.796875 29.203125 -20.796875 
Q 24.46875 -20.796875 20.265625 -20.09375 
Q 16.0625 -19.390625 12.109375 -17.921875 
L 12.109375 -9.1875 
Q 16.0625 -11.328125 19.921875 -12.34375 
Q 23.78125 -13.375 27.78125 -13.375 
Q 36.625 -13.375 41.015625 -8.765625 
Q 45.40625 -4.15625 45.40625 5.171875 
L 45.40625 9.625 
Q 42.625 4.78125 38.28125 2.390625 
Q 33.9375 0 27.875 0 
Q 17.828125 0 11.671875 7.65625 
Q 5.515625 15.328125 5.515625 27.984375 
Q 5.515625 40.671875 11.671875 48.328125 
Q 17.828125 56 27.875 56 
Q 33.9375 56 38.28125 53.609375 
Q 42.625 51.21875 45.40625 46.390625 
L 45.40625 54.6875 
L 54.390625 54.6875 
z
" id="DejaVuSans-103"/>
       <path d="M 18.3125 70.21875 
L 18.3125 54.6875 
L 36.8125 54.6875 
L 36.8125 47.703125 
L 18.3125 47.703125 
L 18.3125 18.015625 
Q 18.3125 11.328125 20.140625 9.421875 
Q 21.96875 7.515625 27.59375 7.515625 
L 36.8125 7.515625 
L 36.8125 0 
L 27.59375 0 
Q 17.1875 0 13.234375 3.875 
Q 9.28125 7.765625 9.28125 18.015625 
L 9.28125 47.703125 
L 2.6875 47.703125 
L 2.6875 54.6875 
L 9.28125 54.6875 
L 9.28125 70.21875 
z
" id="DejaVuSans-116"/>
       <path d="M 54.890625 33.015625 
L 54.890625 0 
L 45.90625 0 
L 45.90625 32.71875 
Q 45.90625 40.484375 42.875 44.328125 
Q 39.84375 48.1875 33.796875 48.1875 
Q 26.515625 48.1875 22.3125 43.546875 
Q 18.109375 38.921875 18.109375 30.90625 
L 18.109375 0 
L 9.078125 0 
L 9.078125 75.984375 
L 18.109375 75.984375 
L 18.109375 46.1875 
Q 21.34375 51.125 25.703125 53.5625 
Q 30.078125 56 35.796875 56 
Q 45.21875 56 50.046875 50.171875 
Q 54.890625 44.34375 54.890625 33.015625 
z
" id="DejaVuSans-104"/>
       <path d="M 8.59375 75.984375 
L 29.296875 75.984375 
L 29.296875 69 
L 17.578125 69 
L 17.578125 -6.203125 
L 29.296875 -6.203125 
L 29.296875 -13.1875 
L 8.59375 -13.1875 
z
" id="DejaVuSans-91"/>
       <path d="M 30.421875 75.984375 
L 30.421875 -13.1875 
L 9.71875 -13.1875 
L 9.71875 -6.203125 
L 21.390625 -6.203125 
L 21.390625 69 
L 9.71875 69 
L 9.71875 75.984375 
z
" id="DejaVuSans-93"/>
      </defs>
      <use xlink:href="#DejaVuSans-66"/>
      <use x="68.603516" xlink:href="#DejaVuSans-101"/>
      <use x="130.126953" xlink:href="#DejaVuSans-97"/>
      <use x="191.40625" xlink:href="#DejaVuSans-109"/>
      <use x="288.818359" xlink:href="#DejaVuSans-32"/>
      <use x="320.605469" xlink:href="#DejaVuSans-76"/>
      <use x="374.568359" xlink:href="#DejaVuSans-101"/>
      <use x="436.091797" xlink:href="#DejaVuSans-110"/>
      <use x="499.470703" xlink:href="#DejaVuSans-103"/>
      <use x="562.947266" xlink:href="#DejaVuSans-116"/>
      <use x="602.15625" xlink:href="#DejaVuSans-104"/>
      <use x="665.535156" xlink:href="#DejaVuSans-32"/>
      <use x="697.322266" xlink:href="#DejaVuSans-91"/>
      <use x="736.335938" xlink:href="#DejaVuSans-109"/>
      <use x="833.748047" xlink:href="#DejaVuSans-93"/>
     </g>
    </g>
   </g>
   <g id="matplotlib.axis_2">
    <g id="ytick_1">
     <g id="line2d_9">
      <defs>
       <path d="M 0 0 
L -3.5 0 
" id="mb452e08d55" style="stroke:#000000;stroke-width:0.8;"/>
      </defs>
      <g>
       <use style="stroke:#000000;stroke-width:0.8;" x="83.120938" xlink:href="#mb452e08d55" y="430.56"/>
      </g>
     </g>
     <g id="text_10">
      <!-- 0.0 -->
      <g transform="translate(36.363125 440.058047)scale(0.25 -0.25)">
       <use xlink:href="#DejaVuSans-48"/>
       <use x="63.623047" xlink:href="#DejaVuSans-46"/>
       <use x="95.410156" xlink:href="#DejaVuSans-48"/>
      </g>
     </g>
    </g>
    <g id="ytick_2">
     <g id="line2d_10">
      <g>
       <use style="stroke:#000000;stroke-width:0.8;" x="83.120938" xlink:href="#mb452e08d55" y="355.618339"/>
      </g>
     </g>
     <g id="text_11">
      <!-- 0.2 -->
      <g transform="translate(36.363125 365.116386)scale(0.25 -0.25)">
       <use xlink:href="#DejaVuSans-48"/>
       <use x="63.623047" xlink:href="#DejaVuSans-46"/>
       <use x="95.410156" xlink:href="#DejaVuSans-50"/>
      </g>
     </g>
    </g>
    <g id="ytick_3">
     <g id="line2d_11">
      <g>
       <use style="stroke:#000000;stroke-width:0.8;" x="83.120938" xlink:href="#mb452e08d55" y="280.676678"/>
      </g>
     </g>
     <g id="text_12">
      <!-- 0.4 -->
      <g transform="translate(36.363125 290.174725)scale(0.25 -0.25)">
       <use xlink:href="#DejaVuSans-48"/>
       <use x="63.623047" xlink:href="#DejaVuSans-46"/>
       <use x="95.410156" xlink:href="#DejaVuSans-52"/>
      </g>
     </g>
    </g>
    <g id="ytick_4">
     <g id="line2d_12">
      <g>
       <use style="stroke:#000000;stroke-width:0.8;" x="83.120938" xlink:href="#mb452e08d55" y="205.735017"/>
      </g>
     </g>
     <g id="text_13">
      <!-- 0.6 -->
      <g transform="translate(36.363125 215.233064)scale(0.25 -0.25)">
       <use xlink:href="#DejaVuSans-48"/>
       <use x="63.623047" xlink:href="#DejaVuSans-46"/>
       <use x="95.410156" xlink:href="#DejaVuSans-54"/>
      </g>
     </g>
    </g>
    <g id="ytick_5">
     <g id="line2d_13">
      <g>
       <use style="stroke:#000000;stroke-width:0.8;" x="83.120938" xlink:href="#mb452e08d55" y="130.793356"/>
      </g>
     </g>
     <g id="text_14">
      <!-- 0.8 -->
      <g transform="translate(36.363125 140.291403)scale(0.25 -0.25)">
       <use xlink:href="#DejaVuSans-48"/>
       <use x="63.623047" xlink:href="#DejaVuSans-46"/>
       <use x="95.410156" xlink:href="#DejaVuSans-56"/>
      </g>
     </g>
    </g>
    <g id="ytick_6">
     <g id="line2d_14">
      <g>
       <use style="stroke:#000000;stroke-width:0.8;" x="83.120938" xlink:href="#mb452e08d55" y="55.851695"/>
      </g>
     </g>
     <g id="text_15">
      <!-- 1.0 -->
      <g transform="translate(36.363125 65.349742)scale(0.25 -0.25)">
       <use xlink:href="#DejaVuSans-49"/>
       <use x="63.623047" xlink:href="#DejaVuSans-46"/>
       <use x="95.410156" xlink:href="#DejaVuSans-48"/>
      </g>
     </g>
    </g>
    <g id="text_16">
     <!-- Amplitude -->
     <g transform="translate(26.955938 295.578906)rotate(-90)scale(0.26 -0.26)">
      <defs>
       <path d="M 34.1875 63.1875 
L 20.796875 26.90625 
L 47.609375 26.90625 
z
M 28.609375 72.90625 
L 39.796875 72.90625 
L 67.578125 0 
L 57.328125 0 
L 50.6875 18.703125 
L 17.828125 18.703125 
L 11.1875 0 
L 0.78125 0 
z
" id="DejaVuSans-65"/>
       <path d="M 18.109375 8.203125 
L 18.109375 -20.796875 
L 9.078125 -20.796875 
L 9.078125 54.6875 
L 18.109375 54.6875 
L 18.109375 46.390625 
Q 20.953125 51.265625 25.265625 53.625 
Q 29.59375 56 35.59375 56 
Q 45.5625 56 51.78125 48.09375 
Q 58.015625 40.1875 58.015625 27.296875 
Q 58.015625 14.40625 51.78125 6.484375 
Q 45.5625 -1.421875 35.59375 -1.421875 
Q 29.59375 -1.421875 25.265625 0.953125 
Q 20.953125 3.328125 18.109375 8.203125 
z
M 48.6875 27.296875 
Q 48.6875 37.203125 44.609375 42.84375 
Q 40.53125 48.484375 33.40625 48.484375 
Q 26.265625 48.484375 22.1875 42.84375 
Q 18.109375 37.203125 18.109375 27.296875 
Q 18.109375 17.390625 22.1875 11.75 
Q 26.265625 6.109375 33.40625 6.109375 
Q 40.53125 6.109375 44.609375 11.75 
Q 48.6875 17.390625 48.6875 27.296875 
z
" id="DejaVuSans-112"/>
       <path d="M 9.421875 75.984375 
L 18.40625 75.984375 
L 18.40625 0 
L 9.421875 0 
z
" id="DejaVuSans-108"/>
       <path d="M 9.421875 54.6875 
L 18.40625 54.6875 
L 18.40625 0 
L 9.421875 0 
z
M 9.421875 75.984375 
L 18.40625 75.984375 
L 18.40625 64.59375 
L 9.421875 64.59375 
z
" id="DejaVuSans-105"/>
       <path d="M 8.5 21.578125 
L 8.5 54.6875 
L 17.484375 54.6875 
L 17.484375 21.921875 
Q 17.484375 14.15625 20.5 10.265625 
Q 23.53125 6.390625 29.59375 6.390625 
Q 36.859375 6.390625 41.078125 11.03125 
Q 45.3125 15.671875 45.3125 23.6875 
L 45.3125 54.6875 
L 54.296875 54.6875 
L 54.296875 0 
L 45.3125 0 
L 45.3125 8.40625 
Q 42.046875 3.421875 37.71875 1 
Q 33.40625 -1.421875 27.6875 -1.421875 
Q 18.265625 -1.421875 13.375 4.4375 
Q 8.5 10.296875 8.5 21.578125 
z
M 31.109375 56 
z
" id="DejaVuSans-117"/>
       <path d="M 45.40625 46.390625 
L 45.40625 75.984375 
L 54.390625 75.984375 
L 54.390625 0 
L 45.40625 0 
L 45.40625 8.203125 
Q 42.578125 3.328125 38.25 0.953125 
Q 33.9375 -1.421875 27.875 -1.421875 
Q 17.96875 -1.421875 11.734375 6.484375 
Q 5.515625 14.40625 5.515625 27.296875 
Q 5.515625 40.1875 11.734375 48.09375 
Q 17.96875 56 27.875 56 
Q 33.9375 56 38.25 53.625 
Q 42.578125 51.265625 45.40625 46.390625 
z
M 14.796875 27.296875 
Q 14.796875 17.390625 18.875 11.75 
Q 22.953125 6.109375 30.078125 6.109375 
Q 37.203125 6.109375 41.296875 11.75 
Q 45.40625 17.390625 45.40625 27.296875 
Q 45.40625 37.203125 41.296875 42.84375 
Q 37.203125 48.484375 30.078125 48.484375 
Q 22.953125 48.484375 18.875 42.84375 
Q 14.796875 37.203125 14.796875 27.296875 
z
" id="DejaVuSans-100"/>
      </defs>
      <use xlink:href="#DejaVuSans-65"/>
      <use x="68.408203" xlink:href="#DejaVuSans-109"/>
      <use x="165.820312" xlink:href="#DejaVuSans-112"/>
      <use x="229.296875" xlink:href="#DejaVuSans-108"/>
      <use x="257.080078" xlink:href="#DejaVuSans-105"/>
      <use x="284.863281" xlink:href="#DejaVuSans-116"/>
      <use x="324.072266" xlink:href="#DejaVuSans-117"/>
      <use x="387.451172" xlink:href="#DejaVuSans-100"/>
      <use x="450.927734" xlink:href="#DejaVuSans-101"/>
     </g>
    </g>
   </g>
   <g id="line2d_15">
    <defs>
     <path d="M 0 -3 
L -3 3 
L 3 3 
z
" id="m6d13ee4128" style="stroke:#000000;stroke-linejoin:miter;"/>
    </defs>
    <g clip-path="url(#pdeedf363d5)">
     <use style="stroke:#000000;stroke-linejoin:miter;" x="121.166392" xlink:href="#m6d13ee4128" y="430.56"/>
     <use style="stroke:#000000;stroke-linejoin:miter;" x="126.239119" xlink:href="#m6d13ee4128" y="430.511302"/>
     <use style="stroke:#000000;stroke-linejoin:miter;" x="131.311847" xlink:href="#m6d13ee4128" y="430.366505"/>
     <use style="stroke:#000000;stroke-linejoin:miter;" x="136.384574" xlink:href="#m6d13ee4128" y="430.127466"/>
     <use style="stroke:#000000;stroke-linejoin:miter;" x="141.457301" xlink:href="#m6d13ee4128" y="429.796081"/>
     <use style="stroke:#000000;stroke-linejoin:miter;" x="146.530028" xlink:href="#m6d13ee4128" y="429.374276"/>
     <use style="stroke:#000000;stroke-linejoin:miter;" x="151.602756" xlink:href="#m6d13ee4128" y="428.864004"/>
     <use style="stroke:#000000;stroke-linejoin:miter;" x="156.675483" xlink:href="#m6d13ee4128" y="428.267234"/>
     <use style="stroke:#000000;stroke-linejoin:miter;" x="161.74821" xlink:href="#m6d13ee4128" y="427.585949"/>
     <use style="stroke:#000000;stroke-linejoin:miter;" x="166.820938" xlink:href="#m6d13ee4128" y="426.822136"/>
     <use style="stroke:#000000;stroke-linejoin:miter;" x="171.893665" xlink:href="#m6d13ee4128" y="425.977786"/>
     <use style="stroke:#000000;stroke-linejoin:miter;" x="176.966392" xlink:href="#m6d13ee4128" y="425.054887"/>
     <use style="stroke:#000000;stroke-linejoin:miter;" x="182.039119" xlink:href="#m6d13ee4128" y="424.055416"/>
     <use style="stroke:#000000;stroke-linejoin:miter;" x="187.111847" xlink:href="#m6d13ee4128" y="422.981345"/>
     <use style="stroke:#000000;stroke-linejoin:miter;" x="192.184574" xlink:href="#m6d13ee4128" y="421.834621"/>
     <use style="stroke:#000000;stroke-linejoin:miter;" x="197.257301" xlink:href="#m6d13ee4128" y="420.617183"/>
     <use style="stroke:#000000;stroke-linejoin:miter;" x="202.330028" xlink:href="#m6d13ee4128" y="419.33094"/>
     <use style="stroke:#000000;stroke-linejoin:miter;" x="207.402756" xlink:href="#m6d13ee4128" y="417.977786"/>
     <use style="stroke:#000000;stroke-linejoin:miter;" x="212.475483" xlink:href="#m6d13ee4128" y="416.559583"/>
     <use style="stroke:#000000;stroke-linejoin:miter;" x="217.54821" xlink:href="#m6d13ee4128" y="415.078162"/>
     <use style="stroke:#000000;stroke-linejoin:miter;" x="222.620937" xlink:href="#m6d13ee4128" y="413.535331"/>
     <use style="stroke:#000000;stroke-linejoin:miter;" x="227.693665" xlink:href="#m6d13ee4128" y="411.932864"/>
     <use style="stroke:#000000;stroke-linejoin:miter;" x="232.766392" xlink:href="#m6d13ee4128" y="410.272505"/>
     <use style="stroke:#000000;stroke-linejoin:miter;" x="237.839119" xlink:href="#m6d13ee4128" y="408.555955"/>
     <use style="stroke:#000000;stroke-linejoin:miter;" x="242.911847" xlink:href="#m6d13ee4128" y="406.784889"/>
     <use style="stroke:#000000;stroke-linejoin:miter;" x="247.984574" xlink:href="#m6d13ee4128" y="404.960944"/>
     <use style="stroke:#000000;stroke-linejoin:miter;" x="253.057301" xlink:href="#m6d13ee4128" y="403.08572"/>
     <use style="stroke:#000000;stroke-linejoin:miter;" x="258.130028" xlink:href="#m6d13ee4128" y="401.160784"/>
     <use style="stroke:#000000;stroke-linejoin:miter;" x="263.202756" xlink:href="#m6d13ee4128" y="399.18766"/>
     <use style="stroke:#000000;stroke-linejoin:miter;" x="268.275483" xlink:href="#m6d13ee4128" y="397.167839"/>
     <use style="stroke:#000000;stroke-linejoin:miter;" x="273.34821" xlink:href="#m6d13ee4128" y="395.102777"/>
     <use style="stroke:#000000;stroke-linejoin:miter;" x="278.420938" xlink:href="#m6d13ee4128" y="392.993881"/>
     <use style="stroke:#000000;stroke-linejoin:miter;" x="283.493665" xlink:href="#m6d13ee4128" y="390.842568"/>
     <use style="stroke:#000000;stroke-linejoin:miter;" x="288.566392" xlink:href="#m6d13ee4128" y="388.650113"/>
     <use style="stroke:#000000;stroke-linejoin:miter;" x="293.639119" xlink:href="#m6d13ee4128" y="386.4179"/>
     <use style="stroke:#000000;stroke-linejoin:miter;" x="298.711847" xlink:href="#m6d13ee4128" y="384.147131"/>
     <use style="stroke:#000000;stroke-linejoin:miter;" x="303.784574" xlink:href="#m6d13ee4128" y="381.839115"/>
     <use style="stroke:#000000;stroke-linejoin:miter;" x="308.857301" xlink:href="#m6d13ee4128" y="379.494977"/>
     <use style="stroke:#000000;stroke-linejoin:miter;" x="313.930028" xlink:href="#m6d13ee4128" y="377.115954"/>
     <use style="stroke:#000000;stroke-linejoin:miter;" x="319.002756" xlink:href="#m6d13ee4128" y="374.703132"/>
     <use style="stroke:#000000;stroke-linejoin:miter;" x="324.075483" xlink:href="#m6d13ee4128" y="372.257636"/>
     <use style="stroke:#000000;stroke-linejoin:miter;" x="329.14821" xlink:href="#m6d13ee4128" y="369.780514"/>
     <use style="stroke:#000000;stroke-linejoin:miter;" x="334.220937" xlink:href="#m6d13ee4128" y="367.272854"/>
     <use style="stroke:#000000;stroke-linejoin:miter;" x="339.293665" xlink:href="#m6d13ee4128" y="364.735592"/>
     <use style="stroke:#000000;stroke-linejoin:miter;" x="344.366392" xlink:href="#m6d13ee4128" y="362.169702"/>
     <use style="stroke:#000000;stroke-linejoin:miter;" x="349.439119" xlink:href="#m6d13ee4128" y="359.576196"/>
     <use style="stroke:#000000;stroke-linejoin:miter;" x="354.511847" xlink:href="#m6d13ee4128" y="356.955935"/>
     <use style="stroke:#000000;stroke-linejoin:miter;" x="359.584574" xlink:href="#m6d13ee4128" y="354.309858"/>
     <use style="stroke:#000000;stroke-linejoin:miter;" x="364.657301" xlink:href="#m6d13ee4128" y="351.63875"/>
     <use style="stroke:#000000;stroke-linejoin:miter;" x="369.730028" xlink:href="#m6d13ee4128" y="348.94351"/>
     <use style="stroke:#000000;stroke-linejoin:miter;" x="374.802756" xlink:href="#m6d13ee4128" y="346.224926"/>
     <use style="stroke:#000000;stroke-linejoin:miter;" x="379.875483" xlink:href="#m6d13ee4128" y="343.483748"/>
     <use style="stroke:#000000;stroke-linejoin:miter;" x="384.94821" xlink:href="#m6d13ee4128" y="340.720799"/>
     <use style="stroke:#000000;stroke-linejoin:miter;" x="390.020938" xlink:href="#m6d13ee4128" y="337.936753"/>
     <use style="stroke:#000000;stroke-linejoin:miter;" x="395.093665" xlink:href="#m6d13ee4128" y="335.132324"/>
     <use style="stroke:#000000;stroke-linejoin:miter;" x="400.166392" xlink:href="#m6d13ee4128" y="332.308223"/>
     <use style="stroke:#000000;stroke-linejoin:miter;" x="405.239119" xlink:href="#m6d13ee4128" y="329.465123"/>
     <use style="stroke:#000000;stroke-linejoin:miter;" x="410.311847" xlink:href="#m6d13ee4128" y="326.603626"/>
     <use style="stroke:#000000;stroke-linejoin:miter;" x="415.384574" xlink:href="#m6d13ee4128" y="323.724405"/>
     <use style="stroke:#000000;stroke-linejoin:miter;" x="420.457301" xlink:href="#m6d13ee4128" y="320.828022"/>
     <use style="stroke:#000000;stroke-linejoin:miter;" x="425.530028" xlink:href="#m6d13ee4128" y="317.915077"/>
     <use style="stroke:#000000;stroke-linejoin:miter;" x="430.602756" xlink:href="#m6d13ee4128" y="314.98617"/>
     <use style="stroke:#000000;stroke-linejoin:miter;" x="435.675483" xlink:href="#m6d13ee4128" y="312.041787"/>
     <use style="stroke:#000000;stroke-linejoin:miter;" x="440.74821" xlink:href="#m6d13ee4128" y="309.082453"/>
     <use style="stroke:#000000;stroke-linejoin:miter;" x="445.820938" xlink:href="#m6d13ee4128" y="306.108768"/>
     <use style="stroke:#000000;stroke-linejoin:miter;" x="450.893665" xlink:href="#m6d13ee4128" y="303.121106"/>
     <use style="stroke:#000000;stroke-linejoin:miter;" x="455.966392" xlink:href="#m6d13ee4128" y="300.120067"/>
     <use style="stroke:#000000;stroke-linejoin:miter;" x="461.039119" xlink:href="#m6d13ee4128" y="297.106026"/>
     <use style="stroke:#000000;stroke-linejoin:miter;" x="466.111847" xlink:href="#m6d13ee4128" y="294.07947"/>
     <use style="stroke:#000000;stroke-linejoin:miter;" x="471.184574" xlink:href="#m6d13ee4128" y="291.040848"/>
     <use style="stroke:#000000;stroke-linejoin:miter;" x="476.257301" xlink:href="#m6d13ee4128" y="287.990535"/>
     <use style="stroke:#000000;stroke-linejoin:miter;" x="481.330028" xlink:href="#m6d13ee4128" y="284.92898"/>
     <use style="stroke:#000000;stroke-linejoin:miter;" x="486.402756" xlink:href="#m6d13ee4128" y="281.85656"/>
     <use style="stroke:#000000;stroke-linejoin:miter;" x="491.475483" xlink:href="#m6d13ee4128" y="278.773685"/>
     <use style="stroke:#000000;stroke-linejoin:miter;" x="496.54821" xlink:href="#m6d13ee4128" y="275.680655"/>
     <use style="stroke:#000000;stroke-linejoin:miter;" x="501.620938" xlink:href="#m6d13ee4128" y="272.57792"/>
     <use style="stroke:#000000;stroke-linejoin:miter;" x="506.693665" xlink:href="#m6d13ee4128" y="269.465743"/>
     <use style="stroke:#000000;stroke-linejoin:miter;" x="511.766392" xlink:href="#m6d13ee4128" y="266.344535"/>
     <use style="stroke:#000000;stroke-linejoin:miter;" x="516.839119" xlink:href="#m6d13ee4128" y="263.214559"/>
     <use style="stroke:#000000;stroke-linejoin:miter;" x="521.911847" xlink:href="#m6d13ee4128" y="260.076152"/>
     <use style="stroke:#000000;stroke-linejoin:miter;" x="526.984574" xlink:href="#m6d13ee4128" y="256.929614"/>
     <use style="stroke:#000000;stroke-linejoin:miter;" x="532.057301" xlink:href="#m6d13ee4128" y="253.775282"/>
     <use style="stroke:#000000;stroke-linejoin:miter;" x="537.130028" xlink:href="#m6d13ee4128" y="250.613381"/>
     <use style="stroke:#000000;stroke-linejoin:miter;" x="542.202756" xlink:href="#m6d13ee4128" y="247.444211"/>
     <use style="stroke:#000000;stroke-linejoin:miter;" x="547.275483" xlink:href="#m6d13ee4128" y="244.268071"/>
     <use style="stroke:#000000;stroke-linejoin:miter;" x="552.34821" xlink:href="#m6d13ee4128" y="241.085186"/>
     <use style="stroke:#000000;stroke-linejoin:miter;" x="557.420938" xlink:href="#m6d13ee4128" y="237.895819"/>
     <use style="stroke:#000000;stroke-linejoin:miter;" x="562.493665" xlink:href="#m6d13ee4128" y="234.700194"/>
     <use style="stroke:#000000;stroke-linejoin:miter;" x="567.566392" xlink:href="#m6d13ee4128" y="231.498611"/>
     <use style="stroke:#000000;stroke-linejoin:miter;" x="572.639119" xlink:href="#m6d13ee4128" y="228.291221"/>
     <use style="stroke:#000000;stroke-linejoin:miter;" x="577.711847" xlink:href="#m6d13ee4128" y="225.078322"/>
     <use style="stroke:#000000;stroke-linejoin:miter;" x="582.784574" xlink:href="#m6d13ee4128" y="221.860065"/>
     <use style="stroke:#000000;stroke-linejoin:miter;" x="587.857301" xlink:href="#m6d13ee4128" y="218.636674"/>
     <use style="stroke:#000000;stroke-linejoin:miter;" x="592.930028" xlink:href="#m6d13ee4128" y="215.408412"/>
     <use style="stroke:#000000;stroke-linejoin:miter;" x="598.002756" xlink:href="#m6d13ee4128" y="212.175391"/>
     <use style="stroke:#000000;stroke-linejoin:miter;" x="603.075483" xlink:href="#m6d13ee4128" y="208.937836"/>
     <use style="stroke:#000000;stroke-linejoin:miter;" x="608.14821" xlink:href="#m6d13ee4128" y="205.695973"/>
     <use style="stroke:#000000;stroke-linejoin:miter;" x="613.220937" xlink:href="#m6d13ee4128" y="202.449912"/>
     <use style="stroke:#000000;stroke-linejoin:miter;" x="618.293665" xlink:href="#m6d13ee4128" y="199.19988"/>
     <use style="stroke:#000000;stroke-linejoin:miter;" x="623.366392" xlink:href="#m6d13ee4128" y="195.946025"/>
     <use style="stroke:#000000;stroke-linejoin:miter;" x="628.439119" xlink:href="#m6d13ee4128" y="192.688498"/>
     <use style="stroke:#000000;stroke-linejoin:miter;" x="633.511847" xlink:href="#m6d13ee4128" y="189.427487"/>
     <use style="stroke:#000000;stroke-linejoin:miter;" x="638.584574" xlink:href="#m6d13ee4128" y="186.163103"/>
     <use style="stroke:#000000;stroke-linejoin:miter;" x="643.657301" xlink:href="#m6d13ee4128" y="182.895534"/>
     <use style="stroke:#000000;stroke-linejoin:miter;" x="648.730028" xlink:href="#m6d13ee4128" y="179.62493"/>
     <use style="stroke:#000000;stroke-linejoin:miter;" x="653.802756" xlink:href="#m6d13ee4128" y="176.351404"/>
     <use style="stroke:#000000;stroke-linejoin:miter;" x="658.875483" xlink:href="#m6d13ee4128" y="173.075142"/>
     <use style="stroke:#000000;stroke-linejoin:miter;" x="663.94821" xlink:href="#m6d13ee4128" y="169.796182"/>
     <use style="stroke:#000000;stroke-linejoin:miter;" x="669.020938" xlink:href="#m6d13ee4128" y="166.514749"/>
     <use style="stroke:#000000;stroke-linejoin:miter;" x="674.093665" xlink:href="#m6d13ee4128" y="163.23088"/>
     <use style="stroke:#000000;stroke-linejoin:miter;" x="679.166392" xlink:href="#m6d13ee4128" y="159.944801"/>
     <use style="stroke:#000000;stroke-linejoin:miter;" x="684.239119" xlink:href="#m6d13ee4128" y="156.65651"/>
     <use style="stroke:#000000;stroke-linejoin:miter;" x="689.311847" xlink:href="#m6d13ee4128" y="153.366234"/>
     <use style="stroke:#000000;stroke-linejoin:miter;" x="694.384574" xlink:href="#m6d13ee4128" y="150.073972"/>
     <use style="stroke:#000000;stroke-linejoin:miter;" x="699.457301" xlink:href="#m6d13ee4128" y="146.779911"/>
     <use style="stroke:#000000;stroke-linejoin:miter;" x="704.530028" xlink:href="#m6d13ee4128" y="143.484127"/>
     <use style="stroke:#000000;stroke-linejoin:miter;" x="709.602756" xlink:href="#m6d13ee4128" y="140.186694"/>
     <use style="stroke:#000000;stroke-linejoin:miter;" x="714.675483" xlink:href="#m6d13ee4128" y="136.887762"/>
     <use style="stroke:#000000;stroke-linejoin:miter;" x="719.74821" xlink:href="#m6d13ee4128" y="133.587369"/>
     <use style="stroke:#000000;stroke-linejoin:miter;" x="724.820938" xlink:href="#m6d13ee4128" y="130.285627"/>
     <use style="stroke:#000000;stroke-linejoin:miter;" x="729.893665" xlink:href="#m6d13ee4128" y="126.98261"/>
     <use style="stroke:#000000;stroke-linejoin:miter;" x="734.966392" xlink:href="#m6d13ee4128" y="123.678432"/>
     <use style="stroke:#000000;stroke-linejoin:miter;" x="740.039119" xlink:href="#m6d13ee4128" y="120.37313"/>
     <use style="stroke:#000000;stroke-linejoin:miter;" x="745.111847" xlink:href="#m6d13ee4128" y="117.066817"/>
     <use style="stroke:#000000;stroke-linejoin:miter;" x="750.184574" xlink:href="#m6d13ee4128" y="113.759529"/>
     <use style="stroke:#000000;stroke-linejoin:miter;" x="755.257301" xlink:href="#m6d13ee4128" y="110.451379"/>
     <use style="stroke:#000000;stroke-linejoin:miter;" x="760.330028" xlink:href="#m6d13ee4128" y="107.142405"/>
     <use style="stroke:#000000;stroke-linejoin:miter;" x="765.402756" xlink:href="#m6d13ee4128" y="103.832682"/>
     <use style="stroke:#000000;stroke-linejoin:miter;" x="770.475483" xlink:href="#m6d13ee4128" y="100.522284"/>
     <use style="stroke:#000000;stroke-linejoin:miter;" x="775.54821" xlink:href="#m6d13ee4128" y="97.211211"/>
     <use style="stroke:#000000;stroke-linejoin:miter;" x="780.620937" xlink:href="#m6d13ee4128" y="93.899614"/>
     <use style="stroke:#000000;stroke-linejoin:miter;" x="785.693665" xlink:href="#m6d13ee4128" y="90.587492"/>
     <use style="stroke:#000000;stroke-linejoin:miter;" x="790.766392" xlink:href="#m6d13ee4128" y="87.274884"/>
     <use style="stroke:#000000;stroke-linejoin:miter;" x="795.839119" xlink:href="#m6d13ee4128" y="83.961863"/>
     <use style="stroke:#000000;stroke-linejoin:miter;" x="800.911847" xlink:href="#m6d13ee4128" y="80.648467"/>
     <use style="stroke:#000000;stroke-linejoin:miter;" x="805.984574" xlink:href="#m6d13ee4128" y="77.334734"/>
     <use style="stroke:#000000;stroke-linejoin:miter;" x="811.057301" xlink:href="#m6d13ee4128" y="74.020701"/>
     <use style="stroke:#000000;stroke-linejoin:miter;" x="816.130028" xlink:href="#m6d13ee4128" y="70.706444"/>
     <use style="stroke:#000000;stroke-linejoin:miter;" x="821.202756" xlink:href="#m6d13ee4128" y="67.391962"/>
     <use style="stroke:#000000;stroke-linejoin:miter;" x="826.275483" xlink:href="#m6d13ee4128" y="64.077255"/>
     <use style="stroke:#000000;stroke-linejoin:miter;" x="831.34821" xlink:href="#m6d13ee4128" y="60.762435"/>
     <use style="stroke:#000000;stroke-linejoin:miter;" x="836.420938" xlink:href="#m6d13ee4128" y="57.447466"/>
     <use style="stroke:#000000;stroke-linejoin:miter;" x="841.493665" xlink:href="#m6d13ee4128" y="54.132534"/>
     <use style="stroke:#000000;stroke-linejoin:miter;" x="846.566392" xlink:href="#m6d13ee4128" y="50.817115"/>
     <use style="stroke:#000000;stroke-linejoin:miter;" x="851.639119" xlink:href="#m6d13ee4128" y="47.50207"/>
     <use style="stroke:#000000;stroke-linejoin:miter;" x="856.711847" xlink:href="#m6d13ee4128" y="44.186651"/>
     <use style="stroke:#000000;stroke-linejoin:miter;" x="861.784574" xlink:href="#m6d13ee4128" y="40.871607"/>
     <use style="stroke:#000000;stroke-linejoin:miter;" x="866.857301" xlink:href="#m6d13ee4128" y="37.556188"/>
     <use style="stroke:#000000;stroke-linejoin:miter;" x="871.930028" xlink:href="#m6d13ee4128" y="34.240769"/>
     <use style="stroke:#000000;stroke-linejoin:miter;" x="877.002756" xlink:href="#m6d13ee4128" y="30.92535"/>
     <use style="stroke:#000000;stroke-linejoin:miter;" x="882.075483" xlink:href="#m6d13ee4128" y="27.610305"/>
    </g>
   </g>
   <g id="line2d_16">
    <path clip-path="url(#pdeedf363d5)" d="M 121.166392 430.56 
L 131.311847 430.382162 
L 141.457301 429.857471 
L 151.602756 428.999255 
L 161.74821 427.821133 
L 171.893665 426.336879 
L 182.039119 424.560298 
L 192.184574 422.5051 
L 202.330028 420.184813 
L 212.475483 417.612716 
L 222.620937 414.801746 
L 232.766392 411.764479 
L 242.911847 408.513085 
L 253.057301 405.059284 
L 263.202756 401.414347 
L 273.34821 397.589075 
L 283.493665 393.593779 
L 298.711847 387.30345 
L 313.930028 380.683811 
L 329.14821 373.763848 
L 344.366392 366.570128 
L 359.584574 359.12722 
L 374.802756 351.45765 
L 390.020938 343.585629 
L 410.311847 332.811831 
L 430.602756 321.755725 
L 450.893665 310.451671 
L 476.257301 296.019149 
L 501.620938 281.299066 
L 526.984574 266.336552 
L 557.420938 248.116061 
L 592.930028 226.564497 
L 633.511847 201.637687 
L 679.166392 173.320947 
L 740.039119 135.278688 
L 841.493665 71.557936 
L 882.075483 46.041089 
L 882.075483 46.041089 
" style="fill:none;stroke:#0000ff;stroke-linecap:square;stroke-width:3;"/>
   </g>
   <g id="line2d_17">
    <path clip-path="url(#pdeedf363d5)" d="M 121.166392 430.56 
L 131.311847 430.365936 
L 141.457301 429.793846 
L 151.602756 428.859069 
L 161.74821 427.577346 
L 171.893665 425.964619 
L 182.039119 424.03686 
L 192.184574 421.809913 
L 202.330028 419.299393 
L 212.475483 416.520572 
L 222.620937 413.488301 
L 232.766392 410.216947 
L 242.911847 406.720357 
L 253.057301 403.01182 
L 263.202756 399.10404 
L 273.34821 395.009137 
L 283.493665 390.738624 
L 298.711847 384.027374 
L 313.930028 376.979897 
L 329.14821 369.627858 
L 344.366392 362.000184 
L 359.584574 354.123253 
L 374.802756 346.021123 
L 395.093665 334.907799 
L 415.384574 323.483242 
L 435.675483 311.787397 
L 455.966392 299.855448 
L 481.330028 284.654919 
L 506.693665 269.185349 
L 537.130028 250.328565 
L 567.566392 231.212072 
L 603.075483 208.651934 
L 643.657301 182.612779 
L 694.384574 149.796875 
L 765.402756 103.565177 
L 882.075483 27.36 
L 882.075483 27.36 
" style="fill:none;stroke:#ff0000;stroke-linecap:square;stroke-width:3;"/>
   </g>
   <g id="patch_3">
    <path d="M 83.120938 450.72 
L 83.120938 7.2 
" style="fill:none;stroke:#000000;stroke-linecap:square;stroke-linejoin:miter;stroke-width:0.8;"/>
   </g>
   <g id="patch_4">
    <path d="M 920.120937 450.72 
L 920.120937 7.2 
" style="fill:none;stroke:#000000;stroke-linecap:square;stroke-linejoin:miter;stroke-width:0.8;"/>
   </g>
   <g id="patch_5">
    <path d="M 83.120937 450.72 
L 920.120938 450.72 
" style="fill:none;stroke:#000000;stroke-linecap:square;stroke-linejoin:miter;stroke-width:0.8;"/>
   </g>
   <g id="patch_6">
    <path d="M 83.120937 7.2 
L 920.120938 7.2 
" style="fill:none;stroke:#000000;stroke-linecap:square;stroke-linejoin:miter;stroke-width:0.8;"/>
   </g>
   <g id="legend_1">
    <g id="patch_7">
     <path d="M 98.520938 121.675625 
L 392.330938 121.675625 
Q 396.730938 121.675625 396.730938 117.275625 
L 396.730938 22.6 
Q 396.730938 18.2 392.330938 18.2 
L 98.520938 18.2 
Q 94.120938 18.2 94.120938 22.6 
L 94.120938 117.275625 
Q 94.120938 121.675625 98.520938 121.675625 
z
" style="fill:#ffffff;opacity:0.8;stroke:#cccccc;stroke-linejoin:miter;"/>
    </g>
    <g id="line2d_18"/>
    <g id="line2d_19">
     <g>
      <use style="stroke:#000000;stroke-linejoin:miter;" x="124.920938" xlink:href="#m6d13ee4128" y="36.016563"/>
     </g>
    </g>
    <g id="text_17">
     <!-- Reference FEM -->
     <g transform="translate(164.520938 43.716563)scale(0.22 -0.22)">
      <defs>
       <path d="M 44.390625 34.1875 
Q 47.5625 33.109375 50.5625 29.59375 
Q 53.5625 26.078125 56.59375 19.921875 
L 66.609375 0 
L 56 0 
L 46.6875 18.703125 
Q 43.0625 26.03125 39.671875 28.421875 
Q 36.28125 30.8125 30.421875 30.8125 
L 19.671875 30.8125 
L 19.671875 0 
L 9.8125 0 
L 9.8125 72.90625 
L 32.078125 72.90625 
Q 44.578125 72.90625 50.734375 67.671875 
Q 56.890625 62.453125 56.890625 51.90625 
Q 56.890625 45.015625 53.6875 40.46875 
Q 50.484375 35.9375 44.390625 34.1875 
z
M 19.671875 64.796875 
L 19.671875 38.921875 
L 32.078125 38.921875 
Q 39.203125 38.921875 42.84375 42.21875 
Q 46.484375 45.515625 46.484375 51.90625 
Q 46.484375 58.296875 42.84375 61.546875 
Q 39.203125 64.796875 32.078125 64.796875 
z
" id="DejaVuSans-82"/>
       <path d="M 37.109375 75.984375 
L 37.109375 68.5 
L 28.515625 68.5 
Q 23.6875 68.5 21.796875 66.546875 
Q 19.921875 64.59375 19.921875 59.515625 
L 19.921875 54.6875 
L 34.71875 54.6875 
L 34.71875 47.703125 
L 19.921875 47.703125 
L 19.921875 0 
L 10.890625 0 
L 10.890625 47.703125 
L 2.296875 47.703125 
L 2.296875 54.6875 
L 10.890625 54.6875 
L 10.890625 58.5 
Q 10.890625 67.625 15.140625 71.796875 
Q 19.390625 75.984375 28.609375 75.984375 
z
" id="DejaVuSans-102"/>
       <path d="M 41.109375 46.296875 
Q 39.59375 47.171875 37.8125 47.578125 
Q 36.03125 48 33.890625 48 
Q 26.265625 48 22.1875 43.046875 
Q 18.109375 38.09375 18.109375 28.8125 
L 18.109375 0 
L 9.078125 0 
L 9.078125 54.6875 
L 18.109375 54.6875 
L 18.109375 46.1875 
Q 20.953125 51.171875 25.484375 53.578125 
Q 30.03125 56 36.53125 56 
Q 37.453125 56 38.578125 55.875 
Q 39.703125 55.765625 41.0625 55.515625 
z
" id="DejaVuSans-114"/>
       <path d="M 48.78125 52.59375 
L 48.78125 44.1875 
Q 44.96875 46.296875 41.140625 47.34375 
Q 37.3125 48.390625 33.40625 48.390625 
Q 24.65625 48.390625 19.8125 42.84375 
Q 14.984375 37.3125 14.984375 27.296875 
Q 14.984375 17.28125 19.8125 11.734375 
Q 24.65625 6.203125 33.40625 6.203125 
Q 37.3125 6.203125 41.140625 7.25 
Q 44.96875 8.296875 48.78125 10.40625 
L 48.78125 2.09375 
Q 45.015625 0.34375 40.984375 -0.53125 
Q 36.96875 -1.421875 32.421875 -1.421875 
Q 20.0625 -1.421875 12.78125 6.34375 
Q 5.515625 14.109375 5.515625 27.296875 
Q 5.515625 40.671875 12.859375 48.328125 
Q 20.21875 56 33.015625 56 
Q 37.15625 56 41.109375 55.140625 
Q 45.0625 54.296875 48.78125 52.59375 
z
" id="DejaVuSans-99"/>
       <path d="M 9.8125 72.90625 
L 51.703125 72.90625 
L 51.703125 64.59375 
L 19.671875 64.59375 
L 19.671875 43.109375 
L 48.578125 43.109375 
L 48.578125 34.8125 
L 19.671875 34.8125 
L 19.671875 0 
L 9.8125 0 
z
" id="DejaVuSans-70"/>
       <path d="M 9.8125 72.90625 
L 55.90625 72.90625 
L 55.90625 64.59375 
L 19.671875 64.59375 
L 19.671875 43.015625 
L 54.390625 43.015625 
L 54.390625 34.71875 
L 19.671875 34.71875 
L 19.671875 8.296875 
L 56.78125 8.296875 
L 56.78125 0 
L 9.8125 0 
z
" id="DejaVuSans-69"/>
       <path d="M 9.8125 72.90625 
L 24.515625 72.90625 
L 43.109375 23.296875 
L 61.8125 72.90625 
L 76.515625 72.90625 
L 76.515625 0 
L 66.890625 0 
L 66.890625 64.015625 
L 48.09375 14.015625 
L 38.1875 14.015625 
L 19.390625 64.015625 
L 19.390625 0 
L 9.8125 0 
z
" id="DejaVuSans-77"/>
      </defs>
      <use xlink:href="#DejaVuSans-82"/>
      <use x="64.982422" xlink:href="#DejaVuSans-101"/>
      <use x="126.505859" xlink:href="#DejaVuSans-102"/>
      <use x="161.710938" xlink:href="#DejaVuSans-101"/>
      <use x="223.234375" xlink:href="#DejaVuSans-114"/>
      <use x="262.097656" xlink:href="#DejaVuSans-101"/>
      <use x="323.621094" xlink:href="#DejaVuSans-110"/>
      <use x="387" xlink:href="#DejaVuSans-99"/>
      <use x="441.980469" xlink:href="#DejaVuSans-101"/>
      <use x="503.503906" xlink:href="#DejaVuSans-32"/>
      <use x="535.291016" xlink:href="#DejaVuSans-70"/>
      <use x="592.810547" xlink:href="#DejaVuSans-69"/>
      <use x="655.994141" xlink:href="#DejaVuSans-77"/>
     </g>
    </g>
    <g id="line2d_20">
     <path d="M 102.920938 68.308438 
L 146.920938 68.308438 
" style="fill:none;stroke:#0000ff;stroke-linecap:square;stroke-width:3;"/>
    </g>
    <g id="line2d_21"/>
    <g id="text_18">
     <!-- Initial mistuned FEM -->
     <g transform="translate(164.520938 76.008438)scale(0.22 -0.22)">
      <defs>
       <path d="M 9.8125 72.90625 
L 19.671875 72.90625 
L 19.671875 0 
L 9.8125 0 
z
" id="DejaVuSans-73"/>
       <path d="M 44.28125 53.078125 
L 44.28125 44.578125 
Q 40.484375 46.53125 36.375 47.5 
Q 32.28125 48.484375 27.875 48.484375 
Q 21.1875 48.484375 17.84375 46.4375 
Q 14.5 44.390625 14.5 40.28125 
Q 14.5 37.15625 16.890625 35.375 
Q 19.28125 33.59375 26.515625 31.984375 
L 29.59375 31.296875 
Q 39.15625 29.25 43.1875 25.515625 
Q 47.21875 21.78125 47.21875 15.09375 
Q 47.21875 7.46875 41.1875 3.015625 
Q 35.15625 -1.421875 24.609375 -1.421875 
Q 20.21875 -1.421875 15.453125 -0.5625 
Q 10.6875 0.296875 5.421875 2 
L 5.421875 11.28125 
Q 10.40625 8.6875 15.234375 7.390625 
Q 20.0625 6.109375 24.8125 6.109375 
Q 31.15625 6.109375 34.5625 8.28125 
Q 37.984375 10.453125 37.984375 14.40625 
Q 37.984375 18.0625 35.515625 20.015625 
Q 33.0625 21.96875 24.703125 23.78125 
L 21.578125 24.515625 
Q 13.234375 26.265625 9.515625 29.90625 
Q 5.8125 33.546875 5.8125 39.890625 
Q 5.8125 47.609375 11.28125 51.796875 
Q 16.75 56 26.8125 56 
Q 31.78125 56 36.171875 55.265625 
Q 40.578125 54.546875 44.28125 53.078125 
z
" id="DejaVuSans-115"/>
      </defs>
      <use xlink:href="#DejaVuSans-73"/>
      <use x="29.492188" xlink:href="#DejaVuSans-110"/>
      <use x="92.871094" xlink:href="#DejaVuSans-105"/>
      <use x="120.654297" xlink:href="#DejaVuSans-116"/>
      <use x="159.863281" xlink:href="#DejaVuSans-105"/>
      <use x="187.646484" xlink:href="#DejaVuSans-97"/>
      <use x="248.925781" xlink:href="#DejaVuSans-108"/>
      <use x="276.708984" xlink:href="#DejaVuSans-32"/>
      <use x="308.496094" xlink:href="#DejaVuSans-109"/>
      <use x="405.908203" xlink:href="#DejaVuSans-105"/>
      <use x="433.691406" xlink:href="#DejaVuSans-115"/>
      <use x="485.791016" xlink:href="#DejaVuSans-116"/>
      <use x="525" xlink:href="#DejaVuSans-117"/>
      <use x="588.378906" xlink:href="#DejaVuSans-110"/>
      <use x="651.757812" xlink:href="#DejaVuSans-101"/>
      <use x="713.28125" xlink:href="#DejaVuSans-100"/>
      <use x="776.757812" xlink:href="#DejaVuSans-32"/>
      <use x="808.544922" xlink:href="#DejaVuSans-70"/>
      <use x="866.064453" xlink:href="#DejaVuSans-69"/>
      <use x="929.248047" xlink:href="#DejaVuSans-77"/>
     </g>
    </g>
    <g id="line2d_22">
     <path d="M 102.920938 100.600313 
L 146.920938 100.600313 
" style="fill:none;stroke:#ff0000;stroke-linecap:square;stroke-width:3;"/>
    </g>
    <g id="line2d_23"/>
    <g id="text_19">
     <!-- Converged FEM -->
     <g transform="translate(164.520938 108.300313)scale(0.22 -0.22)">
      <defs>
       <path d="M 64.40625 67.28125 
L 64.40625 56.890625 
Q 59.421875 61.53125 53.78125 63.8125 
Q 48.140625 66.109375 41.796875 66.109375 
Q 29.296875 66.109375 22.65625 58.46875 
Q 16.015625 50.828125 16.015625 36.375 
Q 16.015625 21.96875 22.65625 14.328125 
Q 29.296875 6.6875 41.796875 6.6875 
Q 48.140625 6.6875 53.78125 8.984375 
Q 59.421875 11.28125 64.40625 15.921875 
L 64.40625 5.609375 
Q 59.234375 2.09375 53.4375 0.328125 
Q 47.65625 -1.421875 41.21875 -1.421875 
Q 24.65625 -1.421875 15.125 8.703125 
Q 5.609375 18.84375 5.609375 36.375 
Q 5.609375 53.953125 15.125 64.078125 
Q 24.65625 74.21875 41.21875 74.21875 
Q 47.75 74.21875 53.53125 72.484375 
Q 59.328125 70.75 64.40625 67.28125 
z
" id="DejaVuSans-67"/>
       <path d="M 30.609375 48.390625 
Q 23.390625 48.390625 19.1875 42.75 
Q 14.984375 37.109375 14.984375 27.296875 
Q 14.984375 17.484375 19.15625 11.84375 
Q 23.34375 6.203125 30.609375 6.203125 
Q 37.796875 6.203125 41.984375 11.859375 
Q 46.1875 17.53125 46.1875 27.296875 
Q 46.1875 37.015625 41.984375 42.703125 
Q 37.796875 48.390625 30.609375 48.390625 
z
M 30.609375 56 
Q 42.328125 56 49.015625 48.375 
Q 55.71875 40.765625 55.71875 27.296875 
Q 55.71875 13.875 49.015625 6.21875 
Q 42.328125 -1.421875 30.609375 -1.421875 
Q 18.84375 -1.421875 12.171875 6.21875 
Q 5.515625 13.875 5.515625 27.296875 
Q 5.515625 40.765625 12.171875 48.375 
Q 18.84375 56 30.609375 56 
z
" id="DejaVuSans-111"/>
       <path d="M 2.984375 54.6875 
L 12.5 54.6875 
L 29.59375 8.796875 
L 46.6875 54.6875 
L 56.203125 54.6875 
L 35.6875 0 
L 23.484375 0 
z
" id="DejaVuSans-118"/>
      </defs>
      <use xlink:href="#DejaVuSans-67"/>
      <use x="69.824219" xlink:href="#DejaVuSans-111"/>
      <use x="131.005859" xlink:href="#DejaVuSans-110"/>
      <use x="194.384766" xlink:href="#DejaVuSans-118"/>
      <use x="253.564453" xlink:href="#DejaVuSans-101"/>
      <use x="315.087891" xlink:href="#DejaVuSans-114"/>
      <use x="354.451172" xlink:href="#DejaVuSans-103"/>
      <use x="417.927734" xlink:href="#DejaVuSans-101"/>
      <use x="479.451172" xlink:href="#DejaVuSans-100"/>
      <use x="542.927734" xlink:href="#DejaVuSans-32"/>
      <use x="574.714844" xlink:href="#DejaVuSans-70"/>
      <use x="632.234375" xlink:href="#DejaVuSans-69"/>
      <use x="695.417969" xlink:href="#DejaVuSans-77"/>
     </g>
    </g>
   </g>
  </g>
 </g>
 <defs>
  <clipPath id="pdeedf363d5">
   <rect height="443.52" width="837" x="83.120938" y="7.2"/>
  </clipPath>
 </defs>
</svg>
