<svg width="1280" height="720" xmlns="http://www.w3.org/2000/svg" xmlns:xlink="http://www.w3.org/1999/xlink" overflow="hidden"><defs><clipPath id="clip0"><rect x="0" y="0" width="1280" height="720"/></clipPath></defs><g clip-path="url(#clip0)"><rect x="0" y="0" width="1280" height="720" fill="#FFFFFF"/><path d="M665.5 62.5001C665.5 52.5589 673.559 44.5001 683.5 44.5001L719.5 44.5001C729.441 44.5001 737.5 52.5589 737.5 62.5001L737.5 62.5001C737.5 72.4412 729.441 80.5 719.5 80.5L683.5 80.5C673.559 80.5 665.5 72.4412 665.5 62.5001Z" stroke="#4472C4" stroke-width="2.66667" stroke-miterlimit="8" fill="#F8CBAD" fill-rule="evenodd"/><text font-family="Arial,Arial_MSFontService,sans-serif" font-weight="400" font-size="16" transform="translate(683.976 69)">Start</text><path d="M640.5 138.5C640.5 134.082 644.082 130.5 648.5 130.5L754.5 130.5C758.918 130.5 762.5 134.082 762.5 138.5L762.5 170.5C762.5 174.918 758.918 178.5 754.5 178.5L648.5 178.5C644.082 178.5 640.5 174.918 640.5 170.5Z" stroke="#000000" stroke-width="2.66667" stroke-miterlimit="8" fill="#FFFFFF" fill-rule="evenodd"/><text font-family="Arial,Arial_MSFontService,sans-serif" font-weight="400" font-size="16" transform="translate(663.142 160)">Initial FEM</text><path d="M702.833 80.5 702.834 123.782 700.167 123.782 700.167 80.5001ZM705.5 122.449 701.5 130.449 697.5 122.449Z"/><path d="M586.5 530.5 701 483.5 815.5 530.5 701 577.5Z" stroke="#000000" stroke-width="2.66667" stroke-miterlimit="8" fill="#FFFFFF" fill-rule="evenodd"/><text font-family="Arial,Arial_MSFontService,sans-serif" font-weight="400" font-size="16" transform="translate(653.169 537)">Convergence</text><path d="M665.5 640.5C665.5 630.559 673.559 622.5 683.5 622.5L719.5 622.5C729.441 622.5 737.5 630.559 737.5 640.5L737.5 640.5C737.5 650.441 729.441 658.5 719.5 658.5L683.5 658.5C673.559 658.5 665.5 650.441 665.5 640.5Z" stroke="#4472C4" stroke-width="2.66667" stroke-miterlimit="8" fill="#F8CBAD" fill-rule="evenodd"/><text font-family="Arial,Arial_MSFontService,sans-serif" font-weight="400" font-size="16" transform="translate(686.335 646)">End</text><path d="M702.833 454.5 702.833 476.326 700.167 476.326 700.167 454.5ZM705.5 474.993 701.5 482.993 697.5 474.993Z"/><path d="M839.5 134.5C839.5 128.977 843.977 124.5 849.5 124.5L1021.5 124.5C1027.02 124.5 1031.5 128.977 1031.5 134.5L1031.5 174.5C1031.5 180.023 1027.02 184.5 1021.5 184.5L849.5 184.5C843.977 184.5 839.5 180.023 839.5 174.5Z" stroke="#000000" stroke-width="2.66667" stroke-miterlimit="8" fill="#FFFFFF" fill-rule="evenodd"/><text font-family="Arial,Arial_MSFontService,sans-serif" font-weight="400" font-size="15" transform="translate(855.343 151)">GVT data: mode shapes <tspan font-size="15" x="27.1667" y="18">and frequencies</tspan></text><path d="M605.5 239.5C605.5 231.768 611.768 225.5 619.5 225.5L783.5 225.5C791.232 225.5 797.5 231.768 797.5 239.5L797.5 295.5C797.5 303.232 791.232 309.5 783.5 309.5L619.5 309.5C611.768 309.5 605.5 303.232 605.5 295.5Z" stroke="#000000" stroke-width="2.66667" stroke-miterlimit="8" fill="#FFFFFF" fill-rule="evenodd"/><text font-family="Arial,Arial_MSFontService,sans-serif" font-weight="400" font-size="15" transform="translate(626.809 246)">Match frequencies and <tspan font-size="15" x="1.16669" y="18">mass properties, while </tspan><tspan font-size="15" x="-5.66663" y="35">satisfying MAC for mode </tspan><tspan font-size="15" x="50.4133" y="53">shapes</tspan></text><path d="M586.5 372C586.5 362.888 593.888 355.5 603 355.5L799 355.5C808.113 355.5 815.5 362.888 815.5 372L815.5 438C815.5 447.113 808.113 454.5 799 454.5L603 454.5C593.888 454.5 586.5 447.113 586.5 438Z" stroke="#000000" stroke-width="2.66667" stroke-miterlimit="8" fill="#FFFFFF" fill-rule="evenodd"/><text font-family="Arial,Arial_MSFontService,sans-serif" font-weight="400" font-size="15" transform="translate(604.002 384)">Check mass, frequencies and <tspan font-size="15" x="3.7533" y="18">mode shapes of the updated </tspan><tspan font-size="15" x="4.83331" y="35">numerical model against the </tspan><tspan font-size="15" x="30.92" y="53">experimental results</tspan></text><path d="M1.33329-0.0111278 1.66788 40.0789-0.99869 40.1012-1.33329 0.0111278ZM4.32333 38.7234 0.390236 46.7565-3.67639 38.7902Z" transform="matrix(-1 0 0 1 701.89 309.5)"/><path d="M1.33333-6.30931e-06 1.33351 37.7067-1.33315 37.7067-1.33333 6.30931e-06ZM4.00017 36.3733 0.000209974 44.3733-3.99983 36.3734Z" transform="matrix(-1 0 0 1 701.5 577.5)"/><text fill="#548235" font-family="Calibri,Calibri_MSFontService,sans-serif" font-weight="400" font-size="24" transform="translate(741.961 607)">YES</text><path d="M0 1.33333-24.0002 1.33333-22.6669 0-22.6669 376.016-24.0002 374.683 47.5185 374.683 47.5185 377.35-25.3336 377.35-25.3336-1.33333 0-1.33333ZM46.1852 372.016 54.1852 376.016 46.1852 380.016Z" transform="matrix(1 -1.22465e-16 -1.22465e-16 -1 586.5 530.516)"/><path d="M1.33333-5.98772e-06 1.33351 40.0899-1.33315 40.0899-1.33333 5.98772e-06ZM4.00017 38.7565 0.000209974 46.7565-3.99983 38.7566Z" transform="matrix(-1 0 0 1 701.5 178.5)"/><path d="M1.82051e-06-1.33333 70.2253-1.33324 70.2253 1.33343-1.82051e-06 1.33333ZM68.892-3.99991 76.892 0.000104987 68.892 4.00009Z" transform="matrix(-1 0 0 1 839.392 154.5)"/><text fill="#FF0000" font-family="Calibri,Calibri_MSFontService,sans-serif" font-weight="400" font-size="24" transform="translate(515.465 544)">NO</text><rect x="868.5" y="472.5" width="230" height="124" stroke="#2F528F" stroke-width="1.33333" stroke-miterlimit="8" fill="none"/><text font-family="Arial,Arial_MSFontService,sans-serif" font-weight="400" font-size="16" transform="translate(877.997 502)">Termination criteria:<tspan font-size="16" x="0" y="19">1.</tspan><tspan font-size="16" x="36" y="19">Maximum number of </tspan><tspan font-size="16" x="36" y="38">iterations exceeded.</tspan><tspan font-size="16" x="0" y="57">2.</tspan><tspan font-size="16" x="36" y="57">Acceptable match found </tspan><tspan font-size="16" x="36" y="76">within tolerance</tspan></text></g></svg>