<svg width="1280" height="720" xmlns="http://www.w3.org/2000/svg" xmlns:xlink="http://www.w3.org/1999/xlink" overflow="hidden"><defs><clipPath id="clip0"><rect x="0" y="0" width="1280" height="720"/></clipPath></defs><g clip-path="url(#clip0)"><rect x="0" y="0" width="1280" height="720" fill="#FFFFFF"/><path d="M326.5 56.5001C326.5 46.5589 334.559 38.5001 344.5 38.5001L380.5 38.5001C390.441 38.5001 398.5 46.5589 398.5 56.5001L398.5 56.5001C398.5 66.4412 390.441 74.5 380.5 74.5L344.5 74.5C334.559 74.5 326.5 66.4412 326.5 56.5001Z" stroke="#4472C4" stroke-width="2.66667" stroke-miterlimit="8" fill="#F8CBAD" fill-rule="evenodd"/><text font-family="Arial,Arial_MSFontService,sans-serif" font-weight="400" font-size="15" transform="translate(346.252 61)">Start</text><path d="M440.5 40.5003C440.5 36.0819 444.082 32.5001 448.5 32.5001L554.5 32.5001C558.918 32.5001 562.5 36.0819 562.5 40.5003L562.5 72.5C562.5 76.9184 558.918 80.5002 554.5 80.5002L448.5 80.5002C444.082 80.5002 440.5 76.9184 440.5 72.5Z" stroke="#000000" stroke-width="2.66667" stroke-miterlimit="8" fill="#FFFFFF" fill-rule="evenodd"/><text font-family="Arial,Arial_MSFontService,sans-serif" font-weight="400" font-size="15" transform="translate(467.323 52)">Reference <tspan font-size="15" x="18.3333" y="18">FEM</tspan></text><path d="M398.5 55.1667 434.429 55.1668 434.429 57.8335 398.5 57.8334ZM433.095 52.5001 441.095 56.5002 433.095 60.5001Z"/><path d="M587.5 172.334C587.5 163.037 595.037 155.5 604.334 155.5L671.666 155.5C680.963 155.5 688.5 163.037 688.5 172.334L688.5 277.666C688.5 286.963 680.963 294.5 671.666 294.5L604.334 294.5C595.037 294.5 587.5 286.963 587.5 277.666Z" stroke="#000000" stroke-width="2.66667" stroke-miterlimit="8" fill="#FFFFFF" fill-rule="evenodd"/><text font-family="Arial,Arial_MSFontService,sans-serif" font-weight="400" font-size="15" transform="translate(614.875 186)">Extract <tspan font-family="Cambria Math,Cambria Math_MSFontService,sans-serif" font-size="15" x="-3.79999" y="18">ğœ”</tspan><tspan font-family="Cambria Math,Cambria Math_MSFontService,sans-serif" font-size="15" x="7.18665" y="18"> </tspan><tspan font-family="Cambria Math,Cambria Math_MSFontService,sans-serif" font-size="15" x="10.3533" y="18">ğ‘ğ‘›ğ‘‘</tspan><tspan font-family="Cambria Math,Cambria Math_MSFontService,sans-serif" font-size="15" x="35.82" y="18"> </tspan><tspan font-family="Cambria Math,Cambria Math_MSFontService,sans-serif" font-size="15" x="38.9866" y="18">ğœ™</tspan><tspan font-size="15" x="-11.0867" y="35">for all load </tspan><tspan font-size="15" x="-13" y="53">cases from </tspan><tspan font-size="15" x="-8.16669" y="71">reference </tspan><tspan font-size="15" x="7.24664" y="88">FEM</tspan></text><path d="M1.33332-0.00648623 1.42246 18.318-1.24417 18.331-1.33332 0.00648623ZM4.08261 16.9717 0.121575 24.9911-3.9173 17.0106Z" transform="matrix(-1 0 0 1 706.622 655.5)"/><path d="M599.5 610.5 706.5 565.5 813.5 610.5 706.5 655.5Z" stroke="#000000" stroke-width="2.66667" stroke-miterlimit="8" fill="#FFFFFF" fill-rule="evenodd"/><text font-family="Arial,Arial_MSFontService,sans-serif" font-weight="400" font-size="15" transform="translate(662.366 615)">Convergence</text><path d="M670.5 698.5C670.5 688.559 678.559 680.5 688.5 680.5L724.5 680.5C734.441 680.5 742.5 688.559 742.5 698.5L742.5 698.5C742.5 708.441 734.441 716.5 724.5 716.5L688.5 716.5C678.559 716.5 670.5 708.441 670.5 698.5Z" stroke="#4472C4" stroke-width="2.66667" stroke-miterlimit="8" fill="#F8CBAD" fill-rule="evenodd"/><text font-family="Arial,Arial_MSFontService,sans-serif" font-weight="400" font-size="15" transform="translate(692.827 704)">End</text><path d="M605.5 28.5003C605.5 20.7682 611.768 14.5001 619.5 14.5001L791.5 14.5001C799.232 14.5001 805.5 20.7682 805.5 28.5003L805.5 84.4998C805.5 92.2319 799.232 98.5 791.5 98.5L619.5 98.5C611.768 98.5 605.5 92.2319 605.5 84.4998Z" stroke="#000000" stroke-width="2.66667" stroke-miterlimit="8" fill="#FFFFFF" fill-rule="evenodd"/><text font-family="Arial,Arial_MSFontService,sans-serif" font-weight="400" font-size="15" transform="translate(651.591 35)">Define n <tspan font-size="15" x="58.6667" y="0">loading</tspan><tspan font-size="15" x="-15.7533" y="18">conditions</tspan><tspan font-size="15" x="54.4134" y="18">that </tspan><tspan font-size="15" x="82.7467" y="18">cause </tspan><tspan font-size="15" x="-23.8333" y="35">large deformation in the </tspan><tspan font-size="15" x="-16.92" y="53">very flexible test case</tspan></text><path d="M587.5 342.167C587.5 331.305 596.305 322.5 607.167 322.5L804.833 322.5C815.695 322.5 824.5 331.305 824.5 342.167L824.5 420.833C824.5 431.695 815.695 440.5 804.833 440.5L607.167 440.5C596.305 440.5 587.5 431.695 587.5 420.833Z" stroke="#000000" stroke-width="2.66667" stroke-miterlimit="8" fill="#FFFFFF" fill-rule="evenodd"/><text font-family="Arial,Arial_MSFontService,sans-serif" font-weight="400" font-size="15" transform="translate(604.911 342)">For <tspan font-size="15" x="26" y="0">all </tspan><tspan font-size="15" x="44.8333" y="0">deformed </tspan><tspan font-size="15" x="110.667" y="0">configurations </tspan><tspan font-size="15" x="8.83997" y="18">simultaneously, </tspan><tspan font-size="15" x="114.007" y="18">match the </tspan><tspan font-family="Cambria Math,Cambria Math_MSFontService,sans-serif" font-size="15" x="182.173" y="18">ğœ”</tspan><tspan font-size="15" x="34.6666" y="35">and mass properties</tspan><tspan font-size="15" x="1.74664" y="53">of the mistuned model with the </tspan><tspan font-size="15" x="29.2466" y="71">reference </tspan><tspan font-size="15" x="95.08" y="71">model while </tspan><tspan font-size="15" x="34.4266" y="88">satisfying MAC for </tspan><tspan font-family="Cambria Math,Cambria Math_MSFontService,sans-serif" font-size="15" x="157.26" y="88">ğœ™</tspan></text><path d="M609.5 478C609.5 471.097 615.097 465.5 622 465.5L791 465.5C797.903 465.5 803.5 471.097 803.5 478L803.5 528C803.5 534.903 797.903 540.5 791 540.5L622 540.5C615.097 540.5 609.5 534.903 609.5 528Z" stroke="#000000" stroke-width="2.66667" stroke-miterlimit="8" fill="#FFFFFF" fill-rule="evenodd"/><text font-family="Arial,Arial_MSFontService,sans-serif" font-weight="400" font-size="15" transform="translate(635.031 481)">Check mass, <tspan font-family="Cambria Math,Cambria Math_MSFontService,sans-serif" font-size="15" x="88.6666" y="0">ğœ”</tspan><tspan font-family="Cambria Math,Cambria Math_MSFontService,sans-serif" font-size="15" x="99.6533" y="0"> </tspan><tspan font-family="Cambria Math,Cambria Math_MSFontService,sans-serif" font-size="15" x="102.82" y="0">ğ‘ğ‘›ğ‘‘</tspan><tspan font-family="Cambria Math,Cambria Math_MSFontService,sans-serif" font-size="15" x="128.287" y="0"> </tspan><tspan font-family="Cambria Math,Cambria Math_MSFontService,sans-serif" font-size="15" x="131.453" y="0">ğœ™</tspan><tspan font-size="15" x="-7.62" y="18">of the updated mistuned </tspan><tspan font-size="15" x="13.0466" y="35">model against the </tspan><tspan font-size="15" x="16.38" y="53">reference results</tspan></text><path d="M707.833 440.5 707.834 458.824 705.167 458.824 705.167 440.5ZM710.5 457.491 706.5 465.491 702.5 457.491Z"/><text fill="#548235" font-family="Arial,Arial_MSFontService,sans-serif" font-weight="400" font-size="24" transform="translate(739.853 669)">YES</text><path d="M599.195 611.79 562.167 611.79 562.167 380.167 580.833 380.167 580.833 382.833 563.5 382.833 564.833 381.5 564.833 610.456 563.5 609.123 599.195 609.123ZM579.5 377.5 587.5 381.5 579.5 385.5Z"/><text fill="#FF0000" font-family="Arial,Arial_MSFontService,sans-serif" font-weight="400" font-size="24" transform="translate(507.705 604)">NO</text><rect x="834.5" y="537.5" width="214" height="117" stroke="#2F528F" stroke-width="1.33333" stroke-miterlimit="8" fill="none"/><text font-family="Arial,Arial_MSFontService,sans-serif" font-weight="400" font-size="15" transform="translate(843.153 565)">Termination criteria:<tspan font-size="15" x="0" y="18">1.</tspan><tspan font-size="15" x="36" y="18">Maximum number of </tspan><tspan font-size="15" x="36" y="35">iterations </tspan>exceeded<tspan font-size="15" x="0" y="53">2.</tspan><tspan font-size="15" x="36" y="53">Acceptable match found </tspan><tspan font-size="15" x="36" y="71">within tolerance</tspan></text><path d="M424.5 118.834C424.5 113.127 429.127 108.5 434.834 108.5L568.167 108.5C573.874 108.5 578.5 113.127 578.5 118.834L578.5 160.167C578.5 165.874 573.874 170.5 568.167 170.5L434.834 170.5C429.127 170.5 424.5 165.874 424.5 160.167Z" stroke="#000000" stroke-width="2.66667" stroke-miterlimit="8" fill="#FFFFFF" fill-rule="evenodd"/><text font-family="Arial,Arial_MSFontService,sans-serif" font-weight="400" font-size="15" transform="translate(438.729 135)">Generate mistuned <tspan font-size="15" x="42.2467" y="18">model</tspan></text><path d="M721.5 173.334C721.5 163.484 729.484 155.5 739.334 155.5L810.666 155.5C820.516 155.5 828.5 163.484 828.5 173.334L828.5 276.666C828.5 286.516 820.516 294.5 810.666 294.5L739.334 294.5C729.484 294.5 721.5 286.516 721.5 276.666Z" stroke="#000000" stroke-width="2.66667" stroke-miterlimit="8" fill="#FFFFFF" fill-rule="evenodd"/><text font-family="Arial,Arial_MSFontService,sans-serif" font-weight="400" font-size="15" transform="translate(751.632 186)">Extract<tspan font-family="Cambria Math,Cambria Math_MSFontService,sans-serif" font-size="15" x="-3.80005" y="18">ğœ”</tspan><tspan font-family="Cambria Math,Cambria Math_MSFontService,sans-serif" font-size="15" x="7.18665" y="18"> </tspan><tspan font-family="Cambria Math,Cambria Math_MSFontService,sans-serif" font-size="15" x="10.3533" y="18">ğ‘ğ‘›ğ‘‘</tspan><tspan font-family="Cambria Math,Cambria Math_MSFontService,sans-serif" font-size="15" x="35.8199" y="18"> </tspan><tspan font-family="Cambria Math,Cambria Math_MSFontService,sans-serif" font-size="15" x="38.9866" y="18">ğœ™</tspan><tspan font-size="15" x="-9.08002" y="35">for all load </tspan><tspan font-size="15" x="-13" y="53">cases from </tspan><tspan font-size="15" x="-7" y="71">mistuned </tspan><tspan font-size="15" x="7.2533" y="88">FEM</tspan></text><path d="M0.863401-1.01603 62.8324 51.644 61.1056 53.676-0.863401 1.01603ZM63.5432 48.7485 67.0491 56.977 58.3628 54.8447Z" transform="matrix(-1 0 0 1 705.549 98.5001)"/><path d="M1.33331-0.00836171 1.46819 21.4995-1.19842 21.5162-1.33331 0.00836171ZM4.12644 20.1495 0.176693 28.1744-3.8734 20.1996Z" transform="matrix(-1 0 0 1 501.677 80.5001)"/><path d="M562.51 55.1668 598.438 55.4267 598.419 58.0933 562.49 57.8334ZM597.124 52.7504 605.095 56.8082 597.067 60.7502Z"/><path d="M707.833 540.494 707.922 558.818 705.256 558.831 705.167 540.507ZM710.583 557.472 706.621 565.491 702.583 557.511Z"/><path d="M0.905979-0.978253 38.6099 33.94 36.7979 35.8966-0.905979 0.978253ZM39.4436 31.0776 42.5952 39.4482 34.0077 36.9471Z" transform="matrix(1 0 0 -1 578.5 138.948)"/><path d="M706.344 97.4677 770.893 150.226 769.205 152.29 704.656 99.5324ZM771.548 147.317 775.211 155.477 766.485 153.511Z"/><path d="M639.833 294.5 639.833 316.02 637.167 316.02 637.167 294.5ZM642.5 314.686 638.5 322.686 634.5 314.686Z"/><path d="M775.833 294.5 775.833 316.02 773.167 316.02 773.167 294.5ZM778.5 314.686 774.5 322.686 770.5 314.686Z"/></g></svg>