<?xml version="1.0" encoding="utf-8" standalone="no"?>
<!DOCTYPE svg PUBLIC "-//W3C//DTD SVG 1.1//EN"
  "http://www.w3.org/Graphics/SVG/1.1/DTD/svg11.dtd">
<!-- Created with matplotlib (https://matplotlib.org/) -->
<svg height="629.158437pt" version="1.1" viewBox="0 0 1059.870156 629.158437" width="1059.870156pt" xmlns="http://www.w3.org/2000/svg" xmlns:xlink="http://www.w3.org/1999/xlink">
 <metadata>
  <rdf:RDF xmlns:cc="http://creativecommons.org/ns#" xmlns:dc="http://purl.org/dc/elements/1.1/" xmlns:rdf="http://www.w3.org/1999/02/22-rdf-syntax-ns#">
   <cc:Work>
    <dc:type rdf:resource="http://purl.org/dc/dcmitype/StillImage"/>
    <dc:date>2021-12-02T19:30:30.864289</dc:date>
    <dc:format>image/svg+xml</dc:format>
    <dc:creator>
     <cc:Agent>
      <dc:title>Matplotlib v3.3.4, https://matplotlib.org/</dc:title>
     </cc:Agent>
    </dc:creator>
   </cc:Work>
  </rdf:RDF>
 </metadata>
 <defs>
  <style type="text/css">*{stroke-linecap:butt;stroke-linejoin:round;}</style>
 </defs>
 <g id="figure_1">
  <g id="patch_1">
   <path d="M 0 629.158437 
L 1059.870156 629.158437 
L 1059.870156 0 
L 0 0 
z
" style="fill:#ffffff;"/>
  </g>
  <g id="axes_1">
   <g id="patch_2">
    <path d="M 104.070156 561.6 
L 1052.670156 561.6 
L 1052.670156 7.2 
L 104.070156 7.2 
z
" style="fill:#ffffff;"/>
   </g>
   <g id="matplotlib.axis_1">
    <g id="xtick_1">
     <g id="line2d_1">
      <defs>
       <path d="M 0 0 
L 0 3.5 
" id="m236f84b6c5" style="stroke:#000000;stroke-width:0.8;"/>
      </defs>
      <g>
       <use style="stroke:#000000;stroke-width:0.8;" x="147.188338" xlink:href="#m236f84b6c5" y="561.6"/>
      </g>
     </g>
     <g id="text_1">
      <!-- 0.0 -->
      <g transform="translate(127.309432 587.596094)scale(0.25 -0.25)">
       <defs>
        <path d="M 31.78125 66.40625 
Q 24.171875 66.40625 20.328125 58.90625 
Q 16.5 51.421875 16.5 36.375 
Q 16.5 21.390625 20.328125 13.890625 
Q 24.171875 6.390625 31.78125 6.390625 
Q 39.453125 6.390625 43.28125 13.890625 
Q 47.125 21.390625 47.125 36.375 
Q 47.125 51.421875 43.28125 58.90625 
Q 39.453125 66.40625 31.78125 66.40625 
z
M 31.78125 74.21875 
Q 44.046875 74.21875 50.515625 64.515625 
Q 56.984375 54.828125 56.984375 36.375 
Q 56.984375 17.96875 50.515625 8.265625 
Q 44.046875 -1.421875 31.78125 -1.421875 
Q 19.53125 -1.421875 13.0625 8.265625 
Q 6.59375 17.96875 6.59375 36.375 
Q 6.59375 54.828125 13.0625 64.515625 
Q 19.53125 74.21875 31.78125 74.21875 
z
" id="DejaVuSans-48"/>
        <path d="M 10.6875 12.40625 
L 21 12.40625 
L 21 0 
L 10.6875 0 
z
" id="DejaVuSans-46"/>
       </defs>
       <use xlink:href="#DejaVuSans-48"/>
       <use x="63.623047" xlink:href="#DejaVuSans-46"/>
       <use x="95.410156" xlink:href="#DejaVuSans-48"/>
      </g>
     </g>
    </g>
    <g id="xtick_2">
     <g id="line2d_2">
      <g>
       <use style="stroke:#000000;stroke-width:0.8;" x="264.501709" xlink:href="#m236f84b6c5" y="561.6"/>
      </g>
     </g>
     <g id="text_2">
      <!-- 0.2 -->
      <g transform="translate(244.622803 587.596094)scale(0.25 -0.25)">
       <defs>
        <path d="M 19.1875 8.296875 
L 53.609375 8.296875 
L 53.609375 0 
L 7.328125 0 
L 7.328125 8.296875 
Q 12.9375 14.109375 22.625 23.890625 
Q 32.328125 33.6875 34.8125 36.53125 
Q 39.546875 41.84375 41.421875 45.53125 
Q 43.3125 49.21875 43.3125 52.78125 
Q 43.3125 58.59375 39.234375 62.25 
Q 35.15625 65.921875 28.609375 65.921875 
Q 23.96875 65.921875 18.8125 64.3125 
Q 13.671875 62.703125 7.8125 59.421875 
L 7.8125 69.390625 
Q 13.765625 71.78125 18.9375 73 
Q 24.125 74.21875 28.421875 74.21875 
Q 39.75 74.21875 46.484375 68.546875 
Q 53.21875 62.890625 53.21875 53.421875 
Q 53.21875 48.921875 51.53125 44.890625 
Q 49.859375 40.875 45.40625 35.40625 
Q 44.1875 33.984375 37.640625 27.21875 
Q 31.109375 20.453125 19.1875 8.296875 
z
" id="DejaVuSans-50"/>
       </defs>
       <use xlink:href="#DejaVuSans-48"/>
       <use x="63.623047" xlink:href="#DejaVuSans-46"/>
       <use x="95.410156" xlink:href="#DejaVuSans-50"/>
      </g>
     </g>
    </g>
    <g id="xtick_3">
     <g id="line2d_3">
      <g>
       <use style="stroke:#000000;stroke-width:0.8;" x="381.815081" xlink:href="#m236f84b6c5" y="561.6"/>
      </g>
     </g>
     <g id="text_3">
      <!-- 0.4 -->
      <g transform="translate(361.936175 587.596094)scale(0.25 -0.25)">
       <defs>
        <path d="M 37.796875 64.3125 
L 12.890625 25.390625 
L 37.796875 25.390625 
z
M 35.203125 72.90625 
L 47.609375 72.90625 
L 47.609375 25.390625 
L 58.015625 25.390625 
L 58.015625 17.1875 
L 47.609375 17.1875 
L 47.609375 0 
L 37.796875 0 
L 37.796875 17.1875 
L 4.890625 17.1875 
L 4.890625 26.703125 
z
" id="DejaVuSans-52"/>
       </defs>
       <use xlink:href="#DejaVuSans-48"/>
       <use x="63.623047" xlink:href="#DejaVuSans-46"/>
       <use x="95.410156" xlink:href="#DejaVuSans-52"/>
      </g>
     </g>
    </g>
    <g id="xtick_4">
     <g id="line2d_4">
      <g>
       <use style="stroke:#000000;stroke-width:0.8;" x="499.128452" xlink:href="#m236f84b6c5" y="561.6"/>
      </g>
     </g>
     <g id="text_4">
      <!-- 0.6 -->
      <g transform="translate(479.249546 587.596094)scale(0.25 -0.25)">
       <defs>
        <path d="M 33.015625 40.375 
Q 26.375 40.375 22.484375 35.828125 
Q 18.609375 31.296875 18.609375 23.390625 
Q 18.609375 15.53125 22.484375 10.953125 
Q 26.375 6.390625 33.015625 6.390625 
Q 39.65625 6.390625 43.53125 10.953125 
Q 47.40625 15.53125 47.40625 23.390625 
Q 47.40625 31.296875 43.53125 35.828125 
Q 39.65625 40.375 33.015625 40.375 
z
M 52.59375 71.296875 
L 52.59375 62.3125 
Q 48.875 64.0625 45.09375 64.984375 
Q 41.3125 65.921875 37.59375 65.921875 
Q 27.828125 65.921875 22.671875 59.328125 
Q 17.53125 52.734375 16.796875 39.40625 
Q 19.671875 43.65625 24.015625 45.921875 
Q 28.375 48.1875 33.59375 48.1875 
Q 44.578125 48.1875 50.953125 41.515625 
Q 57.328125 34.859375 57.328125 23.390625 
Q 57.328125 12.15625 50.6875 5.359375 
Q 44.046875 -1.421875 33.015625 -1.421875 
Q 20.359375 -1.421875 13.671875 8.265625 
Q 6.984375 17.96875 6.984375 36.375 
Q 6.984375 53.65625 15.1875 63.9375 
Q 23.390625 74.21875 37.203125 74.21875 
Q 40.921875 74.21875 44.703125 73.484375 
Q 48.484375 72.75 52.59375 71.296875 
z
" id="DejaVuSans-54"/>
       </defs>
       <use xlink:href="#DejaVuSans-48"/>
       <use x="63.623047" xlink:href="#DejaVuSans-46"/>
       <use x="95.410156" xlink:href="#DejaVuSans-54"/>
      </g>
     </g>
    </g>
    <g id="xtick_5">
     <g id="line2d_5">
      <g>
       <use style="stroke:#000000;stroke-width:0.8;" x="616.441824" xlink:href="#m236f84b6c5" y="561.6"/>
      </g>
     </g>
     <g id="text_5">
      <!-- 0.8 -->
      <g transform="translate(596.562917 587.596094)scale(0.25 -0.25)">
       <defs>
        <path d="M 31.78125 34.625 
Q 24.75 34.625 20.71875 30.859375 
Q 16.703125 27.09375 16.703125 20.515625 
Q 16.703125 13.921875 20.71875 10.15625 
Q 24.75 6.390625 31.78125 6.390625 
Q 38.8125 6.390625 42.859375 10.171875 
Q 46.921875 13.96875 46.921875 20.515625 
Q 46.921875 27.09375 42.890625 30.859375 
Q 38.875 34.625 31.78125 34.625 
z
M 21.921875 38.8125 
Q 15.578125 40.375 12.03125 44.71875 
Q 8.5 49.078125 8.5 55.328125 
Q 8.5 64.0625 14.71875 69.140625 
Q 20.953125 74.21875 31.78125 74.21875 
Q 42.671875 74.21875 48.875 69.140625 
Q 55.078125 64.0625 55.078125 55.328125 
Q 55.078125 49.078125 51.53125 44.71875 
Q 48 40.375 41.703125 38.8125 
Q 48.828125 37.15625 52.796875 32.3125 
Q 56.78125 27.484375 56.78125 20.515625 
Q 56.78125 9.90625 50.3125 4.234375 
Q 43.84375 -1.421875 31.78125 -1.421875 
Q 19.734375 -1.421875 13.25 4.234375 
Q 6.78125 9.90625 6.78125 20.515625 
Q 6.78125 27.484375 10.78125 32.3125 
Q 14.796875 37.15625 21.921875 38.8125 
z
M 18.3125 54.390625 
Q 18.3125 48.734375 21.84375 45.5625 
Q 25.390625 42.390625 31.78125 42.390625 
Q 38.140625 42.390625 41.71875 45.5625 
Q 45.3125 48.734375 45.3125 54.390625 
Q 45.3125 60.0625 41.71875 63.234375 
Q 38.140625 66.40625 31.78125 66.40625 
Q 25.390625 66.40625 21.84375 63.234375 
Q 18.3125 60.0625 18.3125 54.390625 
z
" id="DejaVuSans-56"/>
       </defs>
       <use xlink:href="#DejaVuSans-48"/>
       <use x="63.623047" xlink:href="#DejaVuSans-46"/>
       <use x="95.410156" xlink:href="#DejaVuSans-56"/>
      </g>
     </g>
    </g>
    <g id="xtick_6">
     <g id="line2d_6">
      <g>
       <use style="stroke:#000000;stroke-width:0.8;" x="733.755195" xlink:href="#m236f84b6c5" y="561.6"/>
      </g>
     </g>
     <g id="text_6">
      <!-- 1.0 -->
      <g transform="translate(713.876289 587.596094)scale(0.25 -0.25)">
       <defs>
        <path d="M 12.40625 8.296875 
L 28.515625 8.296875 
L 28.515625 63.921875 
L 10.984375 60.40625 
L 10.984375 69.390625 
L 28.421875 72.90625 
L 38.28125 72.90625 
L 38.28125 8.296875 
L 54.390625 8.296875 
L 54.390625 0 
L 12.40625 0 
z
" id="DejaVuSans-49"/>
       </defs>
       <use xlink:href="#DejaVuSans-49"/>
       <use x="63.623047" xlink:href="#DejaVuSans-46"/>
       <use x="95.410156" xlink:href="#DejaVuSans-48"/>
      </g>
     </g>
    </g>
    <g id="xtick_7">
     <g id="line2d_7">
      <g>
       <use style="stroke:#000000;stroke-width:0.8;" x="851.068566" xlink:href="#m236f84b6c5" y="561.6"/>
      </g>
     </g>
     <g id="text_7">
      <!-- 1.2 -->
      <g transform="translate(831.18966 587.596094)scale(0.25 -0.25)">
       <use xlink:href="#DejaVuSans-49"/>
       <use x="63.623047" xlink:href="#DejaVuSans-46"/>
       <use x="95.410156" xlink:href="#DejaVuSans-50"/>
      </g>
     </g>
    </g>
    <g id="xtick_8">
     <g id="line2d_8">
      <g>
       <use style="stroke:#000000;stroke-width:0.8;" x="968.381938" xlink:href="#m236f84b6c5" y="561.6"/>
      </g>
     </g>
     <g id="text_8">
      <!-- 1.4 -->
      <g transform="translate(948.503032 587.596094)scale(0.25 -0.25)">
       <use xlink:href="#DejaVuSans-49"/>
       <use x="63.623047" xlink:href="#DejaVuSans-46"/>
       <use x="95.410156" xlink:href="#DejaVuSans-52"/>
      </g>
     </g>
    </g>
    <g id="text_9">
     <!-- Beam length [m] -->
     <g transform="translate(468.315 616.55125)scale(0.26 -0.26)">
      <defs>
       <path d="M 19.671875 34.8125 
L 19.671875 8.109375 
L 35.5 8.109375 
Q 43.453125 8.109375 47.28125 11.40625 
Q 51.125 14.703125 51.125 21.484375 
Q 51.125 28.328125 47.28125 31.5625 
Q 43.453125 34.8125 35.5 34.8125 
z
M 19.671875 64.796875 
L 19.671875 42.828125 
L 34.28125 42.828125 
Q 41.5 42.828125 45.03125 45.53125 
Q 48.578125 48.25 48.578125 53.8125 
Q 48.578125 59.328125 45.03125 62.0625 
Q 41.5 64.796875 34.28125 64.796875 
z
M 9.8125 72.90625 
L 35.015625 72.90625 
Q 46.296875 72.90625 52.390625 68.21875 
Q 58.5 63.53125 58.5 54.890625 
Q 58.5 48.1875 55.375 44.234375 
Q 52.25 40.28125 46.1875 39.3125 
Q 53.46875 37.75 57.5 32.78125 
Q 61.53125 27.828125 61.53125 20.40625 
Q 61.53125 10.640625 54.890625 5.3125 
Q 48.25 0 35.984375 0 
L 9.8125 0 
z
" id="DejaVuSans-66"/>
       <path d="M 56.203125 29.59375 
L 56.203125 25.203125 
L 14.890625 25.203125 
Q 15.484375 15.921875 20.484375 11.0625 
Q 25.484375 6.203125 34.421875 6.203125 
Q 39.59375 6.203125 44.453125 7.46875 
Q 49.3125 8.734375 54.109375 11.28125 
L 54.109375 2.78125 
Q 49.265625 0.734375 44.1875 -0.34375 
Q 39.109375 -1.421875 33.890625 -1.421875 
Q 20.796875 -1.421875 13.15625 6.1875 
Q 5.515625 13.8125 5.515625 26.8125 
Q 5.515625 40.234375 12.765625 48.109375 
Q 20.015625 56 32.328125 56 
Q 43.359375 56 49.78125 48.890625 
Q 56.203125 41.796875 56.203125 29.59375 
z
M 47.21875 32.234375 
Q 47.125 39.59375 43.09375 43.984375 
Q 39.0625 48.390625 32.421875 48.390625 
Q 24.90625 48.390625 20.390625 44.140625 
Q 15.875 39.890625 15.1875 32.171875 
z
" id="DejaVuSans-101"/>
       <path d="M 34.28125 27.484375 
Q 23.390625 27.484375 19.1875 25 
Q 14.984375 22.515625 14.984375 16.5 
Q 14.984375 11.71875 18.140625 8.90625 
Q 21.296875 6.109375 26.703125 6.109375 
Q 34.1875 6.109375 38.703125 11.40625 
Q 43.21875 16.703125 43.21875 25.484375 
L 43.21875 27.484375 
z
M 52.203125 31.203125 
L 52.203125 0 
L 43.21875 0 
L 43.21875 8.296875 
Q 40.140625 3.328125 35.546875 0.953125 
Q 30.953125 -1.421875 24.3125 -1.421875 
Q 15.921875 -1.421875 10.953125 3.296875 
Q 6 8.015625 6 15.921875 
Q 6 25.140625 12.171875 29.828125 
Q 18.359375 34.515625 30.609375 34.515625 
L 43.21875 34.515625 
L 43.21875 35.40625 
Q 43.21875 41.609375 39.140625 45 
Q 35.0625 48.390625 27.6875 48.390625 
Q 23 48.390625 18.546875 47.265625 
Q 14.109375 46.140625 10.015625 43.890625 
L 10.015625 52.203125 
Q 14.9375 54.109375 19.578125 55.046875 
Q 24.21875 56 28.609375 56 
Q 40.484375 56 46.34375 49.84375 
Q 52.203125 43.703125 52.203125 31.203125 
z
" id="DejaVuSans-97"/>
       <path d="M 52 44.1875 
Q 55.375 50.25 60.0625 53.125 
Q 64.75 56 71.09375 56 
Q 79.640625 56 84.28125 50.015625 
Q 88.921875 44.046875 88.921875 33.015625 
L 88.921875 0 
L 79.890625 0 
L 79.890625 32.71875 
Q 79.890625 40.578125 77.09375 44.375 
Q 74.3125 48.1875 68.609375 48.1875 
Q 61.625 48.1875 57.5625 43.546875 
Q 53.515625 38.921875 53.515625 30.90625 
L 53.515625 0 
L 44.484375 0 
L 44.484375 32.71875 
Q 44.484375 40.625 41.703125 44.40625 
Q 38.921875 48.1875 33.109375 48.1875 
Q 26.21875 48.1875 22.15625 43.53125 
Q 18.109375 38.875 18.109375 30.90625 
L 18.109375 0 
L 9.078125 0 
L 9.078125 54.6875 
L 18.109375 54.6875 
L 18.109375 46.1875 
Q 21.1875 51.21875 25.484375 53.609375 
Q 29.78125 56 35.6875 56 
Q 41.65625 56 45.828125 52.96875 
Q 50 49.953125 52 44.1875 
z
" id="DejaVuSans-109"/>
       <path id="DejaVuSans-32"/>
       <path d="M 9.421875 75.984375 
L 18.40625 75.984375 
L 18.40625 0 
L 9.421875 0 
z
" id="DejaVuSans-108"/>
       <path d="M 54.890625 33.015625 
L 54.890625 0 
L 45.90625 0 
L 45.90625 32.71875 
Q 45.90625 40.484375 42.875 44.328125 
Q 39.84375 48.1875 33.796875 48.1875 
Q 26.515625 48.1875 22.3125 43.546875 
Q 18.109375 38.921875 18.109375 30.90625 
L 18.109375 0 
L 9.078125 0 
L 9.078125 54.6875 
L 18.109375 54.6875 
L 18.109375 46.1875 
Q 21.34375 51.125 25.703125 53.5625 
Q 30.078125 56 35.796875 56 
Q 45.21875 56 50.046875 50.171875 
Q 54.890625 44.34375 54.890625 33.015625 
z
" id="DejaVuSans-110"/>
       <path d="M 45.40625 27.984375 
Q 45.40625 37.75 41.375 43.109375 
Q 37.359375 48.484375 30.078125 48.484375 
Q 22.859375 48.484375 18.828125 43.109375 
Q 14.796875 37.75 14.796875 27.984375 
Q 14.796875 18.265625 18.828125 12.890625 
Q 22.859375 7.515625 30.078125 7.515625 
Q 37.359375 7.515625 41.375 12.890625 
Q 45.40625 18.265625 45.40625 27.984375 
z
M 54.390625 6.78125 
Q 54.390625 -7.171875 48.1875 -13.984375 
Q 42 -20.796875 29.203125 -20.796875 
Q 24.46875 -20.796875 20.265625 -20.09375 
Q 16.0625 -19.390625 12.109375 -17.921875 
L 12.109375 -9.1875 
Q 16.0625 -11.328125 19.921875 -12.34375 
Q 23.78125 -13.375 27.78125 -13.375 
Q 36.625 -13.375 41.015625 -8.765625 
Q 45.40625 -4.15625 45.40625 5.171875 
L 45.40625 9.625 
Q 42.625 4.78125 38.28125 2.390625 
Q 33.9375 0 27.875 0 
Q 17.828125 0 11.671875 7.65625 
Q 5.515625 15.328125 5.515625 27.984375 
Q 5.515625 40.671875 11.671875 48.328125 
Q 17.828125 56 27.875 56 
Q 33.9375 56 38.28125 53.609375 
Q 42.625 51.21875 45.40625 46.390625 
L 45.40625 54.6875 
L 54.390625 54.6875 
z
" id="DejaVuSans-103"/>
       <path d="M 18.3125 70.21875 
L 18.3125 54.6875 
L 36.8125 54.6875 
L 36.8125 47.703125 
L 18.3125 47.703125 
L 18.3125 18.015625 
Q 18.3125 11.328125 20.140625 9.421875 
Q 21.96875 7.515625 27.59375 7.515625 
L 36.8125 7.515625 
L 36.8125 0 
L 27.59375 0 
Q 17.1875 0 13.234375 3.875 
Q 9.28125 7.765625 9.28125 18.015625 
L 9.28125 47.703125 
L 2.6875 47.703125 
L 2.6875 54.6875 
L 9.28125 54.6875 
L 9.28125 70.21875 
z
" id="DejaVuSans-116"/>
       <path d="M 54.890625 33.015625 
L 54.890625 0 
L 45.90625 0 
L 45.90625 32.71875 
Q 45.90625 40.484375 42.875 44.328125 
Q 39.84375 48.1875 33.796875 48.1875 
Q 26.515625 48.1875 22.3125 43.546875 
Q 18.109375 38.921875 18.109375 30.90625 
L 18.109375 0 
L 9.078125 0 
L 9.078125 75.984375 
L 18.109375 75.984375 
L 18.109375 46.1875 
Q 21.34375 51.125 25.703125 53.5625 
Q 30.078125 56 35.796875 56 
Q 45.21875 56 50.046875 50.171875 
Q 54.890625 44.34375 54.890625 33.015625 
z
" id="DejaVuSans-104"/>
       <path d="M 8.59375 75.984375 
L 29.296875 75.984375 
L 29.296875 69 
L 17.578125 69 
L 17.578125 -6.203125 
L 29.296875 -6.203125 
L 29.296875 -13.1875 
L 8.59375 -13.1875 
z
" id="DejaVuSans-91"/>
       <path d="M 30.421875 75.984375 
L 30.421875 -13.1875 
L 9.71875 -13.1875 
L 9.71875 -6.203125 
L 21.390625 -6.203125 
L 21.390625 69 
L 9.71875 69 
L 9.71875 75.984375 
z
" id="DejaVuSans-93"/>
      </defs>
      <use xlink:href="#DejaVuSans-66"/>
      <use x="68.603516" xlink:href="#DejaVuSans-101"/>
      <use x="130.126953" xlink:href="#DejaVuSans-97"/>
      <use x="191.40625" xlink:href="#DejaVuSans-109"/>
      <use x="288.818359" xlink:href="#DejaVuSans-32"/>
      <use x="320.605469" xlink:href="#DejaVuSans-108"/>
      <use x="348.388672" xlink:href="#DejaVuSans-101"/>
      <use x="409.912109" xlink:href="#DejaVuSans-110"/>
      <use x="473.291016" xlink:href="#DejaVuSans-103"/>
      <use x="536.767578" xlink:href="#DejaVuSans-116"/>
      <use x="575.976562" xlink:href="#DejaVuSans-104"/>
      <use x="639.355469" xlink:href="#DejaVuSans-32"/>
      <use x="671.142578" xlink:href="#DejaVuSans-91"/>
      <use x="710.15625" xlink:href="#DejaVuSans-109"/>
      <use x="807.568359" xlink:href="#DejaVuSans-93"/>
     </g>
    </g>
   </g>
   <g id="matplotlib.axis_2">
    <g id="ytick_1">
     <g id="line2d_9">
      <defs>
       <path d="M 0 0 
L -3.5 0 
" id="m18c499c9aa" style="stroke:#000000;stroke-width:0.8;"/>
      </defs>
      <g>
       <use style="stroke:#000000;stroke-width:0.8;" x="104.070156" xlink:href="#m18c499c9aa" y="496.968298"/>
      </g>
     </g>
     <g id="text_10">
      <!-- −0.2 -->
      <g transform="translate(36.363125 506.466345)scale(0.25 -0.25)">
       <defs>
        <path d="M 10.59375 35.5 
L 73.1875 35.5 
L 73.1875 27.203125 
L 10.59375 27.203125 
z
" id="DejaVuSans-8722"/>
       </defs>
       <use xlink:href="#DejaVuSans-8722"/>
       <use x="83.789062" xlink:href="#DejaVuSans-48"/>
       <use x="147.412109" xlink:href="#DejaVuSans-46"/>
       <use x="179.199219" xlink:href="#DejaVuSans-50"/>
      </g>
     </g>
    </g>
    <g id="ytick_2">
     <g id="line2d_10">
      <g>
       <use style="stroke:#000000;stroke-width:0.8;" x="104.070156" xlink:href="#m18c499c9aa" y="424.21051"/>
      </g>
     </g>
     <g id="text_11">
      <!-- 0.0 -->
      <g transform="translate(57.312344 433.708557)scale(0.25 -0.25)">
       <use xlink:href="#DejaVuSans-48"/>
       <use x="63.623047" xlink:href="#DejaVuSans-46"/>
       <use x="95.410156" xlink:href="#DejaVuSans-48"/>
      </g>
     </g>
    </g>
    <g id="ytick_3">
     <g id="line2d_11">
      <g>
       <use style="stroke:#000000;stroke-width:0.8;" x="104.070156" xlink:href="#m18c499c9aa" y="351.452722"/>
      </g>
     </g>
     <g id="text_12">
      <!-- 0.2 -->
      <g transform="translate(57.312344 360.950769)scale(0.25 -0.25)">
       <use xlink:href="#DejaVuSans-48"/>
       <use x="63.623047" xlink:href="#DejaVuSans-46"/>
       <use x="95.410156" xlink:href="#DejaVuSans-50"/>
      </g>
     </g>
    </g>
    <g id="ytick_4">
     <g id="line2d_12">
      <g>
       <use style="stroke:#000000;stroke-width:0.8;" x="104.070156" xlink:href="#m18c499c9aa" y="278.694935"/>
      </g>
     </g>
     <g id="text_13">
      <!-- 0.4 -->
      <g transform="translate(57.312344 288.192981)scale(0.25 -0.25)">
       <use xlink:href="#DejaVuSans-48"/>
       <use x="63.623047" xlink:href="#DejaVuSans-46"/>
       <use x="95.410156" xlink:href="#DejaVuSans-52"/>
      </g>
     </g>
    </g>
    <g id="ytick_5">
     <g id="line2d_13">
      <g>
       <use style="stroke:#000000;stroke-width:0.8;" x="104.070156" xlink:href="#m18c499c9aa" y="205.937147"/>
      </g>
     </g>
     <g id="text_14">
      <!-- 0.6 -->
      <g transform="translate(57.312344 215.435193)scale(0.25 -0.25)">
       <use xlink:href="#DejaVuSans-48"/>
       <use x="63.623047" xlink:href="#DejaVuSans-46"/>
       <use x="95.410156" xlink:href="#DejaVuSans-54"/>
      </g>
     </g>
    </g>
    <g id="ytick_6">
     <g id="line2d_14">
      <g>
       <use style="stroke:#000000;stroke-width:0.8;" x="104.070156" xlink:href="#m18c499c9aa" y="133.179359"/>
      </g>
     </g>
     <g id="text_15">
      <!-- 0.8 -->
      <g transform="translate(57.312344 142.677405)scale(0.25 -0.25)">
       <use xlink:href="#DejaVuSans-48"/>
       <use x="63.623047" xlink:href="#DejaVuSans-46"/>
       <use x="95.410156" xlink:href="#DejaVuSans-56"/>
      </g>
     </g>
    </g>
    <g id="ytick_7">
     <g id="line2d_15">
      <g>
       <use style="stroke:#000000;stroke-width:0.8;" x="104.070156" xlink:href="#m18c499c9aa" y="60.421571"/>
      </g>
     </g>
     <g id="text_16">
      <!-- 1.0 -->
      <g transform="translate(57.312344 69.919618)scale(0.25 -0.25)">
       <use xlink:href="#DejaVuSans-49"/>
       <use x="63.623047" xlink:href="#DejaVuSans-46"/>
       <use x="95.410156" xlink:href="#DejaVuSans-48"/>
      </g>
     </g>
    </g>
    <g id="text_17">
     <!-- Vertical displacement [m] -->
     <g transform="translate(26.955938 451.744531)rotate(-90)scale(0.26 -0.26)">
      <defs>
       <path d="M 28.609375 0 
L 0.78125 72.90625 
L 11.078125 72.90625 
L 34.1875 11.53125 
L 57.328125 72.90625 
L 67.578125 72.90625 
L 39.796875 0 
z
" id="DejaVuSans-86"/>
       <path d="M 41.109375 46.296875 
Q 39.59375 47.171875 37.8125 47.578125 
Q 36.03125 48 33.890625 48 
Q 26.265625 48 22.1875 43.046875 
Q 18.109375 38.09375 18.109375 28.8125 
L 18.109375 0 
L 9.078125 0 
L 9.078125 54.6875 
L 18.109375 54.6875 
L 18.109375 46.1875 
Q 20.953125 51.171875 25.484375 53.578125 
Q 30.03125 56 36.53125 56 
Q 37.453125 56 38.578125 55.875 
Q 39.703125 55.765625 41.0625 55.515625 
z
" id="DejaVuSans-114"/>
       <path d="M 9.421875 54.6875 
L 18.40625 54.6875 
L 18.40625 0 
L 9.421875 0 
z
M 9.421875 75.984375 
L 18.40625 75.984375 
L 18.40625 64.59375 
L 9.421875 64.59375 
z
" id="DejaVuSans-105"/>
       <path d="M 48.78125 52.59375 
L 48.78125 44.1875 
Q 44.96875 46.296875 41.140625 47.34375 
Q 37.3125 48.390625 33.40625 48.390625 
Q 24.65625 48.390625 19.8125 42.84375 
Q 14.984375 37.3125 14.984375 27.296875 
Q 14.984375 17.28125 19.8125 11.734375 
Q 24.65625 6.203125 33.40625 6.203125 
Q 37.3125 6.203125 41.140625 7.25 
Q 44.96875 8.296875 48.78125 10.40625 
L 48.78125 2.09375 
Q 45.015625 0.34375 40.984375 -0.53125 
Q 36.96875 -1.421875 32.421875 -1.421875 
Q 20.0625 -1.421875 12.78125 6.34375 
Q 5.515625 14.109375 5.515625 27.296875 
Q 5.515625 40.671875 12.859375 48.328125 
Q 20.21875 56 33.015625 56 
Q 37.15625 56 41.109375 55.140625 
Q 45.0625 54.296875 48.78125 52.59375 
z
" id="DejaVuSans-99"/>
       <path d="M 45.40625 46.390625 
L 45.40625 75.984375 
L 54.390625 75.984375 
L 54.390625 0 
L 45.40625 0 
L 45.40625 8.203125 
Q 42.578125 3.328125 38.25 0.953125 
Q 33.9375 -1.421875 27.875 -1.421875 
Q 17.96875 -1.421875 11.734375 6.484375 
Q 5.515625 14.40625 5.515625 27.296875 
Q 5.515625 40.1875 11.734375 48.09375 
Q 17.96875 56 27.875 56 
Q 33.9375 56 38.25 53.625 
Q 42.578125 51.265625 45.40625 46.390625 
z
M 14.796875 27.296875 
Q 14.796875 17.390625 18.875 11.75 
Q 22.953125 6.109375 30.078125 6.109375 
Q 37.203125 6.109375 41.296875 11.75 
Q 45.40625 17.390625 45.40625 27.296875 
Q 45.40625 37.203125 41.296875 42.84375 
Q 37.203125 48.484375 30.078125 48.484375 
Q 22.953125 48.484375 18.875 42.84375 
Q 14.796875 37.203125 14.796875 27.296875 
z
" id="DejaVuSans-100"/>
       <path d="M 44.28125 53.078125 
L 44.28125 44.578125 
Q 40.484375 46.53125 36.375 47.5 
Q 32.28125 48.484375 27.875 48.484375 
Q 21.1875 48.484375 17.84375 46.4375 
Q 14.5 44.390625 14.5 40.28125 
Q 14.5 37.15625 16.890625 35.375 
Q 19.28125 33.59375 26.515625 31.984375 
L 29.59375 31.296875 
Q 39.15625 29.25 43.1875 25.515625 
Q 47.21875 21.78125 47.21875 15.09375 
Q 47.21875 7.46875 41.1875 3.015625 
Q 35.15625 -1.421875 24.609375 -1.421875 
Q 20.21875 -1.421875 15.453125 -0.5625 
Q 10.6875 0.296875 5.421875 2 
L 5.421875 11.28125 
Q 10.40625 8.6875 15.234375 7.390625 
Q 20.0625 6.109375 24.8125 6.109375 
Q 31.15625 6.109375 34.5625 8.28125 
Q 37.984375 10.453125 37.984375 14.40625 
Q 37.984375 18.0625 35.515625 20.015625 
Q 33.0625 21.96875 24.703125 23.78125 
L 21.578125 24.515625 
Q 13.234375 26.265625 9.515625 29.90625 
Q 5.8125 33.546875 5.8125 39.890625 
Q 5.8125 47.609375 11.28125 51.796875 
Q 16.75 56 26.8125 56 
Q 31.78125 56 36.171875 55.265625 
Q 40.578125 54.546875 44.28125 53.078125 
z
" id="DejaVuSans-115"/>
       <path d="M 18.109375 8.203125 
L 18.109375 -20.796875 
L 9.078125 -20.796875 
L 9.078125 54.6875 
L 18.109375 54.6875 
L 18.109375 46.390625 
Q 20.953125 51.265625 25.265625 53.625 
Q 29.59375 56 35.59375 56 
Q 45.5625 56 51.78125 48.09375 
Q 58.015625 40.1875 58.015625 27.296875 
Q 58.015625 14.40625 51.78125 6.484375 
Q 45.5625 -1.421875 35.59375 -1.421875 
Q 29.59375 -1.421875 25.265625 0.953125 
Q 20.953125 3.328125 18.109375 8.203125 
z
M 48.6875 27.296875 
Q 48.6875 37.203125 44.609375 42.84375 
Q 40.53125 48.484375 33.40625 48.484375 
Q 26.265625 48.484375 22.1875 42.84375 
Q 18.109375 37.203125 18.109375 27.296875 
Q 18.109375 17.390625 22.1875 11.75 
Q 26.265625 6.109375 33.40625 6.109375 
Q 40.53125 6.109375 44.609375 11.75 
Q 48.6875 17.390625 48.6875 27.296875 
z
" id="DejaVuSans-112"/>
      </defs>
      <use xlink:href="#DejaVuSans-86"/>
      <use x="60.658203" xlink:href="#DejaVuSans-101"/>
      <use x="122.181641" xlink:href="#DejaVuSans-114"/>
      <use x="163.294922" xlink:href="#DejaVuSans-116"/>
      <use x="202.503906" xlink:href="#DejaVuSans-105"/>
      <use x="230.287109" xlink:href="#DejaVuSans-99"/>
      <use x="285.267578" xlink:href="#DejaVuSans-97"/>
      <use x="346.546875" xlink:href="#DejaVuSans-108"/>
      <use x="374.330078" xlink:href="#DejaVuSans-32"/>
      <use x="406.117188" xlink:href="#DejaVuSans-100"/>
      <use x="469.59375" xlink:href="#DejaVuSans-105"/>
      <use x="497.376953" xlink:href="#DejaVuSans-115"/>
      <use x="549.476562" xlink:href="#DejaVuSans-112"/>
      <use x="612.953125" xlink:href="#DejaVuSans-108"/>
      <use x="640.736328" xlink:href="#DejaVuSans-97"/>
      <use x="702.015625" xlink:href="#DejaVuSans-99"/>
      <use x="756.996094" xlink:href="#DejaVuSans-101"/>
      <use x="818.519531" xlink:href="#DejaVuSans-109"/>
      <use x="915.931641" xlink:href="#DejaVuSans-101"/>
      <use x="977.455078" xlink:href="#DejaVuSans-110"/>
      <use x="1040.833984" xlink:href="#DejaVuSans-116"/>
      <use x="1080.042969" xlink:href="#DejaVuSans-32"/>
      <use x="1111.830078" xlink:href="#DejaVuSans-91"/>
      <use x="1150.84375" xlink:href="#DejaVuSans-109"/>
      <use x="1248.255859" xlink:href="#DejaVuSans-93"/>
     </g>
    </g>
   </g>
   <g id="line2d_16">
    <defs>
     <path d="M -4 4 
L 4 -4 
M -4 -4 
L 4 4 
" id="mc00a8c8cde" style="stroke:#000000;"/>
    </defs>
    <g clip-path="url(#p973c01a596)">
     <use style="stroke:#000000;" x="147.188338" xlink:href="#mc00a8c8cde" y="424.21051"/>
     <use style="stroke:#000000;" x="153.053984" xlink:href="#mc00a8c8cde" y="424.220618"/>
     <use style="stroke:#000000;" x="158.919451" xlink:href="#mc00a8c8cde" y="424.250743"/>
     <use style="stroke:#000000;" x="164.784569" xlink:href="#mc00a8c8cde" y="424.300614"/>
     <use style="stroke:#000000;" x="170.649172" xlink:href="#mc00a8c8cde" y="424.369958"/>
     <use style="stroke:#000000;" x="176.513103" xlink:href="#mc00a8c8cde" y="424.458505"/>
     <use style="stroke:#000000;" x="182.376211" xlink:href="#mc00a8c8cde" y="424.565984"/>
     <use style="stroke:#000000;" x="188.238352" xlink:href="#mc00a8c8cde" y="424.692129"/>
     <use style="stroke:#000000;" x="194.099389" xlink:href="#mc00a8c8cde" y="424.836673"/>
     <use style="stroke:#000000;" x="199.95919" xlink:href="#mc00a8c8cde" y="424.999351"/>
     <use style="stroke:#000000;" x="205.81763" xlink:href="#mc00a8c8cde" y="425.179899"/>
     <use style="stroke:#000000;" x="211.674591" xlink:href="#mc00a8c8cde" y="425.378057"/>
     <use style="stroke:#000000;" x="217.529958" xlink:href="#mc00a8c8cde" y="425.593565"/>
     <use style="stroke:#000000;" x="223.383625" xlink:href="#mc00a8c8cde" y="425.826164"/>
     <use style="stroke:#000000;" x="229.235489" xlink:href="#mc00a8c8cde" y="426.075598"/>
     <use style="stroke:#000000;" x="235.085455" xlink:href="#mc00a8c8cde" y="426.341612"/>
     <use style="stroke:#000000;" x="240.933431" xlink:href="#mc00a8c8cde" y="426.623954"/>
     <use style="stroke:#000000;" x="246.779332" xlink:href="#mc00a8c8cde" y="426.922372"/>
     <use style="stroke:#000000;" x="252.623076" xlink:href="#mc00a8c8cde" y="427.236618"/>
     <use style="stroke:#000000;" x="258.464587" xlink:href="#mc00a8c8cde" y="427.566443"/>
     <use style="stroke:#000000;" x="264.303795" xlink:href="#mc00a8c8cde" y="427.911605"/>
     <use style="stroke:#000000;" x="270.140632" xlink:href="#mc00a8c8cde" y="428.271857"/>
     <use style="stroke:#000000;" x="275.975037" xlink:href="#mc00a8c8cde" y="428.646957"/>
     <use style="stroke:#000000;" x="281.806951" xlink:href="#mc00a8c8cde" y="429.036669"/>
     <use style="stroke:#000000;" x="287.636323" xlink:href="#mc00a8c8cde" y="429.440755"/>
     <use style="stroke:#000000;" x="293.463101" xlink:href="#mc00a8c8cde" y="429.858974"/>
     <use style="stroke:#000000;" x="299.287241" xlink:href="#mc00a8c8cde" y="430.291101"/>
     <use style="stroke:#000000;" x="305.108702" xlink:href="#mc00a8c8cde" y="430.736895"/>
     <use style="stroke:#000000;" x="310.927446" xlink:href="#mc00a8c8cde" y="431.196135"/>
     <use style="stroke:#000000;" x="316.743438" xlink:href="#mc00a8c8cde" y="431.668591"/>
     <use style="stroke:#000000;" x="322.556649" xlink:href="#mc00a8c8cde" y="432.154035"/>
     <use style="stroke:#000000;" x="328.367051" xlink:href="#mc00a8c8cde" y="432.652244"/>
     <use style="stroke:#000000;" x="334.174622" xlink:href="#mc00a8c8cde" y="433.162996"/>
     <use style="stroke:#000000;" x="339.979339" xlink:href="#mc00a8c8cde" y="433.686074"/>
     <use style="stroke:#000000;" x="345.781186" xlink:href="#mc00a8c8cde" y="434.221262"/>
     <use style="stroke:#000000;" x="351.580148" xlink:href="#mc00a8c8cde" y="434.768342"/>
     <use style="stroke:#000000;" x="357.376215" xlink:href="#mc00a8c8cde" y="435.327104"/>
     <use style="stroke:#000000;" x="363.169377" xlink:href="#mc00a8c8cde" y="435.897332"/>
     <use style="stroke:#000000;" x="368.959629" xlink:href="#mc00a8c8cde" y="436.478819"/>
     <use style="stroke:#000000;" x="374.746966" xlink:href="#mc00a8c8cde" y="437.071363"/>
     <use style="stroke:#000000;" x="380.531389" xlink:href="#mc00a8c8cde" y="437.674754"/>
     <use style="stroke:#000000;" x="386.312898" xlink:href="#mc00a8c8cde" y="438.28879"/>
     <use style="stroke:#000000;" x="392.091498" xlink:href="#mc00a8c8cde" y="438.91327"/>
     <use style="stroke:#000000;" x="397.867195" xlink:href="#mc00a8c8cde" y="439.547998"/>
     <use style="stroke:#000000;" x="403.639997" xlink:href="#mc00a8c8cde" y="440.192777"/>
     <use style="stroke:#000000;" x="409.409914" xlink:href="#mc00a8c8cde" y="440.847412"/>
     <use style="stroke:#000000;" x="415.17696" xlink:href="#mc00a8c8cde" y="441.511712"/>
     <use style="stroke:#000000;" x="420.941147" xlink:href="#mc00a8c8cde" y="442.185482"/>
     <use style="stroke:#000000;" x="426.702493" xlink:href="#mc00a8c8cde" y="442.868539"/>
     <use style="stroke:#000000;" x="432.461014" xlink:href="#mc00a8c8cde" y="443.560699"/>
     <use style="stroke:#000000;" x="438.21673" xlink:href="#mc00a8c8cde" y="444.261771"/>
     <use style="stroke:#000000;" x="443.969664" xlink:href="#mc00a8c8cde" y="444.971578"/>
     <use style="stroke:#000000;" x="449.719835" xlink:href="#mc00a8c8cde" y="445.689937"/>
     <use style="stroke:#000000;" x="455.46727" xlink:href="#mc00a8c8cde" y="446.416675"/>
     <use style="stroke:#000000;" x="461.211994" xlink:href="#mc00a8c8cde" y="447.151612"/>
     <use style="stroke:#000000;" x="466.954032" xlink:href="#mc00a8c8cde" y="447.894578"/>
     <use style="stroke:#000000;" x="472.693414" xlink:href="#mc00a8c8cde" y="448.645395"/>
     <use style="stroke:#000000;" x="478.430168" xlink:href="#mc00a8c8cde" y="449.403899"/>
     <use style="stroke:#000000;" x="484.164325" xlink:href="#mc00a8c8cde" y="450.169922"/>
     <use style="stroke:#000000;" x="489.895915" xlink:href="#mc00a8c8cde" y="450.943297"/>
     <use style="stroke:#000000;" x="495.624971" xlink:href="#mc00a8c8cde" y="451.723861"/>
     <use style="stroke:#000000;" x="501.351527" xlink:href="#mc00a8c8cde" y="452.511449"/>
     <use style="stroke:#000000;" x="507.075615" xlink:href="#mc00a8c8cde" y="453.305906"/>
     <use style="stroke:#000000;" x="512.797272" xlink:href="#mc00a8c8cde" y="454.107075"/>
     <use style="stroke:#000000;" x="518.516533" xlink:href="#mc00a8c8cde" y="454.914795"/>
     <use style="stroke:#000000;" x="524.233433" xlink:href="#mc00a8c8cde" y="455.728919"/>
     <use style="stroke:#000000;" x="529.948012" xlink:href="#mc00a8c8cde" y="456.549288"/>
     <use style="stroke:#000000;" x="535.660304" xlink:href="#mc00a8c8cde" y="457.375758"/>
     <use style="stroke:#000000;" x="541.370349" xlink:href="#mc00a8c8cde" y="458.20818"/>
     <use style="stroke:#000000;" x="547.078186" xlink:href="#mc00a8c8cde" y="459.046408"/>
     <use style="stroke:#000000;" x="552.783854" xlink:href="#mc00a8c8cde" y="459.890297"/>
     <use style="stroke:#000000;" x="558.487392" xlink:href="#mc00a8c8cde" y="460.739722"/>
     <use style="stroke:#000000;" x="564.188839" xlink:href="#mc00a8c8cde" y="461.59448"/>
     <use style="stroke:#000000;" x="569.888237" xlink:href="#mc00a8c8cde" y="462.454514"/>
     <use style="stroke:#000000;" x="575.585625" xlink:href="#mc00a8c8cde" y="463.319677"/>
     <use style="stroke:#000000;" x="581.281045" xlink:href="#mc00a8c8cde" y="464.189787"/>
     <use style="stroke:#000000;" x="586.974535" xlink:href="#mc00a8c8cde" y="465.064736"/>
     <use style="stroke:#000000;" x="592.666146" xlink:href="#mc00a8c8cde" y="465.944378"/>
     <use style="stroke:#000000;" x="598.355903" xlink:href="#mc00a8c8cde" y="466.828603"/>
     <use style="stroke:#000000;" x="604.043859" xlink:href="#mc00a8c8cde" y="467.717303"/>
     <use style="stroke:#000000;" x="609.73005" xlink:href="#mc00a8c8cde" y="468.610332"/>
     <use style="stroke:#000000;" x="615.414522" xlink:href="#mc00a8c8cde" y="469.507545"/>
     <use style="stroke:#000000;" x="621.097311" xlink:href="#mc00a8c8cde" y="470.408868"/>
     <use style="stroke:#000000;" x="626.778463" xlink:href="#mc00a8c8cde" y="471.314157"/>
     <use style="stroke:#000000;" x="632.45802" xlink:href="#mc00a8c8cde" y="472.223266"/>
     <use style="stroke:#000000;" x="638.136016" xlink:href="#mc00a8c8cde" y="473.136121"/>
     <use style="stroke:#000000;" x="643.812494" xlink:href="#mc00a8c8cde" y="474.052615"/>
     <use style="stroke:#000000;" x="649.487505" xlink:href="#mc00a8c8cde" y="474.9726"/>
     <use style="stroke:#000000;" x="655.161073" xlink:href="#mc00a8c8cde" y="475.89597"/>
     <use style="stroke:#000000;" x="660.83325" xlink:href="#mc00a8c8cde" y="476.822649"/>
     <use style="stroke:#000000;" x="666.504073" xlink:href="#mc00a8c8cde" y="477.752494"/>
     <use style="stroke:#000000;" x="672.173576" xlink:href="#mc00a8c8cde" y="478.68543"/>
     <use style="stroke:#000000;" x="677.841812" xlink:href="#mc00a8c8cde" y="479.62135"/>
     <use style="stroke:#000000;" x="683.508805" xlink:href="#mc00a8c8cde" y="480.560144"/>
     <use style="stroke:#000000;" x="689.174606" xlink:href="#mc00a8c8cde" y="481.501702"/>
     <use style="stroke:#000000;" x="694.839247" xlink:href="#mc00a8c8cde" y="482.445953"/>
     <use style="stroke:#000000;" x="700.502761" xlink:href="#mc00a8c8cde" y="483.39275"/>
     <use style="stroke:#000000;" x="706.165196" xlink:href="#mc00a8c8cde" y="484.342057"/>
     <use style="stroke:#000000;" x="711.826587" xlink:href="#mc00a8c8cde" y="485.293766"/>
     <use style="stroke:#000000;" x="717.486969" xlink:href="#mc00a8c8cde" y="486.247802"/>
     <use style="stroke:#000000;" x="723.146371" xlink:href="#mc00a8c8cde" y="487.204021"/>
     <use style="stroke:#000000;" x="728.804841" xlink:href="#mc00a8c8cde" y="488.162387"/>
     <use style="stroke:#000000;" x="734.462407" xlink:href="#mc00a8c8cde" y="489.122826"/>
     <use style="stroke:#000000;" x="740.119105" xlink:href="#mc00a8c8cde" y="490.085193"/>
     <use style="stroke:#000000;" x="745.774971" xlink:href="#mc00a8c8cde" y="491.049452"/>
     <use style="stroke:#000000;" x="751.430032" xlink:href="#mc00a8c8cde" y="492.01553"/>
     <use style="stroke:#000000;" x="757.084331" xlink:href="#mc00a8c8cde" y="492.983318"/>
     <use style="stroke:#000000;" x="762.737897" xlink:href="#mc00a8c8cde" y="493.952743"/>
     <use style="stroke:#000000;" x="768.390754" xlink:href="#mc00a8c8cde" y="494.923768"/>
     <use style="stroke:#000000;" x="774.042947" xlink:href="#mc00a8c8cde" y="495.896249"/>
     <use style="stroke:#000000;" x="779.694495" xlink:href="#mc00a8c8cde" y="496.870221"/>
     <use style="stroke:#000000;" x="785.345434" xlink:href="#mc00a8c8cde" y="497.845503"/>
     <use style="stroke:#000000;" x="790.995785" xlink:href="#mc00a8c8cde" y="498.82213"/>
     <use style="stroke:#000000;" x="796.645591" xlink:href="#mc00a8c8cde" y="499.799959"/>
     <use style="stroke:#000000;" x="802.294869" xlink:href="#mc00a8c8cde" y="500.778951"/>
     <use style="stroke:#000000;" x="807.943655" xlink:href="#mc00a8c8cde" y="501.759035"/>
     <use style="stroke:#000000;" x="813.591965" xlink:href="#mc00a8c8cde" y="502.740174"/>
     <use style="stroke:#000000;" x="819.239836" xlink:href="#mc00a8c8cde" y="503.722295"/>
     <use style="stroke:#000000;" x="824.887284" xlink:href="#mc00a8c8cde" y="504.705362"/>
     <use style="stroke:#000000;" x="830.534339" xlink:href="#mc00a8c8cde" y="505.689265"/>
     <use style="stroke:#000000;" x="836.181024" xlink:href="#mc00a8c8cde" y="506.674005"/>
     <use style="stroke:#000000;" x="841.827358" xlink:href="#mc00a8c8cde" y="507.65951"/>
     <use style="stroke:#000000;" x="847.473375" xlink:href="#mc00a8c8cde" y="508.645741"/>
     <use style="stroke:#000000;" x="853.119081" xlink:href="#mc00a8c8cde" y="509.632628"/>
     <use style="stroke:#000000;" x="858.764511" xlink:href="#mc00a8c8cde" y="510.620133"/>
     <use style="stroke:#000000;" x="864.409678" xlink:href="#mc00a8c8cde" y="511.60822"/>
     <use style="stroke:#000000;" x="870.054603" xlink:href="#mc00a8c8cde" y="512.596817"/>
     <use style="stroke:#000000;" x="875.699301" xlink:href="#mc00a8c8cde" y="513.585922"/>
     <use style="stroke:#000000;" x="881.343798" xlink:href="#mc00a8c8cde" y="514.575465"/>
     <use style="stroke:#000000;" x="886.988108" xlink:href="#mc00a8c8cde" y="515.565444"/>
     <use style="stroke:#000000;" x="892.632248" xlink:href="#mc00a8c8cde" y="516.55575"/>
     <use style="stroke:#000000;" x="898.27623" xlink:href="#mc00a8c8cde" y="517.546456"/>
     <use style="stroke:#000000;" x="903.92007" xlink:href="#mc00a8c8cde" y="518.537417"/>
     <use style="stroke:#000000;" x="909.563788" xlink:href="#mc00a8c8cde" y="519.528669"/>
     <use style="stroke:#000000;" x="915.207394" xlink:href="#mc00a8c8cde" y="520.520176"/>
     <use style="stroke:#000000;" x="920.8509" xlink:href="#mc00a8c8cde" y="521.511901"/>
     <use style="stroke:#000000;" x="926.494319" xlink:href="#mc00a8c8cde" y="522.503845"/>
     <use style="stroke:#000000;" x="932.137661" xlink:href="#mc00a8c8cde" y="523.495897"/>
     <use style="stroke:#000000;" x="937.780938" xlink:href="#mc00a8c8cde" y="524.488131"/>
     <use style="stroke:#000000;" x="943.424157" xlink:href="#mc00a8c8cde" y="525.480475"/>
     <use style="stroke:#000000;" x="949.067329" xlink:href="#mc00a8c8cde" y="526.472927"/>
     <use style="stroke:#000000;" x="954.71046" xlink:href="#mc00a8c8cde" y="527.465453"/>
     <use style="stroke:#000000;" x="960.353562" xlink:href="#mc00a8c8cde" y="528.458051"/>
     <use style="stroke:#000000;" x="965.99664" xlink:href="#mc00a8c8cde" y="529.450722"/>
     <use style="stroke:#000000;" x="971.639701" xlink:href="#mc00a8c8cde" y="530.443429"/>
     <use style="stroke:#000000;" x="977.282744" xlink:href="#mc00a8c8cde" y="531.436173"/>
     <use style="stroke:#000000;" x="982.925781" xlink:href="#mc00a8c8cde" y="532.428916"/>
     <use style="stroke:#000000;" x="988.568806" xlink:href="#mc00a8c8cde" y="533.421696"/>
     <use style="stroke:#000000;" x="994.211832" xlink:href="#mc00a8c8cde" y="534.41444"/>
     <use style="stroke:#000000;" x="999.854851" xlink:href="#mc00a8c8cde" y="535.40722"/>
     <use style="stroke:#000000;" x="1005.497877" xlink:href="#mc00a8c8cde" y="536.4"/>
    </g>
   </g>
   <g id="line2d_17">
    <defs>
     <path d="M 0 4 
C 1.060812 4 2.078319 3.578535 2.828427 2.828427 
C 3.578535 2.078319 4 1.060812 4 0 
C 4 -1.060812 3.578535 -2.078319 2.828427 -2.828427 
C 2.078319 -3.578535 1.060812 -4 0 -4 
C -1.060812 -4 -2.078319 -3.578535 -2.828427 -2.828427 
C -3.578535 -2.078319 -4 -1.060812 -4 0 
C -4 1.060812 -3.578535 2.078319 -2.828427 2.828427 
C -2.078319 3.578535 -1.060812 4 0 4 
z
" id="m3c78cf06fa" style="stroke:#000000;"/>
    </defs>
    <g clip-path="url(#p973c01a596)">
     <use style="stroke:#000000;" x="147.188338" xlink:href="#m3c78cf06fa" y="424.21051"/>
     <use style="stroke:#000000;" x="153.053512" xlink:href="#m3c78cf06fa" y="424.163231"/>
     <use style="stroke:#000000;" x="158.9148" xlink:href="#m3c78cf06fa" y="424.022654"/>
     <use style="stroke:#000000;" x="164.768522" xlink:href="#m3c78cf06fa" y="423.790581"/>
     <use style="stroke:#000000;" x="170.611209" xlink:href="#m3c78cf06fa" y="423.468853"/>
     <use style="stroke:#000000;" x="176.439597" xlink:href="#m3c78cf06fa" y="423.05934"/>
     <use style="stroke:#000000;" x="182.250626" xlink:href="#m3c78cf06fa" y="422.563938"/>
     <use style="stroke:#000000;" x="188.04143" xlink:href="#m3c78cf06fa" y="421.984558"/>
     <use style="stroke:#000000;" x="193.809335" xlink:href="#m3c78cf06fa" y="421.323126"/>
     <use style="stroke:#000000;" x="199.551851" xlink:href="#m3c78cf06fa" y="420.581572"/>
     <use style="stroke:#000000;" x="205.266667" xlink:href="#m3c78cf06fa" y="419.761826"/>
     <use style="stroke:#000000;" x="210.951643" xlink:href="#m3c78cf06fa" y="418.865822"/>
     <use style="stroke:#000000;" x="216.604807" xlink:href="#m3c78cf06fa" y="417.895476"/>
     <use style="stroke:#000000;" x="222.224344" xlink:href="#m3c78cf06fa" y="416.852705"/>
     <use style="stroke:#000000;" x="227.808593" xlink:href="#m3c78cf06fa" y="415.739398"/>
     <use style="stroke:#000000;" x="233.356039" xlink:href="#m3c78cf06fa" y="414.557436"/>
     <use style="stroke:#000000;" x="238.865309" xlink:href="#m3c78cf06fa" y="413.308676"/>
     <use style="stroke:#000000;" x="244.335161" xlink:href="#m3c78cf06fa" y="411.994954"/>
     <use style="stroke:#000000;" x="249.764481" xlink:href="#m3c78cf06fa" y="410.618079"/>
     <use style="stroke:#000000;" x="255.152278" xlink:href="#m3c78cf06fa" y="409.179828"/>
     <use style="stroke:#000000;" x="260.497674" xlink:href="#m3c78cf06fa" y="407.681956"/>
     <use style="stroke:#000000;" x="265.799902" xlink:href="#m3c78cf06fa" y="406.126188"/>
     <use style="stroke:#000000;" x="271.058297" xlink:href="#m3c78cf06fa" y="404.514213"/>
     <use style="stroke:#000000;" x="276.272294" xlink:href="#m3c78cf06fa" y="402.847685"/>
     <use style="stroke:#000000;" x="281.44142" xlink:href="#m3c78cf06fa" y="401.12823"/>
     <use style="stroke:#000000;" x="286.565287" xlink:href="#m3c78cf06fa" y="399.357436"/>
     <use style="stroke:#000000;" x="291.643595" xlink:href="#m3c78cf06fa" y="397.536858"/>
     <use style="stroke:#000000;" x="296.676116" xlink:href="#m3c78cf06fa" y="395.668016"/>
     <use style="stroke:#000000;" x="301.662697" xlink:href="#m3c78cf06fa" y="393.752391"/>
     <use style="stroke:#000000;" x="306.603249" xlink:href="#m3c78cf06fa" y="391.79143"/>
     <use style="stroke:#000000;" x="311.497757" xlink:href="#m3c78cf06fa" y="389.786545"/>
     <use style="stroke:#000000;" x="316.34626" xlink:href="#m3c78cf06fa" y="387.739105"/>
     <use style="stroke:#000000;" x="321.148852" xlink:href="#m3c78cf06fa" y="385.650483"/>
     <use style="stroke:#000000;" x="325.905675" xlink:href="#m3c78cf06fa" y="383.521918"/>
     <use style="stroke:#000000;" x="330.616927" xlink:href="#m3c78cf06fa" y="381.354755"/>
     <use style="stroke:#000000;" x="335.282849" xlink:href="#m3c78cf06fa" y="379.150157"/>
     <use style="stroke:#000000;" x="339.903729" xlink:href="#m3c78cf06fa" y="376.909399"/>
     <use style="stroke:#000000;" x="344.479877" xlink:href="#m3c78cf06fa" y="374.633572"/>
     <use style="stroke:#000000;" x="349.011658" xlink:href="#m3c78cf06fa" y="372.323876"/>
     <use style="stroke:#000000;" x="353.499457" xlink:href="#m3c78cf06fa" y="369.981366"/>
     <use style="stroke:#000000;" x="357.943699" xlink:href="#m3c78cf06fa" y="367.607134"/>
     <use style="stroke:#000000;" x="362.344821" xlink:href="#m3c78cf06fa" y="365.202198"/>
     <use style="stroke:#000000;" x="366.703312" xlink:href="#m3c78cf06fa" y="362.767613"/>
     <use style="stroke:#000000;" x="371.019652" xlink:href="#m3c78cf06fa" y="360.304289"/>
     <use style="stroke:#000000;" x="375.29437" xlink:href="#m3c78cf06fa" y="357.813172"/>
     <use style="stroke:#000000;" x="379.527998" xlink:href="#m3c78cf06fa" y="355.295243"/>
     <use style="stroke:#000000;" x="383.721083" xlink:href="#m3c78cf06fa" y="352.75134"/>
     <use style="stroke:#000000;" x="387.874205" xlink:href="#m3c78cf06fa" y="350.182371"/>
     <use style="stroke:#000000;" x="391.987939" xlink:href="#m3c78cf06fa" y="347.589102"/>
     <use style="stroke:#000000;" x="396.062884" xlink:href="#m3c78cf06fa" y="344.972405"/>
     <use style="stroke:#000000;" x="400.099643" xlink:href="#m3c78cf06fa" y="342.333043"/>
     <use style="stroke:#000000;" x="404.098832" xlink:href="#m3c78cf06fa" y="339.671745"/>
     <use style="stroke:#000000;" x="408.061068" xlink:href="#m3c78cf06fa" y="336.989311"/>
     <use style="stroke:#000000;" x="411.986989" xlink:href="#m3c78cf06fa" y="334.286395"/>
     <use style="stroke:#000000;" x="415.877218" xlink:href="#m3c78cf06fa" y="331.56369"/>
     <use style="stroke:#000000;" x="419.732405" xlink:href="#m3c78cf06fa" y="328.821885"/>
     <use style="stroke:#000000;" x="423.55319" xlink:href="#m3c78cf06fa" y="326.061637"/>
     <use style="stroke:#000000;" x="427.340218" xlink:href="#m3c78cf06fa" y="323.283526"/>
     <use style="stroke:#000000;" x="431.09414" xlink:href="#m3c78cf06fa" y="320.488208"/>
     <use style="stroke:#000000;" x="434.815596" xlink:href="#m3c78cf06fa" y="317.676229"/>
     <use style="stroke:#000000;" x="438.505242" xlink:href="#m3c78cf06fa" y="314.84817"/>
     <use style="stroke:#000000;" x="442.163719" xlink:href="#m3c78cf06fa" y="312.004614"/>
     <use style="stroke:#000000;" x="445.791693" xlink:href="#m3c78cf06fa" y="309.146033"/>
     <use style="stroke:#000000;" x="449.389753" xlink:href="#m3c78cf06fa" y="306.272937"/>
     <use style="stroke:#000000;" x="452.95866" xlink:href="#m3c78cf06fa" y="303.385908"/>
     <use style="stroke:#000000;" x="456.498885" xlink:href="#m3c78cf06fa" y="300.48531"/>
     <use style="stroke:#000000;" x="460.011247" xlink:href="#m3c78cf06fa" y="297.571724"/>
     <use style="stroke:#000000;" x="463.496217" xlink:href="#m3c78cf06fa" y="294.645515"/>
     <use style="stroke:#000000;" x="466.954556" xlink:href="#m3c78cf06fa" y="291.707156"/>
     <use style="stroke:#000000;" x="470.386794" xlink:href="#m3c78cf06fa" y="288.757082"/>
     <use style="stroke:#000000;" x="473.793574" xlink:href="#m3c78cf06fa" y="285.795658"/>
     <use style="stroke:#000000;" x="477.175542" xlink:href="#m3c78cf06fa" y="282.823321"/>
     <use style="stroke:#000000;" x="480.533286" xlink:href="#m3c78cf06fa" y="279.840433"/>
     <use style="stroke:#000000;" x="483.86739" xlink:href="#m3c78cf06fa" y="276.847396"/>
     <use style="stroke:#000000;" x="487.178502" xlink:href="#m3c78cf06fa" y="273.8445"/>
     <use style="stroke:#000000;" x="490.467147" xlink:href="#m3c78cf06fa" y="270.832182"/>
     <use style="stroke:#000000;" x="493.733973" xlink:href="#m3c78cf06fa" y="267.810697"/>
     <use style="stroke:#000000;" x="496.979506" xlink:href="#m3c78cf06fa" y="264.780444"/>
     <use style="stroke:#000000;" x="500.204333" xlink:href="#m3c78cf06fa" y="261.741679"/>
     <use style="stroke:#000000;" x="503.409041" xlink:href="#m3c78cf06fa" y="258.694728"/>
     <use style="stroke:#000000;" x="506.594217" xlink:href="#m3c78cf06fa" y="255.639883"/>
     <use style="stroke:#000000;" x="509.76027" xlink:href="#m3c78cf06fa" y="252.577472"/>
     <use style="stroke:#000000;" x="512.907905" xlink:href="#m3c78cf06fa" y="249.507711"/>
     <use style="stroke:#000000;" x="516.037591" xlink:href="#m3c78cf06fa" y="246.430894"/>
     <use style="stroke:#000000;" x="519.149797" xlink:href="#m3c78cf06fa" y="243.347309"/>
     <use style="stroke:#000000;" x="522.245111" xlink:href="#m3c78cf06fa" y="240.257177"/>
     <use style="stroke:#000000;" x="525.324059" xlink:href="#m3c78cf06fa" y="237.160751"/>
     <use style="stroke:#000000;" x="528.387111" xlink:href="#m3c78cf06fa" y="234.05825"/>
     <use style="stroke:#000000;" x="531.434795" xlink:href="#m3c78cf06fa" y="230.949964"/>
     <use style="stroke:#000000;" x="534.467522" xlink:href="#m3c78cf06fa" y="227.83604"/>
     <use style="stroke:#000000;" x="537.485877" xlink:href="#m3c78cf06fa" y="224.716768"/>
     <use style="stroke:#000000;" x="540.490273" xlink:href="#m3c78cf06fa" y="221.592294"/>
     <use style="stroke:#000000;" x="543.481177" xlink:href="#m3c78cf06fa" y="218.462836"/>
     <use style="stroke:#000000;" x="546.45906" xlink:href="#m3c78cf06fa" y="215.328649"/>
     <use style="stroke:#000000;" x="549.424331" xlink:href="#m3c78cf06fa" y="212.189842"/>
     <use style="stroke:#000000;" x="552.377519" xlink:href="#m3c78cf06fa" y="209.046633"/>
     <use style="stroke:#000000;" x="555.318976" xlink:href="#m3c78cf06fa" y="205.89924"/>
     <use style="stroke:#000000;" x="558.249171" xlink:href="#m3c78cf06fa" y="202.747773"/>
     <use style="stroke:#000000;" x="561.168514" xlink:href="#m3c78cf06fa" y="199.592449"/>
     <use style="stroke:#000000;" x="564.077358" xlink:href="#m3c78cf06fa" y="196.433415"/>
     <use style="stroke:#000000;" x="566.976171" xlink:href="#m3c78cf06fa" y="193.270816"/>
     <use style="stroke:#000000;" x="569.865365" xlink:href="#m3c78cf06fa" y="190.104834"/>
     <use style="stroke:#000000;" x="572.745291" xlink:href="#m3c78cf06fa" y="186.935577"/>
     <use style="stroke:#000000;" x="575.616301" xlink:href="#m3c78cf06fa" y="183.763228"/>
     <use style="stroke:#000000;" x="578.478747" xlink:href="#m3c78cf06fa" y="180.587933"/>
     <use style="stroke:#000000;" x="581.333099" xlink:href="#m3c78cf06fa" y="177.4098"/>
     <use style="stroke:#000000;" x="584.179591" xlink:href="#m3c78cf06fa" y="174.229012"/>
     <use style="stroke:#000000;" x="587.018633" xlink:href="#m3c78cf06fa" y="171.045604"/>
     <use style="stroke:#000000;" x="589.850519" xlink:href="#m3c78cf06fa" y="167.859795"/>
     <use style="stroke:#000000;" x="592.67566" xlink:href="#m3c78cf06fa" y="164.671621"/>
     <use style="stroke:#000000;" x="595.494289" xlink:href="#m3c78cf06fa" y="161.481301"/>
     <use style="stroke:#000000;" x="598.30676" xlink:href="#m3c78cf06fa" y="158.288835"/>
     <use style="stroke:#000000;" x="601.113365" xlink:href="#m3c78cf06fa" y="155.094441"/>
     <use style="stroke:#000000;" x="603.914457" xlink:href="#m3c78cf06fa" y="151.898119"/>
     <use style="stroke:#000000;" x="606.71021" xlink:href="#m3c78cf06fa" y="148.70005"/>
     <use style="stroke:#000000;" x="609.501037" xlink:href="#m3c78cf06fa" y="145.500308"/>
     <use style="stroke:#000000;" x="612.287112" xlink:href="#m3c78cf06fa" y="142.298965"/>
     <use style="stroke:#000000;" x="615.068788" xlink:href="#m3c78cf06fa" y="139.096167"/>
     <use style="stroke:#000000;" x="617.846241" xlink:href="#m3c78cf06fa" y="135.891951"/>
     <use style="stroke:#000000;" x="620.619763" xlink:href="#m3c78cf06fa" y="132.686425"/>
     <use style="stroke:#000000;" x="623.389532" xlink:href="#m3c78cf06fa" y="129.479661"/>
     <use style="stroke:#000000;" x="626.155899" xlink:href="#m3c78cf06fa" y="126.271771"/>
     <use style="stroke:#000000;" x="628.919039" xlink:href="#m3c78cf06fa" y="123.062788"/>
     <use style="stroke:#000000;" x="631.67913" xlink:href="#m3c78cf06fa" y="119.852824"/>
     <use style="stroke:#000000;" x="634.436463" xlink:href="#m3c78cf06fa" y="116.641914"/>
     <use style="stroke:#000000;" x="637.191157" xlink:href="#m3c78cf06fa" y="113.430167"/>
     <use style="stroke:#000000;" x="639.943505" xlink:href="#m3c78cf06fa" y="110.217619"/>
     <use style="stroke:#000000;" x="642.693565" xlink:href="#m3c78cf06fa" y="107.004344"/>
     <use style="stroke:#000000;" x="645.441689" xlink:href="#m3c78cf06fa" y="103.790414"/>
     <use style="stroke:#000000;" x="648.187878" xlink:href="#m3c78cf06fa" y="100.57583"/>
     <use style="stroke:#000000;" x="650.932365" xlink:href="#m3c78cf06fa" y="97.360736"/>
     <use style="stroke:#000000;" x="653.675387" xlink:href="#m3c78cf06fa" y="94.145133"/>
     <use style="stroke:#000000;" x="656.416941" xlink:href="#m3c78cf06fa" y="90.929057"/>
     <use style="stroke:#000000;" x="659.157323" xlink:href="#m3c78cf06fa" y="87.71258"/>
     <use style="stroke:#000000;" x="661.896532" xlink:href="#m3c78cf06fa" y="84.49574"/>
     <use style="stroke:#000000;" x="664.634802" xlink:href="#m3c78cf06fa" y="81.278573"/>
     <use style="stroke:#000000;" x="667.372192" xlink:href="#m3c78cf06fa" y="78.061114"/>
     <use style="stroke:#000000;" x="670.10882" xlink:href="#m3c78cf06fa" y="74.843437"/>
     <use style="stroke:#000000;" x="672.844861" xlink:href="#m3c78cf06fa" y="71.625542"/>
     <use style="stroke:#000000;" x="675.580257" xlink:href="#m3c78cf06fa" y="68.407429"/>
     <use style="stroke:#000000;" x="678.315242" xlink:href="#m3c78cf06fa" y="65.189207"/>
     <use style="stroke:#000000;" x="681.049817" xlink:href="#m3c78cf06fa" y="61.970839"/>
     <use style="stroke:#000000;" x="683.784098" xlink:href="#m3c78cf06fa" y="58.752507"/>
     <use style="stroke:#000000;" x="686.518145" xlink:href="#m3c78cf06fa" y="55.533702"/>
     <use style="stroke:#000000;" x="689.252016" xlink:href="#m3c78cf06fa" y="52.315262"/>
     <use style="stroke:#000000;" x="691.98571" xlink:href="#m3c78cf06fa" y="49.096457"/>
     <use style="stroke:#000000;" x="694.719347" xlink:href="#m3c78cf06fa" y="45.878016"/>
     <use style="stroke:#000000;" x="697.452865" xlink:href="#m3c78cf06fa" y="42.659212"/>
     <use style="stroke:#000000;" x="700.186384" xlink:href="#m3c78cf06fa" y="39.440407"/>
     <use style="stroke:#000000;" x="702.919903" xlink:href="#m3c78cf06fa" y="36.221603"/>
     <use style="stroke:#000000;" x="705.653422" xlink:href="#m3c78cf06fa" y="33.003162"/>
    </g>
   </g>
   <g id="line2d_18">
    <path clip-path="url(#p973c01a596)" d="M 147.188338 424.21051 
L 170.649493 424.355373 
L 194.101887 424.779357 
L 217.538073 425.466904 
L 240.951913 426.402849 
L 264.338454 427.572445 
L 287.693806 428.96139 
L 311.015035 430.555834 
L 334.300052 432.342401 
L 363.353419 434.826185 
L 392.346952 437.565908 
L 421.280787 440.538635 
L 450.156333 443.722028 
L 484.7352 447.784561 
L 519.241 452.079555 
L 553.679693 456.577067 
L 593.782169 462.043214 
L 639.526901 468.530044 
L 690.899107 476.069424 
L 747.893222 484.669213 
L 821.89269 496.083164 
L 935.637031 513.893251 
L 1009.551974 525.51609 
L 1009.551974 525.51609 
" style="fill:none;stroke:#1f77b4;stroke-linecap:square;stroke-width:3;"/>
   </g>
   <g id="line2d_19">
    <path clip-path="url(#p973c01a596)" d="M 147.188338 424.21051 
L 158.915557 424.037856 
L 170.617347 423.528457 
L 182.270799 422.695247 
L 193.855609 421.551453 
L 205.353948 420.110453 
L 216.750307 418.385646 
L 228.031349 416.39034 
L 239.185748 414.137668 
L 250.204031 411.640522 
L 261.078425 408.911465 
L 271.802707 405.962708 
L 282.372058 402.806064 
L 292.782925 399.452912 
L 303.032899 395.914192 
L 313.120582 392.200391 
L 323.045475 388.32152 
L 332.807895 384.287148 
L 342.408839 380.10634 
L 351.849943 375.787765 
L 361.133355 371.339645 
L 370.26169 366.769728 
L 379.237976 362.085364 
L 388.065543 357.293499 
L 396.748023 352.400756 
L 409.508814 344.886259 
L 421.974275 337.183392 
L 434.161076 329.310818 
L 446.083757 321.284179 
L 457.757071 313.117699 
L 469.19577 304.824512 
L 480.414565 296.416549 
L 491.428003 287.904761 
L 502.250278 279.299188 
L 512.895411 270.608998 
L 526.836463 258.904853 
L 540.517314 247.083167 
L 553.96735 235.159985 
L 567.214141 223.149602 
L 583.526507 208.033335 
L 599.607355 192.821937 
L 618.654764 174.467657 
L 640.616297 152.951215 
L 665.481335 128.269772 
L 702.528253 91.150932 
L 742.552818 50.896849 
L 742.552818 50.896849 
" style="fill:none;stroke:#ff7f0e;stroke-linecap:square;stroke-width:3;"/>
   </g>
   <g id="line2d_20">
    <path clip-path="url(#p973c01a596)" d="M 147.188338 424.21051 
L 164.784565 424.300814 
L 182.376183 424.566785 
L 205.817503 425.182128 
L 229.235147 426.079971 
L 252.622363 427.243844 
L 275.973764 428.657736 
L 299.285189 430.306114 
L 322.553576 432.173941 
L 345.776828 434.246709 
L 368.953712 436.510407 
L 397.858931 439.588073 
L 426.691434 442.917931 
L 455.453292 446.475168 
L 484.148608 450.233545 
L 518.500479 454.979379 
L 552.769323 459.950864 
L 592.655593 465.994871 
L 632.453603 472.258808 
L 677.846686 479.634956 
L 728.822496 488.146598 
L 791.027812 498.774001 
L 875.746748 513.503706 
L 1005.56566 536.273256 
L 1005.56566 536.273256 
" style="fill:none;stroke:#2ca02c;stroke-linecap:square;stroke-width:3;"/>
   </g>
   <g id="line2d_21">
    <path clip-path="url(#p973c01a596)" d="M 147.188338 424.21051 
L 158.914745 424.021599 
L 170.610762 423.464705 
L 182.249153 422.554779 
L 193.805949 421.307167 
L 205.260267 419.737409 
L 216.594113 417.861073 
L 227.792182 415.693615 
L 238.841642 413.250248 
L 249.731932 410.545859 
L 260.454552 407.594927 
L 271.002867 404.411457 
L 281.371924 401.008939 
L 291.558255 397.400324 
L 301.559742 393.597984 
L 311.375434 389.613724 
L 321.005407 385.458767 
L 330.450653 381.143757 
L 339.712931 376.678757 
L 348.794687 372.073335 
L 357.698936 367.336439 
L 366.42918 362.47651 
L 374.989326 357.501587 
L 383.383631 352.419055 
L 391.616607 347.236045 
L 399.693005 341.959104 
L 407.6196 336.595473 
L 419.24302 328.401818 
L 430.561901 320.045732 
L 441.593517 311.543111 
L 452.355083 302.908363 
L 462.863722 294.154582 
L 473.136326 285.293666 
L 483.18926 276.336345 
L 493.038598 267.292443 
L 502.699823 258.170799 
L 515.314706 245.901581 
L 527.655603 233.525626 
L 539.754542 221.05807 
L 551.641554 208.512336 
L 566.244722 192.738083 
L 580.603234 176.877686 
L 597.566865 157.753265 
L 617.082179 135.348305 
L 639.140964 109.66124 
L 671.973046 71.046463 
L 704.708052 32.4 
L 704.708052 32.4 
" style="fill:none;stroke:#d62728;stroke-linecap:square;stroke-width:3;"/>
   </g>
   <g id="legend_1">
    <g id="patch_3">
     <path d="M 113.870156 141.69625 
L 419.271406 141.69625 
Q 422.071406 141.69625 422.071406 138.89625 
L 422.071406 17 
Q 422.071406 14.2 419.271406 14.2 
L 113.870156 14.2 
Q 111.070156 14.2 111.070156 17 
L 111.070156 138.89625 
Q 111.070156 141.69625 113.870156 141.69625 
z
" style="fill:#ffffff;opacity:0.8;stroke:#cccccc;stroke-linejoin:miter;"/>
    </g>
    <g id="line2d_22"/>
    <g id="line2d_23">
     <g>
      <use style="stroke:#000000;" x="130.670156" xlink:href="#mc00a8c8cde" y="25.537812"/>
     </g>
    </g>
    <g id="text_18">
     <!-- Reference FEM: -1 g load -->
     <g transform="translate(155.870156 30.437812)scale(0.14 -0.14)">
      <defs>
       <path d="M 44.390625 34.1875 
Q 47.5625 33.109375 50.5625 29.59375 
Q 53.5625 26.078125 56.59375 19.921875 
L 66.609375 0 
L 56 0 
L 46.6875 18.703125 
Q 43.0625 26.03125 39.671875 28.421875 
Q 36.28125 30.8125 30.421875 30.8125 
L 19.671875 30.8125 
L 19.671875 0 
L 9.8125 0 
L 9.8125 72.90625 
L 32.078125 72.90625 
Q 44.578125 72.90625 50.734375 67.671875 
Q 56.890625 62.453125 56.890625 51.90625 
Q 56.890625 45.015625 53.6875 40.46875 
Q 50.484375 35.9375 44.390625 34.1875 
z
M 19.671875 64.796875 
L 19.671875 38.921875 
L 32.078125 38.921875 
Q 39.203125 38.921875 42.84375 42.21875 
Q 46.484375 45.515625 46.484375 51.90625 
Q 46.484375 58.296875 42.84375 61.546875 
Q 39.203125 64.796875 32.078125 64.796875 
z
" id="DejaVuSans-82"/>
       <path d="M 37.109375 75.984375 
L 37.109375 68.5 
L 28.515625 68.5 
Q 23.6875 68.5 21.796875 66.546875 
Q 19.921875 64.59375 19.921875 59.515625 
L 19.921875 54.6875 
L 34.71875 54.6875 
L 34.71875 47.703125 
L 19.921875 47.703125 
L 19.921875 0 
L 10.890625 0 
L 10.890625 47.703125 
L 2.296875 47.703125 
L 2.296875 54.6875 
L 10.890625 54.6875 
L 10.890625 58.5 
Q 10.890625 67.625 15.140625 71.796875 
Q 19.390625 75.984375 28.609375 75.984375 
z
" id="DejaVuSans-102"/>
       <path d="M 9.8125 72.90625 
L 51.703125 72.90625 
L 51.703125 64.59375 
L 19.671875 64.59375 
L 19.671875 43.109375 
L 48.578125 43.109375 
L 48.578125 34.8125 
L 19.671875 34.8125 
L 19.671875 0 
L 9.8125 0 
z
" id="DejaVuSans-70"/>
       <path d="M 9.8125 72.90625 
L 55.90625 72.90625 
L 55.90625 64.59375 
L 19.671875 64.59375 
L 19.671875 43.015625 
L 54.390625 43.015625 
L 54.390625 34.71875 
L 19.671875 34.71875 
L 19.671875 8.296875 
L 56.78125 8.296875 
L 56.78125 0 
L 9.8125 0 
z
" id="DejaVuSans-69"/>
       <path d="M 9.8125 72.90625 
L 24.515625 72.90625 
L 43.109375 23.296875 
L 61.8125 72.90625 
L 76.515625 72.90625 
L 76.515625 0 
L 66.890625 0 
L 66.890625 64.015625 
L 48.09375 14.015625 
L 38.1875 14.015625 
L 19.390625 64.015625 
L 19.390625 0 
L 9.8125 0 
z
" id="DejaVuSans-77"/>
       <path d="M 11.71875 12.40625 
L 22.015625 12.40625 
L 22.015625 0 
L 11.71875 0 
z
M 11.71875 51.703125 
L 22.015625 51.703125 
L 22.015625 39.3125 
L 11.71875 39.3125 
z
" id="DejaVuSans-58"/>
       <path d="M 4.890625 31.390625 
L 31.203125 31.390625 
L 31.203125 23.390625 
L 4.890625 23.390625 
z
" id="DejaVuSans-45"/>
       <path d="M 30.609375 48.390625 
Q 23.390625 48.390625 19.1875 42.75 
Q 14.984375 37.109375 14.984375 27.296875 
Q 14.984375 17.484375 19.15625 11.84375 
Q 23.34375 6.203125 30.609375 6.203125 
Q 37.796875 6.203125 41.984375 11.859375 
Q 46.1875 17.53125 46.1875 27.296875 
Q 46.1875 37.015625 41.984375 42.703125 
Q 37.796875 48.390625 30.609375 48.390625 
z
M 30.609375 56 
Q 42.328125 56 49.015625 48.375 
Q 55.71875 40.765625 55.71875 27.296875 
Q 55.71875 13.875 49.015625 6.21875 
Q 42.328125 -1.421875 30.609375 -1.421875 
Q 18.84375 -1.421875 12.171875 6.21875 
Q 5.515625 13.875 5.515625 27.296875 
Q 5.515625 40.765625 12.171875 48.375 
Q 18.84375 56 30.609375 56 
z
" id="DejaVuSans-111"/>
      </defs>
      <use xlink:href="#DejaVuSans-82"/>
      <use x="64.982422" xlink:href="#DejaVuSans-101"/>
      <use x="126.505859" xlink:href="#DejaVuSans-102"/>
      <use x="161.710938" xlink:href="#DejaVuSans-101"/>
      <use x="223.234375" xlink:href="#DejaVuSans-114"/>
      <use x="262.097656" xlink:href="#DejaVuSans-101"/>
      <use x="323.621094" xlink:href="#DejaVuSans-110"/>
      <use x="387" xlink:href="#DejaVuSans-99"/>
      <use x="441.980469" xlink:href="#DejaVuSans-101"/>
      <use x="503.503906" xlink:href="#DejaVuSans-32"/>
      <use x="535.291016" xlink:href="#DejaVuSans-70"/>
      <use x="592.810547" xlink:href="#DejaVuSans-69"/>
      <use x="655.994141" xlink:href="#DejaVuSans-77"/>
      <use x="742.273438" xlink:href="#DejaVuSans-58"/>
      <use x="775.964844" xlink:href="#DejaVuSans-32"/>
      <use x="807.751953" xlink:href="#DejaVuSans-45"/>
      <use x="843.835938" xlink:href="#DejaVuSans-49"/>
      <use x="907.458984" xlink:href="#DejaVuSans-32"/>
      <use x="939.246094" xlink:href="#DejaVuSans-103"/>
      <use x="1002.722656" xlink:href="#DejaVuSans-32"/>
      <use x="1034.509766" xlink:href="#DejaVuSans-108"/>
      <use x="1062.292969" xlink:href="#DejaVuSans-111"/>
      <use x="1123.474609" xlink:href="#DejaVuSans-97"/>
      <use x="1184.753906" xlink:href="#DejaVuSans-100"/>
     </g>
    </g>
    <g id="line2d_24"/>
    <g id="line2d_25">
     <g>
      <use style="stroke:#000000;" x="130.670156" xlink:href="#m3c78cf06fa" y="46.087188"/>
     </g>
    </g>
    <g id="text_19">
     <!-- Reference FEM: 25 N distributed load -->
     <g transform="translate(155.870156 50.987188)scale(0.14 -0.14)">
      <defs>
       <path d="M 10.796875 72.90625 
L 49.515625 72.90625 
L 49.515625 64.59375 
L 19.828125 64.59375 
L 19.828125 46.734375 
Q 21.96875 47.46875 24.109375 47.828125 
Q 26.265625 48.1875 28.421875 48.1875 
Q 40.625 48.1875 47.75 41.5 
Q 54.890625 34.8125 54.890625 23.390625 
Q 54.890625 11.625 47.5625 5.09375 
Q 40.234375 -1.421875 26.90625 -1.421875 
Q 22.3125 -1.421875 17.546875 -0.640625 
Q 12.796875 0.140625 7.71875 1.703125 
L 7.71875 11.625 
Q 12.109375 9.234375 16.796875 8.0625 
Q 21.484375 6.890625 26.703125 6.890625 
Q 35.15625 6.890625 40.078125 11.328125 
Q 45.015625 15.765625 45.015625 23.390625 
Q 45.015625 31 40.078125 35.4375 
Q 35.15625 39.890625 26.703125 39.890625 
Q 22.75 39.890625 18.8125 39.015625 
Q 14.890625 38.140625 10.796875 36.28125 
z
" id="DejaVuSans-53"/>
       <path d="M 9.8125 72.90625 
L 23.09375 72.90625 
L 55.421875 11.921875 
L 55.421875 72.90625 
L 64.984375 72.90625 
L 64.984375 0 
L 51.703125 0 
L 19.390625 60.984375 
L 19.390625 0 
L 9.8125 0 
z
" id="DejaVuSans-78"/>
       <path d="M 48.6875 27.296875 
Q 48.6875 37.203125 44.609375 42.84375 
Q 40.53125 48.484375 33.40625 48.484375 
Q 26.265625 48.484375 22.1875 42.84375 
Q 18.109375 37.203125 18.109375 27.296875 
Q 18.109375 17.390625 22.1875 11.75 
Q 26.265625 6.109375 33.40625 6.109375 
Q 40.53125 6.109375 44.609375 11.75 
Q 48.6875 17.390625 48.6875 27.296875 
z
M 18.109375 46.390625 
Q 20.953125 51.265625 25.265625 53.625 
Q 29.59375 56 35.59375 56 
Q 45.5625 56 51.78125 48.09375 
Q 58.015625 40.1875 58.015625 27.296875 
Q 58.015625 14.40625 51.78125 6.484375 
Q 45.5625 -1.421875 35.59375 -1.421875 
Q 29.59375 -1.421875 25.265625 0.953125 
Q 20.953125 3.328125 18.109375 8.203125 
L 18.109375 0 
L 9.078125 0 
L 9.078125 75.984375 
L 18.109375 75.984375 
z
" id="DejaVuSans-98"/>
       <path d="M 8.5 21.578125 
L 8.5 54.6875 
L 17.484375 54.6875 
L 17.484375 21.921875 
Q 17.484375 14.15625 20.5 10.265625 
Q 23.53125 6.390625 29.59375 6.390625 
Q 36.859375 6.390625 41.078125 11.03125 
Q 45.3125 15.671875 45.3125 23.6875 
L 45.3125 54.6875 
L 54.296875 54.6875 
L 54.296875 0 
L 45.3125 0 
L 45.3125 8.40625 
Q 42.046875 3.421875 37.71875 1 
Q 33.40625 -1.421875 27.6875 -1.421875 
Q 18.265625 -1.421875 13.375 4.4375 
Q 8.5 10.296875 8.5 21.578125 
z
M 31.109375 56 
z
" id="DejaVuSans-117"/>
      </defs>
      <use xlink:href="#DejaVuSans-82"/>
      <use x="64.982422" xlink:href="#DejaVuSans-101"/>
      <use x="126.505859" xlink:href="#DejaVuSans-102"/>
      <use x="161.710938" xlink:href="#DejaVuSans-101"/>
      <use x="223.234375" xlink:href="#DejaVuSans-114"/>
      <use x="262.097656" xlink:href="#DejaVuSans-101"/>
      <use x="323.621094" xlink:href="#DejaVuSans-110"/>
      <use x="387" xlink:href="#DejaVuSans-99"/>
      <use x="441.980469" xlink:href="#DejaVuSans-101"/>
      <use x="503.503906" xlink:href="#DejaVuSans-32"/>
      <use x="535.291016" xlink:href="#DejaVuSans-70"/>
      <use x="592.810547" xlink:href="#DejaVuSans-69"/>
      <use x="655.994141" xlink:href="#DejaVuSans-77"/>
      <use x="742.273438" xlink:href="#DejaVuSans-58"/>
      <use x="775.964844" xlink:href="#DejaVuSans-32"/>
      <use x="807.751953" xlink:href="#DejaVuSans-50"/>
      <use x="871.375" xlink:href="#DejaVuSans-53"/>
      <use x="934.998047" xlink:href="#DejaVuSans-32"/>
      <use x="966.785156" xlink:href="#DejaVuSans-78"/>
      <use x="1041.589844" xlink:href="#DejaVuSans-32"/>
      <use x="1073.376953" xlink:href="#DejaVuSans-100"/>
      <use x="1136.853516" xlink:href="#DejaVuSans-105"/>
      <use x="1164.636719" xlink:href="#DejaVuSans-115"/>
      <use x="1216.736328" xlink:href="#DejaVuSans-116"/>
      <use x="1255.945312" xlink:href="#DejaVuSans-114"/>
      <use x="1297.058594" xlink:href="#DejaVuSans-105"/>
      <use x="1324.841797" xlink:href="#DejaVuSans-98"/>
      <use x="1388.318359" xlink:href="#DejaVuSans-117"/>
      <use x="1451.697266" xlink:href="#DejaVuSans-116"/>
      <use x="1490.90625" xlink:href="#DejaVuSans-101"/>
      <use x="1552.429688" xlink:href="#DejaVuSans-100"/>
      <use x="1615.90625" xlink:href="#DejaVuSans-32"/>
      <use x="1647.693359" xlink:href="#DejaVuSans-108"/>
      <use x="1675.476562" xlink:href="#DejaVuSans-111"/>
      <use x="1736.658203" xlink:href="#DejaVuSans-97"/>
      <use x="1797.9375" xlink:href="#DejaVuSans-100"/>
     </g>
    </g>
    <g id="line2d_26">
     <path d="M 116.670156 66.636562 
L 144.670156 66.636562 
" style="fill:none;stroke:#1f77b4;stroke-linecap:square;stroke-width:3;"/>
    </g>
    <g id="line2d_27"/>
    <g id="text_20">
     <!-- Initial FEM: -1 g load -->
     <g transform="translate(155.870156 71.536562)scale(0.14 -0.14)">
      <defs>
       <path d="M 9.8125 72.90625 
L 19.671875 72.90625 
L 19.671875 0 
L 9.8125 0 
z
" id="DejaVuSans-73"/>
      </defs>
      <use xlink:href="#DejaVuSans-73"/>
      <use x="29.492188" xlink:href="#DejaVuSans-110"/>
      <use x="92.871094" xlink:href="#DejaVuSans-105"/>
      <use x="120.654297" xlink:href="#DejaVuSans-116"/>
      <use x="159.863281" xlink:href="#DejaVuSans-105"/>
      <use x="187.646484" xlink:href="#DejaVuSans-97"/>
      <use x="248.925781" xlink:href="#DejaVuSans-108"/>
      <use x="276.708984" xlink:href="#DejaVuSans-32"/>
      <use x="308.496094" xlink:href="#DejaVuSans-70"/>
      <use x="366.015625" xlink:href="#DejaVuSans-69"/>
      <use x="429.199219" xlink:href="#DejaVuSans-77"/>
      <use x="515.478516" xlink:href="#DejaVuSans-58"/>
      <use x="549.169922" xlink:href="#DejaVuSans-32"/>
      <use x="580.957031" xlink:href="#DejaVuSans-45"/>
      <use x="617.041016" xlink:href="#DejaVuSans-49"/>
      <use x="680.664062" xlink:href="#DejaVuSans-32"/>
      <use x="712.451172" xlink:href="#DejaVuSans-103"/>
      <use x="775.927734" xlink:href="#DejaVuSans-32"/>
      <use x="807.714844" xlink:href="#DejaVuSans-108"/>
      <use x="835.498047" xlink:href="#DejaVuSans-111"/>
      <use x="896.679688" xlink:href="#DejaVuSans-97"/>
      <use x="957.958984" xlink:href="#DejaVuSans-100"/>
     </g>
    </g>
    <g id="line2d_28">
     <path d="M 116.670156 87.185937 
L 144.670156 87.185937 
" style="fill:none;stroke:#ff7f0e;stroke-linecap:square;stroke-width:3;"/>
    </g>
    <g id="line2d_29"/>
    <g id="text_21">
     <!-- Initial FEM: 25 N distributed load -->
     <g transform="translate(155.870156 92.085938)scale(0.14 -0.14)">
      <use xlink:href="#DejaVuSans-73"/>
      <use x="29.492188" xlink:href="#DejaVuSans-110"/>
      <use x="92.871094" xlink:href="#DejaVuSans-105"/>
      <use x="120.654297" xlink:href="#DejaVuSans-116"/>
      <use x="159.863281" xlink:href="#DejaVuSans-105"/>
      <use x="187.646484" xlink:href="#DejaVuSans-97"/>
      <use x="248.925781" xlink:href="#DejaVuSans-108"/>
      <use x="276.708984" xlink:href="#DejaVuSans-32"/>
      <use x="308.496094" xlink:href="#DejaVuSans-70"/>
      <use x="366.015625" xlink:href="#DejaVuSans-69"/>
      <use x="429.199219" xlink:href="#DejaVuSans-77"/>
      <use x="515.478516" xlink:href="#DejaVuSans-58"/>
      <use x="549.169922" xlink:href="#DejaVuSans-32"/>
      <use x="580.957031" xlink:href="#DejaVuSans-50"/>
      <use x="644.580078" xlink:href="#DejaVuSans-53"/>
      <use x="708.203125" xlink:href="#DejaVuSans-32"/>
      <use x="739.990234" xlink:href="#DejaVuSans-78"/>
      <use x="814.794922" xlink:href="#DejaVuSans-32"/>
      <use x="846.582031" xlink:href="#DejaVuSans-100"/>
      <use x="910.058594" xlink:href="#DejaVuSans-105"/>
      <use x="937.841797" xlink:href="#DejaVuSans-115"/>
      <use x="989.941406" xlink:href="#DejaVuSans-116"/>
      <use x="1029.150391" xlink:href="#DejaVuSans-114"/>
      <use x="1070.263672" xlink:href="#DejaVuSans-105"/>
      <use x="1098.046875" xlink:href="#DejaVuSans-98"/>
      <use x="1161.523438" xlink:href="#DejaVuSans-117"/>
      <use x="1224.902344" xlink:href="#DejaVuSans-116"/>
      <use x="1264.111328" xlink:href="#DejaVuSans-101"/>
      <use x="1325.634766" xlink:href="#DejaVuSans-100"/>
      <use x="1389.111328" xlink:href="#DejaVuSans-32"/>
      <use x="1420.898438" xlink:href="#DejaVuSans-108"/>
      <use x="1448.681641" xlink:href="#DejaVuSans-111"/>
      <use x="1509.863281" xlink:href="#DejaVuSans-97"/>
      <use x="1571.142578" xlink:href="#DejaVuSans-100"/>
     </g>
    </g>
    <g id="line2d_30">
     <path d="M 116.670156 107.735312 
L 144.670156 107.735312 
" style="fill:none;stroke:#2ca02c;stroke-linecap:square;stroke-width:3;"/>
    </g>
    <g id="line2d_31"/>
    <g id="text_22">
     <!-- Final FEM: -1 g load -->
     <g transform="translate(155.870156 112.635312)scale(0.14 -0.14)">
      <use xlink:href="#DejaVuSans-70"/>
      <use x="50.269531" xlink:href="#DejaVuSans-105"/>
      <use x="78.052734" xlink:href="#DejaVuSans-110"/>
      <use x="141.431641" xlink:href="#DejaVuSans-97"/>
      <use x="202.710938" xlink:href="#DejaVuSans-108"/>
      <use x="230.494141" xlink:href="#DejaVuSans-32"/>
      <use x="262.28125" xlink:href="#DejaVuSans-70"/>
      <use x="319.800781" xlink:href="#DejaVuSans-69"/>
      <use x="382.984375" xlink:href="#DejaVuSans-77"/>
      <use x="469.263672" xlink:href="#DejaVuSans-58"/>
      <use x="502.955078" xlink:href="#DejaVuSans-32"/>
      <use x="534.742188" xlink:href="#DejaVuSans-45"/>
      <use x="570.826172" xlink:href="#DejaVuSans-49"/>
      <use x="634.449219" xlink:href="#DejaVuSans-32"/>
      <use x="666.236328" xlink:href="#DejaVuSans-103"/>
      <use x="729.712891" xlink:href="#DejaVuSans-32"/>
      <use x="761.5" xlink:href="#DejaVuSans-108"/>
      <use x="789.283203" xlink:href="#DejaVuSans-111"/>
      <use x="850.464844" xlink:href="#DejaVuSans-97"/>
      <use x="911.744141" xlink:href="#DejaVuSans-100"/>
     </g>
    </g>
    <g id="line2d_32">
     <path d="M 116.670156 128.284687 
L 144.670156 128.284687 
" style="fill:none;stroke:#d62728;stroke-linecap:square;stroke-width:3;"/>
    </g>
    <g id="line2d_33"/>
    <g id="text_23">
     <!-- Final FEM: 25 N distributed load -->
     <g transform="translate(155.870156 133.184687)scale(0.14 -0.14)">
      <use xlink:href="#DejaVuSans-70"/>
      <use x="50.269531" xlink:href="#DejaVuSans-105"/>
      <use x="78.052734" xlink:href="#DejaVuSans-110"/>
      <use x="141.431641" xlink:href="#DejaVuSans-97"/>
      <use x="202.710938" xlink:href="#DejaVuSans-108"/>
      <use x="230.494141" xlink:href="#DejaVuSans-32"/>
      <use x="262.28125" xlink:href="#DejaVuSans-70"/>
      <use x="319.800781" xlink:href="#DejaVuSans-69"/>
      <use x="382.984375" xlink:href="#DejaVuSans-77"/>
      <use x="469.263672" xlink:href="#DejaVuSans-58"/>
      <use x="502.955078" xlink:href="#DejaVuSans-32"/>
      <use x="534.742188" xlink:href="#DejaVuSans-50"/>
      <use x="598.365234" xlink:href="#DejaVuSans-53"/>
      <use x="661.988281" xlink:href="#DejaVuSans-32"/>
      <use x="693.775391" xlink:href="#DejaVuSans-78"/>
      <use x="768.580078" xlink:href="#DejaVuSans-32"/>
      <use x="800.367188" xlink:href="#DejaVuSans-100"/>
      <use x="863.84375" xlink:href="#DejaVuSans-105"/>
      <use x="891.626953" xlink:href="#DejaVuSans-115"/>
      <use x="943.726562" xlink:href="#DejaVuSans-116"/>
      <use x="982.935547" xlink:href="#DejaVuSans-114"/>
      <use x="1024.048828" xlink:href="#DejaVuSans-105"/>
      <use x="1051.832031" xlink:href="#DejaVuSans-98"/>
      <use x="1115.308594" xlink:href="#DejaVuSans-117"/>
      <use x="1178.6875" xlink:href="#DejaVuSans-116"/>
      <use x="1217.896484" xlink:href="#DejaVuSans-101"/>
      <use x="1279.419922" xlink:href="#DejaVuSans-100"/>
      <use x="1342.896484" xlink:href="#DejaVuSans-32"/>
      <use x="1374.683594" xlink:href="#DejaVuSans-108"/>
      <use x="1402.466797" xlink:href="#DejaVuSans-111"/>
      <use x="1463.648438" xlink:href="#DejaVuSans-97"/>
      <use x="1524.927734" xlink:href="#DejaVuSans-100"/>
     </g>
    </g>
   </g>
  </g>
 </g>
 <defs>
  <clipPath id="p973c01a596">
   <rect height="554.4" width="948.6" x="104.070156" y="7.2"/>
  </clipPath>
 </defs>
</svg>
