<?xml version="1.0" encoding="utf-8" standalone="no"?>
<!DOCTYPE svg PUBLIC "-//W3C//DTD SVG 1.1//EN"
  "http://www.w3.org/Graphics/SVG/1.1/DTD/svg11.dtd">
<svg xmlns:xlink="http://www.w3.org/1999/xlink" width="966.815312pt" height="561.747958pt" viewBox="0 0 966.815312 561.747958" xmlns="http://www.w3.org/2000/svg" version="1.1">
 <metadata>
  <rdf:RDF xmlns:dc="http://purl.org/dc/elements/1.1/" xmlns:cc="http://creativecommons.org/ns#" xmlns:rdf="http://www.w3.org/1999/02/22-rdf-syntax-ns#">
   <cc:Work>
    <dc:type rdf:resource="http://purl.org/dc/dcmitype/StillImage"/>
    <dc:date>2023-07-06T13:32:29.989104</dc:date>
    <dc:format>image/svg+xml</dc:format>
    <dc:creator>
     <cc:Agent>
      <dc:title>Matplotlib v3.5.2, https://matplotlib.org/</dc:title>
     </cc:Agent>
    </dc:creator>
   </cc:Work>
  </rdf:RDF>
 </metadata>
 <defs>
  <style type="text/css">*{stroke-linejoin: round; stroke-linecap: butt}</style>
 </defs>
 <g id="figure_1">
  <g id="patch_1">
   <path d="M 0 561.747958 
L 966.815312 561.747958 
L 966.815312 0 
L 0 0 
z
" style="fill: #ffffff"/>
  </g>
  <g id="axes_1">
   <g id="patch_2">
    <path d="M 66.815313 497.225614 
L 959.615312 497.225614 
L 959.615312 7.985614 
L 66.815313 7.985614 
z
" style="fill: #ffffff"/>
   </g>
   <g id="patch_3">
    <path d="M 107.397131 497.225614 
L 121.153679 497.225614 
L 121.153679 431.762568 
L 107.397131 431.762568 
z
" clip-path="url(#p2e54e69a75)" style="fill: #1f77b4"/>
   </g>
   <g id="patch_4">
    <path d="M 162.423325 497.225614 
L 176.179873 497.225614 
L 176.179873 433.687952 
L 162.423325 433.687952 
z
" clip-path="url(#p2e54e69a75)" style="fill: #1f77b4"/>
   </g>
   <g id="patch_5">
    <path d="M 217.449519 497.225614 
L 231.206068 497.225614 
L 231.206068 433.687952 
L 217.449519 433.687952 
z
" clip-path="url(#p2e54e69a75)" style="fill: #1f77b4"/>
   </g>
   <g id="patch_6">
    <path d="M 272.475713 497.225614 
L 286.232262 497.225614 
L 286.232262 433.687952 
L 272.475713 433.687952 
z
" clip-path="url(#p2e54e69a75)" style="fill: #1f77b4"/>
   </g>
   <g id="patch_7">
    <path d="M 327.501907 497.225614 
L 341.258456 497.225614 
L 341.258456 431.762568 
L 327.501907 431.762568 
z
" clip-path="url(#p2e54e69a75)" style="fill: #1f77b4"/>
   </g>
   <g id="patch_8">
    <path d="M 382.528101 497.225614 
L 396.28465 497.225614 
L 396.28465 433.687952 
L 382.528101 433.687952 
z
" clip-path="url(#p2e54e69a75)" style="fill: #1f77b4"/>
   </g>
   <g id="patch_9">
    <path d="M 437.554296 497.225614 
L 451.310844 497.225614 
L 451.310844 431.762568 
L 437.554296 431.762568 
z
" clip-path="url(#p2e54e69a75)" style="fill: #1f77b4"/>
   </g>
   <g id="patch_10">
    <path d="M 492.58049 497.225614 
L 506.337038 497.225614 
L 506.337038 429.837185 
L 492.58049 429.837185 
z
" clip-path="url(#p2e54e69a75)" style="fill: #1f77b4"/>
   </g>
   <g id="patch_11">
    <path d="M 547.606684 497.225614 
L 561.363232 497.225614 
L 561.363232 433.687952 
L 547.606684 433.687952 
z
" clip-path="url(#p2e54e69a75)" style="fill: #1f77b4"/>
   </g>
   <g id="patch_12">
    <path d="M 602.632878 497.225614 
L 616.389427 497.225614 
L 616.389427 427.911801 
L 602.632878 427.911801 
z
" clip-path="url(#p2e54e69a75)" style="fill: #1f77b4"/>
   </g>
   <g id="patch_13">
    <path d="M 657.659072 497.225614 
L 671.415621 497.225614 
L 671.415621 429.837185 
L 657.659072 429.837185 
z
" clip-path="url(#p2e54e69a75)" style="fill: #1f77b4"/>
   </g>
   <g id="patch_14">
    <path d="M 712.685266 497.225614 
L 726.441815 497.225614 
L 726.441815 427.911801 
L 712.685266 427.911801 
z
" clip-path="url(#p2e54e69a75)" style="fill: #1f77b4"/>
   </g>
   <g id="patch_15">
    <path d="M 767.71146 497.225614 
L 781.468009 497.225614 
L 781.468009 431.762568 
L 767.71146 431.762568 
z
" clip-path="url(#p2e54e69a75)" style="fill: #1f77b4"/>
   </g>
   <g id="patch_16">
    <path d="M 822.737655 497.225614 
L 836.494203 497.225614 
L 836.494203 425.986417 
L 822.737655 425.986417 
z
" clip-path="url(#p2e54e69a75)" style="fill: #1f77b4"/>
   </g>
   <g id="patch_17">
    <path d="M 877.763849 497.225614 
L 891.520397 497.225614 
L 891.520397 427.911801 
L 877.763849 427.911801 
z
" clip-path="url(#p2e54e69a75)" style="fill: #1f77b4"/>
   </g>
   <g id="patch_18">
    <path d="M 121.153679 497.225614 
L 134.910228 497.225614 
L 134.910228 370.15029 
L 121.153679 370.15029 
z
" clip-path="url(#p2e54e69a75)" style="fill: #ff7f0e"/>
   </g>
   <g id="patch_19">
    <path d="M 176.179873 497.225614 
L 189.936422 497.225614 
L 189.936422 429.837185 
L 176.179873 429.837185 
z
" clip-path="url(#p2e54e69a75)" style="fill: #ff7f0e"/>
   </g>
   <g id="patch_20">
    <path d="M 231.206068 497.225614 
L 244.962616 497.225614 
L 244.962616 391.32951 
L 231.206068 391.32951 
z
" clip-path="url(#p2e54e69a75)" style="fill: #ff7f0e"/>
   </g>
   <g id="patch_21">
    <path d="M 286.232262 497.225614 
L 299.98881 497.225614 
L 299.98881 402.881813 
L 286.232262 402.881813 
z
" clip-path="url(#p2e54e69a75)" style="fill: #ff7f0e"/>
   </g>
   <g id="patch_22">
    <path d="M 341.258456 497.225614 
L 355.015004 497.225614 
L 355.015004 427.911801 
L 341.258456 427.911801 
z
" clip-path="url(#p2e54e69a75)" style="fill: #ff7f0e"/>
   </g>
   <g id="patch_23">
    <path d="M 396.28465 497.225614 
L 410.041198 497.225614 
L 410.041198 431.762568 
L 396.28465 431.762568 
z
" clip-path="url(#p2e54e69a75)" style="fill: #ff7f0e"/>
   </g>
   <g id="patch_24">
    <path d="M 451.310844 497.225614 
L 465.067393 497.225614 
L 465.067393 406.73258 
L 451.310844 406.73258 
z
" clip-path="url(#p2e54e69a75)" style="fill: #ff7f0e"/>
   </g>
   <g id="patch_25">
    <path d="M 506.337038 497.225614 
L 520.093587 497.225614 
L 520.093587 406.73258 
L 506.337038 406.73258 
z
" clip-path="url(#p2e54e69a75)" style="fill: #ff7f0e"/>
   </g>
   <g id="patch_26">
    <path d="M 561.363232 497.225614 
L 575.119781 497.225614 
L 575.119781 431.762568 
L 561.363232 431.762568 
z
" clip-path="url(#p2e54e69a75)" style="fill: #ff7f0e"/>
   </g>
   <g id="patch_27">
    <path d="M 616.389427 497.225614 
L 630.145975 497.225614 
L 630.145975 387.478743 
L 616.389427 387.478743 
z
" clip-path="url(#p2e54e69a75)" style="fill: #ff7f0e"/>
   </g>
   <g id="patch_28">
    <path d="M 671.415621 497.225614 
L 685.172169 497.225614 
L 685.172169 429.837185 
L 671.415621 429.837185 
z
" clip-path="url(#p2e54e69a75)" style="fill: #ff7f0e"/>
   </g>
   <g id="patch_29">
    <path d="M 726.441815 497.225614 
L 740.198363 497.225614 
L 740.198363 204.567291 
L 726.441815 204.567291 
z
" clip-path="url(#p2e54e69a75)" style="fill: #ff7f0e"/>
   </g>
   <g id="patch_30">
    <path d="M 781.468009 497.225614 
L 795.224557 497.225614 
L 795.224557 298.911092 
L 781.468009 298.911092 
z
" clip-path="url(#p2e54e69a75)" style="fill: #ff7f0e"/>
   </g>
   <g id="patch_31">
    <path d="M 836.494203 497.225614 
L 850.250752 497.225614 
L 850.250752 31.282757 
L 836.494203 31.282757 
z
" clip-path="url(#p2e54e69a75)" style="fill: #ff7f0e"/>
   </g>
   <g id="patch_32">
    <path d="M 891.520397 497.225614 
L 905.276946 497.225614 
L 905.276946 198.79114 
L 891.520397 198.79114 
z
" clip-path="url(#p2e54e69a75)" style="fill: #ff7f0e"/>
   </g>
   <g id="patch_33">
    <path d="M 134.910228 497.225614 
L 148.666776 497.225614 
L 148.666776 372.075673 
L 134.910228 372.075673 
z
" clip-path="url(#p2e54e69a75)" style="fill: #2ca02c"/>
   </g>
   <g id="patch_34">
    <path d="M 189.936422 497.225614 
L 203.69297 497.225614 
L 203.69297 391.32951 
L 189.936422 391.32951 
z
" clip-path="url(#p2e54e69a75)" style="fill: #2ca02c"/>
   </g>
   <g id="patch_35">
    <path d="M 244.962616 497.225614 
L 258.719165 497.225614 
L 258.719165 360.523371 
L 244.962616 360.523371 
z
" clip-path="url(#p2e54e69a75)" style="fill: #2ca02c"/>
   </g>
   <g id="patch_36">
    <path d="M 299.98881 497.225614 
L 313.745359 497.225614 
L 313.745359 379.777208 
L 299.98881 379.777208 
z
" clip-path="url(#p2e54e69a75)" style="fill: #2ca02c"/>
   </g>
   <g id="patch_37">
    <path d="M 355.015004 497.225614 
L 368.771553 497.225614 
L 368.771553 412.508731 
L 355.015004 412.508731 
z
" clip-path="url(#p2e54e69a75)" style="fill: #2ca02c"/>
   </g>
   <g id="patch_38">
    <path d="M 410.041198 497.225614 
L 423.797747 497.225614 
L 423.797747 427.911801 
L 410.041198 427.911801 
z
" clip-path="url(#p2e54e69a75)" style="fill: #2ca02c"/>
   </g>
   <g id="patch_39">
    <path d="M 465.067393 497.225614 
L 478.823941 497.225614 
L 478.823941 385.553359 
L 465.067393 385.553359 
z
" clip-path="url(#p2e54e69a75)" style="fill: #2ca02c"/>
   </g>
   <g id="patch_40">
    <path d="M 520.093587 497.225614 
L 533.850135 497.225614 
L 533.850135 372.075673 
L 520.093587 372.075673 
z
" clip-path="url(#p2e54e69a75)" style="fill: #2ca02c"/>
   </g>
   <g id="patch_41">
    <path d="M 575.119781 497.225614 
L 588.876329 497.225614 
L 588.876329 400.956429 
L 575.119781 400.956429 
z
" clip-path="url(#p2e54e69a75)" style="fill: #2ca02c"/>
   </g>
   <g id="patch_42">
    <path d="M 630.145975 497.225614 
L 643.902524 497.225614 
L 643.902524 416.359499 
L 630.145975 416.359499 
z
" clip-path="url(#p2e54e69a75)" style="fill: #2ca02c"/>
   </g>
   <g id="patch_43">
    <path d="M 685.172169 497.225614 
L 698.928718 497.225614 
L 698.928718 362.448755 
L 685.172169 362.448755 
z
" clip-path="url(#p2e54e69a75)" style="fill: #2ca02c"/>
   </g>
   <g id="patch_44">
    <path d="M 740.198363 497.225614 
L 753.954912 497.225614 
L 753.954912 414.434115 
L 740.198363 414.434115 
z
" clip-path="url(#p2e54e69a75)" style="fill: #2ca02c"/>
   </g>
   <g id="patch_45">
    <path d="M 795.224557 497.225614 
L 808.981106 497.225614 
L 808.981106 331.642615 
L 795.224557 331.642615 
z
" clip-path="url(#p2e54e69a75)" style="fill: #2ca02c"/>
   </g>
   <g id="patch_46">
    <path d="M 850.250752 497.225614 
L 864.0073 497.225614 
L 864.0073 418.284882 
L 850.250752 418.284882 
z
" clip-path="url(#p2e54e69a75)" style="fill: #2ca02c"/>
   </g>
   <g id="patch_47">
    <path d="M 905.276946 497.225614 
L 919.033494 497.225614 
L 919.033494 348.971069 
L 905.276946 348.971069 
z
" clip-path="url(#p2e54e69a75)" style="fill: #2ca02c"/>
   </g>
   <g id="matplotlib.axis_1">
    <g id="xtick_1">
     <g id="line2d_1">
      <defs>
       <path id="m1a785256b9" d="M 0 0 
L 0 3.5 
" style="stroke: #000000; stroke-width: 0.8"/>
      </defs>
      <g>
       <use xlink:href="#m1a785256b9" x="128.031953" y="497.225614" style="stroke: #000000; stroke-width: 0.8"/>
      </g>
     </g>
     <g id="text_1">
      <!-- 1 -->
      <g transform="translate(121.781953 521.584989)scale(0.25 -0.25)">
       <defs>
        <path id="TimesNewRomanPSMT-31" d="M 750 3822 
L 1781 4325 
L 1884 4325 
L 1884 747 
Q 1884 391 1914 303 
Q 1944 216 2037 169 
Q 2131 122 2419 116 
L 2419 0 
L 825 0 
L 825 116 
Q 1125 122 1212 167 
Q 1300 213 1334 289 
Q 1369 366 1369 747 
L 1369 3034 
Q 1369 3497 1338 3628 
Q 1316 3728 1258 3775 
Q 1200 3822 1119 3822 
Q 1003 3822 797 3725 
L 750 3822 
z
" transform="scale(0.015625)"/>
       </defs>
       <use xlink:href="#TimesNewRomanPSMT-31"/>
      </g>
     </g>
    </g>
    <g id="xtick_2">
     <g id="line2d_2">
      <g>
       <use xlink:href="#m1a785256b9" x="183.058148" y="497.225614" style="stroke: #000000; stroke-width: 0.8"/>
      </g>
     </g>
     <g id="text_2">
      <!-- 2 -->
      <g transform="translate(176.808148 521.584989)scale(0.25 -0.25)">
       <defs>
        <path id="TimesNewRomanPSMT-32" d="M 2934 816 
L 2638 0 
L 138 0 
L 138 116 
Q 1241 1122 1691 1759 
Q 2141 2397 2141 2925 
Q 2141 3328 1894 3587 
Q 1647 3847 1303 3847 
Q 991 3847 742 3664 
Q 494 3481 375 3128 
L 259 3128 
Q 338 3706 661 4015 
Q 984 4325 1469 4325 
Q 1984 4325 2329 3994 
Q 2675 3663 2675 3213 
Q 2675 2891 2525 2569 
Q 2294 2063 1775 1497 
Q 997 647 803 472 
L 1909 472 
Q 2247 472 2383 497 
Q 2519 522 2628 598 
Q 2738 675 2819 816 
L 2934 816 
z
" transform="scale(0.015625)"/>
       </defs>
       <use xlink:href="#TimesNewRomanPSMT-32"/>
      </g>
     </g>
    </g>
    <g id="xtick_3">
     <g id="line2d_3">
      <g>
       <use xlink:href="#m1a785256b9" x="238.084342" y="497.225614" style="stroke: #000000; stroke-width: 0.8"/>
      </g>
     </g>
     <g id="text_3">
      <!-- 3 -->
      <g transform="translate(231.834342 521.584989)scale(0.25 -0.25)">
       <defs>
        <path id="TimesNewRomanPSMT-33" d="M 325 3431 
Q 506 3859 782 4092 
Q 1059 4325 1472 4325 
Q 1981 4325 2253 3994 
Q 2459 3747 2459 3466 
Q 2459 3003 1878 2509 
Q 2269 2356 2469 2072 
Q 2669 1788 2669 1403 
Q 2669 853 2319 450 
Q 1863 -75 997 -75 
Q 569 -75 414 31 
Q 259 138 259 259 
Q 259 350 332 419 
Q 406 488 509 488 
Q 588 488 669 463 
Q 722 447 909 348 
Q 1097 250 1169 231 
Q 1284 197 1416 197 
Q 1734 197 1970 444 
Q 2206 691 2206 1028 
Q 2206 1275 2097 1509 
Q 2016 1684 1919 1775 
Q 1784 1900 1550 2001 
Q 1316 2103 1072 2103 
L 972 2103 
L 972 2197 
Q 1219 2228 1467 2375 
Q 1716 2522 1828 2728 
Q 1941 2934 1941 3181 
Q 1941 3503 1739 3701 
Q 1538 3900 1238 3900 
Q 753 3900 428 3381 
L 325 3431 
z
" transform="scale(0.015625)"/>
       </defs>
       <use xlink:href="#TimesNewRomanPSMT-33"/>
      </g>
     </g>
    </g>
    <g id="xtick_4">
     <g id="line2d_4">
      <g>
       <use xlink:href="#m1a785256b9" x="293.110536" y="497.225614" style="stroke: #000000; stroke-width: 0.8"/>
      </g>
     </g>
     <g id="text_4">
      <!-- 4 -->
      <g transform="translate(286.860536 521.584989)scale(0.25 -0.25)">
       <defs>
        <path id="TimesNewRomanPSMT-34" d="M 2978 1563 
L 2978 1119 
L 2409 1119 
L 2409 0 
L 1894 0 
L 1894 1119 
L 100 1119 
L 100 1519 
L 2066 4325 
L 2409 4325 
L 2409 1563 
L 2978 1563 
z
M 1894 1563 
L 1894 3666 
L 406 1563 
L 1894 1563 
z
" transform="scale(0.015625)"/>
       </defs>
       <use xlink:href="#TimesNewRomanPSMT-34"/>
      </g>
     </g>
    </g>
    <g id="xtick_5">
     <g id="line2d_5">
      <g>
       <use xlink:href="#m1a785256b9" x="348.13673" y="497.225614" style="stroke: #000000; stroke-width: 0.8"/>
      </g>
     </g>
     <g id="text_5">
      <!-- 5 -->
      <g transform="translate(341.88673 521.584989)scale(0.25 -0.25)">
       <defs>
        <path id="TimesNewRomanPSMT-35" d="M 2778 4238 
L 2534 3706 
L 1259 3706 
L 981 3138 
Q 1809 3016 2294 2522 
Q 2709 2097 2709 1522 
Q 2709 1188 2573 903 
Q 2438 619 2231 419 
Q 2025 219 1772 97 
Q 1413 -75 1034 -75 
Q 653 -75 479 54 
Q 306 184 306 341 
Q 306 428 378 495 
Q 450 563 559 563 
Q 641 563 702 538 
Q 763 513 909 409 
Q 1144 247 1384 247 
Q 1750 247 2026 523 
Q 2303 800 2303 1197 
Q 2303 1581 2056 1914 
Q 1809 2247 1375 2428 
Q 1034 2569 447 2591 
L 1259 4238 
L 2778 4238 
z
" transform="scale(0.015625)"/>
       </defs>
       <use xlink:href="#TimesNewRomanPSMT-35"/>
      </g>
     </g>
    </g>
    <g id="xtick_6">
     <g id="line2d_6">
      <g>
       <use xlink:href="#m1a785256b9" x="403.162924" y="497.225614" style="stroke: #000000; stroke-width: 0.8"/>
      </g>
     </g>
     <g id="text_6">
      <!-- 6 -->
      <g transform="translate(396.912924 521.584989)scale(0.25 -0.25)">
       <defs>
        <path id="TimesNewRomanPSMT-36" d="M 2869 4325 
L 2869 4209 
Q 2456 4169 2195 4045 
Q 1934 3922 1679 3669 
Q 1425 3416 1258 3105 
Q 1091 2794 978 2366 
Q 1428 2675 1881 2675 
Q 2316 2675 2634 2325 
Q 2953 1975 2953 1425 
Q 2953 894 2631 456 
Q 2244 -75 1606 -75 
Q 1172 -75 869 213 
Q 275 772 275 1663 
Q 275 2231 503 2743 
Q 731 3256 1154 3653 
Q 1578 4050 1965 4187 
Q 2353 4325 2688 4325 
L 2869 4325 
z
M 925 2138 
Q 869 1716 869 1456 
Q 869 1156 980 804 
Q 1091 453 1309 247 
Q 1469 100 1697 100 
Q 1969 100 2183 356 
Q 2397 613 2397 1088 
Q 2397 1622 2184 2012 
Q 1972 2403 1581 2403 
Q 1463 2403 1327 2353 
Q 1191 2303 925 2138 
z
" transform="scale(0.015625)"/>
       </defs>
       <use xlink:href="#TimesNewRomanPSMT-36"/>
      </g>
     </g>
    </g>
    <g id="xtick_7">
     <g id="line2d_7">
      <g>
       <use xlink:href="#m1a785256b9" x="458.189118" y="497.225614" style="stroke: #000000; stroke-width: 0.8"/>
      </g>
     </g>
     <g id="text_7">
      <!-- 7 -->
      <g transform="translate(451.939118 521.584989)scale(0.25 -0.25)">
       <defs>
        <path id="TimesNewRomanPSMT-37" d="M 644 4238 
L 2916 4238 
L 2916 4119 
L 1503 -88 
L 1153 -88 
L 2419 3728 
L 1253 3728 
Q 900 3728 750 3644 
Q 488 3500 328 3200 
L 238 3234 
L 644 4238 
z
" transform="scale(0.015625)"/>
       </defs>
       <use xlink:href="#TimesNewRomanPSMT-37"/>
      </g>
     </g>
    </g>
    <g id="xtick_8">
     <g id="line2d_8">
      <g>
       <use xlink:href="#m1a785256b9" x="513.215312" y="497.225614" style="stroke: #000000; stroke-width: 0.8"/>
      </g>
     </g>
     <g id="text_8">
      <!-- 8 -->
      <g transform="translate(506.965312 521.584989)scale(0.25 -0.25)">
       <defs>
        <path id="TimesNewRomanPSMT-38" d="M 1228 2134 
Q 725 2547 579 2797 
Q 434 3047 434 3316 
Q 434 3728 753 4026 
Q 1072 4325 1600 4325 
Q 2113 4325 2425 4047 
Q 2738 3769 2738 3413 
Q 2738 3175 2569 2928 
Q 2400 2681 1866 2347 
Q 2416 1922 2594 1678 
Q 2831 1359 2831 1006 
Q 2831 559 2490 242 
Q 2150 -75 1597 -75 
Q 994 -75 656 303 
Q 388 606 388 966 
Q 388 1247 577 1523 
Q 766 1800 1228 2134 
z
M 1719 2469 
Q 2094 2806 2194 3001 
Q 2294 3197 2294 3444 
Q 2294 3772 2109 3958 
Q 1925 4144 1606 4144 
Q 1288 4144 1088 3959 
Q 888 3775 888 3528 
Q 888 3366 970 3203 
Q 1053 3041 1206 2894 
L 1719 2469 
z
M 1375 2016 
Q 1116 1797 991 1539 
Q 866 1281 866 981 
Q 866 578 1086 336 
Q 1306 94 1647 94 
Q 1984 94 2187 284 
Q 2391 475 2391 747 
Q 2391 972 2272 1150 
Q 2050 1481 1375 2016 
z
" transform="scale(0.015625)"/>
       </defs>
       <use xlink:href="#TimesNewRomanPSMT-38"/>
      </g>
     </g>
    </g>
    <g id="xtick_9">
     <g id="line2d_9">
      <g>
       <use xlink:href="#m1a785256b9" x="568.241507" y="497.225614" style="stroke: #000000; stroke-width: 0.8"/>
      </g>
     </g>
     <g id="text_9">
      <!-- 9 -->
      <g transform="translate(561.991507 521.584989)scale(0.25 -0.25)">
       <defs>
        <path id="TimesNewRomanPSMT-39" d="M 338 -88 
L 338 28 
Q 744 34 1094 217 
Q 1444 400 1770 856 
Q 2097 1313 2225 1859 
Q 1734 1544 1338 1544 
Q 891 1544 572 1889 
Q 253 2234 253 2806 
Q 253 3363 572 3797 
Q 956 4325 1575 4325 
Q 2097 4325 2469 3894 
Q 2925 3359 2925 2575 
Q 2925 1869 2578 1258 
Q 2231 647 1613 244 
Q 1109 -88 516 -88 
L 338 -88 
z
M 2275 2091 
Q 2331 2497 2331 2741 
Q 2331 3044 2228 3395 
Q 2125 3747 1936 3934 
Q 1747 4122 1506 4122 
Q 1228 4122 1018 3872 
Q 809 3622 809 3128 
Q 809 2469 1088 2097 
Q 1291 1828 1588 1828 
Q 1731 1828 1928 1897 
Q 2125 1966 2275 2091 
z
" transform="scale(0.015625)"/>
       </defs>
       <use xlink:href="#TimesNewRomanPSMT-39"/>
      </g>
     </g>
    </g>
    <g id="xtick_10">
     <g id="line2d_10">
      <g>
       <use xlink:href="#m1a785256b9" x="623.267701" y="497.225614" style="stroke: #000000; stroke-width: 0.8"/>
      </g>
     </g>
     <g id="text_10">
      <!-- 10 -->
      <g transform="translate(610.767701 521.584989)scale(0.25 -0.25)">
       <defs>
        <path id="TimesNewRomanPSMT-30" d="M 231 2094 
Q 231 2819 450 3342 
Q 669 3866 1031 4122 
Q 1313 4325 1613 4325 
Q 2100 4325 2488 3828 
Q 2972 3213 2972 2159 
Q 2972 1422 2759 906 
Q 2547 391 2217 158 
Q 1888 -75 1581 -75 
Q 975 -75 572 641 
Q 231 1244 231 2094 
z
M 844 2016 
Q 844 1141 1059 588 
Q 1238 122 1591 122 
Q 1759 122 1940 273 
Q 2122 425 2216 781 
Q 2359 1319 2359 2297 
Q 2359 3022 2209 3506 
Q 2097 3866 1919 4016 
Q 1791 4119 1609 4119 
Q 1397 4119 1231 3928 
Q 1006 3669 925 3112 
Q 844 2556 844 2016 
z
" transform="scale(0.015625)"/>
       </defs>
       <use xlink:href="#TimesNewRomanPSMT-31"/>
       <use xlink:href="#TimesNewRomanPSMT-30" x="50"/>
      </g>
     </g>
    </g>
    <g id="xtick_11">
     <g id="line2d_11">
      <g>
       <use xlink:href="#m1a785256b9" x="678.293895" y="497.225614" style="stroke: #000000; stroke-width: 0.8"/>
      </g>
     </g>
     <g id="text_11">
      <!-- 11 -->
      <g transform="translate(666.262645 521.584989)scale(0.25 -0.25)">
       <use xlink:href="#TimesNewRomanPSMT-31"/>
       <use xlink:href="#TimesNewRomanPSMT-31" x="46.25"/>
      </g>
     </g>
    </g>
    <g id="xtick_12">
     <g id="line2d_12">
      <g>
       <use xlink:href="#m1a785256b9" x="733.320089" y="497.225614" style="stroke: #000000; stroke-width: 0.8"/>
      </g>
     </g>
     <g id="text_12">
      <!-- 12 -->
      <g transform="translate(720.820089 521.584989)scale(0.25 -0.25)">
       <use xlink:href="#TimesNewRomanPSMT-31"/>
       <use xlink:href="#TimesNewRomanPSMT-32" x="50"/>
      </g>
     </g>
    </g>
    <g id="xtick_13">
     <g id="line2d_13">
      <g>
       <use xlink:href="#m1a785256b9" x="788.346283" y="497.225614" style="stroke: #000000; stroke-width: 0.8"/>
      </g>
     </g>
     <g id="text_13">
      <!-- 13 -->
      <g transform="translate(775.846283 521.584989)scale(0.25 -0.25)">
       <use xlink:href="#TimesNewRomanPSMT-31"/>
       <use xlink:href="#TimesNewRomanPSMT-33" x="50"/>
      </g>
     </g>
    </g>
    <g id="xtick_14">
     <g id="line2d_14">
      <g>
       <use xlink:href="#m1a785256b9" x="843.372477" y="497.225614" style="stroke: #000000; stroke-width: 0.8"/>
      </g>
     </g>
     <g id="text_14">
      <!-- 14 -->
      <g transform="translate(830.872477 521.584989)scale(0.25 -0.25)">
       <use xlink:href="#TimesNewRomanPSMT-31"/>
       <use xlink:href="#TimesNewRomanPSMT-34" x="50"/>
      </g>
     </g>
    </g>
    <g id="xtick_15">
     <g id="line2d_15">
      <g>
       <use xlink:href="#m1a785256b9" x="898.398672" y="497.225614" style="stroke: #000000; stroke-width: 0.8"/>
      </g>
     </g>
     <g id="text_15">
      <!-- 15 -->
      <g transform="translate(885.898672 521.584989)scale(0.25 -0.25)">
       <use xlink:href="#TimesNewRomanPSMT-31"/>
       <use xlink:href="#TimesNewRomanPSMT-35" x="50"/>
      </g>
     </g>
    </g>
    <g id="text_16">
     <!-- Mode number -->
     <g transform="translate(439.92375 548.986396)scale(0.26 -0.26)">
      <defs>
       <path id="TimesNewRomanPSMT-4d" d="M 2619 0 
L 981 3566 
L 981 734 
Q 981 344 1066 247 
Q 1181 116 1431 116 
L 1581 116 
L 1581 0 
L 106 0 
L 106 116 
L 256 116 
Q 525 116 638 278 
Q 706 378 706 734 
L 706 3503 
Q 706 3784 644 3909 
Q 600 4000 483 4061 
Q 366 4122 106 4122 
L 106 4238 
L 1306 4238 
L 2844 922 
L 4356 4238 
L 5556 4238 
L 5556 4122 
L 5409 4122 
Q 5138 4122 5025 3959 
Q 4956 3859 4956 3503 
L 4956 734 
Q 4956 344 5044 247 
Q 5159 116 5409 116 
L 5556 116 
L 5556 0 
L 3756 0 
L 3756 116 
L 3906 116 
Q 4178 116 4288 278 
Q 4356 378 4356 734 
L 4356 3566 
L 2722 0 
L 2619 0 
z
" transform="scale(0.015625)"/>
       <path id="TimesNewRomanPSMT-6f" d="M 1600 2947 
Q 2250 2947 2644 2453 
Q 2978 2031 2978 1484 
Q 2978 1100 2793 706 
Q 2609 313 2286 112 
Q 1963 -88 1566 -88 
Q 919 -88 538 428 
Q 216 863 216 1403 
Q 216 1797 411 2186 
Q 606 2575 925 2761 
Q 1244 2947 1600 2947 
z
M 1503 2744 
Q 1338 2744 1170 2645 
Q 1003 2547 900 2300 
Q 797 2053 797 1666 
Q 797 1041 1045 587 
Q 1294 134 1700 134 
Q 2003 134 2200 384 
Q 2397 634 2397 1244 
Q 2397 2006 2069 2444 
Q 1847 2744 1503 2744 
z
" transform="scale(0.015625)"/>
       <path id="TimesNewRomanPSMT-64" d="M 2222 322 
Q 2013 103 1813 7 
Q 1613 -88 1381 -88 
Q 913 -88 563 304 
Q 213 697 213 1313 
Q 213 1928 600 2439 
Q 988 2950 1597 2950 
Q 1975 2950 2222 2709 
L 2222 3238 
Q 2222 3728 2198 3840 
Q 2175 3953 2125 3993 
Q 2075 4034 2000 4034 
Q 1919 4034 1784 3984 
L 1744 4094 
L 2597 4444 
L 2738 4444 
L 2738 1134 
Q 2738 631 2761 520 
Q 2784 409 2836 365 
Q 2888 322 2956 322 
Q 3041 322 3181 375 
L 3216 266 
L 2366 -88 
L 2222 -88 
L 2222 322 
z
M 2222 541 
L 2222 2016 
Q 2203 2228 2109 2403 
Q 2016 2578 1861 2667 
Q 1706 2756 1559 2756 
Q 1284 2756 1069 2509 
Q 784 2184 784 1559 
Q 784 928 1059 592 
Q 1334 256 1672 256 
Q 1956 256 2222 541 
z
" transform="scale(0.015625)"/>
       <path id="TimesNewRomanPSMT-65" d="M 681 1784 
Q 678 1147 991 784 
Q 1303 422 1725 422 
Q 2006 422 2214 576 
Q 2422 731 2563 1106 
L 2659 1044 
Q 2594 616 2278 264 
Q 1963 -88 1488 -88 
Q 972 -88 605 314 
Q 238 716 238 1394 
Q 238 2128 614 2539 
Q 991 2950 1559 2950 
Q 2041 2950 2350 2633 
Q 2659 2316 2659 1784 
L 681 1784 
z
M 681 1966 
L 2006 1966 
Q 1991 2241 1941 2353 
Q 1863 2528 1708 2628 
Q 1553 2728 1384 2728 
Q 1125 2728 920 2526 
Q 716 2325 681 1966 
z
" transform="scale(0.015625)"/>
       <path id="TimesNewRomanPSMT-20" transform="scale(0.015625)"/>
       <path id="TimesNewRomanPSMT-6e" d="M 1034 2341 
Q 1538 2947 1994 2947 
Q 2228 2947 2397 2830 
Q 2566 2713 2666 2444 
Q 2734 2256 2734 1869 
L 2734 647 
Q 2734 375 2778 278 
Q 2813 200 2889 156 
Q 2966 113 3172 113 
L 3172 0 
L 1756 0 
L 1756 113 
L 1816 113 
Q 2016 113 2095 173 
Q 2175 234 2206 353 
Q 2219 400 2219 647 
L 2219 1819 
Q 2219 2209 2117 2386 
Q 2016 2563 1775 2563 
Q 1403 2563 1034 2156 
L 1034 647 
Q 1034 356 1069 288 
Q 1113 197 1189 155 
Q 1266 113 1500 113 
L 1500 0 
L 84 0 
L 84 113 
L 147 113 
Q 366 113 442 223 
Q 519 334 519 647 
L 519 1709 
Q 519 2225 495 2337 
Q 472 2450 423 2490 
Q 375 2531 294 2531 
Q 206 2531 84 2484 
L 38 2597 
L 900 2947 
L 1034 2947 
L 1034 2341 
z
" transform="scale(0.015625)"/>
       <path id="TimesNewRomanPSMT-75" d="M 2709 2863 
L 2709 1128 
Q 2709 631 2732 520 
Q 2756 409 2807 365 
Q 2859 322 2928 322 
Q 3025 322 3147 375 
L 3191 266 
L 2334 -88 
L 2194 -88 
L 2194 519 
Q 1825 119 1631 15 
Q 1438 -88 1222 -88 
Q 981 -88 804 51 
Q 628 191 559 409 
Q 491 628 491 1028 
L 491 2306 
Q 491 2509 447 2587 
Q 403 2666 317 2708 
Q 231 2750 6 2747 
L 6 2863 
L 1009 2863 
L 1009 947 
Q 1009 547 1148 422 
Q 1288 297 1484 297 
Q 1619 297 1789 381 
Q 1959 466 2194 703 
L 2194 2325 
Q 2194 2569 2105 2655 
Q 2016 2741 1734 2747 
L 1734 2863 
L 2709 2863 
z
" transform="scale(0.015625)"/>
       <path id="TimesNewRomanPSMT-6d" d="M 1050 2338 
Q 1363 2650 1419 2697 
Q 1559 2816 1721 2881 
Q 1884 2947 2044 2947 
Q 2313 2947 2506 2790 
Q 2700 2634 2766 2338 
Q 3088 2713 3309 2830 
Q 3531 2947 3766 2947 
Q 3994 2947 4170 2830 
Q 4347 2713 4450 2447 
Q 4519 2266 4519 1878 
L 4519 647 
Q 4519 378 4559 278 
Q 4591 209 4675 161 
Q 4759 113 4950 113 
L 4950 0 
L 3538 0 
L 3538 113 
L 3597 113 
Q 3781 113 3884 184 
Q 3956 234 3988 344 
Q 4000 397 4000 647 
L 4000 1878 
Q 4000 2228 3916 2372 
Q 3794 2572 3525 2572 
Q 3359 2572 3192 2489 
Q 3025 2406 2788 2181 
L 2781 2147 
L 2788 2013 
L 2788 647 
Q 2788 353 2820 281 
Q 2853 209 2943 161 
Q 3034 113 3253 113 
L 3253 0 
L 1806 0 
L 1806 113 
Q 2044 113 2133 169 
Q 2222 225 2256 338 
Q 2272 391 2272 647 
L 2272 1878 
Q 2272 2228 2169 2381 
Q 2031 2581 1784 2581 
Q 1616 2581 1450 2491 
Q 1191 2353 1050 2181 
L 1050 647 
Q 1050 366 1089 281 
Q 1128 197 1204 155 
Q 1281 113 1516 113 
L 1516 0 
L 100 0 
L 100 113 
Q 297 113 375 155 
Q 453 197 493 289 
Q 534 381 534 647 
L 534 1741 
Q 534 2213 506 2350 
Q 484 2453 437 2492 
Q 391 2531 309 2531 
Q 222 2531 100 2484 
L 53 2597 
L 916 2947 
L 1050 2947 
L 1050 2338 
z
" transform="scale(0.015625)"/>
       <path id="TimesNewRomanPSMT-62" d="M 984 2369 
Q 1400 2947 1881 2947 
Q 2322 2947 2650 2570 
Q 2978 2194 2978 1541 
Q 2978 778 2472 313 
Q 2038 -88 1503 -88 
Q 1253 -88 995 3 
Q 738 94 469 275 
L 469 3241 
Q 469 3728 445 3840 
Q 422 3953 372 3993 
Q 322 4034 247 4034 
Q 159 4034 28 3984 
L -16 4094 
L 844 4444 
L 984 4444 
L 984 2369 
z
M 984 2169 
L 984 456 
Q 1144 300 1314 220 
Q 1484 141 1663 141 
Q 1947 141 2192 453 
Q 2438 766 2438 1363 
Q 2438 1913 2192 2208 
Q 1947 2503 1634 2503 
Q 1469 2503 1303 2419 
Q 1178 2356 984 2169 
z
" transform="scale(0.015625)"/>
       <path id="TimesNewRomanPSMT-72" d="M 1038 2947 
L 1038 2303 
Q 1397 2947 1775 2947 
Q 1947 2947 2059 2842 
Q 2172 2738 2172 2600 
Q 2172 2478 2090 2393 
Q 2009 2309 1897 2309 
Q 1788 2309 1652 2417 
Q 1516 2525 1450 2525 
Q 1394 2525 1328 2463 
Q 1188 2334 1038 2041 
L 1038 669 
Q 1038 431 1097 309 
Q 1138 225 1241 169 
Q 1344 113 1538 113 
L 1538 0 
L 72 0 
L 72 113 
Q 291 113 397 181 
Q 475 231 506 341 
Q 522 394 522 644 
L 522 1753 
Q 522 2253 501 2348 
Q 481 2444 426 2487 
Q 372 2531 291 2531 
Q 194 2531 72 2484 
L 41 2597 
L 906 2947 
L 1038 2947 
z
" transform="scale(0.015625)"/>
      </defs>
      <use xlink:href="#TimesNewRomanPSMT-4d"/>
      <use xlink:href="#TimesNewRomanPSMT-6f" x="88.916016"/>
      <use xlink:href="#TimesNewRomanPSMT-64" x="138.916016"/>
      <use xlink:href="#TimesNewRomanPSMT-65" x="188.916016"/>
      <use xlink:href="#TimesNewRomanPSMT-20" x="233.300781"/>
      <use xlink:href="#TimesNewRomanPSMT-6e" x="258.300781"/>
      <use xlink:href="#TimesNewRomanPSMT-75" x="308.300781"/>
      <use xlink:href="#TimesNewRomanPSMT-6d" x="358.300781"/>
      <use xlink:href="#TimesNewRomanPSMT-62" x="436.083984"/>
      <use xlink:href="#TimesNewRomanPSMT-65" x="486.083984"/>
      <use xlink:href="#TimesNewRomanPSMT-72" x="530.46875"/>
     </g>
    </g>
   </g>
   <g id="matplotlib.axis_2">
    <g id="ytick_1">
     <g id="line2d_16">
      <defs>
       <path id="m79bbb6a6cc" d="M 0 0 
L -3.5 0 
" style="stroke: #000000; stroke-width: 0.8"/>
      </defs>
      <g>
       <use xlink:href="#m79bbb6a6cc" x="66.815313" y="497.225614" style="stroke: #000000; stroke-width: 0.8"/>
      </g>
     </g>
     <g id="text_17">
      <!-- 0 -->
      <g transform="translate(47.315313 505.905302)scale(0.25 -0.25)">
       <use xlink:href="#TimesNewRomanPSMT-30"/>
      </g>
     </g>
    </g>
    <g id="ytick_2">
     <g id="line2d_17">
      <g>
       <use xlink:href="#m79bbb6a6cc" x="66.815313" y="400.956429" style="stroke: #000000; stroke-width: 0.8"/>
      </g>
     </g>
     <g id="text_18">
      <!-- 5 -->
      <g transform="translate(47.315313 409.636116)scale(0.25 -0.25)">
       <use xlink:href="#TimesNewRomanPSMT-35"/>
      </g>
     </g>
    </g>
    <g id="ytick_3">
     <g id="line2d_18">
      <g>
       <use xlink:href="#m79bbb6a6cc" x="66.815313" y="304.687244" style="stroke: #000000; stroke-width: 0.8"/>
      </g>
     </g>
     <g id="text_19">
      <!-- 10 -->
      <g transform="translate(34.815313 313.366931)scale(0.25 -0.25)">
       <use xlink:href="#TimesNewRomanPSMT-31"/>
       <use xlink:href="#TimesNewRomanPSMT-30" x="50"/>
      </g>
     </g>
    </g>
    <g id="ytick_4">
     <g id="line2d_19">
      <g>
       <use xlink:href="#m79bbb6a6cc" x="66.815313" y="208.418058" style="stroke: #000000; stroke-width: 0.8"/>
      </g>
     </g>
     <g id="text_20">
      <!-- 15 -->
      <g transform="translate(34.815313 217.097746)scale(0.25 -0.25)">
       <use xlink:href="#TimesNewRomanPSMT-31"/>
       <use xlink:href="#TimesNewRomanPSMT-35" x="50"/>
      </g>
     </g>
    </g>
    <g id="ytick_5">
     <g id="line2d_20">
      <g>
       <use xlink:href="#m79bbb6a6cc" x="66.815313" y="112.148873" style="stroke: #000000; stroke-width: 0.8"/>
      </g>
     </g>
     <g id="text_21">
      <!-- 20 -->
      <g transform="translate(34.815313 120.82856)scale(0.25 -0.25)">
       <use xlink:href="#TimesNewRomanPSMT-32"/>
       <use xlink:href="#TimesNewRomanPSMT-30" x="50"/>
      </g>
     </g>
    </g>
    <g id="ytick_6">
     <g id="line2d_21">
      <g>
       <use xlink:href="#m79bbb6a6cc" x="66.815313" y="15.879687" style="stroke: #000000; stroke-width: 0.8"/>
      </g>
     </g>
     <g id="text_22">
      <!-- 25 -->
      <g transform="translate(34.815313 24.559375)scale(0.25 -0.25)">
       <use xlink:href="#TimesNewRomanPSMT-32"/>
       <use xlink:href="#TimesNewRomanPSMT-35" x="50"/>
      </g>
     </g>
    </g>
    <g id="text_23">
     <!-- Reduction in error [%] -->
     <g transform="translate(25.25375 370.645614)rotate(-90)scale(0.26 -0.26)">
      <defs>
       <path id="TimesNewRomanPSMT-52" d="M 4325 0 
L 3194 0 
L 1759 1981 
Q 1600 1975 1500 1975 
Q 1459 1975 1412 1976 
Q 1366 1978 1316 1981 
L 1316 750 
Q 1316 350 1403 253 
Q 1522 116 1759 116 
L 1925 116 
L 1925 0 
L 109 0 
L 109 116 
L 269 116 
Q 538 116 653 291 
Q 719 388 719 750 
L 719 3488 
Q 719 3888 631 3984 
Q 509 4122 269 4122 
L 109 4122 
L 109 4238 
L 1653 4238 
Q 2328 4238 2648 4139 
Q 2969 4041 3192 3777 
Q 3416 3513 3416 3147 
Q 3416 2756 3161 2468 
Q 2906 2181 2372 2063 
L 3247 847 
Q 3547 428 3762 290 
Q 3978 153 4325 116 
L 4325 0 
z
M 1316 2178 
Q 1375 2178 1419 2176 
Q 1463 2175 1491 2175 
Q 2097 2175 2405 2437 
Q 2713 2700 2713 3106 
Q 2713 3503 2464 3751 
Q 2216 4000 1806 4000 
Q 1625 4000 1316 3941 
L 1316 2178 
z
" transform="scale(0.015625)"/>
       <path id="TimesNewRomanPSMT-63" d="M 2631 1088 
Q 2516 522 2178 217 
Q 1841 -88 1431 -88 
Q 944 -88 581 321 
Q 219 731 219 1428 
Q 219 2103 620 2525 
Q 1022 2947 1584 2947 
Q 2006 2947 2278 2723 
Q 2550 2500 2550 2259 
Q 2550 2141 2473 2067 
Q 2397 1994 2259 1994 
Q 2075 1994 1981 2113 
Q 1928 2178 1911 2362 
Q 1894 2547 1784 2644 
Q 1675 2738 1481 2738 
Q 1169 2738 978 2506 
Q 725 2200 725 1697 
Q 725 1184 976 792 
Q 1228 400 1656 400 
Q 1963 400 2206 609 
Q 2378 753 2541 1131 
L 2631 1088 
z
" transform="scale(0.015625)"/>
       <path id="TimesNewRomanPSMT-74" d="M 1031 3803 
L 1031 2863 
L 1700 2863 
L 1700 2644 
L 1031 2644 
L 1031 788 
Q 1031 509 1111 412 
Q 1191 316 1316 316 
Q 1419 316 1516 380 
Q 1613 444 1666 569 
L 1788 569 
Q 1678 263 1478 108 
Q 1278 -47 1066 -47 
Q 922 -47 784 33 
Q 647 113 581 261 
Q 516 409 516 719 
L 516 2644 
L 63 2644 
L 63 2747 
Q 234 2816 414 2980 
Q 594 3144 734 3369 
Q 806 3488 934 3803 
L 1031 3803 
z
" transform="scale(0.015625)"/>
       <path id="TimesNewRomanPSMT-69" d="M 928 4444 
Q 1059 4444 1151 4351 
Q 1244 4259 1244 4128 
Q 1244 3997 1151 3903 
Q 1059 3809 928 3809 
Q 797 3809 703 3903 
Q 609 3997 609 4128 
Q 609 4259 701 4351 
Q 794 4444 928 4444 
z
M 1188 2947 
L 1188 647 
Q 1188 378 1227 289 
Q 1266 200 1342 156 
Q 1419 113 1622 113 
L 1622 0 
L 231 0 
L 231 113 
Q 441 113 512 153 
Q 584 194 626 287 
Q 669 381 669 647 
L 669 1750 
Q 669 2216 641 2353 
Q 619 2453 572 2492 
Q 525 2531 444 2531 
Q 356 2531 231 2484 
L 188 2597 
L 1050 2947 
L 1188 2947 
z
" transform="scale(0.015625)"/>
       <path id="TimesNewRomanPSMT-5b" d="M 1900 -1269 
L 525 -1269 
L 525 4334 
L 1900 4334 
L 1900 4088 
L 994 4088 
L 994 -1025 
L 1900 -1025 
L 1900 -1269 
z
" transform="scale(0.015625)"/>
       <path id="TimesNewRomanPSMT-25" d="M 4350 4334 
L 1263 -175 
L 984 -175 
L 4072 4334 
L 4350 4334 
z
M 1138 4334 
Q 1559 4334 1792 3984 
Q 2025 3634 2025 3181 
Q 2025 2638 1762 2341 
Q 1500 2044 1131 2044 
Q 884 2044 678 2180 
Q 472 2316 348 2584 
Q 225 2853 225 3181 
Q 225 3509 350 3786 
Q 475 4063 692 4198 
Q 909 4334 1138 4334 
z
M 1128 4159 
Q 969 4159 845 3971 
Q 722 3784 722 3184 
Q 722 2750 791 2522 
Q 844 2350 956 2256 
Q 1022 2200 1119 2200 
Q 1269 2200 1375 2363 
Q 1531 2603 1531 3166 
Q 1531 3759 1378 4000 
Q 1278 4159 1128 4159 
z
M 4206 2103 
Q 4428 2103 4648 1962 
Q 4869 1822 4989 1553 
Q 5109 1284 5109 963 
Q 5109 409 4843 117 
Q 4578 -175 4216 -175 
Q 3988 -175 3773 -34 
Q 3559 106 3436 367 
Q 3313 628 3313 963 
Q 3313 1291 3436 1562 
Q 3559 1834 3773 1968 
Q 3988 2103 4206 2103 
z
M 4209 1938 
Q 4059 1938 3950 1769 
Q 3809 1550 3809 941 
Q 3809 381 3953 159 
Q 4059 0 4209 0 
Q 4353 0 4466 172 
Q 4616 400 4616 956 
Q 4616 1544 4466 1778 
Q 4363 1938 4209 1938 
z
" transform="scale(0.015625)"/>
       <path id="TimesNewRomanPSMT-5d" d="M 234 4334 
L 1609 4334 
L 1609 -1272 
L 234 -1272 
L 234 -1025 
L 1141 -1025 
L 1141 4088 
L 234 4088 
L 234 4334 
z
" transform="scale(0.015625)"/>
      </defs>
      <use xlink:href="#TimesNewRomanPSMT-52"/>
      <use xlink:href="#TimesNewRomanPSMT-65" x="66.699219"/>
      <use xlink:href="#TimesNewRomanPSMT-64" x="111.083984"/>
      <use xlink:href="#TimesNewRomanPSMT-75" x="161.083984"/>
      <use xlink:href="#TimesNewRomanPSMT-63" x="211.083984"/>
      <use xlink:href="#TimesNewRomanPSMT-74" x="255.46875"/>
      <use xlink:href="#TimesNewRomanPSMT-69" x="283.251953"/>
      <use xlink:href="#TimesNewRomanPSMT-6f" x="311.035156"/>
      <use xlink:href="#TimesNewRomanPSMT-6e" x="361.035156"/>
      <use xlink:href="#TimesNewRomanPSMT-20" x="411.035156"/>
      <use xlink:href="#TimesNewRomanPSMT-69" x="436.035156"/>
      <use xlink:href="#TimesNewRomanPSMT-6e" x="463.818359"/>
      <use xlink:href="#TimesNewRomanPSMT-20" x="513.818359"/>
      <use xlink:href="#TimesNewRomanPSMT-65" x="538.818359"/>
      <use xlink:href="#TimesNewRomanPSMT-72" x="583.203125"/>
      <use xlink:href="#TimesNewRomanPSMT-72" x="616.503906"/>
      <use xlink:href="#TimesNewRomanPSMT-6f" x="649.804688"/>
      <use xlink:href="#TimesNewRomanPSMT-72" x="699.804688"/>
      <use xlink:href="#TimesNewRomanPSMT-20" x="733.105469"/>
      <use xlink:href="#TimesNewRomanPSMT-5b" x="758.105469"/>
      <use xlink:href="#TimesNewRomanPSMT-25" x="791.40625"/>
      <use xlink:href="#TimesNewRomanPSMT-5d" x="874.707031"/>
     </g>
    </g>
   </g>
   <g id="patch_48">
    <path d="M 66.815313 497.225614 
L 66.815313 7.985614 
" style="fill: none; stroke: #000000; stroke-width: 0.8; stroke-linejoin: miter; stroke-linecap: square"/>
   </g>
   <g id="patch_49">
    <path d="M 66.815313 497.225614 
L 959.615313 497.225614 
" style="fill: none; stroke: #000000; stroke-width: 0.8; stroke-linejoin: miter; stroke-linecap: square"/>
   </g>
   <g id="legend_1">
    <g id="patch_50">
     <path d="M 86.615313 43.185614 
L 130.615313 43.185614 
L 130.615313 27.785614 
L 86.615313 27.785614 
z
" style="fill: #1f77b4"/>
    </g>
    <g id="text_24">
     <!-- No load -->
     <g transform="translate(148.215313 43.185614)scale(0.22 -0.22)">
      <defs>
       <path id="TimesNewRomanPSMT-4e" d="M -84 4238 
L 1066 4238 
L 3656 1059 
L 3656 3503 
Q 3656 3894 3569 3991 
Q 3453 4122 3203 4122 
L 3056 4122 
L 3056 4238 
L 4531 4238 
L 4531 4122 
L 4381 4122 
Q 4113 4122 4000 3959 
Q 3931 3859 3931 3503 
L 3931 -69 
L 3819 -69 
L 1025 3344 
L 1025 734 
Q 1025 344 1109 247 
Q 1228 116 1475 116 
L 1625 116 
L 1625 0 
L 150 0 
L 150 116 
L 297 116 
Q 569 116 681 278 
Q 750 378 750 734 
L 750 3681 
Q 566 3897 470 3965 
Q 375 4034 191 4094 
Q 100 4122 -84 4122 
L -84 4238 
z
" transform="scale(0.015625)"/>
       <path id="TimesNewRomanPSMT-6c" d="M 1184 4444 
L 1184 647 
Q 1184 378 1223 290 
Q 1263 203 1344 158 
Q 1425 113 1647 113 
L 1647 0 
L 244 0 
L 244 113 
Q 441 113 512 153 
Q 584 194 625 287 
Q 666 381 666 647 
L 666 3247 
Q 666 3731 644 3842 
Q 622 3953 573 3993 
Q 525 4034 450 4034 
Q 369 4034 244 3984 
L 191 4094 
L 1044 4444 
L 1184 4444 
z
" transform="scale(0.015625)"/>
       <path id="TimesNewRomanPSMT-61" d="M 1822 413 
Q 1381 72 1269 19 
Q 1100 -59 909 -59 
Q 613 -59 420 144 
Q 228 347 228 678 
Q 228 888 322 1041 
Q 450 1253 767 1440 
Q 1084 1628 1822 1897 
L 1822 2009 
Q 1822 2438 1686 2597 
Q 1550 2756 1291 2756 
Q 1094 2756 978 2650 
Q 859 2544 859 2406 
L 866 2225 
Q 866 2081 792 2003 
Q 719 1925 600 1925 
Q 484 1925 411 2006 
Q 338 2088 338 2228 
Q 338 2497 613 2722 
Q 888 2947 1384 2947 
Q 1766 2947 2009 2819 
Q 2194 2722 2281 2516 
Q 2338 2381 2338 1966 
L 2338 994 
Q 2338 584 2353 492 
Q 2369 400 2405 369 
Q 2441 338 2488 338 
Q 2538 338 2575 359 
Q 2641 400 2828 588 
L 2828 413 
Q 2478 -56 2159 -56 
Q 2006 -56 1915 50 
Q 1825 156 1822 413 
z
M 1822 616 
L 1822 1706 
Q 1350 1519 1213 1441 
Q 966 1303 859 1153 
Q 753 1003 753 825 
Q 753 600 887 451 
Q 1022 303 1197 303 
Q 1434 303 1822 616 
z
" transform="scale(0.015625)"/>
      </defs>
      <use xlink:href="#TimesNewRomanPSMT-4e"/>
      <use xlink:href="#TimesNewRomanPSMT-6f" x="72.216797"/>
      <use xlink:href="#TimesNewRomanPSMT-20" x="122.216797"/>
      <use xlink:href="#TimesNewRomanPSMT-6c" x="147.216797"/>
      <use xlink:href="#TimesNewRomanPSMT-6f" x="175"/>
      <use xlink:href="#TimesNewRomanPSMT-61" x="225"/>
      <use xlink:href="#TimesNewRomanPSMT-64" x="269.384766"/>
     </g>
    </g>
    <g id="patch_51">
     <path d="M 86.615313 74.291552 
L 130.615313 74.291552 
L 130.615313 58.891552 
L 86.615313 58.891552 
z
" style="fill: #ff7f0e"/>
    </g>
    <g id="text_25">
     <!-- - 1 g load -->
     <g transform="translate(148.215313 74.291552)scale(0.22 -0.22)">
      <defs>
       <path id="TimesNewRomanPSMT-2d" d="M 259 1672 
L 1875 1672 
L 1875 1200 
L 259 1200 
L 259 1672 
z
" transform="scale(0.015625)"/>
       <path id="TimesNewRomanPSMT-67" d="M 966 1044 
Q 703 1172 562 1401 
Q 422 1631 422 1909 
Q 422 2334 742 2640 
Q 1063 2947 1563 2947 
Q 1972 2947 2272 2747 
L 2878 2747 
Q 3013 2747 3034 2739 
Q 3056 2731 3066 2713 
Q 3084 2684 3084 2613 
Q 3084 2531 3069 2500 
Q 3059 2484 3036 2475 
Q 3013 2466 2878 2466 
L 2506 2466 
Q 2681 2241 2681 1891 
Q 2681 1491 2375 1206 
Q 2069 922 1553 922 
Q 1341 922 1119 984 
Q 981 866 932 777 
Q 884 688 884 625 
Q 884 572 936 522 
Q 988 472 1138 450 
Q 1225 438 1575 428 
Q 2219 413 2409 384 
Q 2700 344 2873 169 
Q 3047 -6 3047 -263 
Q 3047 -616 2716 -925 
Q 2228 -1381 1444 -1381 
Q 841 -1381 425 -1109 
Q 191 -953 191 -784 
Q 191 -709 225 -634 
Q 278 -519 444 -313 
Q 466 -284 763 25 
Q 600 122 533 198 
Q 466 275 466 372 
Q 466 481 555 628 
Q 644 775 966 1044 
z
M 1509 2797 
Q 1278 2797 1122 2612 
Q 966 2428 966 2047 
Q 966 1553 1178 1281 
Q 1341 1075 1591 1075 
Q 1828 1075 1981 1253 
Q 2134 1431 2134 1813 
Q 2134 2309 1919 2591 
Q 1759 2797 1509 2797 
z
M 934 0 
Q 788 -159 713 -296 
Q 638 -434 638 -550 
Q 638 -700 819 -813 
Q 1131 -1006 1722 -1006 
Q 2284 -1006 2551 -807 
Q 2819 -609 2819 -384 
Q 2819 -222 2659 -153 
Q 2497 -84 2016 -72 
Q 1313 -53 934 0 
z
" transform="scale(0.015625)"/>
      </defs>
      <use xlink:href="#TimesNewRomanPSMT-2d"/>
      <use xlink:href="#TimesNewRomanPSMT-20" x="33.300781"/>
      <use xlink:href="#TimesNewRomanPSMT-31" x="58.300781"/>
      <use xlink:href="#TimesNewRomanPSMT-20" x="108.300781"/>
      <use xlink:href="#TimesNewRomanPSMT-67" x="133.300781"/>
      <use xlink:href="#TimesNewRomanPSMT-20" x="183.300781"/>
      <use xlink:href="#TimesNewRomanPSMT-6c" x="208.300781"/>
      <use xlink:href="#TimesNewRomanPSMT-6f" x="236.083984"/>
      <use xlink:href="#TimesNewRomanPSMT-61" x="286.083984"/>
      <use xlink:href="#TimesNewRomanPSMT-64" x="330.46875"/>
     </g>
    </g>
    <g id="patch_52">
     <path d="M 86.615313 105.438739 
L 130.615313 105.438739 
L 130.615313 90.038739 
L 86.615313 90.038739 
z
" style="fill: #2ca02c"/>
    </g>
    <g id="text_26">
     <!-- 2.5 g load -->
     <g transform="translate(148.215313 105.438739)scale(0.22 -0.22)">
      <defs>
       <path id="TimesNewRomanPSMT-2e" d="M 800 606 
Q 947 606 1047 504 
Q 1147 403 1147 259 
Q 1147 116 1045 14 
Q 944 -88 800 -88 
Q 656 -88 554 14 
Q 453 116 453 259 
Q 453 406 554 506 
Q 656 606 800 606 
z
" transform="scale(0.015625)"/>
      </defs>
      <use xlink:href="#TimesNewRomanPSMT-32"/>
      <use xlink:href="#TimesNewRomanPSMT-2e" x="50"/>
      <use xlink:href="#TimesNewRomanPSMT-35" x="75"/>
      <use xlink:href="#TimesNewRomanPSMT-20" x="125"/>
      <use xlink:href="#TimesNewRomanPSMT-67" x="150"/>
      <use xlink:href="#TimesNewRomanPSMT-20" x="200"/>
      <use xlink:href="#TimesNewRomanPSMT-6c" x="225"/>
      <use xlink:href="#TimesNewRomanPSMT-6f" x="252.783203"/>
      <use xlink:href="#TimesNewRomanPSMT-61" x="302.783203"/>
      <use xlink:href="#TimesNewRomanPSMT-64" x="347.167969"/>
     </g>
    </g>
   </g>
  </g>
 </g>
 <defs>
  <clipPath id="p2e54e69a75">
   <rect x="66.815313" y="7.985614" width="892.8" height="489.24"/>
  </clipPath>
 </defs>
</svg>
