<svg width="720" height="720" xmlns="http://www.w3.org/2000/svg" xmlns:xlink="http://www.w3.org/1999/xlink" overflow="hidden"><defs><clipPath id="clip0"><rect x="0" y="0" width="720" height="720"/></clipPath></defs><g clip-path="url(#clip0)"><rect x="0" y="0" width="720" height="720" fill="#FFFFFF"/><path d="M237.5 73.5001C237.5 63.5589 245.559 55.5001 255.5 55.5001L291.5 55.5001C301.441 55.5001 309.5 63.5589 309.5 73.5001L309.5 73.5001C309.5 83.4412 301.441 91.5 291.5 91.5L255.5 91.5C245.559 91.5 237.5 83.4412 237.5 73.5001Z" stroke="#4472C4" stroke-width="2.66667" stroke-miterlimit="8" fill="#F8CBAD" fill-rule="evenodd"/><text font-family="Arial,Arial_MSFontService,sans-serif" font-weight="400" font-size="16" transform="translate(256.315 80)">Start</text><path d="M212.5 149.5C212.5 145.082 216.082 141.5 220.5 141.5L326.5 141.5C330.918 141.5 334.5 145.082 334.5 149.5L334.5 181.5C334.5 185.918 330.918 189.5 326.5 189.5L220.5 189.5C216.082 189.5 212.5 185.918 212.5 181.5Z" stroke="#000000" stroke-width="2.66667" stroke-miterlimit="8" fill="#FFFFFF" fill-rule="evenodd"/><text font-family="Arial,Arial_MSFontService,sans-serif" font-weight="400" font-size="16" transform="translate(235.481 171)">Initial FEM</text><path d="M274.833 91.5 274.834 134.782 272.167 134.782 272.167 91.5001ZM277.5 133.449 273.5 141.449 269.5 133.449Z"/><path d="M158.5 541.5 273.5 494.5 388.5 541.5 273.5 588.5Z" stroke="#000000" stroke-width="2.66667" stroke-miterlimit="8" fill="#FFFFFF" fill-rule="evenodd"/><text font-family="Arial,Arial_MSFontService,sans-serif" font-weight="400" font-size="16" transform="translate(225.508 547)">Convergence</text><path d="M237.5 651.5C237.5 641.559 245.559 633.5 255.5 633.5L291.5 633.5C301.441 633.5 309.5 641.559 309.5 651.5L309.5 651.5C309.5 661.441 301.441 669.5 291.5 669.5L255.5 669.5C245.559 669.5 237.5 661.441 237.5 651.5Z" stroke="#4472C4" stroke-width="2.66667" stroke-miterlimit="8" fill="#F8CBAD" fill-rule="evenodd"/><text font-family="Arial,Arial_MSFontService,sans-serif" font-weight="400" font-size="16" transform="translate(258.675 657)">End</text><path d="M274.833 465.5 274.833 487.326 272.167 487.326 272.167 465.5ZM277.5 485.993 273.5 493.993 269.5 485.993Z"/><path d="M411.5 145.5C411.5 139.977 415.977 135.5 421.5 135.5L593.5 135.5C599.023 135.5 603.5 139.977 603.5 145.5L603.5 185.5C603.5 191.023 599.023 195.5 593.5 195.5L421.5 195.5C415.977 195.5 411.5 191.023 411.5 185.5Z" stroke="#000000" stroke-width="2.66667" stroke-miterlimit="8" fill="#FFFFFF" fill-rule="evenodd"/><text font-family="Arial,Arial_MSFontService,sans-serif" font-weight="400" font-size="15" transform="translate(427.598 161)">GVT data: mode shapes <tspan font-size="15" x="27.2467" y="18">and frequencies</tspan></text><path d="M177.5 250.5C177.5 242.768 183.768 236.5 191.5 236.5L355.5 236.5C363.232 236.5 369.5 242.768 369.5 250.5L369.5 306.5C369.5 314.232 363.232 320.5 355.5 320.5L191.5 320.5C183.768 320.5 177.5 314.232 177.5 306.5Z" stroke="#000000" stroke-width="2.66667" stroke-miterlimit="8" fill="#FFFFFF" fill-rule="evenodd"/><text font-family="Arial,Arial_MSFontService,sans-serif" font-weight="400" font-size="15" transform="translate(199.147 257)">Match frequencies and <tspan font-size="15" x="1.16667" y="18">mass properties, while </tspan><tspan font-size="15" x="-5.66666" y="35">satisfying MAC for mode </tspan><tspan font-size="15" x="50.4133" y="53">shapes</tspan></text><path d="M158.5 383C158.5 373.887 165.887 366.5 175 366.5L372 366.5C381.113 366.5 388.5 373.887 388.5 383L388.5 449C388.5 458.113 381.113 465.5 372 465.5L175 465.5C165.887 465.5 158.5 458.113 158.5 449Z" stroke="#000000" stroke-width="2.66667" stroke-miterlimit="8" fill="#FFFFFF" fill-rule="evenodd"/><text font-family="Arial,Arial_MSFontService,sans-serif" font-weight="400" font-size="15" transform="translate(176.341 395)">Check mass, frequencies and <tspan font-size="15" x="3.75334" y="18">mode shapes of the updated </tspan><tspan font-size="15" x="4.83334" y="35">numerical model against the </tspan><tspan font-size="15" x="30.92" y="53">experimental results</tspan></text><path d="M1.33329-0.0111278 1.66788 40.0789-0.99869 40.1012-1.33329 0.0111278ZM4.32333 38.7234 0.390236 46.7565-3.67639 38.7902Z" transform="matrix(-1 0 0 1 273.89 320.5)"/><path d="M1.33333-6.30931e-06 1.33351 37.7067-1.33315 37.7067-1.33333 6.30931e-06ZM4.00017 36.3733 0.000209974 44.3733-3.99983 36.3734Z" transform="matrix(-1 0 0 1 273.5 588.5)"/><text fill="#548235" font-family="Calibri,Calibri_MSFontService,sans-serif" font-weight="400" font-size="24" transform="translate(314.3 618)">YES</text><path d="M0 1.33333-24.0002 1.33333-22.6669 0-22.6669 376.016-24.0002 374.683 47.5182 374.683 47.5182 377.35-25.3336 377.35-25.3336-1.33333 0-1.33333ZM46.1848 372.016 54.1848 376.016 46.1848 380.016Z" transform="matrix(1 -1.22465e-16 -1.22465e-16 -1 158.5 541.516)"/><path d="M1.33333-5.98772e-06 1.33351 40.0899-1.33315 40.0899-1.33333 5.98772e-06ZM4.00017 38.7565 0.000209974 46.7565-3.99983 38.7566Z" transform="matrix(-1 0 0 1 273.5 189.5)"/><path d="M1.82051e-06-1.33333 70.2254-1.33324 70.2254 1.33343-1.82051e-06 1.33333ZM68.8921-3.99991 76.8921 0.000104987 68.8921 4.00009Z" transform="matrix(-1 0 0 1 411.392 165.5)"/><text fill="#FF0000" font-family="Calibri,Calibri_MSFontService,sans-serif" font-weight="400" font-size="24" transform="translate(87.8049 555)">NO</text><rect x="441.5" y="483.5" width="229" height="124" stroke="#2F528F" stroke-width="1.33333" stroke-miterlimit="8" fill="none"/><text font-family="Arial,Arial_MSFontService,sans-serif" font-weight="400" font-size="16" transform="translate(450.337 513)">Termination criteria:<tspan font-size="16" x="0" y="19">1.</tspan><tspan font-size="16" x="36" y="19">Maximum number of </tspan><tspan font-size="16" x="36" y="38">iterations exceeded.</tspan><tspan font-size="16" x="0" y="57">2.</tspan><tspan font-size="16" x="36" y="57">Acceptable match found </tspan><tspan font-size="16" x="36" y="76">within tolerance</tspan></text></g></svg>