<svg width="720" height="720" xmlns="http://www.w3.org/2000/svg" xmlns:xlink="http://www.w3.org/1999/xlink" overflow="hidden"><defs><clipPath id="clip0"><rect x="0" y="0" width="720" height="720"/></clipPath></defs><g clip-path="url(#clip0)"><rect x="0" y="0" width="720" height="720" fill="#FFFFFF"/><path d="M6.50005 56.5001C6.50005 46.5589 14.5589 38.5001 24.5 38.5001L60.5 38.5001C70.4412 38.5001 78.5 46.5589 78.5 56.5001L78.5 56.5001C78.5 66.4412 70.4412 74.5 60.5 74.5L24.5 74.5C14.5589 74.5 6.50005 66.4412 6.50005 56.5001Z" stroke="#4472C4" stroke-width="2.66667" stroke-miterlimit="8" fill="#F8CBAD" fill-rule="evenodd"/><text font-family="Arial,Arial_MSFontService,sans-serif" font-weight="400" font-size="15" transform="translate(26.4736 61)">Start</text><path d="M114.5 40.5003C114.5 36.0819 118.082 32.5001 122.5 32.5001L228.5 32.5001C232.918 32.5001 236.5 36.0819 236.5 40.5003L236.5 72.4998C236.5 76.9182 232.918 80.5 228.5 80.5L122.5 80.5C118.082 80.5 114.5 76.9182 114.5 72.4998Z" stroke="#000000" stroke-width="2.66667" stroke-miterlimit="8" fill="#FFFFFF" fill-rule="evenodd"/><text font-family="Arial,Arial_MSFontService,sans-serif" font-weight="400" font-size="15" transform="translate(140.95 52)">Reference <tspan font-size="15" x="18.3333" y="18">FEM</tspan></text><path d="M78.5001 55.1667 107.834 55.1668 107.834 57.8335 78.5 57.8334ZM106.5 52.5001 114.5 56.5002 106.5 60.5001Z"/><path d="M261.5 172.335C261.5 163.037 269.037 155.5 278.335 155.5L345.674 155.5C354.972 155.5 362.51 163.037 362.51 172.335L362.51 277.665C362.51 286.963 354.972 294.5 345.674 294.5L278.335 294.5C269.037 294.5 261.5 286.963 261.5 277.665Z" stroke="#000000" stroke-width="2.66667" stroke-miterlimit="8" fill="#FFFFFF" fill-rule="evenodd"/><text font-family="Arial,Arial_MSFontService,sans-serif" font-weight="400" font-size="15" transform="translate(288.502 186)">Extract <tspan font-family="Cambria Math,Cambria Math_MSFontService,sans-serif" font-size="15" x="-3.88666" y="18">ğœ”</tspan><tspan font-family="Cambria Math,Cambria Math_MSFontService,sans-serif" font-size="15" x="7.10001" y="18"> </tspan><tspan font-family="Cambria Math,Cambria Math_MSFontService,sans-serif" font-size="15" x="10.2667" y="18">ğ‘ğ‘›ğ‘‘</tspan><tspan font-family="Cambria Math,Cambria Math_MSFontService,sans-serif" font-size="15" x="35.9" y="18"> </tspan><tspan font-family="Cambria Math,Cambria Math_MSFontService,sans-serif" font-size="15" x="39.0667" y="18">ğœ™</tspan><tspan font-size="15" x="-11.0867" y="35">for all load </tspan><tspan font-size="15" x="-13" y="53">cases from </tspan><tspan font-size="15" x="-8.16666" y="71">reference </tspan><tspan font-size="15" x="7.24667" y="88">FEM</tspan></text><path d="M1.33332-0.00648063 1.42238 18.318-1.24425 18.331-1.33332 0.00648063ZM4.08254 16.9717 0.12147 24.9911-3.91737 17.0106Z" transform="matrix(-1 0 0 1 380.622 655.5)"/><path d="M273.5 610.5 380.5 565.5 487.5 610.5 380.5 655.5Z" stroke="#000000" stroke-width="2.66667" stroke-miterlimit="8" fill="#FFFFFF" fill-rule="evenodd"/><text font-family="Arial,Arial_MSFontService,sans-serif" font-weight="400" font-size="15" transform="translate(335.993 615)">Convergence</text><path d="M344.5 698.5C344.5 688.559 352.559 680.5 362.5 680.5L398.5 680.5C408.441 680.5 416.5 688.559 416.5 698.5L416.5 698.5C416.5 708.441 408.441 716.5 398.5 716.5L362.5 716.5C352.559 716.5 344.5 708.441 344.5 698.5Z" stroke="#4472C4" stroke-width="2.66667" stroke-miterlimit="8" fill="#F8CBAD" fill-rule="evenodd"/><text font-family="Arial,Arial_MSFontService,sans-serif" font-weight="400" font-size="15" transform="translate(366.455 704)">End</text><path d="M278.5 28.5003C278.5 20.7682 284.768 14.5001 292.5 14.5001L464.5 14.5001C472.232 14.5001 478.5 20.7682 478.5 28.5003L478.5 84.4998C478.5 92.2319 472.232 98.5 464.5 98.5L292.5 98.5C284.768 98.5 278.5 92.2319 278.5 84.4998Z" stroke="#000000" stroke-width="2.66667" stroke-miterlimit="8" fill="#FFFFFF" fill-rule="evenodd"/><text font-family="Arial,Arial_MSFontService,sans-serif" font-weight="400" font-size="15" transform="translate(325.218 35)">Define n loading <tspan font-size="15" x="-15.7533" y="18">conditions that cause </tspan><tspan font-size="15" x="-23.8333" y="35">large deformation in the </tspan><tspan font-size="15" x="-16.92" y="53">very flexible test case</tspan></text><path d="M261.5 342.167C261.5 331.305 270.305 322.5 281.167 322.5L478.833 322.5C489.695 322.5 498.5 331.305 498.5 342.167L498.5 420.833C498.5 431.695 489.695 440.5 478.833 440.5L281.167 440.5C270.305 440.5 261.5 431.695 261.5 420.833Z" stroke="#000000" stroke-width="2.66667" stroke-miterlimit="8" fill="#FFFFFF" fill-rule="evenodd"/><text font-family="Arial,Arial_MSFontService,sans-serif" font-weight="400" font-size="15" transform="translate(278.537 342)">For all deformed configurations <tspan font-size="15" x="8.84" y="18">simultaneously, match the </tspan><tspan font-family="Cambria Math,Cambria Math_MSFontService,sans-serif" font-size="15" x="182.173" y="18">ğœ”</tspan><tspan font-size="15" x="34.6667" y="35">and mass properties</tspan><tspan font-size="15" x="1.74664" y="53">of the mistuned model with the </tspan><tspan font-size="15" x="29.2467" y="71">reference model while </tspan><tspan font-size="15" x="34.4267" y="88">satisfying MAC for </tspan><tspan font-family="Cambria Math,Cambria Math_MSFontService,sans-serif" font-size="15" x="157.26" y="88">ğœ™</tspan></text><path d="M283.5 478C283.5 471.097 289.097 465.5 296 465.5L465 465.5C471.903 465.5 477.5 471.097 477.5 478L477.5 528C477.5 534.903 471.903 540.5 465 540.5L296 540.5C289.097 540.5 283.5 534.903 283.5 528Z" stroke="#000000" stroke-width="2.66667" stroke-miterlimit="8" fill="#FFFFFF" fill-rule="evenodd"/><text font-family="Arial,Arial_MSFontService,sans-serif" font-weight="400" font-size="15" transform="translate(308.571 481)">Check mass, <tspan font-family="Cambria Math,Cambria Math_MSFontService,sans-serif" font-size="15" x="88.6667" y="0">ğœ”</tspan><tspan font-family="Cambria Math,Cambria Math_MSFontService,sans-serif" font-size="15" x="99.6534" y="0"> </tspan><tspan font-family="Cambria Math,Cambria Math_MSFontService,sans-serif" font-size="15" x="102.82" y="0">ğ‘ğ‘›ğ‘‘</tspan><tspan font-family="Cambria Math,Cambria Math_MSFontService,sans-serif" font-size="15" x="128.453" y="0"> </tspan><tspan font-family="Cambria Math,Cambria Math_MSFontService,sans-serif" font-size="15" x="131.62" y="0">ğœ™</tspan><tspan font-size="15" x="-7.53333" y="18">of the updated mistuned </tspan><tspan font-size="15" x="13.1333" y="35">model against the </tspan><tspan font-size="15" x="16.4667" y="53">reference results</tspan></text><path d="M381.833 440.5 381.834 458.824 379.167 458.824 379.167 440.5ZM384.5 457.491 380.501 465.491 376.5 457.491Z"/><text fill="#548235" font-family="Arial,Arial_MSFontService,sans-serif" font-weight="400" font-size="24" transform="translate(413.481 669)">YES</text><path d="M273.195 611.79 236.167 611.79 236.167 380.167 254.833 380.167 254.833 382.833 237.5 382.833 238.833 381.5 238.833 610.456 237.5 609.123 273.195 609.123ZM253.5 377.5 261.5 381.5 253.5 385.5Z"/><text fill="#FF0000" font-family="Arial,Arial_MSFontService,sans-serif" font-weight="400" font-size="24" transform="translate(181.333 604)">NO</text><rect x="501.5" y="538.5" width="214" height="117" stroke="#2F528F" stroke-width="1.33333" stroke-miterlimit="8" fill="none"/><text font-family="Arial,Arial_MSFontService,sans-serif" font-weight="400" font-size="15" transform="translate(510.382 566)">Termination criteria:<tspan font-size="15" x="0" y="18">1.</tspan><tspan font-size="15" x="36" y="18">Maximum number of </tspan><tspan font-size="15" x="36" y="35">iterations exceeded</tspan><tspan font-size="15" x="0" y="53">2.</tspan><tspan font-size="15" x="36" y="53">Acceptable match found </tspan><tspan font-size="15" x="36" y="71">within tolerance</tspan></text><path d="M98.5001 118.834C98.5001 113.127 103.127 108.5 108.834 108.5L241.167 108.5C246.874 108.5 251.5 113.127 251.5 118.834L251.5 160.167C251.5 165.874 246.874 170.5 241.167 170.5L108.834 170.5C103.127 170.5 98.5001 165.874 98.5001 160.167Z" stroke="#000000" stroke-width="2.66667" stroke-miterlimit="8" fill="#FFFFFF" fill-rule="evenodd"/><text font-family="Arial,Arial_MSFontService,sans-serif" font-weight="400" font-size="15" transform="translate(112.274 135)">Generate mistuned <tspan font-size="15" x="42.3333" y="18">model</tspan></text><path d="M395.5 173.167C395.5 163.41 403.41 155.5 413.167 155.5L483.833 155.5C493.59 155.5 501.5 163.41 501.5 173.167L501.5 276.833C501.5 286.59 493.59 294.5 483.833 294.5L413.167 294.5C403.41 294.5 395.5 286.59 395.5 276.833Z" stroke="#000000" stroke-width="2.66667" stroke-miterlimit="8" fill="#FFFFFF" fill-rule="evenodd"/><text font-family="Arial,Arial_MSFontService,sans-serif" font-weight="400" font-size="15" transform="translate(425.259 186)">Extract<tspan font-family="Cambria Math,Cambria Math_MSFontService,sans-serif" font-size="15" x="-3.87997" y="18">ğœ”</tspan><tspan font-family="Cambria Math,Cambria Math_MSFontService,sans-serif" font-size="15" x="7.10669" y="18"> </tspan><tspan font-family="Cambria Math,Cambria Math_MSFontService,sans-serif" font-size="15" x="10.2733" y="18">ğ‘ğ‘›ğ‘‘</tspan><tspan font-family="Cambria Math,Cambria Math_MSFontService,sans-serif" font-size="15" x="35.9067" y="18"> </tspan><tspan font-family="Cambria Math,Cambria Math_MSFontService,sans-serif" font-size="15" x="39.0733" y="18">ğœ™</tspan><tspan font-size="15" x="-9.07999" y="35">for all load </tspan><tspan font-size="15" x="-13" y="53">cases from </tspan><tspan font-size="15" x="-7" y="71">mistuned </tspan><tspan font-size="15" x="7.25336" y="88">FEM</tspan></text><path d="M0.863401-1.01603 62.8325 51.644 61.1057 53.6761-0.863401 1.01603ZM63.5433 48.7485 67.0492 56.977 58.3629 54.8447Z" transform="matrix(-1 0 0 1 378.549 98.5001)"/><path d="M1.33331-0.0083667 1.46827 21.4994-1.19834 21.5161-1.33331 0.0083667ZM4.12652 20.1493 0.176798 28.1743-3.87332 20.1995Z" transform="matrix(-1 0 0 1 175.677 80.5001)"/><path d="M236.51 55.1668 272.438 55.4268 272.419 58.0933 236.49 57.8334ZM271.124 52.7505 279.095 56.8083 271.066 60.7503Z"/><path d="M381.833 540.494 381.922 558.818 379.256 558.831 379.167 540.507ZM384.583 557.472 380.621 565.491 376.583 557.511Z"/><path d="M0.905979-0.978253 38.6099 33.94 36.7979 35.8966-0.905979 0.978253ZM39.4436 31.0776 42.5952 39.4482 34.0077 36.9471Z" transform="matrix(1 0 0 -1 251.5 138.948)"/><path d="M379.344 97.4677 443.893 150.226 442.205 152.29 377.656 99.5324ZM444.548 147.317 448.211 155.477 439.485 153.511Z"/><path d="M312.833 294.5 312.833 316.02 310.167 316.02 310.167 294.5ZM315.5 314.686 311.5 322.686 307.5 314.686Z"/><path d="M449.833 294.5 449.833 316.02 447.167 316.02 447.167 294.5ZM452.5 314.686 448.5 322.686 444.5 314.686Z"/></g></svg>